<svg width="16" height="16" viewBox="0 0 16 16" fill="none" xmlns="http://www.w3.org/2000/svg">
<path d="M10.7334 3.46672C10.9986 3.46672 11.2529 3.57207 11.4405 3.75961C11.628 3.94715 11.7334 4.2015 11.7334 4.46672V13.8C11.7334 14.0653 11.628 14.3196 11.4405 14.5072C11.2529 14.6947 10.9986 14.8 10.7334 14.8H3.40002C3.2687 14.8 3.13867 14.7742 3.01734 14.7239C2.89602 14.6737 2.78578 14.6 2.69292 14.5072C2.60006 14.4143 2.5264 14.3041 2.47614 14.1827C2.42589 14.0614 2.40002 13.9314 2.40002 13.8V4.46672C2.40002 4.2015 2.50538 3.94715 2.69292 3.75961C2.88045 3.57207 3.13481 3.46672 3.40002 3.46672H10.7334ZM13.3974 0.800049C13.6461 0.799895 13.8859 0.892422 14.0701 1.05957C14.2542 1.22672 14.3695 1.45649 14.3934 1.70405L14.3974 1.80005V10.7954C14.3972 10.9653 14.3321 11.1287 14.2155 11.2523C14.0988 11.3759 13.9394 11.4502 13.7698 11.4602C13.6001 11.4701 13.4331 11.4149 13.3028 11.3059C13.1725 11.1968 13.0888 11.0421 13.0687 10.8734L13.064 10.7954V2.13338H6.40002C6.23674 2.13336 6.07913 2.07341 5.95711 1.96491C5.83509 1.8564 5.75713 1.70688 5.73802 1.54472L5.73336 1.46672C5.73338 1.30343 5.79333 1.14582 5.90183 1.0238C6.01034 0.901778 6.15986 0.823821 6.32202 0.804716L6.40002 0.800049H13.3974Z" fill="white" fill-opacity="0.4"/>
</svg>
