<svg xmlns="http://www.w3.org/2000/svg" width="17" height="17" viewBox="0 0 17 17" fill="none">
  <g clip-path="url(#clip0_3236_13188)">
    <path d="M16.1812 4.19697C15.7812 2.29697 12.4812 0.896973 8.28125 0.896973C4.08125 0.896973 0.78125 2.29697 0.38125 4.19697C0.28125 4.29697 0.28125 4.49697 0.28125 4.59697V8.89697V12.897V12.997C0.28125 13.097 0.28125 13.097 0.28125 13.197C0.28125 15.297 3.68125 16.897 8.28125 16.897C12.8813 16.897 16.2812 15.297 16.2812 13.197C16.2812 13.097 16.2812 13.097 16.2812 12.997V12.897V8.89697V4.59697C16.2812 4.49697 16.2812 4.29697 16.1812 4.19697ZM15.2812 11.297V11.997V12.397V13.197C15.2812 13.297 15.2812 13.297 15.2812 13.397C14.9812 14.597 12.1812 15.897 8.28125 15.897C4.38125 15.897 1.58125 14.597 1.28125 13.397C1.28125 13.297 1.28125 13.297 1.28125 13.197V12.397V11.997V11.297V10.697C1.38125 10.897 1.48125 10.897 1.68125 10.997C1.88125 11.097 1.98125 11.197 2.18125 11.297C2.38125 11.397 2.58125 11.497 2.68125 11.597C3.48125 11.997 4.48125 12.197 5.48125 12.397C6.38125 12.497 7.28125 12.597 8.28125 12.597C9.28125 12.597 10.1813 12.497 11.0813 12.397C12.1813 12.197 13.0813 11.997 13.8813 11.597C14.0813 11.497 14.2812 11.397 14.3813 11.297C14.5813 11.197 14.6813 11.097 14.8813 10.997C15.0813 10.897 15.1812 10.897 15.2812 10.697V11.297ZM15.2812 7.09697V7.79697V8.89697C15.2812 9.39697 14.7812 9.99697 13.8813 10.497C13.6813 10.597 13.4812 10.697 13.2812 10.797C13.0813 10.897 12.7812 10.997 12.4812 11.097C11.3812 11.397 9.88125 11.697 8.28125 11.697C6.68125 11.697 5.18125 11.497 4.08125 11.097C3.78125 10.997 3.58125 10.897 3.28125 10.797C3.08125 10.697 2.88125 10.597 2.68125 10.497C1.78125 9.99697 1.28125 9.39697 1.28125 8.89697V7.79697V7.09697V6.49697C1.38125 6.59697 1.48125 6.69697 1.68125 6.79697C1.78125 6.89697 1.98125 6.99697 2.18125 7.09697C2.28125 7.09697 2.48125 7.19697 2.68125 7.29697C4.08125 7.89697 6.08125 8.29697 8.28125 8.29697C10.4812 8.29697 12.4813 7.89697 13.8813 7.29697C14.0813 7.19697 14.2812 7.09697 14.3813 6.99697C14.5813 6.89697 14.6813 6.79697 14.8813 6.69697C14.9813 6.59697 15.1812 6.49697 15.2812 6.39697V7.09697ZM15.1812 4.89697C15.0812 5.39697 14.5813 5.79697 13.7812 6.19697C13.5813 6.29697 13.3812 6.39697 13.1812 6.49697C12.9812 6.59697 12.6813 6.69697 12.3813 6.79697C11.3813 7.09697 9.88125 7.29697 8.28125 7.29697C6.68125 7.29697 5.18125 7.09697 4.08125 6.79697C3.78125 6.69697 3.58125 6.59697 3.28125 6.49697C3.08125 6.39697 2.88125 6.29697 2.68125 6.19697C1.98125 5.79697 1.48125 5.39697 1.38125 4.89697C1.28125 4.79697 1.28125 4.69697 1.28125 4.59697C1.28125 4.39697 1.38125 4.09697 1.58125 3.89697C2.38125 2.89697 4.88125 1.89697 8.28125 1.89697C11.6812 1.89697 14.1812 2.89697 14.9812 3.89697C15.1812 4.09697 15.2812 4.39697 15.2812 4.59697C15.2812 4.69697 15.2812 4.79697 15.1812 4.89697Z" fill="#29E5FD"/>
  </g>
  <defs>
    <clipPath id="clip0_3236_13188">
      <rect width="16" height="16" fill="white" transform="translate(0.28125 0.896973)"/>
    </clipPath>
  </defs>
</svg>