<svg width="36" height="36" viewBox="0 0 36 36" fill="none" xmlns="http://www.w3.org/2000/svg">
<path d="M16.7914 2.30127H8.51143L0 11.2627V15.6984L15.1843 34.0455C15.3661 34.2902 15.6027 34.489 15.875 34.6259C16.1474 34.7628 16.448 34.8342 16.7529 34.8342C17.0577 34.8342 17.3583 34.7628 17.6307 34.6259C17.903 34.489 18.1396 34.2902 18.3214 34.0455L33.5057 15.6984V11.2627L25.3414 2.2627L16.7914 2.30127Z" fill="#F48C4A"/>
<path d="M17.1512 5.25879H10.4655L4.16553 12.1888V15.6216L15.9041 29.7645C16.0454 29.9534 16.2287 30.1068 16.4397 30.2124C16.6506 30.3181 16.8832 30.3731 17.1191 30.3731C17.355 30.3731 17.5876 30.3181 17.7985 30.2124C18.0095 30.1068 18.1928 29.9534 18.3341 29.7645L30.0727 15.6216V12.1888L23.7598 5.25879H17.1512Z" fill="#E55A00"/>
<path d="M18.3341 28.53C18.187 28.7102 18.0017 28.8554 17.7915 28.9551C17.5814 29.0548 17.3517 29.1065 17.1191 29.1065C16.8865 29.1065 16.6568 29.0548 16.4467 28.9551C16.2365 28.8554 16.0512 28.7102 15.9041 28.53L4.16553 15.6729L15.9041 29.9571C16.0454 30.146 16.2287 30.2994 16.4397 30.4051C16.6506 30.5107 16.8832 30.5657 17.1191 30.5657C17.355 30.5657 17.5876 30.5107 17.7985 30.4051C18.0095 30.2994 18.1928 30.146 18.3341 29.9571L30.0727 15.6729L18.3341 28.53Z" fill="#A24104"/>
<g filter="url(#filter0_d_3236_13467)">
<path d="M16.9631 21.1193C16.2983 21.1193 15.7088 21.0057 15.1946 20.7784C14.6832 20.5483 14.2798 20.2315 13.9844 19.8281C13.6889 19.4247 13.5384 18.9602 13.5327 18.4347H15.6548C15.6634 18.625 15.7244 18.794 15.8381 18.9418C15.9517 19.0866 16.1065 19.2003 16.3026 19.2827C16.4986 19.3651 16.7216 19.4062 16.9716 19.4062C17.2216 19.4062 17.4418 19.3622 17.6321 19.2741C17.8253 19.1832 17.9759 19.0597 18.0838 18.9034C18.1918 18.7443 18.2443 18.5625 18.2415 18.358C18.2443 18.1534 18.1861 17.9716 18.0668 17.8125C17.9474 17.6534 17.7784 17.5298 17.5597 17.4418C17.3438 17.3537 17.0881 17.3097 16.7926 17.3097H15.9446V15.8097H16.7926C17.0511 15.8097 17.2784 15.767 17.4744 15.6818C17.6733 15.5966 17.8281 15.4773 17.9389 15.3239C18.0497 15.1676 18.1037 14.9886 18.1009 14.7869C18.1037 14.5909 18.0568 14.419 17.9602 14.2713C17.8665 14.1207 17.7344 14.0043 17.5639 13.9219C17.3963 13.8395 17.2017 13.7983 16.9801 13.7983C16.7472 13.7983 16.5355 13.8395 16.3452 13.9219C16.1577 14.0043 16.0085 14.1207 15.8977 14.2713C15.7869 14.4219 15.7287 14.5966 15.723 14.7955H13.7074C13.7131 14.2756 13.858 13.8182 14.142 13.4233C14.4261 13.0256 14.8125 12.7145 15.3011 12.4901C15.7926 12.2656 16.3523 12.1534 16.9801 12.1534C17.6051 12.1534 18.1548 12.2628 18.6293 12.4815C19.1037 12.7003 19.473 12.9986 19.7372 13.3764C20.0014 13.7514 20.1335 14.1761 20.1335 14.6506C20.1364 15.142 19.9759 15.5469 19.652 15.8651C19.331 16.1832 18.9176 16.3793 18.4119 16.4531V16.5213C19.0881 16.6009 19.598 16.8196 19.9418 17.1776C20.2884 17.5355 20.4602 17.983 20.4574 18.5199C20.4574 19.0256 20.3082 19.4744 20.0099 19.8665C19.7145 20.2557 19.3026 20.5625 18.7741 20.7869C18.2486 21.0085 17.6449 21.1193 16.9631 21.1193Z" fill="#FFAA73"/>
</g>
<defs>
<filter id="filter0_d_3236_13467" x="13.5327" y="12.1533" width="7.92871" height="9.96582" filterUnits="userSpaceOnUse" color-interpolation-filters="sRGB">
<feFlood flood-opacity="0" result="BackgroundImageFix"/>
<feColorMatrix in="SourceAlpha" type="matrix" values="0 0 0 0 0 0 0 0 0 0 0 0 0 0 0 0 0 0 127 0" result="hardAlpha"/>
<feOffset dx="1" dy="1"/>
<feComposite in2="hardAlpha" operator="out"/>
<feColorMatrix type="matrix" values="0 0 0 0 0 0 0 0 0 0 0 0 0 0 0 0 0 0 0.25 0"/>
<feBlend mode="normal" in2="BackgroundImageFix" result="effect1_dropShadow_3236_13467"/>
<feBlend mode="normal" in="SourceGraphic" in2="effect1_dropShadow_3236_13467" result="shape"/>
</filter>
</defs>
</svg>
