<svg width="36" height="36" viewBox="0 0 36 36" fill="none" xmlns="http://www.w3.org/2000/svg">
<path d="M16.7914 2.30127H8.51143L0 11.2627V15.6984L15.1843 34.0455C15.3661 34.2902 15.6027 34.489 15.875 34.6259C16.1474 34.7628 16.448 34.8342 16.7529 34.8342C17.0577 34.8342 17.3583 34.7628 17.6307 34.6259C17.903 34.489 18.1396 34.2902 18.3214 34.0455L33.5057 15.6984V11.2627L25.3414 2.2627L16.7914 2.30127Z" fill="#FFC859"/>
<path d="M17.1512 5.25879H10.4655L4.16553 12.1888V15.6216L15.9041 29.7645C16.0454 29.9534 16.2287 30.1068 16.4397 30.2124C16.6506 30.3181 16.8832 30.3731 17.1191 30.3731C17.355 30.3731 17.5876 30.3181 17.7985 30.2124C18.0095 30.1068 18.1928 29.9534 18.3341 29.7645L30.0727 15.6216V12.1888L23.7598 5.25879H17.1512Z" fill="#F9B123"/>
<path d="M18.3341 28.53C18.187 28.7102 18.0017 28.8554 17.7915 28.9551C17.5814 29.0548 17.3517 29.1065 17.1191 29.1065C16.8865 29.1065 16.6568 29.0548 16.4467 28.9551C16.2365 28.8554 16.0512 28.7102 15.9041 28.53L4.16553 15.6729L15.9041 29.9571C16.0454 30.146 16.2287 30.2994 16.4397 30.4051C16.6506 30.5107 16.8832 30.5657 17.1191 30.5657C17.355 30.5657 17.5876 30.5107 17.7985 30.4051C18.0095 30.2994 18.1928 30.146 18.3341 29.9571L30.0727 15.6729L18.3341 28.53Z" fill="#D28A0C"/>
<g filter="url(#filter0_d_3236_13393)">
<path d="M18.679 11.2727V20H16.5739V13.2415H16.5227L14.571 14.4347V12.6108L16.723 11.2727H18.679Z" fill="#FFDB94"/>
</g>
<defs>
<filter id="filter0_d_3236_13393" x="14.5708" y="11.2729" width="5.1084" height="9.72705" filterUnits="userSpaceOnUse" color-interpolation-filters="sRGB">
<feFlood flood-opacity="0" result="BackgroundImageFix"/>
<feColorMatrix in="SourceAlpha" type="matrix" values="0 0 0 0 0 0 0 0 0 0 0 0 0 0 0 0 0 0 127 0" result="hardAlpha"/>
<feOffset dx="1" dy="1"/>
<feComposite in2="hardAlpha" operator="out"/>
<feColorMatrix type="matrix" values="0 0 0 0 0 0 0 0 0 0 0 0 0 0 0 0 0 0 0.25 0"/>
<feBlend mode="normal" in2="BackgroundImageFix" result="effect1_dropShadow_3236_13393"/>
<feBlend mode="normal" in="SourceGraphic" in2="effect1_dropShadow_3236_13393" result="shape"/>
</filter>
</defs>
</svg>
