<svg width="36" height="36" viewBox="0 0 36 36" fill="none" xmlns="http://www.w3.org/2000/svg">
<path d="M16.7914 2.30127H8.51143L0 11.2627V15.6984L15.1843 34.0455C15.3661 34.2902 15.6027 34.489 15.875 34.6259C16.1474 34.7628 16.448 34.8342 16.7529 34.8342C17.0577 34.8342 17.3583 34.7628 17.6307 34.6259C17.903 34.489 18.1396 34.2902 18.3214 34.0455L33.5057 15.6984V11.2627L25.3414 2.2627L16.7914 2.30127Z" fill="#CED9DF"/>
<path d="M17.1512 5.25879H10.4655L4.16553 12.1888V15.6216L15.9041 29.7645C16.0454 29.9534 16.2287 30.1068 16.4397 30.2124C16.6506 30.3181 16.8832 30.3731 17.1191 30.3731C17.355 30.3731 17.5876 30.3181 17.7985 30.2124C18.0095 30.1068 18.1928 29.9534 18.3341 29.7645L30.0727 15.6216V12.1888L23.7598 5.25879H17.1512Z" fill="#A0B5C6"/>
<path d="M18.3341 28.53C18.187 28.7102 18.0017 28.8554 17.7915 28.9551C17.5814 29.0548 17.3517 29.1065 17.1191 29.1065C16.8865 29.1065 16.6568 29.0548 16.4467 28.9551C16.2365 28.8554 16.0512 28.7102 15.9041 28.53L4.16553 15.6729L15.9041 29.9571C16.0454 30.146 16.2287 30.2994 16.4397 30.4051C16.6506 30.5107 16.8832 30.5657 17.1191 30.5657C17.355 30.5657 17.5876 30.5107 17.7985 30.4051C18.0095 30.2994 18.1928 30.146 18.3341 29.9571L30.0727 15.6729L18.3341 28.53Z" fill="#2E4D62"/>
<g filter="url(#filter0_d_3236_13441)">
<path d="M13.6435 20V18.483L16.8267 15.696C17.0653 15.4801 17.2685 15.2827 17.4361 15.1037C17.6037 14.9219 17.7315 14.7401 17.8196 14.5582C17.9077 14.3736 17.9517 14.1733 17.9517 13.9574C17.9517 13.7159 17.8991 13.5099 17.794 13.3395C17.6889 13.1662 17.544 13.0327 17.3594 12.9389C17.1747 12.8452 16.9631 12.7983 16.7244 12.7983C16.483 12.7983 16.2713 12.848 16.0895 12.9474C15.9077 13.044 15.7656 13.1847 15.6634 13.3693C15.5639 13.554 15.5142 13.7784 15.5142 14.0426H13.5156C13.5156 13.4489 13.6491 12.9361 13.9162 12.5043C14.1832 12.0724 14.5582 11.7401 15.0412 11.5071C15.527 11.2713 16.0909 11.1534 16.733 11.1534C17.3949 11.1534 17.9702 11.2642 18.4588 11.4858C18.9474 11.7074 19.3253 12.017 19.5923 12.4148C19.8622 12.8097 19.9972 13.2685 19.9972 13.7912C19.9972 14.1236 19.9304 14.4531 19.7969 14.7798C19.6634 15.1065 19.4233 15.4673 19.0767 15.8622C18.733 16.2571 18.2443 16.7301 17.6108 17.2812L16.5668 18.2443V18.2997H20.1037V20H13.6435Z" fill="#EEF2F3"/>
</g>
<defs>
<filter id="filter0_d_3236_13441" x="13.5156" y="11.1533" width="7.58789" height="9.84668" filterUnits="userSpaceOnUse" color-interpolation-filters="sRGB">
<feFlood flood-opacity="0" result="BackgroundImageFix"/>
<feColorMatrix in="SourceAlpha" type="matrix" values="0 0 0 0 0 0 0 0 0 0 0 0 0 0 0 0 0 0 127 0" result="hardAlpha"/>
<feOffset dx="1" dy="1"/>
<feComposite in2="hardAlpha" operator="out"/>
<feColorMatrix type="matrix" values="0 0 0 0 0 0 0 0 0 0 0 0 0 0 0 0 0 0 0.25 0"/>
<feBlend mode="normal" in2="BackgroundImageFix" result="effect1_dropShadow_3236_13441"/>
<feBlend mode="normal" in="SourceGraphic" in2="effect1_dropShadow_3236_13441" result="shape"/>
</filter>
</defs>
</svg>
