<svg width="22" height="23" viewBox="0 0 22 23" fill="none" xmlns="http://www.w3.org/2000/svg">
<path d="M1.45084 6.20418C-0.970643 9.44988 0.926457 14.9609 5.68813 18.5134C10.4498 22.0659 16.2729 22.3146 18.6944 19.0689C19.3085 18.3103 19.4405 18.178 20.366 16.9877C20.6588 13.8918 18.0494 9.43976 14.4571 6.75967C10.5375 3.83543 5.63654 2.98904 2.76782 4.64829C2.10668 5.30943 1.87907 5.63019 1.45084 6.20418Z" fill="#056B79"/>
<path d="M15.9226 5.04541C13.5989 3.31195 11.053 2.37776 8.83324 2.24554C6.60805 2.113 4.78297 2.78347 3.75369 4.16287C2.72445 5.54244 2.60116 7.48353 3.3621 9.57892C4.12116 11.669 5.74248 13.8427 8.06594 15.5762C10.3896 17.3098 12.9357 18.2452 15.1555 18.3775C17.3808 18.51 19.2064 17.8389 20.2356 16.4593C21.2647 15.0798 21.3875 13.1393 20.6266 11.0441C19.8675 8.95387 18.2463 6.77904 15.9226 5.04541Z" fill="#28D6ED" fill-opacity="0.2" stroke="#95F3FF" stroke-width="1.1"/>
<path d="M9.71415 8.67411C10.4304 10.4469 9.72576 11.8174 8.2873 11.7861C7.65636 11.8082 7.39316 12.4405 7.69943 13.1986C8.0057 13.9566 8.76545 14.5533 9.39639 14.5312C9.99286 14.5104 10.2607 13.9441 10.0294 13.2418C9.66004 12.1417 10.0762 11.2521 11.0088 11.2195C11.87 11.1894 12.8854 11.9002 13.4434 12.8714C13.5134 13.017 14.1179 14.0158 15.1027 14.0324C15.7498 14.0261 16.0323 13.352 15.7139 12.5638C15.6219 12.3508 15.5482 12.2346 15.4614 12.0132C14.6841 10.0319 15.8 9.19744 16.5365 9.17172C17.0719 9.1331 17.2839 8.57845 17.0188 7.92246C16.7475 7.25079 16.0743 6.72213 15.5152 6.74165C14.9716 6.76063 14.7361 7.29095 14.973 7.93777C15.3559 8.9275 15.0047 9.74662 14.1774 9.77551C13.3395 9.80477 12.3306 9.01245 11.9239 8.00581C11.8104 7.73798 11.8008 7.53176 11.6959 7.28317C11.3389 6.39964 10.4534 5.70422 9.71804 5.7299C8.98265 5.75558 8.67588 6.49264 9.03285 7.37617C9.12176 7.60356 9.25695 7.80797 9.25695 7.80797C9.43704 8.08103 9.59198 8.37174 9.71415 8.67411Z" fill="white"/>
</svg>
