<svg width="40" height="40" viewBox="0 0 40 40" fill="none" xmlns="http://www.w3.org/2000/svg">
<path d="M28.088 12.4358C28.0818 12.4238 28.0716 12.4143 28.0592 12.4092C26.6264 11.7455 25.1143 11.2722 23.5608 11.0012C23.5467 10.9985 23.5321 11.0004 23.5191 11.0066C23.5062 11.0128 23.4955 11.023 23.4885 11.0357C23.2826 11.413 23.0957 11.8005 22.9285 12.1969C21.254 11.9402 19.5506 11.9402 17.8761 12.1969C17.7078 11.7995 17.5179 11.4119 17.3072 11.0357C17.3 11.0233 17.2893 11.0133 17.2764 11.0072C17.2635 11.001 17.249 10.9989 17.2349 11.0012C15.6813 11.2716 14.1691 11.7449 12.7364 12.4092C12.7242 12.4145 12.7138 12.4235 12.7068 12.4349C9.84174 16.7547 9.05689 20.9682 9.44191 25.1296C9.443 25.1398 9.4461 25.1496 9.45104 25.1586C9.45598 25.1676 9.46265 25.1754 9.47067 25.1817C11.139 26.4289 13.005 27.3808 14.9891 27.997C15.0031 28.0012 15.018 28.001 15.0319 27.9964C15.0457 27.9918 15.0579 27.9831 15.0666 27.9713C15.4928 27.3859 15.8704 26.766 16.1956 26.1179C16.2001 26.109 16.2026 26.0993 16.2031 26.0893C16.2035 26.0794 16.2019 26.0694 16.1983 26.0601C16.1947 26.0509 16.1892 26.0425 16.1821 26.0355C16.175 26.0285 16.1666 26.0231 16.1573 26.0197C15.5619 25.7897 14.9854 25.5124 14.4333 25.1905C14.4233 25.1845 14.4149 25.1762 14.4088 25.1661C14.4027 25.1561 14.3992 25.1448 14.3985 25.133C14.3978 25.1213 14.4 25.1096 14.4049 25.0989C14.4097 25.0883 14.4171 25.079 14.4264 25.0719C14.5422 24.9842 14.6581 24.8931 14.7687 24.801C14.7786 24.7929 14.7905 24.7876 14.8031 24.7859C14.8157 24.7842 14.8285 24.7861 14.8402 24.7913C18.4569 26.4578 22.3726 26.4578 25.9466 24.7913C25.9582 24.7857 25.9712 24.7836 25.984 24.7852C25.9968 24.7867 26.0089 24.7919 26.0189 24.8002C26.1295 24.8922 26.2454 24.9842 26.3621 25.0719C26.3714 25.0789 26.3789 25.0881 26.3838 25.0988C26.3888 25.1094 26.391 25.1211 26.3904 25.1328C26.3898 25.1445 26.3864 25.1559 26.3804 25.166C26.3744 25.176 26.366 25.1844 26.356 25.1905C25.8052 25.5151 25.2282 25.7922 24.6312 26.0188C24.622 26.0224 24.6136 26.0279 24.6065 26.035C24.5995 26.0421 24.594 26.0505 24.5905 26.0599C24.587 26.0692 24.5854 26.0792 24.5859 26.0892C24.5865 26.0992 24.5891 26.109 24.5937 26.1179C24.9243 26.7624 25.3014 27.3815 25.7217 27.9703C25.7303 27.9824 25.7424 27.9914 25.7563 27.9962C25.7702 28.001 25.7852 28.0012 25.7993 27.9968C27.7869 27.3828 29.6562 26.4308 31.3266 25.1817C31.3348 25.1758 31.3415 25.1681 31.3465 25.1592C31.3515 25.1504 31.3545 25.1406 31.3554 25.1304C31.8163 20.3195 30.5837 16.1405 28.088 12.4358ZM16.7357 22.5957C15.6468 22.5957 14.7496 21.5868 14.7496 20.3478C14.7496 19.1088 15.6294 18.0998 16.7357 18.0998C17.8507 18.0998 18.7392 19.1175 18.7218 20.3477C18.7218 21.5868 17.842 22.5957 16.7357 22.5957ZM24.0791 22.5957C22.9902 22.5957 22.093 21.5868 22.093 20.3478C22.093 19.1088 22.9728 18.0998 24.0791 18.0998C25.1942 18.0998 26.0827 19.1175 26.0653 20.3477C26.0653 21.5868 25.1942 22.5957 24.0791 22.5957Z" fill="white"/>
</svg>
