<svg width="22" height="22" viewBox="0 0 22 22" fill="none" xmlns="http://www.w3.org/2000/svg">
<path d="M19 2.5C19.394 2.5 19.7844 2.57775 20.1484 2.72852C20.5124 2.87928 20.8435 3.10035 21.1221 3.37891C21.4005 3.65744 21.6208 3.98865 21.7715 4.35254C21.9222 4.7164 22 5.10617 22 5.5V16.501C21.9999 17.2964 21.6845 18.0595 21.1221 18.6221C20.5594 19.1847 19.7957 19.501 19 19.501H3C2.20432 19.501 1.44056 19.1847 0.87793 18.6221C0.315486 18.0595 7.60353e-05 17.2965 0 16.501V5.5C8.81799e-05 4.70452 0.315482 3.94144 0.87793 3.37891C1.44056 2.81628 2.20432 2.5 3 2.5H19ZM19.7998 5.59961C19.5972 5.5323 19.378 5.53487 19.1787 5.60645L19.0947 5.6416L11.0254 9.4502L2.90234 5.64551L2.89453 5.64258L2.82812 5.61426L2.81836 5.61133L2.73145 5.58496C2.52578 5.53281 2.30779 5.5508 2.1123 5.6377C1.88895 5.73701 1.71204 5.91843 1.61914 6.14453C1.52636 6.37057 1.5243 6.624 1.61328 6.85156C1.70234 7.07911 1.8761 7.26411 2.09766 7.36719V7.36621L10.624 11.3604V11.3613L10.6328 11.3652L10.71 11.3965L10.7217 11.4004C10.9549 11.4792 11.2101 11.4646 11.4326 11.3594L19.9053 7.35938L19.9131 7.35547L19.9766 7.32227L19.8838 7.14551L19.8203 7.17871L19.8838 7.14453C19.9201 7.12288 19.9536 7.09738 19.9854 7.07031C19.9534 7.09757 19.9202 7.12376 19.8838 7.14551L19.9775 7.32227L20.0625 7.26562C20.2329 7.14033 20.3578 6.96124 20.415 6.75586C20.4804 6.52109 20.4533 6.26986 20.3389 6.05469C20.2243 5.83955 20.031 5.67657 19.7998 5.59961ZM10.9102 11.2402C10.904 11.2393 10.8977 11.2394 10.8916 11.2383L10.7861 11.2109C10.8267 11.2247 10.8683 11.2337 10.9102 11.2402ZM20.2441 6.59668L20.2227 6.70215C20.2348 6.65848 20.241 6.61388 20.2451 6.56934C20.2443 6.5784 20.2453 6.58764 20.2441 6.59668ZM1.74902 6.48535C1.74921 6.47787 1.74861 6.47036 1.74902 6.46289L1.7627 6.35742C1.7542 6.39965 1.75016 6.44247 1.74902 6.48535ZM20.1045 6.05664L20.1621 6.14844C20.141 6.10875 20.1154 6.07195 20.0879 6.03711C20.0932 6.04381 20.0994 6.04975 20.1045 6.05664ZM1.97266 5.9707C1.97692 5.9665 1.98099 5.96211 1.98535 5.95801L2.06836 5.89062C2.03412 5.91456 2.00232 5.94155 1.97266 5.9707Z" fill="white"/>
</svg>
