<svg width="190" height="191" viewBox="0 0 190 191" fill="none" xmlns="http://www.w3.org/2000/svg">
<g clip-path="url(#clip0_1368_29244)">
<rect x="0.116211" width="190.07" height="190.674" rx="39" fill="url(#paint0_linear_1368_29244)" fill-opacity="0.51"/>
<rect x="0.616211" y="0.5" width="189.07" height="189.674" rx="38.5" stroke="url(#paint1_linear_1368_29244)" stroke-opacity="0.84"/>
<g filter="url(#filter0_i_1368_29244)">
<path d="M20.6313 103.59C21.0509 102.862 21.2606 102.499 21.4831 102.175C23.1918 99.6868 25.9326 98.1037 28.9414 97.8668C29.3333 97.8359 29.7531 97.8359 30.5927 97.8359H160.34C161.176 97.8359 161.595 97.8359 161.985 97.8666C164.984 98.1019 167.717 99.6743 169.428 102.148C169.651 102.47 169.861 102.832 170.281 103.555L189.885 137.267V146.133C189.885 151.566 189.885 154.283 189.615 156.567C187.495 174.474 173.376 188.593 155.469 190.713C153.185 190.983 150.468 190.983 145.035 190.983H44.6645C39.2312 190.983 36.5145 190.983 34.2305 190.713C16.3235 188.593 2.20422 174.474 0.0847833 156.567C-0.185547 154.283 -0.185547 151.566 -0.185547 146.133V139.675L20.6313 103.59Z" fill="url(#paint2_linear_1368_29244)"/>
</g>
<circle cx="95.7547" cy="95.6375" r="40.8328" stroke="url(#paint3_linear_1368_29244)" stroke-opacity="0.84"/>
<circle cx="95.1512" cy="95.034" r="60.7449" stroke="url(#paint4_linear_1368_29244)" stroke-opacity="0.84"/>
<circle cx="94.8497" cy="95.3361" r="79.1486" stroke="url(#paint5_linear_1368_29244)" stroke-opacity="0.84"/>
<circle cx="151.397" cy="151.249" r="3.62039" fill="#2A2A2A"/>
<circle cx="151.397" cy="151.248" r="2.91564" fill="#151515"/>
<circle cx="95.4534" cy="54.304" r="3.12039" stroke="url(#paint6_linear_1368_29244)"/>
<circle cx="95.4533" cy="54.3058" r="2.21207" fill="#27E6FF"/>
<circle cx="39.1643" cy="39.0188" r="3.62039" fill="#2A2A2A"/>
<circle cx="39.1647" cy="39.0172" r="2.91564" fill="black"/>
<circle cx="95.4534" cy="136.972" r="3.12039" stroke="url(#paint7_linear_1368_29244)"/>
<circle cx="95.4533" cy="136.974" r="2.21207" fill="#27E6FF"/>
<path d="M0.386757 58.3255L18.0758 88.4673C18.4973 89.1855 18.708 89.5446 18.9312 89.8648C20.6443 92.3225 23.369 93.8828 26.3558 94.1163C26.7448 94.1467 27.1612 94.1467 27.994 94.1467H161.024C161.851 94.1467 162.264 94.1467 162.651 94.1767C165.618 94.4072 168.329 95.9477 170.046 98.3793C170.269 98.6961 170.481 99.0513 170.904 99.7617L189.82 131.52" stroke="url(#paint8_linear_1368_29244)" stroke-opacity="0.14"/>
<circle cx="95.4532" cy="95.337" r="24.7393" fill="#101014"/>
<g filter="url(#filter1_i_1368_29244)">
<circle cx="95.4535" cy="95.3373" r="22.9291" fill="url(#paint9_radial_1368_29244)" fill-opacity="0.59"/>
</g>
<circle cx="2.05849" cy="2.05849" r="2.05849" transform="matrix(-1 0 0 1 91.748 87.5146)" fill="#98B1BB"/>
<circle cx="2.05849" cy="2.05849" r="2.05849" transform="matrix(-1 0 0 1 97.5117 87.5146)" fill="#212325"/>
<circle cx="2.05849" cy="2.05849" r="2.05849" transform="matrix(-1 0 0 1 103.275 87.5146)" fill="#98B1BB"/>
<circle cx="2.05849" cy="2.05849" r="2.05849" transform="matrix(-1 0 0 1 91.748 93.2803)" fill="#212325"/>
<circle cx="2.05849" cy="2.05849" r="2.05849" transform="matrix(-1 0 0 1 97.5117 93.2803)" fill="#98B1BB"/>
<circle cx="2.05849" cy="2.05849" r="2.05849" transform="matrix(-1 0 0 1 103.275 93.2803)" fill="#212325"/>
<circle cx="2.05849" cy="2.05849" r="2.05849" transform="matrix(-1 0 0 1 91.748 99.042)" fill="#98B1BB"/>
<circle cx="2.05849" cy="2.05849" r="2.05849" transform="matrix(-1 0 0 1 97.5117 99.042)" fill="#212325"/>
<circle cx="2.05849" cy="2.05849" r="2.05849" transform="matrix(-1 0 0 1 103.275 99.042)" fill="#98B1BB"/>
</g>
<defs>
<filter id="filter0_i_1368_29244" x="-0.185547" y="97.8359" width="190.07" height="97.1475" filterUnits="userSpaceOnUse" color-interpolation-filters="sRGB">
<feFlood flood-opacity="0" result="BackgroundImageFix"/>
<feBlend mode="normal" in="SourceGraphic" in2="BackgroundImageFix" result="shape"/>
<feColorMatrix in="SourceAlpha" type="matrix" values="0 0 0 0 0 0 0 0 0 0 0 0 0 0 0 0 0 0 127 0" result="hardAlpha"/>
<feOffset dy="4"/>
<feGaussianBlur stdDeviation="3.9"/>
<feComposite in2="hardAlpha" operator="arithmetic" k2="-1" k3="1"/>
<feColorMatrix type="matrix" values="0 0 0 0 0.107398 0 0 0 0 0.123753 0 0 0 0 0.143741 0 0 0 1 0"/>
<feBlend mode="normal" in2="shape" result="effect1_innerShadow_1368_29244"/>
</filter>
<filter id="filter1_i_1368_29244" x="72.5244" y="72.4082" width="45.8584" height="45.8584" filterUnits="userSpaceOnUse" color-interpolation-filters="sRGB">
<feFlood flood-opacity="0" result="BackgroundImageFix"/>
<feBlend mode="normal" in="SourceGraphic" in2="BackgroundImageFix" result="shape"/>
<feColorMatrix in="SourceAlpha" type="matrix" values="0 0 0 0 0 0 0 0 0 0 0 0 0 0 0 0 0 0 127 0" result="hardAlpha"/>
<feOffset/>
<feGaussianBlur stdDeviation="1.1"/>
<feComposite in2="hardAlpha" operator="arithmetic" k2="-1" k3="1"/>
<feColorMatrix type="matrix" values="0 0 0 0 0.440499 0 0 0 0 0.487546 0 0 0 0 0.498108 0 0 0 1 0"/>
<feBlend mode="normal" in2="shape" result="effect1_innerShadow_1368_29244"/>
</filter>
<linearGradient id="paint0_linear_1368_29244" x1="95.1514" y1="0" x2="95.1514" y2="106.801" gradientUnits="userSpaceOnUse">
<stop stop-color="#2D323E"/>
<stop offset="1" stop-color="#23262D"/>
</linearGradient>
<linearGradient id="paint1_linear_1368_29244" x1="95.1514" y1="0" x2="95.1514" y2="190.674" gradientUnits="userSpaceOnUse">
<stop stop-color="#333535" stop-opacity="0.28"/>
<stop offset="0.305" stop-color="white" stop-opacity="0"/>
<stop offset="0.7" stop-color="white" stop-opacity="0"/>
<stop offset="1" stop-color="#27E2FF" stop-opacity="0.65"/>
</linearGradient>
<linearGradient id="paint2_linear_1368_29244" x1="94.8497" y1="97.8359" x2="94.8497" y2="190.983" gradientUnits="userSpaceOnUse">
<stop stop-color="#17191C"/>
<stop offset="1" stop-color="#1C1E23"/>
</linearGradient>
<linearGradient id="paint3_linear_1368_29244" x1="95.7547" y1="54.3047" x2="95.7547" y2="136.97" gradientUnits="userSpaceOnUse">
<stop stop-color="#333535" stop-opacity="0.28"/>
<stop offset="0.305" stop-color="white" stop-opacity="0"/>
<stop offset="0.7" stop-color="white" stop-opacity="0"/>
<stop offset="1" stop-color="#27E2FF" stop-opacity="0.65"/>
</linearGradient>
<linearGradient id="paint4_linear_1368_29244" x1="95.1512" y1="33.7891" x2="95.1512" y2="156.279" gradientUnits="userSpaceOnUse">
<stop stop-color="#333535" stop-opacity="0.28"/>
<stop offset="0.305" stop-color="white" stop-opacity="0"/>
<stop offset="0.7" stop-color="white" stop-opacity="0"/>
<stop offset="1" stop-color="#27E2FF" stop-opacity="0.65"/>
</linearGradient>
<linearGradient id="paint5_linear_1368_29244" x1="94.8497" y1="15.6875" x2="94.8497" y2="174.985" gradientUnits="userSpaceOnUse">
<stop stop-color="#333535" stop-opacity="0.28"/>
<stop offset="0.305" stop-color="white" stop-opacity="0"/>
<stop offset="0.7" stop-color="white" stop-opacity="0"/>
<stop offset="1" stop-color="#27E2FF" stop-opacity="0.65"/>
</linearGradient>
<linearGradient id="paint6_linear_1368_29244" x1="95.4534" y1="50.6836" x2="95.4534" y2="57.9244" gradientUnits="userSpaceOnUse">
<stop stop-color="#616161"/>
<stop offset="1" stop-color="#1E1E1E"/>
</linearGradient>
<linearGradient id="paint7_linear_1368_29244" x1="95.4534" y1="133.352" x2="95.4534" y2="140.592" gradientUnits="userSpaceOnUse">
<stop stop-color="#616161"/>
<stop offset="1" stop-color="#1E1E1E"/>
</linearGradient>
<linearGradient id="paint8_linear_1368_29244" x1="95.1034" y1="58.3255" x2="95.1034" y2="131.52" gradientUnits="userSpaceOnUse">
<stop offset="0.136596" stop-color="white" stop-opacity="0"/>
<stop offset="0.255864" stop-color="#5F83B4"/>
<stop offset="0.46389" stop-color="white"/>
<stop offset="0.732936" stop-color="#5F83B4"/>
<stop offset="0.89381" stop-color="white" stop-opacity="0"/>
</linearGradient>
<radialGradient id="paint9_radial_1368_29244" cx="0" cy="0" r="1" gradientUnits="userSpaceOnUse" gradientTransform="translate(95.4535 88.1527) rotate(90) scale(30.1137)">
<stop stop-color="#616173"/>
<stop offset="0.630816" stop-color="#22262A"/>
</radialGradient>
<clipPath id="clip0_1368_29244">
<rect width="190" height="191" fill="white"/>
</clipPath>
</defs>
</svg>
