<svg width="22" height="22" viewBox="0 0 22 22" fill="none" xmlns="http://www.w3.org/2000/svg">
<path fill-rule="evenodd" clip-rule="evenodd" d="M13.9959 21.527C18.5035 20.2286 21.8007 16.0732 21.8007 11.1478C21.8007 5.1831 16.9654 0.347778 11.0007 0.347778C5.03601 0.347778 0.200684 5.1831 0.200684 11.1478C0.200684 16.2404 3.72555 20.5098 8.46866 21.6493C8.4083 21.6333 8.3498 21.6171 8.29323 21.6007V21.0222V19.3129C5.71193 19.6122 5.2448 18.2129 5.03722 17.591C5.00163 17.4844 4.97366 17.4006 4.94398 17.3522C4.75031 17.0251 4.43185 16.8131 4.18023 16.6456C3.89914 16.4585 3.70145 16.3269 3.85431 16.1524C4.54288 15.8017 5.24481 16.2406 6.05817 17.4294C6.64646 18.2917 7.79407 18.1462 8.37568 18.0028C8.50269 17.4845 8.77455 17.0214 9.14892 16.6618C6.01583 16.1061 4.71 14.2137 4.71 11.9641C4.71 10.8723 5.07323 9.86881 5.78631 9.05938C5.34834 7.77381 5.79359 6.66635 5.88651 6.43523C5.89004 6.42646 5.89305 6.41895 5.8955 6.41274C7.19018 6.29806 8.53612 7.33025 8.64085 7.41185C9.37621 7.21556 10.2163 7.1119 11.1567 7.1119C12.1015 7.1119 12.9438 7.21997 13.6859 7.41847C13.9377 7.22879 15.1856 6.34217 16.3889 6.45024C16.3919 6.45815 16.3958 6.46812 16.4005 6.48007C16.4968 6.72451 16.9194 7.79742 16.5115 9.05276C17.2334 9.8644 17.6011 10.8767 17.6011 11.9707C17.6011 14.2247 16.2864 16.1193 13.1444 16.6663C13.6681 17.1779 13.9934 17.8881 13.9934 18.6733V21.1545C13.9977 21.294 13.9972 21.4323 13.9959 21.527Z" fill="white"/>
</svg>
