<svg width="23" height="22" viewBox="0 0 23 22" fill="none" xmlns="http://www.w3.org/2000/svg">
<g clip-path="url(#clip0_4887_1255)">
<path d="M11.1228 0.255859C12.3283 0.255859 13.3053 1.23305 13.3054 2.43848C13.3054 3.31573 12.7871 4.0701 12.0408 4.41699V6.5498H16.1365C16.8657 6.5498 17.5651 6.83987 18.0808 7.35547C18.5965 7.87111 18.8864 8.57058 18.8865 9.2998V18.9941C18.8865 19.7234 18.5965 20.4228 18.0808 20.9385C17.5651 21.4542 16.8658 21.7441 16.1365 21.7441H6.12671C5.39739 21.7441 4.69808 21.4542 4.18237 20.9385C3.66667 20.4228 3.37671 19.7235 3.37671 18.9941V9.2998C3.37678 8.57058 3.66673 7.87111 4.18237 7.35547C4.69806 6.83989 5.39749 6.5498 6.12671 6.5498H10.2078V4.41797C9.45996 4.07164 8.94019 3.31677 8.94019 2.43848C8.94031 1.23307 9.91738 0.255899 11.1228 0.255859ZM1.26343 11.1338C1.89237 11.1338 2.4021 11.6435 2.4021 12.2725V15.4941C2.4021 16.1231 1.89237 16.6328 1.26343 16.6328C0.634545 16.6327 0.124756 16.123 0.124756 15.4941V12.2725C0.124756 11.6436 0.634545 11.1339 1.26343 11.1338ZM20.9724 11.1338C21.6084 11.1338 22.1238 11.6492 22.1238 12.2852V15.4814C22.1238 16.1174 21.6084 16.6328 20.9724 16.6328C20.3364 16.6328 19.821 16.1174 19.821 15.4814V12.2852C19.821 11.6492 20.3364 11.1338 20.9724 11.1338ZM8.37476 12.5078C8.0101 12.5078 7.65995 12.6533 7.4021 12.9111C7.14443 13.1689 6.99987 13.5184 6.99976 13.8828C6.99976 14.2474 7.14429 14.5976 7.4021 14.8555C7.65995 15.1133 8.0101 15.2578 8.37476 15.2578C8.73925 15.2577 9.08866 15.1132 9.34644 14.8555C9.60429 14.5976 9.74976 14.2475 9.74976 13.8828C9.74964 13.5183 9.60419 13.1689 9.34644 12.9111C9.08866 12.6534 8.73928 12.5079 8.37476 12.5078ZM13.7595 12.5078C13.3949 12.5078 13.16 12.6533 12.9021 12.9111C12.6444 13.1689 12.4999 13.5183 12.4998 13.8828C12.4998 14.2475 12.6442 14.5976 12.9021 14.8555C13.1599 15.1133 13.3949 15.2578 13.7595 15.2578C14.1242 15.2578 14.4743 15.1133 14.7322 14.8555C14.9899 14.5976 15.1345 14.2474 15.1345 13.8828C15.1344 13.5184 14.9897 13.1689 14.7322 12.9111C14.4743 12.6533 14.1242 12.5078 13.7595 12.5078Z" fill="white"/>
</g>
<defs>
<clipPath id="clip0_4887_1255">
<rect width="22" height="22" fill="white" transform="translate(0.124756)"/>
</clipPath>
</defs>
</svg>
