<svg width="22" height="22" viewBox="0 0 22 22" fill="none" xmlns="http://www.w3.org/2000/svg">
<g clip-path="url(#clip0_2120_10716)">
<path fill-rule="evenodd" clip-rule="evenodd" d="M4.88873 1.85383C6.69767 0.645139 8.82441 0 11 0C13.9174 0 16.7153 1.15893 18.7782 3.22183C20.8411 5.28473 22 8.08262 22 11C22 13.1756 21.3549 15.3023 20.1462 17.1113C18.9375 18.9202 17.2195 20.3301 15.2095 21.1627C13.1995 21.9952 10.9878 22.2131 8.85401 21.7886C6.72022 21.3642 4.76021 20.3166 3.22183 18.7782C1.68345 17.2398 0.635804 15.2798 0.211367 13.146C-0.213071 11.0122 0.00476611 8.80047 0.83733 6.79048C1.66989 4.7805 3.07979 3.06253 4.88873 1.85383ZM10.9995 8.78364C10.4283 8.78364 9.92855 8.28386 9.92855 7.71268V5.07096C9.92855 4.49978 10.4283 4 10.9995 4C11.5707 4 12.0705 4.49978 12.0705 5.07096V7.71268C12.0705 8.28386 11.5707 8.78364 10.9995 8.78364ZM10.9995 18C7.28684 18 4.28814 15.0013 4.28814 11.2887C4.28814 9.00395 5.3591 7.00481 7.21544 5.79105C7.71522 5.43406 8.3578 5.57686 8.64339 6.07664C9.00038 6.57643 8.85759 7.21901 8.3578 7.5046C7.14404 8.28997 6.43007 9.71792 6.43007 11.2887C6.43007 13.7876 8.5006 15.8581 10.9995 15.8581C13.5698 15.8581 15.569 13.859 15.569 11.2887C15.569 9.86072 14.855 8.43276 13.5698 7.5046C13.07 7.14761 12.9986 6.50503 13.3556 6.00525C13.7126 5.50546 14.3552 5.43406 14.855 5.79105C16.6399 7.14761 17.7109 9.14674 17.7109 11.2887C17.7109 15.0727 14.7836 18 10.9995 18Z" fill="white"/>
</g>
<defs>
<clipPath id="clip0_2120_10716">
<rect width="22" height="22" fill="white"/>
</clipPath>
</defs>
</svg>
