<svg width="23" height="22" viewBox="0 0 23 22" fill="none" xmlns="http://www.w3.org/2000/svg">
<g clip-path="url(#clip0_4887_1251)">
<path d="M1.2251 9.89981C0.933368 9.89981 0.653584 10.0157 0.447298 10.222C0.241012 10.4283 0.125122 10.7081 0.125122 10.9998C0.125122 11.2915 0.241012 11.5713 0.447298 11.7776C0.653584 11.9839 0.933368 12.0998 1.2251 12.0998V9.89981ZM4.52504 12.0998C4.81677 12.0998 5.09655 11.9839 5.30284 11.7776C5.50912 11.5713 5.62501 11.2915 5.62501 10.9998C5.62501 10.7081 5.50912 10.4283 5.30284 10.222C5.09655 10.0157 4.81677 9.89981 4.52504 9.89981V12.0998ZM1.2251 12.0998H4.52504V9.89981H1.2251V12.0998ZM12.2249 1.09998C12.2249 0.808246 12.109 0.528462 11.9027 0.322176C11.6964 0.11589 11.4166 0 11.1249 0C10.8332 0 10.5534 0.11589 10.3471 0.322176C10.1408 0.528462 10.0249 0.808246 10.0249 1.09998H12.2249ZM10.0249 4.39991C10.0249 4.69165 10.1408 4.97143 10.3471 5.17772C10.5534 5.384 10.8332 5.49989 11.1249 5.49989C11.4166 5.49989 11.6964 5.384 11.9027 5.17772C12.109 4.97143 12.2249 4.69165 12.2249 4.39991H10.0249ZM10.0249 1.09998V4.39991H12.2249V1.09998H10.0249ZM14.9671 5.60219C14.7668 5.80965 14.6559 6.08751 14.6584 6.37592C14.6609 6.66433 14.7766 6.94022 14.9805 7.14416C15.1845 7.3481 15.4604 7.46379 15.7488 7.46629C16.0372 7.4688 16.315 7.35793 16.5225 7.15756L14.9671 5.60219ZM18.9425 4.73761C19.1428 4.53015 19.2537 4.25229 19.2512 3.96388C19.2487 3.67547 19.133 3.39958 18.9291 3.19564C18.7251 2.99169 18.4492 2.87601 18.1608 2.8735C17.8724 2.871 17.5945 2.98187 17.3871 3.18224L18.9425 4.73761ZM16.5225 7.15756L18.9425 4.73761L17.3871 3.18224L14.9671 5.60219L16.5225 7.15756ZM7.28268 16.3974C7.48305 16.1899 7.59392 15.9121 7.59142 15.6237C7.58891 15.3352 7.47323 15.0594 7.26928 14.8554C7.06534 14.6515 6.78945 14.5358 6.50104 14.5333C6.21263 14.5308 5.93477 14.6416 5.72731 14.842L7.28268 16.3974ZM3.30736 17.262C3.10699 17.4694 2.99612 17.7473 2.99862 18.0357C3.00113 18.3241 3.11682 18.6 3.32076 18.8039C3.5247 19.0079 3.80059 19.1236 4.089 19.1261C4.37741 19.1286 4.65527 19.0177 4.86273 18.8173L3.30736 17.262ZM5.72731 14.842L3.30736 17.262L4.86273 18.8173L7.28268 16.3974L5.72731 14.842Z" fill="white"/>
<path d="M11.4725 9.95591C11.2787 9.89127 11.0707 9.88189 10.8719 9.92882C10.673 9.97574 10.4912 10.0771 10.3467 10.2216C10.2022 10.3661 10.1009 10.5479 10.0539 10.7467C10.007 10.9456 10.0164 11.1536 10.081 11.3474L13.381 21.2472C13.4498 21.4535 13.5782 21.6349 13.7501 21.7682C13.9219 21.9016 14.1295 21.981 14.3465 21.9964C14.5634 22.0118 14.7801 21.9626 14.9691 21.8549C15.1581 21.7472 15.3109 21.5858 15.4082 21.3913L17.4443 17.3192L21.5164 15.2831C21.711 15.1859 21.8724 15.0332 21.9802 14.8442C22.088 14.6553 22.1373 14.4387 22.122 14.2217C22.1067 14.0047 22.0274 13.7972 21.8942 13.6253C21.7609 13.4533 21.5786 13.3248 21.3723 13.2558L11.4725 9.95591Z" fill="white"/>
<path d="M5.72731 7.15756C5.93477 7.35793 6.21263 7.4688 6.50104 7.46629C6.78945 7.46379 7.06534 7.3481 7.26928 7.14416C7.47323 6.94022 7.58891 6.66433 7.59142 6.37592C7.59392 6.08751 7.48305 5.80965 7.28268 5.60219L4.86273 3.18224C4.65527 2.98187 4.37741 2.871 4.089 2.8735C3.80059 2.87601 3.5247 2.99169 3.32076 3.19564C3.11682 3.39958 3.00113 3.67547 2.99862 3.96388C2.99612 4.25229 3.10699 4.53015 3.30736 4.73761L5.72731 7.15756Z" fill="white"/>
</g>
<defs>
<clipPath id="clip0_4887_1251">
<rect width="22" height="22" fill="white" transform="translate(0.124756)"/>
</clipPath>
</defs>
</svg>
