<svg width="22" height="22" viewBox="0 0 22 22" fill="none" xmlns="http://www.w3.org/2000/svg">
<path fill-rule="evenodd" clip-rule="evenodd" d="M13.4687 2.64257C13.0466 1.6647 12.0962 1 11 1L10.8407 1.00457L10.658 1.02191C10.1935 1.0823 9.75243 1.2641 9.37803 1.54949C9.00363 1.83488 8.70875 2.21406 8.5223 2.64987L8.453 2.82609H6.5L6.3659 2.83157L6.2102 2.84983C5.96249 2.89076 5.72596 2.98379 5.51579 3.12295C5.30562 3.2621 5.12645 3.44431 4.9898 3.65787L4.9412 3.73913H4.7L4.5434 3.7437C3.143 3.81948 2 4.91239 2 6.29565V19.4435L2.0045 19.596C2.0882 20.9564 3.2816 22 4.7 22H17.3L17.4566 21.9954C18.857 21.9197 20 20.8267 20 19.4435V6.29565L19.9955 6.14317L19.9811 5.98796C19.82 4.7033 18.6644 3.73913 17.3 3.73913H17.0579L17.0102 3.65787L16.9247 3.53643C16.5953 3.10457 16.0796 2.82609 15.5 2.82609H13.5398L13.5317 2.79961L13.4687 2.64257ZM9.77551 4.22624C10.1085 3.91298 10.5459 3.73898 11 3.73913C11.4541 3.73898 11.8915 3.91298 12.2245 4.22624C12.5575 4.53949 12.7614 4.96886 12.7955 5.42826L12.8 5.56522H16.4L16.5053 5.57161C16.7242 5.59777 16.9261 5.70454 17.0726 5.87166C17.219 6.03878 17.3 6.25463 17.3 6.47826V7.3913L17.2937 7.49813C17.2679 7.72023 17.1627 7.925 16.9979 8.07361C16.8332 8.22221 16.6204 8.30432 16.4 8.30435H5.6L5.4947 8.29796C5.27577 8.27179 5.07393 8.16502 4.92744 7.9979C4.78096 7.83079 4.70003 7.61494 4.7 7.3913V6.47826L4.7063 6.37143C4.73209 6.14934 4.83733 5.94456 5.00207 5.79596C5.1668 5.64735 5.37956 5.56525 5.6 5.56522H9.2L9.2045 5.42826C9.23856 4.96886 9.44252 4.53949 9.77551 4.22624ZM6.88086 12C6.32857 12 5.88086 12.4477 5.88086 13C5.88086 13.5523 6.32857 14 6.88086 14H15.3809C15.9331 14 16.3809 13.5523 16.3809 13C16.3809 12.4477 15.9331 12 15.3809 12H6.88086ZM6.88086 17C6.32857 17 5.88086 17.4477 5.88086 18C5.88086 18.5523 6.32857 19 6.88086 19H15.3809C15.9331 19 16.3809 18.5523 16.3809 18C16.3809 17.4477 15.9331 17 15.3809 17H6.88086Z" fill="white"/>
</svg>
