<svg width="23" height="22" viewBox="0 0 23 22" fill="none" xmlns="http://www.w3.org/2000/svg">
<g clip-path="url(#clip0_4887_1261)">
<path d="M20.354 8.72276C20.2423 8.68624 20.1585 8.59171 20.1306 8.4757C19.0714 4.00919 15.0561 0.687782 10.2652 0.687782C9.49388 0.687782 8.7441 0.773717 8.02439 0.936995C7.90408 0.964924 7.77947 0.926253 7.69568 0.836021C7.23378 0.331149 6.57207 0.0110388 5.83732 0.000296893C4.41509 -0.021187 3.23562 1.12605 3.21844 2.54614C3.21629 2.78031 3.24422 3.00589 3.30008 3.22073C3.33015 3.3389 3.29148 3.4635 3.20555 3.54944C1.30422 5.39276 0.124756 7.97297 0.124756 10.8282C0.124756 13.8488 1.44602 16.5622 3.5407 18.4184C3.63952 18.5044 3.67819 18.6397 3.64597 18.7665C3.59011 18.977 3.56218 19.1962 3.56218 19.4239C3.56433 20.8526 4.74379 22.017 6.17247 21.9998C7.07265 21.9891 7.86111 21.5164 8.31442 20.8075C8.32301 20.7924 8.3402 20.786 8.35739 20.7881C8.97612 20.9063 9.61205 20.9686 10.2652 20.9686C14.794 20.9686 18.6288 17.9995 19.9308 13.9025C19.9673 13.7887 20.0575 13.7027 20.1735 13.6727C21.295 13.3934 22.1243 12.3793 22.1243 11.1719C22.1243 10.0311 21.3831 9.06221 20.354 8.72276ZM18.4892 13.866C18.4419 13.9906 18.3947 14.1152 18.341 14.2398C17.9005 15.2839 17.2668 16.2206 16.4611 17.0263C15.6555 17.8319 14.7188 18.4636 13.6747 18.9061C12.594 19.3637 11.4468 19.5936 10.263 19.5936C9.75169 19.5936 9.24682 19.5506 8.75054 19.4647C8.73121 19.4604 8.71617 19.4432 8.71617 19.4217C8.71617 17.9974 7.56248 16.8437 6.1381 16.8437C5.6096 16.8437 5.11761 17.0027 4.70942 17.2755C4.57622 17.3636 4.4022 17.3485 4.28619 17.239C4.21099 17.1681 4.13795 17.0972 4.0649 17.0263C3.26141 16.2206 2.62978 15.2839 2.18721 14.2398C1.73175 13.1592 1.49973 12.0119 1.49973 10.8282C1.49973 9.64442 1.73175 8.49718 2.18721 7.41654C2.5997 6.43902 3.17977 5.55603 3.91452 4.78691L3.92955 4.77187C4.04557 4.65156 4.23033 4.63223 4.36783 4.72461C4.78247 5.00175 5.28089 5.16073 5.81799 5.15643C7.21229 5.14569 8.35524 4.00919 8.37457 2.61489V2.55473C8.37243 2.38716 8.49059 2.24107 8.65601 2.20884C9.18237 2.11216 9.71947 2.06275 10.2652 2.06275C11.4489 2.06275 12.5962 2.29478 13.6768 2.75024C14.7209 3.19066 15.6576 3.82443 16.4633 4.63008C17.2689 5.43572 17.9005 6.37242 18.3431 7.41654C18.4806 7.74095 18.5988 8.07395 18.6933 8.4091C18.7406 8.57237 18.6568 8.74424 18.4999 8.81299C17.5976 9.21474 16.9681 10.1192 16.9681 11.1719C16.9681 12.1559 17.5181 13.0109 18.3281 13.4449C18.4806 13.5266 18.5493 13.7049 18.4892 13.866Z" fill="white"/>
<path d="M5.63324 10.9999C5.63324 12.2762 6.14026 13.5003 7.04276 14.4028C7.94526 15.3053 9.16931 15.8123 10.4456 15.8123C11.722 15.8123 12.946 15.3053 13.8485 14.4028C14.751 13.5003 15.258 12.2762 15.258 10.9999C15.258 9.72357 14.751 8.49952 13.8485 7.59702C12.946 6.69452 11.722 6.1875 10.4456 6.1875C9.16931 6.1875 7.94526 6.69452 7.04276 7.59702C6.14026 8.49952 5.63324 9.72357 5.63324 10.9999Z" fill="white"/>
</g>
<defs>
<clipPath id="clip0_4887_1261">
<rect width="22" height="22" fill="white" transform="translate(0.124756)"/>
</clipPath>
</defs>
</svg>
