<svg width="34" height="35" viewBox="0 0 34 35" fill="none" xmlns="http://www.w3.org/2000/svg">
<circle cx="17" cy="17.5" r="17" fill="#27E6FF"/>
<path d="M21.3756 12.2026L12.4185 12.2026C11.9093 12.2026 11.4965 12.6154 11.4965 13.1246C11.4965 13.6338 11.9093 14.0466 12.4185 14.0466L19.1497 14.0466L11.973 21.2234C11.6129 21.5834 11.6129 22.1672 11.973 22.5272C12.333 22.8873 12.9168 22.8873 13.2769 22.5272L20.4536 15.3505L20.4536 22.0817C20.4536 22.5909 20.8664 23.0037 21.3756 23.0037C21.8848 23.0037 22.2976 22.5909 22.2976 22.0817L22.2976 13.1246C22.2976 12.6154 21.8848 12.2026 21.3756 12.2026Z" fill="black" stroke="black" stroke-width="0.2"/>
</svg>
