<svg width="164" height="29" viewBox="0 0 164 29" fill="none" xmlns="http://www.w3.org/2000/svg">
<path d="M14.7654 9.71299C14.7654 15.6443 9.93018 20.0846 4.45157 19.8157C1.99304 19.8157 0 21.8717 0 24.4078C0 26.944 1.99304 29 4.45157 29C6.77581 29 8.68401 27.1625 8.88555 24.8189C9.17425 21.1469 12.1545 18.2598 15.7885 18.2598C19.1443 18.2598 21.9426 20.7217 22.5788 23.9901C22.6216 24.4786 23.394 27.8433 27.152 28.0116C29.6482 28.0656 31.7805 25.874 31.7805 23.237C31.7577 22.5236 31.655 22.1317 31.665 21.3915C31.7544 14.7651 37.3372 12.1407 40.2075 12.1407C42.3245 12.0749 44 10.2695 44 8.07472C44 5.82752 42.2341 4.00581 40.0556 4.00581C37.9374 4.00581 36.2092 5.72829 36.1153 7.88953C36.0499 11.1989 33.4288 13.8609 30.2051 13.8609C26.9403 13.8609 24.2936 11.1307 24.2936 7.76274C24.2734 6.86605 24.5568 6.18458 24.5396 5.35236C24.5396 2.39633 22.2166 0 19.3511 0C16.4855 0 14.1625 2.39633 14.1625 5.35236C14.1511 6.1128 14.3533 6.80277 14.3533 6.80277C14.6213 7.72438 14.7654 8.70133 14.7654 9.71299Z" fill="#27E6FF"/>
<path fill-rule="evenodd" clip-rule="evenodd" d="M109.731 7.78711H107.042V15.4116C107.042 16.2823 107.189 17.0739 107.483 17.7863C107.777 18.4987 108.204 19.1093 108.764 19.6182C109.324 20.127 110.008 20.52 110.816 20.797C111.63 21.0741 112.558 21.2126 113.598 21.2126C114.638 21.2126 115.563 21.0741 116.371 20.797C117.186 20.52 117.873 20.127 118.432 19.6182C118.992 19.1093 119.419 18.4987 119.713 17.7863C120.007 17.0739 120.154 16.2823 120.154 15.4116V7.78711H117.465V15.0893C117.465 15.6886 117.383 16.2229 117.219 16.6922C117.056 17.1558 116.81 17.5488 116.482 17.8711C116.159 18.1934 115.755 18.4393 115.269 18.6089C114.788 18.7729 114.231 18.8549 113.598 18.8549C112.959 18.8549 112.399 18.7729 111.919 18.6089C111.438 18.4393 111.034 18.1934 110.706 17.8711C110.384 17.5488 110.141 17.1558 109.977 16.6922C109.813 16.2229 109.731 15.6886 109.731 15.0893V7.78711ZM56.6885 21.2127H54V13.5882C54 12.7175 54.147 11.926 54.441 11.2136C54.735 10.5011 55.1619 9.89051 55.7217 9.38165C56.2814 8.87278 56.9655 8.47983 57.7741 8.20278C58.5882 7.92573 59.5155 7.78721 60.5558 7.78721C61.5962 7.78721 62.5206 7.92573 63.3291 8.20278C64.1433 8.47983 64.8303 8.87278 65.39 9.38165C65.9498 9.89051 66.3767 10.5011 66.6707 11.2136C66.9647 11.926 67.1117 12.7175 67.1117 13.5882V21.2127H64.4232V13.9105C64.4232 13.3112 64.3412 12.7769 64.1773 12.3076C64.0133 11.844 63.7673 11.451 63.4394 11.1287C63.1171 10.8065 62.7129 10.5605 62.2266 10.3909C61.746 10.2269 61.1891 10.1449 60.5558 10.1449C59.9169 10.1449 59.3572 10.2269 58.8766 10.3909C58.396 10.5605 57.9917 10.8065 57.6638 11.1287C57.3415 11.451 57.0984 11.844 56.9344 12.3076C56.7705 12.7769 56.6885 13.3112 56.6885 13.9105V21.2127ZM83.6613 7.78729H72.1949V21.2126H83.6613V18.8634H74.8834V15.8324H83.6613V13.2995H74.8834V10.145H83.6613V7.78729ZM88.7452 7.78729H95.8269C96.692 7.78729 97.444 7.88058 98.0829 8.06716C98.7274 8.24809 99.2617 8.49969 99.6858 8.82197C100.11 9.14425 100.424 9.52873 100.627 9.97539C100.836 10.4164 100.941 10.8942 100.941 11.4087C100.941 12.2511 100.675 13.1584 100.144 13.7917C100.754 14.1536 101.21 14.6228 101.509 15.1996C101.809 15.7763 101.959 16.4321 101.959 17.1672C101.959 17.7834 101.854 18.3404 101.645 18.8379C101.441 19.3355 101.128 19.7624 100.704 20.1186C100.285 20.4691 99.7536 20.7405 99.1091 20.9327C98.4702 21.1193 97.7154 21.2126 96.8446 21.2126H88.7452V7.78729ZM96.8616 13.0454C97.0934 13.0454 97.3196 13.0538 97.5401 13.0708C97.9189 12.709 98.1083 12.1268 98.1083 11.6631C98.1083 11.1825 97.9189 10.8122 97.5401 10.5521C97.1669 10.2864 96.6185 10.1535 95.8948 10.1535H91.4337V13.0454H96.8616ZM96.9125 18.8718C97.6362 18.8718 98.1846 18.7164 98.5578 18.4054C98.9366 18.0944 99.126 17.6562 99.126 17.0908C99.126 16.5254 98.9366 16.0844 98.5578 15.7678C98.1846 15.4512 97.6362 15.2928 96.9125 15.2928H91.4337V18.8718H96.9125ZM125.237 7.78729H127.926V18.8549H135.635V21.2126H125.237V7.78729ZM149.794 7.78729H146.944L140.719 21.2126H143.552L144.611 18.8866H152.291L153.381 21.2126H156.206L149.794 7.78729ZM151.218 16.5989L145.653 16.5989L148.394 10.5775L151.218 16.5989ZM164 7.80637H161.289V21.1933H164V7.80637Z" fill="white" fill-opacity="0.8"/>
</svg>
