<svg width="17" height="18" viewBox="0 0 17 18" fill="none" xmlns="http://www.w3.org/2000/svg">
<g id="Frame">
<path id="Vector" d="M9.5009 14.5C9.58554 14.5003 9.66941 14.4839 9.74767 14.4517C9.82594 14.4194 9.89705 14.372 9.95692 14.3122L14.8113 9.45633C14.9321 9.33515 15 9.17099 15 8.99985C15 8.82871 14.9321 8.66455 14.8113 8.54337L9.95732 3.68911C9.83625 3.56802 9.67205 3.5 9.50083 3.5C9.32961 3.5 9.1654 3.56802 9.04433 3.68911C8.92326 3.81019 8.85525 3.97442 8.85525 4.14565C8.85525 4.31689 8.92326 4.48112 9.04433 4.6022L12.7959 8.35463H2.64487C2.47384 8.35463 2.30982 8.42258 2.18888 8.54353C2.06794 8.66448 2 8.82853 2 8.99958C2 9.17063 2.06794 9.33467 2.18888 9.45563C2.30982 9.57658 2.47384 9.64453 2.64487 9.64453H12.7959L9.04433 13.3983C8.954 13.4885 8.89245 13.6034 8.86748 13.7286C8.84251 13.8538 8.85525 13.9836 8.90408 14.1015C8.95291 14.2195 9.03564 14.3203 9.14178 14.3911C9.24793 14.462 9.37326 14.5001 9.5009 14.5Z" fill="white" fill-opacity="0.8"/>
</g>
</svg>
