<svg width="34" height="34" viewBox="0 0 34 34" fill="none" xmlns="http://www.w3.org/2000/svg">
<path d="M11.5083 22.7967C13.3158 24.6338 13.525 26.6086 11.5215 28.6449C10.2802 29.9056 8.27038 30.6632 5.50461 30.9875C5.3615 31.0047 5.21683 31.0039 5.07294 30.9868C4.10072 30.8685 3.39061 30.0044 3.43728 29.0174L3.44739 28.8883L3.48705 28.5616C3.82616 25.925 4.56039 23.9945 5.75272 22.7827C7.75627 20.7472 9.69993 20.9604 11.5083 22.7967ZM28.0679 3.49756L28.3806 3.59323L28.6862 3.69512C29.0625 3.82704 29.4037 4.04288 29.6842 4.32627C29.9646 4.60967 30.1768 4.95319 30.3048 5.3308C31.5236 8.89149 31.1362 12.4989 29.1716 16.0751C28.3619 17.5482 27.3259 18.9428 26.0651 20.258L25.7159 20.615L25.3853 20.9386L25.376 21.0389C25.1466 23.1809 23.5218 26.0136 20.5281 29.6762L20.2684 29.9928L19.79 30.5644C19.2487 31.2069 18.2407 31.028 17.9249 30.2689L17.8876 30.167L16.2138 24.8252L16.0621 24.7202C15.1217 24.0502 14.2258 23.3196 13.3804 22.533L12.9643 22.1364L12.5567 21.7319C11.3529 20.5069 10.2694 19.1692 9.32116 17.7372L9.2286 17.5933L3.77794 15.8309C3.01106 15.582 2.76372 14.6339 3.25061 14.0381L3.31517 13.965L3.38517 13.8996C7.86827 9.98272 11.1762 8.0406 13.5453 8.20237L13.6977 8.2156L13.7864 8.22649L13.9863 8.02426C15.0611 6.95559 16.1866 6.04636 17.3634 5.29891L17.7569 5.05546L18.1186 4.84391C21.4024 2.98189 24.7359 2.52378 28.0679 3.49834V3.49756ZM18.0198 11.0195C16.6564 12.3837 16.661 14.5996 18.0307 15.9693C19.4004 17.339 21.6162 17.3437 22.9805 15.9802C24.3439 14.616 24.3392 12.4001 22.9696 11.0304C21.5999 9.66072 19.384 9.65605 18.0198 11.0195Z" fill="white"/>
</svg>
