<svg width="757" height="168" viewBox="0 0 757 168" fill="none" xmlns="http://www.w3.org/2000/svg">
<path d="M0 16C0 7.16344 7.16344 0 16 0H740C748.837 0 756 7.16344 756 16V152C756 160.837 748.837 168 740 168H16C7.16343 168 0 160.837 0 152V16Z" fill="url(#paint0_linear_384_4800)"/>
<path d="M38.5 16C38.5 7.43959 45.4396 0.5 54 0.5H741C749.56 0.5 756.5 7.43959 756.5 16V152C756.5 160.56 749.56 167.5 741 167.5H54C45.4396 167.5 38.5 160.56 38.5 152V16Z" fill="#101313" stroke="#303F41"/>
<rect x="156.5" y="110.5" width="151" height="33" rx="5.5" fill="url(#paint1_linear_384_4800)"/>
<rect x="156.5" y="110.5" width="151" height="33" rx="5.5" stroke="url(#paint2_linear_384_4800)"/>
<path d="M177.451 132.168C176.733 132.168 176.107 132.037 175.575 131.776C175.043 131.515 174.633 131.151 174.343 130.684C174.054 130.217 173.909 129.676 173.909 129.06H175.141C175.141 129.443 175.23 129.797 175.407 130.124C175.585 130.441 175.841 130.698 176.177 130.894C176.523 131.081 176.947 131.174 177.451 131.174C177.89 131.174 178.263 131.104 178.571 130.964C178.889 130.815 179.127 130.614 179.285 130.362C179.453 130.11 179.537 129.825 179.537 129.508C179.537 129.125 179.453 128.817 179.285 128.584C179.127 128.341 178.907 128.145 178.627 127.996C178.347 127.847 178.021 127.716 177.647 127.604C177.283 127.483 176.901 127.357 176.499 127.226C175.725 126.965 175.155 126.638 174.791 126.246C174.427 125.854 174.245 125.345 174.245 124.72C174.245 124.188 174.367 123.721 174.609 123.32C174.861 122.919 175.216 122.606 175.673 122.382C176.14 122.149 176.691 122.032 177.325 122.032C177.951 122.032 178.492 122.149 178.949 122.382C179.416 122.615 179.78 122.937 180.041 123.348C180.303 123.749 180.433 124.216 180.433 124.748H179.201C179.201 124.477 179.131 124.211 178.991 123.95C178.851 123.689 178.637 123.474 178.347 123.306C178.067 123.129 177.713 123.04 177.283 123.04C176.929 123.031 176.611 123.091 176.331 123.222C176.061 123.343 175.846 123.521 175.687 123.754C175.538 123.987 175.463 124.272 175.463 124.608C175.463 124.925 175.529 125.182 175.659 125.378C175.799 125.574 175.995 125.742 176.247 125.882C176.509 126.013 176.812 126.134 177.157 126.246C177.503 126.358 177.885 126.484 178.305 126.624C178.781 126.783 179.201 126.979 179.565 127.212C179.939 127.436 180.228 127.725 180.433 128.08C180.648 128.435 180.755 128.887 180.755 129.438C180.755 129.905 180.629 130.348 180.377 130.768C180.135 131.179 179.771 131.515 179.285 131.776C178.8 132.037 178.189 132.168 177.451 132.168ZM185.474 132.168C184.812 132.168 184.224 132.014 183.71 131.706C183.206 131.398 182.81 130.969 182.52 130.418C182.231 129.858 182.086 129.209 182.086 128.472C182.086 127.725 182.226 127.077 182.506 126.526C182.796 125.975 183.197 125.546 183.71 125.238C184.233 124.93 184.83 124.776 185.502 124.776C186.193 124.776 186.776 124.93 187.252 125.238C187.738 125.546 188.106 125.952 188.358 126.456C188.62 126.951 188.75 127.497 188.75 128.094C188.75 128.187 188.75 128.285 188.75 128.388C188.75 128.491 188.746 128.607 188.736 128.738H182.968V127.828H187.602C187.574 127.184 187.36 126.68 186.958 126.316C186.566 125.952 186.072 125.77 185.474 125.77C185.073 125.77 184.7 125.863 184.354 126.05C184.018 126.227 183.748 126.493 183.542 126.848C183.337 127.193 183.234 127.627 183.234 128.15V128.542C183.234 129.121 183.337 129.606 183.542 129.998C183.757 130.39 184.032 130.684 184.368 130.88C184.714 131.076 185.082 131.174 185.474 131.174C185.969 131.174 186.375 131.067 186.692 130.852C187.019 130.628 187.252 130.329 187.392 129.956H188.554C188.442 130.376 188.246 130.754 187.966 131.09C187.686 131.426 187.336 131.692 186.916 131.888C186.506 132.075 186.025 132.168 185.474 132.168ZM190.337 132V121.92H191.513V132H190.337ZM193.847 132V123.852C193.847 123.404 193.921 123.04 194.071 122.76C194.22 122.471 194.439 122.261 194.729 122.13C195.027 121.99 195.391 121.92 195.821 121.92H196.619V122.928H196.003C195.657 122.928 195.405 122.998 195.247 123.138C195.097 123.278 195.023 123.525 195.023 123.88V132H193.847ZM192.769 125.938V124.944H196.801V125.938H192.769ZM198.24 128.36V127.366H203.784V128.36H198.24ZM205.857 132V122.2H209.301C209.991 122.2 210.561 122.312 211.009 122.536C211.466 122.751 211.807 123.049 212.031 123.432C212.255 123.805 212.367 124.225 212.367 124.692C212.367 125.196 212.255 125.616 212.031 125.952C211.816 126.288 211.531 126.545 211.177 126.722C210.831 126.899 210.463 127.007 210.071 127.044L210.267 126.904C210.687 126.913 211.074 127.025 211.429 127.24C211.783 127.455 212.063 127.744 212.269 128.108C212.483 128.472 212.591 128.878 212.591 129.326C212.591 129.821 212.469 130.273 212.227 130.684C211.984 131.085 211.625 131.407 211.149 131.65C210.682 131.883 210.103 132 209.413 132H205.857ZM207.033 131.02H209.287C209.949 131.02 210.463 130.866 210.827 130.558C211.2 130.241 211.387 129.802 211.387 129.242C211.387 128.691 211.195 128.253 210.813 127.926C210.439 127.59 209.921 127.422 209.259 127.422H207.033V131.02ZM207.033 126.484H209.217C209.851 126.484 210.332 126.335 210.659 126.036C210.995 125.737 211.163 125.331 211.163 124.818C211.163 124.323 210.995 123.927 210.659 123.628C210.332 123.329 209.837 123.18 209.175 123.18H207.033V126.484ZM216.784 132.168C216.243 132.168 215.767 132.061 215.356 131.846C214.955 131.631 214.642 131.3 214.418 130.852C214.204 130.404 214.096 129.844 214.096 129.172V124.944H215.272V129.046C215.272 129.746 215.426 130.273 215.734 130.628C216.042 130.983 216.476 131.16 217.036 131.16C217.428 131.16 217.783 131.067 218.1 130.88C218.418 130.684 218.665 130.409 218.842 130.054C219.029 129.69 219.122 129.247 219.122 128.724V124.944H220.298V132H219.234L219.164 130.768C218.95 131.207 218.632 131.552 218.212 131.804C217.792 132.047 217.316 132.168 216.784 132.168ZM222.36 132V124.944H223.536V132H222.36ZM222.948 123.446C222.714 123.446 222.518 123.371 222.36 123.222C222.21 123.063 222.136 122.867 222.136 122.634C222.136 122.401 222.21 122.214 222.36 122.074C222.518 121.925 222.714 121.85 222.948 121.85C223.172 121.85 223.363 121.925 223.522 122.074C223.68 122.214 223.76 122.401 223.76 122.634C223.76 122.867 223.68 123.063 223.522 123.222C223.363 123.371 223.172 123.446 222.948 123.446ZM225.611 132V121.92H226.787V132H225.611ZM231.5 132C231.08 132 230.716 131.935 230.408 131.804C230.1 131.673 229.862 131.454 229.694 131.146C229.535 130.829 229.456 130.404 229.456 129.872V125.938H228.224V124.944H229.456L229.61 123.236H230.632V124.944H232.676V125.938H230.632V129.872C230.632 130.311 230.721 130.609 230.898 130.768C231.075 130.917 231.388 130.992 231.836 130.992H232.592V132H231.5ZM240.939 132L237.257 122.2H238.531L241.625 130.754L244.747 122.2H245.993L242.311 132H240.939ZM247.364 132V122.2H250.556C251.331 122.2 251.966 122.331 252.46 122.592C252.964 122.844 253.333 123.185 253.566 123.614C253.809 124.043 253.93 124.533 253.93 125.084C253.93 125.616 253.809 126.101 253.566 126.54C253.333 126.969 252.969 127.315 252.474 127.576C251.98 127.837 251.34 127.968 250.556 127.968H248.54V132H247.364ZM248.54 126.974H250.542C251.326 126.974 251.886 126.801 252.222 126.456C252.558 126.111 252.726 125.653 252.726 125.084C252.726 124.477 252.558 124.011 252.222 123.684C251.886 123.348 251.326 123.18 250.542 123.18H248.54V126.974ZM255.486 132V122.2H256.662L261.884 130.054V122.2H263.06V132H261.884L256.662 124.146V132H255.486ZM268.884 132V122.2H270.06L275.282 130.054V122.2H276.458V132H275.282L270.06 124.146V132H268.884ZM281.588 132.168C280.925 132.168 280.337 132.014 279.824 131.706C279.32 131.398 278.923 130.969 278.634 130.418C278.344 129.858 278.2 129.209 278.2 128.472C278.2 127.725 278.34 127.077 278.62 126.526C278.909 125.975 279.31 125.546 279.824 125.238C280.346 124.93 280.944 124.776 281.616 124.776C282.306 124.776 282.89 124.93 283.366 125.238C283.851 125.546 284.22 125.952 284.472 126.456C284.733 126.951 284.864 127.497 284.864 128.094C284.864 128.187 284.864 128.285 284.864 128.388C284.864 128.491 284.859 128.607 284.85 128.738H279.082V127.828H283.716C283.688 127.184 283.473 126.68 283.072 126.316C282.68 125.952 282.185 125.77 281.588 125.77C281.186 125.77 280.813 125.863 280.468 126.05C280.132 126.227 279.861 126.493 279.656 126.848C279.45 127.193 279.348 127.627 279.348 128.15V128.542C279.348 129.121 279.45 129.606 279.656 129.998C279.87 130.39 280.146 130.684 280.482 130.88C280.827 131.076 281.196 131.174 281.588 131.174C282.082 131.174 282.488 131.067 282.806 130.852C283.132 130.628 283.366 130.329 283.506 129.956H284.668C284.556 130.376 284.36 130.754 284.08 131.09C283.8 131.426 283.45 131.692 283.03 131.888C282.619 132.075 282.138 132.168 281.588 132.168ZM288.99 132C288.57 132 288.206 131.935 287.898 131.804C287.59 131.673 287.352 131.454 287.184 131.146C287.026 130.829 286.946 130.404 286.946 129.872V125.938H285.714V124.944H286.946L287.1 123.236H288.122V124.944H290.166V125.938H288.122V129.872C288.122 130.311 288.211 130.609 288.388 130.768C288.566 130.917 288.878 130.992 289.326 130.992H290.082V132H288.99Z" fill="white" fill-opacity="0.8"/>
<rect x="335.5" y="110.5" width="110" height="33" rx="5.5" fill="url(#paint3_linear_384_4800)"/>
<rect x="335.5" y="110.5" width="110" height="33" rx="5.5" stroke="url(#paint4_linear_384_4800)"/>
<path d="M353.453 132V122.2H356.337C357.485 122.2 358.428 122.401 359.165 122.802C359.912 123.194 360.463 123.759 360.817 124.496C361.181 125.224 361.363 126.101 361.363 127.128C361.363 128.136 361.181 129.004 360.817 129.732C360.463 130.46 359.912 131.02 359.165 131.412C358.428 131.804 357.485 132 356.337 132H353.453ZM354.629 131.02H356.309C357.261 131.02 358.017 130.866 358.577 130.558C359.137 130.241 359.539 129.793 359.781 129.214C360.024 128.626 360.145 127.931 360.145 127.128C360.145 126.307 360.024 125.602 359.781 125.014C359.539 124.426 359.137 123.973 358.577 123.656C358.017 123.339 357.261 123.18 356.309 123.18H354.629V131.02ZM366.116 132.168C365.453 132.168 364.865 132.014 364.352 131.706C363.848 131.398 363.451 130.969 363.162 130.418C362.873 129.858 362.728 129.209 362.728 128.472C362.728 127.725 362.868 127.077 363.148 126.526C363.437 125.975 363.839 125.546 364.352 125.238C364.875 124.93 365.472 124.776 366.144 124.776C366.835 124.776 367.418 124.93 367.894 125.238C368.379 125.546 368.748 125.952 369 126.456C369.261 126.951 369.392 127.497 369.392 128.094C369.392 128.187 369.392 128.285 369.392 128.388C369.392 128.491 369.387 128.607 369.378 128.738H363.61V127.828H368.244C368.216 127.184 368.001 126.68 367.6 126.316C367.208 125.952 366.713 125.77 366.116 125.77C365.715 125.77 365.341 125.863 364.996 126.05C364.66 126.227 364.389 126.493 364.184 126.848C363.979 127.193 363.876 127.627 363.876 128.15V128.542C363.876 129.121 363.979 129.606 364.184 129.998C364.399 130.39 364.674 130.684 365.01 130.88C365.355 131.076 365.724 131.174 366.116 131.174C366.611 131.174 367.017 131.067 367.334 130.852C367.661 130.628 367.894 130.329 368.034 129.956H369.196C369.084 130.376 368.888 130.754 368.608 131.09C368.328 131.426 367.978 131.692 367.558 131.888C367.147 132.075 366.667 132.168 366.116 132.168ZM370.979 135.08V124.944H372.043L372.141 126.092C372.29 125.868 372.482 125.658 372.715 125.462C372.948 125.257 373.228 125.093 373.555 124.972C373.882 124.841 374.255 124.776 374.675 124.776C375.366 124.776 375.963 124.939 376.467 125.266C376.98 125.593 377.377 126.036 377.657 126.596C377.946 127.147 378.091 127.777 378.091 128.486C378.091 129.195 377.946 129.83 377.657 130.39C377.377 130.941 376.98 131.375 376.467 131.692C375.954 132.009 375.352 132.168 374.661 132.168C374.092 132.168 373.588 132.051 373.149 131.818C372.72 131.585 372.388 131.258 372.155 130.838V135.08H370.979ZM374.535 131.146C374.992 131.146 375.398 131.034 375.753 130.81C376.108 130.586 376.383 130.278 376.579 129.886C376.784 129.485 376.887 129.013 376.887 128.472C376.887 127.94 376.784 127.473 376.579 127.072C376.383 126.671 376.108 126.358 375.753 126.134C375.398 125.91 374.992 125.798 374.535 125.798C374.068 125.798 373.658 125.91 373.303 126.134C372.948 126.358 372.673 126.671 372.477 127.072C372.281 127.473 372.183 127.94 372.183 128.472C372.183 129.013 372.281 129.485 372.477 129.886C372.673 130.278 372.948 130.586 373.303 130.81C373.658 131.034 374.068 131.146 374.535 131.146ZM379.855 132V124.944H381.031V132H379.855ZM380.443 123.446C380.209 123.446 380.013 123.371 379.855 123.222C379.705 123.063 379.631 122.867 379.631 122.634C379.631 122.401 379.705 122.214 379.855 122.074C380.013 121.925 380.209 121.85 380.443 121.85C380.667 121.85 380.858 121.925 381.017 122.074C381.175 122.214 381.255 122.401 381.255 122.634C381.255 122.867 381.175 123.063 381.017 123.222C380.858 123.371 380.667 123.446 380.443 123.446ZM383.106 132V124.944H384.17L384.226 126.176C384.45 125.737 384.767 125.397 385.178 125.154C385.598 124.902 386.074 124.776 386.606 124.776C387.157 124.776 387.633 124.888 388.034 125.112C388.435 125.327 388.748 125.658 388.972 126.106C389.196 126.545 389.308 127.105 389.308 127.786V132H388.132V127.912C388.132 127.203 387.973 126.671 387.656 126.316C387.348 125.961 386.909 125.784 386.34 125.784C385.948 125.784 385.598 125.882 385.29 126.078C384.982 126.265 384.735 126.54 384.548 126.904C384.371 127.259 384.282 127.702 384.282 128.234V132H383.106ZM394.934 132V122.2H396.11L401.332 130.054V122.2H402.508V132H401.332L396.11 124.146V132H394.934ZM407.693 132.168C407.04 132.168 406.452 132.019 405.929 131.72C405.407 131.412 404.996 130.983 404.697 130.432C404.399 129.872 404.249 129.223 404.249 128.486C404.249 127.73 404.399 127.077 404.697 126.526C405.005 125.966 405.421 125.537 405.943 125.238C406.475 124.93 407.068 124.776 407.721 124.776C408.393 124.776 408.986 124.93 409.499 125.238C410.022 125.537 410.433 125.966 410.731 126.526C411.039 127.077 411.193 127.725 411.193 128.472C411.193 129.219 411.039 129.872 410.731 130.432C410.423 130.983 410.008 131.412 409.485 131.72C408.963 132.019 408.365 132.168 407.693 132.168ZM407.707 131.16C408.109 131.16 408.482 131.062 408.827 130.866C409.173 130.661 409.453 130.357 409.667 129.956C409.882 129.555 409.989 129.06 409.989 128.472C409.989 127.875 409.882 127.38 409.667 126.988C409.462 126.587 409.187 126.288 408.841 126.092C408.505 125.887 408.132 125.784 407.721 125.784C407.329 125.784 406.956 125.887 406.601 126.092C406.256 126.288 405.976 126.587 405.761 126.988C405.556 127.38 405.453 127.875 405.453 128.472C405.453 129.06 405.556 129.555 405.761 129.956C405.976 130.357 406.251 130.661 406.587 130.866C406.933 131.062 407.306 131.16 407.707 131.16ZM415.95 132.168C415.269 132.168 414.672 132.009 414.158 131.692C413.645 131.365 413.248 130.922 412.968 130.362C412.688 129.802 412.548 129.167 412.548 128.458C412.548 127.749 412.688 127.119 412.968 126.568C413.248 126.008 413.645 125.569 414.158 125.252C414.681 124.935 415.283 124.776 415.964 124.776C416.543 124.776 417.047 124.893 417.476 125.126C417.915 125.359 418.251 125.686 418.484 126.106V121.92H419.66V132H418.596L418.498 130.838C418.349 131.071 418.158 131.291 417.924 131.496C417.691 131.692 417.411 131.855 417.084 131.986C416.758 132.107 416.38 132.168 415.95 132.168ZM416.09 131.146C416.557 131.146 416.968 131.034 417.322 130.81C417.677 130.586 417.952 130.278 418.148 129.886C418.344 129.485 418.442 129.013 418.442 128.472C418.442 127.94 418.344 127.473 418.148 127.072C417.952 126.671 417.677 126.358 417.322 126.134C416.968 125.91 416.557 125.798 416.09 125.798C415.633 125.798 415.227 125.91 414.872 126.134C414.518 126.358 414.242 126.671 414.046 127.072C413.85 127.473 413.752 127.94 413.752 128.472C413.752 129.013 413.85 129.485 414.046 129.886C414.242 130.278 414.518 130.586 414.872 130.81C415.227 131.034 415.633 131.146 416.09 131.146ZM424.714 132.168C424.051 132.168 423.463 132.014 422.95 131.706C422.446 131.398 422.049 130.969 421.76 130.418C421.47 129.858 421.326 129.209 421.326 128.472C421.326 127.725 421.466 127.077 421.746 126.526C422.035 125.975 422.436 125.546 422.95 125.238C423.472 124.93 424.07 124.776 424.742 124.776C425.432 124.776 426.016 124.93 426.492 125.238C426.977 125.546 427.346 125.952 427.598 126.456C427.859 126.951 427.99 127.497 427.99 128.094C427.99 128.187 427.99 128.285 427.99 128.388C427.99 128.491 427.985 128.607 427.976 128.738H422.208V127.828H426.842C426.814 127.184 426.599 126.68 426.198 126.316C425.806 125.952 425.311 125.77 424.714 125.77C424.312 125.77 423.939 125.863 423.594 126.05C423.258 126.227 422.987 126.493 422.782 126.848C422.576 127.193 422.474 127.627 422.474 128.15V128.542C422.474 129.121 422.576 129.606 422.782 129.998C422.996 130.39 423.272 130.684 423.608 130.88C423.953 131.076 424.322 131.174 424.714 131.174C425.208 131.174 425.614 131.067 425.932 130.852C426.258 130.628 426.492 130.329 426.632 129.956H427.794C427.682 130.376 427.486 130.754 427.206 131.09C426.926 131.426 426.576 131.692 426.156 131.888C425.745 132.075 425.264 132.168 424.714 132.168Z" fill="white" fill-opacity="0.8"/>
<rect x="473.5" y="110.5" width="141" height="33" rx="5.5" fill="url(#paint5_linear_384_4800)"/>
<rect x="473.5" y="110.5" width="141" height="33" rx="5.5" stroke="url(#paint6_linear_384_4800)"/>
<path d="M491.402 132V122.2H494.566C495.331 122.2 495.956 122.331 496.442 122.592C496.927 122.844 497.286 123.185 497.52 123.614C497.753 124.043 497.87 124.529 497.87 125.07C497.87 125.593 497.748 126.073 497.506 126.512C497.272 126.951 496.908 127.301 496.414 127.562C495.919 127.823 495.284 127.954 494.51 127.954H492.578V132H491.402ZM496.582 132L494.426 127.618H495.742L497.968 132H496.582ZM492.578 127.03H494.482C495.228 127.03 495.774 126.848 496.12 126.484C496.474 126.12 496.652 125.653 496.652 125.084C496.652 124.505 496.479 124.048 496.134 123.712C495.798 123.367 495.242 123.194 494.468 123.194H492.578V127.03ZM502.314 132.168C501.652 132.168 501.064 132.014 500.55 131.706C500.046 131.398 499.65 130.969 499.36 130.418C499.071 129.858 498.926 129.209 498.926 128.472C498.926 127.725 499.066 127.077 499.346 126.526C499.636 125.975 500.037 125.546 500.55 125.238C501.073 124.93 501.67 124.776 502.342 124.776C503.033 124.776 503.616 124.93 504.092 125.238C504.578 125.546 504.946 125.952 505.198 126.456C505.46 126.951 505.59 127.497 505.59 128.094C505.59 128.187 505.59 128.285 505.59 128.388C505.59 128.491 505.586 128.607 505.576 128.738H499.808V127.828H504.442C504.414 127.184 504.2 126.68 503.798 126.316C503.406 125.952 502.912 125.77 502.314 125.77C501.913 125.77 501.54 125.863 501.194 126.05C500.858 126.227 500.588 126.493 500.382 126.848C500.177 127.193 500.074 127.627 500.074 128.15V128.542C500.074 129.121 500.177 129.606 500.382 129.998C500.597 130.39 500.872 130.684 501.208 130.88C501.554 131.076 501.922 131.174 502.314 131.174C502.809 131.174 503.215 131.067 503.532 130.852C503.859 130.628 504.092 130.329 504.232 129.956H505.394C505.282 130.376 505.086 130.754 504.806 131.09C504.526 131.426 504.176 131.692 503.756 131.888C503.346 132.075 502.865 132.168 502.314 132.168ZM508.934 132L506.26 124.944H507.492L509.62 130.866L511.762 124.944H512.966L510.292 132H508.934ZM517.025 132.168C516.363 132.168 515.775 132.014 515.261 131.706C514.757 131.398 514.361 130.969 514.071 130.418C513.782 129.858 513.637 129.209 513.637 128.472C513.637 127.725 513.777 127.077 514.057 126.526C514.347 125.975 514.748 125.546 515.261 125.238C515.784 124.93 516.381 124.776 517.053 124.776C517.744 124.776 518.327 124.93 518.803 125.238C519.289 125.546 519.657 125.952 519.909 126.456C520.171 126.951 520.301 127.497 520.301 128.094C520.301 128.187 520.301 128.285 520.301 128.388C520.301 128.491 520.297 128.607 520.287 128.738H514.519V127.828H519.153C519.125 127.184 518.911 126.68 518.509 126.316C518.117 125.952 517.623 125.77 517.025 125.77C516.624 125.77 516.251 125.863 515.905 126.05C515.569 126.227 515.299 126.493 515.093 126.848C514.888 127.193 514.785 127.627 514.785 128.15V128.542C514.785 129.121 514.888 129.606 515.093 129.998C515.308 130.39 515.583 130.684 515.919 130.88C516.265 131.076 516.633 131.174 517.025 131.174C517.52 131.174 517.926 131.067 518.243 130.852C518.57 130.628 518.803 130.329 518.943 129.956H520.105C519.993 130.376 519.797 130.754 519.517 131.09C519.237 131.426 518.887 131.692 518.467 131.888C518.057 132.075 517.576 132.168 517.025 132.168ZM521.888 132V124.944H522.952L523.036 126.288C523.195 125.971 523.396 125.7 523.638 125.476C523.89 125.252 524.189 125.079 524.534 124.958C524.889 124.837 525.29 124.776 525.738 124.776V126.008H525.304C525.006 126.008 524.721 126.05 524.45 126.134C524.18 126.209 523.937 126.335 523.722 126.512C523.517 126.689 523.354 126.932 523.232 127.24C523.12 127.539 523.064 127.912 523.064 128.36V132H521.888ZM529.73 132.168C529.142 132.168 528.629 132.07 528.19 131.874C527.761 131.678 527.415 131.407 527.154 131.062C526.902 130.707 526.748 130.292 526.692 129.816H527.896C527.943 130.059 528.041 130.283 528.19 130.488C528.339 130.693 528.54 130.861 528.792 130.992C529.053 131.113 529.371 131.174 529.744 131.174C530.071 131.174 530.341 131.127 530.556 131.034C530.771 130.931 530.929 130.796 531.032 130.628C531.144 130.46 531.2 130.278 531.2 130.082C531.2 129.793 531.13 129.573 530.99 129.424C530.859 129.275 530.663 129.158 530.402 129.074C530.141 128.981 529.823 128.901 529.45 128.836C529.142 128.78 528.839 128.705 528.54 128.612C528.241 128.519 527.975 128.397 527.742 128.248C527.509 128.089 527.322 127.898 527.182 127.674C527.051 127.45 526.986 127.175 526.986 126.848C526.986 126.447 527.089 126.092 527.294 125.784C527.499 125.467 527.793 125.219 528.176 125.042C528.568 124.865 529.021 124.776 529.534 124.776C530.29 124.776 530.901 124.958 531.368 125.322C531.835 125.686 532.11 126.213 532.194 126.904H531.032C530.985 126.549 530.831 126.274 530.57 126.078C530.318 125.873 529.968 125.77 529.52 125.77C529.081 125.77 528.745 125.859 528.512 126.036C528.288 126.213 528.176 126.447 528.176 126.736C528.176 126.923 528.237 127.091 528.358 127.24C528.489 127.38 528.675 127.501 528.918 127.604C529.17 127.707 529.478 127.791 529.842 127.856C530.309 127.94 530.733 128.052 531.116 128.192C531.499 128.332 531.807 128.542 532.04 128.822C532.283 129.093 532.404 129.48 532.404 129.984C532.404 130.423 532.292 130.805 532.068 131.132C531.853 131.459 531.545 131.715 531.144 131.902C530.743 132.079 530.271 132.168 529.73 132.168ZM537.191 132.168C536.529 132.168 535.941 132.014 535.427 131.706C534.923 131.398 534.527 130.969 534.237 130.418C533.948 129.858 533.803 129.209 533.803 128.472C533.803 127.725 533.943 127.077 534.223 126.526C534.513 125.975 534.914 125.546 535.427 125.238C535.95 124.93 536.547 124.776 537.219 124.776C537.91 124.776 538.493 124.93 538.969 125.238C539.455 125.546 539.823 125.952 540.075 126.456C540.337 126.951 540.467 127.497 540.467 128.094C540.467 128.187 540.467 128.285 540.467 128.388C540.467 128.491 540.463 128.607 540.453 128.738H534.685V127.828H539.319C539.291 127.184 539.077 126.68 538.675 126.316C538.283 125.952 537.789 125.77 537.191 125.77C536.79 125.77 536.417 125.863 536.071 126.05C535.735 126.227 535.465 126.493 535.259 126.848C535.054 127.193 534.951 127.627 534.951 128.15V128.542C534.951 129.121 535.054 129.606 535.259 129.998C535.474 130.39 535.749 130.684 536.085 130.88C536.431 131.076 536.799 131.174 537.191 131.174C537.686 131.174 538.092 131.067 538.409 130.852C538.736 130.628 538.969 130.329 539.109 129.956H540.271C540.159 130.376 539.963 130.754 539.683 131.09C539.403 131.426 539.053 131.692 538.633 131.888C538.223 132.075 537.742 132.168 537.191 132.168ZM550.099 132.168C549.147 132.168 548.321 131.958 547.621 131.538C546.93 131.109 546.398 130.516 546.025 129.76C545.652 128.995 545.465 128.108 545.465 127.1C545.465 126.092 545.652 125.21 546.025 124.454C546.398 123.689 546.93 123.096 547.621 122.676C548.321 122.247 549.147 122.032 550.099 122.032C551.219 122.032 552.129 122.298 552.829 122.83C553.529 123.362 553.977 124.113 554.173 125.084H552.871C552.722 124.477 552.418 123.992 551.961 123.628C551.504 123.255 550.883 123.068 550.099 123.068C549.399 123.068 548.792 123.231 548.279 123.558C547.766 123.875 547.369 124.337 547.089 124.944C546.809 125.541 546.669 126.26 546.669 127.1C546.669 127.94 546.809 128.663 547.089 129.27C547.369 129.867 547.766 130.329 548.279 130.656C548.792 130.973 549.399 131.132 550.099 131.132C550.883 131.132 551.504 130.955 551.961 130.6C552.418 130.236 552.722 129.755 552.871 129.158H554.173C553.977 130.101 553.529 130.838 552.829 131.37C552.129 131.902 551.219 132.168 550.099 132.168ZM555.808 132V121.92H556.984V126.134C557.217 125.714 557.544 125.383 557.964 125.14C558.393 124.897 558.86 124.776 559.364 124.776C559.905 124.776 560.377 124.888 560.778 125.112C561.179 125.327 561.487 125.658 561.702 126.106C561.917 126.554 562.024 127.119 562.024 127.8V132H560.862V127.926C560.862 127.217 560.713 126.685 560.414 126.33C560.115 125.966 559.681 125.784 559.112 125.784C558.711 125.784 558.347 125.882 558.02 126.078C557.703 126.274 557.451 126.554 557.264 126.918C557.077 127.282 556.984 127.73 556.984 128.262V132H555.808ZM566.157 132.168C565.588 132.168 565.112 132.07 564.729 131.874C564.346 131.669 564.062 131.403 563.875 131.076C563.688 130.74 563.595 130.376 563.595 129.984C563.595 129.508 563.716 129.107 563.959 128.78C564.211 128.444 564.561 128.192 565.009 128.024C565.466 127.847 566.003 127.758 566.619 127.758H568.481C568.481 127.319 568.411 126.955 568.271 126.666C568.14 126.367 567.944 126.143 567.683 125.994C567.431 125.845 567.114 125.77 566.731 125.77C566.283 125.77 565.896 125.882 565.569 126.106C565.242 126.33 565.042 126.661 564.967 127.1H563.763C563.819 126.596 563.987 126.176 564.267 125.84C564.556 125.495 564.92 125.233 565.359 125.056C565.798 124.869 566.255 124.776 566.731 124.776C567.384 124.776 567.926 124.897 568.355 125.14C568.794 125.373 569.12 125.705 569.335 126.134C569.55 126.554 569.657 127.053 569.657 127.632V132H568.607L568.537 130.754C568.444 130.95 568.322 131.137 568.173 131.314C568.033 131.482 567.865 131.631 567.669 131.762C567.473 131.883 567.249 131.981 566.997 132.056C566.754 132.131 566.474 132.168 566.157 132.168ZM566.339 131.174C566.666 131.174 566.96 131.109 567.221 130.978C567.492 130.838 567.72 130.651 567.907 130.418C568.094 130.175 568.234 129.909 568.327 129.62C568.43 129.331 568.481 129.027 568.481 128.71V128.668H566.717C566.26 128.668 565.891 128.724 565.611 128.836C565.331 128.939 565.13 129.088 565.009 129.284C564.888 129.471 564.827 129.685 564.827 129.928C564.827 130.18 564.883 130.399 564.995 130.586C565.116 130.773 565.289 130.917 565.513 131.02C565.746 131.123 566.022 131.174 566.339 131.174ZM571.476 132V124.944H572.54L572.596 126.176C572.82 125.737 573.137 125.397 573.548 125.154C573.968 124.902 574.444 124.776 574.976 124.776C575.527 124.776 576.003 124.888 576.404 125.112C576.805 125.327 577.118 125.658 577.342 126.106C577.566 126.545 577.678 127.105 577.678 127.786V132H576.502V127.912C576.502 127.203 576.343 126.671 576.026 126.316C575.718 125.961 575.279 125.784 574.71 125.784C574.318 125.784 573.968 125.882 573.66 126.078C573.352 126.265 573.105 126.54 572.918 126.904C572.741 127.259 572.652 127.702 572.652 128.234V132H571.476ZM579.515 132V124.944H580.579L580.635 126.176C580.859 125.737 581.176 125.397 581.587 125.154C582.007 124.902 582.483 124.776 583.015 124.776C583.566 124.776 584.042 124.888 584.443 125.112C584.844 125.327 585.157 125.658 585.381 126.106C585.605 126.545 585.717 127.105 585.717 127.786V132H584.541V127.912C584.541 127.203 584.382 126.671 584.065 126.316C583.757 125.961 583.318 125.784 582.749 125.784C582.357 125.784 582.007 125.882 581.699 126.078C581.391 126.265 581.144 126.54 580.957 126.904C580.78 127.259 580.691 127.702 580.691 128.234V132H579.515ZM590.648 132.168C589.986 132.168 589.398 132.014 588.884 131.706C588.38 131.398 587.984 130.969 587.694 130.418C587.405 129.858 587.26 129.209 587.26 128.472C587.26 127.725 587.4 127.077 587.68 126.526C587.97 125.975 588.371 125.546 588.884 125.238C589.407 124.93 590.004 124.776 590.676 124.776C591.367 124.776 591.95 124.93 592.426 125.238C592.912 125.546 593.28 125.952 593.532 126.456C593.794 126.951 593.924 127.497 593.924 128.094C593.924 128.187 593.924 128.285 593.924 128.388C593.924 128.491 593.92 128.607 593.91 128.738H588.142V127.828H592.776C592.748 127.184 592.534 126.68 592.132 126.316C591.74 125.952 591.246 125.77 590.648 125.77C590.247 125.77 589.874 125.863 589.528 126.05C589.192 126.227 588.922 126.493 588.716 126.848C588.511 127.193 588.408 127.627 588.408 128.15V128.542C588.408 129.121 588.511 129.606 588.716 129.998C588.931 130.39 589.206 130.684 589.542 130.88C589.888 131.076 590.256 131.174 590.648 131.174C591.143 131.174 591.549 131.067 591.866 130.852C592.193 130.628 592.426 130.329 592.566 129.956H593.728C593.616 130.376 593.42 130.754 593.14 131.09C592.86 131.426 592.51 131.692 592.09 131.888C591.68 132.075 591.199 132.168 590.648 132.168ZM595.511 132V121.92H596.687V132H595.511Z" fill="white" fill-opacity="0.8"/>
<g filter="url(#filter0_d_384_4800)">
<rect x="225" y="24" width="72" height="34" rx="6" fill="url(#paint7_linear_384_4800)" shape-rendering="crispEdges"/>
<path d="M240.666 46V37.166H237.74V36.2H244.768V37.166H241.842V46H240.666ZM246.218 46V36.2H252.28V37.166H247.394V40.582H251.86V41.534H247.394V45.034H252.28V46H246.218ZM254.134 46V36.2H260.196V37.166H255.31V40.582H259.776V41.534H255.31V45.034H260.196V46H254.134Z" fill="#004D4B"/>
<path d="M280.754 34.4927H269.147C268.84 34.4934 268.545 34.6095 268.327 34.8158C268.109 35.022 267.987 35.3016 267.986 35.5933V37.0609C267.987 37.3525 268.109 37.632 268.327 37.8382C268.544 38.0444 268.839 38.1606 269.147 38.1615H280.754C281.061 38.1606 281.356 38.0444 281.573 37.8382C281.791 37.632 281.913 37.3525 281.914 37.0609V35.5933C281.913 35.3017 281.791 35.0222 281.573 34.816C281.356 34.6098 281.061 34.4936 280.754 34.4927ZM270.257 37.2603C270.062 37.2603 269.872 37.2056 269.71 37.103C269.548 37.0005 269.422 36.8548 269.348 36.6843C269.273 36.5138 269.254 36.3261 269.292 36.1451C269.33 35.9641 269.423 35.7979 269.561 35.6674C269.699 35.5369 269.874 35.448 270.065 35.412C270.256 35.376 270.454 35.3945 270.633 35.4651C270.813 35.5357 270.967 35.6553 271.075 35.8088C271.183 35.9622 271.241 36.1426 271.241 36.3272C271.241 36.5745 271.137 36.8118 270.953 36.9868C270.768 37.1617 270.518 37.2601 270.257 37.2603H270.257ZM280.754 39.1584H269.147C268.84 39.1591 268.545 39.2752 268.327 39.4814C268.109 39.6876 267.987 39.9672 267.986 40.2589V41.7265C267.987 42.0181 268.109 42.2975 268.327 42.5038C268.544 42.71 268.839 42.8262 269.147 42.8271H280.754C281.061 42.8262 281.356 42.71 281.573 42.5038C281.791 42.2975 281.913 42.0181 281.914 41.7265V40.2589C281.913 39.9673 281.791 39.6879 281.573 39.4817C281.356 39.2755 281.061 39.1593 280.754 39.1584ZM270.257 41.9259C270.062 41.9259 269.872 41.8711 269.71 41.7686C269.548 41.6661 269.422 41.5204 269.348 41.3498C269.273 41.1793 269.254 40.9917 269.292 40.8107C269.33 40.6297 269.423 40.4634 269.561 40.3329C269.699 40.2024 269.874 40.1136 270.065 40.0776C270.256 40.0416 270.454 40.06 270.633 40.1307C270.813 40.2013 270.967 40.3209 271.075 40.4743C271.183 40.6278 271.241 40.8082 271.241 40.9928C271.241 41.2401 271.137 41.4774 270.953 41.6523C270.768 41.8273 270.518 41.9257 270.257 41.9259H270.257ZM280.754 43.824H269.147C268.84 43.8247 268.545 43.9408 268.327 44.1471C268.109 44.3533 267.987 44.6329 267.986 44.9246V46.392C267.987 46.6837 268.109 46.9631 268.327 47.1693C268.544 47.3755 268.839 47.4918 269.147 47.4927H280.754C281.061 47.4918 281.356 47.3755 281.573 47.1693C281.791 46.9631 281.913 46.6837 281.914 46.392V44.9246C281.914 44.633 281.791 44.3535 281.573 44.1473C281.356 43.9411 281.061 43.8248 280.754 43.824ZM270.257 46.5915C270.062 46.5913 269.872 46.5365 269.71 46.4339C269.549 46.3313 269.423 46.1855 269.348 46.015C269.274 45.8445 269.254 45.6569 269.292 45.4759C269.33 45.295 269.424 45.1288 269.562 44.9983C269.699 44.8679 269.875 44.7791 270.066 44.7431C270.256 44.7072 270.454 44.7256 270.634 44.7963C270.814 44.8669 270.968 44.9865 271.076 45.1399C271.184 45.2933 271.241 45.4737 271.241 45.6582C271.242 45.7807 271.216 45.9021 271.167 46.0153C271.117 46.1285 271.045 46.2314 270.953 46.3181C270.862 46.4048 270.753 46.4735 270.634 46.5204C270.515 46.5673 270.387 46.5915 270.257 46.5915H270.257Z" fill="#004D4B"/>
</g>
<g filter="url(#filter1_d_384_4800)">
<rect x="318" y="24" width="145" height="34" rx="6" fill="url(#paint8_linear_384_4800)" shape-rendering="crispEdges"/>
<path d="M335.977 46.168C335.034 46.168 334.203 45.958 333.485 45.538C332.775 45.1087 332.22 44.516 331.819 43.76C331.427 42.9947 331.231 42.108 331.231 41.1C331.231 40.1013 331.427 39.224 331.819 38.468C332.22 37.7027 332.775 37.1053 333.485 36.676C334.203 36.2467 335.034 36.032 335.977 36.032C336.938 36.032 337.773 36.2467 338.483 36.676C339.192 37.1053 339.743 37.7027 340.135 38.468C340.536 39.224 340.737 40.1013 340.737 41.1C340.737 42.108 340.536 42.9947 340.135 43.76C339.743 44.516 339.192 45.1087 338.483 45.538C337.773 45.958 336.938 46.168 335.977 46.168ZM335.977 45.132C336.686 45.132 337.307 44.9733 337.839 44.656C338.38 44.3293 338.795 43.8673 339.085 43.27C339.383 42.6633 339.533 41.94 339.533 41.1C339.533 40.26 339.383 39.5413 339.085 38.944C338.795 38.3373 338.38 37.8753 337.839 37.558C337.307 37.2407 336.686 37.082 335.977 37.082C335.277 37.082 334.656 37.2407 334.115 37.558C333.583 37.8753 333.167 38.3373 332.869 38.944C332.579 39.5413 332.435 40.26 332.435 41.1C332.435 41.94 332.579 42.6633 332.869 43.27C333.167 43.8673 333.583 44.3293 334.115 44.656C334.656 44.9733 335.277 45.132 335.977 45.132ZM342.38 49.08V38.944H343.444L343.542 40.092C343.692 39.868 343.883 39.658 344.116 39.462C344.35 39.2567 344.63 39.0933 344.956 38.972C345.283 38.8413 345.656 38.776 346.076 38.776C346.767 38.776 347.364 38.9393 347.868 39.266C348.382 39.5927 348.778 40.036 349.058 40.596C349.348 41.1467 349.492 41.7767 349.492 42.486C349.492 43.1953 349.348 43.83 349.058 44.39C348.778 44.9407 348.382 45.3747 347.868 45.692C347.355 46.0093 346.753 46.168 346.062 46.168C345.493 46.168 344.989 46.0513 344.55 45.818C344.121 45.5847 343.79 45.258 343.556 44.838V49.08H342.38ZM345.936 45.146C346.394 45.146 346.8 45.034 347.154 44.81C347.509 44.586 347.784 44.278 347.98 43.886C348.186 43.4847 348.288 43.0133 348.288 42.472C348.288 41.94 348.186 41.4733 347.98 41.072C347.784 40.6707 347.509 40.358 347.154 40.134C346.8 39.91 346.394 39.798 345.936 39.798C345.47 39.798 345.059 39.91 344.704 40.134C344.35 40.358 344.074 40.6707 343.878 41.072C343.682 41.4733 343.584 41.94 343.584 42.472C343.584 43.0133 343.682 43.4847 343.878 43.886C344.074 44.278 344.35 44.586 344.704 44.81C345.059 45.034 345.47 45.146 345.936 45.146ZM354.238 46.168C353.575 46.168 352.987 46.014 352.474 45.706C351.97 45.398 351.573 44.9687 351.284 44.418C350.995 43.858 350.85 43.2093 350.85 42.472C350.85 41.7253 350.99 41.0767 351.27 40.526C351.559 39.9753 351.961 39.546 352.474 39.238C352.997 38.93 353.594 38.776 354.266 38.776C354.957 38.776 355.54 38.93 356.016 39.238C356.501 39.546 356.87 39.952 357.122 40.456C357.383 40.9507 357.514 41.4967 357.514 42.094C357.514 42.1873 357.514 42.2853 357.514 42.388C357.514 42.4907 357.509 42.6073 357.5 42.738H351.732V41.828H356.366C356.338 41.184 356.123 40.68 355.722 40.316C355.33 39.952 354.835 39.77 354.238 39.77C353.837 39.77 353.463 39.8633 353.118 40.05C352.782 40.2273 352.511 40.4933 352.306 40.848C352.101 41.1933 351.998 41.6273 351.998 42.15V42.542C351.998 43.1207 352.101 43.606 352.306 43.998C352.521 44.39 352.796 44.684 353.132 44.88C353.477 45.076 353.846 45.174 354.238 45.174C354.733 45.174 355.139 45.0667 355.456 44.852C355.783 44.628 356.016 44.3293 356.156 43.956H357.318C357.206 44.376 357.01 44.754 356.73 45.09C356.45 45.426 356.1 45.692 355.68 45.888C355.269 46.0747 354.789 46.168 354.238 46.168ZM359.101 46V38.944H360.165L360.221 40.176C360.445 39.7373 360.762 39.3967 361.173 39.154C361.593 38.902 362.069 38.776 362.601 38.776C363.152 38.776 363.628 38.888 364.029 39.112C364.43 39.3267 364.743 39.658 364.967 40.106C365.191 40.5447 365.303 41.1047 365.303 41.786V46H364.127V41.912C364.127 41.2027 363.968 40.6707 363.651 40.316C363.343 39.9613 362.904 39.784 362.335 39.784C361.943 39.784 361.593 39.882 361.285 40.078C360.977 40.2647 360.73 40.54 360.543 40.904C360.366 41.2587 360.277 41.702 360.277 42.234V46H359.101ZM371.466 46.168C370.514 46.168 369.688 45.958 368.988 45.538C368.297 45.1087 367.765 44.516 367.392 43.76C367.019 42.9947 366.832 42.108 366.832 41.1C366.832 40.092 367.019 39.21 367.392 38.454C367.765 37.6887 368.297 37.096 368.988 36.676C369.688 36.2467 370.514 36.032 371.466 36.032C372.586 36.032 373.496 36.298 374.196 36.83C374.896 37.362 375.344 38.1133 375.54 39.084H374.238C374.089 38.4773 373.785 37.992 373.328 37.628C372.871 37.2547 372.25 37.068 371.466 37.068C370.766 37.068 370.159 37.2313 369.646 37.558C369.133 37.8753 368.736 38.3373 368.456 38.944C368.176 39.5413 368.036 40.26 368.036 41.1C368.036 41.94 368.176 42.6633 368.456 43.27C368.736 43.8673 369.133 44.3293 369.646 44.656C370.159 44.9733 370.766 45.132 371.466 45.132C372.25 45.132 372.871 44.9547 373.328 44.6C373.785 44.236 374.089 43.7553 374.238 43.158H375.54C375.344 44.1007 374.896 44.838 374.196 45.37C373.496 45.902 372.586 46.168 371.466 46.168ZM380.325 46.168C379.672 46.168 379.084 46.0187 378.561 45.72C378.039 45.412 377.628 44.9827 377.329 44.432C377.031 43.872 376.881 43.2233 376.881 42.486C376.881 41.73 377.031 41.0767 377.329 40.526C377.637 39.966 378.053 39.5367 378.575 39.238C379.107 38.93 379.7 38.776 380.353 38.776C381.025 38.776 381.618 38.93 382.131 39.238C382.654 39.5367 383.065 39.966 383.363 40.526C383.671 41.0767 383.825 41.7253 383.825 42.472C383.825 43.2187 383.671 43.872 383.363 44.432C383.055 44.9827 382.64 45.412 382.117 45.72C381.595 46.0187 380.997 46.168 380.325 46.168ZM380.339 45.16C380.741 45.16 381.114 45.062 381.459 44.866C381.805 44.6607 382.085 44.3573 382.299 43.956C382.514 43.5547 382.621 43.06 382.621 42.472C382.621 41.8747 382.514 41.38 382.299 40.988C382.094 40.5867 381.819 40.288 381.473 40.092C381.137 39.8867 380.764 39.784 380.353 39.784C379.961 39.784 379.588 39.8867 379.233 40.092C378.888 40.288 378.608 40.5867 378.393 40.988C378.188 41.38 378.085 41.8747 378.085 42.472C378.085 43.06 378.188 43.5547 378.393 43.956C378.608 44.3573 378.883 44.6607 379.219 44.866C379.565 45.062 379.938 45.16 380.339 45.16ZM385.474 46V38.944H386.538L386.608 39.952C386.832 39.588 387.131 39.3033 387.504 39.098C387.887 38.8833 388.302 38.776 388.75 38.776C389.114 38.776 389.441 38.8273 389.73 38.93C390.029 39.0233 390.29 39.1727 390.514 39.378C390.738 39.574 390.92 39.826 391.06 40.134C391.303 39.7047 391.634 39.3733 392.054 39.14C392.483 38.8973 392.941 38.776 393.426 38.776C393.967 38.776 394.439 38.888 394.84 39.112C395.251 39.3267 395.563 39.658 395.778 40.106C396.002 40.5447 396.114 41.1047 396.114 41.786V46H394.952V41.912C394.952 41.2027 394.807 40.6707 394.518 40.316C394.229 39.9613 393.823 39.784 393.3 39.784C392.936 39.784 392.609 39.882 392.32 40.078C392.031 40.2647 391.802 40.54 391.634 40.904C391.466 41.268 391.382 41.716 391.382 42.248V46H390.206V41.912C390.206 41.2027 390.061 40.6707 389.772 40.316C389.483 39.9613 389.072 39.784 388.54 39.784C388.185 39.784 387.863 39.882 387.574 40.078C387.294 40.2647 387.07 40.54 386.902 40.904C386.734 41.268 386.65 41.716 386.65 42.248V46H385.474ZM397.943 49.08V38.944H399.007L399.105 40.092C399.254 39.868 399.446 39.658 399.679 39.462C399.912 39.2567 400.192 39.0933 400.519 38.972C400.846 38.8413 401.219 38.776 401.639 38.776C402.33 38.776 402.927 38.9393 403.431 39.266C403.944 39.5927 404.341 40.036 404.621 40.596C404.91 41.1467 405.055 41.7767 405.055 42.486C405.055 43.1953 404.91 43.83 404.621 44.39C404.341 44.9407 403.944 45.3747 403.431 45.692C402.918 46.0093 402.316 46.168 401.625 46.168C401.056 46.168 400.552 46.0513 400.113 45.818C399.684 45.5847 399.352 45.258 399.119 44.838V49.08H397.943ZM401.499 45.146C401.956 45.146 402.362 45.034 402.717 44.81C403.072 44.586 403.347 44.278 403.543 43.886C403.748 43.4847 403.851 43.0133 403.851 42.472C403.851 41.94 403.748 41.4733 403.543 41.072C403.347 40.6707 403.072 40.358 402.717 40.134C402.362 39.91 401.956 39.798 401.499 39.798C401.032 39.798 400.622 39.91 400.267 40.134C399.912 40.358 399.637 40.6707 399.441 41.072C399.245 41.4733 399.147 41.94 399.147 42.472C399.147 43.0133 399.245 43.4847 399.441 43.886C399.637 44.278 399.912 44.586 400.267 44.81C400.622 45.034 401.032 45.146 401.499 45.146ZM409.269 46.168C408.727 46.168 408.251 46.0607 407.841 45.846C407.439 45.6313 407.127 45.3 406.903 44.852C406.688 44.404 406.581 43.844 406.581 43.172V38.944H407.757V43.046C407.757 43.746 407.911 44.2733 408.219 44.628C408.527 44.9827 408.961 45.16 409.521 45.16C409.913 45.16 410.267 45.0667 410.585 44.88C410.902 44.684 411.149 44.4087 411.327 44.054C411.513 43.69 411.607 43.2467 411.607 42.724V38.944H412.783V46H411.719L411.649 44.768C411.434 45.2067 411.117 45.552 410.697 45.804C410.277 46.0467 409.801 46.168 409.269 46.168ZM417.504 46C417.084 46 416.72 45.9347 416.412 45.804C416.104 45.6733 415.866 45.454 415.698 45.146C415.539 44.8287 415.46 44.404 415.46 43.872V39.938H414.228V38.944H415.46L415.614 37.236H416.636V38.944H418.68V39.938H416.636V43.872C416.636 44.3107 416.725 44.6093 416.902 44.768C417.079 44.9173 417.392 44.992 417.84 44.992H418.596V46H417.504ZM423.117 46.168C422.454 46.168 421.866 46.014 421.353 45.706C420.849 45.398 420.452 44.9687 420.163 44.418C419.874 43.858 419.729 43.2093 419.729 42.472C419.729 41.7253 419.869 41.0767 420.149 40.526C420.438 39.9753 420.84 39.546 421.353 39.238C421.876 38.93 422.473 38.776 423.145 38.776C423.836 38.776 424.419 38.93 424.895 39.238C425.38 39.546 425.749 39.952 426.001 40.456C426.262 40.9507 426.393 41.4967 426.393 42.094C426.393 42.1873 426.393 42.2853 426.393 42.388C426.393 42.4907 426.388 42.6073 426.379 42.738H420.611V41.828H425.245C425.217 41.184 425.002 40.68 424.601 40.316C424.209 39.952 423.714 39.77 423.117 39.77C422.716 39.77 422.342 39.8633 421.997 40.05C421.661 40.2273 421.39 40.4933 421.185 40.848C420.98 41.1933 420.877 41.6273 420.877 42.15V42.542C420.877 43.1207 420.98 43.606 421.185 43.998C421.4 44.39 421.675 44.684 422.011 44.88C422.356 45.076 422.725 45.174 423.117 45.174C423.612 45.174 424.018 45.0667 424.335 44.852C424.662 44.628 424.895 44.3293 425.035 43.956H426.197C426.085 44.376 425.889 44.754 425.609 45.09C425.329 45.426 424.979 45.692 424.559 45.888C424.148 46.0747 423.668 46.168 423.117 46.168Z" fill="#004D4B"/>
<path d="M448.911 39.1375V38.1375H446.911V35.5449C446.911 34.9449 446.511 34.5449 445.911 34.5449H443.504V32.5449H442.504V34.5449H441.504V32.5449H440.504V34.5449H439.504V32.5449H438.504V34.5449H435.911C435.311 34.5449 434.911 34.9449 434.911 35.5449V38.1375H432.911V39.1375H434.911V40.1375H432.911V41.1375H434.911V42.1375H432.911V43.1375H434.911V45.5449C434.911 46.1449 435.311 46.5449 435.911 46.5449H438.504V48.5449H439.504V46.5449H440.504V48.5449H441.504V46.5449H442.504V48.5449H443.504V46.5449H445.911C446.511 46.5449 446.911 46.1449 446.911 45.5449V43.1375H448.911V42.1375H446.911V41.1375H448.911V40.1375H446.911V39.1375H448.911ZM444.911 44.5449H436.911V36.5449H444.911V44.5449ZM443.911 37.5449H437.911V43.5449H443.911V37.5449Z" fill="#004D4B"/>
</g>
<path d="M24.156 134.815C24.156 135.717 23.961 136.497 23.571 137.155C23.1723 137.805 22.622 138.308 21.92 138.663C21.2093 139.01 20.3903 139.183 19.463 139.183C18.5357 139.183 17.7167 139.01 17.006 138.663C16.2953 138.308 15.7407 137.805 15.342 137.155C14.9433 136.497 14.744 135.717 14.744 134.815C14.744 133.715 15.017 132.813 15.563 132.111C16.109 131.409 16.8803 130.972 17.877 130.798L17.877 132.722C17.3917 132.835 17.0147 133.069 16.746 133.424C16.4687 133.78 16.33 134.248 16.33 134.828C16.33 135.366 16.46 135.825 16.72 136.206C16.9713 136.588 17.331 136.882 17.799 137.09C18.2583 137.29 18.813 137.389 19.463 137.389C20.1043 137.389 20.659 137.29 21.127 137.09C21.595 136.882 21.9547 136.588 22.206 136.206C22.4573 135.825 22.583 135.366 22.583 134.828C22.583 134.248 22.4573 133.78 22.206 133.424C21.946 133.069 21.5863 132.835 21.127 132.722L21.127 130.798C22.0717 130.972 22.8127 131.409 23.35 132.111C23.8873 132.813 24.156 133.715 24.156 134.815ZM24.156 126.231C24.156 126.864 24.0087 127.432 23.714 127.934C23.4193 128.428 23.012 128.823 22.492 129.117C21.972 129.403 21.374 129.546 20.698 129.546C20.0133 129.546 19.411 129.403 18.891 129.117C18.371 128.823 17.968 128.424 17.682 127.921C17.3873 127.419 17.24 126.851 17.24 126.218C17.24 125.586 17.3873 125.022 17.682 124.528C17.968 124.026 18.371 123.631 18.891 123.345C19.411 123.051 20.0133 122.903 20.698 122.903C21.374 122.903 21.972 123.051 22.492 123.345C23.012 123.631 23.4193 124.026 23.714 124.528C24.0087 125.022 24.156 125.59 24.156 126.231ZM22.635 126.231C22.635 125.937 22.5657 125.677 22.427 125.451C22.2797 125.217 22.063 125.035 21.777 124.905C21.4823 124.767 21.1227 124.697 20.698 124.697C20.2647 124.697 19.905 124.767 19.619 124.905C19.333 125.035 19.1207 125.217 18.982 125.451C18.8347 125.677 18.761 125.932 18.761 126.218C18.761 126.504 18.8347 126.764 18.982 126.998C19.1207 127.224 19.333 127.406 19.619 127.544C19.905 127.683 20.2647 127.752 20.698 127.752C21.1227 127.752 21.4823 127.687 21.777 127.557C22.063 127.419 22.2797 127.237 22.427 127.011C22.5657 126.777 22.635 126.517 22.635 126.231ZM24 121.378L17.396 121.378L17.396 119.818L18.592 119.662C18.306 119.497 18.0633 119.298 17.864 119.064C17.6647 118.821 17.513 118.544 17.409 118.232C17.2963 117.911 17.24 117.56 17.24 117.179L19.099 117.179L19.099 117.842C19.099 118.093 19.1293 118.332 19.19 118.557C19.242 118.774 19.3373 118.964 19.476 119.129C19.606 119.285 19.788 119.406 20.022 119.493C20.256 119.58 20.5463 119.623 20.893 119.623L24 119.623L24 121.378ZM24.156 112.977C24.156 113.627 24.013 114.203 23.727 114.706C23.441 115.208 23.0423 115.603 22.531 115.889C22.0197 116.175 21.4303 116.318 20.763 116.318C20.0697 116.318 19.4587 116.179 18.93 115.902C18.4013 115.616 17.9897 115.221 17.695 114.719C17.3917 114.216 17.24 113.631 17.24 112.964C17.24 112.314 17.383 111.746 17.669 111.261C17.955 110.775 18.345 110.403 18.839 110.143C19.3243 109.874 19.879 109.74 20.503 109.74C20.5897 109.74 20.6893 109.74 20.802 109.74C20.906 109.74 21.0143 109.748 21.127 109.766L21.127 115.057L20.048 115.057L20.048 111.508C19.6233 111.525 19.2853 111.672 19.034 111.95C18.7827 112.218 18.657 112.556 18.657 112.964C18.657 113.258 18.7263 113.531 18.865 113.783C19.0037 114.025 19.216 114.22 19.502 114.368C19.7793 114.515 20.1303 114.589 20.555 114.589L20.932 114.589C21.296 114.589 21.6123 114.524 21.881 114.394C22.1497 114.255 22.3577 114.064 22.505 113.822C22.6523 113.579 22.726 113.302 22.726 112.99C22.726 112.652 22.661 112.383 22.531 112.184C22.3923 111.976 22.2147 111.815 21.998 111.703L21.998 109.922C22.4053 110.043 22.7737 110.247 23.103 110.533C23.4237 110.819 23.6793 111.17 23.87 111.586C24.0607 111.993 24.156 112.457 24.156 112.977ZM25.482 105.776L13.873 102.526L13.873 100.823L25.482 104.073L25.482 105.776ZM24 96.5324L14.9 96.5324L14.9 90.6044L16.317 90.6044L16.317 94.7774L18.748 94.7774L18.748 91.4364L20.126 91.4364L20.126 94.7774L24 94.7774L24 96.5324ZM24.156 86.5711C24.156 87.2038 24.0087 87.7715 23.714 88.2741C23.4193 88.7681 23.012 89.1625 22.492 89.4571C21.972 89.7431 21.374 89.8861 20.698 89.8861C20.0133 89.8861 19.411 89.7431 18.891 89.4571C18.371 89.1625 17.968 88.7638 17.682 88.2611C17.3873 87.7585 17.24 87.1908 17.24 86.5581C17.24 85.9255 17.3873 85.3621 17.682 84.8681C17.968 84.3655 18.371 83.9711 18.891 83.6851C19.411 83.3905 20.0133 83.2431 20.698 83.2431C21.374 83.2431 21.972 83.3905 22.492 83.6851C23.012 83.9711 23.4193 84.3655 23.714 84.8681C24.0087 85.3621 24.156 85.9298 24.156 86.5711ZM22.635 86.5711C22.635 86.2765 22.5657 86.0165 22.427 85.7911C22.2797 85.5571 22.063 85.3751 21.777 85.2451C21.4823 85.1065 21.1227 85.0371 20.698 85.0371C20.2647 85.0371 19.905 85.1065 19.619 85.2451C19.333 85.3751 19.1207 85.5571 18.982 85.7911C18.8347 86.0165 18.761 86.2721 18.761 86.5581C18.761 86.8441 18.8347 87.1041 18.982 87.3381C19.1207 87.5635 19.333 87.7455 19.619 87.8841C19.905 88.0228 20.2647 88.0921 20.698 88.0921C21.1227 88.0921 21.4823 88.0271 21.777 87.8971C22.063 87.7585 22.2797 87.5765 22.427 87.3511C22.5657 87.1171 22.635 86.8571 22.635 86.5711ZM24.156 79.2609C24.156 79.7895 24.0477 80.2445 23.831 80.6259C23.6143 80.9985 23.2937 81.2845 22.869 81.4839C22.4443 81.6832 21.9243 81.7829 21.309 81.7829L17.396 81.7829L17.396 80.0279L21.114 80.0279C21.634 80.0279 22.024 79.9152 22.284 79.6899C22.544 79.4645 22.674 79.1265 22.674 78.6759C22.674 78.3899 22.609 78.1342 22.479 77.9089C22.349 77.6835 22.1627 77.5059 21.92 77.3759C21.6687 77.2372 21.361 77.1679 20.997 77.1679L17.396 77.1679L17.396 75.4129L24 75.4129L24 76.9599L22.947 77.1029C23.311 77.2935 23.6057 77.5709 23.831 77.9349C24.0477 78.2989 24.156 78.7409 24.156 79.2609ZM24 73.6817L17.396 73.6817L17.396 72.1477L18.449 72.0177C18.085 71.8184 17.7947 71.5367 17.578 71.1727C17.3527 70.8001 17.24 70.3581 17.24 69.8467C17.24 69.3094 17.3527 68.8544 17.578 68.4817C17.7947 68.1091 18.1197 67.8231 18.553 67.6237C18.9777 67.4244 19.4977 67.3247 20.113 67.3247L24 67.3247L24 69.0797L20.282 69.0797C19.7793 69.0797 19.3937 69.1924 19.125 69.4177C18.8563 69.6344 18.722 69.9681 18.722 70.4187C18.722 70.7047 18.787 70.9647 18.917 71.1987C19.047 71.4241 19.2377 71.6017 19.489 71.7317C19.7403 71.8617 20.048 71.9267 20.412 71.9267L24 71.9267L24 73.6817ZM24.156 62.7726C24.156 63.3619 24.0087 63.8906 23.714 64.3586C23.4193 64.8266 23.012 65.1949 22.492 65.4636C21.972 65.7323 21.3783 65.8666 20.711 65.8666C20.0437 65.8666 19.45 65.7323 18.93 65.4636C18.4013 65.1863 17.9897 64.8093 17.695 64.3326C17.3917 63.8559 17.24 63.3143 17.24 62.7076C17.24 62.2396 17.3267 61.8323 17.5 61.4856C17.6647 61.1303 17.9073 60.8486 18.228 60.6406L14.64 60.6406L14.64 58.8856L24 58.8856L24 60.4456L23.103 60.6406C23.285 60.7706 23.4583 60.9309 23.623 61.1216C23.7877 61.3123 23.9177 61.5419 24.013 61.8106C24.1083 62.0793 24.156 62.3999 24.156 62.7726ZM22.622 62.3306C22.622 61.9839 22.544 61.6806 22.388 61.4206C22.2233 61.1606 21.998 60.9569 21.712 60.8096C21.4173 60.6623 21.0793 60.5886 20.698 60.5886C20.308 60.5886 19.97 60.6623 19.684 60.8096C19.398 60.9569 19.177 61.1606 19.021 61.4206C18.8563 61.6806 18.774 61.9839 18.774 62.3306C18.774 62.6686 18.8563 62.9719 19.021 63.2406C19.177 63.5006 19.398 63.7043 19.684 63.8516C19.97 63.9989 20.3037 64.0726 20.685 64.0726C21.0663 64.0726 21.4043 63.9989 21.699 63.8516C21.9937 63.7043 22.2233 63.5006 22.388 63.2406C22.544 62.9719 22.622 62.6686 22.622 62.3306ZM24.156 54.9427C24.156 55.4801 24.0693 55.9264 23.896 56.2817C23.714 56.6371 23.4713 56.9014 23.168 57.0747C22.856 57.2481 22.5223 57.3347 22.167 57.3347C21.7597 57.3347 21.4043 57.2307 21.101 57.0227C20.7977 56.8147 20.5593 56.5071 20.386 56.0997C20.2127 55.6837 20.126 55.1637 20.126 54.5397L20.126 52.9407C19.7967 52.9407 19.5237 52.9797 19.307 53.0577C19.0903 53.1357 18.93 53.2657 18.826 53.4477C18.722 53.6297 18.67 53.8724 18.67 54.1757C18.67 54.5051 18.7393 54.7824 18.878 55.0077C19.0167 55.2331 19.229 55.3717 19.515 55.4237L19.515 57.1267C19.047 57.0834 18.644 56.9317 18.306 56.6717C17.968 56.4117 17.708 56.0651 17.526 55.6317C17.3353 55.1984 17.24 54.7131 17.24 54.1757C17.24 53.5517 17.344 53.0187 17.552 52.5767C17.7513 52.1261 18.0503 51.7837 18.449 51.5497C18.839 51.3071 19.3157 51.1857 19.879 51.1857L24 51.1857L24 52.6547L22.999 52.8497C23.1637 52.9451 23.3197 53.0577 23.467 53.1877C23.6057 53.3177 23.727 53.4694 23.831 53.6427C23.935 53.8161 24.013 54.0111 24.065 54.2277C24.1257 54.4444 24.156 54.6827 24.156 54.9427ZM22.804 54.5267C22.804 54.3014 22.765 54.1021 22.687 53.9287C22.6003 53.7467 22.4833 53.5951 22.336 53.4737C22.1887 53.3437 22.0197 53.2397 21.829 53.1617C21.6383 53.0837 21.439 53.0317 21.231 53.0057L21.205 53.0057L21.205 54.3447C21.205 54.6047 21.2397 54.8214 21.309 54.9947C21.3697 55.1594 21.4607 55.2807 21.582 55.3587C21.7033 55.4367 21.8463 55.4757 22.011 55.4757C22.1757 55.4757 22.3187 55.4367 22.44 55.3587C22.5613 55.2807 22.6523 55.1724 22.713 55.0337C22.7737 54.8864 22.804 54.7174 22.804 54.5267ZM24 46.6093C24 47.0687 23.9307 47.4717 23.792 47.8183C23.6447 48.1563 23.4063 48.4207 23.077 48.6113C22.739 48.802 22.2797 48.8973 21.699 48.8973L18.865 48.8973L18.865 50.0283L17.396 50.0283L17.396 48.8973L15.576 48.7023L15.576 47.1423L17.396 47.1423L17.396 45.4133L18.865 45.4133L18.865 47.1423L21.725 47.1423C22.0197 47.1423 22.2233 47.0773 22.336 46.9473C22.4487 46.8173 22.505 46.5963 22.505 46.2843L22.505 45.4133L24 45.4133L24 46.6093ZM24 43.8722L17.396 43.8722L17.396 42.1172L24 42.1172L24 43.8722ZM16.512 42.9882C16.512 43.3089 16.421 43.5689 16.239 43.7682C16.0483 43.9676 15.81 44.0672 15.524 44.0672C15.238 44.0672 15.004 43.9676 14.822 43.7682C14.6313 43.5689 14.536 43.3089 14.536 42.9882C14.536 42.6676 14.6313 42.4076 14.822 42.2082C15.004 42.0002 15.238 41.8962 15.524 41.8962C15.81 41.8962 16.0483 42.0002 16.239 42.2082C16.421 42.4076 16.512 42.6676 16.512 42.9882ZM24.156 37.2371C24.156 37.8698 24.0087 38.4375 23.714 38.9401C23.4193 39.4341 23.012 39.8285 22.492 40.1231C21.972 40.4091 21.374 40.5521 20.698 40.5521C20.0133 40.5521 19.411 40.4091 18.891 40.1231C18.371 39.8285 17.968 39.4298 17.682 38.9271C17.3873 38.4245 17.24 37.8568 17.24 37.2241C17.24 36.5915 17.3873 36.0281 17.682 35.5341C17.968 35.0315 18.371 34.6371 18.891 34.3511C19.411 34.0565 20.0133 33.9091 20.698 33.9091C21.374 33.9091 21.972 34.0565 22.492 34.3511C23.012 34.6371 23.4193 35.0315 23.714 35.5341C24.0087 36.0281 24.156 36.5958 24.156 37.2371ZM22.635 37.2371C22.635 36.9425 22.5657 36.6825 22.427 36.4571C22.2797 36.2231 22.063 36.0411 21.777 35.9111C21.4823 35.7725 21.1227 35.7031 20.698 35.7031C20.2647 35.7031 19.905 35.7725 19.619 35.9111C19.333 36.0411 19.1207 36.2231 18.982 36.4571C18.8347 36.6825 18.761 36.9381 18.761 37.2241C18.761 37.5101 18.8347 37.7701 18.982 38.0041C19.1207 38.2295 19.333 38.4115 19.619 38.5501C19.905 38.6888 20.2647 38.7581 20.698 38.7581C21.1227 38.7581 21.4823 38.6931 21.777 38.5631C22.063 38.4245 22.2797 38.2425 22.427 38.0171C22.5657 37.7831 22.635 37.5231 22.635 37.2371ZM24 32.3839L17.396 32.3839L17.396 30.8499L18.449 30.7199C18.085 30.5205 17.7947 30.2389 17.578 29.8749C17.3527 29.5022 17.24 29.0602 17.24 28.5489C17.24 28.0115 17.3527 27.5565 17.578 27.1839C17.7947 26.8112 18.1197 26.5252 18.553 26.3259C18.9777 26.1265 19.4977 26.0269 20.113 26.0269L24 26.0269L24 27.7819L20.282 27.7819C19.7793 27.7819 19.3937 27.8945 19.125 28.1199C18.8563 28.3365 18.722 28.6702 18.722 29.1209C18.722 29.4069 18.787 29.6669 18.917 29.9009C19.047 30.1262 19.2377 30.3039 19.489 30.4339C19.7403 30.5639 20.048 30.6289 20.412 30.6289L24 30.6289L24 32.3839Z" fill="white"/>
<defs>
<filter id="filter0_d_384_4800" x="215.5" y="16.5" width="91" height="53" filterUnits="userSpaceOnUse" color-interpolation-filters="sRGB">
<feFlood flood-opacity="0" result="BackgroundImageFix"/>
<feColorMatrix in="SourceAlpha" type="matrix" values="0 0 0 0 0 0 0 0 0 0 0 0 0 0 0 0 0 0 127 0" result="hardAlpha"/>
<feOffset dy="2"/>
<feGaussianBlur stdDeviation="4.75"/>
<feComposite in2="hardAlpha" operator="out"/>
<feColorMatrix type="matrix" values="0 0 0 0 0.110286 0 0 0 0 0.629286 0 0 0 0 1 0 0 0 1 0"/>
<feBlend mode="normal" in2="BackgroundImageFix" result="effect1_dropShadow_384_4800"/>
<feBlend mode="normal" in="SourceGraphic" in2="effect1_dropShadow_384_4800" result="shape"/>
</filter>
<filter id="filter1_d_384_4800" x="308.5" y="16.5" width="164" height="53" filterUnits="userSpaceOnUse" color-interpolation-filters="sRGB">
<feFlood flood-opacity="0" result="BackgroundImageFix"/>
<feColorMatrix in="SourceAlpha" type="matrix" values="0 0 0 0 0 0 0 0 0 0 0 0 0 0 0 0 0 0 127 0" result="hardAlpha"/>
<feOffset dy="2"/>
<feGaussianBlur stdDeviation="4.75"/>
<feComposite in2="hardAlpha" operator="out"/>
<feColorMatrix type="matrix" values="0 0 0 0 0.110286 0 0 0 0 0.629286 0 0 0 0 1 0 0 0 1 0"/>
<feBlend mode="normal" in2="BackgroundImageFix" result="effect1_dropShadow_384_4800"/>
<feBlend mode="normal" in="SourceGraphic" in2="effect1_dropShadow_384_4800" result="shape"/>
</filter>
<linearGradient id="paint0_linear_384_4800" x1="378" y1="0" x2="378" y2="168" gradientUnits="userSpaceOnUse">
<stop stop-color="#0FDCF8"/>
<stop offset="1" stop-color="#1F0A33"/>
</linearGradient>
<linearGradient id="paint1_linear_384_4800" x1="232" y1="110" x2="232" y2="144" gradientUnits="userSpaceOnUse">
<stop stop-color="white" stop-opacity="0"/>
<stop offset="1" stop-color="white" stop-opacity="0.15"/>
</linearGradient>
<linearGradient id="paint2_linear_384_4800" x1="232" y1="110" x2="232" y2="144" gradientUnits="userSpaceOnUse">
<stop stop-color="#4E4E4E"/>
<stop offset="1" stop-color="#383737"/>
</linearGradient>
<linearGradient id="paint3_linear_384_4800" x1="390.5" y1="110" x2="390.5" y2="144" gradientUnits="userSpaceOnUse">
<stop stop-color="white" stop-opacity="0"/>
<stop offset="1" stop-color="white" stop-opacity="0.15"/>
</linearGradient>
<linearGradient id="paint4_linear_384_4800" x1="390.5" y1="110" x2="390.5" y2="144" gradientUnits="userSpaceOnUse">
<stop stop-color="#4E4E4E"/>
<stop offset="1" stop-color="#383737"/>
</linearGradient>
<linearGradient id="paint5_linear_384_4800" x1="544" y1="110" x2="544" y2="144" gradientUnits="userSpaceOnUse">
<stop stop-color="white" stop-opacity="0"/>
<stop offset="1" stop-color="white" stop-opacity="0.15"/>
</linearGradient>
<linearGradient id="paint6_linear_384_4800" x1="544" y1="110" x2="544" y2="144" gradientUnits="userSpaceOnUse">
<stop stop-color="#4E4E4E"/>
<stop offset="1" stop-color="#383737"/>
</linearGradient>
<linearGradient id="paint7_linear_384_4800" x1="261" y1="24" x2="261" y2="58" gradientUnits="userSpaceOnUse">
<stop stop-color="#E5FFFE"/>
<stop offset="1" stop-color="#99FFFC"/>
</linearGradient>
<linearGradient id="paint8_linear_384_4800" x1="390.5" y1="24" x2="390.5" y2="58" gradientUnits="userSpaceOnUse">
<stop stop-color="#E5FFFE"/>
<stop offset="1" stop-color="#99FFFC"/>
</linearGradient>
</defs>
</svg>
