<svg width="1469" height="199" viewBox="0 0 1469 199" fill="none" xmlns="http://www.w3.org/2000/svg">
<mask id="path-1-inside-1_1099_10048" fill="white">
<path fill-rule="evenodd" clip-rule="evenodd" d="M39.6395 198.803H0V86.3867C0 73.5486 2.16746 61.8777 6.50238 51.3739C10.8373 40.87 17.1313 31.8667 25.3843 24.364C33.6373 16.8612 43.7243 11.0675 55.6453 6.98262C67.6497 2.8978 81.3214 0.855392 96.6603 0.855392C111.999 0.855392 125.629 2.8978 137.55 6.98262C149.555 11.0675 159.683 16.8612 167.936 24.364C176.189 31.8667 182.483 40.87 186.818 51.3739C191.153 61.8777 193.321 73.5486 193.321 86.3867V198.803H153.681V91.1384C153.681 82.3018 152.472 74.4239 150.055 67.5047C147.637 60.6689 144.011 54.8751 139.176 50.1234C134.424 45.3717 128.464 41.7453 121.294 39.2444C114.208 36.8269 105.997 35.6181 96.6603 35.6181C87.2402 35.6181 78.9872 36.8269 71.9013 39.2444C64.8154 41.7453 58.8548 45.3717 54.0197 50.1234C49.268 54.8751 45.6834 60.6689 43.2658 67.5047C40.8483 74.4239 39.6395 82.3018 39.6395 91.1384V198.803ZM411.859 0.855469H242.797V198.8H411.859V164.163H282.437V119.474H411.859V82.1279H282.437V35.6182H411.859V0.855469ZM461.336 0.855469H565.749C578.504 0.855469 589.591 2.23097 599.011 4.98198C608.515 7.64962 616.393 11.3593 622.645 16.111C628.897 20.8628 633.524 26.5315 636.525 33.1173C639.609 39.6196 641.152 46.6639 641.152 54.25C641.152 66.6712 637.234 80.0486 629.397 89.3854C638.401 94.7207 645.111 101.64 649.53 110.143C653.948 118.646 656.157 128.316 656.157 139.154C656.157 148.24 654.615 156.452 651.53 163.788C648.529 171.124 643.903 177.418 637.65 182.669C631.481 187.838 623.645 191.839 614.142 194.674C604.722 197.425 593.593 198.8 580.755 198.8H461.336V0.855469ZM581.005 78.3814C584.423 78.3814 587.757 78.5064 591.008 78.7565C596.594 73.4212 599.386 64.8372 599.386 58.0014C599.386 50.9154 596.594 45.4551 591.008 41.6204C585.506 37.7023 577.42 35.7432 566.749 35.7432H500.975V78.3814H581.005ZM581.755 164.288C592.425 164.288 600.512 161.995 606.014 157.41C611.599 152.825 614.392 146.365 614.392 138.028C614.392 129.692 611.599 123.189 606.014 118.521C600.512 113.853 592.425 111.518 581.755 111.518H500.975V164.288H581.755ZM745.273 0.855469H705.634V113.272C705.634 126.11 707.801 137.781 712.136 148.284C716.471 158.788 722.765 167.791 731.018 175.294C739.271 182.797 749.358 188.591 761.279 192.676C773.283 196.76 786.955 198.803 802.294 198.803C817.633 198.803 831.263 196.76 843.184 192.676C855.188 188.591 865.317 182.797 873.57 175.294C881.823 167.791 888.117 158.788 892.452 148.284C896.787 137.781 898.954 126.11 898.954 113.272V0.855469H859.315V108.52C859.315 117.356 858.106 125.234 855.689 132.153C853.271 138.989 849.645 144.783 844.81 149.535C840.058 154.287 834.097 157.913 826.928 160.414C819.842 162.831 811.631 164.04 802.294 164.04C792.874 164.04 784.621 162.831 777.535 160.414C770.449 157.913 764.489 154.287 759.653 149.535C754.902 144.783 751.317 138.989 748.9 132.153C746.482 125.234 745.273 117.356 745.273 108.52V0.855469ZM948.431 0.855469H988.071V164.038H1101.74V198.8H948.431V0.855469ZM1285.01 0.855469H1242.99L1151.21 198.8H1192.98L1208.6 164.501H1321.82L1337.91 198.8H1379.55L1285.01 0.855469ZM1306.01 130.772H1223.95L1264.38 41.9955L1306.01 130.772ZM1469 1.14349H1429.02V198.523H1469V1.14349Z"/>
</mask>
<path d="M0 198.803H-3V201.803H0V198.803ZM39.6395 198.803V201.803H42.6395V198.803H39.6395ZM6.50238 51.3739L9.2755 52.5183L6.50238 51.3739ZM25.3843 24.364L23.3663 22.1442L25.3843 24.364ZM55.6453 6.98262L54.6789 4.14254L54.6729 4.14461L55.6453 6.98262ZM137.55 6.98262L136.578 9.82064L136.584 9.8227L137.55 6.98262ZM167.936 24.364L165.918 26.5838V26.5838L167.936 24.364ZM186.818 51.3739L184.045 52.5183L186.818 51.3739ZM193.321 198.803V201.803H196.321V198.803H193.321ZM153.681 198.803H150.681V201.803H153.681V198.803ZM150.055 67.5047L152.887 66.5152L152.883 66.5045L150.055 67.5047ZM139.176 50.1234L137.055 52.2447L137.064 52.2539L137.073 52.2631L139.176 50.1234ZM121.294 39.2444L122.282 36.4118L122.273 36.4084L122.263 36.4051L121.294 39.2444ZM71.9013 39.2444L70.9326 36.4051L70.9177 36.4102L70.9028 36.4154L71.9013 39.2444ZM54.0197 50.1234L51.917 47.9837L51.9076 47.9929L51.8984 48.0021L54.0197 50.1234ZM43.2658 67.5047L40.4375 66.5045L40.4337 66.5152L43.2658 67.5047ZM242.797 0.855469V-2.14453H239.797V0.855469H242.797ZM411.859 0.855469H414.859V-2.14453H411.859V0.855469ZM242.797 198.8H239.797V201.8H242.797V198.8ZM411.859 198.8V201.8H414.859V198.8H411.859ZM411.859 164.163H414.859V161.163H411.859V164.163ZM282.437 164.163H279.437V167.163H282.437V164.163ZM282.437 119.474V116.474H279.437V119.474H282.437ZM411.859 119.474V122.474H414.859V119.474H411.859ZM411.859 82.1279H414.859V79.1279H411.859V82.1279ZM282.437 82.1279H279.437V85.1279H282.437V82.1279ZM282.437 35.6182V32.6182H279.437V35.6182H282.437ZM411.859 35.6182V38.6182H414.859V35.6182H411.859ZM461.336 0.855469V-2.14453H458.336V0.855469H461.336ZM599.011 4.98198L598.17 7.86169L598.185 7.8661L598.2 7.87034L599.011 4.98198ZM622.645 16.111L624.46 13.7226V13.7226L622.645 16.111ZM636.525 33.1173L633.795 34.3613L633.805 34.3822L633.814 34.403L636.525 33.1173ZM629.397 89.3854L627.099 87.4568L624.827 90.1643L627.868 91.9663L629.397 89.3854ZM649.53 110.143L646.868 111.526H646.868L649.53 110.143ZM651.53 163.788L648.765 162.625L648.759 162.638L648.754 162.652L651.53 163.788ZM637.65 182.669L639.577 184.969L639.58 184.967L637.65 182.669ZM614.142 194.674L614.983 197.554L614.991 197.551L614.999 197.549L614.142 194.674ZM461.336 198.8H458.336V201.8H461.336V198.8ZM591.008 78.7565L590.778 81.7477L592.113 81.8503L593.081 80.9258L591.008 78.7565ZM591.008 41.6204L589.268 44.0641L589.289 44.079L589.31 44.0936L591.008 41.6204ZM500.975 35.7432V32.7432H497.975V35.7432H500.975ZM500.975 78.3814H497.975V81.3814H500.975V78.3814ZM606.014 157.41L604.11 155.091L604.102 155.098L604.093 155.106L606.014 157.41ZM606.014 118.521L604.073 120.809L604.081 120.816L604.09 120.823L606.014 118.521ZM500.975 111.518V108.518H497.975V111.518H500.975ZM500.975 164.288H497.975V167.288H500.975V164.288ZM705.634 0.855469V-2.14453H702.634V0.855469H705.634ZM745.273 0.855469H748.273V-2.14453H745.273V0.855469ZM712.136 148.284L714.909 147.14L712.136 148.284ZM761.279 192.676L760.307 195.514L760.313 195.516L761.279 192.676ZM843.184 192.676L842.218 189.835L842.212 189.838L843.184 192.676ZM873.57 175.294L871.552 173.074L873.57 175.294ZM892.452 148.284L895.225 149.429V149.429L892.452 148.284ZM898.954 0.855469H901.954V-2.14453H898.954V0.855469ZM859.315 0.855469V-2.14453H856.315V0.855469H859.315ZM855.689 132.153L858.517 133.154L858.521 133.143L855.689 132.153ZM844.81 149.535L842.707 147.395L842.697 147.404L842.688 147.413L844.81 149.535ZM826.928 160.414L827.897 163.253L827.906 163.25L827.916 163.246L826.928 160.414ZM777.535 160.414L776.537 163.243L776.551 163.248L776.566 163.253L777.535 160.414ZM759.653 149.535L757.532 151.656L757.541 151.665L757.551 151.674L759.653 149.535ZM748.9 132.153L746.067 133.143L746.071 133.154L748.9 132.153ZM988.071 0.855469H991.071V-2.14453H988.071V0.855469ZM948.431 0.855469V-2.14453H945.431V0.855469H948.431ZM988.071 164.038H985.071V167.038H988.071V164.038ZM1101.74 164.038H1104.74V161.038H1101.74V164.038ZM1101.74 198.8V201.8H1104.74V198.8H1101.74ZM948.431 198.8H945.431V201.8H948.431V198.8ZM1242.99 0.855469V-2.14453H1241.08L1240.27 -0.406473L1242.99 0.855469ZM1285.01 0.855469L1287.72 -0.437438L1286.9 -2.14453H1285.01V0.855469ZM1151.21 198.8L1148.49 197.538L1146.52 201.8H1151.21V198.8ZM1192.98 198.8V201.8H1194.91L1195.71 200.044L1192.98 198.8ZM1208.6 164.501V161.501H1206.67L1205.87 163.258L1208.6 164.501ZM1321.82 164.501L1324.54 163.227L1323.73 161.501H1321.82V164.501ZM1337.91 198.8L1335.19 200.074L1336 201.8H1337.91V198.8ZM1379.55 198.8V201.8H1384.31L1382.25 197.507L1379.55 198.8ZM1223.95 130.772L1221.22 129.528L1219.29 133.772H1223.95V130.772ZM1306.01 130.772V133.772H1310.73L1308.72 129.498L1306.01 130.772ZM1264.38 41.9955L1267.09 40.7218L1264.34 34.844L1261.65 40.7523L1264.38 41.9955ZM1429.02 1.14349V-1.85651H1426.02V1.14349H1429.02ZM1469 1.14349H1472V-1.85651H1469V1.14349ZM1429.02 198.523H1426.02V201.523H1429.02V198.523ZM1469 198.523V201.523H1472V198.523H1469ZM0 201.803H39.6395V195.803H0V201.803ZM-3 86.3867V198.803H3V86.3867H-3ZM3.72926 50.2294C-0.773677 61.1403 -3 73.2067 -3 86.3867H3C3 73.8905 5.10859 62.615 9.2755 52.5183L3.72926 50.2294ZM23.3663 22.1442C14.7789 29.9509 8.23003 39.3237 3.72925 50.2294L9.2755 52.5183C13.4446 42.4164 19.4837 33.7826 27.4023 26.5838L23.3663 22.1442ZM54.6729 4.14461C42.415 8.34488 31.9589 14.3327 23.3663 22.1442L27.4023 26.5838C35.3157 19.3898 45.0336 13.79 56.6178 9.82063L54.6729 4.14461ZM96.6603 -2.14461C81.0593 -2.14461 67.0519 -0.0677083 54.6789 4.14254L56.6118 9.8227C68.2475 5.8633 81.5834 3.85539 96.6603 3.85539V-2.14461ZM138.523 4.14461C126.229 -0.067868 112.261 -2.14461 96.6603 -2.14461V3.85539C111.738 3.85539 125.029 5.86346 136.578 9.82063L138.523 4.14461ZM169.954 22.1442C161.358 14.3294 150.857 8.34179 138.517 4.14254L136.584 9.8227C148.252 13.7931 158.009 19.3931 165.918 26.5838L169.954 22.1442ZM189.591 50.2294C185.091 39.3237 178.542 29.9509 169.954 22.1442L165.918 26.5838C173.837 33.7826 179.876 42.4164 184.045 52.5183L189.591 50.2294ZM196.321 86.3867C196.321 73.2067 194.094 61.1403 189.591 50.2294L184.045 52.5183C188.212 62.615 190.321 73.8905 190.321 86.3867H196.321ZM196.321 198.803V86.3867H190.321V198.803H196.321ZM153.681 201.803H193.321V195.803H153.681V201.803ZM150.681 91.1384V198.803H156.681V91.1384H150.681ZM147.223 68.4943C149.509 75.0376 150.681 82.5716 150.681 91.1384H156.681C156.681 82.0321 155.436 73.8102 152.887 66.5152L147.223 68.4943ZM137.073 52.2631C141.561 56.6731 144.95 62.0686 147.227 68.505L152.883 66.5045C150.324 59.2692 146.461 53.0771 141.279 47.9837L137.073 52.2631ZM120.306 42.077C127.105 44.4486 132.661 47.8516 137.055 52.2447L141.297 48.0021C136.187 42.8917 129.823 39.0421 122.282 36.4118L120.306 42.077ZM96.6603 38.6181C105.746 38.6181 113.618 39.7951 120.326 42.0837L122.263 36.4051C114.799 33.8586 106.249 32.6181 96.6603 32.6181V38.6181ZM72.87 42.0837C79.5754 39.796 87.4885 38.6181 96.6603 38.6181V32.6181C86.992 32.6181 78.399 33.8578 70.9326 36.4051L72.87 42.0837ZM56.1225 52.2631C60.6119 47.8512 66.1826 44.4441 72.8997 42.0734L70.9028 36.4154C63.4481 39.0465 57.0978 42.8922 51.917 47.9837L56.1225 52.2631ZM46.0941 68.505C48.3745 62.057 51.7301 56.6557 56.1411 52.2447L51.8984 48.0021C46.8059 53.0946 42.9922 59.2808 40.4375 66.5045L46.0941 68.505ZM42.6395 91.1384C42.6395 82.5716 43.8117 75.0376 46.0979 68.4943L40.4337 66.5152C37.8848 73.8102 36.6395 82.0321 36.6395 91.1384H42.6395ZM42.6395 198.803V91.1384H36.6395V198.803H42.6395ZM242.797 3.85547H411.859V-2.14453H242.797V3.85547ZM245.797 198.8V0.855469H239.797V198.8H245.797ZM411.859 195.8H242.797V201.8H411.859V195.8ZM408.859 164.163V198.8H414.859V164.163H408.859ZM282.437 167.163H411.859V161.163H282.437V167.163ZM279.437 119.474V164.163H285.437V119.474H279.437ZM411.859 116.474H282.437V122.474H411.859V116.474ZM408.859 82.1279V119.474H414.859V82.1279H408.859ZM282.437 85.1279H411.859V79.1279H282.437V85.1279ZM279.437 35.6182V82.1279H285.437V35.6182H279.437ZM411.859 32.6182H282.437V38.6182H411.859V32.6182ZM408.859 0.855469V35.6182H414.859V0.855469H408.859ZM565.749 -2.14453H461.336V3.85547H565.749V-2.14453ZM599.852 2.10226C590.091 -0.748262 578.708 -2.14453 565.749 -2.14453V3.85547C578.299 3.85547 589.091 5.2102 598.17 7.86169L599.852 2.10226ZM624.46 13.7226C617.841 8.69217 609.599 4.83803 599.822 2.09361L598.2 7.87034C607.43 10.4612 614.944 14.0264 620.83 18.4995L624.46 13.7226ZM639.255 31.8732C636.031 24.7985 631.073 18.7482 624.46 13.7226L620.83 18.4995C626.722 22.9774 631.017 28.2645 633.795 34.3613L639.255 31.8732ZM644.152 54.25C644.152 46.2438 642.521 38.7574 639.235 31.8315L633.814 34.403C636.698 40.4819 638.152 47.084 638.152 54.25H644.152ZM631.695 91.314C640.08 81.3235 644.152 67.2128 644.152 54.25H638.152C638.152 66.1296 634.387 78.7738 627.099 87.4568L631.695 91.314ZM652.192 108.76C647.492 99.7141 640.366 92.3981 630.927 86.8045L627.868 91.9663C636.435 97.0432 642.731 103.566 646.868 111.526L652.192 108.76ZM659.157 139.154C659.157 127.898 656.86 117.743 652.192 108.76L646.868 111.526C651.036 119.549 653.157 128.734 653.157 139.154H659.157ZM654.296 164.95C657.556 157.198 659.157 148.583 659.157 139.154H653.157C653.157 147.897 651.674 155.705 648.765 162.625L654.296 164.95ZM639.58 184.967C646.193 179.412 651.116 172.723 654.307 164.923L648.754 162.652C645.943 169.524 641.612 175.423 635.721 180.372L639.58 184.967ZM614.999 197.549C624.806 194.624 633.031 190.454 639.577 184.969L635.724 180.37C629.932 185.222 622.484 189.055 613.284 191.799L614.999 197.549ZM580.755 201.8C593.795 201.8 605.22 200.405 614.983 197.554L613.301 191.794C604.223 194.445 593.39 195.8 580.755 195.8V201.8ZM461.336 201.8H580.755V195.8H461.336V201.8ZM458.336 0.855469V198.8H464.336V0.855469H458.336ZM591.238 75.7653C587.907 75.5091 584.496 75.3814 581.005 75.3814V81.3814C584.349 81.3814 587.607 81.5037 590.778 81.7477L591.238 75.7653ZM596.386 58.0014C596.386 64.2015 593.808 71.9334 588.936 76.5872L593.081 80.9258C599.379 74.909 602.386 65.4729 602.386 58.0014H596.386ZM589.31 44.0936C594.037 47.3389 596.386 51.85 596.386 58.0014H602.386C602.386 49.9808 599.15 43.5713 592.706 39.1472L589.31 44.0936ZM566.749 38.7432C577.131 38.7432 584.492 40.6628 589.268 44.0641L592.749 39.1767C586.521 34.7418 577.709 32.7432 566.749 32.7432V38.7432ZM500.975 38.7432H566.749V32.7432H500.975V38.7432ZM503.975 78.3814V35.7432H497.975V78.3814H503.975ZM581.005 75.3814H500.975V81.3814H581.005V75.3814ZM604.093 155.106C599.34 159.067 592.056 161.288 581.755 161.288V167.288C592.795 167.288 601.684 164.924 607.934 159.715L604.093 155.106ZM611.392 138.028C611.392 145.621 608.89 151.168 604.11 155.091L607.917 159.729C614.308 154.483 617.392 147.108 617.392 138.028H611.392ZM604.09 120.823C608.89 124.835 611.392 130.436 611.392 138.028H617.392C617.392 128.947 614.309 121.544 607.938 116.219L604.09 120.823ZM581.755 114.518C592.045 114.518 599.321 116.776 604.073 120.809L607.955 116.234C601.703 110.929 592.806 108.518 581.755 108.518V114.518ZM500.975 114.518H581.755V108.518H500.975V114.518ZM503.975 164.288V111.518H497.975V164.288H503.975ZM581.755 161.288H500.975V167.288H581.755V161.288ZM705.634 3.85547H745.273V-2.14453H705.634V3.85547ZM708.634 113.272V0.855469H702.634V113.272H708.634ZM714.909 147.14C710.742 137.043 708.634 125.768 708.634 113.272H702.634C702.634 126.451 704.86 138.518 709.363 149.429L714.909 147.14ZM733.036 173.074C725.117 165.876 719.078 157.242 714.909 147.14L709.363 149.429C713.864 160.335 720.413 169.707 729 177.514L733.036 173.074ZM762.252 189.838C750.667 185.868 740.949 180.268 733.036 173.074L729 177.514C737.593 185.326 748.049 191.313 760.307 195.514L762.252 189.838ZM802.294 195.803C787.217 195.803 773.881 193.795 762.245 189.836L760.313 195.516C772.686 199.726 786.693 201.803 802.294 201.803V195.803ZM842.212 189.838C830.663 193.795 817.372 195.803 802.294 195.803V201.803C817.894 201.803 831.863 199.726 844.156 195.514L842.212 189.838ZM871.552 173.074C863.642 180.265 853.886 185.865 842.218 189.836L844.15 195.516C856.491 191.316 866.992 185.329 875.588 177.514L871.552 173.074ZM889.679 147.14C885.51 157.242 879.471 165.876 871.552 173.074L875.588 177.514C884.176 169.707 890.724 160.335 895.225 149.429L889.679 147.14ZM895.954 113.272C895.954 125.768 893.846 137.043 889.679 147.14L895.225 149.429C899.728 138.518 901.954 126.451 901.954 113.272H895.954ZM895.954 0.855469V113.272H901.954V0.855469H895.954ZM859.315 3.85547H898.954V-2.14453H859.315V3.85547ZM862.315 108.52V0.855469H856.315V108.52H862.315ZM858.521 133.143C861.07 125.848 862.315 117.626 862.315 108.52H856.315C856.315 117.087 855.143 124.621 852.857 131.164L858.521 133.143ZM846.912 151.674C852.095 146.581 855.958 140.389 858.517 133.154L852.86 131.153C850.584 137.59 847.194 142.985 842.707 147.395L846.912 151.674ZM827.916 163.246C835.456 160.616 841.821 156.766 846.931 151.656L842.688 147.413C838.295 151.807 832.738 155.21 825.94 157.581L827.916 163.246ZM802.294 167.04C811.882 167.04 820.433 165.8 827.897 163.253L825.959 157.574C819.251 159.863 811.379 161.04 802.294 161.04V167.04ZM776.566 163.253C784.033 165.8 792.626 167.04 802.294 167.04V161.04C793.122 161.04 785.209 159.862 778.504 157.574L776.566 163.253ZM757.551 151.674C762.732 156.766 769.082 160.612 776.537 163.243L778.534 157.585C771.816 155.214 766.246 151.807 761.756 147.395L757.551 151.674ZM746.071 133.154C748.626 140.377 752.44 146.564 757.532 151.656L761.775 147.413C757.364 143.003 754.008 137.601 751.728 131.153L746.071 133.154ZM742.273 108.52C742.273 117.626 743.519 125.848 746.067 133.143L751.732 131.164C749.445 124.621 748.273 117.087 748.273 108.52H742.273ZM742.273 0.855469V108.52H748.273V0.855469H742.273ZM988.071 -2.14453H948.431V3.85547H988.071V-2.14453ZM991.071 164.038V0.855469H985.071V164.038H991.071ZM1101.74 161.038H988.071V167.038H1101.74V161.038ZM1104.74 198.8V164.038H1098.74V198.8H1104.74ZM948.431 201.8H1101.74V195.8H948.431V201.8ZM945.431 0.855469V198.8H951.431V0.855469H945.431ZM1242.99 3.85547H1285.01V-2.14453H1242.99V3.85547ZM1153.94 200.062L1245.72 2.11741L1240.27 -0.406473L1148.49 197.538L1153.94 200.062ZM1192.98 195.8H1151.21V201.8H1192.98V195.8ZM1205.87 163.258L1190.25 197.557L1195.71 200.044L1211.33 165.744L1205.87 163.258ZM1321.82 161.501H1208.6V167.501H1321.82V161.501ZM1340.62 197.527L1324.54 163.227L1319.11 165.775L1335.19 200.074L1340.62 197.527ZM1379.55 195.8H1337.91V201.8H1379.55V195.8ZM1282.3 2.14838L1376.84 200.093L1382.25 197.507L1287.72 -0.437438L1282.3 2.14838ZM1223.95 133.772H1306.01V127.772H1223.95V133.772ZM1261.65 40.7523L1221.22 129.528L1226.69 132.015L1267.11 43.2387L1261.65 40.7523ZM1308.72 129.498L1267.09 40.7218L1261.66 43.2692L1303.29 132.045L1308.72 129.498ZM1429.02 4.14349H1469V-1.85651H1429.02V4.14349ZM1432.02 198.523V1.14349H1426.02V198.523H1432.02ZM1469 195.523H1429.02V201.523H1469V195.523ZM1466 1.14349V198.523H1472V1.14349H1466Z" fill="url(#paint0_linear_1099_10048)" mask="url(#path-1-inside-1_1099_10048)"/>
<defs>
<linearGradient id="paint0_linear_1099_10048" x1="823" y1="234" x2="1320.5" y2="-113.5" gradientUnits="userSpaceOnUse">
<stop stop-color="#59E6FF"/>
<stop offset="0.982813" stop-color="#6485FA"/>
</linearGradient>
</defs>
</svg>
