<svg width="34" height="34" viewBox="0 0 34 34" fill="none" xmlns="http://www.w3.org/2000/svg">
<g clip-path="url(#clip0_384_4848)">
<path d="M30.2646 12.335C30.0887 12.2951 29.9459 12.1723 29.8828 12.0063C28.4816 8.39375 25.6063 5.51836 21.9938 4.11719C21.8277 4.05078 21.7049 3.90801 21.665 3.73535C21.1902 1.59707 19.2811 0 17 0C14.7189 0 12.8098 1.59707 12.3316 3.73535C12.2918 3.91133 12.1689 4.05078 12.0029 4.11719C8.39375 5.51836 5.51836 8.39375 4.11719 12.0063C4.0541 12.1723 3.90801 12.2951 3.73535 12.335C1.59707 12.8098 0 14.7189 0 17C0 19.3807 1.73984 21.3529 4.01426 21.7215C5.37559 25.4602 8.3041 28.4451 12.0063 29.8828C12.1723 29.9492 12.2951 30.092 12.335 30.2646C12.8098 32.4029 14.7189 34 17 34C19.2811 34 21.1902 32.4029 21.6684 30.2646C21.7082 30.0887 21.8311 29.9492 21.9971 29.8828C25.6063 28.4816 28.4816 25.6063 29.8828 21.9938C29.9459 21.8277 30.092 21.7049 30.2646 21.665C32.4029 21.1902 34 19.2811 34 17C34 14.7189 32.4029 12.8098 30.2646 12.335ZM27.2631 21.3629C27.5387 21.4857 27.6615 21.8078 27.5287 22.0801C26.9609 23.2588 26.2006 24.3279 25.2643 25.2643C24.3279 26.2006 23.2588 26.9609 22.0801 27.5287C21.8078 27.6582 21.4857 27.5354 21.3629 27.2631C20.6158 25.5963 18.9424 24.4375 17 24.4375C15.0576 24.4375 13.3842 25.5963 12.6371 27.2631C12.5143 27.5387 12.1922 27.6615 11.9199 27.5287C10.7412 26.9576 9.67207 26.2006 8.73574 25.2643C7.66328 24.1918 6.82324 22.9434 6.23223 21.5555C8.16465 20.9412 9.5625 19.135 9.5625 17C9.5625 15.0576 8.40371 13.3842 6.73691 12.6371C6.46133 12.5143 6.33848 12.1922 6.47129 11.9199C7.04238 10.7412 7.79941 9.67207 8.73574 8.73574C9.67207 7.79941 10.7412 7.03906 11.9199 6.47129C12.1922 6.3418 12.5143 6.46465 12.6371 6.73691C13.3842 8.40371 15.0576 9.5625 17 9.5625C18.9424 9.5625 20.6158 8.40371 21.3629 6.73691C21.4857 6.46133 21.8078 6.33848 22.0801 6.47129C23.2588 7.03906 24.3279 7.79941 25.2643 8.73574C26.2006 9.67207 26.9609 10.7412 27.5287 11.9199C27.6582 12.1922 27.5354 12.5143 27.2631 12.6371C25.5963 13.3842 24.4375 15.0576 24.4375 17C24.4375 18.9424 25.5963 20.6158 27.2631 21.3629Z" fill="white"/>
</g>
<defs>
<clipPath id="clip0_384_4848">
<rect width="34" height="34" fill="white"/>
</clipPath>
</defs>
</svg>
