<svg width="315" height="168" viewBox="0 0 315 168" fill="none" xmlns="http://www.w3.org/2000/svg">
<path d="M310 167V168H308V167H310ZM161 116L166.773 126H155.227L161 116ZM310 154.655V167H308V154.655H310ZM176 138.655H294V140.655H176V138.655ZM162 124.655C162 132.387 168.268 138.655 176 138.655V140.655C167.163 140.655 160 133.491 160 124.655H162ZM308 154.655C308 146.923 301.732 140.655 294 140.655V138.655C302.837 138.655 310 145.818 310 154.655H308Z" fill="#27E6FF"/>
<path d="M5 167V168H7V167H5ZM161 116L155.227 126H166.773L161 116ZM5 154.655V167H7V154.655H5ZM146 138.655H21V140.655H146V138.655ZM160 124.655C160 132.387 153.732 138.655 146 138.655V140.655C154.837 140.655 162 133.491 162 124.655H160ZM7 154.655C7 146.923 13.268 140.655 21 140.655V138.655C12.1634 138.655 5 145.818 5 154.655H7Z" fill="#27E6FF"/>
<path d="M6 0L0.226497 10H11.7735L6 0ZM7 27.5V9H5V27.5H7ZM162 82V57.5H160V82H162ZM146 41.5H59.2116V43.5H146V41.5ZM59.2116 41.5H21V43.5H59.2116V41.5ZM162 57.5C162 48.6634 154.837 41.5 146 41.5V43.5C153.732 43.5 160 49.768 160 57.5H162ZM5 27.5C5 36.3366 12.1634 43.5 21 43.5V41.5C13.268 41.5 7 35.232 7 27.5H5Z" fill="#27E6FF"/>
<path d="M6 0L0.226497 10H11.7735L6 0ZM7 27.7576V9H5V27.7576H7ZM40 82V57.7576H38V82H40ZM24 41.7576H21V43.7576H24V41.7576ZM40 57.7576C40 48.921 32.8366 41.7576 24 41.7576V43.7576C31.732 43.7576 38 50.0256 38 57.7576H40ZM5 27.7576C5 36.5941 12.1634 43.7576 21 43.7576V41.7576C13.268 41.7576 7 35.4896 7 27.7576H5Z" fill="#27E6FF"/>
<path d="M103 0L97.3435 10.0667L108.89 9.93198L103 0ZM104.323 27.6633L104.105 8.98772L102.105 9.01105L102.323 27.6866L104.323 27.6633ZM162 82V57.5H160V82H162ZM146 41.5H118.322V43.5H146V41.5ZM162 57.5C162 48.6634 154.837 41.5 146 41.5V43.5C153.732 43.5 160 49.768 160 57.5H162ZM102.323 27.6866C102.425 36.4498 109.558 43.5 118.322 43.5V41.5C110.653 41.5 104.412 35.3311 104.323 27.6633L102.323 27.6866Z" fill="#27E6FF"/>
<path d="M309 0L314.774 10H303.226L309 0ZM308 28V9H310V28H308ZM160.5 82V58H162.5V82H160.5ZM176.5 42H294V44H176.5V42ZM160.5 58C160.5 49.1634 167.663 42 176.5 42V44C168.768 44 162.5 50.268 162.5 58H160.5ZM310 28C310 36.8366 302.837 44 294 44V42C301.732 42 308 35.732 308 28H310Z" fill="#27E6FF"/>
<path d="M206 0L200.226 10H211.774L206 0ZM190.832 43.0942L190.821 44.0942L190.832 43.0942ZM207 28.0952V9H205V28.0952H207ZM162 82V57.9294H160V82H162ZM176.157 43.9302L190.821 44.0942L190.844 42.0943L176.179 41.9304L176.157 43.9302ZM162 57.9294C162 50.1362 168.364 43.8431 176.157 43.9302L176.179 41.9304C167.273 41.8308 160 49.0229 160 57.9294H162ZM205 28.0952C205 35.8884 198.636 42.1814 190.844 42.0943L190.821 44.0942C199.727 44.1937 207 37.0017 207 28.0952H205Z" fill="#27E6FF"/>
<path d="M161 116L166.774 126H155.226L161 116ZM162 167V168H160V167H162ZM162 125V167H160V125H162Z" fill="#27E6FF"/>
</svg>
