<svg width="344" height="168" viewBox="0 0 344 168" fill="none" xmlns="http://www.w3.org/2000/svg">
<path d="M221 82L215.226 72H226.774L221 82ZM222 53.9574V73H220V53.9574H222ZM177 0V23.9289H175V0H177ZM194.768 41.6967H209.739V43.6967H194.768V41.6967ZM177 23.9289C177 33.7418 184.955 41.6967 194.768 41.6967V43.6967C183.85 43.6967 175 34.8464 175 23.9289H177ZM220 53.9574C220 48.2906 215.406 43.6967 209.739 43.6967V41.6967C216.511 41.6967 222 47.186 222 53.9574H220Z" fill="#27E6FF"/>
<path d="M130 82L135.774 72H124.226L130 82ZM129 53.9574V73H131V53.9574H129ZM175 0V23.9289H177V0H175ZM157.232 41.6967H141.261V43.6967H157.232V41.6967ZM175 23.9289C175 33.7418 167.045 41.6967 157.232 41.6967V43.6967C168.15 43.6967 177 34.8464 177 23.9289H175ZM131 53.9574C131 48.2906 135.594 43.6967 141.261 43.6967V41.6967C134.489 41.6967 129 47.186 129 53.9574H131Z" fill="#27E6FF"/>
<path d="M176 168L181.773 158L170.226 158L176 168ZM175 -4.37114e-08L175 159L177 159L177 4.37114e-08L175 -4.37114e-08Z" fill="#27E6FF"/>
<path d="M338 82L343.773 72L332.226 72L338 82ZM337 -4.37114e-08L337 73L339 73L339 4.37114e-08L337 -4.37114e-08Z" fill="#27E6FF"/>
<path d="M6 82L0.226497 72L11.7735 72L6 82ZM7 -4.37116e-08L7 73L5 73L5 4.37113e-08L7 -4.37116e-08Z" fill="#27E6FF"/>
<path d="M338 168L343.774 158L332.226 158L338 168ZM337 116L337 159L339 159L339 116L337 116Z" fill="#27E6FF"/>
<path d="M281 99L271 93.2265L271 104.774L281 99ZM262 100L272 100L272 98L262 98L262 100Z" fill="#27E6FF"/>
</svg>
