<svg width="757" height="254" viewBox="0 0 757 254" fill="none" xmlns="http://www.w3.org/2000/svg">
<rect width="757" height="254" rx="16" fill="url(#paint0_linear_647_14767)"/>
<rect x="38.5" y="0.5" width="718" height="253" rx="15.5" fill="#101313" stroke="#303F41"/>
<rect x="349.5" y="24.5" width="70" height="33" rx="5.5" fill="url(#paint1_linear_647_14767)"/>
<rect x="349.5" y="24.5" width="70" height="33" rx="5.5" stroke="url(#paint2_linear_647_14767)"/>
<path d="M370.894 46.168C370.222 46.168 369.611 46.0327 369.06 45.762C368.519 45.4913 368.085 45.0807 367.758 44.53C367.432 43.97 367.268 43.256 367.268 42.388V36.2H368.444V42.402C368.444 43.0367 368.547 43.5547 368.752 43.956C368.967 44.3573 369.261 44.6513 369.634 44.838C370.008 45.0247 370.437 45.118 370.922 45.118C371.417 45.118 371.846 45.0247 372.21 44.838C372.574 44.6513 372.859 44.3573 373.064 43.956C373.27 43.5547 373.372 43.0367 373.372 42.402V36.2H374.548V42.388C374.548 43.256 374.385 43.97 374.058 44.53C373.732 45.0807 373.293 45.4913 372.742 45.762C372.192 46.0327 371.576 46.168 370.894 46.168ZM379.13 46.168C378.542 46.168 378.029 46.07 377.59 45.874C377.161 45.678 376.816 45.4073 376.554 45.062C376.302 44.7073 376.148 44.292 376.092 43.816H377.296C377.343 44.0587 377.441 44.2827 377.59 44.488C377.74 44.6933 377.94 44.8613 378.192 44.992C378.454 45.1133 378.771 45.174 379.144 45.174C379.471 45.174 379.742 45.1273 379.956 45.034C380.171 44.9313 380.33 44.796 380.432 44.628C380.544 44.46 380.6 44.278 380.6 44.082C380.6 43.7927 380.53 43.5733 380.39 43.424C380.26 43.2747 380.064 43.158 379.802 43.074C379.541 42.9807 379.224 42.9013 378.85 42.836C378.542 42.78 378.239 42.7053 377.94 42.612C377.642 42.5187 377.376 42.3973 377.142 42.248C376.909 42.0893 376.722 41.898 376.582 41.674C376.452 41.45 376.386 41.1747 376.386 40.848C376.386 40.4467 376.489 40.092 376.694 39.784C376.9 39.4667 377.194 39.2193 377.576 39.042C377.968 38.8647 378.421 38.776 378.934 38.776C379.69 38.776 380.302 38.958 380.768 39.322C381.235 39.686 381.51 40.2133 381.594 40.904H380.432C380.386 40.5493 380.232 40.274 379.97 40.078C379.718 39.8727 379.368 39.77 378.92 39.77C378.482 39.77 378.146 39.8587 377.912 40.036C377.688 40.2133 377.576 40.4467 377.576 40.736C377.576 40.9227 377.637 41.0907 377.758 41.24C377.889 41.38 378.076 41.5013 378.318 41.604C378.57 41.7067 378.878 41.7907 379.242 41.856C379.709 41.94 380.134 42.052 380.516 42.192C380.899 42.332 381.207 42.542 381.44 42.822C381.683 43.0927 381.804 43.48 381.804 43.984C381.804 44.4227 381.692 44.8053 381.468 45.132C381.254 45.4587 380.946 45.7153 380.544 45.902C380.143 46.0793 379.672 46.168 379.13 46.168ZM386.592 46.168C385.929 46.168 385.341 46.014 384.828 45.706C384.324 45.398 383.927 44.9687 383.638 44.418C383.348 43.858 383.204 43.2093 383.204 42.472C383.204 41.7253 383.344 41.0767 383.624 40.526C383.913 39.9753 384.314 39.546 384.828 39.238C385.35 38.93 385.948 38.776 386.62 38.776C387.31 38.776 387.894 38.93 388.37 39.238C388.855 39.546 389.224 39.952 389.476 40.456C389.737 40.9507 389.868 41.4967 389.868 42.094C389.868 42.1873 389.868 42.2853 389.868 42.388C389.868 42.4907 389.863 42.6073 389.854 42.738H384.086V41.828H388.72C388.692 41.184 388.477 40.68 388.076 40.316C387.684 39.952 387.189 39.77 386.592 39.77C386.19 39.77 385.817 39.8633 385.472 40.05C385.136 40.2273 384.865 40.4933 384.66 40.848C384.454 41.1933 384.352 41.6273 384.352 42.15V42.542C384.352 43.1207 384.454 43.606 384.66 43.998C384.874 44.39 385.15 44.684 385.486 44.88C385.831 45.076 386.2 45.174 386.592 45.174C387.086 45.174 387.492 45.0667 387.81 44.852C388.136 44.628 388.37 44.3293 388.51 43.956H389.672C389.56 44.376 389.364 44.754 389.084 45.09C388.804 45.426 388.454 45.692 388.034 45.888C387.623 46.0747 387.142 46.168 386.592 46.168ZM391.455 46V38.944H392.519L392.603 40.288C392.761 39.9707 392.962 39.7 393.205 39.476C393.457 39.252 393.755 39.0793 394.101 38.958C394.455 38.8367 394.857 38.776 395.305 38.776V40.008H394.871C394.572 40.008 394.287 40.05 394.017 40.134C393.746 40.2087 393.503 40.3347 393.289 40.512C393.083 40.6893 392.92 40.932 392.799 41.24C392.687 41.5387 392.631 41.912 392.631 42.36V46H391.455ZM399.296 46.168C398.708 46.168 398.195 46.07 397.756 45.874C397.327 45.678 396.982 45.4073 396.72 45.062C396.468 44.7073 396.314 44.292 396.258 43.816H397.462C397.509 44.0587 397.607 44.2827 397.756 44.488C397.906 44.6933 398.106 44.8613 398.358 44.992C398.62 45.1133 398.937 45.174 399.31 45.174C399.637 45.174 399.908 45.1273 400.122 45.034C400.337 44.9313 400.496 44.796 400.598 44.628C400.71 44.46 400.766 44.278 400.766 44.082C400.766 43.7927 400.696 43.5733 400.556 43.424C400.426 43.2747 400.23 43.158 399.968 43.074C399.707 42.9807 399.39 42.9013 399.016 42.836C398.708 42.78 398.405 42.7053 398.106 42.612C397.808 42.5187 397.542 42.3973 397.308 42.248C397.075 42.0893 396.888 41.898 396.748 41.674C396.618 41.45 396.552 41.1747 396.552 40.848C396.552 40.4467 396.655 40.092 396.86 39.784C397.066 39.4667 397.36 39.2193 397.742 39.042C398.134 38.8647 398.587 38.776 399.1 38.776C399.856 38.776 400.468 38.958 400.934 39.322C401.401 39.686 401.676 40.2133 401.76 40.904H400.598C400.552 40.5493 400.398 40.274 400.136 40.078C399.884 39.8727 399.534 39.77 399.086 39.77C398.648 39.77 398.312 39.8587 398.078 40.036C397.854 40.2133 397.742 40.4467 397.742 40.736C397.742 40.9227 397.803 41.0907 397.924 41.24C398.055 41.38 398.242 41.5013 398.484 41.604C398.736 41.7067 399.044 41.7907 399.408 41.856C399.875 41.94 400.3 42.052 400.682 42.192C401.065 42.332 401.373 42.542 401.606 42.822C401.849 43.0927 401.97 43.48 401.97 43.984C401.97 44.4227 401.858 44.8053 401.634 45.132C401.42 45.4587 401.112 45.7153 400.71 45.902C400.309 46.0793 399.838 46.168 399.296 46.168Z" fill="white" fill-opacity="0.8"/>
<rect x="345.5" y="110.5" width="79" height="33" rx="5.5" fill="url(#paint3_linear_647_14767)"/>
<rect x="345.5" y="110.5" width="79" height="33" rx="5.5" stroke="url(#paint4_linear_647_14767)"/>
<path d="M365.2 132L362.512 122.2H363.772L365.886 130.6L368.28 122.2H369.596L371.934 130.628L374.076 122.2H375.336L372.592 132H371.248L368.91 123.894L366.516 132H365.2ZM379.046 132.168C378.383 132.168 377.795 132.014 377.282 131.706C376.778 131.398 376.381 130.969 376.092 130.418C375.802 129.858 375.658 129.209 375.658 128.472C375.658 127.725 375.798 127.077 376.078 126.526C376.367 125.975 376.768 125.546 377.282 125.238C377.804 124.93 378.402 124.776 379.074 124.776C379.764 124.776 380.348 124.93 380.824 125.238C381.309 125.546 381.678 125.952 381.93 126.456C382.191 126.951 382.322 127.497 382.322 128.094C382.322 128.187 382.322 128.285 382.322 128.388C382.322 128.491 382.317 128.607 382.308 128.738H376.54V127.828H381.174C381.146 127.184 380.931 126.68 380.53 126.316C380.138 125.952 379.643 125.77 379.046 125.77C378.644 125.77 378.271 125.863 377.926 126.05C377.59 126.227 377.319 126.493 377.114 126.848C376.908 127.193 376.806 127.627 376.806 128.15V128.542C376.806 129.121 376.908 129.606 377.114 129.998C377.328 130.39 377.604 130.684 377.94 130.88C378.285 131.076 378.654 131.174 379.046 131.174C379.54 131.174 379.946 131.067 380.264 130.852C380.59 130.628 380.824 130.329 380.964 129.956H382.126C382.014 130.376 381.818 130.754 381.538 131.09C381.258 131.426 380.908 131.692 380.488 131.888C380.077 132.075 379.596 132.168 379.046 132.168ZM387.605 132.168C387.203 132.168 386.839 132.112 386.513 132C386.195 131.879 385.915 131.72 385.673 131.524C385.43 131.328 385.229 131.099 385.071 130.838L384.973 132H383.909V121.92H385.085V126.106C385.309 125.742 385.631 125.429 386.051 125.168C386.471 124.907 386.989 124.776 387.605 124.776C388.286 124.776 388.883 124.939 389.397 125.266C389.91 125.583 390.307 126.022 390.587 126.582C390.876 127.133 391.021 127.763 391.021 128.472C391.021 129.181 390.876 129.816 390.587 130.376C390.307 130.936 389.91 131.375 389.397 131.692C388.883 132.009 388.286 132.168 387.605 132.168ZM387.465 131.146C387.922 131.146 388.328 131.034 388.683 130.81C389.037 130.586 389.313 130.278 389.509 129.886C389.714 129.485 389.817 129.013 389.817 128.472C389.817 127.94 389.714 127.473 389.509 127.072C389.313 126.671 389.037 126.358 388.683 126.134C388.328 125.91 387.922 125.798 387.465 125.798C386.998 125.798 386.587 125.91 386.233 126.134C385.878 126.358 385.603 126.671 385.407 127.072C385.211 127.473 385.113 127.94 385.113 128.472C385.113 129.013 385.211 129.485 385.407 129.886C385.603 130.278 385.878 130.586 386.233 130.81C386.587 131.034 386.998 131.146 387.465 131.146ZM399.989 132.168C399.317 132.168 398.706 132.033 398.155 131.762C397.614 131.491 397.18 131.081 396.853 130.53C396.526 129.97 396.363 129.256 396.363 128.388V122.2H397.539V128.402C397.539 129.037 397.642 129.555 397.847 129.956C398.062 130.357 398.356 130.651 398.729 130.838C399.102 131.025 399.532 131.118 400.017 131.118C400.512 131.118 400.941 131.025 401.305 130.838C401.669 130.651 401.954 130.357 402.159 129.956C402.364 129.555 402.467 129.037 402.467 128.402V122.2H403.643V128.388C403.643 129.256 403.48 129.97 403.153 130.53C402.826 131.081 402.388 131.491 401.837 131.762C401.286 132.033 400.67 132.168 399.989 132.168ZM405.635 132V122.2H406.811V132H405.635Z" fill="white" fill-opacity="0.8"/>
<g filter="url(#filter0_d_647_14767)">
<rect x="64" y="196" width="131" height="34" rx="6" fill="url(#paint5_linear_647_14767)" shape-rendering="crispEdges"/>
<path d="M76.9239 218L80.5359 208.2H81.7819L85.3799 218H84.1339L81.1519 209.67L78.1559 218H76.9239ZM78.5759 215.48L78.9119 214.528H83.3499L83.6859 215.48H78.5759ZM89.5668 221.248C88.9321 221.248 88.3674 221.164 87.8728 220.996C87.3874 220.837 87.0094 220.59 86.7388 220.254C86.4681 219.918 86.3328 219.503 86.3328 219.008C86.3328 218.793 86.3748 218.565 86.4588 218.322C86.5521 218.079 86.7061 217.841 86.9208 217.608C87.1448 217.375 87.4574 217.165 87.8588 216.978L88.6708 217.454C88.1761 217.659 87.8541 217.893 87.7048 218.154C87.5554 218.425 87.4808 218.672 87.4808 218.896C87.4808 219.204 87.5694 219.461 87.7468 219.666C87.9241 219.871 88.1714 220.025 88.4888 220.128C88.8061 220.231 89.1654 220.282 89.5668 220.282C89.9681 220.282 90.3134 220.226 90.6028 220.114C90.8921 220.002 91.1161 219.843 91.2748 219.638C91.4334 219.433 91.5128 219.19 91.5128 218.91C91.5128 218.583 91.3914 218.308 91.1488 218.084C90.9061 217.869 90.4441 217.743 89.7628 217.706C89.2121 217.669 88.7501 217.617 88.3768 217.552C88.0034 217.487 87.6954 217.412 87.4528 217.328C87.2101 217.235 87.0048 217.132 86.8368 217.02C86.6781 216.908 86.5334 216.791 86.4028 216.67V216.348L87.7608 215.004L88.7828 215.368L87.3828 216.628L87.5648 216.138C87.6674 216.213 87.7654 216.283 87.8588 216.348C87.9521 216.413 88.0781 216.469 88.2368 216.516C88.3954 216.563 88.6148 216.605 88.8948 216.642C89.1841 216.679 89.5621 216.717 90.0288 216.754C90.6728 216.801 91.1861 216.913 91.5688 217.09C91.9608 217.267 92.2408 217.505 92.4088 217.804C92.5861 218.103 92.6748 218.457 92.6748 218.868C92.6748 219.269 92.5628 219.647 92.3388 220.002C92.1241 220.366 91.7881 220.665 91.3308 220.898C90.8734 221.131 90.2854 221.248 89.5668 221.248ZM89.5528 215.788C88.9648 215.788 88.4608 215.676 88.0408 215.452C87.6301 215.228 87.3174 214.929 87.1028 214.556C86.8881 214.173 86.7808 213.749 86.7808 213.282C86.7808 212.815 86.8881 212.395 87.1028 212.022C87.3268 211.649 87.6441 211.35 88.0548 211.126C88.4654 210.893 88.9648 210.776 89.5528 210.776C90.1408 210.776 90.6401 210.893 91.0508 211.126C91.4614 211.35 91.7741 211.649 91.9888 212.022C92.2034 212.395 92.3108 212.815 92.3108 213.282C92.3108 213.749 92.2034 214.173 91.9888 214.556C91.7741 214.929 91.4614 215.228 91.0508 215.452C90.6401 215.676 90.1408 215.788 89.5528 215.788ZM89.5528 214.822C90.0568 214.822 90.4534 214.691 90.7428 214.43C91.0321 214.169 91.1768 213.786 91.1768 213.282C91.1768 212.787 91.0321 212.409 90.7428 212.148C90.4534 211.887 90.0568 211.756 89.5528 211.756C89.0581 211.756 88.6568 211.887 88.3488 212.148C88.0501 212.409 87.9008 212.787 87.9008 213.282C87.9008 213.786 88.0501 214.169 88.3488 214.43C88.6474 214.691 89.0488 214.822 89.5528 214.822ZM90.7008 211.938L90.3508 210.944H93.2348V211.826L90.7008 211.938ZM97.408 218.168C96.7453 218.168 96.1573 218.014 95.644 217.706C95.14 217.398 94.7433 216.969 94.454 216.418C94.1647 215.858 94.02 215.209 94.02 214.472C94.02 213.725 94.16 213.077 94.44 212.526C94.7293 211.975 95.1307 211.546 95.644 211.238C96.1667 210.93 96.764 210.776 97.436 210.776C98.1267 210.776 98.71 210.93 99.186 211.238C99.6713 211.546 100.04 211.952 100.292 212.456C100.553 212.951 100.684 213.497 100.684 214.094C100.684 214.187 100.684 214.285 100.684 214.388C100.684 214.491 100.679 214.607 100.67 214.738H94.902V213.828H99.536C99.508 213.184 99.2933 212.68 98.892 212.316C98.5 211.952 98.0053 211.77 97.408 211.77C97.0067 211.77 96.6333 211.863 96.288 212.05C95.952 212.227 95.6813 212.493 95.476 212.848C95.2707 213.193 95.168 213.627 95.168 214.15V214.542C95.168 215.121 95.2707 215.606 95.476 215.998C95.6907 216.39 95.966 216.684 96.302 216.88C96.6473 217.076 97.016 217.174 97.408 217.174C97.9027 217.174 98.3087 217.067 98.626 216.852C98.9527 216.628 99.186 216.329 99.326 215.956H100.488C100.376 216.376 100.18 216.754 99.9 217.09C99.62 217.426 99.27 217.692 98.85 217.888C98.4393 218.075 97.9587 218.168 97.408 218.168ZM102.271 218V210.944H103.335L103.391 212.176C103.615 211.737 103.932 211.397 104.343 211.154C104.763 210.902 105.239 210.776 105.771 210.776C106.322 210.776 106.798 210.888 107.199 211.112C107.6 211.327 107.913 211.658 108.137 212.106C108.361 212.545 108.473 213.105 108.473 213.786V218H107.297V213.912C107.297 213.203 107.138 212.671 106.821 212.316C106.513 211.961 106.074 211.784 105.505 211.784C105.113 211.784 104.763 211.882 104.455 212.078C104.147 212.265 103.9 212.54 103.713 212.904C103.536 213.259 103.447 213.702 103.447 214.234V218H102.271ZM113.082 218C112.662 218 112.298 217.935 111.99 217.804C111.682 217.673 111.444 217.454 111.276 217.146C111.117 216.829 111.038 216.404 111.038 215.872V211.938H109.806V210.944H111.038L111.192 209.236H112.214V210.944H114.258V211.938H112.214V215.872C112.214 216.311 112.303 216.609 112.48 216.768C112.657 216.917 112.97 216.992 113.418 216.992H114.174V218H113.082ZM122.703 218.168C121.985 218.168 121.359 218.037 120.827 217.776C120.295 217.515 119.885 217.151 119.595 216.684C119.306 216.217 119.161 215.676 119.161 215.06H120.393C120.393 215.443 120.482 215.797 120.659 216.124C120.837 216.441 121.093 216.698 121.429 216.894C121.775 217.081 122.199 217.174 122.703 217.174C123.142 217.174 123.515 217.104 123.823 216.964C124.141 216.815 124.379 216.614 124.537 216.362C124.705 216.11 124.789 215.825 124.789 215.508C124.789 215.125 124.705 214.817 124.537 214.584C124.379 214.341 124.159 214.145 123.879 213.996C123.599 213.847 123.273 213.716 122.899 213.604C122.535 213.483 122.153 213.357 121.751 213.226C120.977 212.965 120.407 212.638 120.043 212.246C119.679 211.854 119.497 211.345 119.497 210.72C119.497 210.188 119.619 209.721 119.861 209.32C120.113 208.919 120.468 208.606 120.925 208.382C121.392 208.149 121.943 208.032 122.577 208.032C123.203 208.032 123.744 208.149 124.201 208.382C124.668 208.615 125.032 208.937 125.293 209.348C125.555 209.749 125.685 210.216 125.685 210.748H124.453C124.453 210.477 124.383 210.211 124.243 209.95C124.103 209.689 123.889 209.474 123.599 209.306C123.319 209.129 122.965 209.04 122.535 209.04C122.181 209.031 121.863 209.091 121.583 209.222C121.313 209.343 121.098 209.521 120.939 209.754C120.79 209.987 120.715 210.272 120.715 210.608C120.715 210.925 120.781 211.182 120.911 211.378C121.051 211.574 121.247 211.742 121.499 211.882C121.761 212.013 122.064 212.134 122.409 212.246C122.755 212.358 123.137 212.484 123.557 212.624C124.033 212.783 124.453 212.979 124.817 213.212C125.191 213.436 125.48 213.725 125.685 214.08C125.9 214.435 126.007 214.887 126.007 215.438C126.007 215.905 125.881 216.348 125.629 216.768C125.387 217.179 125.023 217.515 124.537 217.776C124.052 218.037 123.441 218.168 122.703 218.168ZM127.632 221.08V210.944H128.696L128.794 212.092C128.944 211.868 129.135 211.658 129.368 211.462C129.602 211.257 129.882 211.093 130.208 210.972C130.535 210.841 130.908 210.776 131.328 210.776C132.019 210.776 132.616 210.939 133.12 211.266C133.634 211.593 134.03 212.036 134.31 212.596C134.6 213.147 134.744 213.777 134.744 214.486C134.744 215.195 134.6 215.83 134.31 216.39C134.03 216.941 133.634 217.375 133.12 217.692C132.607 218.009 132.005 218.168 131.314 218.168C130.745 218.168 130.241 218.051 129.802 217.818C129.373 217.585 129.042 217.258 128.808 216.838V221.08H127.632ZM131.188 217.146C131.646 217.146 132.052 217.034 132.406 216.81C132.761 216.586 133.036 216.278 133.232 215.886C133.438 215.485 133.54 215.013 133.54 214.472C133.54 213.94 133.438 213.473 133.232 213.072C133.036 212.671 132.761 212.358 132.406 212.134C132.052 211.91 131.646 211.798 131.188 211.798C130.722 211.798 130.311 211.91 129.956 212.134C129.602 212.358 129.326 212.671 129.13 213.072C128.934 213.473 128.836 213.94 128.836 214.472C128.836 215.013 128.934 215.485 129.13 215.886C129.326 216.278 129.602 216.586 129.956 216.81C130.311 217.034 130.722 217.146 131.188 217.146ZM138.692 218.168C138.123 218.168 137.647 218.07 137.264 217.874C136.881 217.669 136.597 217.403 136.41 217.076C136.223 216.74 136.13 216.376 136.13 215.984C136.13 215.508 136.251 215.107 136.494 214.78C136.746 214.444 137.096 214.192 137.544 214.024C138.001 213.847 138.538 213.758 139.154 213.758H141.016C141.016 213.319 140.946 212.955 140.806 212.666C140.675 212.367 140.479 212.143 140.218 211.994C139.966 211.845 139.649 211.77 139.266 211.77C138.818 211.77 138.431 211.882 138.104 212.106C137.777 212.33 137.577 212.661 137.502 213.1H136.298C136.354 212.596 136.522 212.176 136.802 211.84C137.091 211.495 137.455 211.233 137.894 211.056C138.333 210.869 138.79 210.776 139.266 210.776C139.919 210.776 140.461 210.897 140.89 211.14C141.329 211.373 141.655 211.705 141.87 212.134C142.085 212.554 142.192 213.053 142.192 213.632V218H141.142L141.072 216.754C140.979 216.95 140.857 217.137 140.708 217.314C140.568 217.482 140.4 217.631 140.204 217.762C140.008 217.883 139.784 217.981 139.532 218.056C139.289 218.131 139.009 218.168 138.692 218.168ZM138.874 217.174C139.201 217.174 139.495 217.109 139.756 216.978C140.027 216.838 140.255 216.651 140.442 216.418C140.629 216.175 140.769 215.909 140.862 215.62C140.965 215.331 141.016 215.027 141.016 214.71V214.668H139.252C138.795 214.668 138.426 214.724 138.146 214.836C137.866 214.939 137.665 215.088 137.544 215.284C137.423 215.471 137.362 215.685 137.362 215.928C137.362 216.18 137.418 216.399 137.53 216.586C137.651 216.773 137.824 216.917 138.048 217.02C138.281 217.123 138.557 217.174 138.874 217.174ZM147.189 218.168C146.527 218.168 145.929 218.014 145.397 217.706C144.875 217.398 144.464 216.969 144.165 216.418C143.867 215.858 143.717 215.214 143.717 214.486C143.717 213.739 143.867 213.091 144.165 212.54C144.464 211.989 144.875 211.56 145.397 211.252C145.929 210.935 146.527 210.776 147.189 210.776C148.029 210.776 148.729 210.995 149.289 211.434C149.849 211.863 150.204 212.442 150.353 213.17H149.149C149.056 212.731 148.827 212.391 148.463 212.148C148.099 211.905 147.67 211.784 147.175 211.784C146.774 211.784 146.401 211.887 146.055 212.092C145.71 212.288 145.435 212.587 145.229 212.988C145.024 213.389 144.921 213.884 144.921 214.472C144.921 214.911 144.982 215.303 145.103 215.648C145.225 215.984 145.388 216.264 145.593 216.488C145.799 216.712 146.037 216.885 146.307 217.006C146.587 217.118 146.877 217.174 147.175 217.174C147.511 217.174 147.815 217.123 148.085 217.02C148.356 216.908 148.585 216.745 148.771 216.53C148.958 216.315 149.084 216.063 149.149 215.774H150.353C150.204 216.483 149.845 217.062 149.275 217.51C148.715 217.949 148.02 218.168 147.189 218.168ZM155.117 218.168C154.454 218.168 153.866 218.014 153.353 217.706C152.849 217.398 152.452 216.969 152.163 216.418C151.874 215.858 151.729 215.209 151.729 214.472C151.729 213.725 151.869 213.077 152.149 212.526C152.438 211.975 152.84 211.546 153.353 211.238C153.876 210.93 154.473 210.776 155.145 210.776C155.836 210.776 156.419 210.93 156.895 211.238C157.38 211.546 157.749 211.952 158.001 212.456C158.262 212.951 158.393 213.497 158.393 214.094C158.393 214.187 158.393 214.285 158.393 214.388C158.393 214.491 158.388 214.607 158.379 214.738H152.611V213.828H157.245C157.217 213.184 157.002 212.68 156.601 212.316C156.209 211.952 155.714 211.77 155.117 211.77C154.716 211.77 154.342 211.863 153.997 212.05C153.661 212.227 153.39 212.493 153.185 212.848C152.98 213.193 152.877 213.627 152.877 214.15V214.542C152.877 215.121 152.98 215.606 153.185 215.998C153.4 216.39 153.675 216.684 154.011 216.88C154.356 217.076 154.725 217.174 155.117 217.174C155.612 217.174 156.018 217.067 156.335 216.852C156.662 216.628 156.895 216.329 157.035 215.956H158.197C158.085 216.376 157.889 216.754 157.609 217.09C157.329 217.426 156.979 217.692 156.559 217.888C156.148 218.075 155.668 218.168 155.117 218.168Z" fill="#004D4B"/>
<path d="M172.862 219.086L175.738 218.643V207.81L172.862 207.54V219.086ZM167 207V220L171.136 219.356V207.381L167 207ZM177.463 207.969V218.373L180 217.923V208.232L177.463 207.969Z" fill="#004D4B"/>
</g>
<g filter="url(#filter1_d_647_14767)">
<rect x="246" y="196" width="126" height="34" rx="6" fill="url(#paint6_linear_647_14767)" shape-rendering="crispEdges"/>
<path d="M263.058 218.168C262.386 218.168 261.775 218.033 261.224 217.762C260.683 217.491 260.249 217.081 259.922 216.53C259.596 215.97 259.432 215.256 259.432 214.388V208.2H260.608V214.402C260.608 215.037 260.711 215.555 260.916 215.956C261.131 216.357 261.425 216.651 261.798 216.838C262.172 217.025 262.601 217.118 263.086 217.118C263.581 217.118 264.01 217.025 264.374 216.838C264.738 216.651 265.023 216.357 265.228 215.956C265.434 215.555 265.536 215.037 265.536 214.402V208.2H266.712V214.388C266.712 215.256 266.549 215.97 266.222 216.53C265.896 217.081 265.457 217.491 264.906 217.762C264.356 218.033 263.74 218.168 263.058 218.168ZM271.294 218.168C270.706 218.168 270.193 218.07 269.754 217.874C269.325 217.678 268.98 217.407 268.718 217.062C268.466 216.707 268.312 216.292 268.256 215.816H269.46C269.507 216.059 269.605 216.283 269.754 216.488C269.904 216.693 270.104 216.861 270.356 216.992C270.618 217.113 270.935 217.174 271.308 217.174C271.635 217.174 271.906 217.127 272.12 217.034C272.335 216.931 272.494 216.796 272.596 216.628C272.708 216.46 272.764 216.278 272.764 216.082C272.764 215.793 272.694 215.573 272.554 215.424C272.424 215.275 272.228 215.158 271.966 215.074C271.705 214.981 271.388 214.901 271.014 214.836C270.706 214.78 270.403 214.705 270.104 214.612C269.806 214.519 269.54 214.397 269.306 214.248C269.073 214.089 268.886 213.898 268.746 213.674C268.616 213.45 268.55 213.175 268.55 212.848C268.55 212.447 268.653 212.092 268.858 211.784C269.064 211.467 269.358 211.219 269.74 211.042C270.132 210.865 270.585 210.776 271.098 210.776C271.854 210.776 272.466 210.958 272.932 211.322C273.399 211.686 273.674 212.213 273.758 212.904H272.596C272.55 212.549 272.396 212.274 272.134 212.078C271.882 211.873 271.532 211.77 271.084 211.77C270.646 211.77 270.31 211.859 270.076 212.036C269.852 212.213 269.74 212.447 269.74 212.736C269.74 212.923 269.801 213.091 269.922 213.24C270.053 213.38 270.24 213.501 270.482 213.604C270.734 213.707 271.042 213.791 271.406 213.856C271.873 213.94 272.298 214.052 272.68 214.192C273.063 214.332 273.371 214.542 273.604 214.822C273.847 215.093 273.968 215.48 273.968 215.984C273.968 216.423 273.856 216.805 273.632 217.132C273.418 217.459 273.11 217.715 272.708 217.902C272.307 218.079 271.836 218.168 271.294 218.168ZM278.756 218.168C278.093 218.168 277.505 218.014 276.992 217.706C276.488 217.398 276.091 216.969 275.802 216.418C275.512 215.858 275.368 215.209 275.368 214.472C275.368 213.725 275.508 213.077 275.788 212.526C276.077 211.975 276.478 211.546 276.992 211.238C277.514 210.93 278.112 210.776 278.784 210.776C279.474 210.776 280.058 210.93 280.534 211.238C281.019 211.546 281.388 211.952 281.64 212.456C281.901 212.951 282.032 213.497 282.032 214.094C282.032 214.187 282.032 214.285 282.032 214.388C282.032 214.491 282.027 214.607 282.018 214.738H276.25V213.828H280.884C280.856 213.184 280.641 212.68 280.24 212.316C279.848 211.952 279.353 211.77 278.756 211.77C278.354 211.77 277.981 211.863 277.636 212.05C277.3 212.227 277.029 212.493 276.824 212.848C276.618 213.193 276.516 213.627 276.516 214.15V214.542C276.516 215.121 276.618 215.606 276.824 215.998C277.038 216.39 277.314 216.684 277.65 216.88C277.995 217.076 278.364 217.174 278.756 217.174C279.25 217.174 279.656 217.067 279.974 216.852C280.3 216.628 280.534 216.329 280.674 215.956H281.836C281.724 216.376 281.528 216.754 281.248 217.09C280.968 217.426 280.618 217.692 280.198 217.888C279.787 218.075 279.306 218.168 278.756 218.168ZM283.619 218V210.944H284.683L284.767 212.288C284.925 211.971 285.126 211.7 285.369 211.476C285.621 211.252 285.919 211.079 286.265 210.958C286.619 210.837 287.021 210.776 287.469 210.776V212.008H287.035C286.736 212.008 286.451 212.05 286.181 212.134C285.91 212.209 285.667 212.335 285.453 212.512C285.247 212.689 285.084 212.932 284.963 213.24C284.851 213.539 284.795 213.912 284.795 214.36V218H283.619ZM296.845 218.168C295.893 218.168 295.067 217.958 294.367 217.538C293.676 217.109 293.144 216.516 292.771 215.76C292.398 214.995 292.211 214.108 292.211 213.1C292.211 212.092 292.398 211.21 292.771 210.454C293.144 209.689 293.676 209.096 294.367 208.676C295.067 208.247 295.893 208.032 296.845 208.032C297.965 208.032 298.875 208.298 299.575 208.83C300.275 209.362 300.723 210.113 300.919 211.084H299.617C299.468 210.477 299.164 209.992 298.707 209.628C298.25 209.255 297.629 209.068 296.845 209.068C296.145 209.068 295.538 209.231 295.025 209.558C294.512 209.875 294.115 210.337 293.835 210.944C293.555 211.541 293.415 212.26 293.415 213.1C293.415 213.94 293.555 214.663 293.835 215.27C294.115 215.867 294.512 216.329 295.025 216.656C295.538 216.973 296.145 217.132 296.845 217.132C297.629 217.132 298.25 216.955 298.707 216.6C299.164 216.236 299.468 215.755 299.617 215.158H300.919C300.723 216.101 300.275 216.838 299.575 217.37C298.875 217.902 297.965 218.168 296.845 218.168ZM305.648 218.168C304.986 218.168 304.398 218.014 303.884 217.706C303.38 217.398 302.984 216.969 302.694 216.418C302.405 215.858 302.26 215.209 302.26 214.472C302.26 213.725 302.4 213.077 302.68 212.526C302.97 211.975 303.371 211.546 303.884 211.238C304.407 210.93 305.004 210.776 305.676 210.776C306.367 210.776 306.95 210.93 307.426 211.238C307.912 211.546 308.28 211.952 308.532 212.456C308.794 212.951 308.924 213.497 308.924 214.094C308.924 214.187 308.924 214.285 308.924 214.388C308.924 214.491 308.92 214.607 308.91 214.738H303.142V213.828H307.776C307.748 213.184 307.534 212.68 307.132 212.316C306.74 211.952 306.246 211.77 305.648 211.77C305.247 211.77 304.874 211.863 304.528 212.05C304.192 212.227 303.922 212.493 303.716 212.848C303.511 213.193 303.408 213.627 303.408 214.15V214.542C303.408 215.121 303.511 215.606 303.716 215.998C303.931 216.39 304.206 216.684 304.542 216.88C304.888 217.076 305.256 217.174 305.648 217.174C306.143 217.174 306.549 217.067 306.866 216.852C307.193 216.628 307.426 216.329 307.566 215.956H308.728C308.616 216.376 308.42 216.754 308.14 217.09C307.86 217.426 307.51 217.692 307.09 217.888C306.68 218.075 306.199 218.168 305.648 218.168ZM310.511 218V210.944H311.575L311.631 212.176C311.855 211.737 312.173 211.397 312.583 211.154C313.003 210.902 313.479 210.776 314.011 210.776C314.562 210.776 315.038 210.888 315.439 211.112C315.841 211.327 316.153 211.658 316.377 212.106C316.601 212.545 316.713 213.105 316.713 213.786V218H315.537V213.912C315.537 213.203 315.379 212.671 315.061 212.316C314.753 211.961 314.315 211.784 313.745 211.784C313.353 211.784 313.003 211.882 312.695 212.078C312.387 212.265 312.14 212.54 311.953 212.904C311.776 213.259 311.687 213.702 311.687 214.234V218H310.511ZM321.322 218C320.902 218 320.538 217.935 320.23 217.804C319.922 217.673 319.684 217.454 319.516 217.146C319.358 216.829 319.278 216.404 319.278 215.872V211.938H318.046V210.944H319.278L319.432 209.236H320.454V210.944H322.498V211.938H320.454V215.872C320.454 216.311 320.543 216.609 320.72 216.768C320.898 216.917 321.21 216.992 321.658 216.992H322.414V218H321.322ZM326.935 218.168C326.273 218.168 325.685 218.014 325.171 217.706C324.667 217.398 324.271 216.969 323.981 216.418C323.692 215.858 323.547 215.209 323.547 214.472C323.547 213.725 323.687 213.077 323.967 212.526C324.257 211.975 324.658 211.546 325.171 211.238C325.694 210.93 326.291 210.776 326.963 210.776C327.654 210.776 328.237 210.93 328.713 211.238C329.199 211.546 329.567 211.952 329.819 212.456C330.081 212.951 330.211 213.497 330.211 214.094C330.211 214.187 330.211 214.285 330.211 214.388C330.211 214.491 330.207 214.607 330.197 214.738H324.429V213.828H329.063C329.035 213.184 328.821 212.68 328.419 212.316C328.027 211.952 327.533 211.77 326.935 211.77C326.534 211.77 326.161 211.863 325.815 212.05C325.479 212.227 325.209 212.493 325.003 212.848C324.798 213.193 324.695 213.627 324.695 214.15V214.542C324.695 215.121 324.798 215.606 325.003 215.998C325.218 216.39 325.493 216.684 325.829 216.88C326.175 217.076 326.543 217.174 326.935 217.174C327.43 217.174 327.836 217.067 328.153 216.852C328.48 216.628 328.713 216.329 328.853 215.956H330.015C329.903 216.376 329.707 216.754 329.427 217.09C329.147 217.426 328.797 217.692 328.377 217.888C327.967 218.075 327.486 218.168 326.935 218.168ZM331.798 218V210.944H332.862L332.946 212.288C333.105 211.971 333.306 211.7 333.548 211.476C333.8 211.252 334.099 211.079 334.444 210.958C334.799 210.837 335.2 210.776 335.648 210.776V212.008H335.214C334.916 212.008 334.631 212.05 334.36 212.134C334.09 212.209 333.847 212.335 333.632 212.512C333.427 212.689 333.264 212.932 333.142 213.24C333.03 213.539 332.974 213.912 332.974 214.36V218H331.798Z" fill="#004D4B"/>
<path d="M351.979 221H349.021C346.216 221 344 221 344 219.529V219.235C344 216.478 346.253 214.236 349.021 214.236H351.979C354.747 214.236 357 216.478 357 219.235V219.529C356.999 221 354.672 221 351.979 221ZM350.352 213.941C348.154 213.941 346.366 212.159 346.366 209.97C346.366 207.781 348.154 206 350.352 206C352.55 206 354.338 207.781 354.338 209.97C354.338 212.159 352.55 213.941 350.352 213.941Z" fill="#004D4B"/>
</g>
<g filter="url(#filter2_d_647_14767)">
<rect x="423" y="196" width="108" height="34" rx="6" fill="url(#paint7_linear_647_14767)" shape-rendering="crispEdges"/>
<path d="M436.222 218V208.2H439.386C440.151 208.2 440.777 208.331 441.262 208.592C441.747 208.844 442.107 209.185 442.34 209.614C442.573 210.043 442.69 210.529 442.69 211.07C442.69 211.593 442.569 212.073 442.326 212.512C442.093 212.951 441.729 213.301 441.234 213.562C440.739 213.823 440.105 213.954 439.33 213.954H437.398V218H436.222ZM441.402 218L439.246 213.618H440.562L442.788 218H441.402ZM437.398 213.03H439.302C440.049 213.03 440.595 212.848 440.94 212.484C441.295 212.12 441.472 211.653 441.472 211.084C441.472 210.505 441.299 210.048 440.954 209.712C440.618 209.367 440.063 209.194 439.288 209.194H437.398V213.03ZM447.135 218.168C446.472 218.168 445.884 218.014 445.371 217.706C444.867 217.398 444.47 216.969 444.181 216.418C443.891 215.858 443.747 215.209 443.747 214.472C443.747 213.725 443.887 213.077 444.167 212.526C444.456 211.975 444.857 211.546 445.371 211.238C445.893 210.93 446.491 210.776 447.163 210.776C447.853 210.776 448.437 210.93 448.913 211.238C449.398 211.546 449.767 211.952 450.019 212.456C450.28 212.951 450.411 213.497 450.411 214.094C450.411 214.187 450.411 214.285 450.411 214.388C450.411 214.491 450.406 214.607 450.397 214.738H444.629V213.828H449.263C449.235 213.184 449.02 212.68 448.619 212.316C448.227 211.952 447.732 211.77 447.135 211.77C446.733 211.77 446.36 211.863 446.015 212.05C445.679 212.227 445.408 212.493 445.203 212.848C444.997 213.193 444.895 213.627 444.895 214.15V214.542C444.895 215.121 444.997 215.606 445.203 215.998C445.417 216.39 445.693 216.684 446.029 216.88C446.374 217.076 446.743 217.174 447.135 217.174C447.629 217.174 448.035 217.067 448.353 216.852C448.679 216.628 448.913 216.329 449.053 215.956H450.215C450.103 216.376 449.907 216.754 449.627 217.09C449.347 217.426 448.997 217.692 448.577 217.888C448.166 218.075 447.685 218.168 447.135 218.168ZM457.64 221.08V216.852C457.416 217.216 457.089 217.529 456.66 217.79C456.24 218.042 455.726 218.168 455.12 218.168C454.429 218.168 453.827 218.009 453.314 217.692C452.8 217.365 452.404 216.927 452.124 216.376C451.844 215.816 451.704 215.181 451.704 214.472C451.704 213.763 451.844 213.133 452.124 212.582C452.404 212.022 452.8 211.583 453.314 211.266C453.836 210.939 454.438 210.776 455.12 210.776C455.521 210.776 455.88 210.832 456.198 210.944C456.524 211.056 456.809 211.215 457.052 211.42C457.294 211.616 457.49 211.845 457.64 212.106L457.752 210.944H458.816V221.08H457.64ZM455.246 217.146C455.712 217.146 456.123 217.034 456.478 216.81C456.832 216.586 457.108 216.278 457.304 215.886C457.5 215.485 457.598 215.013 457.598 214.472C457.598 213.94 457.5 213.473 457.304 213.072C457.108 212.671 456.832 212.358 456.478 212.134C456.123 211.91 455.712 211.798 455.246 211.798C454.788 211.798 454.382 211.91 454.028 212.134C453.673 212.358 453.398 212.671 453.202 213.072C453.006 213.473 452.908 213.94 452.908 214.472C452.908 215.013 453.006 215.485 453.202 215.886C453.398 216.278 453.673 216.586 454.028 216.81C454.382 217.034 454.788 217.146 455.246 217.146ZM463.337 218.168C462.796 218.168 462.32 218.061 461.909 217.846C461.508 217.631 461.195 217.3 460.971 216.852C460.756 216.404 460.649 215.844 460.649 215.172V210.944H461.825V215.046C461.825 215.746 461.979 216.273 462.287 216.628C462.595 216.983 463.029 217.16 463.589 217.16C463.981 217.16 464.336 217.067 464.653 216.88C464.97 216.684 465.218 216.409 465.395 216.054C465.582 215.69 465.675 215.247 465.675 214.724V210.944H466.851V218H465.787L465.717 216.768C465.502 217.207 465.185 217.552 464.765 217.804C464.345 218.047 463.869 218.168 463.337 218.168ZM471.894 218.168C471.232 218.168 470.644 218.014 470.13 217.706C469.626 217.398 469.23 216.969 468.94 216.418C468.651 215.858 468.506 215.209 468.506 214.472C468.506 213.725 468.646 213.077 468.926 212.526C469.216 211.975 469.617 211.546 470.13 211.238C470.653 210.93 471.25 210.776 471.922 210.776C472.613 210.776 473.196 210.93 473.672 211.238C474.158 211.546 474.526 211.952 474.778 212.456C475.04 212.951 475.17 213.497 475.17 214.094C475.17 214.187 475.17 214.285 475.17 214.388C475.17 214.491 475.166 214.607 475.156 214.738H469.388V213.828H474.022C473.994 213.184 473.78 212.68 473.378 212.316C472.986 211.952 472.492 211.77 471.894 211.77C471.493 211.77 471.12 211.863 470.774 212.05C470.438 212.227 470.168 212.493 469.962 212.848C469.757 213.193 469.654 213.627 469.654 214.15V214.542C469.654 215.121 469.757 215.606 469.962 215.998C470.177 216.39 470.452 216.684 470.788 216.88C471.134 217.076 471.502 217.174 471.894 217.174C472.389 217.174 472.795 217.067 473.112 216.852C473.439 216.628 473.672 216.329 473.812 215.956H474.974C474.862 216.376 474.666 216.754 474.386 217.09C474.106 217.426 473.756 217.692 473.336 217.888C472.926 218.075 472.445 218.168 471.894 218.168ZM479.417 218.168C478.829 218.168 478.316 218.07 477.877 217.874C477.448 217.678 477.103 217.407 476.841 217.062C476.589 216.707 476.435 216.292 476.379 215.816H477.583C477.63 216.059 477.728 216.283 477.877 216.488C478.027 216.693 478.227 216.861 478.479 216.992C478.741 217.113 479.058 217.174 479.431 217.174C479.758 217.174 480.029 217.127 480.243 217.034C480.458 216.931 480.617 216.796 480.719 216.628C480.831 216.46 480.887 216.278 480.887 216.082C480.887 215.793 480.817 215.573 480.677 215.424C480.547 215.275 480.351 215.158 480.089 215.074C479.828 214.981 479.511 214.901 479.137 214.836C478.829 214.78 478.526 214.705 478.227 214.612C477.929 214.519 477.663 214.397 477.429 214.248C477.196 214.089 477.009 213.898 476.869 213.674C476.739 213.45 476.673 213.175 476.673 212.848C476.673 212.447 476.776 212.092 476.981 211.784C477.187 211.467 477.481 211.219 477.863 211.042C478.255 210.865 478.708 210.776 479.221 210.776C479.977 210.776 480.589 210.958 481.055 211.322C481.522 211.686 481.797 212.213 481.881 212.904H480.719C480.673 212.549 480.519 212.274 480.257 212.078C480.005 211.873 479.655 211.77 479.207 211.77C478.769 211.77 478.433 211.859 478.199 212.036C477.975 212.213 477.863 212.447 477.863 212.736C477.863 212.923 477.924 213.091 478.045 213.24C478.176 213.38 478.363 213.501 478.605 213.604C478.857 213.707 479.165 213.791 479.529 213.856C479.996 213.94 480.421 214.052 480.803 214.192C481.186 214.332 481.494 214.542 481.727 214.822C481.97 215.093 482.091 215.48 482.091 215.984C482.091 216.423 481.979 216.805 481.755 217.132C481.541 217.459 481.233 217.715 480.831 217.902C480.43 218.079 479.959 218.168 479.417 218.168ZM486.242 218C485.822 218 485.458 217.935 485.15 217.804C484.842 217.673 484.604 217.454 484.436 217.146C484.278 216.829 484.198 216.404 484.198 215.872V211.938H482.966V210.944H484.198L484.352 209.236H485.374V210.944H487.418V211.938H485.374V215.872C485.374 216.311 485.463 216.609 485.64 216.768C485.818 216.917 486.13 216.992 486.578 216.992H487.334V218H486.242ZM491.613 218.168C491.025 218.168 490.511 218.07 490.073 217.874C489.643 217.678 489.298 217.407 489.037 217.062C488.785 216.707 488.631 216.292 488.575 215.816H489.779C489.825 216.059 489.923 216.283 490.073 216.488C490.222 216.693 490.423 216.861 490.675 216.992C490.936 217.113 491.253 217.174 491.627 217.174C491.953 217.174 492.224 217.127 492.439 217.034C492.653 216.931 492.812 216.796 492.915 216.628C493.027 216.46 493.083 216.278 493.083 216.082C493.083 215.793 493.013 215.573 492.873 215.424C492.742 215.275 492.546 215.158 492.285 215.074C492.023 214.981 491.706 214.901 491.333 214.836C491.025 214.78 490.721 214.705 490.423 214.612C490.124 214.519 489.858 214.397 489.625 214.248C489.391 214.089 489.205 213.898 489.065 213.674C488.934 213.45 488.869 213.175 488.869 212.848C488.869 212.447 488.971 212.092 489.177 211.784C489.382 211.467 489.676 211.219 490.059 211.042C490.451 210.865 490.903 210.776 491.417 210.776C492.173 210.776 492.784 210.958 493.251 211.322C493.717 211.686 493.993 212.213 494.077 212.904H492.915C492.868 212.549 492.714 212.274 492.453 212.078C492.201 211.873 491.851 211.77 491.403 211.77C490.964 211.77 490.628 211.859 490.395 212.036C490.171 212.213 490.059 212.447 490.059 212.736C490.059 212.923 490.119 213.091 490.241 213.24C490.371 213.38 490.558 213.501 490.801 213.604C491.053 213.707 491.361 213.791 491.725 213.856C492.191 213.94 492.616 214.052 492.999 214.192C493.381 214.332 493.689 214.542 493.923 214.822C494.165 215.093 494.287 215.48 494.287 215.984C494.287 216.423 494.175 216.805 493.951 217.132C493.736 217.459 493.428 217.715 493.027 217.902C492.625 218.079 492.154 218.168 491.613 218.168Z" fill="#004D4B"/>
<path d="M507.555 215.833C507.555 212.918 509.918 210.555 512.833 210.555C513.314 210.555 513.779 210.62 514.222 210.741V206.111C514.222 205.498 513.724 205 513.111 205H503.111C502.498 205 502 205.498 502 206.111V217.778C502 218.391 502.498 218.889 503.111 218.889H508.529C507.894 217.997 507.554 216.928 507.555 215.833ZM504.778 207.222H511.444C511.591 207.222 511.732 207.281 511.837 207.385C511.941 207.489 511.999 207.631 511.999 207.778C511.999 207.925 511.941 208.067 511.837 208.171C511.732 208.275 511.591 208.334 511.444 208.334H504.778C504.63 208.334 504.489 208.275 504.385 208.171C504.28 208.067 504.222 207.925 504.222 207.778C504.222 207.631 504.28 207.489 504.385 207.385C504.489 207.281 504.63 207.222 504.778 207.222ZM504.778 210.555H507C507.147 210.555 507.289 210.614 507.393 210.718C507.497 210.822 507.556 210.964 507.556 211.111C507.556 211.259 507.497 211.4 507.393 211.504C507.289 211.608 507.147 211.667 507 211.667H504.778C504.63 211.667 504.489 211.608 504.385 211.504C504.28 211.4 504.222 211.259 504.222 211.111C504.222 210.964 504.28 210.822 504.385 210.718C504.489 210.614 504.63 210.555 504.778 210.555ZM505.889 215H504.778C504.63 215 504.489 214.942 504.385 214.837C504.28 214.733 504.222 214.592 504.222 214.444C504.222 214.297 504.28 214.156 504.385 214.051C504.489 213.947 504.63 213.889 504.778 213.889H505.889C506.036 213.889 506.178 213.947 506.282 214.051C506.386 214.156 506.445 214.297 506.445 214.444C506.445 214.592 506.386 214.733 506.282 214.837C506.178 214.942 506.036 215 505.889 215ZM512.833 211.666C511.728 211.667 510.669 212.106 509.887 212.887C509.106 213.669 508.667 214.728 508.666 215.833C508.667 216.938 509.106 217.998 509.887 218.779C510.669 219.561 511.728 220 512.833 220C513.938 220 514.998 219.561 515.779 218.779C516.561 217.998 517 216.938 517 215.833C517 214.728 516.561 213.669 515.779 212.887C514.998 212.106 513.938 211.667 512.833 211.666ZM514.698 214.731L513.031 217.509C512.982 217.591 512.912 217.659 512.828 217.706C512.745 217.753 512.651 217.779 512.555 217.779C512.446 217.779 512.338 217.748 512.246 217.686L510.58 216.575C510.463 216.491 510.382 216.364 510.356 216.223C510.33 216.081 510.361 215.934 510.441 215.814C510.521 215.694 510.644 215.61 510.785 215.579C510.926 215.548 511.073 215.574 511.196 215.649L512.378 216.438L513.744 214.16C513.782 214.097 513.831 214.042 513.89 213.999C513.949 213.955 514.015 213.924 514.086 213.906C514.157 213.888 514.23 213.885 514.303 213.895C514.375 213.906 514.444 213.931 514.507 213.968C514.569 214.006 514.624 214.055 514.668 214.114C514.711 214.173 514.743 214.239 514.76 214.31C514.778 214.381 514.782 214.454 514.771 214.527C514.76 214.599 514.736 214.668 514.698 214.731H514.698Z" fill="#004D4B"/>
</g>
<g filter="url(#filter3_d_647_14767)">
<rect x="582" y="196" width="117" height="34" rx="6" fill="url(#paint8_linear_647_14767)" shape-rendering="crispEdges"/>
<path d="M595.074 218L598.686 208.2H599.932L603.53 218H602.284L599.302 209.67L596.306 218H595.074ZM596.726 215.48L597.062 214.528H601.5L601.836 215.48H596.726ZM607.717 221.248C607.083 221.248 606.518 221.164 606.023 220.996C605.538 220.837 605.16 220.59 604.889 220.254C604.619 219.918 604.483 219.503 604.483 219.008C604.483 218.793 604.525 218.565 604.609 218.322C604.703 218.079 604.857 217.841 605.071 217.608C605.295 217.375 605.608 217.165 606.009 216.978L606.821 217.454C606.327 217.659 606.005 217.893 605.855 218.154C605.706 218.425 605.631 218.672 605.631 218.896C605.631 219.204 605.72 219.461 605.897 219.666C606.075 219.871 606.322 220.025 606.639 220.128C606.957 220.231 607.316 220.282 607.717 220.282C608.119 220.282 608.464 220.226 608.753 220.114C609.043 220.002 609.267 219.843 609.425 219.638C609.584 219.433 609.663 219.19 609.663 218.91C609.663 218.583 609.542 218.308 609.299 218.084C609.057 217.869 608.595 217.743 607.913 217.706C607.363 217.669 606.901 217.617 606.527 217.552C606.154 217.487 605.846 217.412 605.603 217.328C605.361 217.235 605.155 217.132 604.987 217.02C604.829 216.908 604.684 216.791 604.553 216.67V216.348L605.911 215.004L606.933 215.368L605.533 216.628L605.715 216.138C605.818 216.213 605.916 216.283 606.009 216.348C606.103 216.413 606.229 216.469 606.387 216.516C606.546 216.563 606.765 216.605 607.045 216.642C607.335 216.679 607.713 216.717 608.179 216.754C608.823 216.801 609.337 216.913 609.719 217.09C610.111 217.267 610.391 217.505 610.559 217.804C610.737 218.103 610.825 218.457 610.825 218.868C610.825 219.269 610.713 219.647 610.489 220.002C610.275 220.366 609.939 220.665 609.481 220.898C609.024 221.131 608.436 221.248 607.717 221.248ZM607.703 215.788C607.115 215.788 606.611 215.676 606.191 215.452C605.781 215.228 605.468 214.929 605.253 214.556C605.039 214.173 604.931 213.749 604.931 213.282C604.931 212.815 605.039 212.395 605.253 212.022C605.477 211.649 605.795 211.35 606.205 211.126C606.616 210.893 607.115 210.776 607.703 210.776C608.291 210.776 608.791 210.893 609.201 211.126C609.612 211.35 609.925 211.649 610.139 212.022C610.354 212.395 610.461 212.815 610.461 213.282C610.461 213.749 610.354 214.173 610.139 214.556C609.925 214.929 609.612 215.228 609.201 215.452C608.791 215.676 608.291 215.788 607.703 215.788ZM607.703 214.822C608.207 214.822 608.604 214.691 608.893 214.43C609.183 214.169 609.327 213.786 609.327 213.282C609.327 212.787 609.183 212.409 608.893 212.148C608.604 211.887 608.207 211.756 607.703 211.756C607.209 211.756 606.807 211.887 606.499 212.148C606.201 212.409 606.051 212.787 606.051 213.282C606.051 213.786 606.201 214.169 606.499 214.43C606.798 214.691 607.199 214.822 607.703 214.822ZM608.851 211.938L608.501 210.944H611.385V211.826L608.851 211.938ZM615.558 218.168C614.896 218.168 614.308 218.014 613.794 217.706C613.29 217.398 612.894 216.969 612.604 216.418C612.315 215.858 612.17 215.209 612.17 214.472C612.17 213.725 612.31 213.077 612.59 212.526C612.88 211.975 613.281 211.546 613.794 211.238C614.317 210.93 614.914 210.776 615.586 210.776C616.277 210.776 616.86 210.93 617.336 211.238C617.822 211.546 618.19 211.952 618.442 212.456C618.704 212.951 618.834 213.497 618.834 214.094C618.834 214.187 618.834 214.285 618.834 214.388C618.834 214.491 618.83 214.607 618.82 214.738H613.052V213.828H617.686C617.658 213.184 617.444 212.68 617.042 212.316C616.65 211.952 616.156 211.77 615.558 211.77C615.157 211.77 614.784 211.863 614.438 212.05C614.102 212.227 613.832 212.493 613.626 212.848C613.421 213.193 613.318 213.627 613.318 214.15V214.542C613.318 215.121 613.421 215.606 613.626 215.998C613.841 216.39 614.116 216.684 614.452 216.88C614.798 217.076 615.166 217.174 615.558 217.174C616.053 217.174 616.459 217.067 616.776 216.852C617.103 216.628 617.336 216.329 617.476 215.956H618.638C618.526 216.376 618.33 216.754 618.05 217.09C617.77 217.426 617.42 217.692 617 217.888C616.59 218.075 616.109 218.168 615.558 218.168ZM620.421 218V210.944H621.485L621.541 212.176C621.765 211.737 622.083 211.397 622.493 211.154C622.913 210.902 623.389 210.776 623.921 210.776C624.472 210.776 624.948 210.888 625.349 211.112C625.751 211.327 626.063 211.658 626.287 212.106C626.511 212.545 626.623 213.105 626.623 213.786V218H625.447V213.912C625.447 213.203 625.289 212.671 624.971 212.316C624.663 211.961 624.225 211.784 623.655 211.784C623.263 211.784 622.913 211.882 622.605 212.078C622.297 212.265 622.05 212.54 621.863 212.904C621.686 213.259 621.597 213.702 621.597 214.234V218H620.421ZM631.232 218C630.812 218 630.448 217.935 630.14 217.804C629.832 217.673 629.594 217.454 629.426 217.146C629.268 216.829 629.188 216.404 629.188 215.872V211.938H627.956V210.944H629.188L629.342 209.236H630.364V210.944H632.408V211.938H630.364V215.872C630.364 216.311 630.453 216.609 630.63 216.768C630.808 216.917 631.12 216.992 631.568 216.992H632.324V218H631.232ZM643.99 218V208.2H645.166V218H643.99ZM637.732 218V208.2H638.908V218H637.732ZM638.684 213.492V212.526H644.284V213.492H638.684ZM649.753 218.168C649.212 218.168 648.736 218.061 648.325 217.846C647.924 217.631 647.611 217.3 647.387 216.852C647.172 216.404 647.065 215.844 647.065 215.172V210.944H648.241V215.046C648.241 215.746 648.395 216.273 648.703 216.628C649.011 216.983 649.445 217.16 650.005 217.16C650.397 217.16 650.752 217.067 651.069 216.88C651.386 216.684 651.634 216.409 651.811 216.054C651.998 215.69 652.091 215.247 652.091 214.724V210.944H653.267V218H652.203L652.133 216.768C651.918 217.207 651.601 217.552 651.181 217.804C650.761 218.047 650.285 218.168 649.753 218.168ZM658.912 218.168C658.511 218.168 658.147 218.112 657.82 218C657.503 217.879 657.223 217.72 656.98 217.524C656.738 217.328 656.537 217.099 656.378 216.838L656.28 218H655.216V207.92H656.392V212.106C656.616 211.742 656.938 211.429 657.358 211.168C657.778 210.907 658.296 210.776 658.912 210.776C659.594 210.776 660.191 210.939 660.704 211.266C661.218 211.583 661.614 212.022 661.894 212.582C662.184 213.133 662.328 213.763 662.328 214.472C662.328 215.181 662.184 215.816 661.894 216.376C661.614 216.936 661.218 217.375 660.704 217.692C660.191 218.009 659.594 218.168 658.912 218.168ZM658.772 217.146C659.23 217.146 659.636 217.034 659.99 216.81C660.345 216.586 660.62 216.278 660.816 215.886C661.022 215.485 661.124 215.013 661.124 214.472C661.124 213.94 661.022 213.473 660.816 213.072C660.62 212.671 660.345 212.358 659.99 212.134C659.636 211.91 659.23 211.798 658.772 211.798C658.306 211.798 657.895 211.91 657.54 212.134C657.186 212.358 656.91 212.671 656.714 213.072C656.518 213.473 656.42 213.94 656.42 214.472C656.42 215.013 656.518 215.485 656.714 215.886C656.91 216.278 657.186 216.586 657.54 216.81C657.895 217.034 658.306 217.146 658.772 217.146Z" fill="#004D4B"/>
<path d="M675.724 211.797C675.203 211.368 674.569 211.099 673.898 211.022C673.227 210.945 672.549 211.064 671.944 211.364C671.339 211.664 670.834 212.133 670.49 212.714C670.145 213.294 669.976 213.962 670.003 214.637C670.029 215.312 670.25 215.964 670.639 216.516C671.028 217.068 671.569 217.496 672.195 217.747C672.821 217.999 673.507 218.064 674.17 217.935C674.832 217.805 675.443 217.487 675.929 217.018L678.353 218.716C678.097 219.392 678.101 220.139 678.364 220.812C678.627 221.485 679.131 222.037 679.777 222.359C680.424 222.682 681.167 222.754 681.863 222.56C682.559 222.365 683.159 221.92 683.545 221.309C683.931 220.698 684.077 219.965 683.954 219.253C683.831 218.541 683.448 217.9 682.879 217.454C682.31 217.008 681.596 216.789 680.875 216.84C680.154 216.891 679.478 217.208 678.977 217.729L676.623 216.079C676.864 215.606 676.999 215.068 676.999 214.499C676.999 213.834 676.812 213.211 676.49 212.681L679.68 209.473C680.313 209.821 681.053 209.922 681.756 209.755C682.459 209.588 683.075 209.167 683.485 208.572C683.895 207.976 684.07 207.25 683.975 206.534C683.88 205.817 683.522 205.162 682.972 204.694C682.421 204.226 681.716 203.979 680.994 204.001C680.272 204.024 679.584 204.313 679.063 204.814C678.542 205.315 678.225 205.991 678.175 206.712C678.124 207.433 678.343 208.147 678.788 208.716L675.723 211.797H675.724Z" fill="#004D4B"/>
</g>
<path d="M24.156 167.288C24.156 167.964 24.0217 168.575 23.753 169.121C23.4843 169.658 23.0813 170.087 22.544 170.408C22.0067 170.729 21.322 170.889 20.49 170.889L14.9 170.889L14.9 169.134L20.503 169.134C20.9537 169.134 21.335 169.06 21.647 168.913C21.9503 168.766 22.1757 168.553 22.323 168.276C22.4703 167.99 22.544 167.652 22.544 167.262C22.544 166.863 22.4703 166.525 22.323 166.248C22.1757 165.962 21.9503 165.745 21.647 165.598C21.335 165.451 20.9537 165.377 20.503 165.377L14.9 165.377L14.9 163.622L20.49 163.622C21.322 163.622 22.0067 163.787 22.544 164.116C23.0813 164.445 23.4843 164.892 23.753 165.455C24.0217 166.01 24.156 166.621 24.156 167.288ZM24.156 159.285C24.156 159.901 24.0607 160.429 23.87 160.871C23.6793 161.305 23.415 161.643 23.077 161.885C22.739 162.128 22.3533 162.271 21.92 162.314L21.92 160.559C22.0847 160.525 22.2363 160.46 22.375 160.364C22.505 160.26 22.6133 160.122 22.7 159.948C22.778 159.766 22.817 159.554 22.817 159.311C22.817 159.077 22.7867 158.887 22.726 158.739C22.6567 158.583 22.5657 158.471 22.453 158.401C22.3403 158.323 22.219 158.284 22.089 158.284C21.8983 158.284 21.7553 158.336 21.66 158.44C21.556 158.544 21.4737 158.696 21.413 158.895C21.3437 159.095 21.283 159.337 21.231 159.623C21.1703 159.953 21.0967 160.269 21.01 160.572C20.9147 160.876 20.7977 161.144 20.659 161.378C20.5117 161.612 20.3297 161.799 20.113 161.937C19.8877 162.067 19.6103 162.132 19.281 162.132C18.8997 162.132 18.553 162.028 18.241 161.82C17.929 161.604 17.6863 161.296 17.513 160.897C17.331 160.49 17.24 160.009 17.24 159.454C17.24 158.657 17.4177 158.029 17.773 157.569C18.1283 157.101 18.6137 156.828 19.229 156.75L19.229 158.401C19.0297 158.445 18.8737 158.557 18.761 158.739C18.6483 158.921 18.592 159.164 18.592 159.467C18.592 159.779 18.6483 160.018 18.761 160.182C18.8737 160.347 19.021 160.429 19.203 160.429C19.3243 160.429 19.437 160.382 19.541 160.286C19.6363 160.182 19.7187 160.031 19.788 159.831C19.8573 159.632 19.9223 159.381 19.983 159.077C20.087 158.549 20.204 158.098 20.334 157.725C20.464 157.344 20.659 157.049 20.919 156.841C21.1703 156.625 21.5257 156.516 21.985 156.516C22.4183 156.516 22.7997 156.629 23.129 156.854C23.4497 157.08 23.701 157.4 23.883 157.816C24.065 158.232 24.156 158.722 24.156 159.285ZM24.156 151.899C24.156 152.549 24.013 153.125 23.727 153.628C23.441 154.13 23.0423 154.525 22.531 154.811C22.0197 155.097 21.4303 155.24 20.763 155.24C20.0697 155.24 19.4587 155.101 18.93 154.824C18.4013 154.538 17.9897 154.143 17.695 153.641C17.3917 153.138 17.24 152.553 17.24 151.886C17.24 151.236 17.383 150.668 17.669 150.183C17.955 149.697 18.345 149.325 18.839 149.065C19.3243 148.796 19.879 148.662 20.503 148.662C20.5897 148.662 20.6893 148.662 20.802 148.662C20.906 148.662 21.0143 148.67 21.127 148.688L21.127 153.979L20.048 153.979L20.048 150.43C19.6233 150.447 19.2853 150.594 19.034 150.872C18.7827 151.14 18.657 151.478 18.657 151.886C18.657 152.18 18.7263 152.453 18.865 152.705C19.0037 152.947 19.216 153.142 19.502 153.29C19.7793 153.437 20.1303 153.511 20.555 153.511L20.932 153.511C21.296 153.511 21.6123 153.446 21.881 153.316C22.1497 153.177 22.3577 152.986 22.505 152.744C22.6523 152.501 22.726 152.224 22.726 151.912C22.726 151.574 22.661 151.305 22.531 151.106C22.3923 150.898 22.2147 150.737 21.998 150.625L21.998 148.844C22.4053 148.965 22.7737 149.169 23.103 149.455C23.4237 149.741 23.6793 150.092 23.87 150.508C24.0607 150.915 24.156 151.379 24.156 151.899ZM24 147.198L17.396 147.198L17.396 145.638L18.592 145.482C18.306 145.318 18.0633 145.118 17.864 144.884C17.6647 144.642 17.513 144.364 17.409 144.052C17.2963 143.732 17.24 143.381 17.24 142.999L19.099 142.999L19.099 143.662C19.099 143.914 19.1293 144.152 19.19 144.377C19.242 144.594 19.3373 144.785 19.476 144.949C19.606 145.105 19.788 145.227 20.022 145.313C20.256 145.4 20.5463 145.443 20.893 145.443L24 145.443L24 147.198ZM24 138.704L14.9 138.704L14.9 136.949L24 136.949L24 138.704ZM24 135.163L17.396 135.163L17.396 133.629L18.449 133.499C18.085 133.3 17.7947 133.018 17.578 132.654C17.3527 132.282 17.24 131.84 17.24 131.328C17.24 130.791 17.3527 130.336 17.578 129.963C17.7947 129.591 18.1197 129.305 18.553 129.105C18.9777 128.906 19.4977 128.806 20.113 128.806L24 128.806L24 130.561L20.282 130.561C19.7793 130.561 19.3937 130.674 19.125 130.899C18.8563 131.116 18.722 131.45 18.722 131.9C18.722 132.186 18.787 132.446 18.917 132.68C19.047 132.906 19.2377 133.083 19.489 133.213C19.7403 133.343 20.048 133.408 20.412 133.408L24 133.408L24 135.163ZM24 124.163C24 124.622 23.9307 125.025 23.792 125.372C23.6447 125.71 23.4063 125.974 23.077 126.165C22.739 126.356 22.2797 126.451 21.699 126.451L18.865 126.451L18.865 127.582L17.396 127.582L17.396 126.451L15.576 126.256L15.576 124.696L17.396 124.696L17.396 122.967L18.865 122.967L18.865 124.696L21.725 124.696C22.0197 124.696 22.2233 124.631 22.336 124.501C22.4487 124.371 22.505 124.15 22.505 123.838L22.505 122.967L24 122.967L24 124.163ZM24.156 118.51C24.156 119.16 24.013 119.736 23.727 120.239C23.441 120.742 23.0423 121.136 22.531 121.422C22.0197 121.708 21.4303 121.851 20.763 121.851C20.0697 121.851 19.4587 121.712 18.93 121.435C18.4013 121.149 17.9897 120.755 17.695 120.252C17.3917 119.749 17.24 119.164 17.24 118.497C17.24 117.847 17.383 117.279 17.669 116.794C17.955 116.309 18.345 115.936 18.839 115.676C19.3243 115.407 19.879 115.273 20.503 115.273C20.5897 115.273 20.6893 115.273 20.802 115.273C20.906 115.273 21.0143 115.282 21.127 115.299L21.127 120.59L20.048 120.59L20.048 117.041C19.6233 117.058 19.2853 117.206 19.034 117.483C18.7827 117.752 18.657 118.09 18.657 118.497C18.657 118.792 18.7263 119.065 18.865 119.316C19.0037 119.559 19.216 119.754 19.502 119.901C19.7793 120.048 20.1303 120.122 20.555 120.122L20.932 120.122C21.296 120.122 21.6123 120.057 21.881 119.927C22.1497 119.788 22.3577 119.598 22.505 119.355C22.6523 119.112 22.726 118.835 22.726 118.523C22.726 118.185 22.661 117.916 22.531 117.717C22.3923 117.509 22.2147 117.349 21.998 117.236L21.998 115.455C22.4053 115.576 22.7737 115.78 23.103 116.066C23.4237 116.352 23.6793 116.703 23.87 117.119C24.0607 117.526 24.156 117.99 24.156 118.51ZM24 113.81L17.396 113.81L17.396 112.25L18.592 112.094C18.306 111.929 18.0633 111.73 17.864 111.496C17.6647 111.253 17.513 110.976 17.409 110.664C17.2963 110.343 17.24 109.992 17.24 109.611L19.099 109.611L19.099 110.274C19.099 110.525 19.1293 110.763 19.19 110.989C19.242 111.205 19.3373 111.396 19.476 111.561C19.606 111.717 19.788 111.838 20.022 111.925C20.256 112.011 20.5463 112.055 20.893 112.055L24 112.055L24 113.81ZM24 108.128L16.863 108.128C16.317 108.128 15.8837 108.037 15.563 107.855C15.2423 107.664 15.0083 107.4 14.861 107.062C14.7137 106.724 14.64 106.325 14.64 105.866L14.64 105.008L16.135 105.008L16.135 105.593C16.135 105.87 16.1913 106.07 16.304 106.191C16.408 106.312 16.5943 106.373 16.863 106.373L24 106.373L24 108.128ZM18.865 109.038L17.396 109.038L17.396 104.917L18.865 104.917L18.865 109.038ZM24.156 101.596C24.156 102.133 24.0693 102.58 23.896 102.935C23.714 103.29 23.4713 103.555 23.168 103.728C22.856 103.901 22.5223 103.988 22.167 103.988C21.7597 103.988 21.4043 103.884 21.101 103.676C20.7977 103.468 20.5593 103.16 20.386 102.753C20.2127 102.337 20.126 101.817 20.126 101.193L20.126 99.5941C19.7967 99.5941 19.5237 99.6331 19.307 99.7111C19.0903 99.7891 18.93 99.9191 18.826 100.101C18.722 100.283 18.67 100.526 18.67 100.829C18.67 101.158 18.7393 101.436 18.878 101.661C19.0167 101.886 19.229 102.025 19.515 102.077L19.515 103.78C19.047 103.737 18.644 103.585 18.306 103.325C17.968 103.065 17.708 102.718 17.526 102.285C17.3353 101.852 17.24 101.366 17.24 100.829C17.24 100.205 17.344 99.6721 17.552 99.2301C17.7513 98.7794 18.0503 98.4371 18.449 98.2031C18.839 97.9604 19.3157 97.8391 19.879 97.8391L24 97.8391L24 99.3081L22.999 99.5031C23.1637 99.5984 23.3197 99.7111 23.467 99.8411C23.6057 99.9711 23.727 100.123 23.831 100.296C23.935 100.469 24.013 100.664 24.065 100.881C24.1257 101.098 24.156 101.336 24.156 101.596ZM22.804 101.18C22.804 100.955 22.765 100.755 22.687 100.582C22.6003 100.4 22.4833 100.248 22.336 100.127C22.1887 99.9971 22.0197 99.8931 21.829 99.8151C21.6383 99.7371 21.439 99.6851 21.231 99.6591L21.205 99.6591L21.205 100.998C21.205 101.258 21.2397 101.475 21.309 101.648C21.3697 101.813 21.4607 101.934 21.582 102.012C21.7033 102.09 21.8463 102.129 22.011 102.129C22.1757 102.129 22.3187 102.09 22.44 102.012C22.5613 101.934 22.6523 101.826 22.713 101.687C22.7737 101.54 22.804 101.371 22.804 101.18ZM24.156 92.9915C24.156 93.6502 24.0087 94.2352 23.714 94.7465C23.4193 95.2492 23.0163 95.6478 22.505 95.9425C21.985 96.2285 21.3957 96.3715 20.737 96.3715C20.0437 96.3715 19.437 96.2285 18.917 95.9425C18.397 95.6478 17.9897 95.2492 17.695 94.7465C17.3917 94.2352 17.24 93.6502 17.24 92.9915C17.24 92.1508 17.461 91.4445 17.903 90.8725C18.345 90.3005 18.956 89.9365 19.736 89.7805L19.736 91.6395C19.424 91.7175 19.1813 91.8778 19.008 92.1205C18.826 92.3632 18.735 92.6578 18.735 93.0045C18.735 93.3078 18.813 93.5808 18.969 93.8235C19.125 94.0575 19.3503 94.2438 19.645 94.3825C19.9397 94.5125 20.2907 94.5775 20.698 94.5775C21.0013 94.5775 21.2743 94.5385 21.517 94.4605C21.7597 94.3825 21.9677 94.2742 22.141 94.1355C22.3057 93.9968 22.4357 93.8322 22.531 93.6415C22.6177 93.4508 22.661 93.2385 22.661 93.0045C22.661 92.7705 22.622 92.5625 22.544 92.3805C22.466 92.1985 22.3533 92.0425 22.206 91.9125C22.0587 91.7738 21.8767 91.6828 21.66 91.6395L21.66 89.7805C22.4227 89.9365 23.0293 90.3005 23.48 90.8725C23.9307 91.4445 24.156 92.1508 24.156 92.9915ZM24.156 85.1213C24.156 85.7713 24.013 86.3476 23.727 86.8503C23.441 87.353 23.0423 87.7473 22.531 88.0333C22.0197 88.3193 21.4303 88.4623 20.763 88.4623C20.0697 88.4623 19.4587 88.3236 18.93 88.0463C18.4013 87.7603 17.9897 87.366 17.695 86.8633C17.3917 86.3606 17.24 85.7756 17.24 85.1083C17.24 84.4583 17.383 83.8906 17.669 83.4053C17.955 82.92 18.345 82.5473 18.839 82.2873C19.3243 82.0186 19.879 81.8843 20.503 81.8843C20.5897 81.8843 20.6893 81.8843 20.802 81.8843C20.906 81.8843 21.0143 81.893 21.127 81.9103L21.127 87.2013L20.048 87.2013L20.048 83.6523C19.6233 83.6696 19.2853 83.817 19.034 84.0943C18.7827 84.363 18.657 84.701 18.657 85.1083C18.657 85.403 18.7263 85.676 18.865 85.9273C19.0037 86.17 19.216 86.365 19.502 86.5123C19.7793 86.6596 20.1303 86.7333 20.555 86.7333L20.932 86.7333C21.296 86.7333 21.6123 86.6683 21.881 86.5383C22.1497 86.3996 22.3577 86.209 22.505 85.9663C22.6523 85.7236 22.726 85.4463 22.726 85.1343C22.726 84.7963 22.661 84.5276 22.531 84.3283C22.3923 84.1203 22.2147 83.96 21.998 83.8473L21.998 82.0663C22.4053 82.1876 22.7737 82.3913 23.103 82.6773C23.4237 82.9633 23.6793 83.3143 23.87 83.7303C24.0607 84.1376 24.156 84.6013 24.156 85.1213Z" fill="white"/>
<defs>
<filter id="filter0_d_647_14767" x="54.5" y="188.5" width="150" height="53" filterUnits="userSpaceOnUse" color-interpolation-filters="sRGB">
<feFlood flood-opacity="0" result="BackgroundImageFix"/>
<feColorMatrix in="SourceAlpha" type="matrix" values="0 0 0 0 0 0 0 0 0 0 0 0 0 0 0 0 0 0 127 0" result="hardAlpha"/>
<feOffset dy="2"/>
<feGaussianBlur stdDeviation="4.75"/>
<feComposite in2="hardAlpha" operator="out"/>
<feColorMatrix type="matrix" values="0 0 0 0 0.110286 0 0 0 0 0.629286 0 0 0 0 1 0 0 0 1 0"/>
<feBlend mode="normal" in2="BackgroundImageFix" result="effect1_dropShadow_647_14767"/>
<feBlend mode="normal" in="SourceGraphic" in2="effect1_dropShadow_647_14767" result="shape"/>
</filter>
<filter id="filter1_d_647_14767" x="236.5" y="188.5" width="145" height="53" filterUnits="userSpaceOnUse" color-interpolation-filters="sRGB">
<feFlood flood-opacity="0" result="BackgroundImageFix"/>
<feColorMatrix in="SourceAlpha" type="matrix" values="0 0 0 0 0 0 0 0 0 0 0 0 0 0 0 0 0 0 127 0" result="hardAlpha"/>
<feOffset dy="2"/>
<feGaussianBlur stdDeviation="4.75"/>
<feComposite in2="hardAlpha" operator="out"/>
<feColorMatrix type="matrix" values="0 0 0 0 0.110286 0 0 0 0 0.629286 0 0 0 0 1 0 0 0 1 0"/>
<feBlend mode="normal" in2="BackgroundImageFix" result="effect1_dropShadow_647_14767"/>
<feBlend mode="normal" in="SourceGraphic" in2="effect1_dropShadow_647_14767" result="shape"/>
</filter>
<filter id="filter2_d_647_14767" x="413.5" y="188.5" width="127" height="53" filterUnits="userSpaceOnUse" color-interpolation-filters="sRGB">
<feFlood flood-opacity="0" result="BackgroundImageFix"/>
<feColorMatrix in="SourceAlpha" type="matrix" values="0 0 0 0 0 0 0 0 0 0 0 0 0 0 0 0 0 0 127 0" result="hardAlpha"/>
<feOffset dy="2"/>
<feGaussianBlur stdDeviation="4.75"/>
<feComposite in2="hardAlpha" operator="out"/>
<feColorMatrix type="matrix" values="0 0 0 0 0.110286 0 0 0 0 0.629286 0 0 0 0 1 0 0 0 1 0"/>
<feBlend mode="normal" in2="BackgroundImageFix" result="effect1_dropShadow_647_14767"/>
<feBlend mode="normal" in="SourceGraphic" in2="effect1_dropShadow_647_14767" result="shape"/>
</filter>
<filter id="filter3_d_647_14767" x="572.5" y="188.5" width="136" height="53" filterUnits="userSpaceOnUse" color-interpolation-filters="sRGB">
<feFlood flood-opacity="0" result="BackgroundImageFix"/>
<feColorMatrix in="SourceAlpha" type="matrix" values="0 0 0 0 0 0 0 0 0 0 0 0 0 0 0 0 0 0 127 0" result="hardAlpha"/>
<feOffset dy="2"/>
<feGaussianBlur stdDeviation="4.75"/>
<feComposite in2="hardAlpha" operator="out"/>
<feColorMatrix type="matrix" values="0 0 0 0 0.110286 0 0 0 0 0.629286 0 0 0 0 1 0 0 0 1 0"/>
<feBlend mode="normal" in2="BackgroundImageFix" result="effect1_dropShadow_647_14767"/>
<feBlend mode="normal" in="SourceGraphic" in2="effect1_dropShadow_647_14767" result="shape"/>
</filter>
<linearGradient id="paint0_linear_647_14767" x1="378.5" y1="0" x2="378.5" y2="254" gradientUnits="userSpaceOnUse">
<stop stop-color="#0FDCF8"/>
<stop offset="1" stop-color="#1F0A33"/>
</linearGradient>
<linearGradient id="paint1_linear_647_14767" x1="384.5" y1="24" x2="384.5" y2="58" gradientUnits="userSpaceOnUse">
<stop stop-color="white" stop-opacity="0"/>
<stop offset="1" stop-color="white" stop-opacity="0.15"/>
</linearGradient>
<linearGradient id="paint2_linear_647_14767" x1="384.5" y1="24" x2="384.5" y2="58" gradientUnits="userSpaceOnUse">
<stop stop-color="#4E4E4E"/>
<stop offset="1" stop-color="#383737"/>
</linearGradient>
<linearGradient id="paint3_linear_647_14767" x1="385" y1="110" x2="385" y2="144" gradientUnits="userSpaceOnUse">
<stop stop-color="white" stop-opacity="0"/>
<stop offset="1" stop-color="white" stop-opacity="0.15"/>
</linearGradient>
<linearGradient id="paint4_linear_647_14767" x1="385" y1="110" x2="385" y2="144" gradientUnits="userSpaceOnUse">
<stop stop-color="#4E4E4E"/>
<stop offset="1" stop-color="#383737"/>
</linearGradient>
<linearGradient id="paint5_linear_647_14767" x1="129.5" y1="196" x2="129.5" y2="230" gradientUnits="userSpaceOnUse">
<stop stop-color="#E5FFFE"/>
<stop offset="1" stop-color="#99FFFC"/>
</linearGradient>
<linearGradient id="paint6_linear_647_14767" x1="309" y1="196" x2="309" y2="230" gradientUnits="userSpaceOnUse">
<stop stop-color="#E5FFFE"/>
<stop offset="1" stop-color="#99FFFC"/>
</linearGradient>
<linearGradient id="paint7_linear_647_14767" x1="477" y1="196" x2="477" y2="230" gradientUnits="userSpaceOnUse">
<stop stop-color="#E5FFFE"/>
<stop offset="1" stop-color="#99FFFC"/>
</linearGradient>
<linearGradient id="paint8_linear_647_14767" x1="640.5" y1="196" x2="640.5" y2="230" gradientUnits="userSpaceOnUse">
<stop stop-color="#E5FFFE"/>
<stop offset="1" stop-color="#99FFFC"/>
</linearGradient>
</defs>
</svg>
