<svg width="757" height="168" viewBox="0 0 757 168" fill="none" xmlns="http://www.w3.org/2000/svg">
<rect width="756" height="168" rx="16" fill="url(#paint0_linear_800_10541)"/>
<rect x="38.5" y="0.5" width="718" height="167" rx="15.5" fill="#101313" stroke="#303F41"/>
<rect x="396.5" y="24.5" width="77" height="33" rx="5.5" fill="url(#paint1_linear_800_10541)"/>
<rect x="396.5" y="24.5" width="77" height="33" rx="5.5" stroke="url(#paint2_linear_800_10541)"/>
<path d="M418.513 46.168C417.561 46.168 416.735 45.958 416.035 45.538C415.344 45.1087 414.812 44.516 414.439 43.76C414.066 42.9947 413.879 42.108 413.879 41.1C413.879 40.092 414.066 39.21 414.439 38.454C414.812 37.6887 415.344 37.096 416.035 36.676C416.735 36.2467 417.561 36.032 418.513 36.032C419.633 36.032 420.543 36.298 421.243 36.83C421.943 37.362 422.391 38.1133 422.587 39.084H421.285C421.136 38.4773 420.832 37.992 420.375 37.628C419.918 37.2547 419.297 37.068 418.513 37.068C417.813 37.068 417.206 37.2313 416.693 37.558C416.18 37.8753 415.783 38.3373 415.503 38.944C415.223 39.5413 415.083 40.26 415.083 41.1C415.083 41.94 415.223 42.6633 415.503 43.27C415.783 43.8673 416.18 44.3293 416.693 44.656C417.206 44.9733 417.813 45.132 418.513 45.132C419.297 45.132 419.918 44.9547 420.375 44.6C420.832 44.236 421.136 43.7553 421.285 43.158H422.587C422.391 44.1007 421.943 44.838 421.243 45.37C420.543 45.902 419.633 46.168 418.513 46.168ZM424.222 46V38.944H425.286L425.37 40.288C425.529 39.9707 425.73 39.7 425.972 39.476C426.224 39.252 426.523 39.0793 426.868 38.958C427.223 38.8367 427.624 38.776 428.072 38.776V40.008H427.638C427.34 40.008 427.055 40.05 426.784 40.134C426.514 40.2087 426.271 40.3347 426.056 40.512C425.851 40.6893 425.688 40.932 425.566 41.24C425.454 41.5387 425.398 41.912 425.398 42.36V46H424.222ZM432.238 46.168C431.575 46.168 430.987 46.014 430.474 45.706C429.97 45.398 429.573 44.9687 429.284 44.418C428.995 43.858 428.85 43.2093 428.85 42.472C428.85 41.7253 428.99 41.0767 429.27 40.526C429.559 39.9753 429.961 39.546 430.474 39.238C430.997 38.93 431.594 38.776 432.266 38.776C432.957 38.776 433.54 38.93 434.016 39.238C434.501 39.546 434.87 39.952 435.122 40.456C435.383 40.9507 435.514 41.4967 435.514 42.094C435.514 42.1873 435.514 42.2853 435.514 42.388C435.514 42.4907 435.509 42.6073 435.5 42.738H429.732V41.828H434.366C434.338 41.184 434.123 40.68 433.722 40.316C433.33 39.952 432.835 39.77 432.238 39.77C431.837 39.77 431.463 39.8633 431.118 40.05C430.782 40.2273 430.511 40.4933 430.306 40.848C430.101 41.1933 429.998 41.6273 429.998 42.15V42.542C429.998 43.1207 430.101 43.606 430.306 43.998C430.521 44.39 430.796 44.684 431.132 44.88C431.477 45.076 431.846 45.174 432.238 45.174C432.733 45.174 433.139 45.0667 433.456 44.852C433.783 44.628 434.016 44.3293 434.156 43.956H435.318C435.206 44.376 435.01 44.754 434.73 45.09C434.45 45.426 434.1 45.692 433.68 45.888C433.269 46.0747 432.789 46.168 432.238 46.168ZM439.397 46.168C438.828 46.168 438.352 46.07 437.969 45.874C437.586 45.6687 437.302 45.4027 437.115 45.076C436.928 44.74 436.835 44.376 436.835 43.984C436.835 43.508 436.956 43.1067 437.199 42.78C437.451 42.444 437.801 42.192 438.249 42.024C438.706 41.8467 439.243 41.758 439.859 41.758H441.721C441.721 41.3193 441.651 40.9553 441.511 40.666C441.38 40.3673 441.184 40.1433 440.923 39.994C440.671 39.8447 440.354 39.77 439.971 39.77C439.523 39.77 439.136 39.882 438.809 40.106C438.482 40.33 438.282 40.6613 438.207 41.1H437.003C437.059 40.596 437.227 40.176 437.507 39.84C437.796 39.4947 438.16 39.2333 438.599 39.056C439.038 38.8693 439.495 38.776 439.971 38.776C440.624 38.776 441.166 38.8973 441.595 39.14C442.034 39.3733 442.36 39.7047 442.575 40.134C442.79 40.554 442.897 41.0533 442.897 41.632V46H441.847L441.777 44.754C441.684 44.95 441.562 45.1367 441.413 45.314C441.273 45.482 441.105 45.6313 440.909 45.762C440.713 45.8833 440.489 45.9813 440.237 46.056C439.994 46.1307 439.714 46.168 439.397 46.168ZM439.579 45.174C439.906 45.174 440.2 45.1087 440.461 44.978C440.732 44.838 440.96 44.6513 441.147 44.418C441.334 44.1753 441.474 43.9093 441.567 43.62C441.67 43.3307 441.721 43.0273 441.721 42.71V42.668H439.957C439.5 42.668 439.131 42.724 438.851 42.836C438.571 42.9387 438.37 43.088 438.249 43.284C438.128 43.4707 438.067 43.6853 438.067 43.928C438.067 44.18 438.123 44.3993 438.235 44.586C438.356 44.7727 438.529 44.9173 438.753 45.02C438.986 45.1227 439.262 45.174 439.579 45.174ZM447.297 46C446.877 46 446.513 45.9347 446.205 45.804C445.897 45.6733 445.659 45.454 445.491 45.146C445.332 44.8287 445.253 44.404 445.253 43.872V39.938H444.021V38.944H445.253L445.407 37.236H446.429V38.944H448.473V39.938H446.429V43.872C446.429 44.3107 446.518 44.6093 446.695 44.768C446.872 44.9173 447.185 44.992 447.633 44.992H448.389V46H447.297ZM452.91 46.168C452.247 46.168 451.659 46.014 451.146 45.706C450.642 45.398 450.245 44.9687 449.956 44.418C449.667 43.858 449.522 43.2093 449.522 42.472C449.522 41.7253 449.662 41.0767 449.942 40.526C450.231 39.9753 450.633 39.546 451.146 39.238C451.669 38.93 452.266 38.776 452.938 38.776C453.629 38.776 454.212 38.93 454.688 39.238C455.173 39.546 455.542 39.952 455.794 40.456C456.055 40.9507 456.186 41.4967 456.186 42.094C456.186 42.1873 456.186 42.2853 456.186 42.388C456.186 42.4907 456.181 42.6073 456.172 42.738H450.404V41.828H455.038C455.01 41.184 454.795 40.68 454.394 40.316C454.002 39.952 453.507 39.77 452.91 39.77C452.509 39.77 452.135 39.8633 451.79 40.05C451.454 40.2273 451.183 40.4933 450.978 40.848C450.773 41.1933 450.67 41.6273 450.67 42.15V42.542C450.67 43.1207 450.773 43.606 450.978 43.998C451.193 44.39 451.468 44.684 451.804 44.88C452.149 45.076 452.518 45.174 452.91 45.174C453.405 45.174 453.811 45.0667 454.128 44.852C454.455 44.628 454.688 44.3293 454.828 43.956H455.99C455.878 44.376 455.682 44.754 455.402 45.09C455.122 45.426 454.772 45.692 454.352 45.888C453.941 46.0747 453.461 46.168 452.91 46.168Z" fill="white" fill-opacity="0.8"/>
<rect x="481.5" y="24.5" width="82" height="33" rx="5.5" fill="url(#paint3_linear_800_10541)"/>
<rect x="481.5" y="24.5" width="82" height="33" rx="5.5" stroke="url(#paint4_linear_800_10541)"/>
<path d="M499.091 46V36.2H502.255C503.02 36.2 503.646 36.3307 504.131 36.592C504.616 36.844 504.976 37.1847 505.209 37.614C505.442 38.0433 505.559 38.5287 505.559 39.07C505.559 39.5927 505.438 40.0733 505.195 40.512C504.962 40.9507 504.598 41.3007 504.103 41.562C503.608 41.8233 502.974 41.954 502.199 41.954H500.267V46H499.091ZM504.271 46L502.115 41.618H503.431L505.657 46H504.271ZM500.267 41.03H502.171C502.918 41.03 503.464 40.848 503.809 40.484C504.164 40.12 504.341 39.6533 504.341 39.084C504.341 38.5053 504.168 38.048 503.823 37.712C503.487 37.3667 502.932 37.194 502.157 37.194H500.267V41.03ZM510.004 46.168C509.341 46.168 508.753 46.014 508.24 45.706C507.736 45.398 507.339 44.9687 507.05 44.418C506.76 43.858 506.616 43.2093 506.616 42.472C506.616 41.7253 506.756 41.0767 507.036 40.526C507.325 39.9753 507.726 39.546 508.24 39.238C508.762 38.93 509.36 38.776 510.032 38.776C510.722 38.776 511.306 38.93 511.782 39.238C512.267 39.546 512.636 39.952 512.888 40.456C513.149 40.9507 513.28 41.4967 513.28 42.094C513.28 42.1873 513.28 42.2853 513.28 42.388C513.28 42.4907 513.275 42.6073 513.266 42.738H507.498V41.828H512.132C512.104 41.184 511.889 40.68 511.488 40.316C511.096 39.952 510.601 39.77 510.004 39.77C509.602 39.77 509.229 39.8633 508.884 40.05C508.548 40.2273 508.277 40.4933 508.072 40.848C507.866 41.1933 507.764 41.6273 507.764 42.15V42.542C507.764 43.1207 507.866 43.606 508.072 43.998C508.286 44.39 508.562 44.684 508.898 44.88C509.243 45.076 509.612 45.174 510.004 45.174C510.498 45.174 510.904 45.0667 511.222 44.852C511.548 44.628 511.782 44.3293 511.922 43.956H513.084C512.972 44.376 512.776 44.754 512.496 45.09C512.216 45.426 511.866 45.692 511.446 45.888C511.035 46.0747 510.554 46.168 510.004 46.168ZM517.527 46.168C516.939 46.168 516.425 46.07 515.987 45.874C515.557 45.678 515.212 45.4073 514.951 45.062C514.699 44.7073 514.545 44.292 514.489 43.816H515.693C515.739 44.0587 515.837 44.2827 515.987 44.488C516.136 44.6933 516.337 44.8613 516.589 44.992C516.85 45.1133 517.167 45.174 517.541 45.174C517.867 45.174 518.138 45.1273 518.353 45.034C518.567 44.9313 518.726 44.796 518.829 44.628C518.941 44.46 518.997 44.278 518.997 44.082C518.997 43.7927 518.927 43.5733 518.787 43.424C518.656 43.2747 518.46 43.158 518.199 43.074C517.937 42.9807 517.62 42.9013 517.247 42.836C516.939 42.78 516.635 42.7053 516.337 42.612C516.038 42.5187 515.772 42.3973 515.539 42.248C515.305 42.0893 515.119 41.898 514.979 41.674C514.848 41.45 514.783 41.1747 514.783 40.848C514.783 40.4467 514.885 40.092 515.091 39.784C515.296 39.4667 515.59 39.2193 515.973 39.042C516.365 38.8647 516.817 38.776 517.331 38.776C518.087 38.776 518.698 38.958 519.165 39.322C519.631 39.686 519.907 40.2133 519.991 40.904H518.829C518.782 40.5493 518.628 40.274 518.367 40.078C518.115 39.8727 517.765 39.77 517.317 39.77C516.878 39.77 516.542 39.8587 516.309 40.036C516.085 40.2133 515.973 40.4467 515.973 40.736C515.973 40.9227 516.033 41.0907 516.155 41.24C516.285 41.38 516.472 41.5013 516.715 41.604C516.967 41.7067 517.275 41.7907 517.639 41.856C518.105 41.94 518.53 42.052 518.913 42.192C519.295 42.332 519.603 42.542 519.837 42.822C520.079 43.0927 520.201 43.48 520.201 43.984C520.201 44.4227 520.089 44.8053 519.865 45.132C519.65 45.4587 519.342 45.7153 518.941 45.902C518.539 46.0793 518.068 46.168 517.527 46.168ZM521.894 46V35.92H523.07V46H521.894ZM528.161 46.168C527.508 46.168 526.92 46.0187 526.397 45.72C525.875 45.412 525.464 44.9827 525.165 44.432C524.867 43.872 524.717 43.2233 524.717 42.486C524.717 41.73 524.867 41.0767 525.165 40.526C525.473 39.966 525.889 39.5367 526.411 39.238C526.943 38.93 527.536 38.776 528.189 38.776C528.861 38.776 529.454 38.93 529.967 39.238C530.49 39.5367 530.901 39.966 531.199 40.526C531.507 41.0767 531.661 41.7253 531.661 42.472C531.661 43.2187 531.507 43.872 531.199 44.432C530.891 44.9827 530.476 45.412 529.953 45.72C529.431 46.0187 528.833 46.168 528.161 46.168ZM528.175 45.16C528.577 45.16 528.95 45.062 529.295 44.866C529.641 44.6607 529.921 44.3573 530.135 43.956C530.35 43.5547 530.457 43.06 530.457 42.472C530.457 41.8747 530.35 41.38 530.135 40.988C529.93 40.5867 529.655 40.288 529.309 40.092C528.973 39.8867 528.6 39.784 528.189 39.784C527.797 39.784 527.424 39.8867 527.069 40.092C526.724 40.288 526.444 40.5867 526.229 40.988C526.024 41.38 525.921 41.8747 525.921 42.472C525.921 43.06 526.024 43.5547 526.229 43.956C526.444 44.3573 526.719 44.6607 527.055 44.866C527.401 45.062 527.774 45.16 528.175 45.16ZM534.985 46L532.311 38.944H533.543L535.671 44.866L537.813 38.944H539.017L536.343 46H534.985ZM543.076 46.168C542.413 46.168 541.825 46.014 541.312 45.706C540.808 45.398 540.411 44.9687 540.122 44.418C539.833 43.858 539.688 43.2093 539.688 42.472C539.688 41.7253 539.828 41.0767 540.108 40.526C540.397 39.9753 540.799 39.546 541.312 39.238C541.835 38.93 542.432 38.776 543.104 38.776C543.795 38.776 544.378 38.93 544.854 39.238C545.339 39.546 545.708 39.952 545.96 40.456C546.221 40.9507 546.352 41.4967 546.352 42.094C546.352 42.1873 546.352 42.2853 546.352 42.388C546.352 42.4907 546.347 42.6073 546.338 42.738H540.57V41.828H545.204C545.176 41.184 544.961 40.68 544.56 40.316C544.168 39.952 543.673 39.77 543.076 39.77C542.675 39.77 542.301 39.8633 541.956 40.05C541.62 40.2273 541.349 40.4933 541.144 40.848C540.939 41.1933 540.836 41.6273 540.836 42.15V42.542C540.836 43.1207 540.939 43.606 541.144 43.998C541.359 44.39 541.634 44.684 541.97 44.88C542.315 45.076 542.684 45.174 543.076 45.174C543.571 45.174 543.977 45.0667 544.294 44.852C544.621 44.628 544.854 44.3293 544.994 43.956H546.156C546.044 44.376 545.848 44.754 545.568 45.09C545.288 45.426 544.938 45.692 544.518 45.888C544.107 46.0747 543.627 46.168 543.076 46.168Z" fill="white" fill-opacity="0.8"/>
<rect x="583.5" y="24.5" width="114" height="33" rx="5.5" fill="url(#paint5_linear_800_10541)"/>
<rect x="583.5" y="24.5" width="114" height="33" rx="5.5" stroke="url(#paint6_linear_800_10541)"/>
<path d="M601.341 46V36.2H604.505C605.27 36.2 605.896 36.3307 606.381 36.592C606.866 36.844 607.226 37.1847 607.459 37.614C607.692 38.0433 607.809 38.5287 607.809 39.07C607.809 39.5927 607.688 40.0733 607.445 40.512C607.212 40.9507 606.848 41.3007 606.353 41.562C605.858 41.8233 605.224 41.954 604.449 41.954H602.517V46H601.341ZM606.521 46L604.365 41.618H605.681L607.907 46H606.521ZM602.517 41.03H604.421C605.168 41.03 605.714 40.848 606.059 40.484C606.414 40.12 606.591 39.6533 606.591 39.084C606.591 38.5053 606.418 38.048 606.073 37.712C605.737 37.3667 605.182 37.194 604.407 37.194H602.517V41.03ZM612.254 46.168C611.591 46.168 611.003 46.014 610.49 45.706C609.986 45.398 609.589 44.9687 609.3 44.418C609.01 43.858 608.866 43.2093 608.866 42.472C608.866 41.7253 609.006 41.0767 609.286 40.526C609.575 39.9753 609.976 39.546 610.49 39.238C611.012 38.93 611.61 38.776 612.282 38.776C612.972 38.776 613.556 38.93 614.032 39.238C614.517 39.546 614.886 39.952 615.138 40.456C615.399 40.9507 615.53 41.4967 615.53 42.094C615.53 42.1873 615.53 42.2853 615.53 42.388C615.53 42.4907 615.525 42.6073 615.516 42.738H609.748V41.828H614.382C614.354 41.184 614.139 40.68 613.738 40.316C613.346 39.952 612.851 39.77 612.254 39.77C611.852 39.77 611.479 39.8633 611.134 40.05C610.798 40.2273 610.527 40.4933 610.322 40.848C610.116 41.1933 610.014 41.6273 610.014 42.15V42.542C610.014 43.1207 610.116 43.606 610.322 43.998C610.536 44.39 610.812 44.684 611.148 44.88C611.493 45.076 611.862 45.174 612.254 45.174C612.748 45.174 613.154 45.0667 613.472 44.852C613.798 44.628 614.032 44.3293 614.172 43.956H615.334C615.222 44.376 615.026 44.754 614.746 45.09C614.466 45.426 614.116 45.692 613.696 45.888C613.285 46.0747 612.804 46.168 612.254 46.168ZM617.117 49.08V38.944H618.181L618.279 40.092C618.428 39.868 618.619 39.658 618.853 39.462C619.086 39.2567 619.366 39.0933 619.693 38.972C620.019 38.8413 620.393 38.776 620.813 38.776C621.503 38.776 622.101 38.9393 622.605 39.266C623.118 39.5927 623.515 40.036 623.795 40.596C624.084 41.1467 624.229 41.7767 624.229 42.486C624.229 43.1953 624.084 43.83 623.795 44.39C623.515 44.9407 623.118 45.3747 622.605 45.692C622.091 46.0093 621.489 46.168 620.799 46.168C620.229 46.168 619.725 46.0513 619.287 45.818C618.857 45.5847 618.526 45.258 618.293 44.838V49.08H617.117ZM620.673 45.146C621.13 45.146 621.536 45.034 621.891 44.81C622.245 44.586 622.521 44.278 622.717 43.886C622.922 43.4847 623.025 43.0133 623.025 42.472C623.025 41.94 622.922 41.4733 622.717 41.072C622.521 40.6707 622.245 40.358 621.891 40.134C621.536 39.91 621.13 39.798 620.673 39.798C620.206 39.798 619.795 39.91 619.441 40.134C619.086 40.358 618.811 40.6707 618.615 41.072C618.419 41.4733 618.321 41.94 618.321 42.472C618.321 43.0133 618.419 43.4847 618.615 43.886C618.811 44.278 619.086 44.586 619.441 44.81C619.795 45.034 620.206 45.146 620.673 45.146ZM629.03 46.168C628.377 46.168 627.789 46.0187 627.266 45.72C626.744 45.412 626.333 44.9827 626.034 44.432C625.736 43.872 625.586 43.2233 625.586 42.486C625.586 41.73 625.736 41.0767 626.034 40.526C626.342 39.966 626.758 39.5367 627.28 39.238C627.812 38.93 628.405 38.776 629.058 38.776C629.73 38.776 630.323 38.93 630.836 39.238C631.359 39.5367 631.77 39.966 632.068 40.526C632.376 41.0767 632.53 41.7253 632.53 42.472C632.53 43.2187 632.376 43.872 632.068 44.432C631.76 44.9827 631.345 45.412 630.822 45.72C630.3 46.0187 629.702 46.168 629.03 46.168ZM629.044 45.16C629.446 45.16 629.819 45.062 630.164 44.866C630.51 44.6607 630.79 44.3573 631.004 43.956C631.219 43.5547 631.326 43.06 631.326 42.472C631.326 41.8747 631.219 41.38 631.004 40.988C630.799 40.5867 630.524 40.288 630.178 40.092C629.842 39.8867 629.469 39.784 629.058 39.784C628.666 39.784 628.293 39.8867 627.938 40.092C627.593 40.288 627.313 40.5867 627.098 40.988C626.893 41.38 626.79 41.8747 626.79 42.472C626.79 43.06 626.893 43.5547 627.098 43.956C627.313 44.3573 627.588 44.6607 627.924 44.866C628.27 45.062 628.643 45.16 629.044 45.16ZM636.839 46.168C636.251 46.168 635.738 46.07 635.299 45.874C634.87 45.678 634.525 45.4073 634.263 45.062C634.011 44.7073 633.857 44.292 633.801 43.816H635.005C635.052 44.0587 635.15 44.2827 635.299 44.488C635.449 44.6933 635.649 44.8613 635.901 44.992C636.163 45.1133 636.48 45.174 636.853 45.174C637.18 45.174 637.451 45.1273 637.665 45.034C637.88 44.9313 638.039 44.796 638.141 44.628C638.253 44.46 638.309 44.278 638.309 44.082C638.309 43.7927 638.239 43.5733 638.099 43.424C637.969 43.2747 637.773 43.158 637.511 43.074C637.25 42.9807 636.933 42.9013 636.559 42.836C636.251 42.78 635.948 42.7053 635.649 42.612C635.351 42.5187 635.085 42.3973 634.851 42.248C634.618 42.0893 634.431 41.898 634.291 41.674C634.161 41.45 634.095 41.1747 634.095 40.848C634.095 40.4467 634.198 40.092 634.403 39.784C634.609 39.4667 634.903 39.2193 635.285 39.042C635.677 38.8647 636.13 38.776 636.643 38.776C637.399 38.776 638.011 38.958 638.477 39.322C638.944 39.686 639.219 40.2133 639.303 40.904H638.141C638.095 40.5493 637.941 40.274 637.679 40.078C637.427 39.8727 637.077 39.77 636.629 39.77C636.191 39.77 635.855 39.8587 635.621 40.036C635.397 40.2133 635.285 40.4467 635.285 40.736C635.285 40.9227 635.346 41.0907 635.467 41.24C635.598 41.38 635.785 41.5013 636.027 41.604C636.279 41.7067 636.587 41.7907 636.951 41.856C637.418 41.94 637.843 42.052 638.225 42.192C638.608 42.332 638.916 42.542 639.149 42.822C639.392 43.0927 639.513 43.48 639.513 43.984C639.513 44.4227 639.401 44.8053 639.177 45.132C638.963 45.4587 638.655 45.7153 638.253 45.902C637.852 46.0793 637.381 46.168 636.839 46.168ZM641.319 46V38.944H642.495V46H641.319ZM641.907 37.446C641.673 37.446 641.477 37.3713 641.319 37.222C641.169 37.0633 641.095 36.8673 641.095 36.634C641.095 36.4007 641.169 36.214 641.319 36.074C641.477 35.9247 641.673 35.85 641.907 35.85C642.131 35.85 642.322 35.9247 642.481 36.074C642.639 36.214 642.719 36.4007 642.719 36.634C642.719 36.8673 642.639 37.0633 642.481 37.222C642.322 37.3713 642.131 37.446 641.907 37.446ZM647.342 46C646.922 46 646.558 45.9347 646.25 45.804C645.942 45.6733 645.704 45.454 645.536 45.146C645.377 44.8287 645.298 44.404 645.298 43.872V39.938H644.066V38.944H645.298L645.452 37.236H646.474V38.944H648.518V39.938H646.474V43.872C646.474 44.3107 646.563 44.6093 646.74 44.768C646.917 44.9173 647.23 44.992 647.678 44.992H648.434V46H647.342ZM653.011 46.168C652.358 46.168 651.77 46.0187 651.247 45.72C650.724 45.412 650.314 44.9827 650.015 44.432C649.716 43.872 649.567 43.2233 649.567 42.486C649.567 41.73 649.716 41.0767 650.015 40.526C650.323 39.966 650.738 39.5367 651.261 39.238C651.793 38.93 652.386 38.776 653.039 38.776C653.711 38.776 654.304 38.93 654.817 39.238C655.34 39.5367 655.75 39.966 656.049 40.526C656.357 41.0767 656.511 41.7253 656.511 42.472C656.511 43.2187 656.357 43.872 656.049 44.432C655.741 44.9827 655.326 45.412 654.803 45.72C654.28 46.0187 653.683 46.168 653.011 46.168ZM653.025 45.16C653.426 45.16 653.8 45.062 654.145 44.866C654.49 44.6607 654.77 44.3573 654.985 43.956C655.2 43.5547 655.307 43.06 655.307 42.472C655.307 41.8747 655.2 41.38 654.985 40.988C654.78 40.5867 654.504 40.288 654.159 40.092C653.823 39.8867 653.45 39.784 653.039 39.784C652.647 39.784 652.274 39.8867 651.919 40.092C651.574 40.288 651.294 40.5867 651.079 40.988C650.874 41.38 650.771 41.8747 650.771 42.472C650.771 43.06 650.874 43.5547 651.079 43.956C651.294 44.3573 651.569 44.6607 651.905 44.866C652.25 45.062 652.624 45.16 653.025 45.16ZM658.16 46V38.944H659.224L659.308 40.288C659.466 39.9707 659.667 39.7 659.91 39.476C660.162 39.252 660.46 39.0793 660.806 38.958C661.16 38.8367 661.562 38.776 662.01 38.776V40.008H661.576C661.277 40.008 660.992 40.05 660.722 40.134C660.451 40.2087 660.208 40.3347 659.994 40.512C659.788 40.6893 659.625 40.932 659.504 41.24C659.392 41.5387 659.336 41.912 659.336 42.36V46H658.16ZM663.453 46V38.944H664.629V46H663.453ZM664.041 37.446C663.808 37.446 663.612 37.3713 663.453 37.222C663.304 37.0633 663.229 36.8673 663.229 36.634C663.229 36.4007 663.304 36.214 663.453 36.074C663.612 35.9247 663.808 35.85 664.041 35.85C664.265 35.85 664.457 35.9247 664.615 36.074C664.774 36.214 664.853 36.4007 664.853 36.634C664.853 36.8673 664.774 37.0633 664.615 37.222C664.457 37.3713 664.265 37.446 664.041 37.446ZM669.799 46.168C669.136 46.168 668.548 46.014 668.035 45.706C667.531 45.398 667.134 44.9687 666.845 44.418C666.555 43.858 666.411 43.2093 666.411 42.472C666.411 41.7253 666.551 41.0767 666.831 40.526C667.12 39.9753 667.521 39.546 668.035 39.238C668.557 38.93 669.155 38.776 669.827 38.776C670.517 38.776 671.101 38.93 671.577 39.238C672.062 39.546 672.431 39.952 672.683 40.456C672.944 40.9507 673.075 41.4967 673.075 42.094C673.075 42.1873 673.075 42.2853 673.075 42.388C673.075 42.4907 673.07 42.6073 673.061 42.738H667.293V41.828H671.927C671.899 41.184 671.684 40.68 671.283 40.316C670.891 39.952 670.396 39.77 669.799 39.77C669.397 39.77 669.024 39.8633 668.679 40.05C668.343 40.2273 668.072 40.4933 667.867 40.848C667.661 41.1933 667.559 41.6273 667.559 42.15V42.542C667.559 43.1207 667.661 43.606 667.867 43.998C668.081 44.39 668.357 44.684 668.693 44.88C669.038 45.076 669.407 45.174 669.799 45.174C670.293 45.174 670.699 45.0667 671.017 44.852C671.343 44.628 671.577 44.3293 671.717 43.956H672.879C672.767 44.376 672.571 44.754 672.291 45.09C672.011 45.426 671.661 45.692 671.241 45.888C670.83 46.0747 670.349 46.168 669.799 46.168ZM677.322 46.168C676.734 46.168 676.22 46.07 675.782 45.874C675.352 45.678 675.007 45.4073 674.746 45.062C674.494 44.7073 674.34 44.292 674.284 43.816H675.488C675.534 44.0587 675.632 44.2827 675.782 44.488C675.931 44.6933 676.132 44.8613 676.384 44.992C676.645 45.1133 676.962 45.174 677.336 45.174C677.662 45.174 677.933 45.1273 678.148 45.034C678.362 44.9313 678.521 44.796 678.624 44.628C678.736 44.46 678.792 44.278 678.792 44.082C678.792 43.7927 678.722 43.5733 678.582 43.424C678.451 43.2747 678.255 43.158 677.994 43.074C677.732 42.9807 677.415 42.9013 677.042 42.836C676.734 42.78 676.43 42.7053 676.132 42.612C675.833 42.5187 675.567 42.3973 675.334 42.248C675.1 42.0893 674.914 41.898 674.774 41.674C674.643 41.45 674.578 41.1747 674.578 40.848C674.578 40.4467 674.68 40.092 674.886 39.784C675.091 39.4667 675.385 39.2193 675.768 39.042C676.16 38.8647 676.612 38.776 677.126 38.776C677.882 38.776 678.493 38.958 678.96 39.322C679.426 39.686 679.702 40.2133 679.786 40.904H678.624C678.577 40.5493 678.423 40.274 678.162 40.078C677.91 39.8727 677.56 39.77 677.112 39.77C676.673 39.77 676.337 39.8587 676.104 40.036C675.88 40.2133 675.768 40.4467 675.768 40.736C675.768 40.9227 675.828 41.0907 675.95 41.24C676.08 41.38 676.267 41.5013 676.51 41.604C676.762 41.7067 677.07 41.7907 677.434 41.856C677.9 41.94 678.325 42.052 678.708 42.192C679.09 42.332 679.398 42.542 679.632 42.822C679.874 43.0927 679.996 43.48 679.996 43.984C679.996 44.4227 679.884 44.8053 679.66 45.132C679.445 45.4587 679.137 45.7153 678.736 45.902C678.334 46.0793 677.863 46.168 677.322 46.168Z" fill="white" fill-opacity="0.8"/>
<rect x="251.5" y="24.5" width="116" height="33" rx="5.5" fill="url(#paint7_linear_800_10541)"/>
<rect x="251.5" y="24.5" width="116" height="33" rx="5.5" stroke="url(#paint8_linear_800_10541)"/>
<path d="M269.165 46V36.2H272.357C273.132 36.2 273.767 36.3307 274.261 36.592C274.765 36.844 275.134 37.1847 275.367 37.614C275.61 38.0433 275.731 38.5333 275.731 39.084C275.731 39.616 275.61 40.1013 275.367 40.54C275.134 40.9693 274.77 41.3147 274.275 41.576C273.781 41.8373 273.141 41.968 272.357 41.968H270.341V46H269.165ZM270.341 40.974H272.343C273.127 40.974 273.687 40.8013 274.023 40.456C274.359 40.1107 274.527 39.6533 274.527 39.084C274.527 38.4773 274.359 38.0107 274.023 37.684C273.687 37.348 273.127 37.18 272.343 37.18H270.341V40.974ZM279.9 46.168C279.238 46.168 278.65 46.014 278.136 45.706C277.632 45.398 277.236 44.9687 276.946 44.418C276.657 43.858 276.512 43.2093 276.512 42.472C276.512 41.7253 276.652 41.0767 276.932 40.526C277.222 39.9753 277.623 39.546 278.136 39.238C278.659 38.93 279.256 38.776 279.928 38.776C280.619 38.776 281.202 38.93 281.678 39.238C282.164 39.546 282.532 39.952 282.784 40.456C283.046 40.9507 283.176 41.4967 283.176 42.094C283.176 42.1873 283.176 42.2853 283.176 42.388C283.176 42.4907 283.172 42.6073 283.162 42.738H277.394V41.828H282.028C282 41.184 281.786 40.68 281.384 40.316C280.992 39.952 280.498 39.77 279.9 39.77C279.499 39.77 279.126 39.8633 278.78 40.05C278.444 40.2273 278.174 40.4933 277.968 40.848C277.763 41.1933 277.66 41.6273 277.66 42.15V42.542C277.66 43.1207 277.763 43.606 277.968 43.998C278.183 44.39 278.458 44.684 278.794 44.88C279.14 45.076 279.508 45.174 279.9 45.174C280.395 45.174 280.801 45.0667 281.118 44.852C281.445 44.628 281.678 44.3293 281.818 43.956H282.98C282.868 44.376 282.672 44.754 282.392 45.09C282.112 45.426 281.762 45.692 281.342 45.888C280.932 46.0747 280.451 46.168 279.9 46.168ZM284.763 46V38.944H285.827L285.911 40.288C286.07 39.9707 286.271 39.7 286.513 39.476C286.765 39.252 287.064 39.0793 287.409 38.958C287.764 38.8367 288.165 38.776 288.613 38.776V40.008H288.179C287.881 40.008 287.596 40.05 287.325 40.134C287.055 40.2087 286.812 40.3347 286.597 40.512C286.392 40.6893 286.229 40.932 286.107 41.24C285.995 41.5387 285.939 41.912 285.939 42.36V46H284.763ZM292.605 46.168C292.017 46.168 291.504 46.07 291.065 45.874C290.636 45.678 290.29 45.4073 290.029 45.062C289.777 44.7073 289.623 44.292 289.567 43.816H290.771C290.818 44.0587 290.916 44.2827 291.065 44.488C291.214 44.6933 291.415 44.8613 291.667 44.992C291.928 45.1133 292.246 45.174 292.619 45.174C292.946 45.174 293.216 45.1273 293.431 45.034C293.646 44.9313 293.804 44.796 293.907 44.628C294.019 44.46 294.075 44.278 294.075 44.082C294.075 43.7927 294.005 43.5733 293.865 43.424C293.734 43.2747 293.538 43.158 293.277 43.074C293.016 42.9807 292.698 42.9013 292.325 42.836C292.017 42.78 291.714 42.7053 291.415 42.612C291.116 42.5187 290.85 42.3973 290.617 42.248C290.384 42.0893 290.197 41.898 290.057 41.674C289.926 41.45 289.861 41.1747 289.861 40.848C289.861 40.4467 289.964 40.092 290.169 39.784C290.374 39.4667 290.668 39.2193 291.051 39.042C291.443 38.8647 291.896 38.776 292.409 38.776C293.165 38.776 293.776 38.958 294.243 39.322C294.71 39.686 294.985 40.2133 295.069 40.904H293.907C293.86 40.5493 293.706 40.274 293.445 40.078C293.193 39.8727 292.843 39.77 292.395 39.77C291.956 39.77 291.62 39.8587 291.387 40.036C291.163 40.2133 291.051 40.4467 291.051 40.736C291.051 40.9227 291.112 41.0907 291.233 41.24C291.364 41.38 291.55 41.5013 291.793 41.604C292.045 41.7067 292.353 41.7907 292.717 41.856C293.184 41.94 293.608 42.052 293.991 42.192C294.374 42.332 294.682 42.542 294.915 42.822C295.158 43.0927 295.279 43.48 295.279 43.984C295.279 44.4227 295.167 44.8053 294.943 45.132C294.728 45.4587 294.42 45.7153 294.019 45.902C293.618 46.0793 293.146 46.168 292.605 46.168ZM300.122 46.168C299.469 46.168 298.881 46.0187 298.358 45.72C297.836 45.412 297.425 44.9827 297.126 44.432C296.828 43.872 296.678 43.2233 296.678 42.486C296.678 41.73 296.828 41.0767 297.126 40.526C297.434 39.966 297.85 39.5367 298.372 39.238C298.904 38.93 299.497 38.776 300.15 38.776C300.822 38.776 301.415 38.93 301.928 39.238C302.451 39.5367 302.862 39.966 303.16 40.526C303.468 41.0767 303.622 41.7253 303.622 42.472C303.622 43.2187 303.468 43.872 303.16 44.432C302.852 44.9827 302.437 45.412 301.914 45.72C301.392 46.0187 300.794 46.168 300.122 46.168ZM300.136 45.16C300.538 45.16 300.911 45.062 301.256 44.866C301.602 44.6607 301.882 44.3573 302.096 43.956C302.311 43.5547 302.418 43.06 302.418 42.472C302.418 41.8747 302.311 41.38 302.096 40.988C301.891 40.5867 301.616 40.288 301.27 40.092C300.934 39.8867 300.561 39.784 300.15 39.784C299.758 39.784 299.385 39.8867 299.03 40.092C298.685 40.288 298.405 40.5867 298.19 40.988C297.985 41.38 297.882 41.8747 297.882 42.472C297.882 43.06 297.985 43.5547 298.19 43.956C298.405 44.3573 298.68 44.6607 299.016 44.866C299.362 45.062 299.735 45.16 300.136 45.16ZM305.271 46V38.944H306.335L306.391 40.176C306.615 39.7373 306.932 39.3967 307.343 39.154C307.763 38.902 308.239 38.776 308.771 38.776C309.322 38.776 309.798 38.888 310.199 39.112C310.6 39.3267 310.913 39.658 311.137 40.106C311.361 40.5447 311.473 41.1047 311.473 41.786V46H310.297V41.912C310.297 41.2027 310.138 40.6707 309.821 40.316C309.513 39.9613 309.074 39.784 308.505 39.784C308.113 39.784 307.763 39.882 307.455 40.078C307.147 40.2647 306.9 40.54 306.713 40.904C306.536 41.2587 306.447 41.702 306.447 42.234V46H305.271ZM315.606 46.168C315.037 46.168 314.561 46.07 314.178 45.874C313.795 45.6687 313.511 45.4027 313.324 45.076C313.137 44.74 313.044 44.376 313.044 43.984C313.044 43.508 313.165 43.1067 313.408 42.78C313.66 42.444 314.01 42.192 314.458 42.024C314.915 41.8467 315.452 41.758 316.068 41.758H317.93C317.93 41.3193 317.86 40.9553 317.72 40.666C317.589 40.3673 317.393 40.1433 317.132 39.994C316.88 39.8447 316.563 39.77 316.18 39.77C315.732 39.77 315.345 39.882 315.018 40.106C314.691 40.33 314.491 40.6613 314.416 41.1H313.212C313.268 40.596 313.436 40.176 313.716 39.84C314.005 39.4947 314.369 39.2333 314.808 39.056C315.247 38.8693 315.704 38.776 316.18 38.776C316.833 38.776 317.375 38.8973 317.804 39.14C318.243 39.3733 318.569 39.7047 318.784 40.134C318.999 40.554 319.106 41.0533 319.106 41.632V46H318.056L317.986 44.754C317.893 44.95 317.771 45.1367 317.622 45.314C317.482 45.482 317.314 45.6313 317.118 45.762C316.922 45.8833 316.698 45.9813 316.446 46.056C316.203 46.1307 315.923 46.168 315.606 46.168ZM315.788 45.174C316.115 45.174 316.409 45.1087 316.67 44.978C316.941 44.838 317.169 44.6513 317.356 44.418C317.543 44.1753 317.683 43.9093 317.776 43.62C317.879 43.3307 317.93 43.0273 317.93 42.71V42.668H316.166C315.709 42.668 315.34 42.724 315.06 42.836C314.78 42.9387 314.579 43.088 314.458 43.284C314.337 43.4707 314.276 43.6853 314.276 43.928C314.276 44.18 314.332 44.3993 314.444 44.586C314.565 44.7727 314.738 44.9173 314.962 45.02C315.195 45.1227 315.471 45.174 315.788 45.174ZM320.925 46V35.92H322.101V46H320.925ZM327.831 46V36.2H329.007V46H327.831ZM331.043 46V38.944H332.107L332.163 40.176C332.387 39.7373 332.704 39.3967 333.115 39.154C333.535 38.902 334.011 38.776 334.543 38.776C335.093 38.776 335.569 38.888 335.971 39.112C336.372 39.3267 336.685 39.658 336.909 40.106C337.133 40.5447 337.245 41.1047 337.245 41.786V46H336.069V41.912C336.069 41.2027 335.91 40.6707 335.593 40.316C335.285 39.9613 334.846 39.784 334.277 39.784C333.885 39.784 333.535 39.882 333.227 40.078C332.919 40.2647 332.671 40.54 332.485 40.904C332.307 41.2587 332.219 41.702 332.219 42.234V46H331.043ZM339.474 46V37.852C339.474 37.404 339.548 37.04 339.698 36.76C339.847 36.4707 340.066 36.2607 340.356 36.13C340.654 35.99 341.018 35.92 341.448 35.92H342.246V36.928H341.63C341.284 36.928 341.032 36.998 340.874 37.138C340.724 37.278 340.65 37.5253 340.65 37.88V46H339.474ZM338.396 39.938V38.944H342.428V39.938H338.396ZM346.716 46.168C346.063 46.168 345.475 46.0187 344.952 45.72C344.429 45.412 344.019 44.9827 343.72 44.432C343.421 43.872 343.272 43.2233 343.272 42.486C343.272 41.73 343.421 41.0767 343.72 40.526C344.028 39.966 344.443 39.5367 344.966 39.238C345.498 38.93 346.091 38.776 346.744 38.776C347.416 38.776 348.009 38.93 348.522 39.238C349.045 39.5367 349.455 39.966 349.754 40.526C350.062 41.0767 350.216 41.7253 350.216 42.472C350.216 43.2187 350.062 43.872 349.754 44.432C349.446 44.9827 349.031 45.412 348.508 45.72C347.985 46.0187 347.388 46.168 346.716 46.168ZM346.73 45.16C347.131 45.16 347.505 45.062 347.85 44.866C348.195 44.6607 348.475 44.3573 348.69 43.956C348.905 43.5547 349.012 43.06 349.012 42.472C349.012 41.8747 348.905 41.38 348.69 40.988C348.485 40.5867 348.209 40.288 347.864 40.092C347.528 39.8867 347.155 39.784 346.744 39.784C346.352 39.784 345.979 39.8867 345.624 40.092C345.279 40.288 344.999 40.5867 344.784 40.988C344.579 41.38 344.476 41.8747 344.476 42.472C344.476 43.06 344.579 43.5547 344.784 43.956C344.999 44.3573 345.274 44.6607 345.61 44.866C345.955 45.062 346.329 45.16 346.73 45.16Z" fill="white" fill-opacity="0.8"/>
<rect x="445.5" y="110.5" width="64" height="33" rx="5.5" fill="url(#paint9_linear_800_10541)"/>
<rect x="445.5" y="110.5" width="64" height="33" rx="5.5" stroke="url(#paint10_linear_800_10541)"/>
<path d="M463.135 132V122.2H466.299C467.064 122.2 467.69 122.331 468.175 122.592C468.66 122.844 469.02 123.185 469.253 123.614C469.486 124.043 469.603 124.529 469.603 125.07C469.603 125.593 469.482 126.073 469.239 126.512C469.006 126.951 468.642 127.301 468.147 127.562C467.652 127.823 467.018 127.954 466.243 127.954H464.311V132H463.135ZM468.315 132L466.159 127.618H467.475L469.701 132H468.315ZM464.311 127.03H466.215C466.962 127.03 467.508 126.848 467.853 126.484C468.208 126.12 468.385 125.653 468.385 125.084C468.385 124.505 468.212 124.048 467.867 123.712C467.531 123.367 466.976 123.194 466.201 123.194H464.311V127.03ZM473.482 132.168C472.913 132.168 472.437 132.07 472.054 131.874C471.671 131.669 471.387 131.403 471.2 131.076C471.013 130.74 470.92 130.376 470.92 129.984C470.92 129.508 471.041 129.107 471.284 128.78C471.536 128.444 471.886 128.192 472.334 128.024C472.791 127.847 473.328 127.758 473.944 127.758H475.806C475.806 127.319 475.736 126.955 475.596 126.666C475.465 126.367 475.269 126.143 475.008 125.994C474.756 125.845 474.439 125.77 474.056 125.77C473.608 125.77 473.221 125.882 472.894 126.106C472.567 126.33 472.367 126.661 472.292 127.1H471.088C471.144 126.596 471.312 126.176 471.592 125.84C471.881 125.495 472.245 125.233 472.684 125.056C473.123 124.869 473.58 124.776 474.056 124.776C474.709 124.776 475.251 124.897 475.68 125.14C476.119 125.373 476.445 125.705 476.66 126.134C476.875 126.554 476.982 127.053 476.982 127.632V132H475.932L475.862 130.754C475.769 130.95 475.647 131.137 475.498 131.314C475.358 131.482 475.19 131.631 474.994 131.762C474.798 131.883 474.574 131.981 474.322 132.056C474.079 132.131 473.799 132.168 473.482 132.168ZM473.664 131.174C473.991 131.174 474.285 131.109 474.546 130.978C474.817 130.838 475.045 130.651 475.232 130.418C475.419 130.175 475.559 129.909 475.652 129.62C475.755 129.331 475.806 129.027 475.806 128.71V128.668H474.042C473.585 128.668 473.216 128.724 472.936 128.836C472.656 128.939 472.455 129.088 472.334 129.284C472.213 129.471 472.152 129.685 472.152 129.928C472.152 130.18 472.208 130.399 472.32 130.586C472.441 130.773 472.614 130.917 472.838 131.02C473.071 131.123 473.347 131.174 473.664 131.174ZM478.801 132V124.944H479.865L479.921 126.176C480.145 125.737 480.463 125.397 480.873 125.154C481.293 124.902 481.769 124.776 482.301 124.776C482.852 124.776 483.328 124.888 483.729 125.112C484.131 125.327 484.443 125.658 484.667 126.106C484.891 126.545 485.003 127.105 485.003 127.786V132H483.827V127.912C483.827 127.203 483.669 126.671 483.351 126.316C483.043 125.961 482.605 125.784 482.035 125.784C481.643 125.784 481.293 125.882 480.985 126.078C480.677 126.265 480.43 126.54 480.243 126.904C480.066 127.259 479.977 127.702 479.977 128.234V132H478.801ZM491.18 132L487.82 128.136L490.886 124.944H492.328L488.814 128.556L488.828 127.716L492.678 132H491.18ZM486.84 132V121.92H488.016V132H486.84Z" fill="white" fill-opacity="0.8"/>
<rect x="566.5" y="110.5" width="156" height="33" rx="5.5" fill="url(#paint11_linear_800_10541)"/>
<rect x="566.5" y="110.5" width="156" height="33" rx="5.5" stroke="url(#paint12_linear_800_10541)"/>
<path d="M584.115 132V122.2H586.999C588.147 122.2 589.09 122.401 589.827 122.802C590.574 123.194 591.125 123.759 591.479 124.496C591.843 125.224 592.025 126.101 592.025 127.128C592.025 128.136 591.843 129.004 591.479 129.732C591.125 130.46 590.574 131.02 589.827 131.412C589.09 131.804 588.147 132 586.999 132H584.115ZM585.291 131.02H586.971C587.923 131.02 588.679 130.866 589.239 130.558C589.799 130.241 590.201 129.793 590.443 129.214C590.686 128.626 590.807 127.931 590.807 127.128C590.807 126.307 590.686 125.602 590.443 125.014C590.201 124.426 589.799 123.973 589.239 123.656C588.679 123.339 587.923 123.18 586.971 123.18H585.291V131.02ZM596.834 132.168C596.181 132.168 595.593 132.019 595.07 131.72C594.547 131.412 594.137 130.983 593.838 130.432C593.539 129.872 593.39 129.223 593.39 128.486C593.39 127.73 593.539 127.077 593.838 126.526C594.146 125.966 594.561 125.537 595.084 125.238C595.616 124.93 596.209 124.776 596.862 124.776C597.534 124.776 598.127 124.93 598.64 125.238C599.163 125.537 599.573 125.966 599.872 126.526C600.18 127.077 600.334 127.725 600.334 128.472C600.334 129.219 600.18 129.872 599.872 130.432C599.564 130.983 599.149 131.412 598.626 131.72C598.103 132.019 597.506 132.168 596.834 132.168ZM596.848 131.16C597.249 131.16 597.623 131.062 597.968 130.866C598.313 130.661 598.593 130.357 598.808 129.956C599.023 129.555 599.13 129.06 599.13 128.472C599.13 127.875 599.023 127.38 598.808 126.988C598.603 126.587 598.327 126.288 597.982 126.092C597.646 125.887 597.273 125.784 596.862 125.784C596.47 125.784 596.097 125.887 595.742 126.092C595.397 126.288 595.117 126.587 594.902 126.988C594.697 127.38 594.594 127.875 594.594 128.472C594.594 129.06 594.697 129.555 594.902 129.956C595.117 130.357 595.392 130.661 595.728 130.866C596.073 131.062 596.447 131.16 596.848 131.16ZM603.151 132L601.079 124.944H602.255L603.865 130.894H603.655L605.405 124.944H606.735L608.513 130.88L608.289 130.894L609.885 124.944H611.075L609.017 132H607.813L605.965 125.784H606.203L604.355 132H603.151ZM612.401 132V124.944H613.465L613.521 126.176C613.745 125.737 614.062 125.397 614.473 125.154C614.893 124.902 615.369 124.776 615.901 124.776C616.452 124.776 616.928 124.888 617.329 125.112C617.73 125.327 618.043 125.658 618.267 126.106C618.491 126.545 618.603 127.105 618.603 127.786V132H617.427V127.912C617.427 127.203 617.268 126.671 616.951 126.316C616.643 125.961 616.204 125.784 615.635 125.784C615.243 125.784 614.893 125.882 614.585 126.078C614.277 126.265 614.03 126.54 613.843 126.904C613.666 127.259 613.577 127.702 613.577 128.234V132H612.401ZM620.44 132V121.92H621.616V132H620.44ZM626.707 132.168C626.054 132.168 625.466 132.019 624.943 131.72C624.42 131.412 624.01 130.983 623.711 130.432C623.412 129.872 623.263 129.223 623.263 128.486C623.263 127.73 623.412 127.077 623.711 126.526C624.019 125.966 624.434 125.537 624.957 125.238C625.489 124.93 626.082 124.776 626.735 124.776C627.407 124.776 628 124.93 628.513 125.238C629.036 125.537 629.446 125.966 629.745 126.526C630.053 127.077 630.207 127.725 630.207 128.472C630.207 129.219 630.053 129.872 629.745 130.432C629.437 130.983 629.022 131.412 628.499 131.72C627.976 132.019 627.379 132.168 626.707 132.168ZM626.721 131.16C627.122 131.16 627.496 131.062 627.841 130.866C628.186 130.661 628.466 130.357 628.681 129.956C628.896 129.555 629.003 129.06 629.003 128.472C629.003 127.875 628.896 127.38 628.681 126.988C628.476 126.587 628.2 126.288 627.855 126.092C627.519 125.887 627.146 125.784 626.735 125.784C626.343 125.784 625.97 125.887 625.615 126.092C625.27 126.288 624.99 126.587 624.775 126.988C624.57 127.38 624.467 127.875 624.467 128.472C624.467 129.06 624.57 129.555 624.775 129.956C624.99 130.357 625.265 130.661 625.601 130.866C625.946 131.062 626.32 131.16 626.721 131.16ZM634.152 132.168C633.583 132.168 633.107 132.07 632.724 131.874C632.341 131.669 632.057 131.403 631.87 131.076C631.683 130.74 631.59 130.376 631.59 129.984C631.59 129.508 631.711 129.107 631.954 128.78C632.206 128.444 632.556 128.192 633.004 128.024C633.461 127.847 633.998 127.758 634.614 127.758H636.476C636.476 127.319 636.406 126.955 636.266 126.666C636.135 126.367 635.939 126.143 635.678 125.994C635.426 125.845 635.109 125.77 634.726 125.77C634.278 125.77 633.891 125.882 633.564 126.106C633.237 126.33 633.037 126.661 632.962 127.1H631.758C631.814 126.596 631.982 126.176 632.262 125.84C632.551 125.495 632.915 125.233 633.354 125.056C633.793 124.869 634.25 124.776 634.726 124.776C635.379 124.776 635.921 124.897 636.35 125.14C636.789 125.373 637.115 125.705 637.33 126.134C637.545 126.554 637.652 127.053 637.652 127.632V132H636.602L636.532 130.754C636.439 130.95 636.317 131.137 636.168 131.314C636.028 131.482 635.86 131.631 635.664 131.762C635.468 131.883 635.244 131.981 634.992 132.056C634.749 132.131 634.469 132.168 634.152 132.168ZM634.334 131.174C634.661 131.174 634.955 131.109 635.216 130.978C635.487 130.838 635.715 130.651 635.902 130.418C636.089 130.175 636.229 129.909 636.322 129.62C636.425 129.331 636.476 129.027 636.476 128.71V128.668H634.712C634.255 128.668 633.886 128.724 633.606 128.836C633.326 128.939 633.125 129.088 633.004 129.284C632.883 129.471 632.822 129.685 632.822 129.928C632.822 130.18 632.878 130.399 632.99 130.586C633.111 130.773 633.284 130.917 633.508 131.02C633.741 131.123 634.017 131.174 634.334 131.174ZM642.579 132.168C641.898 132.168 641.301 132.009 640.787 131.692C640.274 131.365 639.877 130.922 639.597 130.362C639.317 129.802 639.177 129.167 639.177 128.458C639.177 127.749 639.317 127.119 639.597 126.568C639.877 126.008 640.274 125.569 640.787 125.252C641.31 124.935 641.912 124.776 642.593 124.776C643.172 124.776 643.676 124.893 644.105 125.126C644.544 125.359 644.88 125.686 645.113 126.106V121.92H646.289V132H645.225L645.127 130.838C644.978 131.071 644.787 131.291 644.553 131.496C644.32 131.692 644.04 131.855 643.713 131.986C643.387 132.107 643.009 132.168 642.579 132.168ZM642.719 131.146C643.186 131.146 643.597 131.034 643.951 130.81C644.306 130.586 644.581 130.278 644.777 129.886C644.973 129.485 645.071 129.013 645.071 128.472C645.071 127.94 644.973 127.473 644.777 127.072C644.581 126.671 644.306 126.358 643.951 126.134C643.597 125.91 643.186 125.798 642.719 125.798C642.262 125.798 641.856 125.91 641.501 126.134C641.147 126.358 640.871 126.671 640.675 127.072C640.479 127.473 640.381 127.94 640.381 128.472C640.381 129.013 640.479 129.485 640.675 129.886C640.871 130.278 641.147 130.586 641.501 130.81C641.856 131.034 642.262 131.146 642.719 131.146ZM651.379 133.33L654.893 121.304H656.055L652.541 133.33H651.379ZM664.766 132.168C664.094 132.168 663.483 132.033 662.932 131.762C662.391 131.491 661.957 131.081 661.63 130.53C661.304 129.97 661.14 129.256 661.14 128.388V122.2H662.316V128.402C662.316 129.037 662.419 129.555 662.624 129.956C662.839 130.357 663.133 130.651 663.506 130.838C663.88 131.025 664.309 131.118 664.794 131.118C665.289 131.118 665.718 131.025 666.082 130.838C666.446 130.651 666.731 130.357 666.936 129.956C667.142 129.555 667.244 129.037 667.244 128.402V122.2H668.42V128.388C668.42 129.256 668.257 129.97 667.93 130.53C667.604 131.081 667.165 131.491 666.614 131.762C666.064 132.033 665.448 132.168 664.766 132.168ZM670.342 135.08V124.944H671.406L671.504 126.092C671.654 125.868 671.845 125.658 672.078 125.462C672.312 125.257 672.592 125.093 672.918 124.972C673.245 124.841 673.618 124.776 674.038 124.776C674.729 124.776 675.326 124.939 675.83 125.266C676.344 125.593 676.74 126.036 677.02 126.596C677.31 127.147 677.454 127.777 677.454 128.486C677.454 129.195 677.31 129.83 677.02 130.39C676.74 130.941 676.344 131.375 675.83 131.692C675.317 132.009 674.715 132.168 674.024 132.168C673.455 132.168 672.951 132.051 672.512 131.818C672.083 131.585 671.752 131.258 671.518 130.838V135.08H670.342ZM673.898 131.146C674.356 131.146 674.762 131.034 675.116 130.81C675.471 130.586 675.746 130.278 675.942 129.886C676.148 129.485 676.25 129.013 676.25 128.472C676.25 127.94 676.148 127.473 675.942 127.072C675.746 126.671 675.471 126.358 675.116 126.134C674.762 125.91 674.356 125.798 673.898 125.798C673.432 125.798 673.021 125.91 672.666 126.134C672.312 126.358 672.036 126.671 671.84 127.072C671.644 127.473 671.546 127.94 671.546 128.472C671.546 129.013 671.644 129.485 671.84 129.886C672.036 130.278 672.312 130.586 672.666 130.81C673.021 131.034 673.432 131.146 673.898 131.146ZM679.106 132V121.92H680.282V132H679.106ZM685.373 132.168C684.72 132.168 684.132 132.019 683.609 131.72C683.086 131.412 682.676 130.983 682.377 130.432C682.078 129.872 681.929 129.223 681.929 128.486C681.929 127.73 682.078 127.077 682.377 126.526C682.685 125.966 683.1 125.537 683.623 125.238C684.155 124.93 684.748 124.776 685.401 124.776C686.073 124.776 686.666 124.93 687.179 125.238C687.702 125.537 688.112 125.966 688.411 126.526C688.719 127.077 688.873 127.725 688.873 128.472C688.873 129.219 688.719 129.872 688.411 130.432C688.103 130.983 687.688 131.412 687.165 131.72C686.642 132.019 686.045 132.168 685.373 132.168ZM685.387 131.16C685.788 131.16 686.162 131.062 686.507 130.866C686.852 130.661 687.132 130.357 687.347 129.956C687.562 129.555 687.669 129.06 687.669 128.472C687.669 127.875 687.562 127.38 687.347 126.988C687.142 126.587 686.866 126.288 686.521 126.092C686.185 125.887 685.812 125.784 685.401 125.784C685.009 125.784 684.636 125.887 684.281 126.092C683.936 126.288 683.656 126.587 683.441 126.988C683.236 127.38 683.133 127.875 683.133 128.472C683.133 129.06 683.236 129.555 683.441 129.956C683.656 130.357 683.931 130.661 684.267 130.866C684.612 131.062 684.986 131.16 685.387 131.16ZM692.818 132.168C692.249 132.168 691.773 132.07 691.39 131.874C691.007 131.669 690.723 131.403 690.536 131.076C690.349 130.74 690.256 130.376 690.256 129.984C690.256 129.508 690.377 129.107 690.62 128.78C690.872 128.444 691.222 128.192 691.67 128.024C692.127 127.847 692.664 127.758 693.28 127.758H695.142C695.142 127.319 695.072 126.955 694.932 126.666C694.801 126.367 694.605 126.143 694.344 125.994C694.092 125.845 693.775 125.77 693.392 125.77C692.944 125.77 692.557 125.882 692.23 126.106C691.903 126.33 691.703 126.661 691.628 127.1H690.424C690.48 126.596 690.648 126.176 690.928 125.84C691.217 125.495 691.581 125.233 692.02 125.056C692.459 124.869 692.916 124.776 693.392 124.776C694.045 124.776 694.587 124.897 695.016 125.14C695.455 125.373 695.781 125.705 695.996 126.134C696.211 126.554 696.318 127.053 696.318 127.632V132H695.268L695.198 130.754C695.105 130.95 694.983 131.137 694.834 131.314C694.694 131.482 694.526 131.631 694.33 131.762C694.134 131.883 693.91 131.981 693.658 132.056C693.415 132.131 693.135 132.168 692.818 132.168ZM693 131.174C693.327 131.174 693.621 131.109 693.882 130.978C694.153 130.838 694.381 130.651 694.568 130.418C694.755 130.175 694.895 129.909 694.988 129.62C695.091 129.331 695.142 129.027 695.142 128.71V128.668H693.378C692.921 128.668 692.552 128.724 692.272 128.836C691.992 128.939 691.791 129.088 691.67 129.284C691.549 129.471 691.488 129.685 691.488 129.928C691.488 130.18 691.544 130.399 691.656 130.586C691.777 130.773 691.95 130.917 692.174 131.02C692.407 131.123 692.683 131.174 693 131.174ZM701.245 132.168C700.564 132.168 699.967 132.009 699.453 131.692C698.94 131.365 698.543 130.922 698.263 130.362C697.983 129.802 697.843 129.167 697.843 128.458C697.843 127.749 697.983 127.119 698.263 126.568C698.543 126.008 698.94 125.569 699.453 125.252C699.976 124.935 700.578 124.776 701.259 124.776C701.838 124.776 702.342 124.893 702.771 125.126C703.21 125.359 703.546 125.686 703.779 126.106V121.92H704.955V132H703.891L703.793 130.838C703.644 131.071 703.453 131.291 703.219 131.496C702.986 131.692 702.706 131.855 702.379 131.986C702.053 132.107 701.675 132.168 701.245 132.168ZM701.385 131.146C701.852 131.146 702.263 131.034 702.617 130.81C702.972 130.586 703.247 130.278 703.443 129.886C703.639 129.485 703.737 129.013 703.737 128.472C703.737 127.94 703.639 127.473 703.443 127.072C703.247 126.671 702.972 126.358 702.617 126.134C702.263 125.91 701.852 125.798 701.385 125.798C700.928 125.798 700.522 125.91 700.167 126.134C699.813 126.358 699.537 126.671 699.341 127.072C699.145 127.473 699.047 127.94 699.047 128.472C699.047 129.013 699.145 129.485 699.341 129.886C699.537 130.278 699.813 130.586 700.167 130.81C700.522 131.034 700.928 131.146 701.385 131.146Z" fill="white" fill-opacity="0.8"/>
<path d="M24 154.599L14.9 151.271L14.9 149.295L24 145.967L24 147.826L16.902 150.296L24 152.766L24 154.599ZM21.933 153.13L20.568 152.675L20.568 148.034L21.933 147.579L21.933 153.13ZM27.016 141.99C27.016 142.622 26.938 143.173 26.782 143.641C26.6347 144.109 26.405 144.473 26.093 144.733C25.7897 144.984 25.4127 145.11 24.962 145.11C24.65 145.11 24.3597 145.032 24.091 144.876C23.8223 144.72 23.5797 144.494 23.363 144.2C23.1377 143.896 22.947 143.524 22.791 143.082L23.649 142.393C23.779 142.8 23.9437 143.095 24.143 143.277C24.3423 143.45 24.5547 143.537 24.78 143.537C24.9793 143.537 25.1483 143.472 25.287 143.342C25.4257 143.203 25.5253 143.021 25.586 142.796C25.6553 142.562 25.69 142.302 25.69 142.016C25.69 141.73 25.6553 141.483 25.586 141.275C25.5167 141.067 25.4127 140.906 25.274 140.794C25.144 140.672 24.988 140.612 24.806 140.612C24.5633 140.612 24.3683 140.694 24.221 140.859C24.0737 141.023 23.9827 141.357 23.948 141.86C23.9133 142.31 23.8657 142.709 23.805 143.056C23.7357 143.394 23.6577 143.693 23.571 143.953C23.4757 144.213 23.3717 144.434 23.259 144.616C23.1463 144.789 23.0337 144.932 22.921 145.045L22.622 145.045L21.14 143.654L21.53 142.38L23.142 144.044L22.271 143.537C22.3317 143.441 22.388 143.35 22.44 143.264C22.4833 143.168 22.5267 143.051 22.57 142.913C22.6047 142.774 22.6393 142.592 22.674 142.367C22.7087 142.133 22.7433 141.838 22.778 141.483C22.8213 140.911 22.9253 140.443 23.09 140.079C23.246 139.706 23.4627 139.433 23.74 139.26C24.0173 139.086 24.3597 139 24.767 139C25.157 139 25.521 139.108 25.859 139.325C26.2057 139.533 26.483 139.858 26.691 140.3C26.9077 140.742 27.016 141.305 27.016 141.99ZM22.05 141.99C22.05 142.536 21.946 143.008 21.738 143.407C21.5213 143.797 21.231 144.1 20.867 144.317C20.503 144.525 20.0957 144.629 19.645 144.629C19.1943 144.629 18.7913 144.525 18.436 144.317C18.072 144.1 17.7817 143.797 17.565 143.407C17.3483 143.008 17.24 142.536 17.24 141.99C17.24 141.435 17.3483 140.963 17.565 140.573C17.7817 140.174 18.072 139.871 18.436 139.663C18.7913 139.455 19.1943 139.351 19.645 139.351C20.0957 139.351 20.503 139.455 20.867 139.663C21.231 139.871 21.5213 140.174 21.738 140.573C21.946 140.963 22.05 141.435 22.05 141.99ZM20.711 141.99C20.711 141.652 20.6243 141.379 20.451 141.171C20.269 140.963 20.0047 140.859 19.658 140.859C19.3113 140.859 19.0513 140.963 18.878 141.171C18.696 141.379 18.605 141.652 18.605 141.99C18.605 142.328 18.696 142.605 18.878 142.822C19.0513 143.03 19.3113 143.134 19.658 143.134C20.0047 143.134 20.269 143.03 20.451 142.822C20.6243 142.605 20.711 142.328 20.711 141.99ZM18.631 140.885L17.396 141.171L17.396 138.48L18.436 138.48L18.631 140.885ZM24.156 134.2C24.156 134.85 24.013 135.427 23.727 135.929C23.441 136.432 23.0423 136.826 22.531 137.112C22.0197 137.398 21.4303 137.541 20.763 137.541C20.0697 137.541 19.4587 137.403 18.93 137.125C18.4013 136.839 17.9897 136.445 17.695 135.942C17.3917 135.44 17.24 134.855 17.24 134.187C17.24 133.537 17.383 132.97 17.669 132.484C17.955 131.999 18.345 131.626 18.839 131.366C19.3243 131.098 19.879 130.963 20.503 130.963C20.5897 130.963 20.6893 130.963 20.802 130.963C20.906 130.963 21.0143 130.972 21.127 130.989L21.127 136.28L20.048 136.28L20.048 132.731C19.6233 132.749 19.2853 132.896 19.034 133.173C18.7827 133.442 18.657 133.78 18.657 134.187C18.657 134.482 18.7263 134.755 18.865 135.006C19.0037 135.249 19.216 135.444 19.502 135.591C19.7793 135.739 20.1303 135.812 20.555 135.812L20.932 135.812C21.296 135.812 21.6123 135.747 21.881 135.617C22.1497 135.479 22.3577 135.288 22.505 135.045C22.6523 134.803 22.726 134.525 22.726 134.213C22.726 133.875 22.661 133.607 22.531 133.407C22.3923 133.199 22.2147 133.039 21.998 132.926L21.998 131.145C22.4053 131.267 22.7737 131.47 23.103 131.756C23.4237 132.042 23.6793 132.393 23.87 132.809C24.0607 133.217 24.156 133.68 24.156 134.2ZM24 129.5L17.396 129.5L17.396 127.966L18.449 127.836C18.085 127.637 17.7947 127.355 17.578 126.991C17.3527 126.618 17.24 126.176 17.24 125.665C17.24 125.128 17.3527 124.673 17.578 124.3C17.7947 123.927 18.1197 123.641 18.553 123.442C18.9777 123.243 19.4977 123.143 20.113 123.143L24 123.143L24 124.898L20.282 124.898C19.7793 124.898 19.3937 125.011 19.125 125.236C18.8563 125.453 18.722 125.786 18.722 126.237C18.722 126.523 18.787 126.783 18.917 127.017C19.047 127.242 19.2377 127.42 19.489 127.55C19.7403 127.68 20.048 127.745 20.412 127.745L24 127.745L24 129.5ZM24 118.5C24 118.959 23.9307 119.362 23.792 119.709C23.6447 120.047 23.4063 120.311 23.077 120.502C22.739 120.693 22.2797 120.788 21.699 120.788L18.865 120.788L18.865 121.919L17.396 121.919L17.396 120.788L15.576 120.593L15.576 119.033L17.396 119.033L17.396 117.304L18.865 117.304L18.865 119.033L21.725 119.033C22.0197 119.033 22.2233 118.968 22.336 118.838C22.4487 118.708 22.505 118.487 22.505 118.175L22.505 117.304L24 117.304L24 118.5ZM24 106.958L14.9 106.958L14.9 105.203L24 105.203L24 106.958ZM24 112.691L14.9 112.691L14.9 110.936L24 110.936L24 112.691ZM20.061 111.183L18.644 111.183L18.644 106.659L20.061 106.659L20.061 111.183ZM24.156 100.967C24.156 101.496 24.0477 101.951 23.831 102.332C23.6143 102.705 23.2937 102.991 22.869 103.19C22.4443 103.389 21.9243 103.489 21.309 103.489L17.396 103.489L17.396 101.734L21.114 101.734C21.634 101.734 22.024 101.621 22.284 101.396C22.544 101.171 22.674 100.833 22.674 100.382C22.674 100.096 22.609 99.8403 22.479 99.6149C22.349 99.3896 22.1627 99.2119 21.92 99.0819C21.6687 98.9433 21.361 98.8739 20.997 98.8739L17.396 98.8739L17.396 97.1189L24 97.1189L24 98.6659L22.947 98.8089C23.311 98.9996 23.6057 99.2769 23.831 99.6409C24.0477 100.005 24.156 100.447 24.156 100.967ZM24.156 91.5268C24.156 91.8735 24.1127 92.1811 24.026 92.4498C23.9393 92.7098 23.8223 92.9395 23.675 93.1388C23.519 93.3381 23.3457 93.5071 23.155 93.6458L24 93.8278L24 95.3878L14.64 95.3878L14.64 93.6328L18.306 93.6328C17.9853 93.4248 17.7297 93.1475 17.539 92.8008C17.3397 92.4541 17.24 92.0338 17.24 91.5398C17.24 90.9331 17.3917 90.3958 17.695 89.9278C17.9897 89.4598 18.397 89.0915 18.917 88.8228C19.437 88.5455 20.0307 88.4068 20.698 88.4068C21.3567 88.4068 21.9503 88.5411 22.479 88.8098C22.999 89.0785 23.4107 89.4468 23.714 89.9148C24.0087 90.3828 24.156 90.9201 24.156 91.5268ZM22.622 91.9428C22.622 91.6048 22.544 91.3058 22.388 91.0458C22.2233 90.7858 21.998 90.5821 21.712 90.4348C21.426 90.2788 21.088 90.2008 20.698 90.2008C20.3167 90.2008 19.983 90.2788 19.697 90.4348C19.4023 90.5821 19.177 90.7858 19.021 91.0458C18.8563 91.3058 18.774 91.6048 18.774 91.9428C18.774 92.2808 18.8563 92.5841 19.021 92.8528C19.177 93.1128 19.4023 93.3165 19.697 93.4638C19.983 93.6111 20.3167 93.6848 20.698 93.6848C21.0793 93.6848 21.4173 93.6111 21.712 93.4638C21.998 93.3165 22.2233 93.1128 22.388 92.8528C22.544 92.5841 22.622 92.2808 22.622 91.9428ZM24 76.9847L19.099 81.8857C18.7003 82.2843 18.3407 82.566 18.02 82.7307C17.6907 82.8867 17.344 82.9647 16.98 82.9647C16.564 82.9647 16.187 82.8607 15.849 82.6527C15.511 82.4447 15.2423 82.1413 15.043 81.7427C14.8437 81.3353 14.744 80.8413 14.744 80.2607C14.744 79.6887 14.848 79.212 15.056 78.8307C15.264 78.4407 15.5413 78.146 15.888 77.9467C16.226 77.7387 16.603 77.6347 17.019 77.6347L17.019 79.3117C16.707 79.3203 16.473 79.42 16.317 79.6107C16.161 79.7927 16.083 80.018 16.083 80.2867C16.083 80.5987 16.1653 80.8457 16.33 81.0277C16.4947 81.201 16.707 81.2877 16.967 81.2877C17.1837 81.2877 17.4047 81.227 17.63 81.1057C17.8553 80.9757 18.1067 80.7763 18.384 80.5077L24 74.9047L24 76.9847ZM24.143 80.8977C24.143 81.5563 24.0303 82.1283 23.805 82.6137C23.571 83.099 23.246 83.476 22.83 83.7447C22.414 84.0047 21.9243 84.1347 21.361 84.1347C20.919 84.1347 20.5117 84.048 20.139 83.8747C19.7663 83.6927 19.437 83.424 19.151 83.0687C18.865 82.7047 18.6353 82.254 18.462 81.7167L18.254 81.0797L19.346 80.2997L19.528 80.8847C19.7013 81.4047 19.9353 81.7947 20.23 82.0547C20.5247 82.306 20.8627 82.4317 21.244 82.4317C21.5213 82.4317 21.7727 82.3667 21.998 82.2367C22.2147 82.098 22.388 81.9073 22.518 81.6647C22.648 81.422 22.713 81.1317 22.713 80.7937C22.713 80.3257 22.609 79.9097 22.401 79.5457C22.193 79.173 21.8593 78.8177 21.4 78.4797C21.192 78.3323 20.9623 78.185 20.711 78.0377C20.451 77.8817 20.1607 77.7257 19.84 77.5697L19.268 77.2967L19.268 75.5157L20.191 75.9577C20.633 76.1743 21.036 76.391 21.4 76.6077C21.764 76.8243 22.089 77.0497 22.375 77.2837C22.9903 77.7777 23.441 78.3193 23.727 78.9087C24.0043 79.4893 24.143 80.1523 24.143 80.8977ZM24 70.5168L14.9 70.5168L14.9 67.1108C14.9 66.3828 15.0257 65.7804 15.277 65.3038C15.5283 64.8271 15.8663 64.4718 16.291 64.2378C16.707 64.0038 17.1707 63.8868 17.682 63.8868C18.1673 63.8868 18.6223 63.9994 19.047 64.2248C19.463 64.4501 19.801 64.8054 20.061 65.2908C20.3123 65.7674 20.438 66.3828 20.438 67.1368L20.438 68.7618L24 68.7618L24 70.5168ZM24 65.7978L19.996 67.6698L19.996 65.7718L24 63.7958L24 65.7978ZM19.164 68.7618L19.164 67.2278C19.164 66.6991 19.034 66.3091 18.774 66.0578C18.514 65.8064 18.1717 65.6808 17.747 65.6808C17.3223 65.6808 16.9887 65.8064 16.746 66.0578C16.4947 66.3004 16.369 66.6904 16.369 67.2278L16.369 68.7618L19.164 68.7618ZM24.156 59.6154C24.156 60.2654 24.013 60.8418 23.727 61.3444C23.441 61.8471 23.0423 62.2414 22.531 62.5274C22.0197 62.8134 21.4303 62.9564 20.763 62.9564C20.0697 62.9564 19.4587 62.8178 18.93 62.5404C18.4013 62.2544 17.9897 61.8601 17.695 61.3574C17.3917 60.8548 17.24 60.2698 17.24 59.6024C17.24 58.9524 17.383 58.3848 17.669 57.8994C17.955 57.4141 18.345 57.0414 18.839 56.7814C19.3243 56.5128 19.879 56.3784 20.503 56.3784C20.5897 56.3784 20.6893 56.3784 20.802 56.3784C20.906 56.3784 21.0143 56.3871 21.127 56.4044L21.127 61.6954L20.048 61.6954L20.048 58.1464C19.6233 58.1638 19.2853 58.3111 19.034 58.5884C18.7827 58.8571 18.657 59.1951 18.657 59.6024C18.657 59.8971 18.7263 60.1701 18.865 60.4214C19.0037 60.6641 19.216 60.8591 19.502 61.0064C19.7793 61.1538 20.1303 61.2274 20.555 61.2274L20.932 61.2274C21.296 61.2274 21.6123 61.1624 21.881 61.0324C22.1497 60.8938 22.3577 60.7031 22.505 60.4604C22.6523 60.2178 22.726 59.9404 22.726 59.6284C22.726 59.2904 22.661 59.0218 22.531 58.8224C22.3923 58.6144 22.2147 58.4541 21.998 58.3414L21.998 56.5604C22.4053 56.6818 22.7737 56.8854 23.103 57.1714C23.4237 57.4574 23.6793 57.8084 23.87 58.2244C24.0607 58.6318 24.156 59.0954 24.156 59.6154ZM26.86 49.9101L23.09 49.9101C23.4107 50.1181 23.6707 50.3955 23.87 50.7421C24.0607 51.0888 24.156 51.5005 24.156 51.9771C24.156 52.5925 24.0087 53.1385 23.714 53.6151C23.4107 54.0831 22.999 54.4558 22.479 54.7331C21.9503 55.0018 21.3567 55.1361 20.698 55.1361C20.0307 55.1361 19.437 54.9975 18.917 54.7201C18.397 54.4428 17.9897 54.0658 17.695 53.5891C17.3917 53.1125 17.24 52.5751 17.24 51.9771C17.24 51.6478 17.2833 51.3531 17.37 51.0931C17.4567 50.8331 17.5737 50.6035 17.721 50.4041C17.8683 50.2048 18.0417 50.0401 18.241 49.9101L17.396 49.7151L17.396 48.1551L26.86 48.1551L26.86 49.9101ZM22.622 51.6001C22.622 51.2535 22.544 50.9501 22.388 50.6901C22.2233 50.4301 21.998 50.2265 21.712 50.0791C21.4173 49.9318 21.0793 49.8581 20.698 49.8581C20.308 49.8581 19.97 49.9318 19.684 50.0791C19.398 50.2265 19.177 50.4301 19.021 50.6901C18.8563 50.9501 18.774 51.2535 18.774 51.6001C18.774 51.9381 18.8563 52.2415 19.021 52.5101C19.177 52.7701 19.398 52.9738 19.684 53.1211C19.97 53.2685 20.3037 53.3421 20.685 53.3421C21.0663 53.3421 21.4043 53.2685 21.699 53.1211C21.9937 52.9738 22.2233 52.7701 22.388 52.5101C22.544 52.2415 22.622 51.9381 22.622 51.6001ZM24.156 43.9523C24.156 44.4809 24.0477 44.9359 23.831 45.3173C23.6143 45.6899 23.2937 45.9759 22.869 46.1753C22.4443 46.3746 21.9243 46.4743 21.309 46.4743L17.396 46.4743L17.396 44.7193L21.114 44.7193C21.634 44.7193 22.024 44.6066 22.284 44.3813C22.544 44.1559 22.674 43.8179 22.674 43.3673C22.674 43.0813 22.609 42.8256 22.479 42.6003C22.349 42.3749 22.1627 42.1973 21.92 42.0673C21.6687 41.9286 21.361 41.8593 20.997 41.8593L17.396 41.8593L17.396 40.1043L24 40.1043L24 41.6513L22.947 41.7943C23.311 41.9849 23.6057 42.2623 23.831 42.6263C24.0477 42.9903 24.156 43.4323 24.156 43.9523ZM24.156 35.2531C24.156 35.9031 24.013 36.4795 23.727 36.9821C23.441 37.4848 23.0423 37.8791 22.531 38.1651C22.0197 38.4511 21.4303 38.5941 20.763 38.5941C20.0697 38.5941 19.4587 38.4555 18.93 38.1781C18.4013 37.8921 17.9897 37.4978 17.695 36.9951C17.3917 36.4925 17.24 35.9075 17.24 35.2401C17.24 34.5901 17.383 34.0225 17.669 33.5371C17.955 33.0518 18.345 32.6791 18.839 32.4191C19.3243 32.1505 19.879 32.0161 20.503 32.0161C20.5897 32.0161 20.6893 32.0161 20.802 32.0161C20.906 32.0161 21.0143 32.0248 21.127 32.0421L21.127 37.3331L20.048 37.3331L20.048 33.7841C19.6233 33.8015 19.2853 33.9488 19.034 34.2261C18.7827 34.4948 18.657 34.8328 18.657 35.2401C18.657 35.5348 18.7263 35.8078 18.865 36.0591C19.0037 36.3018 19.216 36.4968 19.502 36.6441C19.7793 36.7915 20.1303 36.8651 20.555 36.8651L20.932 36.8651C21.296 36.8651 21.6123 36.8001 21.881 36.6701C22.1497 36.5315 22.3577 36.3408 22.505 36.0981C22.6523 35.8555 22.726 35.5781 22.726 35.2661C22.726 34.9281 22.661 34.6595 22.531 34.4601C22.3923 34.2521 22.2147 34.0918 21.998 33.9791L21.998 32.1981C22.4053 32.3195 22.7737 32.5231 23.103 32.8091C23.4237 33.0951 23.6793 33.4461 23.87 33.8621C24.0607 34.2695 24.156 34.7331 24.156 35.2531ZM24.156 27.8878C24.156 28.5032 24.0607 29.0318 23.87 29.4738C23.6793 29.9072 23.415 30.2452 23.077 30.4878C22.739 30.7305 22.3533 30.8735 21.92 30.9168L21.92 29.1618C22.0847 29.1272 22.2363 29.0622 22.375 28.9668C22.505 28.8628 22.6133 28.7242 22.7 28.5508C22.778 28.3688 22.817 28.1565 22.817 27.9138C22.817 27.6798 22.7867 27.4892 22.726 27.3418C22.6567 27.1858 22.5657 27.0732 22.453 27.0038C22.3403 26.9258 22.219 26.8868 22.089 26.8868C21.8983 26.8868 21.7553 26.9388 21.66 27.0428C21.556 27.1468 21.4737 27.2985 21.413 27.4978C21.3437 27.6972 21.283 27.9398 21.231 28.2258C21.1703 28.5552 21.0967 28.8715 21.01 29.1748C20.9147 29.4782 20.7977 29.7468 20.659 29.9808C20.5117 30.2148 20.3297 30.4012 20.113 30.5398C19.8877 30.6698 19.6103 30.7348 19.281 30.7348C18.8997 30.7348 18.553 30.6308 18.241 30.4228C17.929 30.2062 17.6863 29.8985 17.513 29.4998C17.331 29.0925 17.24 28.6115 17.24 28.0568C17.24 27.2595 17.4177 26.6312 17.773 26.1718C18.1283 25.7038 18.6137 25.4308 19.229 25.3528L19.229 27.0038C19.0297 27.0472 18.8737 27.1598 18.761 27.3418C18.6483 27.5238 18.592 27.7665 18.592 28.0698C18.592 28.3818 18.6483 28.6202 18.761 28.7848C18.8737 28.9495 19.021 29.0318 19.203 29.0318C19.3243 29.0318 19.437 28.9842 19.541 28.8888C19.6363 28.7848 19.7187 28.6332 19.788 28.4338C19.8573 28.2345 19.9223 27.9832 19.983 27.6798C20.087 27.1512 20.204 26.7005 20.334 26.3278C20.464 25.9465 20.659 25.6518 20.919 25.4438C21.1703 25.2272 21.5257 25.1188 21.985 25.1188C22.4183 25.1188 22.7997 25.2315 23.129 25.4568C23.4497 25.6822 23.701 26.0028 23.883 26.4188C24.065 26.8348 24.156 27.3245 24.156 27.8878ZM24 20.8603C24 21.3196 23.9307 21.7226 23.792 22.0693C23.6447 22.4073 23.4063 22.6716 23.077 22.8623C22.739 23.053 22.2797 23.1483 21.699 23.1483L18.865 23.1483L18.865 24.2793L17.396 24.2793L17.396 23.1483L15.576 22.9533L15.576 21.3933L17.396 21.3933L17.396 19.6643L18.865 19.6643L18.865 21.3933L21.725 21.3933C22.0197 21.3933 22.2233 21.3283 22.336 21.1983C22.4487 21.0683 22.505 20.8473 22.505 20.5353L22.505 19.6643L24 19.6643L24 20.8603ZM24.156 15.4972C24.156 16.1125 24.0607 16.6412 23.87 17.0832C23.6793 17.5165 23.415 17.8545 23.077 18.0972C22.739 18.3399 22.3533 18.4829 21.92 18.5262L21.92 16.7712C22.0847 16.7365 22.2363 16.6715 22.375 16.5762C22.505 16.4722 22.6133 16.3335 22.7 16.1602C22.778 15.9782 22.817 15.7659 22.817 15.5232C22.817 15.2892 22.7867 15.0985 22.726 14.9512C22.6567 14.7952 22.5657 14.6825 22.453 14.6132C22.3403 14.5352 22.219 14.4962 22.089 14.4962C21.8983 14.4962 21.7553 14.5482 21.66 14.6522C21.556 14.7562 21.4737 14.9079 21.413 15.1072C21.3437 15.3065 21.283 15.5492 21.231 15.8352C21.1703 16.1645 21.0967 16.4809 21.01 16.7842C20.9147 17.0875 20.7977 17.3562 20.659 17.5902C20.5117 17.8242 20.3297 18.0105 20.113 18.1492C19.8877 18.2792 19.6103 18.3442 19.281 18.3442C18.8997 18.3442 18.553 18.2402 18.241 18.0322C17.929 17.8155 17.6863 17.5079 17.513 17.1092C17.331 16.7019 17.24 16.2209 17.24 15.6662C17.24 14.8689 17.4177 14.2405 17.773 13.7812C18.1283 13.3132 18.6137 13.0402 19.229 12.9622L19.229 14.6132C19.0297 14.6565 18.8737 14.7692 18.761 14.9512C18.6483 15.1332 18.592 15.3759 18.592 15.6792C18.592 15.9912 18.6483 16.2295 18.761 16.3942C18.8737 16.5589 19.021 16.6412 19.203 16.6412C19.3243 16.6412 19.437 16.5935 19.541 16.4982C19.6363 16.3942 19.7187 16.2425 19.788 16.0432C19.8573 15.8439 19.9223 15.5925 19.983 15.2892C20.087 14.7605 20.204 14.3099 20.334 13.9372C20.464 13.5559 20.659 13.2612 20.919 13.0532C21.1703 12.8365 21.5257 12.7282 21.985 12.7282C22.4183 12.7282 22.7997 12.8409 23.129 13.0662C23.4497 13.2915 23.701 13.6122 23.883 14.0282C24.065 14.4442 24.156 14.9339 24.156 15.4972Z" fill="white"/>
<defs>
<linearGradient id="paint0_linear_800_10541" x1="378" y1="0" x2="378" y2="168" gradientUnits="userSpaceOnUse">
<stop stop-color="#0FDCF8"/>
<stop offset="1" stop-color="#1F0A33"/>
</linearGradient>
<linearGradient id="paint1_linear_800_10541" x1="435" y1="24" x2="435" y2="58" gradientUnits="userSpaceOnUse">
<stop stop-color="white" stop-opacity="0"/>
<stop offset="1" stop-color="white" stop-opacity="0.15"/>
</linearGradient>
<linearGradient id="paint2_linear_800_10541" x1="435" y1="24" x2="435" y2="58" gradientUnits="userSpaceOnUse">
<stop stop-color="#4E4E4E"/>
<stop offset="1" stop-color="#383737"/>
</linearGradient>
<linearGradient id="paint3_linear_800_10541" x1="522.5" y1="24" x2="522.5" y2="58" gradientUnits="userSpaceOnUse">
<stop stop-color="white" stop-opacity="0"/>
<stop offset="1" stop-color="white" stop-opacity="0.15"/>
</linearGradient>
<linearGradient id="paint4_linear_800_10541" x1="522.5" y1="24" x2="522.5" y2="58" gradientUnits="userSpaceOnUse">
<stop stop-color="#4E4E4E"/>
<stop offset="1" stop-color="#383737"/>
</linearGradient>
<linearGradient id="paint5_linear_800_10541" x1="640.5" y1="24" x2="640.5" y2="58" gradientUnits="userSpaceOnUse">
<stop stop-color="white" stop-opacity="0"/>
<stop offset="1" stop-color="white" stop-opacity="0.15"/>
</linearGradient>
<linearGradient id="paint6_linear_800_10541" x1="640.5" y1="24" x2="640.5" y2="58" gradientUnits="userSpaceOnUse">
<stop stop-color="#4E4E4E"/>
<stop offset="1" stop-color="#383737"/>
</linearGradient>
<linearGradient id="paint7_linear_800_10541" x1="309.5" y1="24" x2="309.5" y2="58" gradientUnits="userSpaceOnUse">
<stop stop-color="white" stop-opacity="0"/>
<stop offset="1" stop-color="white" stop-opacity="0.15"/>
</linearGradient>
<linearGradient id="paint8_linear_800_10541" x1="309.5" y1="24" x2="309.5" y2="58" gradientUnits="userSpaceOnUse">
<stop stop-color="#4E4E4E"/>
<stop offset="1" stop-color="#383737"/>
</linearGradient>
<linearGradient id="paint9_linear_800_10541" x1="477.5" y1="110" x2="477.5" y2="144" gradientUnits="userSpaceOnUse">
<stop stop-color="white" stop-opacity="0"/>
<stop offset="1" stop-color="white" stop-opacity="0.15"/>
</linearGradient>
<linearGradient id="paint10_linear_800_10541" x1="477.5" y1="110" x2="477.5" y2="144" gradientUnits="userSpaceOnUse">
<stop stop-color="#4E4E4E"/>
<stop offset="1" stop-color="#383737"/>
</linearGradient>
<linearGradient id="paint11_linear_800_10541" x1="644.5" y1="110" x2="644.5" y2="144" gradientUnits="userSpaceOnUse">
<stop stop-color="white" stop-opacity="0"/>
<stop offset="1" stop-color="white" stop-opacity="0.15"/>
</linearGradient>
<linearGradient id="paint12_linear_800_10541" x1="644.5" y1="110" x2="644.5" y2="144" gradientUnits="userSpaceOnUse">
<stop stop-color="#4E4E4E"/>
<stop offset="1" stop-color="#383737"/>
</linearGradient>
</defs>
</svg>
