<svg width="1469" height="199" viewBox="0 0 1469 199" fill="none" xmlns="http://www.w3.org/2000/svg">
<mask id="path-1-inside-1_1099_10059" fill="white">
<path fill-rule="evenodd" clip-rule="evenodd" d="M39.6395 198.1H0V85.6835C0 72.8455 2.16746 61.1746 6.50238 50.6707C10.8373 40.1669 17.1313 31.1636 25.3843 23.6609C33.6373 16.1581 43.7243 10.3643 55.6453 6.2795C67.6497 2.19467 81.3214 0.152267 96.6603 0.152267C111.999 0.152267 125.629 2.19467 137.55 6.2795C149.555 10.3643 159.683 16.1581 167.936 23.6609C176.189 31.1636 182.483 40.1669 186.818 50.6707C191.153 61.1746 193.321 72.8455 193.321 85.6835V198.1H153.681V90.4353C153.681 81.5987 152.472 73.7208 150.055 66.8016C147.637 59.9658 144.011 54.172 139.176 49.4203C134.424 44.6685 128.464 41.0422 121.294 38.5413C114.208 36.1237 105.997 34.915 96.6603 34.915C87.2402 34.915 78.9872 36.1237 71.9013 38.5413C64.8154 41.0422 58.8548 44.6685 54.0197 49.4203C49.268 54.172 45.6834 59.9658 43.2658 66.8016C40.8483 73.7208 39.6395 81.5987 39.6395 90.4353V198.1ZM411.859 0.152344H242.797V198.097H411.859V163.46H282.437V118.771H411.859V81.4247H282.437V34.9151H411.859V0.152344ZM461.336 0.152344H565.749C578.504 0.152344 589.591 1.52785 599.011 4.27885C608.515 6.94649 616.393 10.6562 622.645 15.4079C628.897 20.1597 633.524 25.8284 636.525 32.4141C639.609 38.9165 641.152 45.9608 641.152 53.5469C641.152 65.9681 637.234 79.3455 629.397 88.6823C638.401 94.0175 645.111 100.937 649.53 109.44C653.948 117.943 656.157 127.613 656.157 138.45C656.157 147.537 654.615 155.748 651.53 163.084C648.529 170.42 643.903 176.714 637.65 181.966C631.481 187.135 623.645 191.136 614.142 193.971C604.722 196.722 593.593 198.097 580.755 198.097H461.336V0.152344ZM581.005 77.6782C584.423 77.6782 587.757 77.8033 591.008 78.0534C596.594 72.7181 599.386 64.1341 599.386 57.2982C599.386 50.2123 596.594 44.752 591.008 40.9172C585.506 36.9991 577.42 35.0401 566.749 35.0401H500.975V77.6782H581.005ZM581.755 163.585C592.425 163.585 600.512 161.292 606.014 156.707C611.599 152.122 614.392 145.661 614.392 137.325C614.392 128.989 611.599 122.486 606.014 117.818C600.512 113.15 592.425 110.815 581.755 110.815H500.975V163.585H581.755ZM745.273 0.152344H705.634V112.568C705.634 125.406 707.801 137.077 712.136 147.581C716.471 158.085 722.765 167.088 731.018 174.591C739.271 182.094 749.358 187.888 761.279 191.972C773.283 196.057 786.955 198.1 802.294 198.1C817.633 198.1 831.263 196.057 843.184 191.972C855.188 187.888 865.317 182.094 873.57 174.591C881.823 167.088 888.117 158.085 892.452 147.581C896.787 137.077 898.954 125.406 898.954 112.568V0.152344H859.315V107.817C859.315 116.653 858.106 124.531 855.689 131.45C853.271 138.286 849.645 144.08 844.81 148.832C840.058 153.583 834.097 157.21 826.928 159.711C819.842 162.128 811.631 163.337 802.294 163.337C792.874 163.337 784.621 162.128 777.535 159.711C770.449 157.21 764.489 153.583 759.653 148.832C754.902 144.08 751.317 138.286 748.9 131.45C746.482 124.531 745.273 116.653 745.273 107.817V0.152344ZM948.431 0.152344H988.071V163.335H1101.74V198.097H948.431V0.152344ZM1285.01 0.152344H1242.99L1151.21 198.097H1192.98L1208.6 163.798H1321.82L1337.91 198.097H1379.55L1285.01 0.152344ZM1306.01 130.068H1223.95L1264.38 41.2924L1306.01 130.068ZM1469 0.44037H1429.02V197.82H1469V0.44037Z"/>
</mask>
<path fill-rule="evenodd" clip-rule="evenodd" d="M39.6395 198.1H0V85.6835C0 72.8455 2.16746 61.1746 6.50238 50.6707C10.8373 40.1669 17.1313 31.1636 25.3843 23.6609C33.6373 16.1581 43.7243 10.3643 55.6453 6.2795C67.6497 2.19467 81.3214 0.152267 96.6603 0.152267C111.999 0.152267 125.629 2.19467 137.55 6.2795C149.555 10.3643 159.683 16.1581 167.936 23.6609C176.189 31.1636 182.483 40.1669 186.818 50.6707C191.153 61.1746 193.321 72.8455 193.321 85.6835V198.1H153.681V90.4353C153.681 81.5987 152.472 73.7208 150.055 66.8016C147.637 59.9658 144.011 54.172 139.176 49.4203C134.424 44.6685 128.464 41.0422 121.294 38.5413C114.208 36.1237 105.997 34.915 96.6603 34.915C87.2402 34.915 78.9872 36.1237 71.9013 38.5413C64.8154 41.0422 58.8548 44.6685 54.0197 49.4203C49.268 54.172 45.6834 59.9658 43.2658 66.8016C40.8483 73.7208 39.6395 81.5987 39.6395 90.4353V198.1ZM411.859 0.152344H242.797V198.097H411.859V163.46H282.437V118.771H411.859V81.4247H282.437V34.9151H411.859V0.152344ZM461.336 0.152344H565.749C578.504 0.152344 589.591 1.52785 599.011 4.27885C608.515 6.94649 616.393 10.6562 622.645 15.4079C628.897 20.1597 633.524 25.8284 636.525 32.4141C639.609 38.9165 641.152 45.9608 641.152 53.5469C641.152 65.9681 637.234 79.3455 629.397 88.6823C638.401 94.0175 645.111 100.937 649.53 109.44C653.948 117.943 656.157 127.613 656.157 138.45C656.157 147.537 654.615 155.748 651.53 163.084C648.529 170.42 643.903 176.714 637.65 181.966C631.481 187.135 623.645 191.136 614.142 193.971C604.722 196.722 593.593 198.097 580.755 198.097H461.336V0.152344ZM581.005 77.6782C584.423 77.6782 587.757 77.8033 591.008 78.0534C596.594 72.7181 599.386 64.1341 599.386 57.2982C599.386 50.2123 596.594 44.752 591.008 40.9172C585.506 36.9991 577.42 35.0401 566.749 35.0401H500.975V77.6782H581.005ZM581.755 163.585C592.425 163.585 600.512 161.292 606.014 156.707C611.599 152.122 614.392 145.661 614.392 137.325C614.392 128.989 611.599 122.486 606.014 117.818C600.512 113.15 592.425 110.815 581.755 110.815H500.975V163.585H581.755ZM745.273 0.152344H705.634V112.568C705.634 125.406 707.801 137.077 712.136 147.581C716.471 158.085 722.765 167.088 731.018 174.591C739.271 182.094 749.358 187.888 761.279 191.972C773.283 196.057 786.955 198.1 802.294 198.1C817.633 198.1 831.263 196.057 843.184 191.972C855.188 187.888 865.317 182.094 873.57 174.591C881.823 167.088 888.117 158.085 892.452 147.581C896.787 137.077 898.954 125.406 898.954 112.568V0.152344H859.315V107.817C859.315 116.653 858.106 124.531 855.689 131.45C853.271 138.286 849.645 144.08 844.81 148.832C840.058 153.583 834.097 157.21 826.928 159.711C819.842 162.128 811.631 163.337 802.294 163.337C792.874 163.337 784.621 162.128 777.535 159.711C770.449 157.21 764.489 153.583 759.653 148.832C754.902 144.08 751.317 138.286 748.9 131.45C746.482 124.531 745.273 116.653 745.273 107.817V0.152344ZM948.431 0.152344H988.071V163.335H1101.74V198.097H948.431V0.152344ZM1285.01 0.152344H1242.99L1151.21 198.097H1192.98L1208.6 163.798H1321.82L1337.91 198.097H1379.55L1285.01 0.152344ZM1306.01 130.068H1223.95L1264.38 41.2924L1306.01 130.068ZM1469 0.44037H1429.02V197.82H1469V0.44037Z" fill="#070E1C"/>
<path d="M0 198.1H-3V201.1H0V198.1ZM39.6395 198.1V201.1H42.6395V198.1H39.6395ZM6.50238 50.6707L9.2755 51.8152L6.50238 50.6707ZM25.3843 23.6609L23.3663 21.441L25.3843 23.6609ZM55.6453 6.2795L54.6789 3.43941L54.6729 3.44148L55.6453 6.2795ZM137.55 6.2795L136.578 9.11751L136.584 9.11957L137.55 6.2795ZM167.936 23.6609L165.918 25.8807V25.8807L167.936 23.6609ZM186.818 50.6707L184.045 51.8152L186.818 50.6707ZM193.321 198.1V201.1H196.321V198.1H193.321ZM153.681 198.1H150.681V201.1H153.681V198.1ZM150.055 66.8016L152.887 65.8121L152.883 65.8014L150.055 66.8016ZM139.176 49.4203L137.055 51.5416L137.064 51.5508L137.073 51.56L139.176 49.4203ZM121.294 38.5413L122.282 35.7087L122.273 35.7053L122.263 35.702L121.294 38.5413ZM71.9013 38.5413L70.9326 35.702L70.9177 35.7071L70.9028 35.7123L71.9013 38.5413ZM54.0197 49.4203L51.917 47.2806L51.9076 47.2897L51.8984 47.299L54.0197 49.4203ZM43.2658 66.8016L40.4375 65.8013L40.4337 65.8121L43.2658 66.8016ZM242.797 0.152344V-2.84766H239.797V0.152344H242.797ZM411.859 0.152344H414.859V-2.84766H411.859V0.152344ZM242.797 198.097H239.797V201.097H242.797V198.097ZM411.859 198.097V201.097H414.859V198.097H411.859ZM411.859 163.46H414.859V160.46H411.859V163.46ZM282.437 163.46H279.437V166.46H282.437V163.46ZM282.437 118.771V115.771H279.437V118.771H282.437ZM411.859 118.771V121.771H414.859V118.771H411.859ZM411.859 81.4247H414.859V78.4247H411.859V81.4247ZM282.437 81.4247H279.437V84.4247H282.437V81.4247ZM282.437 34.9151V31.9151H279.437V34.9151H282.437ZM411.859 34.9151V37.9151H414.859V34.9151H411.859ZM461.336 0.152344V-2.84766H458.336V0.152344H461.336ZM599.011 4.27885L598.17 7.15857L598.185 7.16297L598.2 7.16722L599.011 4.27885ZM622.645 15.4079L624.46 13.0194V13.0194L622.645 15.4079ZM636.525 32.4141L633.795 33.6581L633.805 33.6791L633.814 33.6999L636.525 32.4141ZM629.397 88.6823L627.099 86.7536L624.827 89.4611L627.868 91.2631L629.397 88.6823ZM649.53 109.44L646.868 110.823H646.868L649.53 109.44ZM651.53 163.084L648.765 161.922L648.759 161.935L648.754 161.949L651.53 163.084ZM637.65 181.966L639.577 184.266L639.58 184.263L637.65 181.966ZM614.142 193.971L614.983 196.85L614.991 196.848L614.999 196.846L614.142 193.971ZM461.336 198.097H458.336V201.097H461.336V198.097ZM591.008 78.0534L590.778 81.0445L592.113 81.1472L593.081 80.2227L591.008 78.0534ZM591.008 40.9172L589.268 43.3609L589.289 43.3759L589.31 43.3904L591.008 40.9172ZM500.975 35.0401V32.0401H497.975V35.0401H500.975ZM500.975 77.6782H497.975V80.6782H500.975V77.6782ZM606.014 156.707L604.11 154.388L604.102 154.395L604.093 154.402L606.014 156.707ZM606.014 117.818L604.073 120.105L604.081 120.113L604.09 120.12L606.014 117.818ZM500.975 110.815V107.815H497.975V110.815H500.975ZM500.975 163.585H497.975V166.585H500.975V163.585ZM705.634 0.152344V-2.84766H702.634V0.152344H705.634ZM745.273 0.152344H748.273V-2.84766H745.273V0.152344ZM712.136 147.581L714.909 146.437L712.136 147.581ZM761.279 191.972L760.307 194.81L760.313 194.813L761.279 191.972ZM843.184 191.972L842.218 189.132L842.212 189.134L843.184 191.972ZM873.57 174.591L871.552 172.371L873.57 174.591ZM892.452 147.581L895.225 148.726V148.726L892.452 147.581ZM898.954 0.152344H901.954V-2.84766H898.954V0.152344ZM859.315 0.152344V-2.84766H856.315V0.152344H859.315ZM855.689 131.45L858.517 132.451L858.521 132.44L855.689 131.45ZM844.81 148.832L842.707 146.692L842.697 146.701L842.688 146.71L844.81 148.832ZM826.928 159.711L827.897 162.55L827.906 162.547L827.916 162.543L826.928 159.711ZM777.535 159.711L776.537 162.54L776.551 162.545L776.566 162.55L777.535 159.711ZM759.653 148.832L757.532 150.953L757.541 150.962L757.551 150.971L759.653 148.832ZM748.9 131.45L746.067 132.44L746.071 132.451L748.9 131.45ZM988.071 0.152344H991.071V-2.84766H988.071V0.152344ZM948.431 0.152344V-2.84766H945.431V0.152344H948.431ZM988.071 163.335H985.071V166.335H988.071V163.335ZM1101.74 163.335H1104.74V160.335H1101.74V163.335ZM1101.74 198.097V201.097H1104.74V198.097H1101.74ZM948.431 198.097H945.431V201.097H948.431V198.097ZM1242.99 0.152344V-2.84766H1241.08L1240.27 -1.1096L1242.99 0.152344ZM1285.01 0.152344L1287.72 -1.14056L1286.9 -2.84766H1285.01V0.152344ZM1151.21 198.097L1148.49 196.835L1146.52 201.097H1151.21V198.097ZM1192.98 198.097V201.097H1194.91L1195.71 199.34L1192.98 198.097ZM1208.6 163.798V160.798H1206.67L1205.87 162.555L1208.6 163.798ZM1321.82 163.798L1324.54 162.524L1323.73 160.798H1321.82V163.798ZM1337.91 198.097L1335.19 199.371L1336 201.097H1337.91V198.097ZM1379.55 198.097V201.097H1384.31L1382.25 196.804L1379.55 198.097ZM1223.95 130.068L1221.22 128.825L1219.29 133.068H1223.95V130.068ZM1306.01 130.068V133.068H1310.73L1308.72 128.795L1306.01 130.068ZM1264.38 41.2924L1267.09 40.0187L1264.34 34.1409L1261.65 40.0492L1264.38 41.2924ZM1429.02 0.44037V-2.55963H1426.02V0.44037H1429.02ZM1469 0.44037H1472V-2.55963H1469V0.44037ZM1429.02 197.82H1426.02V200.82H1429.02V197.82ZM1469 197.82V200.82H1472V197.82H1469ZM0 201.1H39.6395V195.1H0V201.1ZM-3 85.6835V198.1H3V85.6835H-3ZM3.72926 49.5263C-0.773677 60.4372 -3 72.5036 -3 85.6835H3C3 73.1874 5.10859 61.9119 9.2755 51.8152L3.72926 49.5263ZM23.3663 21.441C14.7789 29.2478 8.23003 38.6205 3.72925 49.5263L9.2755 51.8152C13.4446 41.7132 19.4837 33.0794 27.4023 25.8807L23.3663 21.441ZM54.6729 3.44148C42.415 7.64175 31.9589 13.6295 23.3663 21.441L27.4023 25.8807C35.3157 18.6867 45.0336 13.0869 56.6178 9.11751L54.6729 3.44148ZM96.6603 -2.84773C81.0593 -2.84773 67.0519 -0.770833 54.6789 3.43942L56.6118 9.11957C68.2475 5.16018 81.5834 3.15227 96.6603 3.15227V-2.84773ZM138.523 3.44148C126.229 -0.770993 112.261 -2.84773 96.6603 -2.84773V3.15227C111.738 3.15227 125.029 5.16034 136.578 9.11751L138.523 3.44148ZM169.954 21.441C161.358 13.6262 150.857 7.63866 138.517 3.43942L136.584 9.11957C148.252 13.09 158.009 18.69 165.918 25.8807L169.954 21.441ZM189.591 49.5263C185.091 38.6205 178.542 29.2478 169.954 21.441L165.918 25.8807C173.837 33.0794 179.876 41.7132 184.045 51.8152L189.591 49.5263ZM196.321 85.6835C196.321 72.5036 194.094 60.4372 189.591 49.5263L184.045 51.8152C188.212 61.9119 190.321 73.1874 190.321 85.6835H196.321ZM196.321 198.1V85.6835H190.321V198.1H196.321ZM153.681 201.1H193.321V195.1H153.681V201.1ZM150.681 90.4353V198.1H156.681V90.4353H150.681ZM147.223 67.7912C149.509 74.3345 150.681 81.8685 150.681 90.4353H156.681C156.681 81.3289 155.436 73.1071 152.887 65.8121L147.223 67.7912ZM137.073 51.56C141.561 55.97 144.95 61.3655 147.227 67.8019L152.883 65.8014C150.324 58.5661 146.461 52.374 141.279 47.2806L137.073 51.56ZM120.306 41.3739C127.105 43.7455 132.661 47.1485 137.055 51.5416L141.297 47.299C136.187 42.1886 129.823 38.3389 122.282 35.7087L120.306 41.3739ZM96.6603 37.915C105.746 37.915 113.618 39.092 120.326 41.3806L122.263 35.702C114.799 33.1555 106.249 31.915 96.6603 31.915V37.915ZM72.87 41.3806C79.5754 39.0929 87.4885 37.915 96.6603 37.915V31.915C86.992 31.915 78.399 33.1546 70.9326 35.702L72.87 41.3806ZM56.1225 51.56C60.6119 47.148 66.1826 43.741 72.8997 41.3703L70.9028 35.7123C63.4481 38.3434 57.0978 42.189 51.917 47.2806L56.1225 51.56ZM46.0941 67.8019C48.3745 61.3539 51.7301 55.9526 56.1411 51.5416L51.8984 47.299C46.8059 52.3915 42.9922 58.5777 40.4375 65.8014L46.0941 67.8019ZM42.6395 90.4353C42.6395 81.8685 43.8117 74.3345 46.0979 67.7912L40.4337 65.8121C37.8848 73.1071 36.6395 81.3289 36.6395 90.4353H42.6395ZM42.6395 198.1V90.4353H36.6395V198.1H42.6395ZM242.797 3.15234H411.859V-2.84766H242.797V3.15234ZM245.797 198.097V0.152344H239.797V198.097H245.797ZM411.859 195.097H242.797V201.097H411.859V195.097ZM408.859 163.46V198.097H414.859V163.46H408.859ZM282.437 166.46H411.859V160.46H282.437V166.46ZM279.437 118.771V163.46H285.437V118.771H279.437ZM411.859 115.771H282.437V121.771H411.859V115.771ZM408.859 81.4247V118.771H414.859V81.4247H408.859ZM282.437 84.4247H411.859V78.4247H282.437V84.4247ZM279.437 34.9151V81.4247H285.437V34.9151H279.437ZM411.859 31.9151H282.437V37.9151H411.859V31.9151ZM408.859 0.152344V34.9151H414.859V0.152344H408.859ZM565.749 -2.84766H461.336V3.15234H565.749V-2.84766ZM599.852 1.39914C590.091 -1.45139 578.708 -2.84766 565.749 -2.84766V3.15234C578.299 3.15234 589.091 4.50708 598.17 7.15857L599.852 1.39914ZM624.46 13.0194C617.841 7.98904 609.599 4.1349 599.822 1.39049L598.2 7.16722C607.43 9.75808 614.944 13.3233 620.83 17.7964L624.46 13.0194ZM639.255 31.1701C636.031 24.0954 631.073 18.045 624.46 13.0194L620.83 17.7964C626.722 22.2743 631.017 27.5614 633.795 33.6581L639.255 31.1701ZM644.152 53.5469C644.152 45.5406 642.521 38.0543 639.235 31.1284L633.814 33.6999C636.698 39.7788 638.152 46.3809 638.152 53.5469H644.152ZM631.695 90.6109C640.08 80.6203 644.152 66.5097 644.152 53.5469H638.152C638.152 65.4265 634.387 78.0707 627.099 86.7536L631.695 90.6109ZM652.192 108.057C647.492 99.0109 640.366 91.695 630.927 86.1014L627.868 91.2631C636.435 96.3401 642.731 102.863 646.868 110.823L652.192 108.057ZM659.157 138.45C659.157 127.195 656.86 117.04 652.192 108.057L646.868 110.823C651.036 118.846 653.157 128.031 653.157 138.45H659.157ZM654.296 164.247C657.556 156.495 659.157 147.88 659.157 138.45H653.157C653.157 147.194 651.674 155.002 648.765 161.922L654.296 164.247ZM639.58 184.263C646.193 178.709 651.116 172.02 654.307 164.22L648.754 161.949C645.943 168.821 641.612 174.72 635.721 179.669L639.58 184.263ZM614.999 196.846C624.806 193.921 633.031 189.751 639.577 184.266L635.724 179.667C629.932 184.519 622.484 188.352 613.284 191.096L614.999 196.846ZM580.755 201.097C593.795 201.097 605.22 199.701 614.983 196.85L613.301 191.091C604.223 193.742 593.39 195.097 580.755 195.097V201.097ZM461.336 201.097H580.755V195.097H461.336V201.097ZM458.336 0.152344V198.097H464.336V0.152344H458.336ZM591.238 75.0622C587.907 74.806 584.496 74.6782 581.005 74.6782V80.6782C584.349 80.6782 587.607 80.8006 590.778 81.0445L591.238 75.0622ZM596.386 57.2982C596.386 63.4984 593.808 71.2303 588.936 75.884L593.081 80.2227C599.379 74.2059 602.386 64.7698 602.386 57.2982H596.386ZM589.31 43.3904C594.037 46.6358 596.386 51.1469 596.386 57.2982H602.386C602.386 49.2777 599.15 42.8682 592.706 38.444L589.31 43.3904ZM566.749 38.0401C577.131 38.0401 584.492 39.9597 589.268 43.3609L592.749 38.4735C586.521 34.0386 577.709 32.0401 566.749 32.0401V38.0401ZM500.975 38.0401H566.749V32.0401H500.975V38.0401ZM503.975 77.6782V35.0401H497.975V77.6782H503.975ZM581.005 74.6782H500.975V80.6782H581.005V74.6782ZM604.093 154.402C599.34 158.364 592.056 160.585 581.755 160.585V166.585C592.795 166.585 601.684 164.221 607.934 159.012L604.093 154.402ZM611.392 137.325C611.392 144.918 608.89 150.464 604.11 154.388L607.917 159.026C614.308 153.78 617.392 146.405 617.392 137.325H611.392ZM604.09 120.12C608.89 124.132 611.392 129.733 611.392 137.325H617.392C617.392 128.244 614.309 120.841 607.938 115.516L604.09 120.12ZM581.755 113.815C592.045 113.815 599.321 116.073 604.073 120.105L607.955 115.53C601.703 110.226 592.806 107.815 581.755 107.815V113.815ZM500.975 113.815H581.755V107.815H500.975V113.815ZM503.975 163.585V110.815H497.975V163.585H503.975ZM581.755 160.585H500.975V166.585H581.755V160.585ZM705.634 3.15234H745.273V-2.84766H705.634V3.15234ZM708.634 112.568V0.152344H702.634V112.568H708.634ZM714.909 146.437C710.742 136.34 708.634 125.065 708.634 112.568H702.634C702.634 125.748 704.86 137.815 709.363 148.726L714.909 146.437ZM733.036 172.371C725.117 165.173 719.078 156.539 714.909 146.437L709.363 148.726C713.864 159.631 720.413 169.004 729 176.811L733.036 172.371ZM762.252 189.134C750.667 185.165 740.949 179.565 733.036 172.371L729 176.811C737.593 184.622 748.049 190.61 760.307 194.81L762.252 189.134ZM802.294 195.1C787.217 195.1 773.881 193.092 762.245 189.132L760.313 194.813C772.686 199.023 786.693 201.1 802.294 201.1V195.1ZM842.212 189.134C830.663 193.092 817.372 195.1 802.294 195.1V201.1C817.894 201.1 831.863 199.023 844.156 194.81L842.212 189.134ZM871.552 172.371C863.642 179.562 853.886 185.162 842.218 189.132L844.15 194.813C856.491 190.613 866.992 184.626 875.588 176.811L871.552 172.371ZM889.679 146.437C885.51 156.539 879.471 165.173 871.552 172.371L875.588 176.811C884.176 169.004 890.724 159.631 895.225 148.726L889.679 146.437ZM895.954 112.568C895.954 125.065 893.846 136.34 889.679 146.437L895.225 148.726C899.728 137.815 901.954 125.748 901.954 112.568H895.954ZM895.954 0.152344V112.568H901.954V0.152344H895.954ZM859.315 3.15234H898.954V-2.84766H859.315V3.15234ZM862.315 107.817V0.152344H856.315V107.817H862.315ZM858.521 132.44C861.07 125.145 862.315 116.923 862.315 107.817H856.315C856.315 116.383 855.143 123.917 852.857 130.461L858.521 132.44ZM846.912 150.971C852.095 145.878 855.958 139.686 858.517 132.451L852.86 130.45C850.584 136.886 847.194 142.282 842.707 146.692L846.912 150.971ZM827.916 162.543C835.456 159.913 841.821 156.063 846.931 150.953L842.688 146.71C838.295 151.103 832.738 154.506 825.94 156.878L827.916 162.543ZM802.294 166.337C811.882 166.337 820.433 165.096 827.897 162.55L825.959 156.871C819.251 159.16 811.379 160.337 802.294 160.337V166.337ZM776.566 162.55C784.033 165.097 792.626 166.337 802.294 166.337V160.337C793.122 160.337 785.209 159.159 778.504 156.871L776.566 162.55ZM757.551 150.971C762.732 156.063 769.082 159.909 776.537 162.54L778.534 156.882C771.816 154.511 766.246 151.104 761.756 146.692L757.551 150.971ZM746.071 132.451C748.626 139.674 752.44 145.86 757.532 150.953L761.775 146.71C757.364 142.299 754.008 136.898 751.728 130.45L746.071 132.451ZM742.273 107.817C742.273 116.923 743.519 125.145 746.067 132.44L751.732 130.461C749.445 123.917 748.273 116.383 748.273 107.817H742.273ZM742.273 0.152344V107.817H748.273V0.152344H742.273ZM988.071 -2.84766H948.431V3.15234H988.071V-2.84766ZM991.071 163.335V0.152344H985.071V163.335H991.071ZM1101.74 160.335H988.071V166.335H1101.74V160.335ZM1104.74 198.097V163.335H1098.74V198.097H1104.74ZM948.431 201.097H1101.74V195.097H948.431V201.097ZM945.431 0.152344V198.097H951.431V0.152344H945.431ZM1242.99 3.15234H1285.01V-2.84766H1242.99V3.15234ZM1153.94 199.359L1245.72 1.41429L1240.27 -1.1096L1148.49 196.835L1153.94 199.359ZM1192.98 195.097H1151.21V201.097H1192.98V195.097ZM1205.87 162.555L1190.25 196.854L1195.71 199.34L1211.33 165.041L1205.87 162.555ZM1321.82 160.798H1208.6V166.798H1321.82V160.798ZM1340.62 196.824L1324.54 162.524L1319.11 165.072L1335.19 199.371L1340.62 196.824ZM1379.55 195.097H1337.91V201.097H1379.55V195.097ZM1282.3 1.44525L1376.84 199.39L1382.25 196.804L1287.72 -1.14056L1282.3 1.44525ZM1223.95 133.068H1306.01V127.068H1223.95V133.068ZM1261.65 40.0492L1221.22 128.825L1226.69 131.312L1267.11 42.5356L1261.65 40.0492ZM1308.72 128.795L1267.09 40.0187L1261.66 42.5661L1303.29 131.342L1308.72 128.795ZM1429.02 3.44037H1469V-2.55963H1429.02V3.44037ZM1432.02 197.82V0.44037H1426.02V197.82H1432.02ZM1469 194.82H1429.02V200.82H1469V194.82ZM1466 0.44037V197.82H1472V0.44037H1466Z" fill="#101A24" mask="url(#path-1-inside-1_1099_10059)"/>
</svg>
