<svg width="34" height="34" viewBox="0 0 34 34" fill="none" xmlns="http://www.w3.org/2000/svg">
<path fill-rule="evenodd" clip-rule="evenodd" d="M27.0569 11.2284C26.1424 6.54273 22.0282 3 16.9995 3C11.9712 3 7.85694 6.54273 6.9425 11.2284C3.51418 12.1429 1 15.3426 1 18.9998C1 23.457 4.54274 27 8.99992 27H25.0001C29.4573 27 33 23.457 33 18.9998C32.9997 15.3426 30.4852 12.1429 27.0569 11.2284ZM18.0235 23.5372V18.4252H21.0016C21.1803 18.4253 21.3558 18.3774 21.5097 18.2865C21.6635 18.1957 21.7902 18.0651 21.8764 17.9085C21.9625 17.752 22.0051 17.5751 21.9996 17.3965C21.994 17.2179 21.9406 17.044 21.845 16.893L17.6005 10.1904C17.5099 10.0474 17.3844 9.92974 17.2359 9.84859C17.0873 9.76744 16.9205 9.72542 16.7512 9.7265C16.5819 9.72758 16.4156 9.77171 16.2681 9.85475C16.1206 9.93779 15.9966 10.057 15.9078 10.2012L11.7748 16.9038H11.7736C11.6804 17.0551 11.6292 17.2285 11.6255 17.4061C11.6217 17.5838 11.6654 17.7592 11.7521 17.9143C11.8388 18.0694 11.9654 18.1985 12.1187 18.2883C12.272 18.3782 12.4465 18.4254 12.6242 18.4252H15.6276V23.5372C15.6276 23.8019 15.7327 24.0557 15.9198 24.2429C16.107 24.43 16.3608 24.5352 16.6255 24.5352H17.0256C17.2903 24.5352 17.5441 24.43 17.7312 24.2429C17.9184 24.0557 18.0235 23.8019 18.0235 23.5372Z" fill="white"/>
</svg>
