<svg width="34" height="34" viewBox="0 0 34 34" fill="none" xmlns="http://www.w3.org/2000/svg">
<path d="M20.5789 2C21.0535 2 21.5087 2.19156 21.8443 2.53253C22.1799 2.87351 22.3684 3.33597 22.3684 3.81818V11.0909C22.3684 11.5731 22.1799 12.0356 21.8443 12.3766C21.5087 12.7175 21.0535 12.9091 20.5789 12.9091H18.3421V16.5455H29.5263C30.0009 16.5455 30.4561 16.737 30.7917 17.078C31.1273 17.419 31.3158 17.8814 31.3158 18.3636V22.9091H32.2105C32.6851 22.9091 33.1403 23.1006 33.4759 23.4416C33.8115 23.7826 34 24.2451 34 24.7273V30.1818C34 30.664 33.8115 31.1265 33.4759 31.4675C33.1403 31.8084 32.6851 32 32.2105 32H26.8421C26.3675 32 25.9123 31.8084 25.5768 31.4675C25.2412 31.1265 25.0526 30.664 25.0526 30.1818V24.7273C25.0526 24.2451 25.2412 23.7826 25.5768 23.4416C25.9123 23.1006 26.3675 22.9091 26.8421 22.9091H28.6316V19.2727H18.3421V22.9091H19.6842C20.1588 22.9091 20.614 23.1006 20.9496 23.4416C21.2852 23.7826 21.4737 24.2451 21.4737 24.7273V30.1818C21.4737 30.664 21.2852 31.1265 20.9496 31.4675C20.614 31.8084 20.1588 32 19.6842 32H14.3158C13.8412 32 13.386 31.8084 13.0504 31.4675C12.7149 31.1265 12.5263 30.664 12.5263 30.1818V24.7273C12.5263 24.4885 12.5726 24.2521 12.6625 24.0315C12.7525 23.8109 12.8843 23.6105 13.0504 23.4416C13.2166 23.2728 13.4139 23.1389 13.631 23.0475C13.8481 22.9561 14.0808 22.9091 14.3158 22.9091H15.6579V19.2727H6.26316V22.9091H7.1579C7.39289 22.9091 7.62559 22.9561 7.8427 23.0475C8.05981 23.1389 8.25708 23.2728 8.42325 23.4416C8.58941 23.6105 8.72122 23.8109 8.81115 24.0315C8.90108 24.2521 8.94737 24.4885 8.94737 24.7273V30.1818C8.94737 30.664 8.75884 31.1265 8.42325 31.4675C8.08765 31.8084 7.63249 32 7.1579 32H1.78947C1.31488 32 0.859716 31.8084 0.524125 31.4675C0.188533 31.1265 0 30.664 0 30.1818V24.7273C0 24.2451 0.188533 23.7826 0.524125 23.4416C0.859716 23.1006 1.31488 22.9091 1.78947 22.9091H3.57895V18.3636C3.57895 18.1249 3.62523 17.8884 3.71516 17.6678C3.80509 17.4473 3.9369 17.2468 4.10307 17.078C4.26924 16.9092 4.46651 16.7752 4.68362 16.6839C4.90073 16.5925 5.13342 16.5455 5.36842 16.5455H15.6579V12.9091H13.4211C13.1861 12.9091 12.9534 12.8621 12.7363 12.7707C12.5191 12.6793 12.3219 12.5454 12.1557 12.3766C11.9895 12.2077 11.8577 12.0073 11.7678 11.7867C11.6779 11.5661 11.6316 11.3297 11.6316 11.0909V3.81818C11.6316 3.33597 11.8201 2.87351 12.1557 2.53253C12.4913 2.19156 12.9465 2 13.4211 2H20.5789Z" fill="white"/>
</svg>
