<svg width="527" height="138" viewBox="0 0 527 138" fill="none" xmlns="http://www.w3.org/2000/svg">
<path d="M6 138L11.7735 128H0.226497L6 138ZM5 123.565V129H7V123.565H5ZM240.435 107.565H21V109.565H240.435V107.565ZM262 86C262 97.9098 252.345 107.565 240.435 107.565V109.565C253.45 109.565 264 99.0143 264 86H262ZM7 123.565C7 115.833 13.268 109.565 21 109.565V107.565C12.1634 107.565 5 114.728 5 123.565H7Z" fill="#27E6FF"/>
<path d="M189 138L194.774 128H183.226L189 138ZM188 123.565V129H190V123.565H188ZM240.435 107.565H204V109.565H240.435V107.565ZM262 86C262 97.9099 252.345 107.565 240.435 107.565V109.565C253.45 109.565 264 99.0144 264 86H262ZM190 123.565C190 115.833 196.268 109.565 204 109.565V107.565C195.163 107.565 188 114.728 188 123.565H190Z" fill="#27E6FF"/>
<path d="M359 138L353.226 128H364.774L359 138ZM360 123.565V129H358V123.565H360ZM285.565 107.565H344V109.565H285.565V107.565ZM264 86C264 97.9099 273.655 107.565 285.565 107.565V109.565C272.55 109.565 262 99.0144 262 86H264ZM358 123.565C358 115.833 351.732 109.565 344 109.565V107.565C352.837 107.565 360 114.728 360 123.565H358Z" fill="#27E6FF"/>
<path d="M521 138L515.226 128H526.774L521 138ZM522 123.564V129H520V123.564H522ZM285.564 107.564H506V109.564H285.564V107.564ZM264 86C264 97.9097 273.655 107.564 285.564 107.564V109.564C272.55 109.564 262 99.0143 262 86H264ZM520 123.564C520 115.833 513.732 109.564 506 109.564V107.564C514.837 107.564 522 114.728 522 123.564H520Z" fill="#27E6FF"/>
<path d="M264 52L269.774 42H258.226L264 52ZM263 0V43H265V0H263Z" fill="#27E6FF"/>
</svg>
