<svg width="757" height="174" viewBox="0 0 757 174" fill="none" xmlns="http://www.w3.org/2000/svg">
<path d="M0 16C0 7.16345 7.16344 0 16 0H741C749.837 0 757 7.16344 757 16V158C757 166.837 749.837 174 741 174H16C7.16343 174 0 166.837 0 158V16Z" fill="url(#paint0_linear_384_4781)"/>
<path d="M38.5 16C38.5 7.43959 45.4396 0.5 54 0.5H741C749.56 0.5 756.5 7.43959 756.5 16V158C756.5 166.56 749.56 173.5 741 173.5H54C45.4396 173.5 38.5 166.56 38.5 158V16Z" fill="#101313" stroke="#303F41"/>
<path d="M671.522 120.168C670.84 120.168 670.243 120.009 669.73 119.692C669.216 119.365 668.82 118.922 668.54 118.362C668.26 117.802 668.12 117.167 668.12 116.458C668.12 115.749 668.26 115.119 668.54 114.568C668.82 114.008 669.216 113.569 669.73 113.252C670.252 112.935 670.854 112.776 671.536 112.776C672.114 112.776 672.618 112.893 673.048 113.126C673.486 113.359 673.822 113.686 674.056 114.106V109.92H675.232V120H674.168L674.07 118.838C673.92 119.071 673.729 119.291 673.496 119.496C673.262 119.692 672.982 119.855 672.656 119.986C672.329 120.107 671.951 120.168 671.522 120.168ZM671.662 119.146C672.128 119.146 672.539 119.034 672.894 118.81C673.248 118.586 673.524 118.278 673.72 117.886C673.916 117.485 674.014 117.013 674.014 116.472C674.014 115.94 673.916 115.473 673.72 115.072C673.524 114.671 673.248 114.358 672.894 114.134C672.539 113.91 672.128 113.798 671.662 113.798C671.204 113.798 670.798 113.91 670.444 114.134C670.089 114.358 669.814 114.671 669.618 115.072C669.422 115.473 669.324 115.94 669.324 116.472C669.324 117.013 669.422 117.485 669.618 117.886C669.814 118.278 670.089 118.586 670.444 118.81C670.798 119.034 671.204 119.146 671.662 119.146ZM680.285 120.168C679.622 120.168 679.034 120.014 678.521 119.706C678.017 119.398 677.62 118.969 677.331 118.418C677.042 117.858 676.897 117.209 676.897 116.472C676.897 115.725 677.037 115.077 677.317 114.526C677.606 113.975 678.008 113.546 678.521 113.238C679.044 112.93 679.641 112.776 680.313 112.776C681.004 112.776 681.587 112.93 682.063 113.238C682.548 113.546 682.917 113.952 683.169 114.456C683.43 114.951 683.561 115.497 683.561 116.094C683.561 116.187 683.561 116.285 683.561 116.388C683.561 116.491 683.556 116.607 683.547 116.738H677.779V115.828H682.413C682.385 115.184 682.17 114.68 681.769 114.316C681.377 113.952 680.882 113.77 680.285 113.77C679.884 113.77 679.51 113.863 679.165 114.05C678.829 114.227 678.558 114.493 678.353 114.848C678.148 115.193 678.045 115.627 678.045 116.15V116.542C678.045 117.121 678.148 117.606 678.353 117.998C678.568 118.39 678.843 118.684 679.179 118.88C679.524 119.076 679.893 119.174 680.285 119.174C680.78 119.174 681.186 119.067 681.503 118.852C681.83 118.628 682.063 118.329 682.203 117.956H683.365C683.253 118.376 683.057 118.754 682.777 119.09C682.497 119.426 682.147 119.692 681.727 119.888C681.316 120.075 680.836 120.168 680.285 120.168ZM685.148 120V109.92H686.324V120H685.148ZM691.415 120.168C690.762 120.168 690.174 120.019 689.651 119.72C689.128 119.412 688.718 118.983 688.419 118.432C688.12 117.872 687.971 117.223 687.971 116.486C687.971 115.73 688.12 115.077 688.419 114.526C688.727 113.966 689.142 113.537 689.665 113.238C690.197 112.93 690.79 112.776 691.443 112.776C692.115 112.776 692.708 112.93 693.221 113.238C693.744 113.537 694.154 113.966 694.453 114.526C694.761 115.077 694.915 115.725 694.915 116.472C694.915 117.219 694.761 117.872 694.453 118.432C694.145 118.983 693.73 119.412 693.207 119.72C692.684 120.019 692.087 120.168 691.415 120.168ZM691.429 119.16C691.83 119.16 692.204 119.062 692.549 118.866C692.894 118.661 693.174 118.357 693.389 117.956C693.604 117.555 693.711 117.06 693.711 116.472C693.711 115.875 693.604 115.38 693.389 114.988C693.184 114.587 692.908 114.288 692.563 114.092C692.227 113.887 691.854 113.784 691.443 113.784C691.051 113.784 690.678 113.887 690.323 114.092C689.978 114.288 689.698 114.587 689.483 114.988C689.278 115.38 689.175 115.875 689.175 116.472C689.175 117.06 689.278 117.555 689.483 117.956C689.698 118.357 689.973 118.661 690.309 118.866C690.654 119.062 691.028 119.16 691.429 119.16ZM696.564 123.08V112.944H697.628L697.726 114.092C697.875 113.868 698.067 113.658 698.3 113.462C698.533 113.257 698.813 113.093 699.14 112.972C699.467 112.841 699.84 112.776 700.26 112.776C700.951 112.776 701.548 112.939 702.052 113.266C702.565 113.593 702.962 114.036 703.242 114.596C703.531 115.147 703.676 115.777 703.676 116.486C703.676 117.195 703.531 117.83 703.242 118.39C702.962 118.941 702.565 119.375 702.052 119.692C701.539 120.009 700.937 120.168 700.246 120.168C699.677 120.168 699.173 120.051 698.734 119.818C698.305 119.585 697.973 119.258 697.74 118.838V123.08H696.564ZM700.12 119.146C700.577 119.146 700.983 119.034 701.338 118.81C701.693 118.586 701.968 118.278 702.164 117.886C702.369 117.485 702.472 117.013 702.472 116.472C702.472 115.94 702.369 115.473 702.164 115.072C701.968 114.671 701.693 114.358 701.338 114.134C700.983 113.91 700.577 113.798 700.12 113.798C699.653 113.798 699.243 113.91 698.888 114.134C698.533 114.358 698.258 114.671 698.062 115.072C697.866 115.473 697.768 115.94 697.768 116.472C697.768 117.013 697.866 117.485 698.062 117.886C698.258 118.278 698.533 118.586 698.888 118.81C699.243 119.034 699.653 119.146 700.12 119.146ZM705.537 123.08L707.259 119.216H706.853L704.081 112.944H705.355L707.651 118.334L710.059 112.944H711.277L706.769 123.08H705.537Z" fill="#27E6FF"/>
<rect x="92.5" y="24.5" width="69" height="33" rx="5.5" fill="url(#paint1_linear_384_4781)"/>
<rect x="92.5" y="24.5" width="69" height="33" rx="5.5" stroke="url(#paint2_linear_384_4781)"/>
<path d="M112.784 46V37.166H109.858V36.2H116.886V37.166H113.96V46H112.784ZM119.523 46.168C118.954 46.168 118.478 46.07 118.095 45.874C117.712 45.6687 117.428 45.4027 117.241 45.076C117.054 44.74 116.961 44.376 116.961 43.984C116.961 43.508 117.082 43.1067 117.325 42.78C117.577 42.444 117.927 42.192 118.375 42.024C118.832 41.8467 119.369 41.758 119.985 41.758H121.847C121.847 41.3193 121.777 40.9553 121.637 40.666C121.506 40.3673 121.31 40.1433 121.049 39.994C120.797 39.8447 120.48 39.77 120.097 39.77C119.649 39.77 119.262 39.882 118.935 40.106C118.608 40.33 118.408 40.6613 118.333 41.1H117.129C117.185 40.596 117.353 40.176 117.633 39.84C117.922 39.4947 118.286 39.2333 118.725 39.056C119.164 38.8693 119.621 38.776 120.097 38.776C120.75 38.776 121.292 38.8973 121.721 39.14C122.16 39.3733 122.486 39.7047 122.701 40.134C122.916 40.554 123.023 41.0533 123.023 41.632V46H121.973L121.903 44.754C121.81 44.95 121.688 45.1367 121.539 45.314C121.399 45.482 121.231 45.6313 121.035 45.762C120.839 45.8833 120.615 45.9813 120.363 46.056C120.12 46.1307 119.84 46.168 119.523 46.168ZM119.705 45.174C120.032 45.174 120.326 45.1087 120.587 44.978C120.858 44.838 121.086 44.6513 121.273 44.418C121.46 44.1753 121.6 43.9093 121.693 43.62C121.796 43.3307 121.847 43.0273 121.847 42.71V42.668H120.083C119.626 42.668 119.257 42.724 118.977 42.836C118.697 42.9387 118.496 43.088 118.375 43.284C118.254 43.4707 118.193 43.6853 118.193 43.928C118.193 44.18 118.249 44.3993 118.361 44.586C118.482 44.7727 118.655 44.9173 118.879 45.02C119.112 45.1227 119.388 45.174 119.705 45.174ZM127.502 46.168C126.914 46.168 126.401 46.07 125.962 45.874C125.533 45.678 125.188 45.4073 124.926 45.062C124.674 44.7073 124.52 44.292 124.464 43.816H125.668C125.715 44.0587 125.813 44.2827 125.962 44.488C126.112 44.6933 126.312 44.8613 126.564 44.992C126.826 45.1133 127.143 45.174 127.516 45.174C127.843 45.174 128.114 45.1273 128.328 45.034C128.543 44.9313 128.702 44.796 128.804 44.628C128.916 44.46 128.972 44.278 128.972 44.082C128.972 43.7927 128.902 43.5733 128.762 43.424C128.632 43.2747 128.436 43.158 128.174 43.074C127.913 42.9807 127.596 42.9013 127.222 42.836C126.914 42.78 126.611 42.7053 126.312 42.612C126.014 42.5187 125.748 42.3973 125.514 42.248C125.281 42.0893 125.094 41.898 124.954 41.674C124.824 41.45 124.758 41.1747 124.758 40.848C124.758 40.4467 124.861 40.092 125.066 39.784C125.272 39.4667 125.566 39.2193 125.948 39.042C126.34 38.8647 126.793 38.776 127.306 38.776C128.062 38.776 128.674 38.958 129.14 39.322C129.607 39.686 129.882 40.2133 129.966 40.904H128.804C128.758 40.5493 128.604 40.274 128.342 40.078C128.09 39.8727 127.74 39.77 127.292 39.77C126.854 39.77 126.518 39.8587 126.284 40.036C126.06 40.2133 125.948 40.4467 125.948 40.736C125.948 40.9227 126.009 41.0907 126.13 41.24C126.261 41.38 126.448 41.5013 126.69 41.604C126.942 41.7067 127.25 41.7907 127.614 41.856C128.081 41.94 128.506 42.052 128.888 42.192C129.271 42.332 129.579 42.542 129.812 42.822C130.055 43.0927 130.176 43.48 130.176 43.984C130.176 44.4227 130.064 44.8053 129.84 45.132C129.626 45.4587 129.318 45.7153 128.916 45.902C128.515 46.0793 128.044 46.168 127.502 46.168ZM136.21 46L132.85 42.136L135.916 38.944H137.358L133.844 42.556L133.858 41.716L137.708 46H136.21ZM131.87 46V35.92H133.046V46H131.87ZM141.174 46.168C140.586 46.168 140.073 46.07 139.634 45.874C139.205 45.678 138.86 45.4073 138.598 45.062C138.346 44.7073 138.192 44.292 138.136 43.816H139.34C139.387 44.0587 139.485 44.2827 139.634 44.488C139.784 44.6933 139.984 44.8613 140.236 44.992C140.498 45.1133 140.815 45.174 141.188 45.174C141.515 45.174 141.786 45.1273 142 45.034C142.215 44.9313 142.374 44.796 142.476 44.628C142.588 44.46 142.644 44.278 142.644 44.082C142.644 43.7927 142.574 43.5733 142.434 43.424C142.304 43.2747 142.108 43.158 141.846 43.074C141.585 42.9807 141.268 42.9013 140.894 42.836C140.586 42.78 140.283 42.7053 139.984 42.612C139.686 42.5187 139.42 42.3973 139.186 42.248C138.953 42.0893 138.766 41.898 138.626 41.674C138.496 41.45 138.43 41.1747 138.43 40.848C138.43 40.4467 138.533 40.092 138.738 39.784C138.944 39.4667 139.238 39.2193 139.62 39.042C140.012 38.8647 140.465 38.776 140.978 38.776C141.734 38.776 142.346 38.958 142.812 39.322C143.279 39.686 143.554 40.2133 143.638 40.904H142.476C142.43 40.5493 142.276 40.274 142.014 40.078C141.762 39.8727 141.412 39.77 140.964 39.77C140.526 39.77 140.19 39.8587 139.956 40.036C139.732 40.2133 139.62 40.4467 139.62 40.736C139.62 40.9227 139.681 41.0907 139.802 41.24C139.933 41.38 140.12 41.5013 140.362 41.604C140.614 41.7067 140.922 41.7907 141.286 41.856C141.753 41.94 142.178 42.052 142.56 42.192C142.943 42.332 143.251 42.542 143.484 42.822C143.727 43.0927 143.848 43.48 143.848 43.984C143.848 44.4227 143.736 44.8053 143.512 45.132C143.298 45.4587 142.99 45.7153 142.588 45.902C142.187 46.0793 141.716 46.168 141.174 46.168Z" fill="white" fill-opacity="0.8"/>
<rect x="195.5" y="24.5" width="135" height="33" rx="5.5" fill="url(#paint3_linear_384_4781)"/>
<rect x="195.5" y="24.5" width="135" height="33" rx="5.5" stroke="url(#paint4_linear_384_4781)"/>
<path d="M213.109 46V36.2H216.301C217.075 36.2 217.71 36.3307 218.205 36.592C218.709 36.844 219.077 37.1847 219.311 37.614C219.553 38.0433 219.675 38.5333 219.675 39.084C219.675 39.616 219.553 40.1013 219.311 40.54C219.077 40.9693 218.713 41.3147 218.219 41.576C217.724 41.8373 217.085 41.968 216.301 41.968H214.285V46H213.109ZM214.285 40.974H216.287C217.071 40.974 217.631 40.8013 217.967 40.456C218.303 40.1107 218.471 39.6533 218.471 39.084C218.471 38.4773 218.303 38.0107 217.967 37.684C217.631 37.348 217.071 37.18 216.287 37.18H214.285V40.974ZM221.16 46V38.944H222.224L222.308 40.288C222.466 39.9707 222.667 39.7 222.91 39.476C223.162 39.252 223.46 39.0793 223.806 38.958C224.16 38.8367 224.562 38.776 225.01 38.776V40.008H224.576C224.277 40.008 223.992 40.05 223.722 40.134C223.451 40.2087 223.208 40.3347 222.994 40.512C222.788 40.6893 222.625 40.932 222.504 41.24C222.392 41.5387 222.336 41.912 222.336 42.36V46H221.16ZM229.176 46.168C228.513 46.168 227.925 46.014 227.412 45.706C226.908 45.398 226.511 44.9687 226.222 44.418C225.932 43.858 225.788 43.2093 225.788 42.472C225.788 41.7253 225.928 41.0767 226.208 40.526C226.497 39.9753 226.898 39.546 227.412 39.238C227.934 38.93 228.532 38.776 229.204 38.776C229.894 38.776 230.478 38.93 230.954 39.238C231.439 39.546 231.808 39.952 232.06 40.456C232.321 40.9507 232.452 41.4967 232.452 42.094C232.452 42.1873 232.452 42.2853 232.452 42.388C232.452 42.4907 232.447 42.6073 232.438 42.738H226.67V41.828H231.304C231.276 41.184 231.061 40.68 230.66 40.316C230.268 39.952 229.773 39.77 229.176 39.77C228.774 39.77 228.401 39.8633 228.056 40.05C227.72 40.2273 227.449 40.4933 227.244 40.848C227.038 41.1933 226.936 41.6273 226.936 42.15V42.542C226.936 43.1207 227.038 43.606 227.244 43.998C227.458 44.39 227.734 44.684 228.07 44.88C228.415 45.076 228.784 45.174 229.176 45.174C229.67 45.174 230.076 45.0667 230.394 44.852C230.72 44.628 230.954 44.3293 231.094 43.956H232.256C232.144 44.376 231.948 44.754 231.668 45.09C231.388 45.426 231.038 45.692 230.618 45.888C230.207 46.0747 229.726 46.168 229.176 46.168ZM237.217 46.168C236.554 46.168 235.957 46.014 235.425 45.706C234.902 45.398 234.491 44.9687 234.193 44.418C233.894 43.858 233.745 43.214 233.745 42.486C233.745 41.7393 233.894 41.0907 234.193 40.54C234.491 39.9893 234.902 39.56 235.425 39.252C235.957 38.9347 236.554 38.776 237.217 38.776C238.057 38.776 238.757 38.9953 239.317 39.434C239.877 39.8633 240.231 40.442 240.381 41.17H239.177C239.083 40.7313 238.855 40.3907 238.491 40.148C238.127 39.9053 237.697 39.784 237.203 39.784C236.801 39.784 236.428 39.8867 236.083 40.092C235.737 40.288 235.462 40.5867 235.257 40.988C235.051 41.3893 234.949 41.884 234.949 42.472C234.949 42.9107 235.009 43.3027 235.131 43.648C235.252 43.984 235.415 44.264 235.621 44.488C235.826 44.712 236.064 44.8847 236.335 45.006C236.615 45.118 236.904 45.174 237.203 45.174C237.539 45.174 237.842 45.1227 238.113 45.02C238.383 44.908 238.612 44.7447 238.799 44.53C238.985 44.3153 239.111 44.0633 239.177 43.774H240.381C240.231 44.4833 239.872 45.062 239.303 45.51C238.743 45.9487 238.047 46.168 237.217 46.168ZM245.2 46.168C244.547 46.168 243.959 46.0187 243.436 45.72C242.914 45.412 242.503 44.9827 242.204 44.432C241.906 43.872 241.756 43.2233 241.756 42.486C241.756 41.73 241.906 41.0767 242.204 40.526C242.512 39.966 242.928 39.5367 243.45 39.238C243.982 38.93 244.575 38.776 245.228 38.776C245.9 38.776 246.493 38.93 247.006 39.238C247.529 39.5367 247.94 39.966 248.238 40.526C248.546 41.0767 248.7 41.7253 248.7 42.472C248.7 43.2187 248.546 43.872 248.238 44.432C247.93 44.9827 247.515 45.412 246.992 45.72C246.47 46.0187 245.872 46.168 245.2 46.168ZM245.214 45.16C245.616 45.16 245.989 45.062 246.334 44.866C246.68 44.6607 246.96 44.3573 247.174 43.956C247.389 43.5547 247.496 43.06 247.496 42.472C247.496 41.8747 247.389 41.38 247.174 40.988C246.969 40.5867 246.694 40.288 246.348 40.092C246.012 39.8867 245.639 39.784 245.228 39.784C244.836 39.784 244.463 39.8867 244.108 40.092C243.763 40.288 243.483 40.5867 243.268 40.988C243.063 41.38 242.96 41.8747 242.96 42.472C242.96 43.06 243.063 43.5547 243.268 43.956C243.483 44.3573 243.758 44.6607 244.094 44.866C244.44 45.062 244.813 45.16 245.214 45.16ZM250.349 46V38.944H251.413L251.469 40.176C251.693 39.7373 252.01 39.3967 252.421 39.154C252.841 38.902 253.317 38.776 253.849 38.776C254.4 38.776 254.876 38.888 255.277 39.112C255.678 39.3267 255.991 39.658 256.215 40.106C256.439 40.5447 256.551 41.1047 256.551 41.786V46H255.375V41.912C255.375 41.2027 255.216 40.6707 254.899 40.316C254.591 39.9613 254.152 39.784 253.583 39.784C253.191 39.784 252.841 39.882 252.533 40.078C252.225 40.2647 251.978 40.54 251.791 40.904C251.614 41.2587 251.525 41.702 251.525 42.234V46H250.349ZM261.496 46.168C260.815 46.168 260.218 46.0093 259.704 45.692C259.191 45.3653 258.794 44.922 258.514 44.362C258.234 43.802 258.094 43.1673 258.094 42.458C258.094 41.7487 258.234 41.1187 258.514 40.568C258.794 40.008 259.191 39.5693 259.704 39.252C260.227 38.9347 260.829 38.776 261.51 38.776C262.089 38.776 262.593 38.8927 263.022 39.126C263.461 39.3593 263.797 39.686 264.03 40.106V35.92H265.206V46H264.142L264.044 44.838C263.895 45.0713 263.704 45.2907 263.47 45.496C263.237 45.692 262.957 45.8553 262.63 45.986C262.304 46.1073 261.926 46.168 261.496 46.168ZM261.636 45.146C262.103 45.146 262.514 45.034 262.868 44.81C263.223 44.586 263.498 44.278 263.694 43.886C263.89 43.4847 263.988 43.0133 263.988 42.472C263.988 41.94 263.89 41.4733 263.694 41.072C263.498 40.6707 263.223 40.358 262.868 40.134C262.514 39.91 262.103 39.798 261.636 39.798C261.179 39.798 260.773 39.91 260.418 40.134C260.064 40.358 259.788 40.6707 259.592 41.072C259.396 41.4733 259.298 41.94 259.298 42.472C259.298 43.0133 259.396 43.4847 259.592 43.886C259.788 44.278 260.064 44.586 260.418 44.81C260.773 45.034 261.179 45.146 261.636 45.146ZM267.278 46V38.944H268.454V46H267.278ZM267.866 37.446C267.632 37.446 267.436 37.3713 267.278 37.222C267.128 37.0633 267.054 36.8673 267.054 36.634C267.054 36.4007 267.128 36.214 267.278 36.074C267.436 35.9247 267.632 35.85 267.866 35.85C268.09 35.85 268.281 35.9247 268.44 36.074C268.598 36.214 268.678 36.4007 268.678 36.634C268.678 36.8673 268.598 37.0633 268.44 37.222C268.281 37.3713 268.09 37.446 267.866 37.446ZM273.301 46C272.881 46 272.517 45.9347 272.209 45.804C271.901 45.6733 271.663 45.454 271.495 45.146C271.336 44.8287 271.257 44.404 271.257 43.872V39.938H270.025V38.944H271.257L271.411 37.236H272.433V38.944H274.477V39.938H272.433V43.872C272.433 44.3107 272.521 44.6093 272.699 44.768C272.876 44.9173 273.189 44.992 273.637 44.992H274.393V46H273.301ZM276.123 46V38.944H277.299V46H276.123ZM276.711 37.446C276.478 37.446 276.282 37.3713 276.123 37.222C275.974 37.0633 275.899 36.8673 275.899 36.634C275.899 36.4007 275.974 36.214 276.123 36.074C276.282 35.9247 276.478 35.85 276.711 35.85C276.935 35.85 277.127 35.9247 277.285 36.074C277.444 36.214 277.523 36.4007 277.523 36.634C277.523 36.8673 277.444 37.0633 277.285 37.222C277.127 37.3713 276.935 37.446 276.711 37.446ZM282.525 46.168C281.871 46.168 281.283 46.0187 280.761 45.72C280.238 45.412 279.827 44.9827 279.529 44.432C279.23 43.872 279.081 43.2233 279.081 42.486C279.081 41.73 279.23 41.0767 279.529 40.526C279.837 39.966 280.252 39.5367 280.775 39.238C281.307 38.93 281.899 38.776 282.553 38.776C283.225 38.776 283.817 38.93 284.331 39.238C284.853 39.5367 285.264 39.966 285.563 40.526C285.871 41.0767 286.025 41.7253 286.025 42.472C286.025 43.2187 285.871 43.872 285.563 44.432C285.255 44.9827 284.839 45.412 284.317 45.72C283.794 46.0187 283.197 46.168 282.525 46.168ZM282.539 45.16C282.94 45.16 283.313 45.062 283.659 44.866C284.004 44.6607 284.284 44.3573 284.499 43.956C284.713 43.5547 284.821 43.06 284.821 42.472C284.821 41.8747 284.713 41.38 284.499 40.988C284.293 40.5867 284.018 40.288 283.673 40.092C283.337 39.8867 282.963 39.784 282.553 39.784C282.161 39.784 281.787 39.8867 281.433 40.092C281.087 40.288 280.807 40.5867 280.593 40.988C280.387 41.38 280.285 41.8747 280.285 42.472C280.285 43.06 280.387 43.5547 280.593 43.956C280.807 44.3573 281.083 44.6607 281.419 44.866C281.764 45.062 282.137 45.16 282.539 45.16ZM287.673 46V38.944H288.737L288.793 40.176C289.017 39.7373 289.335 39.3967 289.745 39.154C290.165 38.902 290.641 38.776 291.173 38.776C291.724 38.776 292.2 38.888 292.601 39.112C293.003 39.3267 293.315 39.658 293.539 40.106C293.763 40.5447 293.875 41.1047 293.875 41.786V46H292.699V41.912C292.699 41.2027 292.541 40.6707 292.223 40.316C291.915 39.9613 291.477 39.784 290.907 39.784C290.515 39.784 290.165 39.882 289.857 40.078C289.549 40.2647 289.302 40.54 289.115 40.904C288.938 41.2587 288.849 41.702 288.849 42.234V46H287.673ZM295.824 46V38.944H297V46H295.824ZM296.412 37.446C296.179 37.446 295.983 37.3713 295.824 37.222C295.675 37.0633 295.6 36.8673 295.6 36.634C295.6 36.4007 295.675 36.214 295.824 36.074C295.983 35.9247 296.179 35.85 296.412 35.85C296.636 35.85 296.828 35.9247 296.986 36.074C297.145 36.214 297.224 36.4007 297.224 36.634C297.224 36.8673 297.145 37.0633 296.986 37.222C296.828 37.3713 296.636 37.446 296.412 37.446ZM299.076 46V38.944H300.14L300.196 40.176C300.42 39.7373 300.737 39.3967 301.148 39.154C301.568 38.902 302.044 38.776 302.576 38.776C303.126 38.776 303.602 38.888 304.004 39.112C304.405 39.3267 304.718 39.658 304.942 40.106C305.166 40.5447 305.278 41.1047 305.278 41.786V46H304.102V41.912C304.102 41.2027 303.943 40.6707 303.626 40.316C303.318 39.9613 302.879 39.784 302.31 39.784C301.918 39.784 301.568 39.882 301.26 40.078C300.952 40.2647 300.704 40.54 300.518 40.904C300.34 41.2587 300.252 41.702 300.252 42.234V46H299.076ZM309.901 49.248C309.266 49.248 308.701 49.164 308.207 48.996C307.721 48.8373 307.343 48.59 307.073 48.254C306.802 47.918 306.667 47.5027 306.667 47.008C306.667 46.7933 306.709 46.5647 306.793 46.322C306.886 46.0793 307.04 45.8413 307.255 45.608C307.479 45.3747 307.791 45.1647 308.193 44.978L309.005 45.454C308.51 45.6593 308.188 45.8927 308.039 46.154C307.889 46.4247 307.815 46.672 307.815 46.896C307.815 47.204 307.903 47.4607 308.081 47.666C308.258 47.8713 308.505 48.0253 308.823 48.128C309.14 48.2307 309.499 48.282 309.901 48.282C310.302 48.282 310.647 48.226 310.937 48.114C311.226 48.002 311.45 47.8433 311.609 47.638C311.767 47.4327 311.847 47.19 311.847 46.91C311.847 46.5833 311.725 46.308 311.483 46.084C311.24 45.8693 310.778 45.7433 310.097 45.706C309.546 45.6687 309.084 45.6173 308.711 45.552C308.337 45.4867 308.029 45.412 307.787 45.328C307.544 45.2347 307.339 45.132 307.171 45.02C307.012 44.908 306.867 44.7913 306.737 44.67V44.348L308.095 43.004L309.117 43.368L307.717 44.628L307.899 44.138C308.001 44.2127 308.099 44.2827 308.193 44.348C308.286 44.4133 308.412 44.4693 308.571 44.516C308.729 44.5627 308.949 44.6047 309.229 44.642C309.518 44.6793 309.896 44.7167 310.363 44.754C311.007 44.8007 311.52 44.9127 311.903 45.09C312.295 45.2673 312.575 45.5053 312.743 45.804C312.92 46.1027 313.009 46.4573 313.009 46.868C313.009 47.2693 312.897 47.6473 312.673 48.002C312.458 48.366 312.122 48.6647 311.665 48.898C311.207 49.1313 310.619 49.248 309.901 49.248ZM309.887 43.788C309.299 43.788 308.795 43.676 308.375 43.452C307.964 43.228 307.651 42.9293 307.437 42.556C307.222 42.1733 307.115 41.7487 307.115 41.282C307.115 40.8153 307.222 40.3953 307.437 40.022C307.661 39.6487 307.978 39.35 308.389 39.126C308.799 38.8927 309.299 38.776 309.887 38.776C310.475 38.776 310.974 38.8927 311.385 39.126C311.795 39.35 312.108 39.6487 312.323 40.022C312.537 40.3953 312.645 40.8153 312.645 41.282C312.645 41.7487 312.537 42.1733 312.323 42.556C312.108 42.9293 311.795 43.228 311.385 43.452C310.974 43.676 310.475 43.788 309.887 43.788ZM309.887 42.822C310.391 42.822 310.787 42.6913 311.077 42.43C311.366 42.1687 311.511 41.786 311.511 41.282C311.511 40.7873 311.366 40.4093 311.077 40.148C310.787 39.8867 310.391 39.756 309.887 39.756C309.392 39.756 308.991 39.8867 308.683 40.148C308.384 40.4093 308.235 40.7873 308.235 41.282C308.235 41.786 308.384 42.1687 308.683 42.43C308.981 42.6913 309.383 42.822 309.887 42.822ZM311.035 39.938L310.685 38.944H313.569V39.826L311.035 39.938Z" fill="white" fill-opacity="0.8"/>
<g filter="url(#filter0_d_384_4781)">
<rect x="364" y="24" width="120" height="34" rx="6" fill="url(#paint5_linear_384_4781)" shape-rendering="crispEdges"/>
<path d="M377.327 46V36.2H380.491C381.257 36.2 381.882 36.3307 382.367 36.592C382.853 36.844 383.212 37.1847 383.445 37.614C383.679 38.0433 383.795 38.5287 383.795 39.07C383.795 39.5927 383.674 40.0733 383.431 40.512C383.198 40.9507 382.834 41.3007 382.339 41.562C381.845 41.8233 381.21 41.954 380.435 41.954H378.503V46H377.327ZM382.507 46L380.351 41.618H381.667L383.893 46H382.507ZM378.503 41.03H380.407C381.154 41.03 381.7 40.848 382.045 40.484C382.4 40.12 382.577 39.6533 382.577 39.084C382.577 38.5053 382.405 38.048 382.059 37.712C381.723 37.3667 381.168 37.194 380.393 37.194H378.503V41.03ZM388.296 46.168C387.643 46.168 387.055 46.0187 386.532 45.72C386.009 45.412 385.599 44.9827 385.3 44.432C385.001 43.872 384.852 43.2233 384.852 42.486C384.852 41.73 385.001 41.0767 385.3 40.526C385.608 39.966 386.023 39.5367 386.546 39.238C387.078 38.93 387.671 38.776 388.324 38.776C388.996 38.776 389.589 38.93 390.102 39.238C390.625 39.5367 391.035 39.966 391.334 40.526C391.642 41.0767 391.796 41.7253 391.796 42.472C391.796 43.2187 391.642 43.872 391.334 44.432C391.026 44.9827 390.611 45.412 390.088 45.72C389.565 46.0187 388.968 46.168 388.296 46.168ZM388.31 45.16C388.711 45.16 389.085 45.062 389.43 44.866C389.775 44.6607 390.055 44.3573 390.27 43.956C390.485 43.5547 390.592 43.06 390.592 42.472C390.592 41.8747 390.485 41.38 390.27 40.988C390.065 40.5867 389.789 40.288 389.444 40.092C389.108 39.8867 388.735 39.784 388.324 39.784C387.932 39.784 387.559 39.8867 387.204 40.092C386.859 40.288 386.579 40.5867 386.364 40.988C386.159 41.38 386.056 41.8747 386.056 42.472C386.056 43.06 386.159 43.5547 386.364 43.956C386.579 44.3573 386.854 44.6607 387.19 44.866C387.535 45.062 387.909 45.16 388.31 45.16ZM396.595 46.168C395.942 46.168 395.354 46.0187 394.831 45.72C394.308 45.412 393.898 44.9827 393.599 44.432C393.3 43.872 393.151 43.2233 393.151 42.486C393.151 41.73 393.3 41.0767 393.599 40.526C393.907 39.966 394.322 39.5367 394.845 39.238C395.377 38.93 395.97 38.776 396.623 38.776C397.295 38.776 397.888 38.93 398.401 39.238C398.924 39.5367 399.334 39.966 399.633 40.526C399.941 41.0767 400.095 41.7253 400.095 42.472C400.095 43.2187 399.941 43.872 399.633 44.432C399.325 44.9827 398.91 45.412 398.387 45.72C397.864 46.0187 397.267 46.168 396.595 46.168ZM396.609 45.16C397.01 45.16 397.384 45.062 397.729 44.866C398.074 44.6607 398.354 44.3573 398.569 43.956C398.784 43.5547 398.891 43.06 398.891 42.472C398.891 41.8747 398.784 41.38 398.569 40.988C398.364 40.5867 398.088 40.288 397.743 40.092C397.407 39.8867 397.034 39.784 396.623 39.784C396.231 39.784 395.858 39.8867 395.503 40.092C395.158 40.288 394.878 40.5867 394.663 40.988C394.458 41.38 394.355 41.8747 394.355 42.472C394.355 43.06 394.458 43.5547 394.663 43.956C394.878 44.3573 395.153 44.6607 395.489 44.866C395.834 45.062 396.208 45.16 396.609 45.16ZM404.242 46C403.822 46 403.458 45.9347 403.15 45.804C402.842 45.6733 402.604 45.454 402.436 45.146C402.278 44.8287 402.198 44.404 402.198 43.872V39.938H400.966V38.944H402.198L402.352 37.236H403.374V38.944H405.418V39.938H403.374V43.872C403.374 44.3107 403.463 44.6093 403.64 44.768C403.818 44.9173 404.13 44.992 404.578 44.992H405.334V46H404.242ZM410.111 46L413.723 36.2H414.969L418.567 46H417.321L414.339 37.67L411.343 46H410.111ZM411.763 43.48L412.099 42.528H416.537L416.873 43.48H411.763ZM422.754 49.248C422.12 49.248 421.555 49.164 421.06 48.996C420.575 48.8373 420.197 48.59 419.926 48.254C419.656 47.918 419.52 47.5027 419.52 47.008C419.52 46.7933 419.562 46.5647 419.646 46.322C419.74 46.0793 419.894 45.8413 420.108 45.608C420.332 45.3747 420.645 45.1647 421.046 44.978L421.858 45.454C421.364 45.6593 421.042 45.8927 420.892 46.154C420.743 46.4247 420.668 46.672 420.668 46.896C420.668 47.204 420.757 47.4607 420.934 47.666C421.112 47.8713 421.359 48.0253 421.676 48.128C421.994 48.2307 422.353 48.282 422.754 48.282C423.156 48.282 423.501 48.226 423.79 48.114C424.08 48.002 424.304 47.8433 424.462 47.638C424.621 47.4327 424.7 47.19 424.7 46.91C424.7 46.5833 424.579 46.308 424.336 46.084C424.094 45.8693 423.632 45.7433 422.95 45.706C422.4 45.6687 421.938 45.6173 421.564 45.552C421.191 45.4867 420.883 45.412 420.64 45.328C420.398 45.2347 420.192 45.132 420.024 45.02C419.866 44.908 419.721 44.7913 419.59 44.67V44.348L420.948 43.004L421.97 43.368L420.57 44.628L420.752 44.138C420.855 44.2127 420.953 44.2827 421.046 44.348C421.14 44.4133 421.266 44.4693 421.424 44.516C421.583 44.5627 421.802 44.6047 422.082 44.642C422.372 44.6793 422.75 44.7167 423.216 44.754C423.86 44.8007 424.374 44.9127 424.756 45.09C425.148 45.2673 425.428 45.5053 425.596 45.804C425.774 46.1027 425.862 46.4573 425.862 46.868C425.862 47.2693 425.75 47.6473 425.526 48.002C425.312 48.366 424.976 48.6647 424.518 48.898C424.061 49.1313 423.473 49.248 422.754 49.248ZM422.74 43.788C422.152 43.788 421.648 43.676 421.228 43.452C420.818 43.228 420.505 42.9293 420.29 42.556C420.076 42.1733 419.968 41.7487 419.968 41.282C419.968 40.8153 420.076 40.3953 420.29 40.022C420.514 39.6487 420.832 39.35 421.242 39.126C421.653 38.8927 422.152 38.776 422.74 38.776C423.328 38.776 423.828 38.8927 424.238 39.126C424.649 39.35 424.962 39.6487 425.176 40.022C425.391 40.3953 425.498 40.8153 425.498 41.282C425.498 41.7487 425.391 42.1733 425.176 42.556C424.962 42.9293 424.649 43.228 424.238 43.452C423.828 43.676 423.328 43.788 422.74 43.788ZM422.74 42.822C423.244 42.822 423.641 42.6913 423.93 42.43C424.22 42.1687 424.364 41.786 424.364 41.282C424.364 40.7873 424.22 40.4093 423.93 40.148C423.641 39.8867 423.244 39.756 422.74 39.756C422.246 39.756 421.844 39.8867 421.536 40.148C421.238 40.4093 421.088 40.7873 421.088 41.282C421.088 41.786 421.238 42.1687 421.536 42.43C421.835 42.6913 422.236 42.822 422.74 42.822ZM423.888 39.938L423.538 38.944H426.422V39.826L423.888 39.938ZM430.595 46.168C429.933 46.168 429.345 46.014 428.831 45.706C428.327 45.398 427.931 44.9687 427.641 44.418C427.352 43.858 427.207 43.2093 427.207 42.472C427.207 41.7253 427.347 41.0767 427.627 40.526C427.917 39.9753 428.318 39.546 428.831 39.238C429.354 38.93 429.951 38.776 430.623 38.776C431.314 38.776 431.897 38.93 432.373 39.238C432.859 39.546 433.227 39.952 433.479 40.456C433.741 40.9507 433.871 41.4967 433.871 42.094C433.871 42.1873 433.871 42.2853 433.871 42.388C433.871 42.4907 433.867 42.6073 433.857 42.738H428.089V41.828H432.723C432.695 41.184 432.481 40.68 432.079 40.316C431.687 39.952 431.193 39.77 430.595 39.77C430.194 39.77 429.821 39.8633 429.475 40.05C429.139 40.2273 428.869 40.4933 428.663 40.848C428.458 41.1933 428.355 41.6273 428.355 42.15V42.542C428.355 43.1207 428.458 43.606 428.663 43.998C428.878 44.39 429.153 44.684 429.489 44.88C429.835 45.076 430.203 45.174 430.595 45.174C431.09 45.174 431.496 45.0667 431.813 44.852C432.14 44.628 432.373 44.3293 432.513 43.956H433.675C433.563 44.376 433.367 44.754 433.087 45.09C432.807 45.426 432.457 45.692 432.037 45.888C431.627 46.0747 431.146 46.168 430.595 46.168ZM435.459 46V38.944H436.523L436.579 40.176C436.803 39.7373 437.12 39.3967 437.531 39.154C437.951 38.902 438.427 38.776 438.959 38.776C439.509 38.776 439.985 38.888 440.387 39.112C440.788 39.3267 441.101 39.658 441.325 40.106C441.549 40.5447 441.661 41.1047 441.661 41.786V46H440.485V41.912C440.485 41.2027 440.326 40.6707 440.009 40.316C439.701 39.9613 439.262 39.784 438.693 39.784C438.301 39.784 437.951 39.882 437.643 40.078C437.335 40.2647 437.087 40.54 436.901 40.904C436.723 41.2587 436.635 41.702 436.635 42.234V46H435.459ZM446.27 46C445.85 46 445.486 45.9347 445.178 45.804C444.87 45.6733 444.632 45.454 444.464 45.146C444.305 44.8287 444.226 44.404 444.226 43.872V39.938H442.994V38.944H444.226L444.38 37.236H445.402V38.944H447.446V39.938H445.402V43.872C445.402 44.3107 445.49 44.6093 445.668 44.768C445.845 44.9173 446.158 44.992 446.606 44.992H447.362V46H446.27Z" fill="#004D4B"/>
<path d="M463.178 34.6376C463.178 34.9765 463.025 35.281 462.782 35.4909V36.9274H466.74C467.37 36.9274 467.974 37.1687 468.42 37.5981C468.865 38.0275 469.115 38.6099 469.115 39.2172V46.8499C469.115 47.4572 468.865 48.0396 468.42 48.4691C467.974 48.8985 467.37 49.1397 466.74 49.1397H457.24C456.61 49.1397 456.006 48.8985 455.561 48.4691C455.115 48.0396 454.865 47.4572 454.865 46.8499V39.2172C454.865 38.6099 455.115 38.0275 455.561 37.5981C456.006 37.1687 456.61 36.9274 457.24 36.9274H461.199V35.4909C461.051 35.3636 460.939 35.2027 460.872 35.0229C460.805 34.843 460.786 34.65 460.817 34.4613C460.847 34.2726 460.926 34.0942 461.047 33.9425C461.167 33.7907 461.325 33.6704 461.505 33.5924C461.686 33.5145 461.884 33.4813 462.082 33.4961C462.279 33.5108 462.47 33.573 462.636 33.6769C462.802 33.7808 462.939 33.9231 463.034 34.0909C463.128 34.2587 463.178 34.4466 463.178 34.6376ZM452.49 40.7438H454.074V45.3234H452.49V40.7438ZM471.49 40.7438H469.907V45.3234H471.49V40.7438ZM459.615 44.1785C459.93 44.1785 460.232 44.0579 460.455 43.8431C460.678 43.6284 460.803 43.3372 460.803 43.0336C460.803 42.7299 460.678 42.4387 460.455 42.224C460.232 42.0093 459.93 41.8887 459.615 41.8887C459.3 41.8887 458.998 42.0093 458.776 42.224C458.553 42.4387 458.428 42.7299 458.428 43.0336C458.428 43.3372 458.553 43.6284 458.776 43.8431C458.998 44.0579 459.3 44.1785 459.615 44.1785ZM465.553 43.0336C465.553 42.7299 465.428 42.4387 465.205 42.224C464.982 42.0093 464.68 41.8887 464.365 41.8887C464.05 41.8887 463.748 42.0093 463.526 42.224C463.303 42.4387 463.178 42.7299 463.178 43.0336C463.178 43.3372 463.303 43.6284 463.526 43.8431C463.748 44.0579 464.05 44.1785 464.365 44.1785C464.68 44.1785 464.982 44.0579 465.205 43.8431C465.428 43.6284 465.553 43.3372 465.553 43.0336Z" fill="#004D4B"/>
</g>
<rect x="517.5" y="24.5" width="202" height="33" rx="5.5" fill="url(#paint6_linear_384_4781)"/>
<rect x="517.5" y="24.5" width="202" height="33" rx="5.5" stroke="url(#paint7_linear_384_4781)"/>
<path d="M535.071 46V36.2H541.133V37.166H536.247V40.582H540.713V41.534H536.247V45.034H541.133V46H535.071ZM544.948 46L542.274 38.944H543.506L545.633 44.866L547.776 38.944H548.98L546.306 46H544.948ZM552.241 46.168C551.672 46.168 551.196 46.07 550.813 45.874C550.43 45.6687 550.146 45.4027 549.959 45.076C549.772 44.74 549.679 44.376 549.679 43.984C549.679 43.508 549.8 43.1067 550.043 42.78C550.295 42.444 550.645 42.192 551.093 42.024C551.55 41.8467 552.087 41.758 552.703 41.758H554.565C554.565 41.3193 554.495 40.9553 554.355 40.666C554.224 40.3673 554.028 40.1433 553.767 39.994C553.515 39.8447 553.198 39.77 552.815 39.77C552.367 39.77 551.98 39.882 551.653 40.106C551.326 40.33 551.126 40.6613 551.051 41.1H549.847C549.903 40.596 550.071 40.176 550.351 39.84C550.64 39.4947 551.004 39.2333 551.443 39.056C551.882 38.8693 552.339 38.776 552.815 38.776C553.468 38.776 554.01 38.8973 554.439 39.14C554.878 39.3733 555.204 39.7047 555.419 40.134C555.634 40.554 555.741 41.0533 555.741 41.632V46H554.691L554.621 44.754C554.528 44.95 554.406 45.1367 554.257 45.314C554.117 45.482 553.949 45.6313 553.753 45.762C553.557 45.8833 553.333 45.9813 553.081 46.056C552.838 46.1307 552.558 46.168 552.241 46.168ZM552.423 45.174C552.75 45.174 553.044 45.1087 553.305 44.978C553.576 44.838 553.804 44.6513 553.991 44.418C554.178 44.1753 554.318 43.9093 554.411 43.62C554.514 43.3307 554.565 43.0273 554.565 42.71V42.668H552.801C552.344 42.668 551.975 42.724 551.695 42.836C551.415 42.9387 551.214 43.088 551.093 43.284C550.972 43.4707 550.911 43.6853 550.911 43.928C550.911 44.18 550.967 44.3993 551.079 44.586C551.2 44.7727 551.373 44.9173 551.597 45.02C551.83 45.1227 552.106 45.174 552.423 45.174ZM557.56 46V35.92H558.736V46H557.56ZM563.239 46.168C562.698 46.168 562.222 46.0607 561.811 45.846C561.41 45.6313 561.097 45.3 560.873 44.852C560.659 44.404 560.551 43.844 560.551 43.172V38.944H561.727V43.046C561.727 43.746 561.881 44.2733 562.189 44.628C562.497 44.9827 562.931 45.16 563.491 45.16C563.883 45.16 564.238 45.0667 564.555 44.88C564.873 44.684 565.12 44.4087 565.297 44.054C565.484 43.69 565.577 43.2467 565.577 42.724V38.944H566.753V46H565.689L565.619 44.768C565.405 45.2067 565.087 45.552 564.667 45.804C564.247 46.0467 563.771 46.168 563.239 46.168ZM570.999 46.168C570.429 46.168 569.953 46.07 569.571 45.874C569.188 45.6687 568.903 45.4027 568.717 45.076C568.53 44.74 568.437 44.376 568.437 43.984C568.437 43.508 568.558 43.1067 568.801 42.78C569.053 42.444 569.403 42.192 569.851 42.024C570.308 41.8467 570.845 41.758 571.461 41.758H573.323C573.323 41.3193 573.253 40.9553 573.113 40.666C572.982 40.3673 572.786 40.1433 572.525 39.994C572.273 39.8447 571.955 39.77 571.573 39.77C571.125 39.77 570.737 39.882 570.411 40.106C570.084 40.33 569.883 40.6613 569.809 41.1H568.605C568.661 40.596 568.829 40.176 569.109 39.84C569.398 39.4947 569.762 39.2333 570.201 39.056C570.639 38.8693 571.097 38.776 571.573 38.776C572.226 38.776 572.767 38.8973 573.197 39.14C573.635 39.3733 573.962 39.7047 574.177 40.134C574.391 40.554 574.499 41.0533 574.499 41.632V46H573.449L573.379 44.754C573.285 44.95 573.164 45.1367 573.015 45.314C572.875 45.482 572.707 45.6313 572.511 45.762C572.315 45.8833 572.091 45.9813 571.839 46.056C571.596 46.1307 571.316 46.168 570.999 46.168ZM571.181 45.174C571.507 45.174 571.801 45.1087 572.063 44.978C572.333 44.838 572.562 44.6513 572.749 44.418C572.935 44.1753 573.075 43.9093 573.169 43.62C573.271 43.3307 573.323 43.0273 573.323 42.71V42.668H571.559C571.101 42.668 570.733 42.724 570.453 42.836C570.173 42.9387 569.972 43.088 569.851 43.284C569.729 43.4707 569.669 43.6853 569.669 43.928C569.669 44.18 569.725 44.3993 569.837 44.586C569.958 44.7727 570.131 44.9173 570.355 45.02C570.588 45.1227 570.863 45.174 571.181 45.174ZM578.898 46C578.478 46 578.114 45.9347 577.806 45.804C577.498 45.6733 577.26 45.454 577.092 45.146C576.934 44.8287 576.854 44.404 576.854 43.872V39.938H575.622V38.944H576.854L577.008 37.236H578.03V38.944H580.074V39.938H578.03V43.872C578.03 44.3107 578.119 44.6093 578.296 44.768C578.474 44.9173 578.786 44.992 579.234 44.992H579.99V46H578.898ZM584.512 46.168C583.849 46.168 583.261 46.014 582.748 45.706C582.244 45.398 581.847 44.9687 581.558 44.418C581.268 43.858 581.124 43.2093 581.124 42.472C581.124 41.7253 581.264 41.0767 581.544 40.526C581.833 39.9753 582.234 39.546 582.748 39.238C583.27 38.93 583.868 38.776 584.54 38.776C585.23 38.776 585.814 38.93 586.29 39.238C586.775 39.546 587.144 39.952 587.396 40.456C587.657 40.9507 587.788 41.4967 587.788 42.094C587.788 42.1873 587.788 42.2853 587.788 42.388C587.788 42.4907 587.783 42.6073 587.774 42.738H582.006V41.828H586.64C586.612 41.184 586.397 40.68 585.996 40.316C585.604 39.952 585.109 39.77 584.512 39.77C584.11 39.77 583.737 39.8633 583.392 40.05C583.056 40.2273 582.785 40.4933 582.58 40.848C582.374 41.1933 582.272 41.6273 582.272 42.15V42.542C582.272 43.1207 582.374 43.606 582.58 43.998C582.794 44.39 583.07 44.684 583.406 44.88C583.751 45.076 584.12 45.174 584.512 45.174C585.006 45.174 585.412 45.0667 585.73 44.852C586.056 44.628 586.29 44.3293 586.43 43.956H587.592C587.48 44.376 587.284 44.754 587.004 45.09C586.724 45.426 586.374 45.692 585.954 45.888C585.543 46.0747 585.062 46.168 584.512 46.168ZM593.163 46V36.2H596.327C597.093 36.2 597.718 36.3307 598.203 36.592C598.689 36.844 599.048 37.1847 599.281 37.614C599.515 38.0433 599.631 38.5287 599.631 39.07C599.631 39.5927 599.51 40.0733 599.267 40.512C599.034 40.9507 598.67 41.3007 598.175 41.562C597.681 41.8233 597.046 41.954 596.271 41.954H594.339V46H593.163ZM598.343 46L596.187 41.618H597.503L599.729 46H598.343ZM594.339 41.03H596.243C596.99 41.03 597.536 40.848 597.881 40.484C598.236 40.12 598.413 39.6533 598.413 39.084C598.413 38.5053 598.241 38.048 597.895 37.712C597.559 37.3667 597.004 37.194 596.229 37.194H594.339V41.03ZM604.076 46.168C603.413 46.168 602.825 46.014 602.312 45.706C601.808 45.398 601.411 44.9687 601.122 44.418C600.833 43.858 600.688 43.2093 600.688 42.472C600.688 41.7253 600.828 41.0767 601.108 40.526C601.397 39.9753 601.799 39.546 602.312 39.238C602.835 38.93 603.432 38.776 604.104 38.776C604.795 38.776 605.378 38.93 605.854 39.238C606.339 39.546 606.708 39.952 606.96 40.456C607.221 40.9507 607.352 41.4967 607.352 42.094C607.352 42.1873 607.352 42.2853 607.352 42.388C607.352 42.4907 607.347 42.6073 607.338 42.738H601.57V41.828H606.204C606.176 41.184 605.961 40.68 605.56 40.316C605.168 39.952 604.673 39.77 604.076 39.77C603.675 39.77 603.301 39.8633 602.956 40.05C602.62 40.2273 602.349 40.4933 602.144 40.848C601.939 41.1933 601.836 41.6273 601.836 42.15V42.542C601.836 43.1207 601.939 43.606 602.144 43.998C602.359 44.39 602.634 44.684 602.97 44.88C603.315 45.076 603.684 45.174 604.076 45.174C604.571 45.174 604.977 45.0667 605.294 44.852C605.621 44.628 605.854 44.3293 605.994 43.956H607.156C607.044 44.376 606.848 44.754 606.568 45.09C606.288 45.426 605.938 45.692 605.518 45.888C605.107 46.0747 604.627 46.168 604.076 46.168ZM611.599 46.168C611.011 46.168 610.498 46.07 610.059 45.874C609.63 45.678 609.284 45.4073 609.023 45.062C608.771 44.7073 608.617 44.292 608.561 43.816H609.765C609.812 44.0587 609.91 44.2827 610.059 44.488C610.208 44.6933 610.409 44.8613 610.661 44.992C610.922 45.1133 611.24 45.174 611.613 45.174C611.94 45.174 612.21 45.1273 612.425 45.034C612.64 44.9313 612.798 44.796 612.901 44.628C613.013 44.46 613.069 44.278 613.069 44.082C613.069 43.7927 612.999 43.5733 612.859 43.424C612.728 43.2747 612.532 43.158 612.271 43.074C612.01 42.9807 611.692 42.9013 611.319 42.836C611.011 42.78 610.708 42.7053 610.409 42.612C610.11 42.5187 609.844 42.3973 609.611 42.248C609.378 42.0893 609.191 41.898 609.051 41.674C608.92 41.45 608.855 41.1747 608.855 40.848C608.855 40.4467 608.958 40.092 609.163 39.784C609.368 39.4667 609.662 39.2193 610.045 39.042C610.437 38.8647 610.89 38.776 611.403 38.776C612.159 38.776 612.77 38.958 613.237 39.322C613.704 39.686 613.979 40.2133 614.063 40.904H612.901C612.854 40.5493 612.7 40.274 612.439 40.078C612.187 39.8727 611.837 39.77 611.389 39.77C610.95 39.77 610.614 39.8587 610.381 40.036C610.157 40.2133 610.045 40.4467 610.045 40.736C610.045 40.9227 610.106 41.0907 610.227 41.24C610.358 41.38 610.544 41.5013 610.787 41.604C611.039 41.7067 611.347 41.7907 611.711 41.856C612.178 41.94 612.602 42.052 612.985 42.192C613.368 42.332 613.676 42.542 613.909 42.822C614.152 43.0927 614.273 43.48 614.273 43.984C614.273 44.4227 614.161 44.8053 613.937 45.132C613.722 45.4587 613.414 45.7153 613.013 45.902C612.612 46.0793 612.14 46.168 611.599 46.168ZM618.528 46.168C617.987 46.168 617.511 46.0607 617.1 45.846C616.699 45.6313 616.386 45.3 616.162 44.852C615.948 44.404 615.84 43.844 615.84 43.172V38.944H617.016V43.046C617.016 43.746 617.17 44.2733 617.478 44.628C617.786 44.9827 618.22 45.16 618.78 45.16C619.172 45.16 619.527 45.0667 619.844 44.88C620.162 44.684 620.409 44.4087 620.586 44.054C620.773 43.69 620.866 43.2467 620.866 42.724V38.944H622.042V46H620.978L620.908 44.768C620.694 45.2067 620.376 45.552 619.956 45.804C619.536 46.0467 619.06 46.168 618.528 46.168ZM623.992 46V35.92H625.168V46H623.992ZM629.881 46C629.461 46 629.097 45.9347 628.789 45.804C628.481 45.6733 628.243 45.454 628.075 45.146C627.916 44.8287 627.837 44.404 627.837 43.872V39.938H626.605V38.944H627.837L627.991 37.236H629.013V38.944H631.057V39.938H629.013V43.872C629.013 44.3107 629.102 44.6093 629.279 44.768C629.456 44.9173 629.769 44.992 630.217 44.992H630.973V46H629.881ZM635.251 46.168C634.663 46.168 634.15 46.07 633.711 45.874C633.282 45.678 632.937 45.4073 632.675 45.062C632.423 44.7073 632.269 44.292 632.213 43.816H633.417C633.464 44.0587 633.562 44.2827 633.711 44.488C633.861 44.6933 634.061 44.8613 634.313 44.992C634.575 45.1133 634.892 45.174 635.265 45.174C635.592 45.174 635.863 45.1273 636.077 45.034C636.292 44.9313 636.451 44.796 636.553 44.628C636.665 44.46 636.721 44.278 636.721 44.082C636.721 43.7927 636.651 43.5733 636.511 43.424C636.381 43.2747 636.185 43.158 635.923 43.074C635.662 42.9807 635.345 42.9013 634.971 42.836C634.663 42.78 634.36 42.7053 634.061 42.612C633.763 42.5187 633.497 42.3973 633.263 42.248C633.03 42.0893 632.843 41.898 632.703 41.674C632.573 41.45 632.507 41.1747 632.507 40.848C632.507 40.4467 632.61 40.092 632.815 39.784C633.021 39.4667 633.315 39.2193 633.697 39.042C634.089 38.8647 634.542 38.776 635.055 38.776C635.811 38.776 636.423 38.958 636.889 39.322C637.356 39.686 637.631 40.2133 637.715 40.904H636.553C636.507 40.5493 636.353 40.274 636.091 40.078C635.839 39.8727 635.489 39.77 635.041 39.77C634.603 39.77 634.267 39.8587 634.033 40.036C633.809 40.2133 633.697 40.4467 633.697 40.736C633.697 40.9227 633.758 41.0907 633.879 41.24C634.01 41.38 634.197 41.5013 634.439 41.604C634.691 41.7067 634.999 41.7907 635.363 41.856C635.83 41.94 636.255 42.052 636.637 42.192C637.02 42.332 637.328 42.542 637.561 42.822C637.804 43.0927 637.925 43.48 637.925 43.984C637.925 44.4227 637.813 44.8053 637.589 45.132C637.375 45.4587 637.067 45.7153 636.665 45.902C636.264 46.0793 635.793 46.168 635.251 46.168ZM650.799 46L645.465 40.568C645.036 40.1387 644.728 39.7467 644.541 39.392C644.355 39.0373 644.261 38.6453 644.261 38.216C644.261 37.796 644.364 37.4227 644.569 37.096C644.775 36.76 645.064 36.4987 645.437 36.312C645.82 36.1253 646.277 36.032 646.809 36.032C647.323 36.032 647.766 36.13 648.139 36.326C648.522 36.5127 648.816 36.774 649.021 37.11C649.227 37.446 649.325 37.8333 649.315 38.272H648.153C648.153 37.852 648.018 37.5347 647.747 37.32C647.486 37.096 647.173 36.984 646.809 36.984C646.38 36.984 646.039 37.1007 645.787 37.334C645.545 37.558 645.423 37.8473 645.423 38.202C645.423 38.5007 645.507 38.7947 645.675 39.084C645.843 39.3733 646.086 39.6907 646.403 40.036L652.283 46H650.799ZM646.263 46.168C645.601 46.168 645.017 46.0467 644.513 45.804C644.019 45.552 643.631 45.202 643.351 44.754C643.081 44.306 642.945 43.7787 642.945 43.172C642.945 42.7053 643.039 42.276 643.225 41.884C643.421 41.4827 643.711 41.1327 644.093 40.834C644.476 40.526 644.943 40.2787 645.493 40.092L645.941 39.938L646.557 40.708L646.025 40.89C645.381 41.1233 644.901 41.4267 644.583 41.8C644.275 42.1733 644.121 42.6167 644.121 43.13C644.121 43.5127 644.21 43.858 644.387 44.166C644.574 44.474 644.831 44.7167 645.157 44.894C645.484 45.0713 645.862 45.16 646.291 45.16C646.842 45.16 647.327 45.0433 647.747 44.81C648.177 44.5673 648.611 44.1753 649.049 43.634C649.245 43.3913 649.446 43.1113 649.651 42.794C649.857 42.4673 650.076 42.1033 650.309 41.702L650.743 40.932H651.989L651.359 42.052C651.107 42.5187 650.855 42.9433 650.603 43.326C650.361 43.7087 650.113 44.0493 649.861 44.348C649.329 44.992 648.774 45.4587 648.195 45.748C647.626 46.028 646.982 46.168 646.263 46.168ZM661.775 46.168C660.833 46.168 660.002 45.958 659.283 45.538C658.574 45.1087 658.019 44.516 657.617 43.76C657.225 42.9947 657.029 42.108 657.029 41.1C657.029 40.1013 657.225 39.224 657.617 38.468C658.019 37.7027 658.574 37.1053 659.283 36.676C660.002 36.2467 660.833 36.032 661.775 36.032C662.737 36.032 663.572 36.2467 664.281 36.676C664.991 37.1053 665.541 37.7027 665.933 38.468C666.335 39.224 666.535 40.1013 666.535 41.1C666.535 42.108 666.335 42.9947 665.933 43.76C665.541 44.516 664.991 45.1087 664.281 45.538C663.572 45.958 662.737 46.168 661.775 46.168ZM661.775 45.132C662.485 45.132 663.105 44.9733 663.637 44.656C664.179 44.3293 664.594 43.8673 664.883 43.27C665.182 42.6633 665.331 41.94 665.331 41.1C665.331 40.26 665.182 39.5413 664.883 38.944C664.594 38.3373 664.179 37.8753 663.637 37.558C663.105 37.2407 662.485 37.082 661.775 37.082C661.075 37.082 660.455 37.2407 659.913 37.558C659.381 37.8753 658.966 38.3373 658.667 38.944C658.378 39.5413 658.233 40.26 658.233 41.1C658.233 41.94 658.378 42.6633 658.667 43.27C658.966 43.8673 659.381 44.3293 659.913 44.656C660.455 44.9733 661.075 45.132 661.775 45.132ZM670.741 46.168C670.2 46.168 669.724 46.0607 669.313 45.846C668.912 45.6313 668.599 45.3 668.375 44.852C668.161 44.404 668.053 43.844 668.053 43.172V38.944H669.229V43.046C669.229 43.746 669.383 44.2733 669.691 44.628C669.999 44.9827 670.433 45.16 670.993 45.16C671.385 45.16 671.74 45.0667 672.057 44.88C672.375 44.684 672.622 44.4087 672.799 44.054C672.986 43.69 673.079 43.2467 673.079 42.724V38.944H674.255V46H673.191L673.121 44.768C672.907 45.2067 672.589 45.552 672.169 45.804C671.749 46.0467 671.273 46.168 670.741 46.168ZM678.977 46C678.557 46 678.193 45.9347 677.885 45.804C677.577 45.6733 677.339 45.454 677.171 45.146C677.012 44.8287 676.933 44.404 676.933 43.872V39.938H675.701V38.944H676.933L677.087 37.236H678.109V38.944H680.153V39.938H678.109V43.872C678.109 44.3107 678.197 44.6093 678.375 44.768C678.552 44.9173 678.865 44.992 679.313 44.992H680.069V46H678.977ZM681.687 49.08V38.944H682.751L682.849 40.092C682.998 39.868 683.19 39.658 683.423 39.462C683.656 39.2567 683.936 39.0933 684.263 38.972C684.59 38.8413 684.963 38.776 685.383 38.776C686.074 38.776 686.671 38.9393 687.175 39.266C687.688 39.5927 688.085 40.036 688.365 40.596C688.654 41.1467 688.799 41.7767 688.799 42.486C688.799 43.1953 688.654 43.83 688.365 44.39C688.085 44.9407 687.688 45.3747 687.175 45.692C686.662 46.0093 686.06 46.168 685.369 46.168C684.8 46.168 684.296 46.0513 683.857 45.818C683.428 45.5847 683.096 45.258 682.863 44.838V49.08H681.687ZM685.243 45.146C685.7 45.146 686.106 45.034 686.461 44.81C686.816 44.586 687.091 44.278 687.287 43.886C687.492 43.4847 687.595 43.0133 687.595 42.472C687.595 41.94 687.492 41.4733 687.287 41.072C687.091 40.6707 686.816 40.358 686.461 40.134C686.106 39.91 685.7 39.798 685.243 39.798C684.776 39.798 684.366 39.91 684.011 40.134C683.656 40.358 683.381 40.6707 683.185 41.072C682.989 41.4733 682.891 41.94 682.891 42.472C682.891 43.0133 682.989 43.4847 683.185 43.886C683.381 44.278 683.656 44.586 684.011 44.81C684.366 45.034 684.776 45.146 685.243 45.146ZM693.013 46.168C692.471 46.168 691.995 46.0607 691.585 45.846C691.183 45.6313 690.871 45.3 690.647 44.852C690.432 44.404 690.325 43.844 690.325 43.172V38.944H691.501V43.046C691.501 43.746 691.655 44.2733 691.963 44.628C692.271 44.9827 692.705 45.16 693.265 45.16C693.657 45.16 694.011 45.0667 694.329 44.88C694.646 44.684 694.893 44.4087 695.071 44.054C695.257 43.69 695.351 43.2467 695.351 42.724V38.944H696.527V46H695.463L695.393 44.768C695.178 45.2067 694.861 45.552 694.441 45.804C694.021 46.0467 693.545 46.168 693.013 46.168ZM701.248 46C700.828 46 700.464 45.9347 700.156 45.804C699.848 45.6733 699.61 45.454 699.442 45.146C699.283 44.8287 699.204 44.404 699.204 43.872V39.938H697.972V38.944H699.204L699.358 37.236H700.38V38.944H702.424V39.938H700.38V43.872C700.38 44.3107 700.469 44.6093 700.646 44.768C700.823 44.9173 701.136 44.992 701.584 44.992H702.34V46H701.248Z" fill="white" fill-opacity="0.8"/>
<rect x="172" y="110" width="416.5" height="40" rx="6" fill="url(#paint8_linear_384_4781)"/>
<path d="M185.031 135L188.643 125.2H189.889L193.487 135H192.241L189.259 126.67L186.263 135H185.031ZM186.683 132.48L187.019 131.528H191.457L191.793 132.48H186.683ZM197.674 138.248C197.04 138.248 196.475 138.164 195.98 137.996C195.495 137.837 195.117 137.59 194.846 137.254C194.576 136.918 194.44 136.503 194.44 136.008C194.44 135.793 194.482 135.565 194.566 135.322C194.66 135.079 194.814 134.841 195.028 134.608C195.252 134.375 195.565 134.165 195.966 133.978L196.778 134.454C196.284 134.659 195.962 134.893 195.812 135.154C195.663 135.425 195.588 135.672 195.588 135.896C195.588 136.204 195.677 136.461 195.854 136.666C196.032 136.871 196.279 137.025 196.596 137.128C196.914 137.231 197.273 137.282 197.674 137.282C198.076 137.282 198.421 137.226 198.71 137.114C199 137.002 199.224 136.843 199.382 136.638C199.541 136.433 199.62 136.19 199.62 135.91C199.62 135.583 199.499 135.308 199.256 135.084C199.014 134.869 198.552 134.743 197.87 134.706C197.32 134.669 196.858 134.617 196.484 134.552C196.111 134.487 195.803 134.412 195.56 134.328C195.318 134.235 195.112 134.132 194.944 134.02C194.786 133.908 194.641 133.791 194.51 133.67V133.348L195.868 132.004L196.89 132.368L195.49 133.628L195.672 133.138C195.775 133.213 195.873 133.283 195.966 133.348C196.06 133.413 196.186 133.469 196.344 133.516C196.503 133.563 196.722 133.605 197.002 133.642C197.292 133.679 197.67 133.717 198.136 133.754C198.78 133.801 199.294 133.913 199.676 134.09C200.068 134.267 200.348 134.505 200.516 134.804C200.694 135.103 200.782 135.457 200.782 135.868C200.782 136.269 200.67 136.647 200.446 137.002C200.232 137.366 199.896 137.665 199.438 137.898C198.981 138.131 198.393 138.248 197.674 138.248ZM197.66 132.788C197.072 132.788 196.568 132.676 196.148 132.452C195.738 132.228 195.425 131.929 195.21 131.556C194.996 131.173 194.888 130.749 194.888 130.282C194.888 129.815 194.996 129.395 195.21 129.022C195.434 128.649 195.752 128.35 196.162 128.126C196.573 127.893 197.072 127.776 197.66 127.776C198.248 127.776 198.748 127.893 199.158 128.126C199.569 128.35 199.882 128.649 200.096 129.022C200.311 129.395 200.418 129.815 200.418 130.282C200.418 130.749 200.311 131.173 200.096 131.556C199.882 131.929 199.569 132.228 199.158 132.452C198.748 132.676 198.248 132.788 197.66 132.788ZM197.66 131.822C198.164 131.822 198.561 131.691 198.85 131.43C199.14 131.169 199.284 130.786 199.284 130.282C199.284 129.787 199.14 129.409 198.85 129.148C198.561 128.887 198.164 128.756 197.66 128.756C197.166 128.756 196.764 128.887 196.456 129.148C196.158 129.409 196.008 129.787 196.008 130.282C196.008 130.786 196.158 131.169 196.456 131.43C196.755 131.691 197.156 131.822 197.66 131.822ZM198.808 128.938L198.458 127.944H201.342V128.826L198.808 128.938ZM205.515 135.168C204.853 135.168 204.265 135.014 203.751 134.706C203.247 134.398 202.851 133.969 202.561 133.418C202.272 132.858 202.127 132.209 202.127 131.472C202.127 130.725 202.267 130.077 202.547 129.526C202.837 128.975 203.238 128.546 203.751 128.238C204.274 127.93 204.871 127.776 205.543 127.776C206.234 127.776 206.817 127.93 207.293 128.238C207.779 128.546 208.147 128.952 208.399 129.456C208.661 129.951 208.791 130.497 208.791 131.094C208.791 131.187 208.791 131.285 208.791 131.388C208.791 131.491 208.787 131.607 208.777 131.738H203.009V130.828H207.643C207.615 130.184 207.401 129.68 206.999 129.316C206.607 128.952 206.113 128.77 205.515 128.77C205.114 128.77 204.741 128.863 204.395 129.05C204.059 129.227 203.789 129.493 203.583 129.848C203.378 130.193 203.275 130.627 203.275 131.15V131.542C203.275 132.121 203.378 132.606 203.583 132.998C203.798 133.39 204.073 133.684 204.409 133.88C204.755 134.076 205.123 134.174 205.515 134.174C206.01 134.174 206.416 134.067 206.733 133.852C207.06 133.628 207.293 133.329 207.433 132.956H208.595C208.483 133.376 208.287 133.754 208.007 134.09C207.727 134.426 207.377 134.692 206.957 134.888C206.547 135.075 206.066 135.168 205.515 135.168ZM210.378 135V127.944H211.442L211.498 129.176C211.722 128.737 212.04 128.397 212.45 128.154C212.87 127.902 213.346 127.776 213.878 127.776C214.429 127.776 214.905 127.888 215.306 128.112C215.708 128.327 216.02 128.658 216.244 129.106C216.468 129.545 216.58 130.105 216.58 130.786V135H215.404V130.912C215.404 130.203 215.246 129.671 214.928 129.316C214.62 128.961 214.182 128.784 213.612 128.784C213.22 128.784 212.87 128.882 212.562 129.078C212.254 129.265 212.007 129.54 211.82 129.904C211.643 130.259 211.554 130.702 211.554 131.234V135H210.378ZM221.19 135C220.77 135 220.406 134.935 220.098 134.804C219.79 134.673 219.552 134.454 219.384 134.146C219.225 133.829 219.146 133.404 219.146 132.872V128.938H217.914V127.944H219.146L219.3 126.236H220.322V127.944H222.366V128.938H220.322V132.872C220.322 133.311 220.41 133.609 220.588 133.768C220.765 133.917 221.078 133.992 221.526 133.992H222.282V135H221.19ZM228.767 135V126.516L227.087 126.936V126.096L229.159 125.2H229.957V135H228.767Z" fill="#004D4B"/>
<path d="M246.178 123.638C246.178 123.976 246.025 124.281 245.782 124.491V125.927H249.74C250.37 125.927 250.974 126.169 251.42 126.598C251.865 127.028 252.115 127.61 252.115 128.217V135.85C252.115 136.457 251.865 137.04 251.42 137.469C250.974 137.898 250.37 138.14 249.74 138.14H240.24C239.61 138.14 239.006 137.898 238.561 137.469C238.115 137.04 237.865 136.457 237.865 135.85V128.217C237.865 127.61 238.115 127.028 238.561 126.598C239.006 126.169 239.61 125.927 240.24 125.927H244.199V124.491C244.051 124.364 243.939 124.203 243.872 124.023C243.805 123.843 243.786 123.65 243.817 123.461C243.847 123.273 243.926 123.094 244.047 122.942C244.167 122.791 244.325 122.67 244.505 122.592C244.686 122.514 244.884 122.481 245.082 122.496C245.279 122.511 245.47 122.573 245.636 122.677C245.802 122.781 245.939 122.923 246.034 123.091C246.128 123.259 246.178 123.447 246.178 123.638ZM235.49 129.744H237.074V134.323H235.49V129.744ZM254.49 129.744H252.907V134.323H254.49V129.744ZM242.615 133.178C242.93 133.178 243.232 133.058 243.455 132.843C243.678 132.628 243.803 132.337 243.803 132.034C243.803 131.73 243.678 131.439 243.455 131.224C243.232 131.009 242.93 130.889 242.615 130.889C242.3 130.889 241.998 131.009 241.776 131.224C241.553 131.439 241.428 131.73 241.428 132.034C241.428 132.337 241.553 132.628 241.776 132.843C241.998 133.058 242.3 133.178 242.615 133.178ZM248.553 132.034C248.553 131.73 248.428 131.439 248.205 131.224C247.982 131.009 247.68 130.889 247.365 130.889C247.05 130.889 246.748 131.009 246.526 131.224C246.303 131.439 246.178 131.73 246.178 132.034C246.178 132.337 246.303 132.628 246.526 132.843C246.748 133.058 247.05 133.178 247.365 133.178C247.68 133.178 247.982 133.058 248.205 132.843C248.428 132.628 248.553 132.337 248.553 132.034Z" fill="#004D4B"/>
<path d="M284.326 135L287.938 125.2H289.184L292.782 135H291.536L288.554 126.67L285.558 135H284.326ZM285.978 132.48L286.314 131.528H290.752L291.088 132.48H285.978ZM296.969 138.248C296.334 138.248 295.77 138.164 295.275 137.996C294.79 137.837 294.412 137.59 294.141 137.254C293.87 136.918 293.735 136.503 293.735 136.008C293.735 135.793 293.777 135.565 293.861 135.322C293.954 135.079 294.108 134.841 294.323 134.608C294.547 134.375 294.86 134.165 295.261 133.978L296.073 134.454C295.578 134.659 295.256 134.893 295.107 135.154C294.958 135.425 294.883 135.672 294.883 135.896C294.883 136.204 294.972 136.461 295.149 136.666C295.326 136.871 295.574 137.025 295.891 137.128C296.208 137.231 296.568 137.282 296.969 137.282C297.37 137.282 297.716 137.226 298.005 137.114C298.294 137.002 298.518 136.843 298.677 136.638C298.836 136.433 298.915 136.19 298.915 135.91C298.915 135.583 298.794 135.308 298.551 135.084C298.308 134.869 297.846 134.743 297.165 134.706C296.614 134.669 296.152 134.617 295.779 134.552C295.406 134.487 295.098 134.412 294.855 134.328C294.612 134.235 294.407 134.132 294.239 134.02C294.08 133.908 293.936 133.791 293.805 133.67V133.348L295.163 132.004L296.185 132.368L294.785 133.628L294.967 133.138C295.07 133.213 295.168 133.283 295.261 133.348C295.354 133.413 295.48 133.469 295.639 133.516C295.798 133.563 296.017 133.605 296.297 133.642C296.586 133.679 296.964 133.717 297.431 133.754C298.075 133.801 298.588 133.913 298.971 134.09C299.363 134.267 299.643 134.505 299.811 134.804C299.988 135.103 300.077 135.457 300.077 135.868C300.077 136.269 299.965 136.647 299.741 137.002C299.526 137.366 299.19 137.665 298.733 137.898C298.276 138.131 297.688 138.248 296.969 138.248ZM296.955 132.788C296.367 132.788 295.863 132.676 295.443 132.452C295.032 132.228 294.72 131.929 294.505 131.556C294.29 131.173 294.183 130.749 294.183 130.282C294.183 129.815 294.29 129.395 294.505 129.022C294.729 128.649 295.046 128.35 295.457 128.126C295.868 127.893 296.367 127.776 296.955 127.776C297.543 127.776 298.042 127.893 298.453 128.126C298.864 128.35 299.176 128.649 299.391 129.022C299.606 129.395 299.713 129.815 299.713 130.282C299.713 130.749 299.606 131.173 299.391 131.556C299.176 131.929 298.864 132.228 298.453 132.452C298.042 132.676 297.543 132.788 296.955 132.788ZM296.955 131.822C297.459 131.822 297.856 131.691 298.145 131.43C298.434 131.169 298.579 130.786 298.579 130.282C298.579 129.787 298.434 129.409 298.145 129.148C297.856 128.887 297.459 128.756 296.955 128.756C296.46 128.756 296.059 128.887 295.751 129.148C295.452 129.409 295.303 129.787 295.303 130.282C295.303 130.786 295.452 131.169 295.751 131.43C296.05 131.691 296.451 131.822 296.955 131.822ZM298.103 128.938L297.753 127.944H300.637V128.826L298.103 128.938ZM304.81 135.168C304.148 135.168 303.56 135.014 303.046 134.706C302.542 134.398 302.146 133.969 301.856 133.418C301.567 132.858 301.422 132.209 301.422 131.472C301.422 130.725 301.562 130.077 301.842 129.526C302.132 128.975 302.533 128.546 303.046 128.238C303.569 127.93 304.166 127.776 304.838 127.776C305.529 127.776 306.112 127.93 306.588 128.238C307.074 128.546 307.442 128.952 307.694 129.456C307.956 129.951 308.086 130.497 308.086 131.094C308.086 131.187 308.086 131.285 308.086 131.388C308.086 131.491 308.082 131.607 308.072 131.738H302.304V130.828H306.938C306.91 130.184 306.696 129.68 306.294 129.316C305.902 128.952 305.408 128.77 304.81 128.77C304.409 128.77 304.036 128.863 303.69 129.05C303.354 129.227 303.084 129.493 302.878 129.848C302.673 130.193 302.57 130.627 302.57 131.15V131.542C302.57 132.121 302.673 132.606 302.878 132.998C303.093 133.39 303.368 133.684 303.704 133.88C304.05 134.076 304.418 134.174 304.81 134.174C305.305 134.174 305.711 134.067 306.028 133.852C306.355 133.628 306.588 133.329 306.728 132.956H307.89C307.778 133.376 307.582 133.754 307.302 134.09C307.022 134.426 306.672 134.692 306.252 134.888C305.842 135.075 305.361 135.168 304.81 135.168ZM309.673 135V127.944H310.737L310.793 129.176C311.017 128.737 311.335 128.397 311.745 128.154C312.165 127.902 312.641 127.776 313.173 127.776C313.724 127.776 314.2 127.888 314.601 128.112C315.003 128.327 315.315 128.658 315.539 129.106C315.763 129.545 315.875 130.105 315.875 130.786V135H314.699V130.912C314.699 130.203 314.541 129.671 314.223 129.316C313.915 128.961 313.477 128.784 312.907 128.784C312.515 128.784 312.165 128.882 311.857 129.078C311.549 129.265 311.302 129.54 311.115 129.904C310.938 130.259 310.849 130.702 310.849 131.234V135H309.673ZM320.484 135C320.064 135 319.7 134.935 319.392 134.804C319.084 134.673 318.846 134.454 318.678 134.146C318.52 133.829 318.44 133.404 318.44 132.872V128.938H317.208V127.944H318.44L318.594 126.236H319.616V127.944H321.66V128.938H319.616V132.872C319.616 133.311 319.705 133.609 319.882 133.768C320.06 133.917 320.372 133.992 320.82 133.992H321.576V135H320.484ZM326.83 135V134.174C327.492 133.651 328.122 133.124 328.72 132.592C329.326 132.06 329.863 131.533 330.33 131.01C330.796 130.478 331.16 129.96 331.422 129.456C331.692 128.952 331.828 128.467 331.828 128C331.828 127.655 331.767 127.337 331.646 127.048C331.524 126.749 331.328 126.507 331.058 126.32C330.796 126.133 330.442 126.04 329.994 126.04C329.555 126.04 329.191 126.138 328.902 126.334C328.612 126.521 328.393 126.773 328.244 127.09C328.104 127.398 328.034 127.739 328.034 128.112H326.9C326.909 127.468 327.044 126.917 327.306 126.46C327.576 125.993 327.945 125.639 328.412 125.396C328.878 125.153 329.41 125.032 330.008 125.032C330.596 125.032 331.114 125.144 331.562 125.368C332.01 125.583 332.36 125.905 332.612 126.334C332.873 126.763 333.004 127.305 333.004 127.958C333.004 128.415 332.906 128.873 332.71 129.33C332.523 129.787 332.271 130.235 331.954 130.674C331.636 131.103 331.282 131.519 330.89 131.92C330.507 132.321 330.11 132.699 329.7 133.054C329.298 133.409 328.92 133.731 328.566 134.02H333.34V135H326.83Z" fill="#004D4B"/>
<path d="M349.178 123.638C349.178 123.976 349.025 124.281 348.782 124.491V125.927H352.74C353.37 125.927 353.974 126.169 354.42 126.598C354.865 127.028 355.115 127.61 355.115 128.217V135.85C355.115 136.457 354.865 137.04 354.42 137.469C353.974 137.898 353.37 138.14 352.74 138.14H343.24C342.61 138.14 342.006 137.898 341.561 137.469C341.115 137.04 340.865 136.457 340.865 135.85V128.217C340.865 127.61 341.115 127.028 341.561 126.598C342.006 126.169 342.61 125.927 343.24 125.927H347.199V124.491C347.051 124.364 346.939 124.203 346.872 124.023C346.805 123.843 346.786 123.65 346.817 123.461C346.847 123.273 346.926 123.094 347.047 122.942C347.167 122.791 347.325 122.67 347.505 122.592C347.686 122.514 347.884 122.481 348.082 122.496C348.279 122.511 348.47 122.573 348.636 122.677C348.802 122.781 348.939 122.923 349.034 123.091C349.128 123.259 349.178 123.447 349.178 123.638ZM338.49 129.744H340.074V134.323H338.49V129.744ZM357.49 129.744H355.907V134.323H357.49V129.744ZM345.615 133.178C345.93 133.178 346.232 133.058 346.455 132.843C346.678 132.628 346.803 132.337 346.803 132.034C346.803 131.73 346.678 131.439 346.455 131.224C346.232 131.009 345.93 130.889 345.615 130.889C345.3 130.889 344.998 131.009 344.776 131.224C344.553 131.439 344.428 131.73 344.428 132.034C344.428 132.337 344.553 132.628 344.776 132.843C344.998 133.058 345.3 133.178 345.615 133.178ZM351.553 132.034C351.553 131.73 351.428 131.439 351.205 131.224C350.982 131.009 350.68 130.889 350.365 130.889C350.05 130.889 349.748 131.009 349.526 131.224C349.303 131.439 349.178 131.73 349.178 132.034C349.178 132.337 349.303 132.628 349.526 132.843C349.748 133.058 350.05 133.178 350.365 133.178C350.68 133.178 350.982 133.058 351.205 132.843C351.428 132.628 351.553 132.337 351.553 132.034Z" fill="#004D4B"/>
<path d="M387.121 135L390.733 125.2H391.979L395.577 135H394.331L391.349 126.67L388.353 135H387.121ZM388.773 132.48L389.109 131.528H393.547L393.883 132.48H388.773ZM399.764 138.248C399.129 138.248 398.565 138.164 398.07 137.996C397.585 137.837 397.207 137.59 396.936 137.254C396.665 136.918 396.53 136.503 396.53 136.008C396.53 135.793 396.572 135.565 396.656 135.322C396.749 135.079 396.903 134.841 397.118 134.608C397.342 134.375 397.655 134.165 398.056 133.978L398.868 134.454C398.373 134.659 398.051 134.893 397.902 135.154C397.753 135.425 397.678 135.672 397.678 135.896C397.678 136.204 397.767 136.461 397.944 136.666C398.121 136.871 398.369 137.025 398.686 137.128C399.003 137.231 399.363 137.282 399.764 137.282C400.165 137.282 400.511 137.226 400.8 137.114C401.089 137.002 401.313 136.843 401.472 136.638C401.631 136.433 401.71 136.19 401.71 135.91C401.71 135.583 401.589 135.308 401.346 135.084C401.103 134.869 400.641 134.743 399.96 134.706C399.409 134.669 398.947 134.617 398.574 134.552C398.201 134.487 397.893 134.412 397.65 134.328C397.407 134.235 397.202 134.132 397.034 134.02C396.875 133.908 396.731 133.791 396.6 133.67V133.348L397.958 132.004L398.98 132.368L397.58 133.628L397.762 133.138C397.865 133.213 397.963 133.283 398.056 133.348C398.149 133.413 398.275 133.469 398.434 133.516C398.593 133.563 398.812 133.605 399.092 133.642C399.381 133.679 399.759 133.717 400.226 133.754C400.87 133.801 401.383 133.913 401.766 134.09C402.158 134.267 402.438 134.505 402.606 134.804C402.783 135.103 402.872 135.457 402.872 135.868C402.872 136.269 402.76 136.647 402.536 137.002C402.321 137.366 401.985 137.665 401.528 137.898C401.071 138.131 400.483 138.248 399.764 138.248ZM399.75 132.788C399.162 132.788 398.658 132.676 398.238 132.452C397.827 132.228 397.515 131.929 397.3 131.556C397.085 131.173 396.978 130.749 396.978 130.282C396.978 129.815 397.085 129.395 397.3 129.022C397.524 128.649 397.841 128.35 398.252 128.126C398.663 127.893 399.162 127.776 399.75 127.776C400.338 127.776 400.837 127.893 401.248 128.126C401.659 128.35 401.971 128.649 402.186 129.022C402.401 129.395 402.508 129.815 402.508 130.282C402.508 130.749 402.401 131.173 402.186 131.556C401.971 131.929 401.659 132.228 401.248 132.452C400.837 132.676 400.338 132.788 399.75 132.788ZM399.75 131.822C400.254 131.822 400.651 131.691 400.94 131.43C401.229 131.169 401.374 130.786 401.374 130.282C401.374 129.787 401.229 129.409 400.94 129.148C400.651 128.887 400.254 128.756 399.75 128.756C399.255 128.756 398.854 128.887 398.546 129.148C398.247 129.409 398.098 129.787 398.098 130.282C398.098 130.786 398.247 131.169 398.546 131.43C398.845 131.691 399.246 131.822 399.75 131.822ZM400.898 128.938L400.548 127.944H403.432V128.826L400.898 128.938ZM407.605 135.168C406.943 135.168 406.355 135.014 405.841 134.706C405.337 134.398 404.941 133.969 404.651 133.418C404.362 132.858 404.217 132.209 404.217 131.472C404.217 130.725 404.357 130.077 404.637 129.526C404.927 128.975 405.328 128.546 405.841 128.238C406.364 127.93 406.961 127.776 407.633 127.776C408.324 127.776 408.907 127.93 409.383 128.238C409.869 128.546 410.237 128.952 410.489 129.456C410.751 129.951 410.881 130.497 410.881 131.094C410.881 131.187 410.881 131.285 410.881 131.388C410.881 131.491 410.877 131.607 410.867 131.738H405.099V130.828H409.733C409.705 130.184 409.491 129.68 409.089 129.316C408.697 128.952 408.203 128.77 407.605 128.77C407.204 128.77 406.831 128.863 406.485 129.05C406.149 129.227 405.879 129.493 405.673 129.848C405.468 130.193 405.365 130.627 405.365 131.15V131.542C405.365 132.121 405.468 132.606 405.673 132.998C405.888 133.39 406.163 133.684 406.499 133.88C406.845 134.076 407.213 134.174 407.605 134.174C408.1 134.174 408.506 134.067 408.823 133.852C409.15 133.628 409.383 133.329 409.523 132.956H410.685C410.573 133.376 410.377 133.754 410.097 134.09C409.817 134.426 409.467 134.692 409.047 134.888C408.637 135.075 408.156 135.168 407.605 135.168ZM412.468 135V127.944H413.532L413.588 129.176C413.812 128.737 414.13 128.397 414.54 128.154C414.96 127.902 415.436 127.776 415.968 127.776C416.519 127.776 416.995 127.888 417.396 128.112C417.798 128.327 418.11 128.658 418.334 129.106C418.558 129.545 418.67 130.105 418.67 130.786V135H417.494V130.912C417.494 130.203 417.336 129.671 417.018 129.316C416.71 128.961 416.272 128.784 415.702 128.784C415.31 128.784 414.96 128.882 414.652 129.078C414.344 129.265 414.097 129.54 413.91 129.904C413.733 130.259 413.644 130.702 413.644 131.234V135H412.468ZM423.279 135C422.859 135 422.495 134.935 422.187 134.804C421.879 134.673 421.641 134.454 421.473 134.146C421.315 133.829 421.235 133.404 421.235 132.872V128.938H420.003V127.944H421.235L421.389 126.236H422.411V127.944H424.455V128.938H422.411V132.872C422.411 133.311 422.5 133.609 422.677 133.768C422.855 133.917 423.167 133.992 423.615 133.992H424.371V135H423.279ZM432.831 135.168C432.205 135.168 431.636 135.056 431.123 134.832C430.619 134.599 430.217 134.253 429.919 133.796C429.62 133.339 429.461 132.769 429.443 132.088H430.633C430.642 132.461 430.731 132.807 430.899 133.124C431.076 133.432 431.328 133.679 431.655 133.866C431.981 134.053 432.373 134.146 432.831 134.146C433.288 134.146 433.671 134.057 433.979 133.88C434.287 133.703 434.52 133.469 434.679 133.18C434.837 132.881 434.917 132.55 434.917 132.186C434.917 131.729 434.805 131.36 434.581 131.08C434.366 130.791 434.072 130.581 433.699 130.45C433.335 130.31 432.933 130.24 432.495 130.24H431.767V129.246H432.495C433.139 129.246 433.643 129.097 434.007 128.798C434.371 128.499 434.553 128.089 434.553 127.566C434.553 127.137 434.408 126.777 434.119 126.488C433.839 126.199 433.409 126.054 432.831 126.054C432.28 126.054 431.841 126.213 431.515 126.53C431.188 126.847 431.001 127.253 430.955 127.748H429.765C429.793 127.216 429.937 126.745 430.199 126.334C430.46 125.923 430.815 125.606 431.263 125.382C431.711 125.149 432.238 125.032 432.845 125.032C433.479 125.032 434.011 125.144 434.441 125.368C434.87 125.592 435.192 125.891 435.407 126.264C435.631 126.637 435.743 127.048 435.743 127.496C435.743 127.832 435.682 128.149 435.561 128.448C435.439 128.737 435.257 128.994 435.015 129.218C434.772 129.442 434.464 129.601 434.091 129.694C434.473 129.769 434.814 129.913 435.113 130.128C435.421 130.343 435.663 130.623 435.841 130.968C436.018 131.313 436.107 131.719 436.107 132.186C436.107 132.718 435.981 133.213 435.729 133.67C435.486 134.118 435.122 134.482 434.637 134.762C434.151 135.033 433.549 135.168 432.831 135.168Z" fill="#004D4B"/>
<path d="M452.178 123.638C452.178 123.976 452.025 124.281 451.782 124.491V125.927H455.74C456.37 125.927 456.974 126.169 457.42 126.598C457.865 127.028 458.115 127.61 458.115 128.217V135.85C458.115 136.457 457.865 137.04 457.42 137.469C456.974 137.898 456.37 138.14 455.74 138.14H446.24C445.61 138.14 445.006 137.898 444.561 137.469C444.115 137.04 443.865 136.457 443.865 135.85V128.217C443.865 127.61 444.115 127.028 444.561 126.598C445.006 126.169 445.61 125.927 446.24 125.927H450.199V124.491C450.051 124.364 449.939 124.203 449.872 124.023C449.805 123.843 449.786 123.65 449.817 123.461C449.847 123.273 449.926 123.094 450.047 122.942C450.167 122.791 450.325 122.67 450.505 122.592C450.686 122.514 450.884 122.481 451.082 122.496C451.279 122.511 451.47 122.573 451.636 122.677C451.802 122.781 451.939 122.923 452.034 123.091C452.128 123.259 452.178 123.447 452.178 123.638ZM441.49 129.744H443.074V134.323H441.49V129.744ZM460.49 129.744H458.907V134.323H460.49V129.744ZM448.615 133.178C448.93 133.178 449.232 133.058 449.455 132.843C449.678 132.628 449.803 132.337 449.803 132.034C449.803 131.73 449.678 131.439 449.455 131.224C449.232 131.009 448.93 130.889 448.615 130.889C448.3 130.889 447.998 131.009 447.776 131.224C447.553 131.439 447.428 131.73 447.428 132.034C447.428 132.337 447.553 132.628 447.776 132.843C447.998 133.058 448.3 133.178 448.615 133.178ZM454.553 132.034C454.553 131.73 454.428 131.439 454.205 131.224C453.982 131.009 453.68 130.889 453.365 130.889C453.05 130.889 452.748 131.009 452.526 131.224C452.303 131.439 452.178 131.73 452.178 132.034C452.178 132.337 452.303 132.628 452.526 132.843C452.748 133.058 453.05 133.178 453.365 133.178C453.68 133.178 453.982 133.058 454.205 132.843C454.428 132.628 454.553 132.337 454.553 132.034Z" fill="#004D4B"/>
<path d="M477.75 130.75C477.544 130.75 477.368 130.676 477.221 130.529C477.074 130.382 477 130.206 477 130C477 129.794 477.074 129.618 477.221 129.471C477.368 129.324 477.544 129.25 477.75 129.25C477.956 129.25 478.132 129.324 478.279 129.471C478.426 129.618 478.5 129.794 478.5 130C478.5 130.136 478.465 130.261 478.396 130.375C478.329 130.489 478.239 130.581 478.125 130.65C478.014 130.717 477.889 130.75 477.75 130.75Z" fill="black"/>
<path d="M481.25 130.75C481.044 130.75 480.868 130.676 480.721 130.529C480.574 130.382 480.5 130.206 480.5 130C480.5 129.794 480.574 129.618 480.721 129.471C480.868 129.324 481.044 129.25 481.25 129.25C481.456 129.25 481.632 129.324 481.779 129.471C481.926 129.618 482 129.794 482 130C482 130.136 481.965 130.261 481.896 130.375C481.829 130.489 481.739 130.581 481.625 130.65C481.514 130.717 481.389 130.75 481.25 130.75Z" fill="black"/>
<path d="M484.75 130.75C484.544 130.75 484.368 130.676 484.221 130.529C484.074 130.382 484 130.206 484 130C484 129.794 484.074 129.618 484.221 129.471C484.368 129.324 484.544 129.25 484.75 129.25C484.956 129.25 485.132 129.324 485.279 129.471C485.426 129.618 485.5 129.794 485.5 130C485.5 130.136 485.465 130.261 485.396 130.375C485.329 130.489 485.239 130.581 485.125 130.65C485.014 130.717 484.889 130.75 484.75 130.75Z" fill="black"/>
<path d="M502.854 135L506.466 125.2H507.712L511.31 135H510.064L507.082 126.67L504.086 135H502.854ZM504.506 132.48L504.842 131.528H509.28L509.616 132.48H504.506ZM515.496 138.248C514.862 138.248 514.297 138.164 513.802 137.996C513.317 137.837 512.939 137.59 512.668 137.254C512.398 136.918 512.262 136.503 512.262 136.008C512.262 135.793 512.304 135.565 512.388 135.322C512.482 135.079 512.636 134.841 512.85 134.608C513.074 134.375 513.387 134.165 513.788 133.978L514.6 134.454C514.106 134.659 513.784 134.893 513.634 135.154C513.485 135.425 513.41 135.672 513.41 135.896C513.41 136.204 513.499 136.461 513.676 136.666C513.854 136.871 514.101 137.025 514.418 137.128C514.736 137.231 515.095 137.282 515.496 137.282C515.898 137.282 516.243 137.226 516.532 137.114C516.822 137.002 517.046 136.843 517.204 136.638C517.363 136.433 517.442 136.19 517.442 135.91C517.442 135.583 517.321 135.308 517.078 135.084C516.836 134.869 516.374 134.743 515.692 134.706C515.142 134.669 514.68 134.617 514.306 134.552C513.933 134.487 513.625 134.412 513.382 134.328C513.14 134.235 512.934 134.132 512.766 134.02C512.608 133.908 512.463 133.791 512.332 133.67V133.348L513.69 132.004L514.712 132.368L513.312 133.628L513.494 133.138C513.597 133.213 513.695 133.283 513.788 133.348C513.882 133.413 514.008 133.469 514.166 133.516C514.325 133.563 514.544 133.605 514.824 133.642C515.114 133.679 515.492 133.717 515.958 133.754C516.602 133.801 517.116 133.913 517.498 134.09C517.89 134.267 518.17 134.505 518.338 134.804C518.516 135.103 518.604 135.457 518.604 135.868C518.604 136.269 518.492 136.647 518.268 137.002C518.054 137.366 517.718 137.665 517.26 137.898C516.803 138.131 516.215 138.248 515.496 138.248ZM515.482 132.788C514.894 132.788 514.39 132.676 513.97 132.452C513.56 132.228 513.247 131.929 513.032 131.556C512.818 131.173 512.71 130.749 512.71 130.282C512.71 129.815 512.818 129.395 513.032 129.022C513.256 128.649 513.574 128.35 513.984 128.126C514.395 127.893 514.894 127.776 515.482 127.776C516.07 127.776 516.57 127.893 516.98 128.126C517.391 128.35 517.704 128.649 517.918 129.022C518.133 129.395 518.24 129.815 518.24 130.282C518.24 130.749 518.133 131.173 517.918 131.556C517.704 131.929 517.391 132.228 516.98 132.452C516.57 132.676 516.07 132.788 515.482 132.788ZM515.482 131.822C515.986 131.822 516.383 131.691 516.672 131.43C516.962 131.169 517.106 130.786 517.106 130.282C517.106 129.787 516.962 129.409 516.672 129.148C516.383 128.887 515.986 128.756 515.482 128.756C514.988 128.756 514.586 128.887 514.278 129.148C513.98 129.409 513.83 129.787 513.83 130.282C513.83 130.786 513.98 131.169 514.278 131.43C514.577 131.691 514.978 131.822 515.482 131.822ZM516.63 128.938L516.28 127.944H519.164V128.826L516.63 128.938ZM523.338 135.168C522.675 135.168 522.087 135.014 521.574 134.706C521.07 134.398 520.673 133.969 520.384 133.418C520.094 132.858 519.95 132.209 519.95 131.472C519.95 130.725 520.09 130.077 520.37 129.526C520.659 128.975 521.06 128.546 521.574 128.238C522.096 127.93 522.694 127.776 523.366 127.776C524.056 127.776 524.64 127.93 525.116 128.238C525.601 128.546 525.97 128.952 526.222 129.456C526.483 129.951 526.614 130.497 526.614 131.094C526.614 131.187 526.614 131.285 526.614 131.388C526.614 131.491 526.609 131.607 526.6 131.738H520.832V130.828H525.466C525.438 130.184 525.223 129.68 524.822 129.316C524.43 128.952 523.935 128.77 523.338 128.77C522.936 128.77 522.563 128.863 522.218 129.05C521.882 129.227 521.611 129.493 521.406 129.848C521.2 130.193 521.098 130.627 521.098 131.15V131.542C521.098 132.121 521.2 132.606 521.406 132.998C521.62 133.39 521.896 133.684 522.232 133.88C522.577 134.076 522.946 134.174 523.338 134.174C523.832 134.174 524.238 134.067 524.556 133.852C524.882 133.628 525.116 133.329 525.256 132.956H526.418C526.306 133.376 526.11 133.754 525.83 134.09C525.55 134.426 525.2 134.692 524.78 134.888C524.369 135.075 523.888 135.168 523.338 135.168ZM528.201 135V127.944H529.265L529.321 129.176C529.545 128.737 529.862 128.397 530.273 128.154C530.693 127.902 531.169 127.776 531.701 127.776C532.251 127.776 532.727 127.888 533.129 128.112C533.53 128.327 533.843 128.658 534.067 129.106C534.291 129.545 534.403 130.105 534.403 130.786V135H533.227V130.912C533.227 130.203 533.068 129.671 532.751 129.316C532.443 128.961 532.004 128.784 531.435 128.784C531.043 128.784 530.693 128.882 530.385 129.078C530.077 129.265 529.829 129.54 529.643 129.904C529.465 130.259 529.377 130.702 529.377 131.234V135H528.201ZM539.012 135C538.592 135 538.228 134.935 537.92 134.804C537.612 134.673 537.374 134.454 537.206 134.146C537.047 133.829 536.968 133.404 536.968 132.872V128.938H535.736V127.944H536.968L537.122 126.236H538.144V127.944H540.188V128.938H538.144V132.872C538.144 133.311 538.232 133.609 538.41 133.768C538.587 133.917 538.9 133.992 539.348 133.992H540.104V135H539.012ZM545.441 135V127.944H546.505L546.561 129.176C546.785 128.737 547.102 128.397 547.513 128.154C547.933 127.902 548.409 127.776 548.941 127.776C549.492 127.776 549.968 127.888 550.369 128.112C550.77 128.327 551.083 128.658 551.307 129.106C551.531 129.545 551.643 130.105 551.643 130.786V135H550.467V130.912C550.467 130.203 550.308 129.671 549.991 129.316C549.683 128.961 549.244 128.784 548.675 128.784C548.283 128.784 547.933 128.882 547.625 129.078C547.317 129.265 547.07 129.54 546.883 129.904C546.706 130.259 546.617 130.702 546.617 131.234V135H545.441Z" fill="#004D4B"/>
<g clip-path="url(#clip0_384_4781)">
<path d="M567.678 123.638C567.678 123.976 567.525 124.281 567.282 124.491V125.927H571.24C571.87 125.927 572.474 126.169 572.92 126.598C573.365 127.028 573.615 127.61 573.615 128.217V135.85C573.615 136.457 573.365 137.04 572.92 137.469C572.474 137.898 571.87 138.14 571.24 138.14H561.74C561.11 138.14 560.506 137.898 560.061 137.469C559.615 137.04 559.365 136.457 559.365 135.85V128.217C559.365 127.61 559.615 127.028 560.061 126.598C560.506 126.169 561.11 125.927 561.74 125.927H565.699V124.491C565.551 124.364 565.439 124.203 565.372 124.023C565.305 123.843 565.286 123.65 565.317 123.461C565.347 123.273 565.426 123.094 565.547 122.942C565.667 122.791 565.825 122.67 566.005 122.592C566.186 122.514 566.384 122.481 566.582 122.496C566.779 122.511 566.97 122.573 567.136 122.677C567.302 122.781 567.439 122.923 567.534 123.091C567.628 123.259 567.678 123.447 567.678 123.638ZM556.99 129.744H558.574V134.323H556.99V129.744ZM575.99 129.744H574.407V134.323H575.99V129.744ZM564.115 133.178C564.43 133.178 564.732 133.058 564.955 132.843C565.178 132.628 565.303 132.337 565.303 132.034C565.303 131.73 565.178 131.439 564.955 131.224C564.732 131.009 564.43 130.889 564.115 130.889C563.8 130.889 563.498 131.009 563.276 131.224C563.053 131.439 562.928 131.73 562.928 132.034C562.928 132.337 563.053 132.628 563.276 132.843C563.498 133.058 563.8 133.178 564.115 133.178ZM570.053 132.034C570.053 131.73 569.928 131.439 569.705 131.224C569.482 131.009 569.18 130.889 568.865 130.889C568.55 130.889 568.248 131.009 568.026 131.224C567.803 131.439 567.678 131.73 567.678 132.034C567.678 132.337 567.803 132.628 568.026 132.843C568.248 133.058 568.55 133.178 568.865 133.178C569.18 133.178 569.482 133.058 569.705 132.843C569.928 132.628 570.053 132.337 570.053 132.034Z" fill="#004D4B"/>
</g>
<path d="M24 127.231L14.9 123.903L14.9 121.927L24 118.599L24 120.458L16.902 122.928L24 125.398L24 127.231ZM21.933 125.762L20.568 125.307L20.568 120.666L21.933 120.211L21.933 125.762ZM27.016 114.621C27.016 115.254 26.938 115.804 26.782 116.272C26.6347 116.74 26.405 117.104 26.093 117.364C25.7897 117.615 25.4127 117.741 24.962 117.741C24.65 117.741 24.3597 117.663 24.091 117.507C23.8223 117.351 23.5797 117.126 23.363 116.831C23.1377 116.528 22.947 116.155 22.791 115.713L23.649 115.024C23.779 115.431 23.9437 115.726 24.143 115.908C24.3423 116.081 24.5547 116.168 24.78 116.168C24.9793 116.168 25.1483 116.103 25.287 115.973C25.4257 115.834 25.5253 115.652 25.586 115.427C25.6553 115.193 25.69 114.933 25.69 114.647C25.69 114.361 25.6553 114.114 25.586 113.906C25.5167 113.698 25.4127 113.538 25.274 113.425C25.144 113.304 24.988 113.243 24.806 113.243C24.5633 113.243 24.3683 113.325 24.221 113.49C24.0737 113.655 23.9827 113.988 23.948 114.491C23.9133 114.942 23.8657 115.34 23.805 115.687C23.7357 116.025 23.6577 116.324 23.571 116.584C23.4757 116.844 23.3717 117.065 23.259 117.247C23.1463 117.42 23.0337 117.563 22.921 117.676L22.622 117.676L21.14 116.285L21.53 115.011L23.142 116.675L22.271 116.168C22.3317 116.073 22.388 115.982 22.44 115.895C22.4833 115.8 22.5267 115.683 22.57 115.544C22.6047 115.405 22.6393 115.223 22.674 114.998C22.7087 114.764 22.7433 114.469 22.778 114.114C22.8213 113.542 22.9253 113.074 23.09 112.71C23.246 112.337 23.4627 112.064 23.74 111.891C24.0173 111.718 24.3597 111.631 24.767 111.631C25.157 111.631 25.521 111.739 25.859 111.956C26.2057 112.164 26.483 112.489 26.691 112.931C26.9077 113.373 27.016 113.936 27.016 114.621ZM22.05 114.621C22.05 115.167 21.946 115.639 21.738 116.038C21.5213 116.428 21.231 116.731 20.867 116.948C20.503 117.156 20.0957 117.26 19.645 117.26C19.1943 117.26 18.7913 117.156 18.436 116.948C18.072 116.731 17.7817 116.428 17.565 116.038C17.3483 115.639 17.24 115.167 17.24 114.621C17.24 114.066 17.3483 113.594 17.565 113.204C17.7817 112.805 18.072 112.502 18.436 112.294C18.7913 112.086 19.1943 111.982 19.645 111.982C20.0957 111.982 20.503 112.086 20.867 112.294C21.231 112.502 21.5213 112.805 21.738 113.204C21.946 113.594 22.05 114.066 22.05 114.621ZM20.711 114.621C20.711 114.283 20.6243 114.01 20.451 113.802C20.269 113.594 20.0047 113.49 19.658 113.49C19.3113 113.49 19.0513 113.594 18.878 113.802C18.696 114.01 18.605 114.283 18.605 114.621C18.605 114.959 18.696 115.236 18.878 115.453C19.0513 115.661 19.3113 115.765 19.658 115.765C20.0047 115.765 20.269 115.661 20.451 115.453C20.6243 115.236 20.711 114.959 20.711 114.621ZM18.631 113.516L17.396 113.802L17.396 111.111L18.436 111.111L18.631 113.516ZM24.156 106.832C24.156 107.482 24.013 108.058 23.727 108.561C23.441 109.063 23.0423 109.458 22.531 109.744C22.0197 110.03 21.4303 110.173 20.763 110.173C20.0697 110.173 19.4587 110.034 18.93 109.757C18.4013 109.471 17.9897 109.076 17.695 108.574C17.3917 108.071 17.24 107.486 17.24 106.819C17.24 106.169 17.383 105.601 17.669 105.116C17.955 104.63 18.345 104.258 18.839 103.998C19.3243 103.729 19.879 103.595 20.503 103.595C20.5897 103.595 20.6893 103.595 20.802 103.595C20.906 103.595 21.0143 103.603 21.127 103.621L21.127 108.912L20.048 108.912L20.048 105.363C19.6233 105.38 19.2853 105.527 19.034 105.805C18.7827 106.073 18.657 106.411 18.657 106.819C18.657 107.113 18.7263 107.386 18.865 107.638C19.0037 107.88 19.216 108.075 19.502 108.223C19.7793 108.37 20.1303 108.444 20.555 108.444L20.932 108.444C21.296 108.444 21.6123 108.379 21.881 108.249C22.1497 108.11 22.3577 107.919 22.505 107.677C22.6523 107.434 22.726 107.157 22.726 106.845C22.726 106.507 22.661 106.238 22.531 106.039C22.3923 105.831 22.2147 105.67 21.998 105.558L21.998 103.777C22.4053 103.898 22.7737 104.102 23.103 104.388C23.4237 104.674 23.6793 105.025 23.87 105.441C24.0607 105.848 24.156 106.312 24.156 106.832ZM24 102.131L17.396 102.131L17.396 100.597L18.449 100.467C18.085 100.268 17.7947 99.9864 17.578 99.6224C17.3527 99.2498 17.24 98.8078 17.24 98.2964C17.24 97.7591 17.3527 97.3041 17.578 96.9314C17.7947 96.5588 18.1197 96.2728 18.553 96.0734C18.9777 95.8741 19.4977 95.7744 20.113 95.7744L24 95.7744L24 97.5294L20.282 97.5294C19.7793 97.5294 19.3937 97.6421 19.125 97.8674C18.8563 98.0841 18.722 98.4178 18.722 98.8684C18.722 99.1544 18.787 99.4144 18.917 99.6484C19.047 99.8738 19.2377 100.051 19.489 100.181C19.7403 100.311 20.048 100.376 20.412 100.376L24 100.376L24 102.131ZM24 91.1313C24 91.5906 23.9307 91.9936 23.792 92.3403C23.6447 92.6783 23.4063 92.9426 23.077 93.1333C22.739 93.324 22.2797 93.4193 21.699 93.4193L18.865 93.4193L18.865 94.5503L17.396 94.5503L17.396 93.4193L15.576 93.2243L15.576 91.6643L17.396 91.6643L17.396 89.9353L18.865 89.9353L18.865 91.6643L21.725 91.6643C22.0197 91.6643 22.2233 91.5993 22.336 91.4693C22.4487 91.3393 22.505 91.1183 22.505 90.8063L22.505 89.9353L24 89.9353L24 91.1313ZM24.156 82.1889C24.156 82.8476 24.0433 83.4369 23.818 83.9569C23.5927 84.4683 23.2633 84.8756 22.83 85.1789C22.3967 85.4736 21.8723 85.6253 21.257 85.6339L21.257 83.7749C21.5257 83.7663 21.7683 83.6969 21.985 83.5669C22.2017 83.4369 22.375 83.2593 22.505 83.0339C22.6263 82.7999 22.687 82.5226 22.687 82.2019C22.687 81.9246 22.6437 81.6863 22.557 81.4869C22.4617 81.2789 22.3317 81.1186 22.167 81.0059C22.0023 80.8933 21.8073 80.8369 21.582 80.8369C21.3307 80.8369 21.1183 80.8976 20.945 81.0189C20.7717 81.1403 20.6243 81.3136 20.503 81.5389C20.373 81.7556 20.2603 82.0069 20.165 82.2929C20.061 82.5789 19.957 82.8823 19.853 83.2029C19.619 83.9396 19.307 84.4986 18.917 84.8799C18.5183 85.2526 17.9983 85.4389 17.357 85.4389C16.811 85.4389 16.343 85.3089 15.953 85.0489C15.563 84.7803 15.264 84.4119 15.056 83.9439C14.848 83.4759 14.744 82.9429 14.744 82.3449C14.744 81.7296 14.8523 81.1923 15.069 80.7329C15.277 80.2649 15.5803 79.8966 15.979 79.6279C16.3777 79.3506 16.8457 79.2076 17.383 79.1989L17.383 81.0709C17.1837 81.0796 16.9973 81.1403 16.824 81.2529C16.642 81.3569 16.499 81.5043 16.395 81.6949C16.2823 81.8856 16.226 82.1109 16.226 82.3709C16.2173 82.5963 16.252 82.8043 16.33 82.9949C16.408 83.1769 16.525 83.3243 16.681 83.4369C16.8283 83.5409 17.0147 83.5929 17.24 83.5929C17.4567 83.5929 17.6387 83.5409 17.786 83.4369C17.9333 83.3243 18.0633 83.1726 18.176 82.9819C18.28 82.7913 18.3797 82.5659 18.475 82.3059C18.5617 82.0459 18.6527 81.7643 18.748 81.4609C18.904 81.0103 19.0903 80.5943 19.307 80.2129C19.515 79.8316 19.788 79.5283 20.126 79.3029C20.464 79.0776 20.9103 78.9649 21.465 78.9649C21.9417 78.9649 22.3837 79.0906 22.791 79.3419C23.1983 79.5846 23.5277 79.9443 23.779 80.4209C24.0303 80.8976 24.156 81.4869 24.156 82.1889ZM26.86 77.4771L17.396 77.4771L17.396 75.9171L18.293 75.7351C18.1023 75.5965 17.929 75.4318 17.773 75.2411C17.6083 75.0505 17.4783 74.8208 17.383 74.5521C17.2877 74.2835 17.24 73.9758 17.24 73.6291C17.24 73.0138 17.3917 72.4721 17.695 72.0041C17.9983 71.5361 18.41 71.1678 18.93 70.8991C19.45 70.6305 20.0437 70.4961 20.711 70.4961C21.3697 70.4961 21.959 70.6348 22.479 70.9121C22.999 71.1895 23.4107 71.5621 23.714 72.0301C24.0087 72.4895 24.156 73.0138 24.156 73.6031C24.156 74.0971 24.0693 74.5218 23.896 74.8771C23.714 75.2238 23.467 75.5055 23.155 75.7221L26.86 75.7221L26.86 77.4771ZM22.622 74.0321C22.622 73.6941 22.544 73.3951 22.388 73.1351C22.2233 72.8665 21.998 72.6585 21.712 72.5111C21.426 72.3638 21.0923 72.2901 20.711 72.2901C20.321 72.2901 19.983 72.3638 19.697 72.5111C19.4023 72.6585 19.177 72.8665 19.021 73.1351C18.8563 73.3951 18.774 73.6941 18.774 74.0321C18.774 74.3701 18.8563 74.6735 19.021 74.9421C19.177 75.2021 19.4023 75.4058 19.697 75.5531C19.983 75.7005 20.3167 75.7741 20.698 75.7741C21.0793 75.7741 21.4173 75.7005 21.712 75.5531C21.998 75.4058 22.2233 75.2021 22.388 74.9421C22.544 74.6735 22.622 74.3701 22.622 74.0321ZM24.156 66.7743C24.156 67.3116 24.0693 67.758 23.896 68.1133C23.714 68.4686 23.4713 68.733 23.168 68.9063C22.856 69.0796 22.5223 69.1663 22.167 69.1663C21.7597 69.1663 21.4043 69.0623 21.101 68.8543C20.7977 68.6463 20.5593 68.3386 20.386 67.9313C20.2127 67.5153 20.126 66.9953 20.126 66.3713L20.126 64.7723C19.7967 64.7723 19.5237 64.8113 19.307 64.8893C19.0903 64.9673 18.93 65.0973 18.826 65.2793C18.722 65.4613 18.67 65.704 18.67 66.0073C18.67 66.3366 18.7393 66.614 18.878 66.8393C19.0167 67.0646 19.229 67.2033 19.515 67.2553L19.515 68.9583C19.047 68.915 18.644 68.7633 18.306 68.5033C17.968 68.2433 17.708 67.8966 17.526 67.4633C17.3353 67.03 17.24 66.5446 17.24 66.0073C17.24 65.3833 17.344 64.8503 17.552 64.4083C17.7513 63.9576 18.0503 63.6153 18.449 63.3813C18.839 63.1386 19.3157 63.0173 19.879 63.0173L24 63.0173L24 64.4863L22.999 64.6813C23.1637 64.7766 23.3197 64.8893 23.467 65.0193C23.6057 65.1493 23.727 65.301 23.831 65.4743C23.935 65.6476 24.013 65.8426 24.065 66.0593C24.1257 66.276 24.156 66.5143 24.156 66.7743ZM22.804 66.3583C22.804 66.133 22.765 65.9336 22.687 65.7603C22.6003 65.5783 22.4833 65.4266 22.336 65.3053C22.1887 65.1753 22.0197 65.0713 21.829 64.9933C21.6383 64.9153 21.439 64.8633 21.231 64.8373L21.205 64.8373L21.205 66.1763C21.205 66.4363 21.2397 66.653 21.309 66.8263C21.3697 66.991 21.4607 67.1123 21.582 67.1903C21.7033 67.2683 21.8463 67.3073 22.011 67.3073C22.1757 67.3073 22.3187 67.2683 22.44 67.1903C22.5613 67.1123 22.6523 67.004 22.713 66.8653C22.7737 66.718 22.804 66.549 22.804 66.3583ZM24.156 58.1697C24.156 58.8284 24.0087 59.4134 23.714 59.9247C23.4193 60.4274 23.0163 60.826 22.505 61.1207C21.985 61.4067 21.3957 61.5497 20.737 61.5497C20.0437 61.5497 19.437 61.4067 18.917 61.1207C18.397 60.826 17.9897 60.4274 17.695 59.9247C17.3917 59.4134 17.24 58.8284 17.24 58.1697C17.24 57.329 17.461 56.6227 17.903 56.0507C18.345 55.4787 18.956 55.1147 19.736 54.9587L19.736 56.8177C19.424 56.8957 19.1813 57.056 19.008 57.2987C18.826 57.5414 18.735 57.836 18.735 58.1827C18.735 58.486 18.813 58.759 18.969 59.0017C19.125 59.2357 19.3503 59.422 19.645 59.5607C19.9397 59.6907 20.2907 59.7557 20.698 59.7557C21.0013 59.7557 21.2743 59.7167 21.517 59.6387C21.7597 59.5607 21.9677 59.4524 22.141 59.3137C22.3057 59.175 22.4357 59.0104 22.531 58.8197C22.6177 58.629 22.661 58.4167 22.661 58.1827C22.661 57.9487 22.622 57.7407 22.544 57.5587C22.466 57.3767 22.3533 57.2207 22.206 57.0907C22.0587 56.952 21.8767 56.861 21.66 56.8177L21.66 54.9587C22.4227 55.1147 23.0293 55.4787 23.48 56.0507C23.9307 56.6227 24.156 57.329 24.156 58.1697ZM24.156 50.2995C24.156 50.9495 24.013 51.5259 23.727 52.0285C23.441 52.5312 23.0423 52.9255 22.531 53.2115C22.0197 53.4975 21.4303 53.6405 20.763 53.6405C20.0697 53.6405 19.4587 53.5019 18.93 53.2245C18.4013 52.9385 17.9897 52.5442 17.695 52.0415C17.3917 51.5389 17.24 50.9539 17.24 50.2865C17.24 49.6365 17.383 49.0689 17.669 48.5835C17.955 48.0982 18.345 47.7255 18.839 47.4655C19.3243 47.1969 19.879 47.0625 20.503 47.0625C20.5897 47.0625 20.6893 47.0625 20.802 47.0625C20.906 47.0625 21.0143 47.0712 21.127 47.0885L21.127 52.3795L20.048 52.3795L20.048 48.8305C19.6233 48.8479 19.2853 48.9952 19.034 49.2725C18.7827 49.5412 18.657 49.8792 18.657 50.2865C18.657 50.5812 18.7263 50.8542 18.865 51.1055C19.0037 51.3482 19.216 51.5432 19.502 51.6905C19.7793 51.8379 20.1303 51.9115 20.555 51.9115L20.932 51.9115C21.296 51.9115 21.6123 51.8465 21.881 51.7165C22.1497 51.5779 22.3577 51.3872 22.505 51.1445C22.6523 50.9019 22.726 50.6245 22.726 50.3125C22.726 49.9745 22.661 49.7059 22.531 49.5065C22.3923 49.2985 22.2147 49.1382 21.998 49.0255L21.998 47.2445C22.4053 47.3659 22.7737 47.5695 23.103 47.8555C23.4237 48.1415 23.6793 48.4925 23.87 48.9085C24.0607 49.3159 24.156 49.7795 24.156 50.2995Z" fill="white"/>
<defs>
<filter id="filter0_d_384_4781" x="354.5" y="16.5" width="139" height="53" filterUnits="userSpaceOnUse" color-interpolation-filters="sRGB">
<feFlood flood-opacity="0" result="BackgroundImageFix"/>
<feColorMatrix in="SourceAlpha" type="matrix" values="0 0 0 0 0 0 0 0 0 0 0 0 0 0 0 0 0 0 127 0" result="hardAlpha"/>
<feOffset dy="2"/>
<feGaussianBlur stdDeviation="4.75"/>
<feComposite in2="hardAlpha" operator="out"/>
<feColorMatrix type="matrix" values="0 0 0 0 0.110286 0 0 0 0 0.629286 0 0 0 0 1 0 0 0 1 0"/>
<feBlend mode="normal" in2="BackgroundImageFix" result="effect1_dropShadow_384_4781"/>
<feBlend mode="normal" in="SourceGraphic" in2="effect1_dropShadow_384_4781" result="shape"/>
</filter>
<linearGradient id="paint0_linear_384_4781" x1="378.5" y1="0" x2="378.5" y2="174" gradientUnits="userSpaceOnUse">
<stop stop-color="#0FDCF8"/>
<stop offset="1" stop-color="#1F0A33"/>
</linearGradient>
<linearGradient id="paint1_linear_384_4781" x1="127" y1="24" x2="127" y2="58" gradientUnits="userSpaceOnUse">
<stop stop-color="white" stop-opacity="0"/>
<stop offset="1" stop-color="white" stop-opacity="0.15"/>
</linearGradient>
<linearGradient id="paint2_linear_384_4781" x1="127" y1="24" x2="127" y2="58" gradientUnits="userSpaceOnUse">
<stop stop-color="#4E4E4E"/>
<stop offset="1" stop-color="#383737"/>
</linearGradient>
<linearGradient id="paint3_linear_384_4781" x1="263" y1="24" x2="263" y2="58" gradientUnits="userSpaceOnUse">
<stop stop-color="white" stop-opacity="0"/>
<stop offset="1" stop-color="white" stop-opacity="0.15"/>
</linearGradient>
<linearGradient id="paint4_linear_384_4781" x1="263" y1="24" x2="263" y2="58" gradientUnits="userSpaceOnUse">
<stop stop-color="#4E4E4E"/>
<stop offset="1" stop-color="#383737"/>
</linearGradient>
<linearGradient id="paint5_linear_384_4781" x1="424" y1="24" x2="424" y2="58" gradientUnits="userSpaceOnUse">
<stop stop-color="#E5FFFE"/>
<stop offset="1" stop-color="#99FFFC"/>
</linearGradient>
<linearGradient id="paint6_linear_384_4781" x1="618.5" y1="24" x2="618.5" y2="58" gradientUnits="userSpaceOnUse">
<stop stop-color="white" stop-opacity="0"/>
<stop offset="1" stop-color="white" stop-opacity="0.15"/>
</linearGradient>
<linearGradient id="paint7_linear_384_4781" x1="618.5" y1="24" x2="618.5" y2="58" gradientUnits="userSpaceOnUse">
<stop stop-color="#4E4E4E"/>
<stop offset="1" stop-color="#383737"/>
</linearGradient>
<linearGradient id="paint8_linear_384_4781" x1="380.25" y1="110" x2="380.25" y2="150" gradientUnits="userSpaceOnUse">
<stop stop-color="#E5FFFE"/>
<stop offset="1" stop-color="#99FFFC"/>
</linearGradient>
<clipPath id="clip0_384_4781">
<rect width="20" height="20" fill="white" transform="translate(556.5 120)"/>
</clipPath>
</defs>
</svg>
