<svg width="16" height="16" viewBox="0 0 16 16" fill="none" xmlns="http://www.w3.org/2000/svg">
<g clip-path="url(#clip0_5179_12968)">
<path d="M8 6.58605L14.2918 0.293607C14.3845 0.200545 14.4947 0.126704 14.616 0.0763201C14.7373 0.025936 14.8674 0 14.9988 0C15.1301 0 15.2602 0.025936 15.3815 0.0763201C15.5028 0.126704 15.613 0.200545 15.7057 0.293607C15.7987 0.386369 15.8725 0.496562 15.9228 0.617876C15.9731 0.739189 15.9991 0.869241 15.9991 1.00058C15.9991 1.13192 15.9731 1.26197 15.9228 1.38329C15.8725 1.5046 15.7987 1.61479 15.7057 1.70756L9.41328 8L15.7051 14.2918C16.0957 14.6824 16.0984 15.3124 15.7051 15.7057C15.6123 15.7987 15.5021 15.8725 15.3808 15.9228C15.2595 15.9731 15.1294 15.9991 14.9981 15.9991C14.8667 15.9991 14.7367 15.9731 14.6154 15.9228C14.4941 15.8725 14.3839 15.7987 14.2911 15.7057L8 9.41328L1.70822 15.7064C1.61551 15.7995 1.50533 15.8733 1.38401 15.9237C1.26269 15.9741 1.13261 16 1.00125 16C0.869882 16 0.739809 15.9741 0.618489 15.9237C0.497169 15.8733 0.386991 15.7995 0.294273 15.7064C0.201291 15.6136 0.127521 15.5034 0.077187 15.3821C0.026853 15.2608 0.00094418 15.1308 0.00094418 14.9994C0.00094418 14.8681 0.026853 14.738 0.077187 14.6167C0.127521 14.4954 0.201291 14.3852 0.294273 14.2924L6.58672 8L0.293607 1.70822C0.200545 1.61551 0.126704 1.50533 0.0763201 1.38401C0.025936 1.26269 0 1.13261 0 1.00125C0 0.869882 0.025936 0.739809 0.0763201 0.618489C0.126704 0.497169 0.200545 0.386991 0.293607 0.294273C0.386369 0.201291 0.496562 0.127521 0.617876 0.077187C0.739189 0.026853 0.869241 0.00094418 1.00058 0.00094418C1.13192 0.00094418 1.26197 0.026853 1.38329 0.077187C1.5046 0.127521 1.61479 0.201291 1.70756 0.294273L8 6.58672V6.58605Z" fill="white" fill-opacity="0.4"/>
</g>
<defs>
<clipPath id="clip0_5179_12968">
<rect width="16" height="16" fill="white"/>
</clipPath>
</defs>
</svg>
