<svg width="30" height="31" viewBox="0 0 30 31" fill="none" xmlns="http://www.w3.org/2000/svg">
<rect y="0.345703" width="30" height="30" rx="15" fill="#27E6FF" fill-opacity="0.13"/>
<rect x="0.5" y="0.845703" width="29" height="29" rx="14.5" stroke="#27E6FF" stroke-opacity="0.36"/>
<path d="M20.2192 10.549C20.215 10.5409 20.2081 10.5345 20.1997 10.531C19.2269 10.0804 18.2002 9.75901 17.1455 9.57501C17.1359 9.57321 17.126 9.57451 17.1172 9.57871C17.1084 9.58292 17.1012 9.58983 17.0965 9.59845C16.9567 9.85462 16.8298 10.1177 16.7162 10.3868C15.5793 10.2126 14.4228 10.2126 13.2859 10.3868C13.1716 10.1171 13.0427 9.85387 12.8997 9.59845C12.8948 9.59002 12.8875 9.58327 12.8787 9.57909C12.87 9.57491 12.8602 9.57348 12.8506 9.57501C11.7958 9.75862 10.7691 10.08 9.79637 10.531C9.78804 10.5346 9.78102 10.5407 9.77626 10.5484C7.83103 13.4813 7.29816 16.3421 7.55956 19.1674C7.5603 19.1743 7.56241 19.181 7.56576 19.1871C7.56911 19.1932 7.57365 19.1986 7.57909 19.2028C8.71178 20.0496 9.9787 20.6959 11.3258 21.1142C11.3353 21.1171 11.3454 21.117 11.3548 21.1139C11.3642 21.1107 11.3725 21.1048 11.3784 21.0968C11.6678 20.6993 11.9241 20.2785 12.1449 19.8385C12.148 19.8324 12.1497 19.8258 12.15 19.819C12.1503 19.8123 12.1492 19.8055 12.1468 19.7992C12.1443 19.7929 12.1406 19.7872 12.1358 19.7825C12.131 19.7778 12.1252 19.7741 12.1189 19.7718C11.7147 19.6156 11.3233 19.4274 10.9485 19.2088C10.9417 19.2047 10.9359 19.1991 10.9318 19.1923C10.9277 19.1855 10.9253 19.1777 10.9248 19.1698C10.9244 19.1618 10.9258 19.1539 10.9291 19.1466C10.9324 19.1394 10.9375 19.1331 10.9437 19.1282C11.0224 19.0687 11.1011 19.0069 11.1762 18.9444C11.1829 18.9388 11.1909 18.9353 11.1995 18.9341C11.2081 18.9329 11.2168 18.9342 11.2247 18.9378C13.6803 20.0692 16.3388 20.0692 18.7653 18.9378C18.7732 18.934 18.782 18.9325 18.7907 18.9336C18.7994 18.9346 18.8076 18.9382 18.8144 18.9438C18.8895 19.0063 18.9682 19.0687 19.0475 19.1282C19.0538 19.133 19.0588 19.1393 19.0622 19.1465C19.0655 19.1537 19.0671 19.1617 19.0667 19.1696C19.0663 19.1776 19.0639 19.1853 19.0598 19.1921C19.0558 19.199 19.0501 19.2047 19.0433 19.2088C18.6694 19.4292 18.2776 19.6173 17.8723 19.7712C17.866 19.7736 17.8603 19.7773 17.8555 19.7821C17.8507 19.7869 17.847 19.7927 17.8446 19.7991C17.8422 19.8054 17.8412 19.8122 17.8415 19.819C17.8419 19.8258 17.8437 19.8324 17.8468 19.8385C18.0713 20.276 18.3273 20.6964 18.6127 21.0961C18.6185 21.1043 18.6267 21.1105 18.6361 21.1137C18.6456 21.1169 18.6558 21.1171 18.6653 21.1141C20.0148 20.6972 21.284 20.0509 22.4181 19.2028C22.4236 19.1988 22.4282 19.1936 22.4316 19.1876C22.4349 19.1816 22.437 19.1749 22.4376 19.168C22.7506 15.9016 21.9137 13.0643 20.2192 10.549ZM12.5117 17.4471C11.7723 17.4471 11.1632 16.7621 11.1632 15.9209C11.1632 15.0796 11.7605 14.3946 12.5117 14.3946C13.2687 14.3946 13.8719 15.0856 13.8601 15.9208C13.8601 16.7621 13.2627 17.4471 12.5117 17.4471ZM17.4974 17.4471C16.7581 17.4471 16.149 16.7621 16.149 15.9209C16.149 15.0796 16.7463 14.3946 17.4974 14.3946C18.2545 14.3946 18.8577 15.0856 18.8459 15.9208C18.8459 16.7621 18.2545 17.4471 17.4974 17.4471Z" fill="#27E6FF"/>
</svg>
