<svg width="30" height="30" viewBox="0 0 30 30" fill="none" xmlns="http://www.w3.org/2000/svg">
<rect width="30" height="30" rx="15" fill="white" fill-opacity="0.13"/>
<rect x="0.5" y="0.5" width="29" height="29" rx="14.5" stroke="white" stroke-opacity="0.1"/>
<path d="M20.2192 10.2033C20.215 10.1952 20.2081 10.1888 20.1997 10.1853C19.2269 9.73465 18.2002 9.41331 17.1455 9.2293C17.1359 9.22751 17.126 9.2288 17.1172 9.23301C17.1084 9.23722 17.1012 9.24413 17.0965 9.25275C16.9567 9.50891 16.8298 9.77204 16.7162 10.0411C15.5793 9.86687 14.4228 9.86687 13.2859 10.0411C13.1716 9.77135 13.0427 9.50816 12.8997 9.25275C12.8948 9.24431 12.8875 9.23757 12.8787 9.23339C12.87 9.2292 12.8602 9.22778 12.8506 9.2293C11.7958 9.41292 10.7691 9.73429 9.79637 10.1853C9.78804 10.1889 9.78102 10.195 9.77626 10.2027C7.83103 13.1356 7.29816 15.9964 7.55956 18.8217C7.5603 18.8286 7.56241 18.8353 7.56576 18.8414C7.56911 18.8475 7.57365 18.8529 7.57909 18.8571C8.71178 19.7039 9.9787 20.3502 11.3258 20.7685C11.3353 20.7714 11.3454 20.7713 11.3548 20.7682C11.3642 20.765 11.3725 20.7591 11.3784 20.7511C11.6678 20.3536 11.9241 19.9328 12.1449 19.4928C12.148 19.4867 12.1497 19.4801 12.15 19.4733C12.1503 19.4666 12.1492 19.4598 12.1468 19.4535C12.1443 19.4472 12.1406 19.4415 12.1358 19.4368C12.131 19.4321 12.1252 19.4284 12.1189 19.4261C11.7147 19.2699 11.3233 19.0817 10.9485 18.8631C10.9417 18.859 10.9359 18.8534 10.9318 18.8466C10.9277 18.8398 10.9253 18.832 10.9248 18.8241C10.9244 18.8161 10.9258 18.8082 10.9291 18.8009C10.9324 18.7937 10.9375 18.7874 10.9437 18.7825C11.0224 18.723 11.1011 18.6612 11.1762 18.5987C11.1829 18.5931 11.1909 18.5896 11.1995 18.5884C11.2081 18.5872 11.2168 18.5885 11.2247 18.5921C13.6803 19.7235 16.3388 19.7235 18.7653 18.5921C18.7732 18.5883 18.782 18.5868 18.7907 18.5879C18.7994 18.5889 18.8076 18.5925 18.8144 18.5981C18.8895 18.6606 18.9682 18.723 19.0475 18.7825C19.0538 18.7873 19.0588 18.7936 19.0622 18.8008C19.0655 18.808 19.0671 18.816 19.0667 18.8239C19.0663 18.8319 19.0639 18.8396 19.0598 18.8464C19.0558 18.8533 19.0501 18.859 19.0433 18.8631C18.6694 19.0835 18.2776 19.2716 17.8723 19.4255C17.866 19.4279 17.8603 19.4316 17.8555 19.4364C17.8507 19.4412 17.847 19.447 17.8446 19.4534C17.8422 19.4597 17.8412 19.4665 17.8415 19.4733C17.8419 19.4801 17.8437 19.4867 17.8468 19.4928C18.0713 19.9303 18.3273 20.3507 18.6127 20.7504C18.6185 20.7586 18.6267 20.7648 18.6361 20.768C18.6456 20.7712 18.6558 20.7714 18.6653 20.7684C20.0148 20.3515 21.284 19.7052 22.4181 18.8571C22.4236 18.8531 22.4282 18.8479 22.4316 18.8419C22.4349 18.8358 22.437 18.8292 22.4376 18.8223C22.7506 15.5559 21.9137 12.7186 20.2192 10.2033ZM12.5117 17.1014C11.7723 17.1014 11.1632 16.4164 11.1632 15.5752C11.1632 14.7339 11.7605 14.0489 12.5117 14.0489C13.2687 14.0489 13.8719 14.7399 13.8601 15.5751C13.8601 16.4164 13.2627 17.1014 12.5117 17.1014ZM17.4974 17.1014C16.7581 17.1014 16.149 16.4164 16.149 15.5752C16.149 14.7339 16.7463 14.0489 17.4974 14.0489C18.2545 14.0489 18.8577 14.7399 18.8459 15.5751C18.8459 16.4164 18.2545 17.1014 17.4974 17.1014Z" fill="white"/>
</svg>
