<svg width="16" height="16" viewBox="0 0 16 16" fill="none" xmlns="http://www.w3.org/2000/svg">
<path d="M8.95696 5.58455H2.55556L6.34409 2.40511C6.4833 2.28654 6.56133 2.12674 6.56133 1.96025C6.56133 1.79377 6.4833 1.63397 6.34409 1.5154C6.20287 1.39852 6.01254 1.33301 5.81424 1.33301C5.61595 1.33301 5.42561 1.39852 5.28439 1.5154L0.221206 5.76081C0.115979 5.84912 0.0441804 5.96156 0.0148319 6.08402C-0.0145167 6.20647 -0.000106633 6.33348 0.0562516 6.44908C0.0969717 6.52624 0.15272 6.59715 0.221206 6.65892L5.28939 10.9043C5.35866 10.9632 5.44117 11.01 5.53212 11.0419C5.62308 11.0738 5.72067 11.0902 5.81924 11.0902C5.91781 11.0902 6.01541 11.0738 6.10636 11.0419C6.19731 11.01 6.27982 10.9632 6.34909 10.9043C6.4883 10.7858 6.56633 10.626 6.56633 10.4595C6.56633 10.293 6.4883 10.1332 6.34909 10.0146L2.55556 6.83938H8.50209C9.2898 6.83938 10.0698 6.96965 10.7975 7.22273C11.5253 7.47582 12.1866 7.84678 12.7435 8.31443C13.3005 8.78207 13.7424 9.33725 14.0438 9.94826C14.3453 10.5593 14.5004 11.2141 14.5004 11.8755V14.0368C14.5004 14.1195 14.5198 14.2014 14.5575 14.2777C14.5952 14.3541 14.6504 14.4235 14.72 14.482C14.7897 14.5404 14.8723 14.5868 14.9633 14.6184C15.0542 14.6501 15.1517 14.6663 15.2502 14.6663C15.3487 14.6663 15.4462 14.6501 15.5371 14.6184C15.6281 14.5868 15.7108 14.5404 15.7804 14.482C15.85 14.4235 15.9052 14.3541 15.9429 14.2777C15.9806 14.2014 16 14.1195 16 14.0368V11.4852C16 10.7093 15.8177 9.94093 15.4636 9.22421C15.1095 8.50748 14.5904 7.85644 13.9362 7.30835C13.282 6.76026 12.5055 6.32589 11.6511 6.03009C10.7967 5.7343 9.88116 5.58289 8.95696 5.58455Z" fill="white" fill-opacity="0.4"/>
</svg>
