<svg width="38" height="39" viewBox="0 0 38 39" fill="none" xmlns="http://www.w3.org/2000/svg">
<g clip-path="url(#clip0_5914_13139)">
<path d="M31.6671 13.0128C31.6671 11.2707 30.2421 9.8457 28.5001 9.8457C26.758 9.8457 25.333 11.2707 25.333 13.0128C25.333 14.7548 26.758 16.1798 28.5001 16.1798C30.2421 16.1798 31.6671 14.7548 31.6671 13.0128Z" fill="#27E6FF"/>
<path d="M1 3.5127C0.447715 3.5127 0 3.96041 0 4.5127V34.1798C0 34.732 0.447715 35.1798 1 35.1798H18C18.5523 35.1798 19 34.732 19 34.1798V33.0127C19 32.4604 18.5523 32.0127 18 32.0127H4.16706C3.61478 32.0127 3.16706 31.565 3.16706 31.0127V28.3098C3.16706 28.0446 3.27242 27.7903 3.45996 27.6027L11.96 19.1027C12.3505 18.7122 12.9836 18.7122 13.3742 19.1027L18.2929 24.0215C18.6834 24.412 19.3166 24.412 19.7071 24.0215L20.51 23.2186C20.9005 22.8281 20.9005 22.1949 20.51 21.8044L13.3742 14.6686C12.9836 14.2781 12.3505 14.2781 11.96 14.6686L4.87417 21.7544C4.2442 22.3844 3.16706 21.9382 3.16706 21.0473V7.67857C3.16706 7.12628 3.61478 6.67857 4.16706 6.67857H33.8341C34.3864 6.67857 34.8341 7.12629 34.8341 7.67857V15.7644C34.8341 16.0296 34.9395 16.2839 35.127 16.4715L36.2941 17.6385C36.924 18.2685 38.0012 17.8223 38.0012 16.9314V4.5127C38.0012 3.96041 37.5535 3.5127 37.0012 3.5127H1Z" fill="#27E6FF"/>
<path d="M34.6008 27.6637C34.9913 28.0543 35.6246 28.0544 36.0152 27.6638L36.8179 26.8611C37.2084 26.4706 37.2084 25.8374 36.8179 25.4469L30.79 19.419C30.3995 19.0285 29.7664 19.0285 29.3758 19.419L23.348 25.4469C22.9575 25.8374 22.9575 26.4706 23.348 26.8611L24.1508 27.6639C24.5413 28.0545 25.1745 28.0545 25.565 27.6639L26.7929 26.4361C27.4229 25.8061 28.5 26.2523 28.5 27.1432V34.3467C28.5 34.899 28.9477 35.3467 29.5 35.3467H30.6671C31.2193 35.3467 31.6671 34.899 31.6671 34.3467V27.1437C31.6671 26.2528 32.7444 25.8066 33.3743 26.4368L34.6008 27.6637Z" fill="#27E6FF"/>
</g>
<defs>
<clipPath id="clip0_5914_13139">
<rect width="38" height="38" fill="white" transform="translate(0 0.345703)"/>
</clipPath>
</defs>
</svg>
