<svg width="38" height="39" viewBox="0 0 38 39" fill="none" xmlns="http://www.w3.org/2000/svg">
<g clip-path="url(#clip0_5179_13024)">
<path d="M31.6671 13.1671C31.6671 11.425 30.2421 10 28.5001 10C26.758 10 25.333 11.425 25.333 13.1671C25.333 14.9091 26.758 16.3341 28.5001 16.3341C30.2421 16.3341 31.6671 14.9091 31.6671 13.1671Z" fill="white"/>
<path d="M1 3.66699C0.447715 3.66699 0 4.11471 0 4.66699V34.3341C0 34.8863 0.447715 35.3341 1 35.3341H18C18.5523 35.3341 19 34.8863 19 34.3341V33.167C19 32.6147 18.5523 32.167 18 32.167H4.16706C3.61478 32.167 3.16706 31.7193 3.16706 31.167V28.4641C3.16706 28.1989 3.27242 27.9446 3.45996 27.757L11.96 19.257C12.3505 18.8665 12.9836 18.8665 13.3742 19.257L18.2929 24.1758C18.6834 24.5663 19.3166 24.5663 19.7071 24.1758L20.51 23.3729C20.9005 22.9824 20.9005 22.3492 20.51 21.9587L13.3742 14.8229C12.9836 14.4324 12.3505 14.4324 11.96 14.8229L4.87417 21.9087C4.2442 22.5387 3.16706 22.0925 3.16706 21.2016V7.83287C3.16706 7.28058 3.61478 6.83287 4.16706 6.83287H33.8341C34.3864 6.83287 34.8341 7.28058 34.8341 7.83287V15.9187C34.8341 16.1839 34.9395 16.4382 35.127 16.6258L36.2941 17.7928C36.924 18.4228 38.0012 17.9766 38.0012 17.0857V4.66699C38.0012 4.11471 37.5535 3.66699 37.0012 3.66699H1Z" fill="white"/>
<path d="M34.6008 27.818C34.9913 28.2086 35.6246 28.2087 36.0152 27.8181L36.8179 27.0154C37.2084 26.6249 37.2084 25.9917 36.8179 25.6012L30.79 19.5733C30.3995 19.1828 29.7664 19.1828 29.3758 19.5733L23.348 25.6012C22.9575 25.9917 22.9575 26.6249 23.348 27.0154L24.1508 27.8182C24.5413 28.2088 25.1745 28.2088 25.565 27.8182L26.7929 26.5904C27.4229 25.9604 28.5 26.4066 28.5 27.2975V34.501C28.5 35.0533 28.9477 35.501 29.5 35.501H30.6671C31.2193 35.501 31.6671 35.0533 31.6671 34.501V27.298C31.6671 26.4071 32.7444 25.9609 33.3743 26.5911L34.6008 27.818Z" fill="white"/>
</g>
<defs>
<clipPath id="clip0_5179_13024">
<rect width="38" height="38" fill="white" transform="translate(0 0.5)"/>
</clipPath>
</defs>
</svg>
