<?xml version="1.0" standalone="no"?><!DOCTYPE svg PUBLIC "-//W3C//DTD SVG 1.1//EN" "http://www.w3.org/Graphics/SVG/1.1/DTD/svg11.dtd"><svg t="1750435988834" class="icon" viewBox="0 0 1024 1024" version="1.1" xmlns="http://www.w3.org/2000/svg" p-id="4827" width="64" height="64" xmlns:xlink="http://www.w3.org/1999/xlink"><path d="M163.751 346.274h144.11c13.33 0 21.329 10.664 21.329 21.328s-7.997 18.663-21.329 18.663h-144.11c-10.665 0-18.663-7.999-18.663-18.663 0-10.664 7.998-21.328 18.663-21.328z m93.407-146.822l101.406 101.405c7.998 7.997 7.998 21.329 0 29.328-7.998 7.998-21.33 7.998-29.374 0L227.784 226.113c-7.998-7.998-7.998-21.329 0-26.661 8.046-8 21.375-8 29.374 0z m154.775-69.413v146.73c0 10.757-7.998 18.756-18.664 18.756-10.71 0-21.374-7.998-21.374-18.755V130.039c0-10.665 10.663-18.662 21.374-18.662 10.666 0 18.664 7.997 18.664 18.662z m480.32 525.692H748.19c-10.665 0-18.662-7.999-18.662-18.663 0-10.664 7.997-21.33 18.662-21.33h144.064c10.664 0 21.422 10.666 21.422 21.33 0 10.663-10.758 18.663-21.422 18.663z m-90.74 149.487L697.44 703.813c-7.996-7.999-7.996-21.33 0-29.327 8-8 21.422-8 29.421 0l101.406 101.406c7.997 7.997 7.997 21.329 0 29.326-7.999 8-18.755 8-26.754 0z m-157.395 66.745V727.81c0-10.666 7.998-21.33 21.33-21.33 10.664 0 18.662 10.664 18.662 21.33v144.154c0 10.666-7.998 21.33-18.662 21.33-13.332 0-21.33-10.664-21.33-21.33zM326.523 655.731l328.26-328.213c10.665-10.664 31.994-10.664 42.658 0 10.667 10.665 10.667 31.995 0 42.659L369.229 698.48c-10.665 10.665-29.328 10.665-42.705 0-10.664-13.33-10.664-31.995 0-42.75z m234.851-357.54l104.073-104.074c48.082-45.324 136.066-58.746 181.484-13.33l15.995 15.997c45.325 47.99 34.66 136.066-13.33 181.482L745.522 482.34c-37.416 37.327-98.739 47.99-146.822 26.663l-34.66 37.326c58.747 40.085 141.398 32.085 192.147-21.329l136.065-133.4c61.414-61.413 61.414-160.152 0-218.9l-18.662-21.33c-61.323-61.32-160.062-61.32-218.809 0L518.716 287.528c-48.082 45.324-56.08 117.402-32.084 173.483l37.417-37.419c-10.664-42.75 5.334-93.406 37.325-125.4z m-98.738 426.951L358.564 831.88c-45.37 45.418-133.445 58.75-181.483 10.666l-15.997-15.998c-45.37-45.324-32.04-133.4 13.33-178.816l104.073-106.738c37.372-37.327 101.405-47.99 146.776-26.662l37.372-34.751c-61.368-39.9-141.444-31.995-194.814 18.755l-136.11 136.066c-61.367 61.412-61.367 160.152 0 218.807l21.375 21.422c58.701 58.655 157.44 58.655 218.809 0L505.34 738.473c48.038-47.991 58.702-117.403 32.04-173.392l-37.372 37.326c10.664 42.659-2.666 90.74-37.372 122.735z" fill="#27E6FF" p-id="4828"></path></svg>