<svg width="20" height="21" viewBox="0 0 20 21" fill="none" xmlns="http://www.w3.org/2000/svg">
<g clip-path="url(#clip0_641_7319)">
<path d="M4.16668 10.865C4.16668 10.21 4.27612 9.58219 4.47168 8.9933L1.04446 6.39941C0.355079 7.78692 -0.00247113 9.31564 1.28544e-05 10.865C1.28544e-05 12.4694 0.375013 13.9827 1.04279 15.3261L4.46835 12.7283C4.26844 12.1274 4.1664 11.4983 4.16612 10.865" fill="#FBBC05"/>
<path d="M10.1861 4.90905C11.5517 4.90627 12.8761 5.37516 13.9361 6.23682L16.8989 3.3046C15.0933 1.74793 12.7778 0.785156 10.1861 0.785156C6.1611 0.785156 2.7011 3.06682 1.04443 6.39905L4.47388 8.99349C5.26332 6.61738 7.51443 4.90849 10.1872 4.90849" fill="#EA4335"/>
<path d="M10.2292 16.6878C7.5431 16.6878 5.28088 14.99 4.48644 12.6289L1.04199 15.2067C2.70644 18.5195 6.1831 20.7856 10.2292 20.7856C12.7253 20.7856 15.1087 19.9172 16.8981 18.2895L13.6275 15.8122C12.7053 16.3817 11.5437 16.6884 10.2287 16.6884" fill="#34A853"/>
<path d="M20.0002 10.7699C20.0002 10.1777 19.9068 9.53991 19.7674 8.94824H10.2285V12.8182H15.7191C15.4452 14.1382 14.6985 15.1521 13.6285 15.8121L16.8985 18.2894C18.778 16.5799 20.0002 14.0349 20.0002 10.7699Z" fill="#4285F4"/>
</g>
<defs>
<clipPath id="clip0_641_7319">
<rect width="20" height="20" fill="white" transform="translate(0 0.785156)"/>
</clipPath>
</defs>
</svg>
