<svg width="16" height="16" viewBox="0 0 16 16" fill="none" xmlns="http://www.w3.org/2000/svg">
<path fill-rule="evenodd" clip-rule="evenodd" d="M15.4665 6.6357C15.4665 3.7467 13.615 1.6001 10.7261 1.6001C9.68286 1.6001 8.97539 1.93809 7.99987 2.70436C7.02454 1.93791 6.31688 1.6001 5.2736 1.6001C2.38475 1.6001 0.533203 3.7467 0.533203 6.6357C0.533203 8.8776 2.72243 11.3466 7.03574 14.1209C7.31899 14.3027 7.65533 14.4001 7.99987 14.4001C8.34441 14.4001 8.68075 14.3027 8.964 14.1209C13.2773 11.3466 15.4665 8.8776 15.4665 6.6357ZM5.31324 4.95784C5.74792 4.87872 6.03617 4.4622 5.95705 4.02752C5.87793 3.59283 5.4614 3.30459 5.02672 3.38371C4.17045 3.53956 3.52248 3.9658 3.11031 4.60839C2.71614 5.22292 2.58574 5.95963 2.58574 6.67565C2.58574 7.11748 2.94391 7.47565 3.38574 7.47565C3.82757 7.47565 4.18574 7.11748 4.18574 6.67565C4.18574 6.13073 4.28858 5.73493 4.45708 5.47223C4.60758 5.23758 4.85173 5.04185 5.31324 4.95784Z" fill="#B3C7F1"/>
</svg>
