<svg width="401" height="305" viewBox="0 0 401 305" fill="none" xmlns="http://www.w3.org/2000/svg">
<rect x="50.2231" y="2.26587" width="300.554" height="300.585" rx="46" fill="url(#paint0_linear_483_2044)"/>
<path d="M117.771 288.183H280.566V255.031C280.566 243.986 271.612 235.031 260.566 235.031H137.771C126.725 235.031 117.771 243.986 117.771 255.031V288.183Z" fill="url(#paint1_linear_483_2044)"/>
<path d="M117.771 3.08618V301.516" stroke="url(#paint2_linear_483_2044)"/>
<path d="M280.771 3.08618V301.516" stroke="url(#paint3_linear_483_2044)"/>
<path d="M336.69 24.4365L336.69 280.613" stroke="url(#paint4_linear_483_2044)"/>
<path d="M50.54 235.031L114.18 235.031L335.737 235.032" stroke="url(#paint5_linear_483_2044)"/>
<path d="M71.4536 288.183L329.184 288.183" stroke="#1F2226"/>
<path d="M50.54 180.031L117.754 180.031M335.737 180.032L281.358 180.032" stroke="url(#paint6_linear_483_2044)"/>
<path d="M51.4932 128.031L117.953 128.031M336.69 128.032H280.816" stroke="url(#paint7_linear_483_2044)"/>
<path d="M118.616 2.76587H280.518V52.4453C280.518 63.2149 271.787 71.9453 261.018 71.9453H138.116C127.346 71.9453 118.616 63.2149 118.616 52.4453V2.76587Z" fill="url(#paint8_linear_483_2044)" stroke="url(#paint9_linear_483_2044)"/>
<path d="M51.54 72.0315L115.18 72.0315L336.737 72.0315" stroke="url(#paint10_linear_483_2044)"/>
<circle cx="200.215" cy="152.558" r="80.3023" fill="url(#paint11_linear_483_2044)" stroke="url(#paint12_linear_483_2044)"/>
<g filter="url(#filter0_di_483_2044)">
<circle cx="199.419" cy="153.52" r="51.3712" fill="#202127"/>
<circle cx="199.419" cy="153.52" r="50.8712" stroke="url(#paint13_linear_483_2044)"/>
</g>
<circle cx="200.216" cy="152.559" r="24.027" fill="#1B1C20" stroke="#27E6FF"/>
<rect x="111.741" y="190.691" width="49.2611" height="48.6839" rx="8" fill="#212227"/>
<rect x="112.241" y="191.191" width="48.2611" height="47.6839" rx="7.5" stroke="url(#paint14_linear_483_2044)" stroke-opacity="0.2"/>
<g filter="url(#filter1_i_483_2044)">
<rect x="104.741" y="197.691" width="49.2611" height="48.6839" rx="8" fill="#212227"/>
</g>
<rect x="105.241" y="198.191" width="48.2611" height="47.6839" rx="7.5" stroke="url(#paint15_linear_483_2044)" stroke-opacity="0.2"/>
<g filter="url(#filter2_i_483_2044)">
<rect x="98.7412" y="204.691" width="49.2611" height="48.6839" rx="8" fill="#212227"/>
</g>
<rect x="99.2412" y="205.191" width="48.2611" height="47.6839" rx="7.5" stroke="url(#paint16_linear_483_2044)"/>
<g filter="url(#filter3_i_483_2044)">
<rect x="91.7412" y="211.691" width="49.2611" height="48.6839" rx="8" fill="#212227"/>
</g>
<rect x="92.2412" y="212.191" width="48.2611" height="47.6839" rx="7.5" stroke="url(#paint17_linear_483_2044)"/>
<g clip-path="url(#clip0_483_2044)">
<path d="M106.372 233.533C106.372 237.676 109.729 241.033 113.872 241.033C118.014 241.033 121.372 237.676 121.372 233.533C121.372 229.39 118.014 226.033 113.872 226.033C109.729 226.033 106.372 229.39 106.372 233.533Z" fill="#27E6FF"/>
<path d="M118.872 232.176C122.372 232.176 125.229 235.033 125.229 238.533C125.229 242.033 122.372 244.89 118.872 244.89C115.372 244.89 112.514 242.033 112.514 238.533C112.514 235.033 115.372 232.176 118.872 232.176ZM118.872 231.033C114.729 231.033 111.372 234.39 111.372 238.533C111.372 242.676 114.729 246.033 118.872 246.033C123.014 246.033 126.372 242.676 126.372 238.533C126.372 234.39 123.014 231.033 118.872 231.033Z" fill="#27E6FF"/>
</g>
<rect x="238.741" y="68.6907" width="49.2611" height="48.6839" rx="8" fill="#212227"/>
<rect x="239.241" y="69.1907" width="48.2611" height="47.6839" rx="7.5" stroke="url(#paint18_linear_483_2044)" stroke-opacity="0.2"/>
<g filter="url(#filter4_i_483_2044)">
<rect x="245.741" y="61.6907" width="49.2611" height="48.6839" rx="8" fill="#212227"/>
</g>
<rect x="246.241" y="62.1907" width="48.2611" height="47.6839" rx="7.5" stroke="url(#paint19_linear_483_2044)" stroke-opacity="0.2"/>
<g filter="url(#filter5_i_483_2044)">
<rect x="251.741" y="54.6907" width="49.2611" height="48.6839" rx="8" fill="#212227"/>
</g>
<rect x="252.241" y="55.1907" width="48.2611" height="47.6839" rx="7.5" stroke="url(#paint20_linear_483_2044)"/>
<g filter="url(#filter6_i_483_2044)">
<rect x="258.741" y="47.6912" width="49.2611" height="48.6839" rx="8" fill="#212227"/>
</g>
<rect x="259.241" y="48.1912" width="48.2611" height="47.6839" rx="7.5" stroke="url(#paint21_linear_483_2044)"/>
<path d="M284.453 63.689L290.143 65.739C291.23 66.1365 292.119 67.3703 292.109 68.494V76.5515C292.109 77.3578 291.562 78.4128 290.888 78.899L285.198 82.9878C284.195 83.714 282.55 83.714 281.547 82.9878L275.856 78.9003C275.184 78.4215 274.636 77.3578 274.636 76.5515V68.4953C274.636 67.3703 275.525 66.1378 276.622 65.7403L282.312 63.6903C282.902 63.4815 283.864 63.4815 284.453 63.6903V63.689ZM283.32 77.6915L286.259 73.8265C286.658 73.2965 286.49 72.8715 285.882 72.8765L284.543 72.8865L284.533 69.2915C284.53 68.4465 284.139 68.2865 283.663 68.9165L283.32 69.374L280.384 73.239C279.977 73.769 280.141 74.194 280.75 74.189L282.094 74.179L282.085 77.774C282.082 78.619 282.481 78.779 282.969 78.149L283.32 77.6915Z" fill="#27E6FF"/>
<path d="M250.782 153.161H260.6C263.914 153.161 266.6 155.848 266.6 159.161V201.926C266.6 205.24 269.287 207.926 272.6 207.926H280.566" stroke="url(#paint22_linear_483_2044)"/>
<path d="M266.608 165.786V173.744" stroke="#27E6FF" stroke-width="2"/>
<path d="M117.782 99.1616H127.6C130.914 99.1616 133.6 101.848 133.6 105.162V147.927C133.6 151.24 136.287 153.927 139.6 153.927H148.007" stroke="url(#paint23_linear_483_2044)"/>
<path d="M133.608 131.787V139.745" stroke="#27E6FF" stroke-width="2"/>
<path d="M229.842 124.229L222.412 131.665L220.555 133.524M170.401 183.72L177.831 176.283L179.689 174.424" stroke="#27E6FF"/>
<path d="M208.446 153.519C209.071 152.448 209.607 151.377 209.964 150.394C210.768 147.894 210.589 145.841 209.429 144.68C208.268 143.519 206.214 143.341 203.714 144.144C202.732 144.502 201.661 144.948 200.589 145.573C199.518 144.948 198.446 144.412 197.464 144.144C194.875 143.341 192.821 143.519 191.661 144.68C190.5 145.841 190.321 147.894 191.125 150.394C191.482 151.377 191.929 152.448 192.554 153.519C191.929 154.591 191.393 155.662 191.125 156.644C190.321 159.144 190.5 161.198 191.661 162.359C192.375 163.073 193.357 163.43 194.518 163.43C195.321 163.43 196.304 163.252 197.375 162.894C198.357 162.537 199.429 162.091 200.5 161.466C201.571 162.091 202.643 162.627 203.625 162.984C204.696 163.341 205.589 163.519 206.482 163.519C207.732 163.519 208.714 163.162 209.339 162.448C210.5 161.287 210.679 159.234 209.875 156.734C209.518 155.662 209.071 154.591 208.446 153.519ZM204.161 145.841C204.964 145.573 205.768 145.394 206.393 145.394C207.107 145.394 207.643 145.573 208 145.93C208.625 146.555 208.714 148.073 208.089 149.859C207.911 150.484 207.554 151.198 207.196 151.912C206.482 150.93 205.679 150.037 204.786 149.144C203.893 148.252 203 147.448 202.018 146.734C202.821 146.377 203.536 146.019 204.161 145.841ZM206.304 153.519C205.589 154.591 204.696 155.662 203.714 156.644C202.732 157.627 201.661 158.519 200.589 159.234C199.518 158.519 198.446 157.627 197.464 156.644C196.482 155.662 195.589 154.591 194.875 153.519C195.589 152.448 196.482 151.377 197.464 150.394C198.446 149.412 199.518 148.519 200.589 147.805C201.661 148.519 202.732 149.412 203.714 150.394C204.696 151.377 205.5 152.448 206.304 153.519ZM192.821 149.859C192.196 148.073 192.286 146.644 192.911 145.93C193.268 145.573 193.804 145.394 194.518 145.394C195.143 145.394 195.946 145.573 196.75 145.841C197.375 146.019 198.089 146.377 198.804 146.734C197.911 147.448 196.929 148.252 196.125 149.144C195.232 150.037 194.429 150.93 193.714 151.912C193.357 151.198 193 150.484 192.821 149.859ZM196.839 161.198C195.054 161.823 193.625 161.734 192.911 161.109C192.286 160.484 192.196 158.966 192.821 157.18C193 156.555 193.357 155.841 193.714 155.127C194.429 156.109 195.232 157.002 196.125 157.894C197.018 158.787 197.911 159.591 198.893 160.305C198.179 160.662 197.464 161.019 196.839 161.198ZM208.089 161.109C207.464 161.734 205.946 161.823 204.161 161.198C203.536 161.019 202.821 160.662 202.107 160.305C203.089 159.591 203.982 158.787 204.875 157.894C205.768 157.002 206.571 156.109 207.286 155.127C207.643 155.841 208 156.466 208.179 157.18C208.804 158.966 208.714 160.394 208.089 161.109Z" fill="#27E6FF"/>
<path d="M198.714 153.52C198.714 153.993 198.902 154.447 199.237 154.782C199.572 155.117 200.026 155.305 200.5 155.305C200.974 155.305 201.428 155.117 201.763 154.782C202.098 154.447 202.286 153.993 202.286 153.52C202.286 153.285 202.24 153.053 202.15 152.836C202.06 152.62 201.929 152.423 201.763 152.257C201.597 152.091 201.4 151.96 201.183 151.87C200.967 151.78 200.735 151.734 200.5 151.734C200.266 151.734 200.033 151.78 199.817 151.87C199.6 151.96 199.403 152.091 199.237 152.257C199.072 152.423 198.94 152.62 198.85 152.836C198.761 153.053 198.714 153.285 198.714 153.52Z" fill="#27E6FF"/>
<defs>
<filter id="filter0_di_483_2044" x="141.948" y="102.149" width="114.942" height="121.842" filterUnits="userSpaceOnUse" color-interpolation-filters="sRGB">
<feFlood flood-opacity="0" result="BackgroundImageFix"/>
<feColorMatrix in="SourceAlpha" type="matrix" values="0 0 0 0 0 0 0 0 0 0 0 0 0 0 0 0 0 0 127 0" result="hardAlpha"/>
<feOffset dy="13"/>
<feGaussianBlur stdDeviation="3.05"/>
<feComposite in2="hardAlpha" operator="out"/>
<feColorMatrix type="matrix" values="0 0 0 0 0 0 0 0 0 0 0 0 0 0 0 0 0 0 0.25 0"/>
<feBlend mode="normal" in2="BackgroundImageFix" result="effect1_dropShadow_483_2044"/>
<feBlend mode="normal" in="SourceGraphic" in2="effect1_dropShadow_483_2044" result="shape"/>
<feColorMatrix in="SourceAlpha" type="matrix" values="0 0 0 0 0 0 0 0 0 0 0 0 0 0 0 0 0 0 127 0" result="hardAlpha"/>
<feOffset/>
<feGaussianBlur stdDeviation="3.05"/>
<feComposite in2="hardAlpha" operator="arithmetic" k2="-1" k3="1"/>
<feColorMatrix type="matrix" values="0 0 0 0 0.643741 0 0 0 0 0.64464 0 0 0 0 0.644759 0 0 0 0.45 0"/>
<feBlend mode="normal" in2="shape" result="effect2_innerShadow_483_2044"/>
</filter>
<filter id="filter1_i_483_2044" x="104.741" y="197.691" width="49.2612" height="52.6838" filterUnits="userSpaceOnUse" color-interpolation-filters="sRGB">
<feFlood flood-opacity="0" result="BackgroundImageFix"/>
<feBlend mode="normal" in="SourceGraphic" in2="BackgroundImageFix" result="shape"/>
<feColorMatrix in="SourceAlpha" type="matrix" values="0 0 0 0 0 0 0 0 0 0 0 0 0 0 0 0 0 0 127 0" result="hardAlpha"/>
<feOffset dy="4"/>
<feGaussianBlur stdDeviation="17.95"/>
<feComposite in2="hardAlpha" operator="arithmetic" k2="-1" k3="1"/>
<feColorMatrix type="matrix" values="0 0 0 0 0.129412 0 0 0 0 0.223529 0 0 0 0 0.25098 0 0 0 0.56 0"/>
<feBlend mode="normal" in2="shape" result="effect1_innerShadow_483_2044"/>
</filter>
<filter id="filter2_i_483_2044" x="98.7412" y="204.691" width="49.2612" height="52.6838" filterUnits="userSpaceOnUse" color-interpolation-filters="sRGB">
<feFlood flood-opacity="0" result="BackgroundImageFix"/>
<feBlend mode="normal" in="SourceGraphic" in2="BackgroundImageFix" result="shape"/>
<feColorMatrix in="SourceAlpha" type="matrix" values="0 0 0 0 0 0 0 0 0 0 0 0 0 0 0 0 0 0 127 0" result="hardAlpha"/>
<feOffset dy="4"/>
<feGaussianBlur stdDeviation="17.95"/>
<feComposite in2="hardAlpha" operator="arithmetic" k2="-1" k3="1"/>
<feColorMatrix type="matrix" values="0 0 0 0 0.118894 0 0 0 0 0.765049 0 0 0 0 0.850391 0 0 0 0.28 0"/>
<feBlend mode="normal" in2="shape" result="effect1_innerShadow_483_2044"/>
</filter>
<filter id="filter3_i_483_2044" x="91.7412" y="211.691" width="49.2612" height="52.6838" filterUnits="userSpaceOnUse" color-interpolation-filters="sRGB">
<feFlood flood-opacity="0" result="BackgroundImageFix"/>
<feBlend mode="normal" in="SourceGraphic" in2="BackgroundImageFix" result="shape"/>
<feColorMatrix in="SourceAlpha" type="matrix" values="0 0 0 0 0 0 0 0 0 0 0 0 0 0 0 0 0 0 127 0" result="hardAlpha"/>
<feOffset dy="4"/>
<feGaussianBlur stdDeviation="26.7"/>
<feComposite in2="hardAlpha" operator="arithmetic" k2="-1" k3="1"/>
<feColorMatrix type="matrix" values="0 0 0 0 0.151742 0 0 0 0 0.901037 0 0 0 0 1 0 0 0 0.52 0"/>
<feBlend mode="normal" in2="shape" result="effect1_innerShadow_483_2044"/>
</filter>
<filter id="filter4_i_483_2044" x="245.741" y="61.6907" width="49.2612" height="52.6838" filterUnits="userSpaceOnUse" color-interpolation-filters="sRGB">
<feFlood flood-opacity="0" result="BackgroundImageFix"/>
<feBlend mode="normal" in="SourceGraphic" in2="BackgroundImageFix" result="shape"/>
<feColorMatrix in="SourceAlpha" type="matrix" values="0 0 0 0 0 0 0 0 0 0 0 0 0 0 0 0 0 0 127 0" result="hardAlpha"/>
<feOffset dy="4"/>
<feGaussianBlur stdDeviation="17.95"/>
<feComposite in2="hardAlpha" operator="arithmetic" k2="-1" k3="1"/>
<feColorMatrix type="matrix" values="0 0 0 0 0.129412 0 0 0 0 0.223529 0 0 0 0 0.25098 0 0 0 0.56 0"/>
<feBlend mode="normal" in2="shape" result="effect1_innerShadow_483_2044"/>
</filter>
<filter id="filter5_i_483_2044" x="251.741" y="54.6907" width="49.2612" height="52.6838" filterUnits="userSpaceOnUse" color-interpolation-filters="sRGB">
<feFlood flood-opacity="0" result="BackgroundImageFix"/>
<feBlend mode="normal" in="SourceGraphic" in2="BackgroundImageFix" result="shape"/>
<feColorMatrix in="SourceAlpha" type="matrix" values="0 0 0 0 0 0 0 0 0 0 0 0 0 0 0 0 0 0 127 0" result="hardAlpha"/>
<feOffset dy="4"/>
<feGaussianBlur stdDeviation="17.95"/>
<feComposite in2="hardAlpha" operator="arithmetic" k2="-1" k3="1"/>
<feColorMatrix type="matrix" values="0 0 0 0 0.118894 0 0 0 0 0.765049 0 0 0 0 0.850391 0 0 0 0.28 0"/>
<feBlend mode="normal" in2="shape" result="effect1_innerShadow_483_2044"/>
</filter>
<filter id="filter6_i_483_2044" x="258.741" y="47.6912" width="49.2612" height="52.6838" filterUnits="userSpaceOnUse" color-interpolation-filters="sRGB">
<feFlood flood-opacity="0" result="BackgroundImageFix"/>
<feBlend mode="normal" in="SourceGraphic" in2="BackgroundImageFix" result="shape"/>
<feColorMatrix in="SourceAlpha" type="matrix" values="0 0 0 0 0 0 0 0 0 0 0 0 0 0 0 0 0 0 127 0" result="hardAlpha"/>
<feOffset dy="4"/>
<feGaussianBlur stdDeviation="26.7"/>
<feComposite in2="hardAlpha" operator="arithmetic" k2="-1" k3="1"/>
<feColorMatrix type="matrix" values="0 0 0 0 0.151742 0 0 0 0 0.901037 0 0 0 0 1 0 0 0 0.52 0"/>
<feBlend mode="normal" in2="shape" result="effect1_innerShadow_483_2044"/>
</filter>
<linearGradient id="paint0_linear_483_2044" x1="200.5" y1="2.26587" x2="200.5" y2="302.851" gradientUnits="userSpaceOnUse">
<stop stop-color="#1D1D25"/>
<stop offset="0.540442" stop-color="#121214"/>
<stop offset="0.932426" stop-color="#111113"/>
</linearGradient>
<linearGradient id="paint1_linear_483_2044" x1="199.168" y1="288.183" x2="199.168" y2="235.031" gradientUnits="userSpaceOnUse">
<stop stop-color="#0C0C0E"/>
<stop offset="0.848546" stop-color="#16161A" stop-opacity="0.76"/>
</linearGradient>
<linearGradient id="paint2_linear_483_2044" x1="118.271" y1="3.08618" x2="118.271" y2="301.516" gradientUnits="userSpaceOnUse">
<stop offset="0.168303" stop-color="white" stop-opacity="0"/>
<stop offset="0.29204" stop-color="white" stop-opacity="0.2"/>
<stop offset="0.604236" stop-color="white" stop-opacity="0.2"/>
<stop offset="0.809828" stop-color="white" stop-opacity="0"/>
</linearGradient>
<linearGradient id="paint3_linear_483_2044" x1="281.271" y1="3.08618" x2="281.271" y2="301.516" gradientUnits="userSpaceOnUse">
<stop offset="0.168303" stop-color="white" stop-opacity="0"/>
<stop offset="0.29204" stop-color="white" stop-opacity="0.2"/>
<stop offset="0.604236" stop-color="white" stop-opacity="0.2"/>
<stop offset="0.809828" stop-color="white" stop-opacity="0"/>
</linearGradient>
<linearGradient id="paint4_linear_483_2044" x1="337.19" y1="24.4365" x2="337.19" y2="280.613" gradientUnits="userSpaceOnUse">
<stop offset="0.00143623" stop-color="#1F2226" stop-opacity="0"/>
<stop offset="0.62268" stop-color="#1F2226"/>
<stop offset="0.798481" stop-color="#1F2226" stop-opacity="0"/>
</linearGradient>
<linearGradient id="paint5_linear_483_2044" x1="50.54" y1="235.032" x2="335.737" y2="235.032" gradientUnits="userSpaceOnUse">
<stop offset="0.01" stop-color="white" stop-opacity="0"/>
<stop offset="0.575" stop-color="white" stop-opacity="0.2"/>
<stop offset="0.985" stop-color="white" stop-opacity="0"/>
</linearGradient>
<linearGradient id="paint6_linear_483_2044" x1="50.54" y1="180.531" x2="335.737" y2="180.532" gradientUnits="userSpaceOnUse">
<stop offset="0.01" stop-color="white" stop-opacity="0"/>
<stop offset="0.575" stop-color="white" stop-opacity="0.3"/>
<stop offset="0.985" stop-color="white" stop-opacity="0"/>
</linearGradient>
<linearGradient id="paint7_linear_483_2044" x1="51.4932" y1="128.531" x2="336.69" y2="128.532" gradientUnits="userSpaceOnUse">
<stop offset="0.01" stop-color="white" stop-opacity="0"/>
<stop offset="0.575" stop-color="white" stop-opacity="0.3"/>
<stop offset="0.985" stop-color="white" stop-opacity="0"/>
</linearGradient>
<linearGradient id="paint8_linear_483_2044" x1="199.567" y1="3.30195" x2="199.567" y2="72.4453" gradientUnits="userSpaceOnUse">
<stop stop-color="#1C1C23" stop-opacity="0"/>
<stop offset="1" stop-color="#24242F"/>
</linearGradient>
<linearGradient id="paint9_linear_483_2044" x1="199.567" y1="2.26587" x2="199.567" y2="72.4453" gradientUnits="userSpaceOnUse">
<stop offset="0.314604" stop-color="white" stop-opacity="0"/>
<stop offset="1" stop-color="white" stop-opacity="0.17"/>
</linearGradient>
<linearGradient id="paint10_linear_483_2044" x1="51.54" y1="72.0315" x2="336.737" y2="72.0315" gradientUnits="userSpaceOnUse">
<stop offset="0.01" stop-color="white" stop-opacity="0"/>
<stop offset="0.575" stop-color="white" stop-opacity="0.2"/>
<stop offset="0.985" stop-color="white" stop-opacity="0"/>
</linearGradient>
<linearGradient id="paint11_linear_483_2044" x1="200.215" y1="71.7556" x2="200.215" y2="233.36" gradientUnits="userSpaceOnUse">
<stop offset="0.0406103" stop-color="#34343C"/>
<stop offset="0.369203" stop-color="#202025" stop-opacity="0"/>
<stop offset="0.624492" stop-color="#202025" stop-opacity="0"/>
<stop offset="1" stop-color="#313139"/>
</linearGradient>
<linearGradient id="paint12_linear_483_2044" x1="200.215" y1="71.7556" x2="200.215" y2="233.36" gradientUnits="userSpaceOnUse">
<stop stop-color="#27D4FF"/>
<stop offset="0.0543697" stop-color="#27D4FF" stop-opacity="0.31"/>
<stop offset="0.362283" stop-color="#27D4FF" stop-opacity="0"/>
<stop offset="0.653191" stop-color="#27D4FF" stop-opacity="0.023347"/>
<stop offset="0.914707" stop-color="#27D4FF" stop-opacity="0.37"/>
<stop offset="1" stop-color="#27E6FF" stop-opacity="0.71"/>
</linearGradient>
<linearGradient id="paint13_linear_483_2044" x1="232.064" y1="114.721" x2="191.265" y2="201.746" gradientUnits="userSpaceOnUse">
<stop stop-color="#27D4FF" stop-opacity="0.79"/>
<stop offset="0.520103" stop-color="#27D4FF" stop-opacity="0"/>
<stop offset="0.993171" stop-color="#27D4FF" stop-opacity="0.49"/>
</linearGradient>
<linearGradient id="paint14_linear_483_2044" x1="153.42" y1="193.491" x2="141.721" y2="215.033" gradientUnits="userSpaceOnUse">
<stop stop-color="white"/>
<stop offset="1" stop-color="white" stop-opacity="0"/>
</linearGradient>
<linearGradient id="paint15_linear_483_2044" x1="146.42" y1="200.491" x2="134.721" y2="222.033" gradientUnits="userSpaceOnUse">
<stop stop-color="#ABF5FF"/>
<stop offset="0.44" stop-color="white" stop-opacity="0"/>
</linearGradient>
<linearGradient id="paint16_linear_483_2044" x1="140.42" y1="207.491" x2="128.721" y2="229.033" gradientUnits="userSpaceOnUse">
<stop stop-color="#03A4BA" stop-opacity="0.59"/>
<stop offset="1" stop-color="#03A4BA" stop-opacity="0"/>
</linearGradient>
<linearGradient id="paint17_linear_483_2044" x1="133.42" y1="214.492" x2="121.721" y2="236.033" gradientUnits="userSpaceOnUse">
<stop stop-color="#00E1FF" stop-opacity="0.94"/>
<stop offset="1" stop-color="#00E1FF" stop-opacity="0"/>
</linearGradient>
<linearGradient id="paint18_linear_483_2044" x1="280.42" y1="71.4911" x2="268.721" y2="93.0326" gradientUnits="userSpaceOnUse">
<stop stop-color="white"/>
<stop offset="1" stop-color="white" stop-opacity="0"/>
</linearGradient>
<linearGradient id="paint19_linear_483_2044" x1="287.42" y1="64.4911" x2="275.721" y2="86.0326" gradientUnits="userSpaceOnUse">
<stop stop-color="#ABF5FF"/>
<stop offset="0.44" stop-color="white" stop-opacity="0"/>
</linearGradient>
<linearGradient id="paint20_linear_483_2044" x1="293.42" y1="57.4911" x2="281.721" y2="79.0326" gradientUnits="userSpaceOnUse">
<stop stop-color="#00E1FF" stop-opacity="0.59"/>
<stop offset="1" stop-color="#00E1FF" stop-opacity="0"/>
</linearGradient>
<linearGradient id="paint21_linear_483_2044" x1="300.42" y1="50.4916" x2="288.721" y2="72.0331" gradientUnits="userSpaceOnUse">
<stop stop-color="#00E1FF" stop-opacity="0.94"/>
<stop offset="1" stop-color="#00E1FF" stop-opacity="0"/>
</linearGradient>
<linearGradient id="paint22_linear_483_2044" x1="265.674" y1="153.161" x2="265.674" y2="207.926" gradientUnits="userSpaceOnUse">
<stop offset="0.350437" stop-color="#27E6FF"/>
<stop offset="0.836948" stop-color="#27E6FF" stop-opacity="0.891076"/>
<stop offset="1" stop-color="#2A2A2C"/>
</linearGradient>
<linearGradient id="paint23_linear_483_2044" x1="132.674" y1="99.1616" x2="132.674" y2="153.927" gradientUnits="userSpaceOnUse">
<stop stop-color="#414143"/>
<stop offset="0.286219" stop-color="#27E6FF"/>
<stop offset="0.836948" stop-color="#27E6FF" stop-opacity="0.891076"/>
</linearGradient>
<clipPath id="clip0_483_2044">
<rect width="20" height="20" fill="white" transform="translate(106.372 226.033)"/>
</clipPath>
</defs>
</svg>
