<svg width="401" height="305" viewBox="0 0 401 305" fill="none" xmlns="http://www.w3.org/2000/svg">
<g clip-path="url(#clip0_483_1997)">
<rect x="137.745" y="66.7261" width="126.325" height="128.56" rx="15.5" fill="#1D1D21" stroke="url(#paint0_linear_483_1997)"/>
<rect x="0.5" y="-0.5" width="134.851" height="49.4312" rx="15.5" transform="matrix(1 0 0 -1 132.721 247.952)" fill="black" stroke="#17171B"/>
<rect x="135.407" y="-6.77197" width="128.663" height="69.7842" rx="15.5" fill="url(#paint1_linear_483_1997)" stroke="url(#paint2_linear_483_1997)"/>
<rect x="51.1353" y="-7.24316" width="81.0859" height="70.2554" rx="15.5" fill="url(#paint3_linear_483_1997)" stroke="url(#paint4_linear_483_1997)"/>
<rect x="-0.5" y="0.5" width="81.0859" height="70.2554" rx="15.5" transform="matrix(-1 0 0 1 347.842 -7.74316)" fill="url(#paint5_linear_483_1997)" stroke="url(#paint6_linear_483_1997)"/>
<rect x="46.0635" y="66.7261" width="86.1577" height="130.427" rx="15.5" fill="url(#paint7_linear_483_1997)" stroke="url(#paint8_linear_483_1997)"/>
<rect x="0.5" y="-0.5" width="128.478" height="42.4668" rx="12.5" transform="matrix(1 0 0 -1 136.208 244.8)" fill="url(#paint9_linear_483_1997)" stroke="url(#paint10_linear_483_1997)"/>
<rect x="0.5" y="-0.5" width="125.322" height="57.896" rx="11.5" transform="matrix(1 0 0 -1 137.245 310.429)" fill="url(#paint11_linear_483_1997)" stroke="url(#paint12_linear_483_1997)"/>
<rect x="147.085" y="79.1279" width="107.22" height="29.855" rx="7" fill="#303037"/>
<rect x="147.585" y="79.6279" width="106.22" height="28.855" rx="6.5" stroke="url(#paint13_linear_483_1997)" stroke-opacity="0.2"/>
<rect x="161.042" y="89.707" width="25.5625" height="3.71094" rx="1" fill="#8E8E90"/>
<rect x="161.042" y="94.9102" width="47.0645" height="3.71094" rx="1" fill="white" fill-opacity="0.22"/>
<rect x="147.085" y="154.128" width="107.22" height="29.855" rx="7" fill="#19191D"/>
<rect x="147.085" y="154.128" width="107.22" height="29.855" rx="7" fill="#24242A"/>
<rect x="147.585" y="154.628" width="106.22" height="28.855" rx="6.5" stroke="url(#paint14_linear_483_1997)" stroke-opacity="0.2"/>
<rect x="161.042" y="164.707" width="25.5625" height="3.71094" rx="1" fill="#8E8E90"/>
<rect x="161.042" y="169.91" width="47.0645" height="3.71094" rx="1" fill="white" fill-opacity="0.22"/>
<rect x="-0.5" y="0.5" width="86.1577" height="130.427" rx="15.5" transform="matrix(-1 0 0 1 354.721 66.2261)" fill="url(#paint15_linear_483_1997)" stroke="url(#paint16_linear_483_1997)"/>
<g filter="url(#filter0_d_483_1997)">
<rect x="147.085" y="116.012" width="107.22" height="33.6768" rx="7" fill="#2A2A30"/>
<rect x="147.585" y="116.512" width="106.22" height="32.6768" rx="6.5" stroke="url(#paint17_linear_483_1997)" stroke-opacity="0.35"/>
<rect x="150.858" y="120.094" width="99.4512" height="25.751" rx="3.5" stroke="#27E6FF"/>
<rect x="161.042" y="133.682" width="47.0645" height="4.18598" rx="1" fill="#27E6FF" fill-opacity="0.55"/>
<rect x="161.042" y="128.307" width="25.5625" height="4.18598" rx="1" fill="#27E6FF"/>
<g filter="url(#filter1_d_483_1997)">
<path d="M226.662 133.408L229.537 136.395C229.925 136.798 230.568 136.804 230.964 136.409L238.319 129.053" stroke="url(#paint18_linear_483_1997)" stroke-width="3" stroke-linecap="round"/>
</g>
</g>
<g opacity="0.45">
<path d="M42.8413 206.181H102.426C103.984 206.181 105.498 206.701 106.727 207.658L112.437 212.105C113.666 213.063 115.18 213.583 116.738 213.583H135.717" stroke="url(#paint19_linear_483_1997)" stroke-linecap="round"/>
<path d="M43.332 242.887H102.713C104.395 242.887 106.021 242.281 107.293 241.18L112.852 236.369C114.124 235.268 115.751 234.662 117.433 234.662H136.208" stroke="url(#paint20_linear_483_1997)" stroke-linecap="round"/>
<path d="M50.1465 223.686H69.6641" stroke="white" stroke-linecap="round"/>
<path d="M89.3072 224.213H132.206M44.9854 146.345H63.8411C67.1807 146.345 70.0551 148.704 70.7066 151.98L83.7194 217.405C84.0453 219.043 84.9464 220.511 86.2601 221.543L89.9171 224.417L87.5997 225.493C85.4893 226.472 84.0037 228.437 83.6356 230.734L73.2456 295.576" stroke="url(#paint21_linear_483_1997)" stroke-opacity="0.68" stroke-linecap="round"/>
</g>
<g opacity="0.45">
<path d="M359.208 207.181H299.623C298.065 207.181 296.551 207.701 295.322 208.658L289.612 213.105C288.383 214.063 286.869 214.583 285.311 214.583H266.332" stroke="url(#paint22_linear_483_1997)" stroke-linecap="round"/>
<path d="M358.717 243.887H299.336C297.654 243.887 296.028 243.281 294.755 242.18L289.197 237.369C287.924 236.268 286.298 235.662 284.616 235.662H265.841" stroke="url(#paint23_linear_483_1997)" stroke-linecap="round"/>
<path d="M351.902 224.686H332.385" stroke="white" stroke-linecap="round"/>
<path d="M312.585 225.213H269.687M356.907 147.345H338.051C334.712 147.345 331.837 149.704 331.186 152.98L318.173 218.405C317.847 220.043 316.946 221.511 315.632 222.543L311.975 225.417L314.293 226.493C316.403 227.472 317.889 229.437 318.257 231.734L328.647 296.576" stroke="url(#paint24_linear_483_1997)" stroke-opacity="0.68" stroke-linecap="round"/>
</g>
<path d="M200.098 216.492L201.451 218.612C202.39 220.083 203.639 221.332 205.11 222.271L207.23 223.624L205.11 224.978C203.639 225.917 202.39 227.165 201.451 228.636L200.098 230.756L198.744 228.636C197.806 227.165 196.557 225.917 195.086 224.978L192.966 223.624L195.086 222.271C196.557 221.332 197.806 220.083 198.744 218.612L200.098 216.492Z" fill="#27E6FF"/>
<path d="M176.414 216.716L177.767 218.836C178.706 220.307 179.955 221.556 181.426 222.495L183.546 223.848L181.426 225.201C179.955 226.14 178.706 227.389 177.767 228.86L176.414 230.98L175.06 228.86C174.121 227.389 172.873 226.14 171.402 225.201L169.282 223.848L171.402 222.495C172.873 221.556 174.121 220.307 175.06 218.836L176.414 216.716Z" fill="#27E6FF"/>
<path d="M225.635 216.492L226.988 218.612C227.927 220.083 229.176 221.332 230.647 222.271L232.767 223.624L230.647 224.978C229.176 225.917 227.927 227.165 226.988 228.636L225.635 230.756L224.282 228.636C223.343 227.165 222.094 225.917 220.623 224.978L218.503 223.624L220.623 222.271C222.094 221.332 223.343 220.083 224.282 218.612L225.635 216.492Z" fill="#27E6FF"/>
</g>
<defs>
<filter id="filter0_d_483_1997" x="133.585" y="106.512" width="134.22" height="60.6768" filterUnits="userSpaceOnUse" color-interpolation-filters="sRGB">
<feFlood flood-opacity="0" result="BackgroundImageFix"/>
<feColorMatrix in="SourceAlpha" type="matrix" values="0 0 0 0 0 0 0 0 0 0 0 0 0 0 0 0 0 0 127 0" result="hardAlpha"/>
<feOffset dy="4"/>
<feGaussianBlur stdDeviation="6.75"/>
<feComposite in2="hardAlpha" operator="out"/>
<feColorMatrix type="matrix" values="0 0 0 0 0 0 0 0 0 0 0 0 0 0 0 0 0 0 0.83 0"/>
<feBlend mode="normal" in2="BackgroundImageFix" result="effect1_dropShadow_483_1997"/>
<feBlend mode="normal" in="SourceGraphic" in2="effect1_dropShadow_483_1997" result="shape"/>
</filter>
<filter id="filter1_d_483_1997" x="223.162" y="125.553" width="18.6567" height="14.6479" filterUnits="userSpaceOnUse" color-interpolation-filters="sRGB">
<feFlood flood-opacity="0" result="BackgroundImageFix"/>
<feColorMatrix in="SourceAlpha" type="matrix" values="0 0 0 0 0 0 0 0 0 0 0 0 0 0 0 0 0 0 127 0" result="hardAlpha"/>
<feOffset/>
<feGaussianBlur stdDeviation="1"/>
<feComposite in2="hardAlpha" operator="out"/>
<feColorMatrix type="matrix" values="0 0 0 0 0.248161 0 0 0 0 0.536366 0 0 0 0 1 0 0 0 1 0"/>
<feBlend mode="normal" in2="BackgroundImageFix" result="effect1_dropShadow_483_1997"/>
<feBlend mode="normal" in="SourceGraphic" in2="effect1_dropShadow_483_1997" result="shape"/>
</filter>
<linearGradient id="paint0_linear_483_1997" x1="200.907" y1="66.2261" x2="200.907" y2="195.786" gradientUnits="userSpaceOnUse">
<stop stop-color="#3C3C3E"/>
<stop offset="1" stop-color="#27E6FF"/>
</linearGradient>
<linearGradient id="paint1_linear_483_1997" x1="199.739" y1="-7.27197" x2="199.739" y2="63.5122" gradientUnits="userSpaceOnUse">
<stop offset="0.361079" stop-color="#1B1B1F" stop-opacity="0"/>
<stop offset="0.835648" stop-color="#1B1B1F"/>
</linearGradient>
<linearGradient id="paint2_linear_483_1997" x1="199.739" y1="-7.27197" x2="199.739" y2="63.5122" gradientUnits="userSpaceOnUse">
<stop offset="0.352959" stop-color="white" stop-opacity="0"/>
<stop offset="1" stop-color="white" stop-opacity="0.1"/>
</linearGradient>
<linearGradient id="paint3_linear_483_1997" x1="127.059" y1="60.0424" x2="99.7153" y2="27.8845" gradientUnits="userSpaceOnUse">
<stop offset="0.0747849" stop-color="#1B1B1F"/>
<stop offset="1" stop-color="#1B1B1F" stop-opacity="0"/>
</linearGradient>
<linearGradient id="paint4_linear_483_1997" x1="91.6782" y1="-7.74317" x2="125.698" y2="68.5488" gradientUnits="userSpaceOnUse">
<stop offset="0.395074" stop-color="white" stop-opacity="0"/>
<stop offset="1" stop-color="white" stop-opacity="0.1"/>
</linearGradient>
<linearGradient id="paint5_linear_483_1997" x1="76.424" y1="67.7856" x2="5.31085" y2="10.6229" gradientUnits="userSpaceOnUse">
<stop stop-color="#1B1B1F"/>
<stop offset="1" stop-color="#1B1B1F" stop-opacity="0"/>
</linearGradient>
<linearGradient id="paint6_linear_483_1997" x1="41.043" y1="-1.16798e-06" x2="75.063" y2="76.292" gradientUnits="userSpaceOnUse">
<stop offset="0.395074" stop-color="white" stop-opacity="0"/>
<stop offset="1" stop-color="white" stop-opacity="0.1"/>
</linearGradient>
<linearGradient id="paint7_linear_483_1997" x1="132.721" y1="131.94" x2="45.5635" y2="131.94" gradientUnits="userSpaceOnUse">
<stop stop-color="#1B1B1F"/>
<stop offset="1" stop-color="#1B1B1F" stop-opacity="0"/>
</linearGradient>
<linearGradient id="paint8_linear_483_1997" x1="132.721" y1="131.94" x2="45.5635" y2="131.94" gradientUnits="userSpaceOnUse">
<stop stop-color="white" stop-opacity="0.1"/>
<stop offset="1" stop-color="white" stop-opacity="0"/>
</linearGradient>
<linearGradient id="paint9_linear_483_1997" x1="64.7388" y1="43.4668" x2="64.7388" y2="0" gradientUnits="userSpaceOnUse">
<stop offset="0.374065" stop-color="#2F2F36"/>
<stop offset="1" stop-color="#151517"/>
</linearGradient>
<linearGradient id="paint10_linear_483_1997" x1="64.7388" y1="43.4668" x2="64.7388" y2="0" gradientUnits="userSpaceOnUse">
<stop stop-color="#27E6FF"/>
<stop offset="1" stop-color="#27E6FF" stop-opacity="0"/>
</linearGradient>
<linearGradient id="paint11_linear_483_1997" x1="63.1609" y1="58.896" x2="63.1609" y2="0" gradientUnits="userSpaceOnUse">
<stop stop-color="#1B1B1F"/>
<stop offset="1" stop-color="#1B1B1F" stop-opacity="0"/>
</linearGradient>
<linearGradient id="paint12_linear_483_1997" x1="63.1609" y1="58.896" x2="63.1609" y2="0" gradientUnits="userSpaceOnUse">
<stop stop-color="white" stop-opacity="0.24"/>
<stop offset="0.659045" stop-color="white" stop-opacity="0"/>
</linearGradient>
<linearGradient id="paint13_linear_483_1997" x1="200.695" y1="79.1279" x2="200.695" y2="108.983" gradientUnits="userSpaceOnUse">
<stop stop-color="white"/>
<stop offset="1" stop-color="white" stop-opacity="0"/>
</linearGradient>
<linearGradient id="paint14_linear_483_1997" x1="200.695" y1="154.128" x2="200.695" y2="183.983" gradientUnits="userSpaceOnUse">
<stop stop-color="white"/>
<stop offset="1" stop-color="white" stop-opacity="0"/>
</linearGradient>
<linearGradient id="paint15_linear_483_1997" x1="87.1577" y1="65.7136" x2="0" y2="65.7136" gradientUnits="userSpaceOnUse">
<stop stop-color="#1B1B1F"/>
<stop offset="1" stop-color="#1B1B1F" stop-opacity="0"/>
</linearGradient>
<linearGradient id="paint16_linear_483_1997" x1="87.1577" y1="65.7136" x2="0" y2="65.7136" gradientUnits="userSpaceOnUse">
<stop stop-color="white" stop-opacity="0.1"/>
<stop offset="1" stop-color="white" stop-opacity="0"/>
</linearGradient>
<linearGradient id="paint17_linear_483_1997" x1="147.085" y1="132.851" x2="254.305" y2="132.851" gradientUnits="userSpaceOnUse">
<stop stop-color="white" stop-opacity="0.1"/>
<stop offset="0.434322" stop-color="white"/>
<stop offset="1" stop-color="white" stop-opacity="0.1"/>
</linearGradient>
<linearGradient id="paint18_linear_483_1997" x1="238.319" y1="126.771" x2="228.527" y2="139.381" gradientUnits="userSpaceOnUse">
<stop stop-color="#27E6FF"/>
<stop offset="1" stop-color="#8DF2FF"/>
</linearGradient>
<linearGradient id="paint19_linear_483_1997" x1="42.8413" y1="209.882" x2="135.717" y2="209.882" gradientUnits="userSpaceOnUse">
<stop stop-color="white" stop-opacity="0"/>
<stop offset="1" stop-color="white"/>
</linearGradient>
<linearGradient id="paint20_linear_483_1997" x1="43.332" y1="238.774" x2="136.208" y2="238.774" gradientUnits="userSpaceOnUse">
<stop stop-color="white" stop-opacity="0"/>
<stop offset="1" stop-color="white"/>
</linearGradient>
<linearGradient id="paint21_linear_483_1997" x1="128.176" y1="220.96" x2="44.9854" y2="220.96" gradientUnits="userSpaceOnUse">
<stop stop-color="white"/>
<stop offset="0.228486" stop-color="white" stop-opacity="0"/>
<stop offset="0.49197" stop-color="white" stop-opacity="0.35"/>
<stop offset="1" stop-color="white" stop-opacity="0"/>
</linearGradient>
<linearGradient id="paint22_linear_483_1997" x1="359.208" y1="210.882" x2="266.332" y2="210.882" gradientUnits="userSpaceOnUse">
<stop stop-color="white" stop-opacity="0"/>
<stop offset="1" stop-color="white"/>
</linearGradient>
<linearGradient id="paint23_linear_483_1997" x1="358.717" y1="239.774" x2="265.841" y2="239.774" gradientUnits="userSpaceOnUse">
<stop stop-color="white" stop-opacity="0"/>
<stop offset="1" stop-color="white"/>
</linearGradient>
<linearGradient id="paint24_linear_483_1997" x1="273.717" y1="221.96" x2="356.907" y2="221.96" gradientUnits="userSpaceOnUse">
<stop stop-color="white"/>
<stop offset="0.228486" stop-color="white" stop-opacity="0"/>
<stop offset="0.49197" stop-color="white" stop-opacity="0.35"/>
<stop offset="1" stop-color="white" stop-opacity="0"/>
</linearGradient>
<clipPath id="clip0_483_1997">
<rect width="400" height="304" fill="white" transform="translate(0.635254 0.558594)"/>
</clipPath>
</defs>
</svg>
