<svg width="22" height="22" viewBox="0 0 22 22" fill="none" xmlns="http://www.w3.org/2000/svg">
<path d="M2.33984 5.76074C2.18471 5.95423 2.04108 6.14547 1.86328 6.38379C-0.449631 9.48422 1.36278 14.7481 5.91113 18.1416C10.4596 21.535 16.0217 21.773 18.335 18.6729C18.418 18.5702 18.4925 18.4797 18.5605 18.3965C15.4978 19.0532 11.5456 18.0748 8.10742 15.5098C4.4653 12.7925 2.36634 9.0154 2.33984 5.76074Z" fill="white"/>
<path d="M17.0141 3.53913C12.5989 0.245223 7.26431 -0.0727915 5.09911 2.82917C2.93397 5.73127 4.75811 10.7548 9.17333 14.0489C13.5885 17.3429 18.923 17.6606 21.0884 14.7589C23.2535 11.8567 21.4295 6.83322 17.0141 3.53913ZM10.9975 4.57624C11.6747 4.55259 12.4901 5.19329 12.8188 6.0069C12.9154 6.23571 12.9244 6.42547 13.0288 6.67194C13.4033 7.59887 14.3325 8.32869 15.104 8.30182C15.8658 8.27522 16.189 7.52085 15.8364 6.60944C15.6184 6.01393 15.8359 5.52536 16.3364 5.50788C16.8512 5.49011 17.4713 5.97738 17.7212 6.59577C17.965 7.19959 17.7696 7.71046 17.2768 7.74616C16.5986 7.76984 15.571 8.53792 16.2866 10.3624C16.3665 10.5661 16.4344 10.6732 16.519 10.8692C16.8122 11.5949 16.5522 12.2158 15.9565 12.2217C15.0497 12.2064 14.4926 11.2865 14.4282 11.1524C13.9144 10.2582 12.979 9.60421 12.186 9.6319C11.3274 9.66207 10.9446 10.4813 11.2847 11.4942C11.4974 12.1407 11.2507 12.6624 10.7016 12.6817C10.1207 12.702 9.42122 12.1521 9.13915 11.4542C8.85712 10.7561 9.09916 10.1737 9.68017 10.1534C11.0047 10.1822 11.6531 8.92055 10.9936 7.28815C10.8811 7.00971 10.7386 6.74175 10.5727 6.4903C10.5727 6.4903 10.4486 6.3021 10.3667 6.09284C10.038 5.27927 10.3204 4.59996 10.9975 4.57624Z" fill="white"/>
</svg>
