<svg width="22" height="22" viewBox="0 0 22 22" fill="none" xmlns="http://www.w3.org/2000/svg">
<g clip-path="url(#clip0_6584_14067)">
<path d="M18.7566 14.7046C19.4395 13.0744 19.5969 11.2694 19.2066 9.5442C18.8163 7.81904 17.898 6.26089 16.5813 5.08965C15.2638 3.91568 13.6144 3.18669 11.8646 3.00499C10.1149 2.82328 8.35253 3.19798 6.82495 4.0765L5.78201 2.23922C7.37862 1.32172 9.1859 0.8413 11.0241 0.845734C12.8622 0.850168 14.6672 1.33931 16.2594 2.26449C18.5166 3.57269 20.21 5.67973 21.0103 8.17581C21.8106 10.6719 21.6606 13.3786 20.5894 15.7694L22 16.5881L17.6199 18.9286L17.4464 13.9442L18.7566 14.7046ZM3.24338 8.14117C2.56063 9.7715 2.40342 11.5766 2.79392 13.3018C3.18443 15.027 4.10294 16.585 5.41982 17.7562C6.73731 18.9301 8.38668 19.6591 10.1365 19.8408C11.8862 20.0225 13.6486 19.6478 15.1761 18.7693L16.2191 20.6066C14.6224 21.5239 12.815 22.0041 10.9769 21.9995C9.13871 21.9949 7.33378 21.5056 5.74164 20.5802C3.48477 19.272 1.79156 17.1652 0.991283 14.6694C0.191003 12.1735 0.340849 9.4671 1.41168 7.07638L0 6.25883L4.38015 3.91827L4.55361 8.90268L3.24338 8.14227V8.14117ZM7.31915 13.5376H13.1044C13.2077 13.5366 13.3084 13.5049 13.394 13.4467C13.4796 13.3884 13.5463 13.3061 13.5858 13.21C13.6253 13.1139 13.6359 13.0082 13.6163 12.906C13.5967 12.8039 13.5476 12.7098 13.4754 12.6355C13.3769 12.5366 13.2435 12.4809 13.1044 12.4805H8.89666C8.20029 12.48 7.53254 12.2014 7.03972 11.7058C6.54691 11.2102 6.26921 10.5381 6.26748 9.8367C6.26719 9.48906 6.33503 9.14477 6.46711 8.82359C6.59919 8.5024 6.79291 8.21064 7.03717 7.96502C7.28143 7.7194 7.57141 7.52476 7.8905 7.39225C8.20959 7.25975 8.55151 7.19199 8.89666 7.19286H9.94833V6.13576H12.0517V7.19286H14.6809V9.30815H8.89775C8.79423 9.30872 8.69319 9.34006 8.60727 9.39822C8.52136 9.45639 8.45441 9.53881 8.4148 9.63514C8.37519 9.73148 8.36469 9.83744 8.38462 9.93976C8.40455 10.0421 8.45402 10.1362 8.52683 10.2103C8.62501 10.3092 8.7592 10.3653 8.89775 10.3653H13.1055C13.8019 10.3658 14.4696 10.6444 14.9625 11.14C15.4553 11.6356 15.733 12.3077 15.7347 13.0091C15.735 13.3567 15.6671 13.701 15.5351 14.0222C15.403 14.3434 15.2093 14.6352 14.965 14.8808C14.7208 15.1264 14.4308 15.321 14.1117 15.4535C13.7926 15.5861 13.4507 15.6538 13.1055 15.6529H12.0528V16.71H9.94942V15.6529H7.32024V13.5376H7.31915Z" fill="white"/>
</g>
<defs>
<clipPath id="clip0_6584_14067">
<rect width="22" height="22" fill="white"/>
</clipPath>
</defs>
</svg>
