<svg width="22" height="22" viewBox="0 0 22 22" fill="none" xmlns="http://www.w3.org/2000/svg">
<g clip-path="url(#clip0_6584_14042)">
<path d="M6.24725 18.3418C7.57297 19.3319 9.21827 19.9179 11.0002 19.918C12.7806 19.9179 14.4241 19.3324 15.7492 18.3438C16.0042 18.8562 16.3623 19.3079 16.7961 19.6729C15.1826 20.8885 13.176 21.6103 11.0002 21.6104C8.82289 21.6103 6.81445 20.888 5.20038 19.6709C5.63445 19.3061 5.99218 18.8543 6.24725 18.3418ZM6.91425 3.23242C7.01133 3.8075 7.22729 4.3419 7.53534 4.81055C4.88041 6.09808 3.05004 8.81901 3.04999 11.9678C3.04999 12.1099 3.05336 12.2513 3.06073 12.3916C2.88964 12.3701 2.7152 12.3584 2.53827 12.3584C2.13407 12.3584 1.74352 12.4164 1.37421 12.5244C1.36372 12.3402 1.3576 12.1546 1.3576 11.9678C1.35766 8.10305 3.63158 4.77044 6.91425 3.23242ZM15.0842 3.23242C18.3675 4.77018 20.6427 8.10256 20.6428 11.9678C20.6428 12.1536 20.6356 12.3382 20.6252 12.5215C20.2559 12.4137 19.8652 12.3555 19.4611 12.3555C19.2841 12.3555 19.1098 12.3671 18.9387 12.3887C18.9459 12.2493 18.9504 12.109 18.9504 11.9678C18.9503 8.81884 17.1192 6.09799 14.4641 4.81055C14.7721 4.34189 14.9871 3.80752 15.0842 3.23242Z" fill="white"/>
<path d="M11 0C12.4018 2.19027e-06 13.5379 1.13631 13.5381 2.53809C13.5381 3.6221 12.8576 4.54426 11.9014 4.9082V6.86621C13.8048 7.27932 15.2304 8.97283 15.2305 11C15.2305 11.4983 15.1426 11.9759 14.9844 12.4199L18.1201 14.3477C18.5096 14.1044 18.9689 13.9619 19.4619 13.9619C20.8637 13.9621 22 15.0982 22 16.5C22 17.9018 20.8637 19.0379 19.4619 19.0381C18.06 19.0381 16.9229 17.902 16.9229 16.5C16.9229 16.2135 16.9721 15.9386 17.0596 15.6816L14.1084 13.8682C13.3354 14.7055 12.2294 15.2305 11 15.2305C9.8225 15.2305 8.75821 14.7489 7.99121 13.9727L5.00098 15.8945C5.04858 16.0888 5.07714 16.2911 5.07715 16.5C5.07715 17.902 3.94004 19.0381 2.53809 19.0381C1.1363 19.0379 0 17.9018 0 16.5C2.40927e-05 15.0982 1.13632 13.9621 2.53809 13.9619C3.11509 13.9619 3.64592 14.1562 4.07227 14.4805L7.06543 12.5557C6.87486 12.0741 6.76953 11.5494 6.76953 11C6.76957 8.93382 8.25052 7.2142 10.209 6.84375V4.94922C9.19467 4.61661 8.46191 3.66362 8.46191 2.53809C8.46212 1.1363 9.59817 0 11 0Z" fill="white"/>
</g>
<defs>
<clipPath id="clip0_6584_14042">
<rect width="22" height="22" fill="white"/>
</clipPath>
</defs>
</svg>
