<svg width="13" height="15" viewBox="0 0 13 15" fill="none" xmlns="http://www.w3.org/2000/svg">
<path d="M9.02978 2.85714C9.31717 2.85714 9.59278 2.97003 9.79599 3.17096C9.9992 3.37189 10.1134 3.64441 10.1134 3.92857V13.9286C10.1134 14.2127 9.9992 14.4853 9.79599 14.6862C9.59278 14.8871 9.31717 15 9.02978 15H1.08357C0.941277 15 0.800373 14.9723 0.668908 14.9184C0.537443 14.8646 0.417991 14.7857 0.317371 14.6862C0.216752 14.5867 0.136937 14.4686 0.0824821 14.3386C0.0280274 14.2086 0 14.0693 0 13.9286V3.92857C0 3.64441 0.114162 3.37189 0.317371 3.17096C0.520581 2.97003 0.796192 2.85714 1.08357 2.85714H9.02978ZM11.9164 2.05262e-07C12.1859 -0.000164645 12.4458 0.0989713 12.6453 0.278059C12.8449 0.457147 12.9698 0.703334 12.9957 0.968572L13 1.07143V10.7093C12.9998 10.8913 12.9293 11.0665 12.8029 11.1988C12.6765 11.3312 12.5038 11.4109 12.32 11.4216C12.1361 11.4322 11.9552 11.3731 11.814 11.2562C11.6728 11.1394 11.582 10.9736 11.5603 10.7929L11.5552 10.7093V1.42857H4.3343C4.15736 1.42855 3.98659 1.36432 3.85437 1.24806C3.72214 1.1318 3.63767 0.971608 3.61697 0.797857L3.61191 0.714286C3.61194 0.539333 3.6769 0.370474 3.79447 0.239735C3.91205 0.108995 4.07406 0.0254697 4.24978 0.00500023L4.3343 2.05262e-07H11.9164Z" fill="white" fill-opacity="0.4"/>
</svg>
