<svg width="20" height="20" viewBox="0 0 20 20" fill="none" xmlns="http://www.w3.org/2000/svg">
<path d="M5.71443 9.16471C5.43831 9.16837 5.21744 9.39518 5.2211 9.67129C5.22476 9.94741 5.45157 10.1683 5.72768 10.1646L5.72106 9.66467L5.71443 9.16471ZM15.3314 10.0256C15.5305 9.83431 15.5368 9.51779 15.3455 9.31868L12.2276 6.07391C12.0362 5.8748 11.7197 5.86849 11.5206 6.05982C11.3215 6.25115 11.3152 6.56767 11.5065 6.76679L14.278 9.65102L11.3938 12.4225C11.1947 12.6138 11.1883 12.9304 11.3797 13.1295C11.571 13.3286 11.8875 13.3349 12.0866 13.1436L15.3314 10.0256ZM5.72106 9.66467C5.72768 10.1646 5.7277 10.1646 5.72774 10.1646C5.72778 10.1646 5.72784 10.1646 5.72792 10.1646C5.72808 10.1646 5.72832 10.1646 5.72865 10.1646C5.72931 10.1646 5.73031 10.1646 5.73163 10.1646C5.73429 10.1645 5.73827 10.1645 5.74354 10.1644C5.7541 10.1643 5.76985 10.1641 5.79057 10.1638C5.832 10.1633 5.89331 10.1625 5.97269 10.1616C6.13145 10.1598 6.36247 10.1572 6.65134 10.1543C7.22911 10.1486 8.03814 10.1417 8.96305 10.1371C10.814 10.128 13.1249 10.1281 14.975 10.165L14.985 9.66512L14.9949 9.16521C13.1319 9.12808 10.8109 9.128 8.95812 9.13714C8.03119 9.14172 7.22046 9.14861 6.64142 9.15435C6.35189 9.15723 6.12025 9.15981 5.96095 9.16168C5.8813 9.16262 5.81972 9.16338 5.77804 9.1639C5.75719 9.16416 5.74132 9.16436 5.73064 9.1645C5.72531 9.16457 5.72127 9.16462 5.71856 9.16466C5.7172 9.16467 5.71618 9.16469 5.71549 9.1647C5.71514 9.1647 5.71488 9.1647 5.71471 9.16471C5.71462 9.16471 5.71455 9.16471 5.71451 9.16471C5.71446 9.16471 5.71443 9.16471 5.72106 9.66467Z" fill="white" fill-opacity="0.6"/>
</svg>
