<svg width="30" height="30" viewBox="0 0 30 30" fill="none" xmlns="http://www.w3.org/2000/svg">
<g clip-path="url(#clip0_6514_1045)">
<g clip-path="url(#clip1_6514_1045)">
<path d="M19.6756 7.9873C19.9855 7.98736 20.2826 8.11093 20.5018 8.33008C20.7209 8.54927 20.8445 8.84631 20.8445 9.15625V10.3252H22.5975C22.7524 10.3252 22.901 10.3866 23.0106 10.4961C23.1201 10.6056 23.1814 10.7543 23.1815 10.9092C23.1815 11.0641 23.1201 11.2127 23.0106 11.3223C22.901 11.4319 22.7525 11.4941 22.5975 11.4941H20.8445V14.416H22.5975C22.7524 14.416 22.901 14.4774 23.0106 14.5869C23.1201 14.6964 23.1814 14.8451 23.1815 15C23.1815 15.155 23.1202 15.3045 23.0106 15.4141C22.901 15.5235 22.7523 15.585 22.5975 15.585H20.8445V18.5068H22.5975C22.7524 18.5068 22.901 18.5683 23.0106 18.6777C23.12 18.7872 23.1813 18.936 23.1815 19.0908C23.1815 19.2458 23.1202 19.3953 23.0106 19.5049C22.901 19.6143 22.7523 19.6758 22.5975 19.6758H20.8445V20.8447C20.8445 21.1546 20.7209 21.4517 20.5018 21.6709C20.2826 21.89 19.9855 22.0136 19.6756 22.0137H10.325C10.015 22.0137 9.71706 21.8901 9.49786 21.6709C9.27887 21.4518 9.15612 21.1545 9.15607 20.8447V19.6758H7.40314C7.24814 19.6758 7.09867 19.6145 6.98907 19.5049C6.87948 19.3953 6.81818 19.2458 6.81818 19.0908C6.8183 18.936 6.8796 18.7872 6.98907 18.6777C7.09867 18.5681 7.24814 18.5068 7.40314 18.5068H9.15607V15.585H7.40314C7.24816 15.585 7.09867 15.5236 6.98907 15.4141C6.87948 15.3045 6.81818 15.155 6.81818 15C6.81828 14.8452 6.8796 14.6964 6.98907 14.5869C7.09867 14.4773 7.24814 14.416 7.40314 14.416H9.15607V11.4941H7.40314C7.24814 11.4941 7.09867 11.4319 6.98907 11.3223C6.87972 11.2127 6.81818 11.064 6.81818 10.9092C6.81825 10.7543 6.87961 10.6056 6.98907 10.4961C7.09867 10.3865 7.24814 10.3252 7.40314 10.3252H9.15607V9.15625C9.15607 8.84643 9.27889 8.54924 9.49786 8.33008C9.71706 8.11088 10.015 7.9873 10.325 7.9873H19.6756ZM11.992 9.93652C11.4274 9.93667 10.9697 10.3944 10.9695 10.959V19.04C10.9695 19.5695 11.3719 20.0051 11.8875 20.0576L11.992 20.0635H18.0086L18.1131 20.0576C18.5942 20.0086 18.9771 19.6266 19.0262 19.1455L19.0311 19.041V10.959C19.0309 10.3944 18.5731 9.93679 18.0086 9.93652H11.992ZM17.6678 11.2998V18.6992H12.3328V11.2998H17.6678Z" fill="white"/>
</g>
<g filter="url(#filter0_f_6514_1045)">
<ellipse cx="15.3984" cy="31.7227" rx="14.6016" ry="4.5" fill="white" fill-opacity="0.44"/>
</g>
</g>
<rect x="0.5" y="0.5" width="29" height="29" rx="7.5" stroke="url(#paint0_linear_6514_1045)"/>
<defs>
<filter id="filter0_f_6514_1045" x="-13.6031" y="12.8227" width="58.0031" height="37.8" filterUnits="userSpaceOnUse" color-interpolation-filters="sRGB">
<feFlood flood-opacity="0" result="BackgroundImageFix"/>
<feBlend mode="normal" in="SourceGraphic" in2="BackgroundImageFix" result="shape"/>
<feGaussianBlur stdDeviation="7.2" result="effect1_foregroundBlur_6514_1045"/>
</filter>
<linearGradient id="paint0_linear_6514_1045" x1="15" y1="8.13951e-08" x2="15" y2="30" gradientUnits="userSpaceOnUse">
<stop offset="0.271998" stop-color="white" stop-opacity="0.31"/>
<stop offset="1" stop-color="white" stop-opacity="0.02"/>
</linearGradient>
<clipPath id="clip0_6514_1045">
<rect width="30" height="30" rx="8" fill="white"/>
</clipPath>
<clipPath id="clip1_6514_1045">
<rect width="16.3636" height="16.3636" fill="white" transform="translate(6.81818 6.81836)"/>
</clipPath>
</defs>
</svg>
