<svg width="14" height="14" viewBox="0 0 14 14" fill="none" xmlns="http://www.w3.org/2000/svg">
<g clip-path="url(#clip0_8457_6477)">
<path d="M2.88328 11.1184H11.1184V2.88328H2.88328V11.1184ZM8.37285 12.4904H5.62726V13.8624H4.25527V12.4904H2.19648C2.01433 12.4904 1.83964 12.4181 1.71084 12.2893C1.58204 12.1605 1.50969 11.9858 1.50969 11.8036V9.74484H0.137695V8.37285H1.50969V5.62726H0.137695V4.25527H1.50969V2.19648C1.50969 2.01433 1.58204 1.83964 1.71084 1.71084C1.83964 1.58204 2.01433 1.50969 2.19648 1.50969H4.25527V0.137695H5.62726V1.50969H8.37285V0.137695H9.74484V1.50969H11.8036C11.9858 1.50969 12.1605 1.58204 12.2893 1.71084C12.4181 1.83964 12.4904 2.01433 12.4904 2.19648V4.25527H13.8624V5.62726H12.4904V8.37285H13.8624V9.74484H12.4904V11.8036C12.4904 11.9858 12.4181 12.1605 12.2893 12.2893C12.1605 12.4181 11.9858 12.4904 11.8036 12.4904H9.74484V13.8624H8.37285V12.4904ZM4.25527 4.25527H9.74484V9.74484H4.25527V4.25527Z" fill="#27E6FF"/>
</g>
<defs>
<clipPath id="clip0_8457_6477">
<rect width="14" height="14" fill="white"/>
</clipPath>
</defs>
</svg>
