<svg width="30" height="30" viewBox="0 0 30 30" fill="none" xmlns="http://www.w3.org/2000/svg">
<g clip-path="url(#clip0_6514_770)">
<path d="M20.1204 9.24882H18.3805V8.96966C18.3805 8.67159 18.3599 8.47775 18.3202 8.38652C18.2806 8.29363 18.1948 8.24827 18.0626 8.24827C17.9561 8.24827 17.8769 8.28822 17.8239 8.36653C17.771 8.44644 17.7447 8.56468 17.7447 8.72453C17.7447 8.98801 17.7988 9.17323 17.9081 9.27851C18.0141 9.38434 18.3275 9.58957 18.8472 9.89574C19.2889 10.1554 19.5906 10.3536 19.7512 10.4902C19.9113 10.6284 20.0468 10.8223 20.1572 11.0744C20.2677 11.3266 20.3234 11.6404 20.3234 12.0151C20.3234 12.6155 20.1751 13.0874 19.8762 13.4293C19.7462 13.5777 19.5884 13.7014 19.4021 13.8007C18.4675 13.6247 17.4113 13.4346 16.3505 13.3591C16.1079 13.0459 15.9863 12.5745 15.9863 11.947V11.6177H17.7269V12.0297C17.7269 12.4827 17.7447 12.7634 17.781 12.8737C17.8166 12.9832 17.9036 13.0372 18.0402 13.0372C18.1579 13.0372 18.2461 12.9989 18.304 12.9233C18.361 12.8466 18.3894 12.7321 18.3894 12.5826C18.3894 12.2051 18.361 11.9341 18.3068 11.7715C18.2528 11.609 18.067 11.4308 17.7475 11.2402C17.2161 10.9162 16.8552 10.6797 16.6639 10.5286C16.4738 10.3763 16.3076 10.1641 16.1692 9.88763C16.0293 9.61226 15.9601 9.30121 15.9601 8.95348C15.9601 8.45076 16.1073 8.05552 16.4018 7.76932C16.6962 7.48261 17.1379 7.30603 17.7268 7.23855V6.7002H18.5305V7.23855C19.068 7.30603 19.4695 7.47991 19.7378 7.7623C20.0044 8.04418 20.1382 8.4351 20.1382 8.93242C20.1383 9.00042 20.1321 9.10734 20.1204 9.24882ZM6.91456 16.8093C6.7427 16.8944 6.67478 17.1044 6.7643 17.274L9.78969 23.0056C9.87596 23.1691 10.0768 23.234 10.2424 23.152L12.4825 22.0434C12.6546 21.9582 12.7224 21.7478 12.6325 21.5782L12.2885 20.9293L13.0207 19.8202C15.3205 19.8996 16.7091 20.0794 18.3286 19.8899C19.1194 19.6648 23.4224 16.5178 23.3989 16C23.3755 15.4816 22.771 15.189 22.771 15.189C22.5134 15.2338 20.7958 16.4633 19.0196 16.9865C17.3767 17.4704 15.8475 16.9283 15.6535 15.8294C15.6295 15.6776 18.1658 15.6415 19.2689 15.6431C19.7792 15.5777 20.0452 14.4968 19.5382 14.4006C16.8491 13.8926 13.1484 13.189 11.4398 15.4995C10.891 15.9423 10.3305 16.2792 9.94463 16.4898L9.60763 15.8478C9.52159 15.6839 9.32047 15.6186 9.15456 15.7007L6.91456 16.8093Z" fill="white"/>
<g filter="url(#filter0_f_6514_770)">
<ellipse cx="15.3984" cy="31.7227" rx="14.6016" ry="4.5" fill="white" fill-opacity="0.44"/>
</g>
</g>
<rect x="0.5" y="0.5" width="29" height="29" rx="7.5" stroke="url(#paint0_linear_6514_770)"/>
<defs>
<filter id="filter0_f_6514_770" x="-13.6031" y="12.8227" width="58.0031" height="37.8" filterUnits="userSpaceOnUse" color-interpolation-filters="sRGB">
<feFlood flood-opacity="0" result="BackgroundImageFix"/>
<feBlend mode="normal" in="SourceGraphic" in2="BackgroundImageFix" result="shape"/>
<feGaussianBlur stdDeviation="7.2" result="effect1_foregroundBlur_6514_770"/>
</filter>
<linearGradient id="paint0_linear_6514_770" x1="15" y1="8.13951e-08" x2="15" y2="30" gradientUnits="userSpaceOnUse">
<stop offset="0.271998" stop-color="white" stop-opacity="0.31"/>
<stop offset="1" stop-color="white" stop-opacity="0.02"/>
</linearGradient>
<clipPath id="clip0_6514_770">
<rect width="30" height="30" rx="8" fill="white"/>
</clipPath>
</defs>
</svg>
