<svg width="19" height="18" viewBox="0 0 19 18" fill="none" xmlns="http://www.w3.org/2000/svg">
<mask id="path-1-inside-1_6451_1648" fill="white">
<path d="M15.7283 14.4689H14.1425C13.9271 14.4686 13.7205 14.3829 13.5682 14.2306C13.4158 14.0782 13.3301 13.8717 13.3299 13.6562V5.68785C13.3301 5.47238 13.4158 5.26581 13.5682 5.11345C13.7205 4.96109 13.9271 4.87539 14.1425 4.87515H15.7458C15.9612 4.87539 16.1678 4.96109 16.3202 5.11345C16.4725 5.26581 16.5582 5.47238 16.5585 5.68785V13.6562C16.559 13.7626 16.5384 13.868 16.4981 13.9665C16.4578 14.0649 16.3984 14.1545 16.3235 14.23C16.2485 14.3055 16.1594 14.3654 16.0612 14.4064C15.963 14.4474 15.8577 14.4686 15.7513 14.4689M11.1159 14.4689H9.53023C9.31476 14.4686 9.1082 14.3829 8.95584 14.2306C8.80348 14.0782 8.71778 13.8717 8.71754 13.6562V2.45919C8.71778 2.24372 8.80348 2.03715 8.95584 1.88479C9.1082 1.73243 9.31476 1.64673 9.53023 1.64648H11.1335C11.3489 1.64673 11.5555 1.73243 11.7079 1.88479C11.8602 2.03715 11.9459 2.24372 11.9462 2.45919V13.658C11.9464 13.7643 11.9257 13.8695 11.8853 13.9678C11.8449 14.066 11.7855 14.1553 11.7105 14.2306C11.6356 14.3059 11.5465 14.3657 11.4485 14.4066C11.3504 14.4475 11.2452 14.4686 11.139 14.4689M6.50363 14.4689H4.91791C4.70245 14.4686 4.49588 14.3829 4.34353 14.2306C4.19117 14.0782 4.10547 13.8717 4.10522 13.6562V7.99404C4.10547 7.77857 4.19117 7.572 4.34353 7.41964C4.49588 7.26728 4.70245 7.18158 4.91791 7.18133H6.52115C6.73662 7.18158 6.94319 7.26728 7.09554 7.41964C7.2479 7.572 7.3336 7.77857 7.33384 7.99404V13.659C7.33409 13.8734 7.24922 14.0791 7.09787 14.231C6.94653 14.3828 6.74109 14.4684 6.52669 14.4689"/>
</mask>
<path d="M15.7283 14.4689H14.1425C13.9271 14.4686 13.7205 14.3829 13.5682 14.2306C13.4158 14.0782 13.3301 13.8717 13.3299 13.6562V5.68785C13.3301 5.47238 13.4158 5.26581 13.5682 5.11345C13.7205 4.96109 13.9271 4.87539 14.1425 4.87515H15.7458C15.9612 4.87539 16.1678 4.96109 16.3202 5.11345C16.4725 5.26581 16.5582 5.47238 16.5585 5.68785V13.6562C16.559 13.7626 16.5384 13.868 16.4981 13.9665C16.4578 14.0649 16.3984 14.1545 16.3235 14.23C16.2485 14.3055 16.1594 14.3654 16.0612 14.4064C15.963 14.4474 15.8577 14.4686 15.7513 14.4689M11.1159 14.4689H9.53023C9.31476 14.4686 9.1082 14.3829 8.95584 14.2306C8.80348 14.0782 8.71778 13.8717 8.71754 13.6562V2.45919C8.71778 2.24372 8.80348 2.03715 8.95584 1.88479C9.1082 1.73243 9.31476 1.64673 9.53023 1.64648H11.1335C11.3489 1.64673 11.5555 1.73243 11.7079 1.88479C11.8602 2.03715 11.9459 2.24372 11.9462 2.45919V13.658C11.9464 13.7643 11.9257 13.8695 11.8853 13.9678C11.8449 14.066 11.7855 14.1553 11.7105 14.2306C11.6356 14.3059 11.5465 14.3657 11.4485 14.4066C11.3504 14.4475 11.2452 14.4686 11.139 14.4689M6.50363 14.4689H4.91791C4.70245 14.4686 4.49588 14.3829 4.34353 14.2306C4.19117 14.0782 4.10547 13.8717 4.10522 13.6562V7.99404C4.10547 7.77857 4.19117 7.572 4.34353 7.41964C4.49588 7.26728 4.70245 7.18158 4.91791 7.18133H6.52115C6.73662 7.18158 6.94319 7.26728 7.09554 7.41964C7.2479 7.572 7.3336 7.77857 7.33384 7.99404V13.659C7.33409 13.8734 7.24922 14.0791 7.09787 14.231C6.94653 14.3828 6.74109 14.4684 6.52669 14.4689" fill="#7B8080"/>
<path d="M14.1425 14.4689L14.1419 15.0548H14.1425V14.4689ZM13.3299 13.6562H12.7439L12.7439 13.6568L13.3299 13.6562ZM13.3299 5.68785L12.7439 5.68718V5.68785H13.3299ZM14.1425 4.87515V4.28921L14.1419 4.28921L14.1425 4.87515ZM15.7458 4.87515L15.7464 4.28921H15.7458V4.87515ZM16.5585 5.68785H17.1444L17.1444 5.68718L16.5585 5.68785ZM16.5585 13.6562H15.9725L15.9725 13.6589L16.5585 13.6562ZM9.53023 14.4689L9.52956 15.0548H9.53023V14.4689ZM8.71754 13.6562H8.1316L8.1316 13.6568L8.71754 13.6562ZM8.71754 2.45919L8.1316 2.45852V2.45919H8.71754ZM9.53023 1.64648V1.06055L9.52956 1.06055L9.53023 1.64648ZM11.1335 1.64648L11.1341 1.06055H11.1335V1.64648ZM11.9462 2.45919H12.5321L12.5321 2.45852L11.9462 2.45919ZM11.9462 13.658H11.3602L11.3602 13.6594L11.9462 13.658ZM4.91791 14.4689L4.91725 15.0548H4.91791V14.4689ZM4.10522 13.6562H3.51929L3.51929 13.6568L4.10522 13.6562ZM4.10522 7.99404L3.51929 7.99337V7.99404H4.10522ZM4.91791 7.18133V6.5954L4.91725 6.5954L4.91791 7.18133ZM6.52115 7.18133L6.52182 6.5954H6.52115V7.18133ZM7.33384 7.99404H7.91978L7.91978 7.99337L7.33384 7.99404ZM7.33384 13.659H6.74791L6.74791 13.6596L7.33384 13.659ZM15.7283 14.4689V13.8829H14.1425V14.4689V15.0548H15.7283V14.4689ZM14.1425 14.4689L14.1432 13.8829C14.0829 13.8829 14.0251 13.8589 13.9825 13.8163L13.5682 14.2306L13.1538 14.6449C13.4159 14.907 13.7712 15.0544 14.1419 15.0548L14.1425 14.4689ZM13.5682 14.2306L13.9825 13.8163C13.9398 13.7736 13.9159 13.7158 13.9158 13.6555L13.3299 13.6562L12.7439 13.6568C12.7443 14.0275 12.8917 14.3828 13.1538 14.6449L13.5682 14.2306ZM13.3299 13.6562H13.9158V5.68785H13.3299H12.7439V13.6562H13.3299ZM13.3299 5.68785L13.9158 5.68851C13.9159 5.62821 13.9398 5.5704 13.9825 5.52777L13.5682 5.11345L13.1538 4.69913C12.8917 4.96121 12.7443 5.31655 12.7439 5.68718L13.3299 5.68785ZM13.5682 5.11345L13.9825 5.52777C14.0251 5.48513 14.0829 5.46115 14.1432 5.46108L14.1425 4.87515L14.1419 4.28921C13.7712 4.28963 13.4159 4.43705 13.1538 4.69913L13.5682 5.11345ZM14.1425 4.87515V5.46108H15.7458V4.87515V4.28921H14.1425V4.87515ZM15.7458 4.87515L15.7451 5.46108C15.8054 5.46115 15.8632 5.48513 15.9058 5.52777L16.3202 5.11345L16.7345 4.69913C16.4724 4.43705 16.1171 4.28963 15.7464 4.28921L15.7458 4.87515ZM16.3202 5.11345L15.9058 5.52777C15.9485 5.57041 15.9725 5.62822 15.9725 5.68851L16.5585 5.68785L17.1444 5.68718C17.144 5.31654 16.9966 4.96121 16.7345 4.69913L16.3202 5.11345ZM16.5585 5.68785H15.9725V13.6562H16.5585H17.1444V5.68785H16.5585ZM16.5585 13.6562L15.9725 13.6589C15.9727 13.6882 15.967 13.7173 15.9559 13.7444L16.4981 13.9665L17.0404 14.1886C17.1099 14.0188 17.1452 13.837 17.1444 13.6535L16.5585 13.6562ZM16.4981 13.9665L15.9559 13.7444C15.9448 13.7716 15.9284 13.7963 15.9077 13.8171L16.3235 14.23L16.7392 14.6429C16.8685 14.5127 16.9708 14.3583 17.0404 14.1886L16.4981 13.9665ZM16.3235 14.23L15.9077 13.8171C15.8871 13.8379 15.8625 13.8544 15.8354 13.8657L16.0612 14.4064L16.287 14.9471C16.4563 14.8764 16.6099 14.773 16.7392 14.6429L16.3235 14.23ZM16.0612 14.4064L15.8354 13.8657C15.8084 13.877 15.7793 13.8829 15.75 13.8829L15.7513 14.4689L15.7526 15.0548C15.9361 15.0544 16.1177 15.0178 16.287 14.9471L16.0612 14.4064ZM11.1159 14.4689V13.8829H9.53023V14.4689V15.0548H11.1159V14.4689ZM9.53023 14.4689L9.53089 13.8829C9.4706 13.8829 9.4128 13.8589 9.37016 13.8163L8.95584 14.2306L8.54152 14.6449C8.80359 14.907 9.15893 15.0544 9.52956 15.0548L9.53023 14.4689ZM8.95584 14.2306L9.37016 13.8163C9.32753 13.7736 9.30354 13.7158 9.30347 13.6555L8.71754 13.6562L8.1316 13.6568C8.13202 14.0275 8.27944 14.3828 8.54152 14.6449L8.95584 14.2306ZM8.71754 13.6562H9.30347V2.45919H8.71754H8.1316V13.6562H8.71754ZM8.71754 2.45919L9.30347 2.45985C9.30354 2.39955 9.32753 2.34174 9.37016 2.29911L8.95584 1.88479L8.54152 1.47047C8.27944 1.73255 8.13202 2.08789 8.1316 2.45852L8.71754 2.45919ZM8.95584 1.88479L9.37016 2.29911C9.4128 2.25647 9.4706 2.23249 9.53089 2.23242L9.53023 1.64648L9.52956 1.06055C9.15893 1.06097 8.80359 1.20839 8.54152 1.47047L8.95584 1.88479ZM9.53023 1.64648V2.23242H11.1335V1.64648V1.06055H9.53023V1.64648ZM11.1335 1.64648L11.1328 2.23242C11.1931 2.23249 11.2509 2.25647 11.2935 2.29911L11.7079 1.88479L12.1222 1.47047C11.8601 1.20839 11.5048 1.06097 11.1341 1.06055L11.1335 1.64648ZM11.7079 1.88479L11.2935 2.29911C11.3362 2.34174 11.3602 2.39954 11.3602 2.45985L11.9462 2.45919L12.5321 2.45852C12.5317 2.0879 12.3843 1.73256 12.1222 1.47047L11.7079 1.88479ZM11.9462 2.45919H11.3602V13.658H11.9462H12.5321V2.45919H11.9462ZM11.9462 13.658L11.3602 13.6594C11.3603 13.6887 11.3546 13.7177 11.3434 13.7448L11.8853 13.9678L12.4271 14.1908C12.4968 14.0214 12.5325 13.8399 12.5321 13.6567L11.9462 13.658ZM11.8853 13.9678L11.3434 13.7448C11.3323 13.7719 11.3159 13.7965 11.2952 13.8173L11.7105 14.2306L12.1258 14.644C12.255 14.5142 12.3574 14.3602 12.4271 14.1908L11.8853 13.9678ZM11.7105 14.2306L11.2952 13.8173C11.2746 13.838 11.25 13.8545 11.223 13.8658L11.4485 14.4066L11.6739 14.9474C11.843 14.8769 11.9965 14.7738 12.1258 14.644L11.7105 14.2306ZM11.4485 14.4066L11.223 13.8658C11.1959 13.877 11.167 13.8829 11.1377 13.8829L11.139 14.4689L11.1403 15.0548C11.3235 15.0544 11.5048 15.0179 11.6739 14.9474L11.4485 14.4066ZM6.50363 14.4689V13.8829H4.91791V14.4689V15.0548H6.50363V14.4689ZM4.91791 14.4689L4.91858 13.8829C4.85829 13.8829 4.80048 13.8589 4.75785 13.8163L4.34353 14.2306L3.9292 14.6449C4.19128 14.907 4.54661 15.0544 4.91725 15.0548L4.91791 14.4689ZM4.34353 14.2306L4.75785 13.8163C4.71521 13.7736 4.69123 13.7158 4.69116 13.6555L4.10522 13.6562L3.51929 13.6568C3.51971 14.0275 3.66712 14.3828 3.9292 14.6449L4.34353 14.2306ZM4.10522 13.6562H4.69116V7.99404H4.10522H3.51929V13.6562H4.10522ZM4.10522 7.99404L4.69116 7.9947C4.69123 7.9344 4.71521 7.87659 4.75785 7.83396L4.34353 7.41964L3.9292 7.00532C3.66712 7.2674 3.51971 7.62274 3.51929 7.99337L4.10522 7.99404ZM4.34353 7.41964L4.75785 7.83396C4.80048 7.79132 4.85829 7.76734 4.91858 7.76727L4.91791 7.18133L4.91725 6.5954C4.54661 6.59582 4.19128 6.74324 3.9292 7.00532L4.34353 7.41964ZM4.91791 7.18133V7.76727H6.52115V7.18133V6.5954H4.91791V7.18133ZM6.52115 7.18133L6.52049 7.76727C6.58078 7.76734 6.63858 7.79132 6.68122 7.83396L7.09554 7.41964L7.50987 7.00532C7.24779 6.74324 6.89246 6.59582 6.52182 6.5954L6.52115 7.18133ZM7.09554 7.41964L6.68122 7.83396C6.72385 7.87659 6.74784 7.9344 6.74791 7.9947L7.33384 7.99404L7.91978 7.99337C7.91936 7.62274 7.77194 7.2674 7.50987 7.00532L7.09554 7.41964ZM7.33384 7.99404H6.74791V13.659H7.33384H7.91978V7.99404H7.33384ZM7.33384 13.659L6.74791 13.6596C6.74797 13.7187 6.72457 13.7755 6.68284 13.8173L7.09787 14.231L7.5129 14.6446C7.77386 14.3827 7.9202 14.028 7.91978 13.6583L7.33384 13.659ZM7.09787 14.231L6.68284 13.8173C6.64111 13.8592 6.58447 13.8828 6.52535 13.8829L6.52669 14.4689L6.52803 15.0548C6.89771 15.054 7.25195 14.9064 7.5129 14.6446L7.09787 14.231Z" fill="#7B8080" mask="url(#path-1-inside-1_6451_1648)"/>
<path d="M1.49756 0.999023V16.8129H17.3114" stroke="#7B8080" stroke-width="2" stroke-linecap="round" stroke-linejoin="round"/>
</svg>
