<svg width="18" height="19" viewBox="0 0 18 19" fill="none" xmlns="http://www.w3.org/2000/svg">
<path d="M15.2311 15.0851H13.6453C13.4299 15.0849 13.2233 14.9992 13.071 14.8468C12.9186 14.6944 12.8329 14.4879 12.8327 14.2724V6.30406C12.8329 6.08859 12.9186 5.88202 13.071 5.72966C13.2233 5.5773 13.4299 5.4916 13.6453 5.49136H15.2486C15.4641 5.4916 15.6706 5.5773 15.823 5.72966C15.9753 5.88202 16.061 6.08859 16.0613 6.30406V14.2724C16.0618 14.3788 16.0413 14.4842 16.0009 14.5827C15.9606 14.6812 15.9013 14.7707 15.8263 14.8462C15.7513 14.9217 15.6622 14.9816 15.564 15.0226C15.4658 15.0636 15.3605 15.0849 15.2541 15.0851M10.6188 15.0851H9.03303C8.81757 15.0849 8.611 14.9992 8.45865 14.8468C8.30629 14.6944 8.22059 14.4879 8.22034 14.2724V3.0754C8.22059 2.85993 8.30629 2.65336 8.45865 2.501C8.611 2.34864 8.81757 2.26294 9.03303 2.2627H10.6363C10.8517 2.26294 11.0583 2.34864 11.2107 2.501C11.363 2.65336 11.4487 2.85993 11.449 3.0754V14.2742C11.4492 14.3805 11.4285 14.4857 11.3881 14.584C11.3477 14.6822 11.2883 14.7715 11.2133 14.8468C11.1384 14.9221 11.0493 14.9819 10.9513 15.0228C10.8532 15.0637 10.748 15.0849 10.6418 15.0851M6.00643 15.0851H4.42072C4.20526 15.0849 3.99869 14.9992 3.84633 14.8468C3.69398 14.6944 3.60828 14.4879 3.60803 14.2724V8.61025C3.60828 8.39478 3.69398 8.18821 3.84633 8.03585C3.99869 7.88349 4.20526 7.79779 4.42072 7.79755H6.02396C6.23943 7.79779 6.44599 7.88349 6.59835 8.03585C6.75071 8.18821 6.83641 8.39478 6.83665 8.61025V14.2752C6.8369 14.4896 6.75202 14.6953 6.60068 14.8472C6.44934 14.999 6.2439 15.0846 6.0295 15.0851" fill="#27E6FF"/>
<path d="M1.00037 1.61572V17.4296H16.8142" stroke="#27E6FF" stroke-width="2" stroke-linecap="round" stroke-linejoin="round"/>
</svg>
