<svg width="14" height="15" viewBox="0 0 14 15" fill="none" xmlns="http://www.w3.org/2000/svg">
<g clip-path="url(#clip0_4877_1985)">
<path d="M12.8608 0.806736C12.7505 0.700027 12.6196 0.615387 12.4755 0.557648C12.3314 0.49991 12.1769 0.470205 12.021 0.470229H5.08816C4.93144 0.469484 4.77611 0.498741 4.63113 0.556318C4.48614 0.613894 4.35436 0.698651 4.24337 0.80571C4.13242 0.912824 4.04446 1.04012 3.98456 1.18026C3.92466 1.3204 3.89401 1.47063 3.89436 1.62228V2.73639H1.79643C1.48151 2.73639 1.17931 2.85739 0.95659 3.0729C0.733846 3.28843 0.608689 3.58074 0.608643 3.88554V13.3211C0.608643 13.6263 0.734222 13.919 0.957473 14.1347C1.0681 14.2415 1.19939 14.326 1.34383 14.3836C1.48828 14.4412 1.64304 14.4706 1.79926 14.4702H9.35025C9.66834 14.4748 9.97514 14.3559 10.2017 14.1399C10.314 14.0329 10.4031 13.9055 10.4639 13.7649C10.5248 13.6243 10.5561 13.4735 10.5561 13.3211V11.2619H12.006C12.1627 11.2638 12.3182 11.2357 12.4637 11.1791C12.6091 11.1226 12.7416 11.0388 12.8534 10.9325C12.9652 10.8262 13.0541 10.6996 13.1151 10.5599C13.1761 10.4202 13.2079 10.2702 13.2088 10.1185V1.61921C13.2088 1.31449 13.0835 1.02224 12.8608 0.806736ZM8.44611 8.78275C8.44611 9.07448 8.29545 9.22026 7.99396 9.22026H6.03468V11.1161C6.03468 11.4078 5.88402 11.5536 5.58252 11.5536H5.28103C4.97953 11.5536 4.82887 11.4078 4.82887 11.1161V9.22026H2.86959C2.5681 9.22026 2.41744 9.07431 2.41744 8.78275V8.49102C2.41744 8.19929 2.56828 8.05351 2.86959 8.05351H4.82887V6.15769C4.82887 5.86596 4.97971 5.72018 5.28103 5.72018H5.58252C5.88402 5.72018 6.03468 5.86596 6.03468 6.15769V8.05351H7.99396C8.29545 8.05351 8.44611 8.19929 8.44611 8.49102V8.78275ZM12.0634 9.82987C12.0628 10.0003 11.9357 10.1457 11.7619 10.1741H10.5561V3.88554C10.5561 3.57775 10.4285 3.28277 10.2017 3.06675C10.0896 2.95978 9.95649 2.87549 9.81031 2.81877C9.66412 2.76205 9.50773 2.73405 9.35025 2.73639H5.01874V2.01895C5.01874 1.76123 5.23458 1.55221 5.50092 1.55221H11.5808C11.8472 1.55221 12.0632 1.76123 12.0632 2.01895V9.82987H12.0634Z" fill="black"/>
</g>
<defs>
<clipPath id="clip0_4877_1985">
<rect width="14" height="14" fill="white" transform="translate(0 0.5)"/>
</clipPath>
</defs>
</svg>
