<svg width="1513" height="954" viewBox="0 0 1513 954" fill="none" xmlns="http://www.w3.org/2000/svg">
<g clip-path="url(#clip0_3337_11868)">
<rect width="1512" height="953" transform="translate(0.59375 0.879395)" fill="black"/>
<mask id="mask0_3337_11868" style="mask-type:luminance" maskUnits="userSpaceOnUse" x="-95" y="-51" width="1608" height="993">
<path d="M-94.812 -50.2886H1512.59V941.031H-94.812V-50.2886Z" fill="white"/>
</mask>
<g mask="url(#mask0_3337_11868)">
<path d="M-480.633 470.311L515.845 -518.57M-474.402 476.49L522.072 -512.39M-468.175 482.67L528.299 -506.211M-461.948 488.849L534.526 -500.031M-455.721 495.033L540.753 -493.852M-449.494 501.213L546.981 -487.668M-443.267 507.393L553.208 -481.488M-437.031 513.572L559.443 -475.308M-430.804 519.756L565.67 -469.129M-424.577 525.936L571.897 -462.945M-418.35 532.115L578.124 -456.765M-412.123 538.295L584.352 -450.586M-405.896 544.474L590.579 -444.406M-399.669 550.658L596.805 -438.227M-393.442 556.838L603.032 -432.043M-387.215 563.018L609.26 -425.863M-380.988 569.197L615.491 -419.684M-374.756 575.381L621.718 -413.504M-368.529 581.561L627.945 -407.32M-362.302 587.74L634.172 -401.14M-356.066 593.92L640.408 -394.961M-349.839 600.099L646.635 -388.781M-343.612 606.283L652.862 -382.602M-337.385 612.463L659.089 -376.418M-331.158 618.642L665.316 -370.238M-324.931 624.822L671.543 -364.059M-318.704 631.002L677.77 -357.879M-312.477 637.186L683.997 -351.695M-306.25 643.365L690.224 -345.516M-300.023 649.545L696.451 -339.336M-293.796 655.724L702.678 -333.156M-287.569 661.904L708.905 -326.977M-281.342 668.088L715.137 -320.793M-275.106 674.267L721.372 -314.613M-268.879 680.447L727.6 -308.434M-262.648 686.627L733.827 -302.254M-256.421 692.806L740.054 -296.075M-250.194 698.99L746.281 -289.891M-243.967 705.17L752.508 -283.711M-237.74 711.349L758.735 -277.531M-231.513 717.533L764.962 -271.352M-225.286 723.708L771.189 -265.172M-219.058 729.892L777.416 -258.988M-212.831 736.072L783.643 -252.809M-206.604 742.251L789.87 -246.629M-200.377 748.435L796.097 -240.45M-194.142 754.615L802.333 -234.27M-187.915 760.795L808.56 -228.086M-181.688 766.974L814.787 -221.907M-175.46 773.154L821.014 -215.727M-169.233 779.337L827.245 -209.547M-163.006 785.517L833.472 -203.363M-156.775 791.697L839.699 -197.184M-150.548 797.876L845.926 -191.004M-144.321 804.056L852.153 -184.825M-138.094 810.24L858.38 -178.645M-131.867 816.419L864.607 -172.461M-125.64 822.599L870.834 -166.282M-119.413 828.779L877.061 -160.102M-113.177 834.963L883.297 -153.922M-106.95 841.142L889.524 -147.743M-100.723 847.322L895.751 -141.559M-94.4959 853.501L901.978 -135.379M-88.2689 859.681L908.205 -129.2M-82.0419 865.865L914.432 -123.02M-75.8148 872.044L920.659 -116.841M-69.5878 878.224L926.891 -110.657M-63.3608 884.403L933.118 -104.477M-57.1293 890.583L939.345 -98.2975M-50.9023 896.767L945.572 -92.1136M-44.6753 902.946L951.799 -85.934M-38.4483 909.126L958.026 -79.7544M-32.2124 915.306L964.262 -73.5749M-25.9854 921.485L970.489 -67.3953M-19.7583 927.669L976.716 -61.2113M-13.5314 933.849L982.943 -55.0318M-7.3043 940.028L989.17 -48.8522M-1.07729 946.208L995.397 -42.6727M5.14976 952.388L1001.62 -36.4931M11.3768 958.571L1007.85 -30.3091M17.6038 964.751L1014.08 -24.1296M23.8308 970.931L1020.31 -17.95M30.0579 977.11L1026.53 -11.7704M36.2849 983.29L1032.76 -5.59082M42.5119 989.474L1038.99 0.593127M48.7478 995.653L1045.23 6.77274M54.9747 1001.83L1051.45 12.9523M61.2062 1008.01L1057.68 19.1318M67.4332 1014.2L1063.91 25.3115M73.6603 1020.38L1070.13 31.4954M79.8873 1026.56L1076.36 37.6749M86.1144 1032.74L1082.59 43.8545M92.3414 1038.92L1088.82 50.0341M98.5684 1045.1L1095.04 56.2181M104.795 1051.28L1101.27 62.3977M111.022 1057.46L1107.5 68.5772M117.25 1063.64L1113.72 74.7567M123.485 1069.82L1119.96 80.9363M129.712 1076L1126.19 87.1203M135.939 1082.18L1132.41 93.2998M142.166 1088.36L1138.64 99.4794M148.393 1094.54L1144.87 105.659M154.62 1100.72L1151.1 111.843M160.852 1106.9L1157.33 118.023M167.079 1113.08L1163.55 124.202M173.306 1119.26L1169.78 130.382M179.533 1125.45L1176.01 136.561M185.76 1131.63L1182.23 142.745M191.987 1137.81L1188.46 148.925M198.214 1143.99L1194.69 155.104" stroke="white" stroke-opacity="0.17"/>
<path d="M243.017 1111.48L1239.5 122.602M249.249 1117.66L1245.72 128.782M255.476 1123.84L1251.95 134.961M261.703 1130.02L1258.18 141.141M267.93 1136.21L1264.4 147.32M274.157 1142.38L1270.63 153.504M280.384 1148.56L1276.86 159.684M286.619 1154.74L1283.09 165.863M292.847 1160.93L1289.32 172.043M299.074 1167.11L1295.55 178.227M305.301 1173.29L1301.77 184.407M311.528 1179.47L1308 190.586M317.755 1185.65L1314.23 196.766M323.982 1191.83L1320.46 202.945M330.209 1198.01L1326.68 209.129M336.436 1204.19L1332.91 215.309M342.663 1210.37L1339.14 221.488M348.894 1216.55L1345.37 227.668M355.121 1222.73L1351.6 233.852M361.348 1228.91L1357.82 240.031M367.584 1235.09L1364.06 246.211M373.811 1241.27L1370.29 252.391M380.038 1247.46L1376.51 258.57M386.265 1253.63L1382.74 264.754M392.492 1259.81L1388.97 270.934M398.719 1265.99L1395.19 277.113M404.946 1272.17L1401.42 283.293M411.173 1278.36L1407.65 289.477M417.4 1284.54L1413.87 295.656M423.627 1290.72L1420.1 301.836M429.854 1296.9L1426.33 308.016M436.081 1303.08L1432.56 314.195M442.308 1309.26L1438.79 320.379M448.544 1315.44L1445.02 326.559M454.771 1321.62L1451.25 332.738M461.003 1327.8L1457.48 338.918M467.23 1333.98L1463.7 345.097M473.457 1340.16L1469.93 351.281M479.684 1346.34L1476.16 357.461M485.911 1352.52L1482.39 363.64M492.138 1358.7L1488.61 369.82M498.365 1364.88L1494.84 376M504.592 1371.06L1501.07 382.184M510.819 1377.24L1507.29 388.363M517.046 1383.42L1513.52 394.543M523.273 1389.61L1519.75 400.722M529.509 1395.79L1525.98 406.902M535.736 1401.97L1532.21 413.086M541.963 1408.15L1538.44 419.265M548.19 1414.33L1544.66 425.445M554.417 1420.51L1550.9 431.624M560.644 1426.69L1557.12 437.808M566.875 1432.87L1563.35 443.988M573.102 1439.05L1569.58 450.168M579.329 1445.23L1575.8 456.347M585.556 1451.41L1582.03 462.527M591.784 1457.59L1588.26 468.711M598.01 1463.77L1594.48 474.89M604.238 1469.95L1600.71 481.07M610.473 1476.13L1606.95 487.249M616.7 1482.31L1613.17 493.429M622.927 1488.49L1619.4 499.613M629.154 1494.67L1625.63 505.793M635.381 1500.85L1631.86 511.972M641.609 1507.04L1638.08 518.152M647.836 1513.22L1644.31 524.331M654.063 1519.4L1650.54 530.515M660.29 1525.58L1656.77 536.695M666.521 1531.75L1663 542.874M672.748 1537.94L1669.22 549.058M678.975 1544.12L1675.45 555.238M685.202 1550.3L1681.68 561.417M691.438 1556.48L1687.91 567.597M697.665 1562.66L1694.14 573.777M703.892 1568.84L1700.37 579.961M710.119 1575.02L1706.59 586.14M716.346 1581.2L1712.82 592.32M722.573 1587.38L1719.05 598.499M728.8 1593.56L1725.27 604.679M735.027 1599.74L1731.5 610.863M741.254 1605.92L1737.73 617.042M747.481 1612.1L1743.96 623.222M753.708 1618.28L1750.18 629.402M759.935 1624.46L1756.41 635.581M766.162 1630.65L1762.64 641.765M772.398 1636.83L1768.88 647.945M778.625 1643L1775.1 654.124M784.857 1649.18L1781.33 660.304M791.084 1655.37L1787.56 666.483M797.311 1661.55L1793.78 672.667M803.538 1667.73L1800.01 678.847M809.765 1673.91L1806.24 685.026M815.992 1680.09L1812.47 691.206M822.219 1686.27L1818.69 697.39M828.446 1692.45L1824.92 703.57M834.673 1698.63L1831.15 709.749M840.9 1704.81L1837.37 715.929M847.136 1710.99L1843.61 722.108M853.363 1717.17L1849.84 728.292M859.59 1723.35L1856.06 734.472M865.817 1729.53L1862.29 740.651M872.044 1735.71L1868.52 746.831M878.271 1741.9L1874.75 753.015M884.502 1748.08L1880.98 759.194M890.729 1754.25L1887.2 765.374M896.956 1760.43L1893.43 771.554M903.183 1766.62L1899.66 777.733M909.41 1772.8L1905.88 783.917M915.637 1778.98L1912.11 790.097M921.864 1785.16L1918.34 796.276" stroke="white" stroke-opacity="0.17"/>
</g>
<rect x="-20.7451" y="-23.6118" width="1540.84" height="303.039" fill="url(#paint0_linear_3337_11868)"/>
<rect x="-20.7451" y="650.84" width="1540.84" height="303.039" fill="url(#paint1_linear_3337_11868)"/>
<g filter="url(#filter0_f_3337_11868)">
<rect x="-20.7451" y="261.774" width="536.276" height="692.105" fill="url(#paint2_linear_3337_11868)"/>
</g>
<g filter="url(#filter1_f_3337_11868)">
<rect x="742.047" y="205.557" width="536.276" height="692.105" fill="url(#paint3_linear_3337_11868)"/>
</g>
<g filter="url(#filter2_f_3337_11868)">
<ellipse cx="35.6982" cy="131.365" rx="251.548" ry="234.448" fill="black"/>
</g>
<g filter="url(#filter3_f_3337_11868)">
<ellipse cx="1512.59" cy="711.706" rx="251.548" ry="432.279" fill="black"/>
</g>
<g filter="url(#filter4_f_3337_11868)">
<ellipse cx="1484.01" cy="242.932" rx="251.548" ry="234.448" fill="black"/>
</g>
<g filter="url(#filter5_f_3337_11868)">
<ellipse cx="35.6982" cy="461.365" rx="251.548" ry="234.448" fill="black" fill-opacity="0.42"/>
</g>
<g filter="url(#filter6_f_3337_11868)">
<ellipse cx="542.546" cy="273.827" rx="251.548" ry="234.448" fill="black" fill-opacity="0.42"/>
</g>
</g>
<defs>
<filter id="filter0_f_3337_11868" x="-175.445" y="107.074" width="845.676" height="1001.51" filterUnits="userSpaceOnUse" color-interpolation-filters="sRGB">
<feFlood flood-opacity="0" result="BackgroundImageFix"/>
<feBlend mode="normal" in="SourceGraphic" in2="BackgroundImageFix" result="shape"/>
<feGaussianBlur stdDeviation="77.35" result="effect1_foregroundBlur_3337_11868"/>
</filter>
<filter id="filter1_f_3337_11868" x="649.947" y="113.457" width="720.476" height="876.305" filterUnits="userSpaceOnUse" color-interpolation-filters="sRGB">
<feFlood flood-opacity="0" result="BackgroundImageFix"/>
<feBlend mode="normal" in="SourceGraphic" in2="BackgroundImageFix" result="shape"/>
<feGaussianBlur stdDeviation="46.05" result="effect1_foregroundBlur_3337_11868"/>
</filter>
<filter id="filter2_f_3337_11868" x="-452.05" y="-339.283" width="975.496" height="941.296" filterUnits="userSpaceOnUse" color-interpolation-filters="sRGB">
<feFlood flood-opacity="0" result="BackgroundImageFix"/>
<feBlend mode="normal" in="SourceGraphic" in2="BackgroundImageFix" result="shape"/>
<feGaussianBlur stdDeviation="118.1" result="effect1_foregroundBlur_3337_11868"/>
</filter>
<filter id="filter3_f_3337_11868" x="1024.85" y="43.2272" width="975.496" height="1336.96" filterUnits="userSpaceOnUse" color-interpolation-filters="sRGB">
<feFlood flood-opacity="0" result="BackgroundImageFix"/>
<feBlend mode="normal" in="SourceGraphic" in2="BackgroundImageFix" result="shape"/>
<feGaussianBlur stdDeviation="118.1" result="effect1_foregroundBlur_3337_11868"/>
</filter>
<filter id="filter4_f_3337_11868" x="996.262" y="-227.716" width="975.496" height="941.296" filterUnits="userSpaceOnUse" color-interpolation-filters="sRGB">
<feFlood flood-opacity="0" result="BackgroundImageFix"/>
<feBlend mode="normal" in="SourceGraphic" in2="BackgroundImageFix" result="shape"/>
<feGaussianBlur stdDeviation="118.1" result="effect1_foregroundBlur_3337_11868"/>
</filter>
<filter id="filter5_f_3337_11868" x="-452.05" y="-9.28252" width="975.496" height="941.296" filterUnits="userSpaceOnUse" color-interpolation-filters="sRGB">
<feFlood flood-opacity="0" result="BackgroundImageFix"/>
<feBlend mode="normal" in="SourceGraphic" in2="BackgroundImageFix" result="shape"/>
<feGaussianBlur stdDeviation="118.1" result="effect1_foregroundBlur_3337_11868"/>
</filter>
<filter id="filter6_f_3337_11868" x="120.298" y="-131.321" width="844.496" height="810.296" filterUnits="userSpaceOnUse" color-interpolation-filters="sRGB">
<feFlood flood-opacity="0" result="BackgroundImageFix"/>
<feBlend mode="normal" in="SourceGraphic" in2="BackgroundImageFix" result="shape"/>
<feGaussianBlur stdDeviation="85.35" result="effect1_foregroundBlur_3337_11868"/>
</filter>
<linearGradient id="paint0_linear_3337_11868" x1="749.673" y1="-23.6118" x2="749.673" y2="279.427" gradientUnits="userSpaceOnUse">
<stop/>
<stop offset="1" stop-opacity="0"/>
</linearGradient>
<linearGradient id="paint1_linear_3337_11868" x1="749.673" y1="650.84" x2="749.673" y2="953.879" gradientUnits="userSpaceOnUse">
<stop stop-opacity="0"/>
<stop offset="1"/>
</linearGradient>
<linearGradient id="paint2_linear_3337_11868" x1="247.393" y1="261.774" x2="247.393" y2="953.879" gradientUnits="userSpaceOnUse">
<stop stop-opacity="0"/>
<stop offset="1"/>
</linearGradient>
<linearGradient id="paint3_linear_3337_11868" x1="1010.19" y1="205.557" x2="1010.19" y2="897.662" gradientUnits="userSpaceOnUse">
<stop stop-opacity="0"/>
<stop offset="1"/>
</linearGradient>
<clipPath id="clip0_3337_11868">
<rect width="1512" height="953" fill="white" transform="translate(0.59375 0.879395)"/>
</clipPath>
</defs>
</svg>
