<svg width="74" height="74" viewBox="0 0 74 74" fill="none" xmlns="http://www.w3.org/2000/svg">
<circle cx="37.0664" cy="37.0664" r="36.5" fill="#262626" stroke="url(#paint0_linear_3467_11482)"/>
<g filter="url(#filter0_d_3467_11482)">
<path fill-rule="evenodd" clip-rule="evenodd" d="M46.6576 22.8116C47.3014 22.7286 47.8962 22.9369 48.3039 23.3206C52.2199 26.5755 54.7227 31.4543 54.7227 36.943C54.7227 46.7203 46.8437 54.5992 37.0664 54.5992C27.2891 54.5992 19.4102 46.7203 19.4102 36.943C19.4102 31.4404 21.9256 26.5509 25.8585 23.296L25.877 23.2808L25.8961 23.2664C26.2401 23.0084 26.7055 22.7461 27.3289 22.7461C28.5859 22.7461 29.6102 23.7704 29.6102 25.0273C29.6102 25.8684 29.1367 26.5129 28.6626 26.8938C25.7526 29.271 23.9086 32.8958 23.9086 37.007C23.9086 44.2704 29.739 50.1008 37.0023 50.1008C44.2657 50.1008 50.0961 44.2704 50.0961 37.007C50.0961 32.9028 48.1935 29.2089 45.2089 26.7615L45.1707 26.7303L45.1359 26.6954C44.6981 26.2576 44.4586 25.6853 44.4586 25.0914C44.4586 23.862 45.4385 22.8552 46.6576 22.8116ZM39.3477 21.8242C39.3477 20.5672 38.3234 19.543 37.0664 19.543C35.8094 19.543 34.7852 20.5672 34.7852 21.8242V39.7617C34.7852 41.0187 35.8094 42.043 37.0664 42.043C38.3234 42.043 39.3477 41.0187 39.3477 39.7617V21.8242Z" fill="url(#paint1_linear_3467_11482)"/>
<path fill-rule="evenodd" clip-rule="evenodd" d="M46.6576 22.8116C47.3014 22.7286 47.8962 22.9369 48.3039 23.3206C52.2199 26.5755 54.7227 31.4543 54.7227 36.943C54.7227 46.7203 46.8437 54.5992 37.0664 54.5992C27.2891 54.5992 19.4102 46.7203 19.4102 36.943C19.4102 31.4404 21.9256 26.5509 25.8585 23.296L25.877 23.2808L25.8961 23.2664C26.2401 23.0084 26.7055 22.7461 27.3289 22.7461C28.5859 22.7461 29.6102 23.7704 29.6102 25.0273C29.6102 25.8684 29.1367 26.5129 28.6626 26.8938C25.7526 29.271 23.9086 32.8958 23.9086 37.007C23.9086 44.2704 29.739 50.1008 37.0023 50.1008C44.2657 50.1008 50.0961 44.2704 50.0961 37.007C50.0961 32.9028 48.1935 29.2089 45.2089 26.7615L45.1707 26.7303L45.1359 26.6954C44.6981 26.2576 44.4586 25.6853 44.4586 25.0914C44.4586 23.862 45.4385 22.8552 46.6576 22.8116ZM39.3477 21.8242C39.3477 20.5672 38.3234 19.543 37.0664 19.543C35.8094 19.543 34.7852 20.5672 34.7852 21.8242V39.7617C34.7852 41.0187 35.8094 42.043 37.0664 42.043C38.3234 42.043 39.3477 41.0187 39.3477 39.7617V21.8242Z" fill="url(#paint2_linear_3467_11482)"/>
<path fill-rule="evenodd" clip-rule="evenodd" d="M46.6576 22.8116C47.3014 22.7286 47.8962 22.9369 48.3039 23.3206C52.2199 26.5755 54.7227 31.4543 54.7227 36.943C54.7227 46.7203 46.8437 54.5992 37.0664 54.5992C27.2891 54.5992 19.4102 46.7203 19.4102 36.943C19.4102 31.4404 21.9256 26.5509 25.8585 23.296L25.877 23.2808L25.8961 23.2664C26.2401 23.0084 26.7055 22.7461 27.3289 22.7461C28.5859 22.7461 29.6102 23.7704 29.6102 25.0273C29.6102 25.8684 29.1367 26.5129 28.6626 26.8938C25.7526 29.271 23.9086 32.8958 23.9086 37.007C23.9086 44.2704 29.739 50.1008 37.0023 50.1008C44.2657 50.1008 50.0961 44.2704 50.0961 37.007C50.0961 32.9028 48.1935 29.2089 45.2089 26.7615L45.1707 26.7303L45.1359 26.6954C44.6981 26.2576 44.4586 25.6853 44.4586 25.0914C44.4586 23.862 45.4385 22.8552 46.6576 22.8116ZM39.3477 21.8242C39.3477 20.5672 38.3234 19.543 37.0664 19.543C35.8094 19.543 34.7852 20.5672 34.7852 21.8242V39.7617C34.7852 41.0187 35.8094 42.043 37.0664 42.043C38.3234 42.043 39.3477 41.0187 39.3477 39.7617V21.8242Z" fill="black" fill-opacity="0.2"/>
</g>
<defs>
<filter id="filter0_d_3467_11482" x="10.8102" y="10.943" width="52.5125" height="52.2562" filterUnits="userSpaceOnUse" color-interpolation-filters="sRGB">
<feFlood flood-opacity="0" result="BackgroundImageFix"/>
<feColorMatrix in="SourceAlpha" type="matrix" values="0 0 0 0 0 0 0 0 0 0 0 0 0 0 0 0 0 0 127 0" result="hardAlpha"/>
<feOffset/>
<feGaussianBlur stdDeviation="4.3"/>
<feComposite in2="hardAlpha" operator="out"/>
<feColorMatrix type="matrix" values="0 0 0 0 0 0 0 0 0 0 0 0 0 0 0 0 0 0 1 0"/>
<feBlend mode="normal" in2="BackgroundImageFix" result="effect1_dropShadow_3467_11482"/>
<feBlend mode="normal" in="SourceGraphic" in2="effect1_dropShadow_3467_11482" result="shape"/>
</filter>
<linearGradient id="paint0_linear_3467_11482" x1="7.32243" y1="12.3463" x2="62.4193" y2="63.372" gradientUnits="userSpaceOnUse">
<stop stop-color="#BABABA"/>
<stop offset="0.353968" stop-color="#BABABA" stop-opacity="0"/>
<stop offset="0.733636" stop-color="#686666" stop-opacity="0"/>
<stop offset="1" stop-color="#686666"/>
</linearGradient>
<linearGradient id="paint1_linear_3467_11482" x1="37.0664" y1="20.543" x2="37.0664" y2="53.5992" gradientUnits="userSpaceOnUse">
<stop offset="0.289426" stop-color="white"/>
<stop offset="1" stop-color="#27E6FF"/>
</linearGradient>
<linearGradient id="paint2_linear_3467_11482" x1="37.0664" y1="20.543" x2="37.0664" y2="53.5992" gradientUnits="userSpaceOnUse">
<stop offset="0.289426" stop-color="white"/>
<stop offset="1" stop-color="#999999"/>
</linearGradient>
</defs>
</svg>
