<svg xmlns="http://www.w3.org/2000/svg" width="74" height="74" viewBox="0 0 74 74" fill="none">
  <g clip-path="url(#clip0_3467_11461)">
    <g filter="url(#filter0_i_3467_11461)">
      <rect x="0.0651855" width="74" height="74" rx="37" fill="url(#paint0_linear_3467_11461)"/>
    </g>
    <mask id="mask0_3467_11461" style="mask-type:alpha" maskUnits="userSpaceOnUse" x="0" y="0" width="75" height="74">
      <rect x="0.0651855" width="74" height="74" rx="37" fill="url(#paint1_linear_3467_11461)"/>
    </mask>
    <g mask="url(#mask0_3467_11461)">
      <g filter="url(#filter1_f_3467_11461)">
        <ellipse cx="56.4067" cy="11.7116" rx="30.6781" ry="30.6418" fill="#44FFEF"/>
      </g>
      <g filter="url(#filter2_f_3467_11461)">
        <ellipse cx="15.353" cy="72.4997" rx="30.6781" ry="30.6418" fill="#44D3FF"/>
      </g>
    </g>
    <g filter="url(#filter3_f_3467_11461)">
      <rect x="0.5" y="0.5" width="73" height="73" rx="36.5" stroke="url(#paint2_linear_3467_11461)"/>
    </g>
    <g filter="url(#filter4_i_3467_11461)">
      <path fill-rule="evenodd" clip-rule="evenodd" d="M46.9145 25.4667C47.4999 25.3912 48.0407 25.5806 48.4115 25.9295C51.9721 28.889 54.2478 33.3251 54.2478 38.3158C54.2478 47.206 47.0837 54.37 38.1936 54.37C29.3035 54.37 22.1394 47.206 22.1394 38.3158C22.1394 33.3126 24.4266 28.8667 28.0027 25.9071L28.0194 25.8933L28.0368 25.8802C28.3496 25.6456 28.7728 25.4071 29.3396 25.4071C30.4826 25.4071 31.4139 26.3385 31.4139 27.4814C31.4139 28.2461 30.9834 28.8322 30.5523 29.1785C27.9063 31.34 26.2297 34.6358 26.2297 38.3741C26.2297 44.9784 31.5311 50.2798 38.1354 50.2798C44.7397 50.2798 50.041 44.9784 50.041 38.3741C50.041 34.6423 48.3111 31.2835 45.5973 29.0582L45.5626 29.0298L45.5309 28.9981C45.1328 28.6 44.9151 28.0796 44.9151 27.5396C44.9151 26.4217 45.806 25.5063 46.9145 25.4667ZM40.2679 24.5689C40.2679 23.426 39.3365 22.4946 38.1936 22.4946C37.0507 22.4946 36.1193 23.426 36.1193 24.5689V40.8788C36.1193 42.0217 37.0507 42.9531 38.1936 42.9531C39.3365 42.9531 40.2679 42.0217 40.2679 40.8788V24.5689Z" fill="#222A2F"/>
    </g>
  </g>
  <defs>
    <filter id="filter0_i_3467_11461" x="-0.934814" y="-2" width="75" height="76" filterUnits="userSpaceOnUse" color-interpolation-filters="sRGB">
      <feFlood flood-opacity="0" result="BackgroundImageFix"/>
      <feBlend mode="normal" in="SourceGraphic" in2="BackgroundImageFix" result="shape"/>
      <feColorMatrix in="SourceAlpha" type="matrix" values="0 0 0 0 0 0 0 0 0 0 0 0 0 0 0 0 0 0 127 0" result="hardAlpha"/>
      <feOffset dx="-1" dy="-2"/>
      <feGaussianBlur stdDeviation="16.6"/>
      <feComposite in2="hardAlpha" operator="arithmetic" k2="-1" k3="1"/>
      <feColorMatrix type="matrix" values="0 0 0 0 1 0 0 0 0 1 0 0 0 0 1 0 0 0 1 0"/>
      <feBlend mode="normal" in2="shape" result="effect1_innerShadow_3467_11461"/>
    </filter>
    <filter id="filter1_f_3467_11461" x="-29.9715" y="-74.6302" width="172.756" height="172.683" filterUnits="userSpaceOnUse" color-interpolation-filters="sRGB">
      <feFlood flood-opacity="0" result="BackgroundImageFix"/>
      <feBlend mode="normal" in="SourceGraphic" in2="BackgroundImageFix" result="shape"/>
      <feGaussianBlur stdDeviation="27.85" result="effect1_foregroundBlur_3467_11461"/>
    </filter>
    <filter id="filter2_f_3467_11461" x="-65.3252" y="-8.14209" width="161.356" height="161.283" filterUnits="userSpaceOnUse" color-interpolation-filters="sRGB">
      <feFlood flood-opacity="0" result="BackgroundImageFix"/>
      <feBlend mode="normal" in="SourceGraphic" in2="BackgroundImageFix" result="shape"/>
      <feGaussianBlur stdDeviation="25" result="effect1_foregroundBlur_3467_11461"/>
    </filter>
    <filter id="filter3_f_3467_11461" x="-3.3" y="-3.3" width="80.6" height="80.6" filterUnits="userSpaceOnUse" color-interpolation-filters="sRGB">
      <feFlood flood-opacity="0" result="BackgroundImageFix"/>
      <feBlend mode="normal" in="SourceGraphic" in2="BackgroundImageFix" result="shape"/>
      <feGaussianBlur stdDeviation="1.65" result="effect1_foregroundBlur_3467_11461"/>
    </filter>
    <filter id="filter4_i_3467_11461" x="22.1394" y="22.4946" width="32.1084" height="31.8755" filterUnits="userSpaceOnUse" color-interpolation-filters="sRGB">
      <feFlood flood-opacity="0" result="BackgroundImageFix"/>
      <feBlend mode="normal" in="SourceGraphic" in2="BackgroundImageFix" result="shape"/>
      <feColorMatrix in="SourceAlpha" type="matrix" values="0 0 0 0 0 0 0 0 0 0 0 0 0 0 0 0 0 0 127 0" result="hardAlpha"/>
      <feOffset/>
      <feGaussianBlur stdDeviation="0.4"/>
      <feComposite in2="hardAlpha" operator="arithmetic" k2="-1" k3="1"/>
      <feColorMatrix type="matrix" values="0 0 0 0 0.476644 0 0 0 0 0.904 0 0 0 0 1 0 0 0 1 0"/>
      <feBlend mode="normal" in2="shape" result="effect1_innerShadow_3467_11461"/>
    </filter>
    <linearGradient id="paint0_linear_3467_11461" x1="37.0652" y1="0" x2="37.0652" y2="74" gradientUnits="userSpaceOnUse">
      <stop stop-color="#DEFBFF"/>
      <stop offset="1" stop-color="#65E8FF"/>
    </linearGradient>
    <linearGradient id="paint1_linear_3467_11461" x1="37.0652" y1="0" x2="37.0652" y2="74" gradientUnits="userSpaceOnUse">
      <stop stop-color="#DEFBFF"/>
      <stop offset="1" stop-color="#65E8FF"/>
    </linearGradient>
    <linearGradient id="paint2_linear_3467_11461" x1="37" y1="0" x2="37" y2="74" gradientUnits="userSpaceOnUse">
      <stop stop-color="#DEFBFF"/>
      <stop offset="1" stop-color="#65E8FF"/>
    </linearGradient>
    <clipPath id="clip0_3467_11461">
      <rect width="74" height="74" fill="white"/>
    </clipPath>
  </defs>
</svg>