<svg width="52" height="53" viewBox="0 0 52 53" fill="none" xmlns="http://www.w3.org/2000/svg">
<rect y="0.0288086" width="52" height="52" rx="26" fill="#27E6FF"/>
<mask id="path-2-inside-1_5206_11842" fill="white">
<path d="M20.3659 16.2703C19.8877 15.442 18.8196 15.1496 18.0622 15.7336C16.271 17.1146 14.8627 18.9459 13.9896 21.0539C12.8944 23.6978 12.7023 26.6292 13.443 29.3935C14.1836 32.1577 15.8157 34.6003 18.0861 36.3424C20.3565 38.0845 23.1383 39.0288 26 39.0288C28.8617 39.0288 31.6435 38.0845 33.9139 36.3424C36.1843 34.6003 37.8164 32.1577 38.557 29.3935C39.2977 26.6292 39.1056 23.6978 38.0104 21.0539C37.1373 18.9459 35.729 17.1146 33.9378 15.7336C33.1804 15.1496 32.1123 15.442 31.6341 16.2703C31.1559 17.0986 31.4531 18.1471 32.1814 18.767C33.3252 19.7407 34.2294 20.9765 34.8105 22.3794C35.6138 24.3189 35.7548 26.4693 35.2114 28.497C34.6681 30.5248 33.4709 32.3166 31.8054 33.5945C30.1399 34.8725 28.0993 35.5652 26 35.5652C23.9007 35.5652 21.8601 34.8725 20.1946 33.5945C18.5291 32.3166 17.3319 30.5248 16.7886 28.497C16.2452 26.4693 16.3862 24.3189 17.1895 22.3794C17.7706 20.9765 18.6748 19.7407 19.8186 18.767C20.5469 18.1471 20.8441 17.0986 20.3659 16.2703Z"/>
</mask>
<path d="M20.3659 16.2703C19.8877 15.442 18.8196 15.1496 18.0622 15.7336C16.271 17.1146 14.8627 18.9459 13.9896 21.0539C12.8944 23.6978 12.7023 26.6292 13.443 29.3935C14.1836 32.1577 15.8157 34.6003 18.0861 36.3424C20.3565 38.0845 23.1383 39.0288 26 39.0288C28.8617 39.0288 31.6435 38.0845 33.9139 36.3424C36.1843 34.6003 37.8164 32.1577 38.557 29.3935C39.2977 26.6292 39.1056 23.6978 38.0104 21.0539C37.1373 18.9459 35.729 17.1146 33.9378 15.7336C33.1804 15.1496 32.1123 15.442 31.6341 16.2703C31.1559 17.0986 31.4531 18.1471 32.1814 18.767C33.3252 19.7407 34.2294 20.9765 34.8105 22.3794C35.6138 24.3189 35.7548 26.4693 35.2114 28.497C34.6681 30.5248 33.4709 32.3166 31.8054 33.5945C30.1399 34.8725 28.0993 35.5652 26 35.5652C23.9007 35.5652 21.8601 34.8725 20.1946 33.5945C18.5291 32.3166 17.3319 30.5248 16.7886 28.497C16.2452 26.4693 16.3862 24.3189 17.1895 22.3794C17.7706 20.9765 18.6748 19.7407 19.8186 18.767C20.5469 18.1471 20.8441 17.0986 20.3659 16.2703Z" stroke="#05191B" stroke-width="8" mask="url(#path-2-inside-1_5206_11842)"/>
<path d="M26 14.0288V28.0288" stroke="#05191B" stroke-width="4" stroke-linecap="round"/>
</svg>
