<svg width="30" height="30" viewBox="0 0 30 30" fill="none" xmlns="http://www.w3.org/2000/svg">
<g clip-path="url(#clip0_6514_760)">
<g clip-path="url(#clip1_6514_760)">
<path d="M9.15584 11.4928H7.40259C7.2476 11.4928 7.09895 11.4312 6.98935 11.3217C6.87975 11.2121 6.81818 11.0634 6.81818 10.9084C6.81818 10.7534 6.87975 10.6048 6.98935 10.4952C7.09895 10.3856 7.2476 10.324 7.40259 10.324H9.15584V9.15516C9.15584 8.84517 9.27898 8.54787 9.49818 8.32867C9.71738 8.10947 10.0147 7.98633 10.3247 7.98633H19.6753C19.9853 7.98633 20.2826 8.10947 20.5018 8.32867C20.721 8.54787 20.8442 8.84517 20.8442 9.15516V10.324H22.5974C22.7524 10.324 22.901 10.3856 23.0106 10.4952C23.1202 10.6048 23.1818 10.7534 23.1818 10.9084C23.1818 11.0634 23.1202 11.2121 23.0106 11.3217C22.901 11.4312 22.7524 11.4928 22.5974 11.4928H20.8442V14.4149H22.5974C22.7524 14.4149 22.901 14.4765 23.0106 14.5861C23.1202 14.6957 23.1818 14.8443 23.1818 14.9993C23.1818 15.1543 23.1202 15.303 23.0106 15.4126C22.901 15.5222 22.7524 15.5837 22.5974 15.5837H21.4274H21.4286H17.1764L15.5318 16.5691C15.2126 16.3061 14.8108 16.1645 14.3973 16.1691C13.9838 16.1738 13.5853 16.3244 13.2721 16.5945C12.9589 16.8645 12.7513 17.2366 12.6859 17.6449C12.6205 18.0532 12.7015 18.4715 12.9146 18.8258C13.1277 19.1802 13.4592 19.4479 13.8505 19.5815C14.2419 19.7151 14.6679 19.7061 15.0532 19.556C15.4385 19.406 15.7584 19.1246 15.9564 18.7615C16.1543 18.3984 16.2176 17.9771 16.1349 17.5719L17.5001 16.7514H20.8442V18.5058H22.5974C22.7524 18.5058 22.901 18.5674 23.0106 18.677C23.1202 18.7866 23.1818 18.9352 23.1818 19.0902C23.1818 19.2452 23.1202 19.3939 23.0106 19.5035C22.901 19.6131 22.7524 19.6746 22.5974 19.6746H20.8442V20.8435C20.8442 21.1535 20.721 21.4508 20.5018 21.67C20.2826 21.8892 19.9853 22.0123 19.6753 22.0123H10.3247C10.0147 22.0123 9.71738 21.8892 9.49818 21.67C9.27898 21.4508 9.15584 21.1535 9.15584 20.8435V19.6746H7.40259C7.2476 19.6746 7.09895 19.6131 6.98935 19.5035C6.87975 19.3939 6.81818 19.2452 6.81818 19.0902C6.81818 18.9352 6.87975 18.7866 6.98935 18.677C7.09895 18.5674 7.2476 18.5058 7.40259 18.5058H9.15584V15.5837H7.40259C7.2476 15.5837 7.09895 15.5222 6.98935 15.4126C6.87975 15.303 6.81818 15.1543 6.81818 14.9993C6.81818 14.8443 6.87975 14.6957 6.98935 14.5861C7.09895 14.4765 7.2476 14.4149 7.40259 14.4149H12.8236L14.467 13.4284C14.7859 13.6917 15.1876 13.8338 15.6012 13.8295C16.0147 13.8253 16.4134 13.675 16.7268 13.4052C17.0403 13.1355 17.2483 12.7636 17.3141 12.3553C17.3799 11.947 17.2993 11.5286 17.0864 11.1741C16.8736 10.8195 16.5423 10.5516 16.151 10.4176C15.7598 10.2837 15.3338 10.2924 14.9483 10.4421C14.5628 10.5919 14.2427 10.8731 14.0445 11.236C13.8462 11.599 13.7827 12.0203 13.8651 12.4255L12.5022 13.2461H9.15584V11.4928Z" fill="white"/>
</g>
<g filter="url(#filter0_f_6514_760)">
<ellipse cx="15.3984" cy="31.7227" rx="14.6016" ry="4.5" fill="white" fill-opacity="0.44"/>
</g>
</g>
<rect x="0.5" y="0.5" width="29" height="29" rx="7.5" stroke="url(#paint0_linear_6514_760)"/>
<defs>
<filter id="filter0_f_6514_760" x="-13.6031" y="12.8227" width="58.0031" height="37.8" filterUnits="userSpaceOnUse" color-interpolation-filters="sRGB">
<feFlood flood-opacity="0" result="BackgroundImageFix"/>
<feBlend mode="normal" in="SourceGraphic" in2="BackgroundImageFix" result="shape"/>
<feGaussianBlur stdDeviation="7.2" result="effect1_foregroundBlur_6514_760"/>
</filter>
<linearGradient id="paint0_linear_6514_760" x1="15" y1="8.13951e-08" x2="15" y2="30" gradientUnits="userSpaceOnUse">
<stop offset="0.271998" stop-color="white" stop-opacity="0.31"/>
<stop offset="1" stop-color="white" stop-opacity="0.02"/>
</linearGradient>
<clipPath id="clip0_6514_760">
<rect width="30" height="30" rx="8" fill="white"/>
</clipPath>
<clipPath id="clip1_6514_760">
<rect width="16.3636" height="16.3636" fill="white" transform="translate(6.81818 6.81836)"/>
</clipPath>
</defs>
</svg>
