<svg xmlns="http://www.w3.org/2000/svg" width="40" height="41" viewBox="0 0 40 41" fill="none">
  <g clip-path="url(#clip0_3773_11464)">
    <circle cx="20" cy="20.8521" r="20" fill="url(#paint0_linear_3773_11464)"/>
    <g filter="url(#filter0_d_3773_11464)">
      <path d="M9.38239 20.8387L15.8774 27.2237C16.3493 27.6876 16.9859 27.9454 17.6476 27.9407C18.3092 27.936 18.9421 27.6692 19.4074 27.1987L30.6674 15.8262C30.8848 15.5878 31.0015 15.2746 30.9933 14.9521C30.9851 14.6296 30.8525 14.3228 30.6232 14.0958C30.394 13.8688 30.0858 13.7392 29.7632 13.7342C29.4407 13.7291 29.1286 13.849 28.8924 14.0687L17.6299 25.4437L11.1349 19.0562C11.0185 18.9383 10.8798 18.8446 10.7268 18.7807C10.5739 18.7169 10.4097 18.684 10.244 18.6842C10.0782 18.6843 9.91418 18.7175 9.76135 18.7816C9.60852 18.8457 9.46997 18.9396 9.35376 19.0578C9.23756 19.176 9.14603 19.3162 9.08448 19.4701C9.02294 19.624 8.99262 19.7886 8.99528 19.9543C8.99794 20.12 9.03354 20.2835 9.1 20.4354C9.16645 20.5872 9.26245 20.7243 9.38239 20.8387Z" fill="white"/>
      <path d="M9.38239 20.8387L15.8774 27.2237C16.3493 27.6876 16.9859 27.9454 17.6476 27.9407C18.3092 27.936 18.9421 27.6692 19.4074 27.1987L30.6674 15.8262C30.8848 15.5878 31.0015 15.2746 30.9933 14.9521C30.9851 14.6296 30.8525 14.3228 30.6232 14.0958C30.394 13.8688 30.0858 13.7392 29.7632 13.7342C29.4407 13.7291 29.1286 13.849 28.8924 14.0687L17.6299 25.4437L11.1349 19.0562C11.0185 18.9383 10.8798 18.8446 10.7268 18.7807C10.5739 18.7169 10.4097 18.684 10.244 18.6842C10.0782 18.6843 9.91418 18.7175 9.76135 18.7816C9.60852 18.8457 9.46997 18.9396 9.35376 19.0578C9.23756 19.176 9.14603 19.3162 9.08448 19.4701C9.02294 19.624 8.99262 19.7886 8.99528 19.9543C8.99794 20.12 9.03354 20.2835 9.1 20.4354C9.16645 20.5872 9.26245 20.7243 9.38239 20.8387Z" stroke="white"/>
    </g>
  </g>
  <defs>
    <filter id="filter0_d_3773_11464" x="7.49512" y="12.234" width="24.9985" height="17.2067" filterUnits="userSpaceOnUse" color-interpolation-filters="sRGB">
      <feFlood flood-opacity="0" result="BackgroundImageFix"/>
      <feColorMatrix in="SourceAlpha" type="matrix" values="0 0 0 0 0 0 0 0 0 0 0 0 0 0 0 0 0 0 127 0" result="hardAlpha"/>
      <feOffset/>
      <feGaussianBlur stdDeviation="0.5"/>
      <feComposite in2="hardAlpha" operator="out"/>
      <feColorMatrix type="matrix" values="0 0 0 0 0 0 0 0 0 0 0 0 0 0 0 0 0 0 0.25 0"/>
      <feBlend mode="normal" in2="BackgroundImageFix" result="effect1_dropShadow_3773_11464"/>
      <feBlend mode="normal" in="SourceGraphic" in2="effect1_dropShadow_3773_11464" result="shape"/>
    </filter>
    <linearGradient id="paint0_linear_3773_11464" x1="20" y1="0.852051" x2="20" y2="40.8521" gradientUnits="userSpaceOnUse">
      <stop stop-color="#27E6FF"/>
      <stop offset="1" stop-color="#AEC9FF"/>
    </linearGradient>
    <clipPath id="clip0_3773_11464">
      <rect width="40" height="40" fill="white" transform="translate(0 0.852051)"/>
    </clipPath>
  </defs>
</svg>