<svg xmlns="http://www.w3.org/2000/svg" width="46" height="47" viewBox="0 0 46 47" fill="none">
  <g clip-path="url(#clip0_3341_14843)">
    <rect y="0.888672" width="46" height="46" rx="12" fill="url(#paint0_linear_3341_14843)"/>
    <g filter="url(#filter0_f_3341_14843)">
      <ellipse cx="23" cy="46.5527" rx="14.6016" ry="4.5" fill="#42778D"/>
    </g>
    <path d="M31.5917 15.9934C31.5848 15.9799 31.5734 15.9694 31.5596 15.9637C29.9581 15.2218 28.2682 14.6929 26.5319 14.39C26.5162 14.387 26.4999 14.3891 26.4854 14.3961C26.4708 14.403 26.4589 14.4144 26.4511 14.4286C26.221 14.8502 26.0121 15.2834 25.8252 15.7263C23.9537 15.4395 22.05 15.4395 20.1784 15.7263C19.9903 15.2823 19.7781 14.849 19.5426 14.4286C19.5346 14.4147 19.5225 14.4036 19.5081 14.3967C19.4937 14.3898 19.4776 14.3875 19.4618 14.39C17.7254 14.6922 16.0353 15.2212 14.4341 15.9637C14.4204 15.9696 14.4088 15.9796 14.401 15.9924C11.1988 20.8203 10.3217 25.5296 10.752 30.1805C10.7532 30.1919 10.7567 30.203 10.7622 30.213C10.7677 30.223 10.7752 30.2318 10.7841 30.2389C12.6487 31.6327 14.7342 32.6966 16.9518 33.3853C16.9674 33.39 16.9841 33.3898 16.9996 33.3847C17.0151 33.3795 17.0286 33.3697 17.0384 33.3566C17.5147 32.7023 17.9367 32.0095 18.3002 31.2852C18.3052 31.2752 18.308 31.2643 18.3086 31.2532C18.3091 31.2421 18.3073 31.231 18.3032 31.2206C18.2992 31.2102 18.293 31.2008 18.2851 31.193C18.2772 31.1853 18.2678 31.1792 18.2574 31.1754C17.5919 30.9183 16.9476 30.6084 16.3306 30.2486C16.3194 30.242 16.31 30.2326 16.3032 30.2214C16.2964 30.2102 16.2925 30.1975 16.2917 30.1844C16.2909 30.1713 16.2934 30.1582 16.2988 30.1463C16.3042 30.1344 16.3125 30.124 16.3229 30.116C16.4523 30.0181 16.5819 29.9162 16.7055 29.8133C16.7165 29.8042 16.7298 29.7984 16.7439 29.7964C16.758 29.7945 16.7723 29.7966 16.7853 29.8025C20.8276 31.665 25.2039 31.665 29.1984 29.8025C29.2114 29.7962 29.2259 29.7939 29.2402 29.7956C29.2545 29.7974 29.268 29.8032 29.2792 29.8124C29.4028 29.9153 29.5324 30.0181 29.6628 30.116C29.6732 30.1239 29.6815 30.1342 29.687 30.1461C29.6926 30.158 29.6951 30.1711 29.6944 30.1842C29.6938 30.1973 29.6899 30.21 29.6832 30.2212C29.6765 30.2325 29.6671 30.2419 29.656 30.2486C29.0404 30.6115 28.3955 30.9212 27.7283 31.1744C27.7179 31.1784 27.7085 31.1846 27.7007 31.1925C27.6928 31.2004 27.6867 31.2099 27.6827 31.2203C27.6788 31.2308 27.677 31.242 27.6777 31.2531C27.6783 31.2643 27.6812 31.2752 27.6863 31.2852C28.0558 32.0055 28.4772 32.6974 28.9471 33.3555C28.9566 33.369 28.9701 33.3791 28.9857 33.3844C29.0012 33.3897 29.018 33.39 29.0337 33.3851C31.2552 32.6989 33.3444 31.6348 35.2114 30.2389C35.2205 30.2322 35.228 30.2236 35.2336 30.2137C35.2391 30.2038 35.2425 30.1928 35.2435 30.1815C35.7587 24.8045 34.381 20.1339 31.5917 15.9934ZM18.9039 27.3486C17.6869 27.3486 16.6841 26.221 16.6841 24.8362C16.6841 23.4514 17.6674 22.3238 18.9039 22.3238C20.15 22.3238 21.1431 23.4612 21.1237 24.8361C21.1237 26.221 20.1403 27.3486 18.9039 27.3486ZM27.1112 27.3486C25.8942 27.3486 24.8914 26.221 24.8914 24.8362C24.8914 23.4514 25.8748 22.3238 27.1112 22.3238C28.3574 22.3238 29.3505 23.4612 29.331 24.8361C29.331 26.221 28.3574 27.3486 27.1112 27.3486Z" fill="url(#paint1_linear_3341_14843)"/>
    <path d="M31.5917 15.9934C31.5848 15.9799 31.5734 15.9694 31.5596 15.9637C29.9581 15.2218 28.2682 14.6929 26.5319 14.39C26.5162 14.387 26.4999 14.3891 26.4854 14.3961C26.4708 14.403 26.4589 14.4144 26.4511 14.4286C26.221 14.8502 26.0121 15.2834 25.8252 15.7263C23.9537 15.4395 22.05 15.4395 20.1784 15.7263C19.9903 15.2823 19.7781 14.849 19.5426 14.4286C19.5346 14.4147 19.5225 14.4036 19.5081 14.3967C19.4937 14.3898 19.4776 14.3875 19.4618 14.39C17.7254 14.6922 16.0353 15.2212 14.4341 15.9637C14.4204 15.9696 14.4088 15.9796 14.401 15.9924C11.1988 20.8203 10.3217 25.5296 10.752 30.1805C10.7532 30.1919 10.7567 30.203 10.7622 30.213C10.7677 30.223 10.7752 30.2318 10.7841 30.2389C12.6487 31.6327 14.7342 32.6966 16.9518 33.3853C16.9674 33.39 16.9841 33.3898 16.9996 33.3847C17.0151 33.3795 17.0286 33.3697 17.0384 33.3566C17.5147 32.7023 17.9367 32.0095 18.3002 31.2852C18.3052 31.2752 18.308 31.2643 18.3086 31.2532C18.3091 31.2421 18.3073 31.231 18.3032 31.2206C18.2992 31.2102 18.293 31.2008 18.2851 31.193C18.2772 31.1853 18.2678 31.1792 18.2574 31.1754C17.5919 30.9183 16.9476 30.6084 16.3306 30.2486C16.3194 30.242 16.31 30.2326 16.3032 30.2214C16.2964 30.2102 16.2925 30.1975 16.2917 30.1844C16.2909 30.1713 16.2934 30.1582 16.2988 30.1463C16.3042 30.1344 16.3125 30.124 16.3229 30.116C16.4523 30.0181 16.5819 29.9162 16.7055 29.8133C16.7165 29.8042 16.7298 29.7984 16.7439 29.7964C16.758 29.7945 16.7723 29.7966 16.7853 29.8025C20.8276 31.665 25.2039 31.665 29.1984 29.8025C29.2114 29.7962 29.2259 29.7939 29.2402 29.7956C29.2545 29.7974 29.268 29.8032 29.2792 29.8124C29.4028 29.9153 29.5324 30.0181 29.6628 30.116C29.6732 30.1239 29.6815 30.1342 29.687 30.1461C29.6926 30.158 29.6951 30.1711 29.6944 30.1842C29.6938 30.1973 29.6899 30.21 29.6832 30.2212C29.6765 30.2325 29.6671 30.2419 29.656 30.2486C29.0404 30.6115 28.3955 30.9212 27.7283 31.1744C27.7179 31.1784 27.7085 31.1846 27.7007 31.1925C27.6928 31.2004 27.6867 31.2099 27.6827 31.2203C27.6788 31.2308 27.677 31.242 27.6777 31.2531C27.6783 31.2643 27.6812 31.2752 27.6863 31.2852C28.0558 32.0055 28.4772 32.6974 28.9471 33.3555C28.9566 33.369 28.9701 33.3791 28.9857 33.3844C29.0012 33.3897 29.018 33.39 29.0337 33.3851C31.2552 32.6989 33.3444 31.6348 35.2114 30.2389C35.2205 30.2322 35.228 30.2236 35.2336 30.2137C35.2391 30.2038 35.2425 30.1928 35.2435 30.1815C35.7587 24.8045 34.381 20.1339 31.5917 15.9934ZM18.9039 27.3486C17.6869 27.3486 16.6841 26.221 16.6841 24.8362C16.6841 23.4514 17.6674 22.3238 18.9039 22.3238C20.15 22.3238 21.1431 23.4612 21.1237 24.8361C21.1237 26.221 20.1403 27.3486 18.9039 27.3486ZM27.1112 27.3486C25.8942 27.3486 24.8914 26.221 24.8914 24.8362C24.8914 23.4514 25.8748 22.3238 27.1112 22.3238C28.3574 22.3238 29.3505 23.4612 29.331 24.8361C29.331 26.221 28.3574 27.3486 27.1112 27.3486Z" fill="url(#paint2_linear_3341_14843)"/>
  </g>
  <rect x="0.25" y="1.13867" width="45.5" height="45.5" rx="11.75" stroke="url(#paint3_linear_3341_14843)" stroke-width="0.5"/>
  <defs>
    <filter id="filter0_f_3341_14843" x="-6.00156" y="27.6527" width="58.0031" height="37.8" filterUnits="userSpaceOnUse" color-interpolation-filters="sRGB">
      <feFlood flood-opacity="0" result="BackgroundImageFix"/>
      <feBlend mode="normal" in="SourceGraphic" in2="BackgroundImageFix" result="shape"/>
      <feGaussianBlur stdDeviation="7.2" result="effect1_foregroundBlur_3341_14843"/>
    </filter>
    <linearGradient id="paint0_linear_3341_14843" x1="23" y1="0.888672" x2="23" y2="46.8887" gradientUnits="userSpaceOnUse">
      <stop stop-color="#242529"/>
      <stop offset="0.978207" stop-color="#060606"/>
    </linearGradient>
    <linearGradient id="paint1_linear_3341_14843" x1="34.8353" y1="33.8017" x2="21.4347" y2="14.7415" gradientUnits="userSpaceOnUse">
      <stop stop-color="white"/>
      <stop offset="1" stop-color="white"/>
    </linearGradient>
    <linearGradient id="paint2_linear_3341_14843" x1="14.9249" y1="32.6287" x2="28.5765" y2="12.8698" gradientUnits="userSpaceOnUse">
      <stop stop-color="#27E6FF"/>
      <stop offset="1" stop-color="white" stop-opacity="0.6"/>
    </linearGradient>
    <linearGradient id="paint3_linear_3341_14843" x1="23" y1="0.888672" x2="23" y2="46.8887" gradientUnits="userSpaceOnUse">
      <stop offset="0.271998" stop-color="white" stop-opacity="0.11"/>
      <stop offset="1" stop-color="white" stop-opacity="0.02"/>
    </linearGradient>
    <clipPath id="clip0_3341_14843">
      <rect y="0.888672" width="46" height="46" rx="12" fill="white"/>
    </clipPath>
  </defs>
</svg>