<svg xmlns="http://www.w3.org/2000/svg" width="46" height="47" viewBox="0 0 46 47" fill="none">
  <g clip-path="url(#clip0_3341_14880)">
    <rect y="0.888672" width="46" height="46" rx="12" fill="url(#paint0_linear_3341_14880)"/>
    <g filter="url(#filter0_f_3341_14880)">
      <ellipse cx="23" cy="46.5527" rx="14.6016" ry="4.5" fill="#42778D"/>
    </g>
    <path d="M28.8262 29.0512C27.517 29.0512 26.4466 29.752 25.9481 30.84L19.6199 28.1482C19.9891 27.5764 20.1919 26.8755 20.1919 26.1197C20.1919 25.8066 20.1549 25.4929 20.081 25.1978L24.1215 22.063C24.6568 22.4686 25.3397 22.7083 26.0961 22.7083C27.9227 22.7083 29.2878 21.3437 29.2878 19.5371C29.2878 17.7299 27.9223 16.3652 26.0961 16.3652C24.2693 16.3652 22.9226 17.7298 22.9226 19.5371C22.9226 19.9981 23.015 20.4221 23.1624 20.7908L19.4351 23.6487C18.6973 22.5423 17.4795 21.7677 16.0958 21.7677C13.8394 21.762 12.0056 23.5866 12.0001 25.843C12 25.8492 12 25.8553 12.0001 25.8615C11.9958 28.1179 13.8215 29.9506 16.0779 29.9549H16.0959C16.9446 29.9549 17.7377 29.7341 18.3836 29.3284L25.6533 32.426C25.7458 34.1407 27.074 35.4129 28.8262 35.4129C30.6534 35.4129 32 34.0487 32 32.2416C32 30.4345 30.6344 29.0513 28.8267 29.0513H28.8263L28.8262 29.0512Z" fill="url(#paint1_linear_3341_14880)"/>
    <path d="M28.8262 29.0512C27.517 29.0512 26.4466 29.752 25.9481 30.84L19.6199 28.1482C19.9891 27.5764 20.1919 26.8755 20.1919 26.1197C20.1919 25.8066 20.1549 25.4929 20.081 25.1978L24.1215 22.063C24.6568 22.4686 25.3397 22.7083 26.0961 22.7083C27.9227 22.7083 29.2878 21.3437 29.2878 19.5371C29.2878 17.7299 27.9223 16.3652 26.0961 16.3652C24.2693 16.3652 22.9226 17.7298 22.9226 19.5371C22.9226 19.9981 23.015 20.4221 23.1624 20.7908L19.4351 23.6487C18.6973 22.5423 17.4795 21.7677 16.0958 21.7677C13.8394 21.762 12.0056 23.5866 12.0001 25.843C12 25.8492 12 25.8553 12.0001 25.8615C11.9958 28.1179 13.8215 29.9506 16.0779 29.9549H16.0959C16.9446 29.9549 17.7377 29.7341 18.3836 29.3284L25.6533 32.426C25.7458 34.1407 27.074 35.4129 28.8262 35.4129C30.6534 35.4129 32 34.0487 32 32.2416C32 30.4345 30.6344 29.0513 28.8267 29.0513H28.8263L28.8262 29.0512Z" fill="url(#paint2_linear_3341_14880)"/>
  </g>
  <rect x="0.25" y="1.13867" width="45.5" height="45.5" rx="11.75" stroke="url(#paint3_linear_3341_14880)" stroke-width="0.5"/>
  <defs>
    <filter id="filter0_f_3341_14880" x="-6.00156" y="27.6527" width="58.0031" height="37.8" filterUnits="userSpaceOnUse" color-interpolation-filters="sRGB">
      <feFlood flood-opacity="0" result="BackgroundImageFix"/>
      <feBlend mode="normal" in="SourceGraphic" in2="BackgroundImageFix" result="shape"/>
      <feGaussianBlur stdDeviation="7.2" result="effect1_foregroundBlur_3341_14880"/>
    </filter>
    <linearGradient id="paint0_linear_3341_14880" x1="23" y1="0.888672" x2="23" y2="46.8887" gradientUnits="userSpaceOnUse">
      <stop stop-color="#242529"/>
      <stop offset="0.978207" stop-color="#060606"/>
    </linearGradient>
    <linearGradient id="paint1_linear_3341_14880" x1="31.5833" y1="35.827" x2="19.5967" y2="19.6064" gradientUnits="userSpaceOnUse">
      <stop stop-color="white"/>
      <stop offset="1" stop-color="white"/>
    </linearGradient>
    <linearGradient id="paint2_linear_3341_14880" x1="15.4615" y1="34.651" x2="29.917" y2="17.7522" gradientUnits="userSpaceOnUse">
      <stop stop-color="#27E6FF"/>
      <stop offset="1" stop-color="white" stop-opacity="0.6"/>
    </linearGradient>
    <linearGradient id="paint3_linear_3341_14880" x1="23" y1="0.888672" x2="23" y2="46.8887" gradientUnits="userSpaceOnUse">
      <stop offset="0.271998" stop-color="white" stop-opacity="0.11"/>
      <stop offset="1" stop-color="white" stop-opacity="0.02"/>
    </linearGradient>
    <clipPath id="clip0_3341_14880">
      <rect y="0.888672" width="46" height="46" rx="12" fill="white"/>
    </clipPath>
  </defs>
</svg>