<svg xmlns="http://www.w3.org/2000/svg" width="46" height="47" viewBox="0 0 46 47" fill="none">
  <g clip-path="url(#clip0_3341_14891)">
    <rect y="0.888672" width="46" height="46" rx="12" fill="url(#paint0_linear_3341_14891)"/>
    <g filter="url(#filter0_f_3341_14891)">
      <ellipse cx="23" cy="46.5527" rx="14.6016" ry="4.5" fill="#42778D"/>
    </g>
    <path d="M18.7486 33.2194C18.6656 33.2194 18.5821 33.2021 18.5038 33.1667C18.2962 33.073 18.1629 32.8694 18.1629 32.645V30.1968C18.1629 29.8928 17.9107 29.6456 17.6002 29.6456H14.7342C13.7779 29.6456 13 28.8826 13 27.9454V16.253C13 15.3156 13.7779 14.5527 14.7342 14.5527H31.2664C32.2221 14.5527 33 15.3156 33 16.253V27.9455C33 28.8827 32.2221 29.6457 31.2664 29.6457H23.4249C23.2905 29.6457 23.1601 29.6925 23.0578 29.7792L19.1296 33.0811C19.0214 33.1722 18.8859 33.2194 18.7486 33.2194Z" fill="url(#paint1_linear_3341_14891)"/>
    <path d="M18.7486 33.2194C18.6656 33.2194 18.5821 33.2021 18.5038 33.1667C18.2962 33.073 18.1629 32.8694 18.1629 32.645V30.1968C18.1629 29.8928 17.9107 29.6456 17.6002 29.6456H14.7342C13.7779 29.6456 13 28.8826 13 27.9454V16.253C13 15.3156 13.7779 14.5527 14.7342 14.5527H31.2664C32.2221 14.5527 33 15.3156 33 16.253V27.9455C33 28.8827 32.2221 29.6457 31.2664 29.6457H23.4249C23.2905 29.6457 23.1601 29.6925 23.0578 29.7792L19.1296 33.0811C19.0214 33.1722 18.8859 33.2194 18.7486 33.2194Z" fill="url(#paint2_linear_3341_14891)"/>
    <path fill-rule="evenodd" clip-rule="evenodd" d="M16.6665 19.8813C16.6665 19.3291 17.1142 18.8813 17.6665 18.8813H24.3332C24.8855 18.8813 25.3332 19.3291 25.3332 19.8813C25.3332 20.4336 24.8855 20.8813 24.3332 20.8813H17.6665C17.1142 20.8813 16.6665 20.4336 16.6665 19.8813Z" fill="#17181C"/>
    <path fill-rule="evenodd" clip-rule="evenodd" d="M16.6665 24.5493C16.6665 23.997 17.1142 23.5493 17.6665 23.5493H28.3332C28.8855 23.5493 29.3332 23.997 29.3332 24.5493C29.3332 25.1016 28.8855 25.5493 28.3332 25.5493H17.6665C17.1142 25.5493 16.6665 25.1016 16.6665 24.5493Z" fill="#17181C"/>
  </g>
  <rect x="0.25" y="1.13867" width="45.5" height="45.5" rx="11.75" stroke="url(#paint3_linear_3341_14891)" stroke-width="0.5"/>
  <defs>
    <filter id="filter0_f_3341_14891" x="-6.00156" y="27.6527" width="58.0031" height="37.8" filterUnits="userSpaceOnUse" color-interpolation-filters="sRGB">
      <feFlood flood-opacity="0" result="BackgroundImageFix"/>
      <feBlend mode="normal" in="SourceGraphic" in2="BackgroundImageFix" result="shape"/>
      <feGaussianBlur stdDeviation="7.2" result="effect1_foregroundBlur_3341_14891"/>
    </filter>
    <linearGradient id="paint0_linear_3341_14891" x1="23" y1="0.888672" x2="23" y2="46.8887" gradientUnits="userSpaceOnUse">
      <stop stop-color="#242529"/>
      <stop offset="0.978207" stop-color="#060606"/>
    </linearGradient>
    <linearGradient id="paint1_linear_3341_14891" x1="32.5833" y1="33.6252" x2="20.9082" y2="17.5035" gradientUnits="userSpaceOnUse">
      <stop stop-color="white"/>
      <stop offset="1" stop-color="white"/>
    </linearGradient>
    <linearGradient id="paint2_linear_3341_14891" x1="16.4615" y1="32.4727" x2="30.5808" y2="15.6301" gradientUnits="userSpaceOnUse">
      <stop stop-color="#27E6FF"/>
      <stop offset="1" stop-color="white" stop-opacity="0.6"/>
    </linearGradient>
    <linearGradient id="paint3_linear_3341_14891" x1="23" y1="0.888672" x2="23" y2="46.8887" gradientUnits="userSpaceOnUse">
      <stop offset="0.271998" stop-color="white" stop-opacity="0.11"/>
      <stop offset="1" stop-color="white" stop-opacity="0.02"/>
    </linearGradient>
    <clipPath id="clip0_3341_14891">
      <rect y="0.888672" width="46" height="46" rx="12" fill="white"/>
    </clipPath>
  </defs>
</svg>