<svg xmlns="http://www.w3.org/2000/svg" width="46" height="47" viewBox="0 0 46 47" fill="none">
  <g clip-path="url(#clip0_3341_14827)">
    <rect y="0.888672" width="46" height="46" rx="12" fill="url(#paint0_linear_3341_14827)"/>
    <g filter="url(#filter0_f_3341_14827)">
      <ellipse cx="23" cy="46.5527" rx="14.6016" ry="4.5" fill="#42778D"/>
    </g>
    <path fill-rule="evenodd" clip-rule="evenodd" d="M21.3076 19.7436C23.3456 17.4447 25.0173 15.5818 28.2267 15.1269C28.7678 15.0505 29.3195 15.0255 29.866 15.0215C30.0438 15.0198 30.2216 15.0637 30.423 15.1136L30.4231 15.1136C30.5236 15.1384 30.63 15.1647 30.7453 15.1875C30.5623 15.48 30.4389 15.6764 30.3156 15.8727C29.1644 17.0637 28.5304 18.5447 27.9362 20.0493C27.8624 20.2367 27.7862 20.4233 27.7101 20.6098L27.6431 20.774C27.5457 20.92 27.44 21.0627 27.3343 21.2055C27.1062 21.5136 26.8779 21.8219 26.732 22.164C25.923 24.0665 24.5171 25.3169 22.6073 26.0376C22.1975 26.1917 22.0808 26.4552 22.0874 26.836C21.8004 26.8776 21.5134 26.9195 21.2262 26.9614L21.2248 26.9616L21.2233 26.9619L21.221 26.9622L21.2206 26.9622L21.2203 26.9623C20.8911 27.0103 20.5617 27.0584 20.232 27.1061C20.2326 27.1397 20.2336 27.1733 20.2346 27.2069V27.2069V27.2069C20.2356 27.2405 20.2366 27.2741 20.2373 27.3077C21.3244 27.7247 22.4393 27.5811 23.5546 27.4375C23.7291 27.4151 23.9037 27.3926 24.0781 27.3723C23.9644 27.5355 23.8599 27.7102 23.7554 27.8848C23.526 28.2682 23.2965 28.6517 22.9694 28.9151C21.7214 29.9191 20.2213 30.313 18.6232 30.4224C17.5516 30.4962 16.651 30.9323 16.0622 31.9046C15.7014 32.5002 15.2744 33.0575 14.8486 33.6109C14.7868 33.6913 14.6682 33.7283 14.5498 33.7653C14.496 33.7821 14.4423 33.7989 14.3939 33.8197V33.8206C14.4427 33.7995 14.4971 33.7825 14.5516 33.7656C14.6703 33.7286 14.7892 33.6915 14.8501 33.6111C15.2759 33.0578 15.7029 32.5004 16.0637 31.9049C16.6525 30.9326 17.5531 30.4964 18.6247 30.4227C20.2228 30.3133 21.7228 29.9194 22.9709 28.9154C23.298 28.652 23.5275 28.2685 23.7569 27.8851C23.8614 27.7104 23.9659 27.5358 24.0796 27.3725C24.228 27.3214 24.3767 27.2699 24.5408 27.2131L24.5417 27.2128L24.5448 27.2117C24.7347 27.146 24.9454 27.0731 25.2003 26.9852C24.9576 27.9285 24.5677 28.5926 24.0451 29.2079C22.8515 30.6163 21.2679 31.2132 19.4921 31.2685C17.8714 31.3199 16.9045 32.1513 16.195 33.4899C15.7679 34.2963 15.2666 35.0683 14.748 35.8233C14.5331 36.1369 14.2095 36.3925 13.8912 36.6112C13.8778 36.6205 13.8634 36.6284 13.8482 36.6351C13.5679 36.7589 13.1551 36.3939 13.2811 36.1145C13.5438 35.5334 13.8273 34.962 14.111 34.3902L14.111 34.3901C14.2052 34.2003 14.2994 34.0104 14.3928 33.8202L14.3924 33.8203C14.5951 33.3638 14.7945 32.9055 14.9938 32.4473L14.9939 32.4471C15.4296 31.4454 15.8654 30.4437 16.3367 29.4593C16.7332 28.6308 17.116 27.7809 17.5013 26.9256L17.5013 26.9256C18.6197 24.4425 19.758 21.9152 21.3076 19.7436ZM25.295 34.5895C25.2938 34.5966 25.2927 34.6037 25.2917 34.6108C25.2924 34.6113 25.2931 34.6118 25.2938 34.6124C25.2924 34.6437 25.2917 34.6752 25.2917 34.7069C25.2917 35.8385 26.209 36.7559 27.3406 36.7559C28.4722 36.7559 29.3896 35.8385 29.3896 34.7069C29.3896 33.5753 28.4722 32.6579 27.3406 32.6579C26.2484 32.6579 25.3558 33.5125 25.295 34.5895ZM22.0881 26.8394C22.0815 26.4573 22.1982 26.1951 22.608 26.0409C24.5178 25.3202 25.9237 24.0699 26.7327 22.1673C26.8795 21.8223 27.1089 21.5127 27.3384 21.2032L27.3384 21.2032C27.4428 21.0623 27.5472 20.9215 27.6438 20.7773C27.4849 21.1728 27.3366 21.5742 27.1883 21.9756C26.854 22.8806 26.5196 23.7858 26.0629 24.6245C25.2433 26.1305 23.7168 26.6338 22.0894 26.8394H22.0881Z" fill="url(#paint1_linear_3341_14827)"/>
    <path fill-rule="evenodd" clip-rule="evenodd" d="M21.3076 19.7436C23.3456 17.4447 25.0173 15.5818 28.2267 15.1269C28.7678 15.0505 29.3195 15.0255 29.866 15.0215C30.0438 15.0198 30.2216 15.0637 30.423 15.1136L30.4231 15.1136C30.5236 15.1384 30.63 15.1647 30.7453 15.1875C30.5623 15.48 30.4389 15.6764 30.3156 15.8727C29.1644 17.0637 28.5304 18.5447 27.9362 20.0493C27.8624 20.2367 27.7862 20.4233 27.7101 20.6098L27.6431 20.774C27.5457 20.92 27.44 21.0627 27.3343 21.2055C27.1062 21.5136 26.8779 21.8219 26.732 22.164C25.923 24.0665 24.5171 25.3169 22.6073 26.0376C22.1975 26.1917 22.0808 26.4552 22.0874 26.836C21.8004 26.8776 21.5134 26.9195 21.2262 26.9614L21.2248 26.9616L21.2233 26.9619L21.221 26.9622L21.2206 26.9622L21.2203 26.9623C20.8911 27.0103 20.5617 27.0584 20.232 27.1061C20.2326 27.1397 20.2336 27.1733 20.2346 27.2069V27.2069V27.2069C20.2356 27.2405 20.2366 27.2741 20.2373 27.3077C21.3244 27.7247 22.4393 27.5811 23.5546 27.4375C23.7291 27.4151 23.9037 27.3926 24.0781 27.3723C23.9644 27.5355 23.8599 27.7102 23.7554 27.8848C23.526 28.2682 23.2965 28.6517 22.9694 28.9151C21.7214 29.9191 20.2213 30.313 18.6232 30.4224C17.5516 30.4962 16.651 30.9323 16.0622 31.9046C15.7014 32.5002 15.2744 33.0575 14.8486 33.6109C14.7868 33.6913 14.6682 33.7283 14.5498 33.7653C14.496 33.7821 14.4423 33.7989 14.3939 33.8197V33.8206C14.4427 33.7995 14.4971 33.7825 14.5516 33.7656C14.6703 33.7286 14.7892 33.6915 14.8501 33.6111C15.2759 33.0578 15.7029 32.5004 16.0637 31.9049C16.6525 30.9326 17.5531 30.4964 18.6247 30.4227C20.2228 30.3133 21.7228 29.9194 22.9709 28.9154C23.298 28.652 23.5275 28.2685 23.7569 27.8851C23.8614 27.7104 23.9659 27.5358 24.0796 27.3725C24.228 27.3214 24.3767 27.2699 24.5408 27.2131L24.5417 27.2128L24.5448 27.2117C24.7347 27.146 24.9454 27.0731 25.2003 26.9852C24.9576 27.9285 24.5677 28.5926 24.0451 29.2079C22.8515 30.6163 21.2679 31.2132 19.4921 31.2685C17.8714 31.3199 16.9045 32.1513 16.195 33.4899C15.7679 34.2963 15.2666 35.0683 14.748 35.8233C14.5331 36.1369 14.2095 36.3925 13.8912 36.6112C13.8778 36.6205 13.8634 36.6284 13.8482 36.6351C13.5679 36.7589 13.1551 36.3939 13.2811 36.1145C13.5438 35.5334 13.8273 34.962 14.111 34.3902L14.111 34.3901C14.2052 34.2003 14.2994 34.0104 14.3928 33.8202L14.3924 33.8203C14.5951 33.3638 14.7945 32.9055 14.9938 32.4473L14.9939 32.4471C15.4296 31.4454 15.8654 30.4437 16.3367 29.4593C16.7332 28.6308 17.116 27.7809 17.5013 26.9256L17.5013 26.9256C18.6197 24.4425 19.758 21.9152 21.3076 19.7436ZM25.295 34.5895C25.2938 34.5966 25.2927 34.6037 25.2917 34.6108C25.2924 34.6113 25.2931 34.6118 25.2938 34.6124C25.2924 34.6437 25.2917 34.6752 25.2917 34.7069C25.2917 35.8385 26.209 36.7559 27.3406 36.7559C28.4722 36.7559 29.3896 35.8385 29.3896 34.7069C29.3896 33.5753 28.4722 32.6579 27.3406 32.6579C26.2484 32.6579 25.3558 33.5125 25.295 34.5895ZM22.0881 26.8394C22.0815 26.4573 22.1982 26.1951 22.608 26.0409C24.5178 25.3202 25.9237 24.0699 26.7327 22.1673C26.8795 21.8223 27.1089 21.5127 27.3384 21.2032L27.3384 21.2032C27.4428 21.0623 27.5472 20.9215 27.6438 20.7773C27.4849 21.1728 27.3366 21.5742 27.1883 21.9756C26.854 22.8806 26.5196 23.7858 26.0629 24.6245C25.2433 26.1305 23.7168 26.6338 22.0894 26.8394H22.0881Z" fill="url(#paint2_linear_3341_14827)"/>
  </g>
  <rect x="0.25" y="1.13867" width="45.5" height="45.5" rx="11.75" stroke="url(#paint3_linear_3341_14827)" stroke-width="0.5"/>
  <defs>
    <filter id="filter0_f_3341_14827" x="-6.00156" y="27.6527" width="58.0031" height="37.8" filterUnits="userSpaceOnUse" color-interpolation-filters="sRGB">
      <feFlood flood-opacity="0" result="BackgroundImageFix"/>
      <feBlend mode="normal" in="SourceGraphic" in2="BackgroundImageFix" result="shape"/>
      <feGaussianBlur stdDeviation="7.2" result="effect1_foregroundBlur_3341_14827"/>
    </filter>
    <linearGradient id="paint0_linear_3341_14827" x1="23" y1="0.888672" x2="23" y2="46.8887" gradientUnits="userSpaceOnUse">
      <stop stop-color="#242529"/>
      <stop offset="0.978207" stop-color="#060606"/>
    </linearGradient>
    <linearGradient id="paint1_linear_3341_14827" x1="30.381" y1="37.2283" x2="14.222" y2="23.0034" gradientUnits="userSpaceOnUse">
      <stop stop-color="white"/>
      <stop offset="1" stop-color="white"/>
    </linearGradient>
    <linearGradient id="paint2_linear_3341_14827" x1="16.2845" y1="35.8865" x2="32.8799" y2="21.0202" gradientUnits="userSpaceOnUse">
      <stop stop-color="#27E6FF"/>
      <stop offset="1" stop-color="white" stop-opacity="0.6"/>
    </linearGradient>
    <linearGradient id="paint3_linear_3341_14827" x1="23" y1="0.888672" x2="23" y2="46.8887" gradientUnits="userSpaceOnUse">
      <stop offset="0.271998" stop-color="white" stop-opacity="0.11"/>
      <stop offset="1" stop-color="white" stop-opacity="0.02"/>
    </linearGradient>
    <clipPath id="clip0_3341_14827">
      <rect y="0.888672" width="46" height="46" rx="12" fill="white"/>
    </clipPath>
  </defs>
</svg>