<svg xmlns="http://www.w3.org/2000/svg" width="46" height="47" viewBox="0 0 46 47" fill="none">
  <g clip-path="url(#clip0_3341_14854)">
    <rect y="0.888672" width="46" height="46" rx="12" fill="url(#paint0_linear_3341_14854)"/>
    <g filter="url(#filter0_f_3341_14854)">
      <ellipse cx="23" cy="46.5527" rx="14.6016" ry="4.5" fill="#42778D"/>
    </g>
    <path d="M32.9832 16.6497C33.139 15.6428 32.1817 14.8481 31.2865 15.2412L13.456 23.0697C12.814 23.3515 12.861 24.324 13.5268 24.536L17.2039 25.707C17.9057 25.9305 18.6656 25.8149 19.2785 25.3915L27.5687 19.664C27.8187 19.4913 28.0912 19.8468 27.8776 20.0669L21.9101 26.2194C21.3312 26.8163 21.4461 27.8277 22.1425 28.2643L28.8237 32.454C29.5731 32.9239 30.5371 32.4519 30.6772 31.5463L32.9832 16.6497Z" fill="url(#paint1_linear_3341_14854)"/>
    <path d="M32.9832 16.6497C33.139 15.6428 32.1817 14.8481 31.2865 15.2412L13.456 23.0697C12.814 23.3515 12.861 24.324 13.5268 24.536L17.2039 25.707C17.9057 25.9305 18.6656 25.8149 19.2785 25.3915L27.5687 19.664C27.8187 19.4913 28.0912 19.8468 27.8776 20.0669L21.9101 26.2194C21.3312 26.8163 21.4461 27.8277 22.1425 28.2643L28.8237 32.454C29.5731 32.9239 30.5371 32.4519 30.6772 31.5463L32.9832 16.6497Z" fill="url(#paint2_linear_3341_14854)"/>
  </g>
  <rect x="0.25" y="1.13867" width="45.5" height="45.5" rx="11.75" stroke="url(#paint3_linear_3341_14854)" stroke-width="0.5"/>
  <defs>
    <filter id="filter0_f_3341_14854" x="-6.00156" y="27.6527" width="58.0031" height="37.8" filterUnits="userSpaceOnUse" color-interpolation-filters="sRGB">
      <feFlood flood-opacity="0" result="BackgroundImageFix"/>
      <feBlend mode="normal" in="SourceGraphic" in2="BackgroundImageFix" result="shape"/>
      <feGaussianBlur stdDeviation="7.2" result="effect1_foregroundBlur_3341_14854"/>
    </filter>
    <linearGradient id="paint0_linear_3341_14854" x1="23" y1="0.888672" x2="23" y2="46.8887" gradientUnits="userSpaceOnUse">
      <stop stop-color="#242529"/>
      <stop offset="0.978207" stop-color="#060606"/>
    </linearGradient>
    <linearGradient id="paint1_linear_3341_14854" x1="32.5833" y1="33.0191" x2="23.2019" y2="19.6398" gradientUnits="userSpaceOnUse">
      <stop stop-color="white"/>
      <stop offset="1" stop-color="white"/>
    </linearGradient>
    <linearGradient id="paint2_linear_3341_14854" x1="16.4615" y1="31.9386" x2="29.5238" y2="15.3181" gradientUnits="userSpaceOnUse">
      <stop stop-color="#27E6FF"/>
      <stop offset="1" stop-color="white" stop-opacity="0.6"/>
    </linearGradient>
    <linearGradient id="paint3_linear_3341_14854" x1="23" y1="0.888672" x2="23" y2="46.8887" gradientUnits="userSpaceOnUse">
      <stop offset="0.271998" stop-color="white" stop-opacity="0.11"/>
      <stop offset="1" stop-color="white" stop-opacity="0.02"/>
    </linearGradient>
    <clipPath id="clip0_3341_14854">
      <rect y="0.888672" width="46" height="46" rx="12" fill="white"/>
    </clipPath>
  </defs>
</svg>