<svg width="46" height="46" viewBox="0 0 46 46" fill="none" xmlns="http://www.w3.org/2000/svg">
<g clip-path="url(#clip0_5334_12064)">
<rect width="46" height="46" rx="12" fill="url(#paint0_linear_5334_12064)"/>
<g filter="url(#filter0_f_5334_12064)">
<ellipse cx="23" cy="45.6641" rx="14.6016" ry="4.5" fill="#42778D"/>
</g>
<path d="M23.5 11C16.5971 11 11 16.7422 11 23.8181C11 29.4821 14.5826 34.2812 19.5491 35.9777C19.6272 35.9944 19.6942 36 19.7612 36C20.2243 36 20.4029 35.6596 20.4029 35.3638C20.4029 35.0569 20.3917 34.2533 20.3862 33.1819C19.9174 33.2879 19.4989 33.3326 19.125 33.3326C16.7199 33.3326 16.173 31.4632 16.173 31.4632C15.6038 29.9844 14.7835 29.5882 14.7835 29.5882C13.6953 28.8237 14.7779 28.8013 14.8616 28.8013H14.8672C16.1228 28.9129 16.7813 30.1295 16.7813 30.1295C17.4063 31.2232 18.2433 31.5301 18.9911 31.5301C19.577 31.5301 20.1071 31.3404 20.4196 31.1953C20.5312 30.3694 20.8549 29.8058 21.2121 29.4821C18.4386 29.1585 15.5201 28.0592 15.5201 23.1484C15.5201 21.7478 16.0056 20.6038 16.8036 19.7109C16.6752 19.3873 16.2455 18.0815 16.9263 16.3181C16.9263 16.3181 17.0156 16.2902 17.2054 16.2902C17.6574 16.2902 18.6786 16.4632 20.3638 17.635C21.3627 17.3504 22.4286 17.2109 23.4944 17.2054C24.5547 17.2109 25.6261 17.3504 26.625 17.635C28.3103 16.4632 29.3315 16.2902 29.7835 16.2902C29.9732 16.2902 30.0625 16.3181 30.0625 16.3181C30.7433 18.0815 30.3136 19.3873 30.1853 19.7109C30.9833 20.6094 31.4688 21.7533 31.4688 23.1484C31.4688 28.0703 28.5446 29.1529 25.76 29.471C26.2065 29.8672 26.6083 30.6484 26.6083 31.8426C26.6083 33.5558 26.5915 34.9397 26.5915 35.3583C26.5915 35.6596 26.7645 36 27.2277 36C27.2946 36 27.3728 35.9944 27.4509 35.9777C32.423 34.2812 36 29.4766 36 23.8181C36 16.7422 30.4029 11 23.5 11Z" fill="url(#paint1_linear_5334_12064)"/>
<path d="M23.5 11C16.5971 11 11 16.7422 11 23.8181C11 29.4821 14.5826 34.2812 19.5491 35.9777C19.6272 35.9944 19.6942 36 19.7612 36C20.2243 36 20.4029 35.6596 20.4029 35.3638C20.4029 35.0569 20.3917 34.2533 20.3862 33.1819C19.9174 33.2879 19.4989 33.3326 19.125 33.3326C16.7199 33.3326 16.173 31.4632 16.173 31.4632C15.6038 29.9844 14.7835 29.5882 14.7835 29.5882C13.6953 28.8237 14.7779 28.8013 14.8616 28.8013H14.8672C16.1228 28.9129 16.7813 30.1295 16.7813 30.1295C17.4063 31.2232 18.2433 31.5301 18.9911 31.5301C19.577 31.5301 20.1071 31.3404 20.4196 31.1953C20.5312 30.3694 20.8549 29.8058 21.2121 29.4821C18.4386 29.1585 15.5201 28.0592 15.5201 23.1484C15.5201 21.7478 16.0056 20.6038 16.8036 19.7109C16.6752 19.3873 16.2455 18.0815 16.9263 16.3181C16.9263 16.3181 17.0156 16.2902 17.2054 16.2902C17.6574 16.2902 18.6786 16.4632 20.3638 17.635C21.3627 17.3504 22.4286 17.2109 23.4944 17.2054C24.5547 17.2109 25.6261 17.3504 26.625 17.635C28.3103 16.4632 29.3315 16.2902 29.7835 16.2902C29.9732 16.2902 30.0625 16.3181 30.0625 16.3181C30.7433 18.0815 30.3136 19.3873 30.1853 19.7109C30.9833 20.6094 31.4688 21.7533 31.4688 23.1484C31.4688 28.0703 28.5446 29.1529 25.76 29.471C26.2065 29.8672 26.6083 30.6484 26.6083 31.8426C26.6083 33.5558 26.5915 34.9397 26.5915 35.3583C26.5915 35.6596 26.7645 36 27.2277 36C27.2946 36 27.3728 35.9944 27.4509 35.9777C32.423 34.2812 36 29.4766 36 23.8181C36 16.7422 30.4029 11 23.5 11Z" fill="url(#paint2_linear_5334_12064)"/>
</g>
<rect x="0.25" y="0.25" width="45.5" height="45.5" rx="11.75" stroke="url(#paint3_linear_5334_12064)" stroke-width="0.5"/>
<defs>
<filter id="filter0_f_5334_12064" x="-6.00156" y="26.7641" width="58.0031" height="37.8" filterUnits="userSpaceOnUse" color-interpolation-filters="sRGB">
<feFlood flood-opacity="0" result="BackgroundImageFix"/>
<feBlend mode="normal" in="SourceGraphic" in2="BackgroundImageFix" result="shape"/>
<feGaussianBlur stdDeviation="7.2" result="effect1_foregroundBlur_5334_12064"/>
</filter>
<linearGradient id="paint0_linear_5334_12064" x1="23" y1="0" x2="23" y2="46" gradientUnits="userSpaceOnUse">
<stop stop-color="#242529"/>
<stop offset="0.978207" stop-color="#060606"/>
</linearGradient>
<linearGradient id="paint1_linear_5334_12064" x1="35.4792" y1="36.5435" x2="16.8166" y2="16.1247" gradientUnits="userSpaceOnUse">
<stop stop-color="white"/>
<stop offset="1" stop-color="white"/>
</linearGradient>
<linearGradient id="paint2_linear_5334_12064" x1="15.3269" y1="35" x2="34.4213" y2="13.7411" gradientUnits="userSpaceOnUse">
<stop stop-color="#27E6FF"/>
<stop offset="1" stop-color="white" stop-opacity="0.6"/>
</linearGradient>
<linearGradient id="paint3_linear_5334_12064" x1="23" y1="1.24806e-07" x2="23" y2="46" gradientUnits="userSpaceOnUse">
<stop offset="0.271998" stop-color="white" stop-opacity="0.11"/>
<stop offset="1" stop-color="white" stop-opacity="0.02"/>
</linearGradient>
<clipPath id="clip0_5334_12064">
<rect width="46" height="46" rx="12" fill="white"/>
</clipPath>
</defs>
</svg>
