<svg xmlns="http://www.w3.org/2000/svg" width="46" height="47" viewBox="0 0 46 47" fill="none">
  <g clip-path="url(#clip0_3341_14815)">
    <rect y="0.888672" width="46" height="46" rx="12" fill="url(#paint0_linear_3341_14815)"/>
    <g filter="url(#filter0_f_3341_14815)">
      <ellipse cx="23" cy="46.5527" rx="14.6016" ry="4.5" fill="#42778D"/>
    </g>
    <path d="M28.4636 14.8206H31.3771L25.012 22.5029L32.5 32.9569H26.637L22.0448 26.6166L16.7904 32.9569H13.8752L20.6832 24.7398L13.5 14.8206H19.5119L23.6628 20.6158L28.4636 14.8206ZM27.4411 31.1154H29.0555L18.6347 16.5654H16.9023L27.4411 31.1154Z" fill="url(#paint1_linear_3341_14815)"/>
    <path d="M28.4636 14.8206H31.3771L25.012 22.5029L32.5 32.9569H26.637L22.0448 26.6166L16.7904 32.9569H13.8752L20.6832 24.7398L13.5 14.8206H19.5119L23.6628 20.6158L28.4636 14.8206ZM27.4411 31.1154H29.0555L18.6347 16.5654H16.9023L27.4411 31.1154Z" fill="white"/>
    <path d="M28.4636 14.8206H31.3771L25.012 22.5029L32.5 32.9569H26.637L22.0448 26.6166L16.7904 32.9569H13.8752L20.6832 24.7398L13.5 14.8206H19.5119L23.6628 20.6158L28.4636 14.8206ZM27.4411 31.1154H29.0555L18.6347 16.5654H16.9023L27.4411 31.1154Z" fill="url(#paint2_linear_3341_14815)"/>
  </g>
  <rect x="0.25" y="1.13867" width="45.5" height="45.5" rx="11.75" stroke="url(#paint3_linear_3341_14815)" stroke-width="0.5"/>
  <defs>
    <filter id="filter0_f_3341_14815" x="-6.00156" y="27.6527" width="58.0031" height="37.8" filterUnits="userSpaceOnUse" color-interpolation-filters="sRGB">
      <feFlood flood-opacity="0" result="BackgroundImageFix"/>
      <feBlend mode="normal" in="SourceGraphic" in2="BackgroundImageFix" result="shape"/>
      <feGaussianBlur stdDeviation="7.2" result="effect1_foregroundBlur_3341_14815"/>
    </filter>
    <linearGradient id="paint0_linear_3341_14815" x1="23" y1="0.888672" x2="23" y2="46.8887" gradientUnits="userSpaceOnUse">
      <stop stop-color="#242529"/>
      <stop offset="0.978207" stop-color="#060606"/>
    </linearGradient>
    <linearGradient id="paint1_linear_3341_14815" x1="32.1042" y1="33.3512" x2="20.6835" y2="17.9314" gradientUnits="userSpaceOnUse">
      <stop stop-color="white"/>
      <stop offset="1" stop-color="white"/>
    </linearGradient>
    <linearGradient id="paint2_linear_3341_14815" x1="25.367" y1="32.9569" x2="25.349" y2="6.74007" gradientUnits="userSpaceOnUse">
      <stop stop-color="#27E6FF"/>
      <stop offset="1" stop-color="white" stop-opacity="0.6"/>
    </linearGradient>
    <linearGradient id="paint3_linear_3341_14815" x1="23" y1="0.888672" x2="23" y2="46.8887" gradientUnits="userSpaceOnUse">
      <stop offset="0.271998" stop-color="white" stop-opacity="0.11"/>
      <stop offset="1" stop-color="white" stop-opacity="0.02"/>
    </linearGradient>
    <clipPath id="clip0_3341_14815">
      <rect y="0.888672" width="46" height="46" rx="12" fill="white"/>
    </clipPath>
  </defs>
</svg>