<svg xmlns="http://www.w3.org/2000/svg" width="46" height="47" viewBox="0 0 46 47" fill="none">
  <g clip-path="url(#clip0_3341_14867)">
    <rect y="0.888672" width="46" height="46" rx="8" fill="url(#paint0_linear_3341_14867)"/>
    <g filter="url(#filter0_f_3341_14867)">
      <ellipse cx="23" cy="46.5527" rx="14.6016" ry="4.5" fill="#42778D"/>
    </g>
    <path fill-rule="evenodd" clip-rule="evenodd" d="M33 21.0625C33 17.1933 30.5203 14.3184 26.6512 14.3184C25.254 14.3184 24.3065 14.771 23 15.7973C21.6937 14.7708 20.746 14.3184 19.3487 14.3184C15.4797 14.3184 13 17.1933 13 21.0625C13 24.065 15.932 27.3717 21.7087 31.0874C22.0881 31.3308 22.5386 31.4612 23 31.4612C23.4614 31.4612 23.9119 31.3308 24.2912 31.0874C30.068 27.3717 33 24.065 33 21.0625ZM19.3542 18.4068C19.8999 18.3219 20.2735 17.8107 20.1886 17.265C20.1037 16.7192 19.5925 16.3457 19.0467 16.4306C17.6997 16.6402 16.6681 17.2089 15.9919 18.1099C15.3307 18.9911 15.1003 20.0696 15.1003 21.1389C15.1003 21.6912 15.548 22.1389 16.1003 22.1389C16.6526 22.1389 17.1003 21.6912 17.1003 21.1389C17.1003 20.3354 17.2752 19.7319 17.5916 19.3103C17.8932 18.9085 18.4116 18.5535 19.3542 18.4068Z" fill="#B3C7F1"/>
    <path fill-rule="evenodd" clip-rule="evenodd" d="M33 21.0625C33 17.1933 30.5203 14.3184 26.6512 14.3184C25.254 14.3184 24.3065 14.771 23 15.7973C21.6937 14.7708 20.746 14.3184 19.3487 14.3184C15.4797 14.3184 13 17.1933 13 21.0625C13 24.065 15.932 27.3717 21.7087 31.0874C22.0881 31.3308 22.5386 31.4612 23 31.4612C23.4614 31.4612 23.9119 31.3308 24.2912 31.0874C30.068 27.3717 33 24.065 33 21.0625ZM19.3542 18.4068C19.8999 18.3219 20.2735 17.8107 20.1886 17.265C20.1037 16.7192 19.5925 16.3457 19.0467 16.4306C17.6997 16.6402 16.6681 17.2089 15.9919 18.1099C15.3307 18.9911 15.1003 20.0696 15.1003 21.1389C15.1003 21.6912 15.548 22.1389 16.1003 22.1389C16.6526 22.1389 17.1003 21.6912 17.1003 21.1389C17.1003 20.3354 17.2752 19.7319 17.5916 19.3103C17.8932 18.9085 18.4116 18.5535 19.3542 18.4068Z" fill="url(#paint1_linear_3341_14867)"/>
    <path fill-rule="evenodd" clip-rule="evenodd" d="M33 21.0625C33 17.1933 30.5203 14.3184 26.6512 14.3184C25.254 14.3184 24.3065 14.771 23 15.7973C21.6937 14.7708 20.746 14.3184 19.3487 14.3184C15.4797 14.3184 13 17.1933 13 21.0625C13 24.065 15.932 27.3717 21.7087 31.0874C22.0881 31.3308 22.5386 31.4612 23 31.4612C23.4614 31.4612 23.9119 31.3308 24.2912 31.0874C30.068 27.3717 33 24.065 33 21.0625ZM19.3542 18.4068C19.8999 18.3219 20.2735 17.8107 20.1886 17.265C20.1037 16.7192 19.5925 16.3457 19.0467 16.4306C17.6997 16.6402 16.6681 17.2089 15.9919 18.1099C15.3307 18.9911 15.1003 20.0696 15.1003 21.1389C15.1003 21.6912 15.548 22.1389 16.1003 22.1389C16.6526 22.1389 17.1003 21.6912 17.1003 21.1389C17.1003 20.3354 17.2752 19.7319 17.5916 19.3103C17.8932 18.9085 18.4116 18.5535 19.3542 18.4068Z" fill="url(#paint2_linear_3341_14867)"/>
  </g>
  <rect x="0.25" y="1.13867" width="45.5" height="45.5" rx="7.75" stroke="url(#paint3_linear_3341_14867)" stroke-width="0.5"/>
  <defs>
    <filter id="filter0_f_3341_14867" x="-6.00156" y="27.6527" width="58.0031" height="37.8" filterUnits="userSpaceOnUse" color-interpolation-filters="sRGB">
      <feFlood flood-opacity="0" result="BackgroundImageFix"/>
      <feBlend mode="normal" in="SourceGraphic" in2="BackgroundImageFix" result="shape"/>
      <feGaussianBlur stdDeviation="7.2" result="effect1_foregroundBlur_3341_14867"/>
    </filter>
    <linearGradient id="paint0_linear_3341_14867" x1="23" y1="0.888672" x2="23" y2="46.8887" gradientUnits="userSpaceOnUse">
      <stop stop-color="#242529"/>
      <stop offset="0.978207" stop-color="#060606"/>
    </linearGradient>
    <linearGradient id="paint1_linear_3341_14867" x1="32.5833" y1="31.8339" x2="22.1758" y2="16.1852" gradientUnits="userSpaceOnUse">
      <stop stop-color="white"/>
      <stop offset="1" stop-color="white"/>
    </linearGradient>
    <linearGradient id="paint2_linear_3341_14867" x1="16.4615" y1="30.7755" x2="29.1925" y2="14.239" gradientUnits="userSpaceOnUse">
      <stop stop-color="#27E6FF"/>
      <stop offset="1" stop-color="white" stop-opacity="0.6"/>
    </linearGradient>
    <linearGradient id="paint3_linear_3341_14867" x1="23" y1="0.888672" x2="23" y2="46.8887" gradientUnits="userSpaceOnUse">
      <stop offset="0.271998" stop-color="white" stop-opacity="0.11"/>
      <stop offset="1" stop-color="white" stop-opacity="0.02"/>
    </linearGradient>
    <clipPath id="clip0_3341_14867">
      <rect y="0.888672" width="46" height="46" rx="8" fill="white"/>
    </clipPath>
  </defs>
</svg>