<svg width="14" height="14" viewBox="0 0 14 14" fill="none" xmlns="http://www.w3.org/2000/svg">
<g clip-path="url(#clip0_8457_2117)">
<path d="M3.97314 11.6699C4.8173 12.3011 5.86537 12.6748 7.00049 12.6748C8.13433 12.6746 9.18044 12.301 10.0239 11.6709C10.1859 11.9969 10.4113 12.2853 10.687 12.5176C9.66037 13.291 8.38484 13.7518 7.00049 13.752L6.68408 13.7441C5.42005 13.68 4.25688 13.2333 3.30811 12.5176C3.58466 12.2851 3.81081 11.9966 3.97314 11.6699ZM4.40186 2.05566C4.46354 2.42187 4.5993 2.76209 4.79541 3.06055C3.10564 3.87988 1.94099 5.61234 1.94092 7.61621C1.94093 7.70688 1.94206 7.79722 1.94678 7.88672C1.83826 7.87308 1.72793 7.86428 1.61572 7.86426C1.35842 7.86426 1.10961 7.90194 0.874512 7.9707C0.873772 7.95773 0.872241 7.94463 0.871582 7.93164L0.86377 7.61621C0.863839 5.1561 2.31171 3.03412 4.40186 2.05566ZM9.59717 2.05566C11.6875 3.03403 13.1362 5.15585 13.1362 7.61621L13.1284 7.93164C13.1278 7.94399 13.1252 7.95642 13.1245 7.96875C12.8896 7.90012 12.6414 7.86234 12.3843 7.8623C12.2715 7.86232 12.1603 7.87102 12.0513 7.88477C12.0559 7.79589 12.0591 7.70625 12.0591 7.61621C12.059 5.61207 10.8936 3.87975 9.20361 3.06055C9.3997 2.76206 9.53551 2.42193 9.59717 2.05566Z" fill="#27E6FF"/>
<path d="M7 0C7.89207 3.86519e-05 8.61515 0.723175 8.61523 1.61523C8.61523 2.30523 8.18202 2.89254 7.57324 3.12402V4.36914C8.7847 4.63192 9.69238 5.70985 9.69238 7C9.69237 7.31699 9.63383 7.6199 9.5332 7.90234L11.5303 9.12988C11.7782 8.97503 12.0709 8.88477 12.3848 8.88477C13.2767 8.88492 13.9999 9.60806 14 10.5C14 11.3921 13.2768 12.1151 12.3848 12.1152C11.4926 12.1152 10.7695 11.3922 10.7695 10.5C10.7696 10.3178 10.7998 10.1429 10.8555 9.97949L8.97461 8.82422C8.48277 9.35634 7.78174 9.69236 7 9.69238C6.25062 9.69238 5.57306 9.38567 5.08496 8.8916L3.18262 10.1152C3.21284 10.2387 3.23045 10.3672 3.23047 10.5C3.23047 11.3922 2.50739 12.1152 1.61523 12.1152C0.723151 12.1152 0 11.3921 0 10.5C0.000129088 9.60801 0.723231 8.88485 1.61523 8.88477C1.98219 8.88477 2.31959 9.0087 2.59082 9.21484L4.49805 7.98926C4.37675 7.68276 4.30763 7.34965 4.30762 7C4.30762 5.685 5.25056 4.59105 6.49707 4.35547V3.14941C5.85137 2.93788 5.38477 2.33165 5.38477 1.61523C5.38485 0.723151 6.1079 0 7 0Z" fill="#27E6FF"/>
</g>
<defs>
<clipPath id="clip0_8457_2117">
<rect width="14" height="14" fill="white"/>
</clipPath>
</defs>
</svg>
