<svg width="30" height="30" viewBox="0 0 30 30" fill="none" xmlns="http://www.w3.org/2000/svg">
<g clip-path="url(#clip0_6514_1755)">
<path d="M8.57324 20.2803H21.4268V17.0664H21.8857C22.1293 17.0664 22.363 17.1637 22.5352 17.3359C22.7072 17.508 22.8046 17.741 22.8047 17.9844V21.6572C22.8047 21.9007 22.7073 22.1345 22.5352 22.3066C22.363 22.4787 22.1292 22.5752 21.8857 22.5752H8.11328C7.87002 22.5751 7.63691 22.4786 7.46484 22.3066C7.29265 22.1345 7.19531 21.9007 7.19531 21.6572V17.9844C7.1954 17.741 7.29277 17.508 7.46484 17.3359C7.63693 17.1639 7.86993 17.0665 8.11328 17.0664H8.57324V20.2803ZM18.6729 7.42578C18.9138 7.42581 19.1524 7.47327 19.375 7.56543C19.5978 7.6577 19.8002 7.79339 19.9707 7.96387C20.1412 8.13439 20.2769 8.33678 20.3691 8.55957C20.4613 8.7822 20.5087 9.02075 20.5088 9.26172V19.3623H9.49121V9.26172C9.49126 9.02075 9.53866 8.78221 9.63086 8.55957C9.72314 8.33678 9.85878 8.13439 10.0293 7.96387C10.1998 7.7934 10.4023 7.65769 10.625 7.56543C10.8476 7.47328 11.0862 7.4258 11.3271 7.42578H18.6729ZM14.4131 9.49707V10.2178C13.9316 10.2937 13.5744 10.4632 13.2656 10.7197C12.9116 11.0142 12.6973 11.495 12.6973 11.9697C12.6973 12.4853 12.7767 12.9674 13.1006 13.3145V13.3154C13.1878 13.4097 13.323 13.4975 13.4717 13.5771C13.623 13.6582 13.8004 13.7368 13.9824 13.8076C14.3465 13.9492 14.7406 14.0659 15.0039 14.124C15.235 14.1754 15.4521 14.2718 15.6084 14.3984C15.7642 14.5248 15.8503 14.6726 15.8516 14.832V14.833C15.8537 15.0418 15.7604 15.1795 15.624 15.2705C15.4812 15.3656 15.2865 15.411 15.1025 15.4111C14.4822 15.4111 14.1006 14.9598 14.1006 14.6133V14.4404L13.9316 14.4805L12.585 14.8047L12.459 14.835L12.4834 14.9619C12.5617 15.3825 12.6826 15.7447 13.0303 16.0781L13.1934 16.2197C13.5221 16.4799 13.9062 16.6415 14.4131 16.7158V17.5703H15.5811V16.7314C16.0673 16.669 16.4805 16.4759 16.8232 16.2266H16.8242C17.0474 16.0624 17.2237 15.8708 17.3428 15.6387C17.4617 15.4065 17.5205 15.1402 17.5205 14.8311C17.5205 14.3273 17.3564 13.9021 17.0254 13.5645V13.5635L16.8857 13.4375C16.5217 13.141 15.8969 12.8315 15.125 12.5898C14.8616 12.5066 14.678 12.4384 14.5586 12.3525C14.5021 12.3118 14.4639 12.27 14.4395 12.2236C14.4151 12.1772 14.3994 12.1183 14.3994 12.0391C14.3994 11.8005 14.4747 11.6833 14.5703 11.6172C14.6768 11.5438 14.8385 11.5127 15.0508 11.5127C15.1748 11.513 15.3537 11.5919 15.5078 11.7227C15.5824 11.786 15.6454 11.8565 15.6885 11.9258C15.7321 11.9962 15.751 12.0585 15.751 12.1064V12.2773L15.918 12.2393L17.2627 11.9277L17.3682 11.9033V11.7949C17.3681 11.6382 17.3088 11.4476 17.2051 11.2588C17.0999 11.0675 16.9441 10.8674 16.7383 10.6934H16.7373C16.4283 10.4343 16.0382 10.2785 15.5811 10.2129V9.49707H14.4131ZM15.4443 16.6113V17.4336H15.4434V16.6113C15.5073 16.6063 15.5704 16.5985 15.6318 16.5889C15.5706 16.5985 15.5081 16.6063 15.4443 16.6113ZM17.3838 14.8311C17.3838 14.9039 17.3799 14.9739 17.373 15.041C17.3667 15.1036 17.356 15.1637 17.3438 15.2217C17.3692 15.1015 17.3828 14.9719 17.3828 14.8311H17.3838ZM16.9287 13.6592C17.0426 13.7754 17.135 13.9031 17.2061 14.042L17.2695 14.1846C17.1937 13.9894 17.0797 13.8141 16.9277 13.6592C16.8905 13.6215 16.8474 13.5838 16.7998 13.5449C16.8476 13.5839 16.8914 13.6214 16.9287 13.6592ZM15.4023 12.8262C15.4924 12.8583 15.5797 12.8912 15.6641 12.9248C15.5795 12.8911 15.4917 12.8584 15.4014 12.8262L15.084 12.7197L15.4023 12.8262ZM14.2637 12.0391L14.2764 12.167C14.2678 12.1277 14.2627 12.0853 14.2627 12.0391H14.2637ZM17.2227 11.6924C17.2289 11.7289 17.2324 11.7632 17.2324 11.7949L15.8877 12.1064L15.8867 12.1055L17.2314 11.7949L17.2227 11.6924ZM15.4443 9.63379V10.333C15.5056 10.3395 15.5655 10.3478 15.624 10.3574C15.5653 10.3477 15.5048 10.3395 15.4434 10.333V9.63379H15.4443Z" fill="white"/>
<g filter="url(#filter0_f_6514_1755)">
<ellipse cx="15.3984" cy="31.7227" rx="14.6016" ry="4.5" fill="white" fill-opacity="0.44"/>
</g>
</g>
<rect x="0.5" y="0.5" width="29" height="29" rx="7.5" stroke="url(#paint0_linear_6514_1755)"/>
<defs>
<filter id="filter0_f_6514_1755" x="-13.6031" y="12.8227" width="58.0031" height="37.8" filterUnits="userSpaceOnUse" color-interpolation-filters="sRGB">
<feFlood flood-opacity="0" result="BackgroundImageFix"/>
<feBlend mode="normal" in="SourceGraphic" in2="BackgroundImageFix" result="shape"/>
<feGaussianBlur stdDeviation="7.2" result="effect1_foregroundBlur_6514_1755"/>
</filter>
<linearGradient id="paint0_linear_6514_1755" x1="15" y1="8.13951e-08" x2="15" y2="30" gradientUnits="userSpaceOnUse">
<stop offset="0.271998" stop-color="white" stop-opacity="0.31"/>
<stop offset="1" stop-color="white" stop-opacity="0.02"/>
</linearGradient>
<clipPath id="clip0_6514_1755">
<rect width="30" height="30" rx="8" fill="white"/>
</clipPath>
</defs>
</svg>
