<svg width="22" height="22" viewBox="0 0 22 22" fill="none" xmlns="http://www.w3.org/2000/svg">
<g clip-path="url(#clip0_2120_10699)">
<path d="M22 11.2755C22 13.7322 21.3006 15.9418 19.9017 17.9043C18.5028 19.8667 16.6957 21.2248 14.4805 21.9784C14.2227 22.0273 14.0341 21.9931 13.9147 21.8756C13.7954 21.7582 13.7357 21.6114 13.7357 21.4352V18.3374C13.7357 17.388 13.4874 16.693 12.9909 16.2526C13.5352 16.1938 14.0245 16.1058 14.459 15.9883C14.8934 15.8708 15.3422 15.68 15.8053 15.4157C16.2684 15.1515 16.6552 14.826 16.9655 14.4394C17.2758 14.0528 17.5289 13.5389 17.7246 12.8978C17.9204 12.2567 18.0182 11.5202 18.0182 10.6882C18.0182 9.50391 17.6411 8.49577 16.8867 7.66381C17.24 6.77313 17.2018 5.77478 16.7721 4.66876C16.5048 4.58067 16.1181 4.6345 15.612 4.83026C15.1059 5.02601 14.6667 5.24134 14.2943 5.47625L13.75 5.82861C12.862 5.57413 11.9453 5.44689 11 5.44689C10.0547 5.44689 9.13802 5.57413 8.25 5.82861C8.09722 5.72094 7.89431 5.58881 7.64128 5.43221C7.38824 5.2756 6.98958 5.08719 6.44531 4.86696C5.90104 4.64674 5.49045 4.58067 5.21354 4.66876C4.7934 5.77478 4.75998 6.77313 5.11328 7.66381C4.35894 8.49577 3.98177 9.50391 3.98177 10.6882C3.98177 11.5202 4.07964 12.2543 4.27539 12.8905C4.47114 13.5267 4.72179 14.0405 5.02734 14.432C5.3329 14.8236 5.71723 15.1515 6.18034 15.4157C6.64345 15.68 7.09223 15.8708 7.52669 15.9883C7.96115 16.1058 8.45052 16.1938 8.99479 16.2526C8.61285 16.6049 8.37891 17.109 8.29297 17.7648C8.09245 17.8627 7.8776 17.9361 7.64844 17.985C7.41927 18.0339 7.14714 18.0584 6.83203 18.0584C6.51693 18.0584 6.20421 17.9532 5.89388 17.7428C5.58355 17.5323 5.31858 17.2265 5.09896 16.8252C4.91754 16.5119 4.68598 16.2575 4.4043 16.0617C4.12261 15.866 3.88628 15.7485 3.69531 15.7094L3.40885 15.6653C3.20833 15.6653 3.06988 15.6873 2.99349 15.7314C2.9171 15.7754 2.89323 15.8317 2.92188 15.9002C2.95052 15.9687 2.99349 16.0372 3.05078 16.1058C3.10807 16.1743 3.17014 16.233 3.23698 16.2819L3.33724 16.3553C3.54731 16.4532 3.75499 16.6392 3.96029 16.9132C4.16558 17.1873 4.31597 17.4369 4.41146 17.662L4.55469 17.9997C4.67882 18.3716 4.88889 18.6726 5.1849 18.9026C5.4809 19.1326 5.80078 19.2794 6.14453 19.3431C6.48828 19.4067 6.8201 19.4409 7.13997 19.4458C7.45985 19.4507 7.72483 19.4336 7.9349 19.3944L8.26432 19.3357C8.26432 19.7077 8.26671 20.1432 8.27148 20.6424C8.27626 21.1416 8.27865 21.4058 8.27865 21.4352C8.27865 21.6114 8.21658 21.7582 8.09245 21.8756C7.96832 21.9931 7.77734 22.0273 7.51953 21.9784C5.30425 21.2248 3.49718 19.8667 2.09831 17.9043C0.699436 15.9418 1.67101e-08 13.7322 0 11.2755C0 9.22986 0.491753 7.34327 1.47526 5.61573C2.45877 3.88819 3.79319 2.52035 5.47852 1.51221C7.16385 0.50407 9.00434 0 11 0C12.9957 0 14.8362 0.50407 16.5215 1.51221C18.2068 2.52035 19.5412 3.88819 20.5247 5.61573C21.5082 7.34327 22 9.22986 22 11.2755Z" fill="white"/>
</g>
<defs>
<clipPath id="clip0_2120_10699">
<rect width="22" height="22" fill="white"/>
</clipPath>
</defs>
</svg>
