<svg width="22" height="22" viewBox="0 0 22 22" fill="none" xmlns="http://www.w3.org/2000/svg">
<path d="M19.9076 6.48486C19.8087 14.2986 15.0379 19.6506 7.91623 19.9867C4.97933 20.1275 2.85166 19.1339 1 17.9019C3.17063 18.2647 5.8622 17.356 7.30171 16.0654C5.17403 15.8486 3.91431 14.7143 3.32488 12.8889C3.9397 13.0002 4.5874 12.9707 5.1715 12.8412C3.25154 12.168 1.8805 10.9252 1.80966 8.32092C2.34844 8.57783 2.9101 8.81934 3.65628 8.86695C2.21941 8.01095 1.15692 4.88179 2.37382 2.81261C4.50636 5.26074 7.07156 7.25849 11.2837 7.52874C10.2262 2.79407 16.2167 0.226582 18.7239 3.40876C19.7837 3.19401 20.6464 2.77287 21.4763 2.31448C21.1347 3.414 20.4769 4.18239 19.6751 4.79708C20.5553 4.67263 21.3344 4.44737 22 4.10292C21.5871 5.00115 20.6843 5.80663 19.9076 6.48486Z" fill="white"/>
</svg>
