<svg width="34" height="34" viewBox="0 0 34 34" fill="none" xmlns="http://www.w3.org/2000/svg">
<circle cx="17" cy="17" r="17" fill="#27E6FF"/>
<path fill-rule="evenodd" clip-rule="evenodd" d="M13.1684 15.7879C12.2029 14.8225 11.6606 13.5131 11.6606 12.1478C11.6606 10.7825 12.2029 9.47316 13.1684 8.50776C14.1338 7.54236 15.4431 7 16.8084 7C18.1737 7 19.4831 7.54236 20.4485 8.50776C21.4139 9.47316 21.9562 10.7825 21.9562 12.1478C21.9562 13.5131 21.4139 14.8225 20.4485 15.7879C19.4831 16.7533 18.1737 17.2956 16.8084 17.2956C15.4431 17.2956 14.1338 16.7533 13.1684 15.7879ZM14.0283 18.4969H19.588C22.7728 18.4969 25.381 21.1017 25.381 24.2865C25.381 24.4169 25.3776 24.5507 25.3673 24.6812C25.3604 24.7944 25.3467 24.9111 25.3329 25.0243C25.2952 25.3092 25.1957 25.4739 24.9898 25.6695C24.8593 25.7931 24.7152 25.9063 24.5642 26.0059C24.4098 26.1054 24.2485 26.1912 24.0803 26.2598C23.9087 26.3319 23.7303 26.3868 23.5484 26.4211C23.3631 26.4589 23.1743 26.476 22.9855 26.476H10.8333C10.5896 26.476 10.3459 26.4486 10.1126 26.3868C9.85518 26.3216 9.61152 26.2221 9.38158 26.0882C9.15508 25.9578 8.94574 25.7965 8.76385 25.6112C8.67119 25.5151 8.58196 25.4121 8.50302 25.3023C8.48423 25.2755 8.46474 25.2491 8.44527 25.2228C8.3901 25.1481 8.33517 25.0737 8.29711 24.99C8.27652 24.9385 8.26966 24.8905 8.26279 24.8356C8.26108 24.8047 8.2585 24.7738 8.25593 24.7429C8.25336 24.712 8.25078 24.6812 8.24907 24.6503C8.2422 24.5302 8.23877 24.4066 8.23877 24.2865C8.23877 21.1017 10.8436 18.4969 14.0283 18.4969Z" fill="black"/>
</svg>
