<?xml version="1.0" standalone="no"?><!DOCTYPE svg PUBLIC "-//W3C//DTD SVG 1.1//EN" "http://www.w3.org/Graphics/SVG/1.1/DTD/svg11.dtd"><svg t="1744788620363" class="icon" viewBox="0 0 1024 1024" version="1.1" xmlns="http://www.w3.org/2000/svg" p-id="3781" xmlns:xlink="http://www.w3.org/1999/xlink" width="200" height="200"><path d="M484.48 789.76c1.28 0.64 2.56 1.92 3.84 2.56 23.68 11.52 52.48 7.04 71.04-12.16l426.24-451.2c23.04-24.32 22.4-63.36-2.56-86.4a60.864 60.864 0 0 0-86.4 2.56l-382.72 405.12-388.48-403.2a61.056 61.056 0 0 0-85.12-1.28c-23.68 23.04-24.96 60.8-3.2 85.12l430.72 446.72c0.64 0.64 1.92 1.28 3.2 1.92l1.92 1.92c3.2 4.48 7.68 5.76 11.52 8.32z" p-id="3782" fill="rgba(255,255,255,0.8)"></path></svg>