<svg width="34" height="34" viewBox="0 0 34 34" fill="none" xmlns="http://www.w3.org/2000/svg">
<rect width="34" height="34" rx="8" fill="white" fill-opacity="0.08"/>
<rect x="0.5" y="0.5" width="33" height="33" rx="7.5" stroke="white" stroke-opacity="0.1"/>
<path d="M20.0298 12.8571C20.3172 12.8571 20.5928 12.97 20.796 13.171C20.9992 13.3719 21.1134 13.6444 21.1134 13.9286V23.9286C21.1134 24.2127 20.9992 24.4853 20.796 24.6862C20.5928 24.8871 20.3172 25 20.0298 25H12.0836C11.9413 25 11.8004 24.9723 11.6689 24.9184C11.5374 24.8646 11.418 24.7857 11.3174 24.6862C11.2168 24.5867 11.1369 24.4686 11.0825 24.3386C11.028 24.2086 11 24.0693 11 23.9286V13.9286C11 13.6444 11.1142 13.3719 11.3174 13.171C11.5206 12.97 11.7962 12.8571 12.0836 12.8571H20.0298ZM22.9164 10C23.1859 9.99984 23.4458 10.099 23.6453 10.2781C23.8449 10.4571 23.9698 10.7033 23.9957 10.9686L24 11.0714V20.7093C23.9998 20.8913 23.9293 21.0665 23.8029 21.1988C23.6765 21.3312 23.5038 21.4109 23.32 21.4216C23.1361 21.4322 22.9552 21.3731 22.814 21.2562C22.6728 21.1394 22.582 20.9736 22.5603 20.7929L22.5552 20.7093V11.4286H15.3343C15.1574 11.4285 14.9866 11.3643 14.8544 11.2481C14.7221 11.1318 14.6377 10.9716 14.617 10.7979L14.6119 10.7143C14.6119 10.5393 14.6769 10.3705 14.7945 10.2397C14.912 10.109 15.0741 10.0255 15.2498 10.005L15.3343 10H22.9164Z" fill="white" fill-opacity="0.4"/>
</svg>
