<svg width="30" height="31" viewBox="0 0 30 31" fill="none" xmlns="http://www.w3.org/2000/svg">
<g clip-path="url(#clip0_7033_6928)">
<g filter="url(#filter0_f_7033_6928)">
<ellipse cx="15.3984" cy="32.2227" rx="14.6016" ry="4.5" fill="white" fill-opacity="0.44"/>
</g>
<path d="M22.5 21.5898C22.4999 22.1945 22.0938 22.692 21.5791 22.7451L21.4873 22.75H8.51172C7.98473 22.7499 7.5503 22.2857 7.50391 21.6953L7.5 21.5898V11.8408H22.5V21.5898ZM15.7881 13.4609C15.6062 13.396 15.4077 13.4092 15.2344 13.4961C15.0613 13.583 14.9271 13.7368 14.8574 13.9248L14.8555 13.9287L14.8311 14.0078L14.8301 14.0127L13.4492 19.5742C13.4005 19.7698 13.4225 19.9783 13.5117 20.1572C13.601 20.3362 13.7516 20.4738 13.9336 20.5391C14.1158 20.6042 14.3147 20.5911 14.4883 20.5039C14.6616 20.4166 14.7968 20.2618 14.8662 20.0732L14.8672 20.0693L14.8916 19.9893L14.8154 19.9658L14.8926 19.9893L14.8936 19.9854L16.2734 14.4238H16.2744C16.3225 14.2285 16.2993 14.0203 16.21 13.8418C16.1205 13.6632 15.9698 13.526 15.7881 13.4609ZM14.4531 20.4326L14.334 20.4785C14.2976 20.4884 14.26 20.493 14.2227 20.4961C14.3014 20.4894 14.3792 20.4692 14.4521 20.4326C14.488 20.4146 14.5217 20.3924 14.5537 20.3682C14.5219 20.3923 14.4888 20.4146 14.4531 20.4326ZM18.3301 14.4785C18.2131 14.443 18.0888 14.4427 17.9717 14.4775L17.9697 14.4785C17.8522 14.5161 17.7466 14.5861 17.6631 14.6807C17.5796 14.7754 17.5205 14.8918 17.4922 15.0176C17.4659 15.1284 17.4628 15.2441 17.4824 15.3564C17.502 15.4689 17.5441 15.5763 17.6064 15.6699L17.6094 15.6738L17.6621 15.7422L17.666 15.7461L18.7881 17.0186L17.666 18.293C17.539 18.4384 17.469 18.6295 17.4697 18.8271L17.4824 18.9736C17.5079 19.1177 17.5707 19.2523 17.665 19.3594V19.3604C17.7264 19.4311 17.8016 19.4881 17.8848 19.5273C17.9679 19.5665 18.0582 19.5874 18.1494 19.5879H18.1504C18.3031 19.5871 18.4505 19.5296 18.5674 19.4268L18.5713 19.4238L18.6309 19.3643L18.6338 19.3604L20.2285 17.5547V17.5537C20.3444 17.4206 20.4133 17.2487 20.4238 17.0684C20.4343 16.888 20.3854 16.7088 20.2861 16.5615L20.2832 16.5576L20.2314 16.4893L20.2285 16.4854L18.6338 14.6777C18.552 14.5835 18.4468 14.5141 18.3301 14.4785ZM11.7822 14.4541C11.6604 14.4418 11.5393 14.4671 11.4316 14.5234L11.3281 14.5898L11.3242 14.5938L11.2627 14.6494L11.3154 14.708L11.2617 14.6494L11.2559 14.6562L9.66211 16.4629C9.54601 16.5959 9.47729 16.7678 9.4668 16.9482C9.4564 17.1285 9.5041 17.308 9.60352 17.4551L9.60645 17.459L9.65918 17.5254L9.66211 17.5293L11.2559 19.3359L11.2568 19.3369C11.3187 19.4057 11.3937 19.4607 11.4766 19.498C11.5595 19.5354 11.649 19.5546 11.7393 19.5537C11.8295 19.5527 11.9188 19.5322 12.001 19.4932C12.0831 19.4541 12.1572 19.3972 12.2178 19.3271C12.3313 19.1956 12.3994 19.026 12.4111 18.8486C12.4228 18.6714 12.3777 18.4947 12.2832 18.3477H12.2842L12.2803 18.3428L12.2285 18.2734L12.2246 18.2676L11.1016 16.9941L12.2246 15.7217L12.2275 15.7188C12.3432 15.572 12.4044 15.3851 12.4004 15.1943C12.3963 15.0036 12.3269 14.8198 12.2051 14.6787C12.0957 14.5518 11.9448 14.4707 11.7822 14.4541ZM11.8555 19.46C11.8173 19.4689 11.7776 19.4732 11.7383 19.4736C11.7775 19.4732 11.8164 19.4688 11.8545 19.46L11.9668 19.4209L11.8555 19.46ZM20.168 17.501L18.5742 19.3076L18.5146 19.3662L18.5732 19.3076L20.168 17.501ZM20.3438 17.0635L20.3271 17.1846C20.319 17.2209 20.3063 17.2557 20.293 17.29C20.3207 17.2184 20.3392 17.1421 20.3438 17.0635ZM9.59961 16.7139C9.60281 16.706 9.60591 16.6981 9.60938 16.6904L9.65137 16.6113C9.6315 16.644 9.61413 16.6782 9.59961 16.7139ZM12.3203 15.1953L12.3115 15.3242C12.306 15.3609 12.2959 15.3965 12.2852 15.4316C12.3082 15.356 12.3211 15.2763 12.3193 15.1953C12.3184 15.1543 12.313 15.114 12.3057 15.0742C12.313 15.114 12.3194 15.1543 12.3203 15.1953ZM12.1445 14.7305C12.1719 14.7621 12.1965 14.7961 12.2178 14.832C12.2372 14.8648 12.2525 14.8999 12.2666 14.9355C12.237 14.8607 12.1959 14.7909 12.1436 14.7305C12.1219 14.7054 12.0981 14.6828 12.0732 14.6621C12.0982 14.6829 12.1228 14.7052 12.1445 14.7305ZM16.1387 13.8779L16.1875 14.0029C16.1983 14.0399 16.2048 14.078 16.21 14.1162C16.1988 14.0335 16.1752 13.9528 16.1377 13.8779C16.1187 13.84 16.0959 13.8047 16.0713 13.7715C16.096 13.8048 16.1196 13.8399 16.1387 13.8779ZM15.8691 13.5879C15.8347 13.5673 15.7986 13.5497 15.7607 13.5361C15.7208 13.5219 15.6799 13.5117 15.6387 13.5059C15.6802 13.5117 15.7215 13.5217 15.7617 13.5361L15.8691 13.5879ZM21.4873 7.75C22.0144 7.75069 22.4477 8.21296 22.4961 8.80273L22.5 8.90918V10.4775H7.5V8.90918C7.5 8.30509 7.90446 7.80875 8.41992 7.75488L8.51172 7.75H21.4873ZM15.877 13.5918C15.9088 13.611 15.9384 13.6338 15.9668 13.6582C15.9363 13.6319 15.9035 13.6084 15.8691 13.5879L15.877 13.5918Z" fill="white"/>
</g>
<rect x="0.5" y="1" width="29" height="29" rx="7.5" stroke="url(#paint0_linear_7033_6928)"/>
<defs>
<filter id="filter0_f_7033_6928" x="-13.6031" y="13.3227" width="58.0031" height="37.8" filterUnits="userSpaceOnUse" color-interpolation-filters="sRGB">
<feFlood flood-opacity="0" result="BackgroundImageFix"/>
<feBlend mode="normal" in="SourceGraphic" in2="BackgroundImageFix" result="shape"/>
<feGaussianBlur stdDeviation="7.2" result="effect1_foregroundBlur_7033_6928"/>
</filter>
<linearGradient id="paint0_linear_7033_6928" x1="15" y1="0.5" x2="15" y2="30.5" gradientUnits="userSpaceOnUse">
<stop offset="0.271998" stop-color="white" stop-opacity="0.31"/>
<stop offset="1" stop-color="white" stop-opacity="0.02"/>
</linearGradient>
<clipPath id="clip0_7033_6928">
<rect y="0.5" width="30" height="30" rx="8" fill="white"/>
</clipPath>
</defs>
</svg>
