<svg width="24" height="24" viewBox="0 0 24 24" fill="none" xmlns="http://www.w3.org/2000/svg">
<path d="M1.58294 6.22292C-1.05868 9.76368 1.01088 15.7757 6.20543 19.6512C11.4 23.5266 17.7525 23.7979 20.3941 20.2571C21.064 19.4296 21.2081 19.2852 22.2177 17.9867C22.5371 14.6095 19.6905 9.75264 15.7716 6.82891C11.4957 3.63882 6.14915 2.7155 3.01964 4.52559C2.2984 5.24683 2.0501 5.59675 1.58294 6.22292Z" fill="#CC6820"/>
<path d="M17.3706 4.95861C14.8357 3.06745 12.0581 2.04858 9.63652 1.90431C7.20893 1.75971 5.21813 2.49131 4.09531 3.99625C2.9725 5.50124 2.83833 7.61792 3.66844 9.90379C4.4965 12.184 6.26435 14.5563 8.79925 16.4475C11.3342 18.3387 14.1125 19.3581 16.5341 19.5024C18.9615 19.6468 20.9526 18.9153 22.0754 17.4104C23.198 15.9055 23.3322 13.7886 22.5022 11.5029C21.6742 9.22265 19.9056 6.84985 17.3706 4.95861Z" fill="#CC6820" stroke="#FFD79B" stroke-width="1.2"/>
<path d="M10.5974 8.91721C11.3788 10.8512 10.61 12.3463 9.04082 12.3122C8.35253 12.3362 8.0654 13.0261 8.39951 13.853C8.73362 14.68 9.56245 15.3308 10.2507 15.3068C10.9014 15.2841 11.1936 14.6663 10.9413 13.9002C10.5384 12.7 10.9924 11.7295 12.0098 11.694C12.9492 11.6612 14.057 12.4366 14.6657 13.4961C14.742 13.6549 15.4015 14.7445 16.4758 14.7626C17.1817 14.7558 17.49 14.0203 17.1426 13.1605C17.0422 12.9281 16.9618 12.8014 16.8671 12.5599C16.0192 10.3984 17.2364 9.48812 18.04 9.46006C18.624 9.41792 18.8553 8.81285 18.5661 8.09723C18.2701 7.3645 17.5357 6.78777 16.9258 6.80907C16.3328 6.82978 16.0759 7.40831 16.3343 8.11393C16.752 9.19363 16.3689 10.0872 15.4663 10.1187C14.5523 10.1507 13.4517 9.28631 13.008 8.18816C12.8842 7.89598 12.8738 7.67101 12.7593 7.39982C12.3699 6.43597 11.4039 5.67733 10.6016 5.70535C9.79939 5.73336 9.46473 6.53743 9.85415 7.50127C9.95114 7.74934 10.0986 7.97233 10.0986 7.97233C10.2951 8.27021 10.4641 8.58735 10.5974 8.91721Z" fill="#FFD79B"/>
</svg>
