<svg width="652" height="54" viewBox="0 0 652 54" fill="none" xmlns="http://www.w3.org/2000/svg">
<path d="M1 13C1 6.37258 6.37258 1 13 1H639C645.627 1 651 6.37258 651 13V41C651 47.6274 645.627 53 639 53H13C6.37257 53 1 47.6274 1 41V13Z" fill="#C95400" fill-opacity="0.12"/>
<path d="M13 1V1.5H639V1V0.5H13V1ZM651 13H650.5V41H651H651.5V13H651ZM639 53V52.5H13V53V53.5H639V53ZM1 41H1.5V13H1H0.5V41H1ZM13 53V52.5C6.64872 52.5 1.5 47.3513 1.5 41H1H0.5C0.5 47.9036 6.09643 53.5 13 53.5V53ZM651 41H650.5C650.5 47.3513 645.351 52.5 639 52.5V53V53.5C645.904 53.5 651.5 47.9036 651.5 41H651ZM639 1V1.5C645.351 1.5 650.5 6.64873 650.5 13H651H651.5C651.5 6.09644 645.904 0.5 639 0.5V1ZM13 1V0.5C6.09644 0.5 0.5 6.09644 0.5 13H1H1.5C1.5 6.64873 6.64873 1.5 13 1.5V1Z" fill="#C95400" fill-opacity="0.6"/>
<path d="M24.346 32V23.166H21.42V22.2H28.448V23.166H25.522V32H24.346ZM31.6638 32.168C31.0105 32.168 30.4272 32.014 29.9138 31.706C29.4005 31.398 28.9992 30.9687 28.7098 30.418C28.4205 29.858 28.2758 29.2093 28.2758 28.472C28.2758 27.7253 28.4158 27.0767 28.6958 26.526C28.9852 25.9753 29.3865 25.546 29.8998 25.238C30.4225 24.93 31.0198 24.776 31.6918 24.776C32.3825 24.776 32.9705 24.93 33.4558 25.238C33.9412 25.546 34.3098 25.952 34.5618 26.456C34.8232 26.9507 34.9538 27.4967 34.9538 28.094C34.9538 28.1873 34.9538 28.2853 34.9538 28.388C34.9538 28.4907 34.9492 28.6073 34.9398 28.738H29.1578V27.828H33.7918C33.7638 27.184 33.5492 26.68 33.1478 26.316C32.7558 25.952 32.2612 25.77 31.6638 25.77C31.2718 25.77 30.9032 25.8633 30.5578 26.05C30.2125 26.2273 29.9372 26.4933 29.7318 26.848C29.5265 27.1933 29.4238 27.6273 29.4238 28.15V28.542C29.4238 29.1207 29.5265 29.606 29.7318 29.998C29.9465 30.39 30.2218 30.684 30.5578 30.88C30.9032 31.076 31.2718 31.174 31.6638 31.174C32.1585 31.174 32.5645 31.0667 32.8818 30.852C33.2085 30.628 33.4465 30.3247 33.5958 29.942H34.7578C34.6365 30.3713 34.4358 30.754 34.1558 31.09C33.8758 31.4167 33.5258 31.678 33.1058 31.874C32.6952 32.07 32.2145 32.168 31.6638 32.168ZM39.1869 32.168C38.6082 32.168 38.0995 32.07 37.6609 31.874C37.2222 31.678 36.8722 31.4073 36.6109 31.062C36.3589 30.7073 36.2049 30.292 36.1489 29.816H37.3529C37.3995 30.0587 37.4975 30.2827 37.6469 30.488C37.7962 30.6933 37.9969 30.8613 38.2489 30.992C38.5102 31.1133 38.8275 31.174 39.2009 31.174C39.5275 31.174 39.7982 31.1273 40.0129 31.034C40.2275 30.9313 40.3862 30.796 40.4889 30.628C40.6009 30.46 40.6569 30.278 40.6569 30.082C40.6569 29.7927 40.5869 29.5733 40.4469 29.424C40.3162 29.2747 40.1202 29.158 39.8589 29.074C39.5975 28.9807 39.2802 28.9013 38.9069 28.836C38.5989 28.78 38.2955 28.7053 37.9969 28.612C37.6982 28.5187 37.4322 28.3973 37.1989 28.248C36.9655 28.0893 36.7789 27.898 36.6389 27.674C36.5082 27.45 36.4429 27.1747 36.4429 26.848C36.4429 26.4467 36.5455 26.092 36.7509 25.784C36.9655 25.4667 37.2642 25.2193 37.6469 25.042C38.0295 24.8647 38.4775 24.776 38.9909 24.776C39.7469 24.776 40.3582 24.958 40.8249 25.322C41.2915 25.686 41.5669 26.2133 41.6509 26.904H40.4889C40.4422 26.5493 40.2882 26.274 40.0269 26.078C39.7749 25.8727 39.4249 25.77 38.9769 25.77C38.5382 25.77 38.2022 25.8587 37.9689 26.036C37.7449 26.2133 37.6329 26.4467 37.6329 26.736C37.6329 26.9227 37.6935 27.0907 37.8149 27.24C37.9455 27.38 38.1369 27.5013 38.3889 27.604C38.6409 27.7067 38.9442 27.7907 39.2989 27.856C39.7655 27.94 40.1902 28.052 40.5729 28.192C40.9555 28.332 41.2635 28.542 41.4969 28.822C41.7395 29.0927 41.8609 29.48 41.8609 29.984C41.8609 30.4227 41.7489 30.8053 41.5249 31.132C41.3102 31.4587 41.0022 31.7153 40.6009 31.902C40.1995 32.0793 39.7282 32.168 39.1869 32.168ZM46.0118 32C45.5918 32 45.2278 31.9347 44.9198 31.804C44.6118 31.6733 44.3738 31.454 44.2058 31.146C44.0471 30.8287 43.9678 30.404 43.9678 29.872V25.938H42.7358V24.944H43.9678L44.1218 23.236H45.1438V24.944H47.1878V25.938H45.1438V29.872C45.1438 30.3107 45.2324 30.6093 45.4098 30.768C45.5871 30.9173 45.8998 30.992 46.3478 30.992H47.1038V32H46.0118ZM52.4409 35.08V24.944H53.5049L53.6029 26.092C53.7523 25.868 53.9436 25.658 54.1769 25.462C54.4103 25.2567 54.6903 25.0933 55.0169 24.972C55.3436 24.8413 55.7216 24.776 56.1509 24.776C56.8323 24.776 57.4249 24.9393 57.9289 25.266C58.4423 25.5927 58.8389 26.036 59.1189 26.596C59.4083 27.1467 59.5529 27.7767 59.5529 28.486C59.5529 29.1953 59.4083 29.83 59.1189 30.39C58.8389 30.9407 58.4423 31.3747 57.9289 31.692C57.4156 32.0093 56.8183 32.168 56.1369 32.168C55.5676 32.168 55.0636 32.0513 54.6249 31.818C54.1863 31.5847 53.8503 31.258 53.6169 30.838V35.08H52.4409ZM55.9969 31.146C56.4543 31.146 56.8603 31.034 57.2149 30.81C57.5789 30.586 57.8589 30.278 58.0549 29.886C58.2603 29.4847 58.3629 29.0133 58.3629 28.472C58.3629 27.94 58.2603 27.4733 58.0549 27.072C57.8589 26.6707 57.5789 26.358 57.2149 26.134C56.8603 25.91 56.4543 25.798 55.9969 25.798C55.5303 25.798 55.1196 25.91 54.7649 26.134C54.4103 26.358 54.1349 26.6707 53.9389 27.072C53.7429 27.4733 53.6449 27.94 53.6449 28.472C53.6449 29.0133 53.7429 29.4847 53.9389 29.886C54.1349 30.278 54.4103 30.586 54.7649 30.81C55.1196 31.034 55.5303 31.146 55.9969 31.146ZM64.3123 32.168C63.6589 32.168 63.0756 32.014 62.5623 31.706C62.0489 31.398 61.6476 30.9687 61.3583 30.418C61.0689 29.858 60.9243 29.2093 60.9243 28.472C60.9243 27.7253 61.0643 27.0767 61.3443 26.526C61.6336 25.9753 62.0349 25.546 62.5483 25.238C63.0709 24.93 63.6683 24.776 64.3403 24.776C65.0309 24.776 65.6189 24.93 66.1043 25.238C66.5896 25.546 66.9583 25.952 67.2103 26.456C67.4716 26.9507 67.6023 27.4967 67.6023 28.094C67.6023 28.1873 67.6023 28.2853 67.6023 28.388C67.6023 28.4907 67.5976 28.6073 67.5883 28.738H61.8063V27.828H66.4403C66.4123 27.184 66.1976 26.68 65.7963 26.316C65.4043 25.952 64.9096 25.77 64.3123 25.77C63.9203 25.77 63.5516 25.8633 63.2063 26.05C62.8609 26.2273 62.5856 26.4933 62.3803 26.848C62.1749 27.1933 62.0723 27.6273 62.0723 28.15V28.542C62.0723 29.1207 62.1749 29.606 62.3803 29.998C62.5949 30.39 62.8703 30.684 63.2063 30.88C63.5516 31.076 63.9203 31.174 64.3123 31.174C64.8069 31.174 65.2129 31.0667 65.5303 30.852C65.8569 30.628 66.0949 30.3247 66.2443 29.942H67.4063C67.2849 30.3713 67.0843 30.754 66.8043 31.09C66.5243 31.4167 66.1743 31.678 65.7543 31.874C65.3436 32.07 64.8629 32.168 64.3123 32.168ZM69.1753 32V24.944H70.2393L70.3233 26.288C70.482 25.9707 70.6826 25.7 70.9253 25.476C71.1773 25.252 71.476 25.0793 71.8213 24.958C72.176 24.8367 72.5773 24.776 73.0253 24.776V26.008H72.5913C72.2926 26.008 72.008 26.05 71.7373 26.134C71.4666 26.2087 71.224 26.3347 71.0093 26.512C70.804 26.6893 70.6406 26.932 70.5193 27.24C70.4073 27.5387 70.3513 27.912 70.3513 28.36V32H69.1753ZM74.749 32V23.852C74.749 23.404 74.8236 23.04 74.973 22.76C75.1223 22.4707 75.3416 22.2607 75.631 22.13C75.9296 21.99 76.2936 21.92 76.723 21.92H77.521V22.928H76.905C76.5596 22.928 76.3076 22.998 76.149 23.138C75.9996 23.278 75.925 23.5253 75.925 23.88V32H74.749ZM73.671 25.938V24.944H77.703V25.938H73.671ZM81.9913 32.168C81.338 32.168 80.75 32.0187 80.2273 31.72C79.7047 31.412 79.294 30.9827 78.9953 30.432C78.6967 29.872 78.5473 29.2233 78.5473 28.486C78.5473 27.73 78.6967 27.0767 78.9953 26.526C79.3033 25.966 79.7187 25.5367 80.2413 25.238C80.7733 24.93 81.366 24.776 82.0193 24.776C82.6913 24.776 83.284 24.93 83.7973 25.238C84.32 25.5367 84.7307 25.966 85.0293 26.526C85.3373 27.0767 85.4913 27.7253 85.4913 28.472C85.4913 29.2187 85.3373 29.872 85.0293 30.432C84.7213 30.9827 84.306 31.412 83.7833 31.72C83.2607 32.0187 82.6633 32.168 81.9913 32.168ZM82.0053 31.16C82.4067 31.16 82.78 31.062 83.1253 30.866C83.4707 30.6607 83.7507 30.3573 83.9653 29.956C84.18 29.5547 84.2873 29.06 84.2873 28.472C84.2873 27.8747 84.18 27.38 83.9653 26.988C83.76 26.5867 83.4847 26.288 83.1393 26.092C82.8033 25.8867 82.43 25.784 82.0193 25.784C81.6273 25.784 81.254 25.8867 80.8993 26.092C80.554 26.288 80.274 26.5867 80.0593 26.988C79.854 27.38 79.7513 27.8747 79.7513 28.472C79.7513 29.06 79.854 29.5547 80.0593 29.956C80.274 30.3573 80.5493 30.6607 80.8853 30.866C81.2307 31.062 81.604 31.16 82.0053 31.16ZM87.1402 32V24.944H88.2042L88.2882 26.288C88.4468 25.9707 88.6475 25.7 88.8902 25.476C89.1422 25.252 89.4408 25.0793 89.7862 24.958C90.1408 24.8367 90.5422 24.776 90.9902 24.776V26.008H90.5562C90.2575 26.008 89.9728 26.05 89.7022 26.134C89.4315 26.2087 89.1888 26.3347 88.9742 26.512C88.7688 26.6893 88.6055 26.932 88.4842 27.24C88.3722 27.5387 88.3162 27.912 88.3162 28.36V32H87.1402ZM92.3218 32V24.944H93.3858L93.4558 25.952C93.6798 25.588 93.9785 25.3033 94.3518 25.098C94.7345 24.8833 95.1498 24.776 95.5978 24.776C95.9618 24.776 96.2885 24.8273 96.5778 24.93C96.8765 25.0233 97.1378 25.1727 97.3618 25.378C97.5951 25.574 97.7771 25.826 97.9078 26.134C98.1505 25.7047 98.4865 25.3733 98.9158 25.14C99.3451 24.8973 99.7978 24.776 100.274 24.776C100.824 24.776 101.3 24.888 101.702 25.112C102.103 25.3267 102.416 25.658 102.64 26.106C102.864 26.5447 102.976 27.1047 102.976 27.786V32H101.814V27.912C101.814 27.2027 101.669 26.6707 101.38 26.316C101.09 25.9613 100.68 25.784 100.148 25.784C99.7838 25.784 99.4571 25.882 99.1678 26.078C98.8785 26.2647 98.6498 26.54 98.4818 26.904C98.3138 27.268 98.2298 27.716 98.2298 28.248V32H97.0538V27.912C97.0538 27.2027 96.9091 26.6707 96.6198 26.316C96.3305 25.9613 95.9245 25.784 95.4018 25.784C95.0471 25.784 94.7251 25.882 94.4358 26.078C94.1465 26.2647 93.9178 26.54 93.7498 26.904C93.5818 27.268 93.4978 27.716 93.4978 28.248V32H92.3218ZM107.087 32.168C106.517 32.168 106.041 32.07 105.659 31.874C105.276 31.6687 104.991 31.4027 104.805 31.076C104.618 30.74 104.525 30.376 104.525 29.984C104.525 29.508 104.646 29.1067 104.889 28.78C105.141 28.444 105.491 28.192 105.939 28.024C106.396 27.8467 106.933 27.758 107.549 27.758H109.411C109.411 27.3193 109.341 26.9553 109.201 26.666C109.07 26.3673 108.874 26.1433 108.613 25.994C108.361 25.8447 108.043 25.77 107.661 25.77C107.213 25.77 106.825 25.882 106.499 26.106C106.172 26.33 105.971 26.6613 105.897 27.1H104.693C104.749 26.596 104.917 26.176 105.197 25.84C105.486 25.4947 105.85 25.2333 106.289 25.056C106.727 24.8693 107.185 24.776 107.661 24.776C108.314 24.776 108.855 24.8973 109.285 25.14C109.723 25.3733 110.05 25.7047 110.265 26.134C110.479 26.554 110.587 27.0533 110.587 27.632V32H109.537L109.467 30.754C109.373 30.95 109.252 31.1367 109.103 31.314C108.963 31.482 108.795 31.6313 108.599 31.762C108.412 31.8833 108.193 31.9813 107.941 32.056C107.689 32.1307 107.404 32.168 107.087 32.168ZM107.269 31.174C107.595 31.174 107.889 31.1087 108.151 30.978C108.421 30.838 108.65 30.6513 108.837 30.418C109.023 30.1753 109.163 29.9093 109.257 29.62C109.359 29.3307 109.411 29.0273 109.411 28.71V28.668H107.647C107.189 28.668 106.821 28.724 106.541 28.836C106.261 28.9387 106.06 29.088 105.939 29.284C105.817 29.4707 105.757 29.6853 105.757 29.928C105.757 30.18 105.813 30.3993 105.925 30.586C106.046 30.7727 106.219 30.9173 106.443 31.02C106.676 31.1227 106.951 31.174 107.269 31.174ZM112.406 32V24.944H113.47L113.526 26.176C113.75 25.7373 114.067 25.3967 114.478 25.154C114.898 24.902 115.374 24.776 115.906 24.776C116.456 24.776 116.932 24.888 117.334 25.112C117.735 25.3267 118.048 25.658 118.272 26.106C118.496 26.5447 118.608 27.1047 118.608 27.786V32H117.432V27.912C117.432 27.2027 117.273 26.6707 116.956 26.316C116.648 25.9613 116.209 25.784 115.64 25.784C115.248 25.784 114.898 25.882 114.59 26.078C114.282 26.2647 114.034 26.54 113.848 26.904C113.67 27.2587 113.582 27.702 113.582 28.234V32H112.406ZM123.623 32.168C122.96 32.168 122.363 32.014 121.831 31.706C121.308 31.398 120.898 30.9687 120.599 30.418C120.3 29.858 120.151 29.214 120.151 28.486C120.151 27.7393 120.3 27.0907 120.599 26.54C120.898 25.9893 121.308 25.56 121.831 25.252C122.363 24.9347 122.96 24.776 123.623 24.776C124.463 24.776 125.163 24.9953 125.723 25.434C126.283 25.8633 126.638 26.442 126.787 27.17H125.583C125.49 26.7313 125.261 26.3907 124.897 26.148C124.533 25.9053 124.104 25.784 123.609 25.784C123.208 25.784 122.834 25.8867 122.489 26.092C122.153 26.288 121.878 26.5867 121.663 26.988C121.458 27.3893 121.355 27.884 121.355 28.472C121.355 28.9107 121.416 29.3027 121.537 29.648C121.658 29.984 121.822 30.264 122.027 30.488C122.232 30.712 122.47 30.8847 122.741 31.006C123.021 31.118 123.31 31.174 123.609 31.174C123.945 31.174 124.248 31.1227 124.519 31.02C124.79 30.908 125.018 30.7447 125.205 30.53C125.392 30.3153 125.518 30.0633 125.583 29.774H126.787C126.638 30.4833 126.278 31.062 125.709 31.51C125.149 31.9487 124.454 32.168 123.623 32.168ZM131.551 32.168C130.897 32.168 130.314 32.014 129.801 31.706C129.287 31.398 128.886 30.9687 128.597 30.418C128.307 29.858 128.163 29.2093 128.163 28.472C128.163 27.7253 128.303 27.0767 128.583 26.526C128.872 25.9753 129.273 25.546 129.787 25.238C130.309 24.93 130.907 24.776 131.579 24.776C132.269 24.776 132.857 24.93 133.343 25.238C133.828 25.546 134.197 25.952 134.449 26.456C134.71 26.9507 134.841 27.4967 134.841 28.094C134.841 28.1873 134.841 28.2853 134.841 28.388C134.841 28.4907 134.836 28.6073 134.827 28.738H129.045V27.828H133.679C133.651 27.184 133.436 26.68 133.035 26.316C132.643 25.952 132.148 25.77 131.551 25.77C131.159 25.77 130.79 25.8633 130.445 26.05C130.099 26.2273 129.824 26.4933 129.619 26.848C129.413 27.1933 129.311 27.6273 129.311 28.15V28.542C129.311 29.1207 129.413 29.606 129.619 29.998C129.833 30.39 130.109 30.684 130.445 30.88C130.79 31.076 131.159 31.174 131.551 31.174C132.045 31.174 132.451 31.0667 132.769 30.852C133.095 30.628 133.333 30.3247 133.483 29.942H134.645C134.523 30.3713 134.323 30.754 134.043 31.09C133.763 31.4167 133.413 31.678 132.993 31.874C132.582 32.07 132.101 32.168 131.551 32.168Z" fill="#C95400"/>
<rect x="617" y="15" width="24" height="24" rx="12" fill="#C95400"/>
<rect x="617" y="15" width="24" height="24" rx="12" stroke="#532803" stroke-width="4"/>
<path d="M632.133 22.6543C632.477 22.3154 632.998 22.3154 633.342 22.6543C633.686 22.994 633.686 23.509 633.342 23.8486L630.21 26.9326L633.342 30.0176C633.686 30.3573 633.686 30.8723 633.342 31.2119C632.998 31.5508 632.477 31.5508 632.133 31.2119L629 28.124L625.871 31.207C625.706 31.4451 625.495 31.5748 625.272 31.5967C625.048 31.6188 624.829 31.5291 624.658 31.3613C624.314 31.0216 624.314 30.5065 624.658 30.167L627.791 27.0811L624.658 23.8477C624.314 23.508 624.314 22.9938 624.658 22.6543C625.002 22.3154 625.523 22.3154 625.867 22.6543L629 25.7402L632.133 22.6543Z" fill="#542205" stroke="#542205" stroke-width="0.2"/>
</svg>
