<svg width="12" height="12" viewBox="0 0 12 12" fill="none" xmlns="http://www.w3.org/2000/svg">
<path d="M1.45782 6.06881L5.84582 1.93114C6.04747 1.74101 6.05188 1.43691 5.85574 1.25197L5.73281 1.13601C5.53663 0.951079 5.21416 0.955255 5.01254 1.14536L0.154105 5.72665C0.140638 5.73935 0.128124 5.7526 0.116405 5.76624C0.0377218 5.85508 -0.00106895 5.96465 2.23981e-05 6.07398C-0.00020011 6.19491 0.0476499 6.3148 0.144187 6.40583L0.267129 6.52177C0.280288 6.53417 0.294052 6.54566 0.308261 6.55636L4.87363 10.8613C5.06977 11.0462 5.38779 11.0462 5.58398 10.8613L5.70691 10.7453C5.90307 10.5604 5.90307 10.2605 5.70691 10.0755L1.45782 6.06881Z" fill="white" fill-opacity="0.6"/>
</svg>
