<svg width="22" height="23" viewBox="0 0 22 23" fill="none" xmlns="http://www.w3.org/2000/svg">
<g clip-path="url(#clip0_641_7450)">
<path fill-rule="evenodd" clip-rule="evenodd" d="M7.81494 19.635C7.38045 19.635 7.02249 19.3378 7.02249 18.9866C7.02249 18.6219 7.36469 18.3382 7.81494 18.3382H14.3542C14.7887 18.3382 15.1466 18.6377 15.1466 18.9866C15.1466 19.3491 14.7887 19.635 14.3542 19.635H7.81494ZM10.2932 22.1055C9.85875 22.1055 9.5008 21.8083 9.5008 21.4571C9.5008 21.1082 9.85875 20.8222 10.2932 20.8087H11.8759C12.3104 20.8087 12.6683 21.1059 12.6683 21.4571C12.6683 21.8196 12.3104 22.1055 11.8759 22.1055H10.2932ZM11.0857 16.9432C7.52868 16.9432 4.64706 14.1628 4.64706 10.7432C4.64706 7.32348 7.52868 4.54541 11.0857 4.54316C14.6404 4.54316 17.5221 7.32348 17.5221 10.7432C17.5221 14.1628 14.6404 16.9432 11.0857 16.9432ZM10.3968 3.03931V1.75383C10.3968 1.39138 10.7075 1.10547 11.0834 1.10547C11.4594 1.10547 11.7701 1.40264 11.7701 1.75383V3.03931C11.7701 3.40176 11.4594 3.68768 11.0834 3.68768C10.7075 3.68768 10.3968 3.39051 10.3968 3.03931ZM19.1092 9.13575H20.4847C20.872 9.13575 21.1714 9.41941 21.1714 9.78412C21.1714 10.1466 20.8607 10.4325 20.4847 10.4325H19.1092C18.7333 10.4325 18.4226 10.1331 18.4226 9.78412C18.4226 9.42166 18.7333 9.13575 19.1092 9.13575ZM1.68664 9.13575H3.06216C3.43813 9.13575 3.7488 9.41941 3.7488 9.78412C3.7488 10.1466 3.43813 10.4325 3.06216 10.4325H1.68664C1.31068 10.4325 1 10.1331 1 9.78412C1 9.41941 1.31068 9.13575 1.68664 9.13575ZM16.6508 4.95739L17.6234 4.05013C17.8935 3.80474 18.337 3.80474 18.5959 4.05013C18.7265 4.1672 18.8008 4.33154 18.8008 4.50489C18.8008 4.67824 18.7265 4.84483 18.5959 4.95964L17.6234 5.86691C17.351 6.11455 16.9232 6.11455 16.6508 5.86691C16.5203 5.74984 16.446 5.5855 16.446 5.41215C16.446 5.2388 16.5203 5.07221 16.6508 4.95739ZM3.57545 4.05013C3.85236 3.80474 4.2711 3.80474 4.548 4.05013L5.52055 4.95739C5.65112 5.07446 5.72542 5.2388 5.72542 5.41215C5.72542 5.5855 5.65112 5.75209 5.52055 5.86691C5.24815 6.11455 4.82041 6.11455 4.548 5.86691L3.57545 4.95964C3.44488 4.84258 3.37059 4.67824 3.37059 4.50489C3.37059 4.33154 3.44488 4.16495 3.57545 4.05013ZM12.5792 6.47434C12.0457 6.33145 11.4974 6.64808 11.3545 7.18156C11.2116 7.71504 11.5282 8.26335 12.0617 8.40624C12.4114 8.49991 12.8077 8.80751 13.1345 9.32545C13.4572 9.83701 13.6313 10.4308 13.6307 10.9064C13.6301 11.4587 14.0773 11.9069 14.6296 11.9075C15.1819 11.9082 15.6301 11.461 15.6307 10.9087C15.6318 10.0054 15.3227 9.04557 14.8259 8.25823C14.3332 7.47726 13.5735 6.74067 12.5792 6.47434Z" fill="white"/>
</g>
<defs>
<clipPath id="clip0_641_7450">
<rect width="22" height="22" fill="white" transform="translate(0 0.105469)"/>
</clipPath>
</defs>
</svg>
