<svg width="20" height="20" viewBox="0 0 20 20" fill="none" xmlns="http://www.w3.org/2000/svg">
<path d="M10.0766 5.73958H2.875L7.13711 1.44734C7.29371 1.28727 7.3815 1.07154 7.3815 0.846781C7.3815 0.622024 7.29371 0.406294 7.13711 0.246224C6.97823 0.0884477 6.76411 0 6.54102 0C6.31794 0 6.10382 0.0884477 5.94494 0.246224L0.248856 5.97754C0.130476 6.09675 0.049703 6.24855 0.0166859 6.41386C-0.0163313 6.57918 -0.000119962 6.75064 0.063283 6.9067C0.109093 7.01086 0.17181 7.1066 0.248856 7.18998L5.95056 12.9213C6.0285 13.0008 6.12131 13.0639 6.22364 13.107C6.32596 13.15 6.43575 13.1722 6.54665 13.1722C6.65754 13.1722 6.76733 13.15 6.86965 13.107C6.97198 13.0639 7.0648 13.0008 7.14273 12.9213C7.29933 12.7612 7.38712 12.5455 7.38712 12.3207C7.38712 12.096 7.29933 11.8803 7.14273 11.7202L2.875 7.43361H9.56485C10.451 7.43361 11.3285 7.60946 12.1472 7.95113C12.966 8.2928 13.7099 8.79359 14.3365 9.42491C14.9631 10.0562 15.4602 10.8057 15.7993 11.6306C16.1384 12.4555 16.313 13.3395 16.313 14.2324V17.1502C16.313 17.2618 16.3348 17.3723 16.3772 17.4754C16.4196 17.5785 16.4817 17.6722 16.56 17.7511C16.6384 17.83 16.7313 17.8926 16.8337 17.9353C16.936 17.978 17.0457 18 17.1565 18C17.2673 18 17.3769 17.978 17.4793 17.9353C17.5816 17.8926 17.6746 17.83 17.7529 17.7511C17.8313 17.6722 17.8934 17.5785 17.9358 17.4754C17.9782 17.3723 18 17.2618 18 17.1502V13.7055C18 12.6579 17.7949 11.6207 17.3965 10.6531C16.9981 9.68554 16.4142 8.80664 15.6783 8.06672C14.9423 7.32679 14.0687 6.74039 13.1075 6.34106C12.1463 5.94174 11.1163 5.73735 10.0766 5.73958Z" fill="white" fill-opacity="0.6"/>
</svg>
