<svg width="16" height="16" viewBox="0 0 16 16" fill="none" xmlns="http://www.w3.org/2000/svg">
<g id="Frame" clip-path="url(#clip0_2105_10516)">
<path id="Union" fill-rule="evenodd" clip-rule="evenodd" d="M8.66636 3.2142C9.2095 2.96204 9.58613 2.41177 9.58613 1.77354C9.58613 0.896783 8.87539 0.186035 7.99863 0.186035C7.12188 0.186035 6.41113 0.896783 6.41113 1.77354C6.41113 2.41262 6.78877 2.9635 7.33307 3.2152V4.76348H4.36495C3.83454 4.76348 3.32585 4.97419 2.95079 5.34925C2.57573 5.72431 2.36502 6.233 2.36502 6.76341V13.8137C2.36502 14.3442 2.57573 14.8528 2.95079 15.2279C3.32585 15.603 3.83454 15.8137 4.36495 15.8137H11.6449C12.1754 15.8137 12.684 15.603 13.0591 15.2279C13.4342 14.8528 13.6449 14.3442 13.6449 13.8137V6.76341C13.6449 6.233 13.4342 5.72431 13.0591 5.34925C12.684 4.97419 12.1754 4.76348 11.6449 4.76348H8.66636V3.2142ZM5.99979 11.0966C6.26499 11.0966 6.51934 10.9912 6.70687 10.8037C6.8944 10.6162 6.99975 10.3618 6.99975 10.0966C6.99975 9.83142 6.8944 9.57708 6.70687 9.38955C6.51934 9.20202 6.26499 9.09666 5.99979 9.09666C5.73458 9.09666 5.48024 9.20202 5.29271 9.38955C5.10518 9.57708 4.99982 9.83142 4.99982 10.0966C4.99982 10.3618 5.10518 10.6162 5.29271 10.8037C5.48024 10.9912 5.73458 11.0966 5.99979 11.0966ZM10.9161 10.0966C10.9161 9.83142 10.8108 9.57708 10.6232 9.38955C10.4357 9.20202 10.1814 9.09666 9.91616 9.09666C9.65095 9.09666 9.48009 9.20202 9.29256 9.38955C9.10503 9.57708 8.99968 9.83142 8.99968 10.0966C8.99968 10.3618 9.10503 10.6162 9.29256 10.8037C9.48009 10.9912 9.65095 11.0966 9.91616 11.0966C10.1814 11.0966 10.4357 10.9912 10.6232 10.8037C10.8108 10.6162 10.9161 10.3618 10.9161 10.0966ZM0.828219 8.0967C0.370806 8.0967 0 8.46751 0 8.92492V11.2683C0 11.7258 0.370806 12.0966 0.828219 12.0966C1.28563 12.0966 1.65644 11.7257 1.65644 11.2683V8.92492C1.65644 8.4675 1.28563 8.0967 0.828219 8.0967ZM15.1619 8.0967C15.6245 8.0967 15.9994 8.47166 15.9994 8.9342V11.2591C15.9994 11.7216 15.6245 12.0966 15.1619 12.0966C14.6994 12.0966 14.3244 11.7216 14.3244 11.2591V8.9342C14.3244 8.47166 14.6994 8.0967 15.1619 8.0967Z" fill="white" fill-opacity="0.4"/>
</g>
<defs>
<clipPath id="clip0_2105_10516">
<rect width="16" height="16" fill="white"/>
</clipPath>
</defs>
</svg>
