<svg width="16" height="17" viewBox="0 0 16 17" fill="none" xmlns="http://www.w3.org/2000/svg">
<g id="Frame" clip-path="url(#clip0_2068_16497)">
<path id="Union" fill-rule="evenodd" clip-rule="evenodd" d="M8.66636 3.24789C9.2095 2.99573 9.58613 2.44546 9.58613 1.80723C9.58613 0.930475 8.87539 0.219727 7.99863 0.219727C7.12188 0.219727 6.41113 0.930475 6.41113 1.80723C6.41113 2.44631 6.78877 2.99719 7.33307 3.24889V4.79718H4.36495C3.83454 4.79718 3.32585 5.00788 2.95079 5.38294C2.57573 5.758 2.36502 6.26669 2.36502 6.7971V13.8474C2.36502 14.3778 2.57573 14.8865 2.95079 15.2616C3.32585 15.6367 3.83454 15.8474 4.36495 15.8474H11.6449C12.1754 15.8474 12.684 15.6367 13.0591 15.2616C13.4342 14.8865 13.6449 14.3778 13.6449 13.8474V6.7971C13.6449 6.26669 13.4342 5.758 13.0591 5.38294C12.684 5.00788 12.1754 4.79718 11.6449 4.79718H8.66636V3.24789ZM5.99979 11.1303C6.26499 11.1303 6.51934 11.0249 6.70687 10.8374C6.8944 10.6499 6.99975 10.3955 6.99975 10.1303C6.99975 9.86511 6.8944 9.61077 6.70687 9.42324C6.51934 9.23571 6.26499 9.13035 5.99979 9.13035C5.73458 9.13035 5.48024 9.23571 5.29271 9.42324C5.10518 9.61077 4.99982 9.86511 4.99982 10.1303C4.99982 10.3955 5.10518 10.6499 5.29271 10.8374C5.48024 11.0249 5.73458 11.1303 5.99979 11.1303ZM10.9161 10.1303C10.9161 9.86511 10.8108 9.61077 10.6232 9.42324C10.4357 9.23571 10.1814 9.13035 9.91616 9.13035C9.65095 9.13035 9.48009 9.23571 9.29256 9.42324C9.10503 9.61077 8.99968 9.86511 8.99968 10.1303C8.99968 10.3955 9.10503 10.6499 9.29256 10.8374C9.48009 11.0249 9.65095 11.1303 9.91616 11.1303C10.1814 11.1303 10.4357 11.0249 10.6232 10.8374C10.8108 10.6499 10.9161 10.3955 10.9161 10.1303ZM0.828219 8.13039C0.370806 8.13039 0 8.5012 0 8.95861V11.302C0 11.7594 0.370806 12.1302 0.828219 12.1302C1.28563 12.1302 1.65644 11.7594 1.65644 11.302V8.95861C1.65644 8.5012 1.28563 8.13039 0.828219 8.13039ZM15.1619 8.13039C15.6245 8.13039 15.9994 8.50535 15.9994 8.96789V11.2927C15.9994 11.7553 15.6245 12.1302 15.1619 12.1302C14.6994 12.1302 14.3244 11.7553 14.3244 11.2927V8.96789C14.3244 8.50535 14.6994 8.13039 15.1619 8.13039Z" fill="#27E6FF"/>
</g>
<defs>
<clipPath id="clip0_2068_16497">
<rect width="16" height="16" fill="white" transform="translate(0 0.0336914)"/>
</clipPath>
</defs>
</svg>
