<svg width="16" height="16" viewBox="0 0 16 16" fill="none" xmlns="http://www.w3.org/2000/svg">
<g clip-path="url(#clip0_1429_1914)">
<path fill-rule="evenodd" clip-rule="evenodd" d="M8.66636 3.21444C9.2095 2.96228 9.58613 2.41201 9.58613 1.77378C9.58613 0.897027 8.87539 0.186279 7.99863 0.186279C7.12188 0.186279 6.41113 0.897027 6.41113 1.77378C6.41113 2.41286 6.78877 2.96374 7.33307 3.21545V4.76373H4.36495C3.83454 4.76373 3.32585 4.97443 2.95079 5.34949C2.57573 5.72455 2.36502 6.23324 2.36502 6.76366V13.814C2.36502 14.3444 2.57573 14.8531 2.95079 15.2282C3.32585 15.6032 3.83454 15.8139 4.36495 15.8139H11.6449C12.1754 15.8139 12.684 15.6032 13.0591 15.2282C13.4342 14.8531 13.6449 14.3444 13.6449 13.814V6.76366C13.6449 6.23324 13.4342 5.72455 13.0591 5.34949C12.684 4.97443 12.1754 4.76373 11.6449 4.76373H8.66636V3.21444ZM5.99979 11.0968C6.26499 11.0968 6.51934 10.9915 6.70687 10.804C6.8944 10.6164 6.99975 10.3621 6.99975 10.0969C6.99975 9.83167 6.8944 9.57732 6.70687 9.38979C6.51934 9.20226 6.26499 9.09691 5.99979 9.09691C5.73458 9.09691 5.48024 9.20226 5.29271 9.38979C5.10518 9.57732 4.99982 9.83167 4.99982 10.0969C4.99982 10.3621 5.10518 10.6164 5.29271 10.804C5.48024 10.9915 5.73458 11.0968 5.99979 11.0968ZM10.9161 10.0969C10.9161 9.83167 10.8108 9.57732 10.6232 9.38979C10.4357 9.20226 10.1814 9.09691 9.91616 9.09691C9.65095 9.09691 9.48009 9.20226 9.29256 9.38979C9.10503 9.57732 8.99968 9.83167 8.99968 10.0969C8.99968 10.3621 9.10503 10.6164 9.29256 10.804C9.48009 10.9915 9.65095 11.0968 9.91616 11.0968C10.1814 11.0968 10.4357 10.9915 10.6232 10.804C10.8108 10.6164 10.9161 10.3621 10.9161 10.0969ZM0.828219 8.09694C0.370806 8.09694 0 8.46775 0 8.92516V11.2686C0 11.726 0.370806 12.0968 0.828219 12.0968C1.28563 12.0968 1.65644 11.726 1.65644 11.2686V8.92516C1.65644 8.46775 1.28563 8.09694 0.828219 8.09694ZM15.1619 8.09694C15.6245 8.09694 15.9994 8.4719 15.9994 8.93444V11.2593C15.9994 11.7218 15.6245 12.0968 15.1619 12.0968C14.6994 12.0968 14.3244 11.7218 14.3244 11.2593V8.93444C14.3244 8.4719 14.6994 8.09694 15.1619 8.09694Z" fill="white"/>
</g>
<defs>
<clipPath id="clip0_1429_1914">
<rect width="16" height="16" fill="white"/>
</clipPath>
</defs>
</svg>
