<svg width="16" height="16" viewBox="0 0 16 16" fill="none" xmlns="http://www.w3.org/2000/svg">
<g id="Frame" clip-path="url(#clip0_2105_8762)">
<path id="Subtract" fill-rule="evenodd" clip-rule="evenodd" d="M4.40301 15.9581C4.46569 15.9864 4.53246 16.0002 4.59886 16.0002C4.70873 16.0002 4.81716 15.9625 4.90371 15.8896L8.04624 13.2481C8.12811 13.1787 8.23244 13.1413 8.33991 13.1413H14.6131C15.3777 13.1413 16 12.5309 16 11.7811V2.42714C16 1.67717 15.3777 1.06689 14.6131 1.06689H1.38736C0.622315 1.06689 0 1.67717 0 2.42714V11.781C0 12.5308 0.622315 13.1412 1.38736 13.1412H3.6802C3.92859 13.1412 4.13036 13.3389 4.13036 13.5822V15.5407C4.13036 15.7202 4.23697 15.8831 4.40301 15.9581ZM2.93262 5.33357C2.93262 4.89174 3.29079 4.53357 3.73262 4.53357H9.06595C9.50778 4.53357 9.86595 4.89174 9.86595 5.33357C9.86595 5.7754 9.50778 6.13357 9.06595 6.13357H3.73262C3.29079 6.13357 2.93262 5.7754 2.93262 5.33357ZM2.93262 9.0669C2.93262 8.62507 3.29079 8.2669 3.73262 8.2669H12.266C12.7078 8.2669 13.066 8.62507 13.066 9.0669C13.066 9.50873 12.7078 9.8669 12.266 9.8669H3.73262C3.29079 9.8669 2.93262 9.50873 2.93262 9.0669Z" fill="white" fill-opacity="0.4"/>
</g>
<defs>
<clipPath id="clip0_2105_8762">
<rect width="16" height="16" fill="white"/>
</clipPath>
</defs>
</svg>
