<svg width="16" height="17" viewBox="0 0 16 17" fill="none" xmlns="http://www.w3.org/2000/svg">
<g id="Frame" clip-path="url(#clip0_2068_16491)">
<path id="Subtract" fill-rule="evenodd" clip-rule="evenodd" d="M4.40301 15.9918C4.46569 16.0201 4.53246 16.0339 4.59886 16.0339C4.70873 16.0339 4.81716 15.9962 4.90371 15.9233L8.04624 13.2818C8.12811 13.2124 8.23244 13.175 8.33991 13.175H14.6131C15.3777 13.175 16 12.5646 16 11.8148V2.46083C16 1.71087 15.3777 1.10059 14.6131 1.10059H1.38736C0.622315 1.10059 0 1.71087 0 2.46083V11.8147C0 12.5645 0.622315 13.1749 1.38736 13.1749H3.6802C3.92859 13.1749 4.13036 13.3726 4.13036 13.6158V15.5744C4.13036 15.7539 4.23697 15.9168 4.40301 15.9918ZM2.93262 5.36726C2.93262 4.92543 3.29079 4.56726 3.73262 4.56726H9.06595C9.50778 4.56726 9.86595 4.92543 9.86595 5.36726C9.86595 5.80909 9.50778 6.16726 9.06595 6.16726H3.73262C3.29079 6.16726 2.93262 5.80909 2.93262 5.36726ZM2.93262 9.10059C2.93262 8.65877 3.29079 8.30059 3.73262 8.30059H12.266C12.7078 8.30059 13.066 8.65877 13.066 9.10059C13.066 9.54242 12.7078 9.90059 12.266 9.90059H3.73262C3.29079 9.90059 2.93262 9.54242 2.93262 9.10059Z" fill="#27E6FF"/>
</g>
<defs>
<clipPath id="clip0_2068_16491">
<rect width="16" height="16" fill="white" transform="translate(0 0.0336914)"/>
</clipPath>
</defs>
</svg>
