<svg width="16" height="16" viewBox="0 0 16 16" fill="none" xmlns="http://www.w3.org/2000/svg">
<g clip-path="url(#clip0_1429_1900)">
<path fill-rule="evenodd" clip-rule="evenodd" d="M4.40301 15.9578C4.46569 15.9861 4.53246 16 4.59886 16C4.70873 16 4.81716 15.9622 4.90371 15.8893L8.04624 13.2478C8.12811 13.1785 8.23244 13.141 8.33991 13.141H14.6131C15.3777 13.141 16 12.5306 16 11.7809V2.4269C16 1.67693 15.3777 1.06665 14.6131 1.06665H1.38736C0.622315 1.06665 0 1.67693 0 2.4269V11.7808C0 12.5306 0.622315 13.1409 1.38736 13.1409H3.6802C3.92859 13.1409 4.13036 13.3387 4.13036 13.5819V15.5404C4.13036 15.72 4.23697 15.8829 4.40301 15.9578ZM2.93262 5.33333C2.93262 4.8915 3.29079 4.53333 3.73262 4.53333H9.06595C9.50778 4.53333 9.86595 4.8915 9.86595 5.33333C9.86595 5.77515 9.50778 6.13333 9.06595 6.13333H3.73262C3.29079 6.13333 2.93262 5.77515 2.93262 5.33333ZM2.93262 9.06666C2.93262 8.62483 3.29079 8.26666 3.73262 8.26666H12.266C12.7078 8.26666 13.066 8.62483 13.066 9.06666C13.066 9.50849 12.7078 9.86666 12.266 9.86666H3.73262C3.29079 9.86666 2.93262 9.50849 2.93262 9.06666Z" fill="white"/>
</g>
<defs>
<clipPath id="clip0_1429_1900">
<rect width="16" height="16" fill="white"/>
</clipPath>
</defs>
</svg>
