<svg width="16" height="16" viewBox="0 0 16 16" fill="none" xmlns="http://www.w3.org/2000/svg">
<g clip-path="url(#clip0_1429_1908)">
<path fill-rule="evenodd" clip-rule="evenodd" d="M3.65549 15.8039C3.86309 15.8257 4.07276 15.7924 4.2634 15.7074L7.97056 14.0549L11.6777 15.7074C11.8684 15.7924 12.078 15.8257 12.2856 15.8039C12.4932 15.7821 12.6914 15.7061 12.8603 15.5834C13.0292 15.4607 13.1628 15.2957 13.2476 15.105C13.3325 14.9143 13.3656 14.7046 13.3437 14.497L12.9174 10.4602L15.6353 7.44523C15.7751 7.29016 15.8716 7.10099 15.9151 6.89676C15.9585 6.69253 15.9474 6.48045 15.8829 6.28188C15.8184 6.0833 15.7026 5.90523 15.5474 5.7656C15.3922 5.62596 15.2029 5.52968 14.9986 5.48646L11.028 4.64495L9.00026 1.12837C8.89599 0.94751 8.74592 0.797305 8.56516 0.692869C8.3844 0.588432 8.17932 0.533447 7.97056 0.533447C7.7618 0.533447 7.55672 0.588432 7.37596 0.692869C7.19519 0.797305 7.04513 0.94751 6.94086 1.12837L4.91316 4.64495L0.942535 5.48646C0.738254 5.52968 0.548965 5.62596 0.393721 5.7656C0.238478 5.90523 0.122759 6.0833 0.058213 6.28188C-0.00633243 6.48045 -0.0174264 6.69253 0.0260478 6.89676C0.069522 7.10099 0.16603 7.29016 0.305857 7.44523L3.02372 10.4602L2.59742 14.497C2.57551 14.7046 2.60865 14.9143 2.6935 15.105C2.77836 15.2957 2.91194 15.4607 3.08082 15.5834C3.24969 15.7061 3.44789 15.7821 3.65549 15.8039ZM5.50844 7.81791C5.8987 7.62277 6.37221 7.77656 6.57424 8.16102L6.57608 8.1641C6.58147 8.17296 6.59405 8.19279 6.61454 8.22011C6.6558 8.27512 6.7267 8.35734 6.83263 8.44209C7.03434 8.60345 7.39388 8.80011 7.99954 8.80011C8.60521 8.80011 8.96475 8.60345 9.16646 8.44209C9.27238 8.35734 9.34329 8.27512 9.38454 8.22011C9.40504 8.19279 9.41762 8.17296 9.42301 8.1641L9.42485 8.16102C9.62688 7.77656 10.1004 7.62277 10.4906 7.81791C10.8858 8.0155 11.046 8.49604 10.8484 8.89122L10.1329 8.53345C10.8484 8.89122 10.8482 8.89164 10.848 8.89207L10.8476 8.89295L10.8466 8.89478L10.8446 8.89876L10.8399 8.90793L10.8275 8.93096C10.8179 8.94833 10.8057 8.96969 10.7907 8.99446C10.7606 9.04393 10.7191 9.10744 10.6645 9.18011C10.5558 9.32511 10.3934 9.50955 10.166 9.69148C9.70101 10.0634 8.99388 10.4001 7.99954 10.4001C7.00521 10.4001 6.29808 10.0634 5.83312 9.69148C5.60572 9.50955 5.44329 9.32511 5.33454 9.18011C5.28004 9.10744 5.23846 9.04393 5.20842 8.99446C5.19338 8.96969 5.18117 8.94833 5.17162 8.93096L5.15924 8.90793L5.15448 8.89876L5.15246 8.89478L5.15154 8.89295L5.1511 8.89207C5.15088 8.89164 5.15067 8.89122 5.86621 8.53345L5.15067 8.89122C4.95308 8.49604 5.11326 8.0155 5.50844 7.81791Z" fill="white"/>
</g>
<defs>
<clipPath id="clip0_1429_1908">
<rect width="16" height="16" fill="white"/>
</clipPath>
</defs>
</svg>
