<svg width="16" height="17" viewBox="0 0 16 17" fill="none" xmlns="http://www.w3.org/2000/svg">
<g id="Frame" clip-path="url(#clip0_2068_16494)">
<path id="Subtract" fill-rule="evenodd" clip-rule="evenodd" d="M3.65549 15.8374C3.86309 15.8591 4.07276 15.8258 4.2634 15.7408L7.97056 14.0883L11.6777 15.7408C11.8684 15.8258 12.078 15.8591 12.2856 15.8374C12.4932 15.8156 12.6914 15.7395 12.8603 15.6168C13.0292 15.4942 13.1628 15.3292 13.2476 15.1385C13.3325 14.9477 13.3656 14.738 13.3437 14.5305L12.9174 10.4937L15.6353 7.47867C15.7751 7.3236 15.8716 7.13443 15.9151 6.93021C15.9585 6.72598 15.9474 6.5139 15.8829 6.31533C15.8184 6.11675 15.7026 5.93868 15.5474 5.79904C15.3922 5.65941 15.2029 5.56313 14.9986 5.51991L11.028 4.6784L9.00026 1.16181C8.89599 0.980957 8.74592 0.830753 8.56516 0.726316C8.3844 0.621879 8.17932 0.566895 7.97056 0.566895C7.7618 0.566895 7.55672 0.621879 7.37596 0.726316C7.19519 0.830753 7.04513 0.980957 6.94086 1.16181L4.91316 4.6784L0.942535 5.51991C0.738254 5.56313 0.548965 5.65941 0.393721 5.79904C0.238478 5.93868 0.122759 6.11675 0.058213 6.31533C-0.00633243 6.5139 -0.0174264 6.72598 0.0260478 6.93021C0.069522 7.13443 0.16603 7.3236 0.305857 7.47867L3.02372 10.4937L2.59742 14.5305C2.57551 14.738 2.60865 14.9477 2.6935 15.1385C2.77836 15.3292 2.91194 15.4942 3.08082 15.6168C3.24969 15.7395 3.44789 15.8156 3.65549 15.8374ZM5.50844 7.85135C5.8987 7.65622 6.37221 7.81001 6.57424 8.19447L6.57608 8.19755C6.58147 8.20641 6.59405 8.22624 6.61454 8.25356C6.6558 8.30857 6.7267 8.39079 6.83263 8.47553C7.03434 8.6369 7.39388 8.83356 7.99954 8.83356C8.60521 8.83356 8.96475 8.6369 9.16646 8.47553C9.27238 8.39079 9.34329 8.30857 9.38454 8.25356C9.40504 8.22624 9.41762 8.20641 9.42301 8.19755L9.42485 8.19447C9.62688 7.81001 10.1004 7.65622 10.4906 7.85135C10.8858 8.04894 11.046 8.52948 10.8484 8.92467L10.1329 8.56689C10.8484 8.92467 10.8482 8.92509 10.848 8.92552L10.8476 8.92639L10.8466 8.92823L10.8446 8.9322L10.8399 8.94137L10.8275 8.96441C10.8179 8.98178 10.8057 9.00314 10.7907 9.02791C10.7606 9.07738 10.7191 9.14089 10.6645 9.21356C10.5558 9.35856 10.3934 9.543 10.166 9.72492C9.70101 10.0969 8.99388 10.4336 7.99954 10.4336C7.00521 10.4336 6.29808 10.0969 5.83312 9.72492C5.60572 9.543 5.44329 9.35856 5.33454 9.21356C5.28004 9.14089 5.23846 9.07738 5.20842 9.02791C5.19338 9.00314 5.18117 8.98178 5.17162 8.96441L5.15924 8.94137L5.15448 8.9322L5.15246 8.92823L5.15154 8.92639L5.1511 8.92552C5.15088 8.92509 5.15067 8.92467 5.86621 8.56689L5.15067 8.92467C4.95308 8.52948 5.11326 8.04894 5.50844 7.85135Z" fill="#27E6FF"/>
</g>
<defs>
<clipPath id="clip0_2068_16494">
<rect width="16" height="16" fill="white" transform="translate(0 0.0336914)"/>
</clipPath>
</defs>
</svg>
