<svg width="22" height="22" viewBox="0 0 22 22" fill="none" xmlns="http://www.w3.org/2000/svg">
<g clip-path="url(#clip0_6186_35499)">
<path d="M19.4619 12.6919C20.3962 12.6922 21.1541 13.45 21.1543 14.3843V17.9468C21.1541 18.8811 20.3962 19.6388 19.4619 19.6392H1.69238C0.757861 19.6392 0.000185201 18.8813 0 17.9468V14.3843C0.000163821 13.4498 0.757848 12.6919 1.69238 12.6919H19.4619ZM3.8457 14.5386C3.37858 14.5388 3 14.9181 3 15.3853V16.6929C3.00002 17.16 3.37859 17.5384 3.8457 17.5386H4.15332C4.62063 17.5386 4.99998 17.1602 5 16.6929V15.3853C5 14.9179 4.62064 14.5386 4.15332 14.5386H3.8457ZM6.5 14.5386C6.224 14.5386 6.00022 14.7626 6 15.0386V17.0386C6 17.3147 6.22386 17.5386 6.5 17.5386C6.77612 17.5386 7 17.3147 7 17.0386V15.0386C6.99978 14.7626 6.77599 14.5386 6.5 14.5386ZM9.8457 14.5386C9.37858 14.5388 9 14.9181 9 15.3853V16.6929C9.00002 17.16 9.37859 17.5384 9.8457 17.5386H17.1533C17.6206 17.5386 18 17.1602 18 16.6929V15.3853C18 14.9179 17.6206 14.5386 17.1533 14.5386H9.8457ZM19.4619 2.5376C20.396 2.53794 21.1539 3.29588 21.1543 4.22998V7.79248C21.1543 8.7269 20.3963 9.48452 19.4619 9.48486H1.69238C0.757747 9.48486 0 8.72712 0 7.79248V4.22998C0.000386235 3.29567 0.757985 2.5376 1.69238 2.5376H19.4619ZM3.8457 4.53857C3.37858 4.5388 3 4.91807 3 5.38525V6.69287C3.00002 7.16003 3.37859 7.53835 3.8457 7.53857H4.15332C4.62063 7.53857 4.99998 7.16017 5 6.69287V5.38525C5 4.91794 4.62064 4.53857 4.15332 4.53857H3.8457ZM6.5 4.53857C6.224 4.53857 6.00022 4.76262 6 5.03857V7.03857C6 7.31472 6.22386 7.53857 6.5 7.53857C6.77612 7.53855 7 7.3147 7 7.03857V5.03857C6.99978 4.76263 6.77599 4.53859 6.5 4.53857ZM9.8457 4.53857C9.37858 4.5388 9 4.91807 9 5.38525V6.69287C9.00002 7.16003 9.37859 7.53835 9.8457 7.53857H17.1533C17.6206 7.53857 18 7.16017 18 6.69287V5.38525C18 4.91794 17.6206 4.53857 17.1533 4.53857H9.8457Z" fill="white" fill-opacity="0.8"/>
<path d="M19.4619 12.6919C20.3962 12.6922 21.1541 13.45 21.1543 14.3843V17.9468C21.1541 18.8811 20.3962 19.6388 19.4619 19.6392H1.69238C0.757861 19.6392 0.000185201 18.8813 0 17.9468V14.3843C0.000163821 13.4498 0.757848 12.6919 1.69238 12.6919H19.4619ZM3.8457 14.5386C3.37858 14.5388 3 14.9181 3 15.3853V16.6929C3.00002 17.16 3.37859 17.5384 3.8457 17.5386H4.15332C4.62063 17.5386 4.99998 17.1602 5 16.6929V15.3853C5 14.9179 4.62064 14.5386 4.15332 14.5386H3.8457ZM6.5 14.5386C6.224 14.5386 6.00022 14.7626 6 15.0386V17.0386C6 17.3147 6.22386 17.5386 6.5 17.5386C6.77612 17.5386 7 17.3147 7 17.0386V15.0386C6.99978 14.7626 6.77599 14.5386 6.5 14.5386ZM9.8457 14.5386C9.37858 14.5388 9 14.9181 9 15.3853V16.6929C9.00002 17.16 9.37859 17.5384 9.8457 17.5386H17.1533C17.6206 17.5386 18 17.1602 18 16.6929V15.3853C18 14.9179 17.6206 14.5386 17.1533 14.5386H9.8457ZM19.4619 2.5376C20.396 2.53794 21.1539 3.29588 21.1543 4.22998V7.79248C21.1543 8.7269 20.3963 9.48452 19.4619 9.48486H1.69238C0.757747 9.48486 0 8.72712 0 7.79248V4.22998C0.000386235 3.29567 0.757985 2.5376 1.69238 2.5376H19.4619ZM3.8457 4.53857C3.37858 4.5388 3 4.91807 3 5.38525V6.69287C3.00002 7.16003 3.37859 7.53835 3.8457 7.53857H4.15332C4.62063 7.53857 4.99998 7.16017 5 6.69287V5.38525C5 4.91794 4.62064 4.53857 4.15332 4.53857H3.8457ZM6.5 4.53857C6.224 4.53857 6.00022 4.76262 6 5.03857V7.03857C6 7.31472 6.22386 7.53857 6.5 7.53857C6.77612 7.53855 7 7.3147 7 7.03857V5.03857C6.99978 4.76263 6.77599 4.53859 6.5 4.53857ZM9.8457 4.53857C9.37858 4.5388 9 4.91807 9 5.38525V6.69287C9.00002 7.16003 9.37859 7.53835 9.8457 7.53857H17.1533C17.6206 7.53857 18 7.16017 18 6.69287V5.38525C18 4.91794 17.6206 4.53857 17.1533 4.53857H9.8457Z" fill="url(#paint0_linear_6186_35499)"/>
</g>
<defs>
<linearGradient id="paint0_linear_6186_35499" x1="11.0002" y1="2.5376" x2="11.0002" y2="19.5383" gradientUnits="userSpaceOnUse">
<stop stop-color="#27E6FF"/>
<stop offset="1" stop-color="white"/>
</linearGradient>
<clipPath id="clip0_6186_35499">
<rect width="22" height="22" fill="white"/>
</clipPath>
</defs>
</svg>
