<svg width="22" height="22" viewBox="0 0 22 22" fill="none" xmlns="http://www.w3.org/2000/svg">
<g clip-path="url(#clip0_6172_14323)">
<path d="M10.5771 8.86786e-07C11.9662 -0.000520413 13.3416 0.272419 14.625 0.803712C15.9085 1.33506 17.0753 2.1144 18.0576 3.09668C19.0397 4.07886 19.8184 5.24501 20.3496 6.52832C20.8809 7.81173 21.1548 9.18715 21.1543 10.5762C21.1549 11.9652 20.8809 13.3416 20.3496 14.625C19.8184 15.9082 19.0396 17.0745 18.0576 18.0566C17.0755 19.0388 15.9093 19.8182 14.626 20.3496C13.3427 20.881 11.9671 21.1537 10.5781 21.1533C9.18889 21.1541 7.81295 20.8809 6.5293 20.3496C5.24572 19.8184 4.07904 19.0398 3.09668 18.0576C2.11426 17.0753 1.33514 15.9086 0.803712 14.625C0.272341 13.3415 -0.000567884 11.9654 8.87203e-07 10.5762C-0.000518228 9.18718 0.272441 7.8117 0.803712 6.52832C1.33503 5.24485 2.11446 4.07894 3.09668 3.09668C4.07891 2.11445 5.24488 1.33505 6.52832 0.803712C7.81184 0.272368 9.18799 -0.000567779 10.5771 8.86786e-07ZM10.5 1.92188C5.88452 1.92205 2.11412 5.52844 1.85449 10.0762C1.85375 10.1412 1.86639 10.2062 1.89063 10.2666C1.91485 10.3268 1.95073 10.3814 1.99609 10.4277C2.04155 10.4741 2.09553 10.5116 2.15527 10.5371C2.21507 10.5625 2.27976 10.5756 2.34473 10.5762H6.25977C6.50928 10.5762 6.70065 10.7686 6.72949 11.0195C6.84068 11.9386 7.28476 12.7854 7.97754 13.3994C8.67037 14.0135 9.56444 14.3525 10.4902 14.3525C11.416 14.3525 12.3101 14.0135 13.0029 13.3994C13.6957 12.7854 14.1398 11.9386 14.251 11.0195C14.2798 10.7686 14.4717 10.5762 14.7227 10.5762H18.6543C18.934 10.5761 19.1646 10.3458 19.1445 10.0762C19.0151 7.87119 18.0481 5.79885 16.4414 4.2832C14.8346 2.76754 12.7089 1.92249 10.5 1.92188ZM9.9043 4.64356C10.0013 3.90271 11.1452 3.91278 11.2422 4.64356L12.3857 10.6338C12.7031 13.4508 8.43332 13.4508 8.76074 10.6338L9.9043 4.64356ZM4.52442 5.46484C4.83848 5.19852 5.30928 5.23713 5.57617 5.55078L6.62891 6.78809C6.89571 7.10216 6.85681 7.57379 6.54297 7.84082C6.2288 8.10769 5.75722 8.069 5.49024 7.75488L4.43848 6.51758C4.17185 6.2034 4.21039 5.73175 4.52442 5.46484ZM15.4219 5.55078C15.6888 5.23712 16.1596 5.19853 16.4736 5.46484C16.7877 5.73176 16.8262 6.2034 16.5596 6.51758L15.5078 7.75488C15.2408 8.069 14.7693 8.10769 14.4551 7.84082C14.1413 7.57378 14.1023 7.10215 14.3691 6.78809L15.4219 5.55078Z" fill="white"/>
<path d="M10.5771 8.86786e-07C11.9662 -0.000520413 13.3416 0.272419 14.625 0.803712C15.9085 1.33506 17.0753 2.1144 18.0576 3.09668C19.0397 4.07886 19.8184 5.24501 20.3496 6.52832C20.8809 7.81173 21.1548 9.18715 21.1543 10.5762C21.1549 11.9652 20.8809 13.3416 20.3496 14.625C19.8184 15.9082 19.0396 17.0745 18.0576 18.0566C17.0755 19.0388 15.9093 19.8182 14.626 20.3496C13.3427 20.881 11.9671 21.1537 10.5781 21.1533C9.18889 21.1541 7.81295 20.8809 6.5293 20.3496C5.24572 19.8184 4.07904 19.0398 3.09668 18.0576C2.11426 17.0753 1.33514 15.9086 0.803712 14.625C0.272341 13.3415 -0.000567884 11.9654 8.87203e-07 10.5762C-0.000518228 9.18718 0.272441 7.8117 0.803712 6.52832C1.33503 5.24485 2.11446 4.07894 3.09668 3.09668C4.07891 2.11445 5.24488 1.33505 6.52832 0.803712C7.81184 0.272368 9.18799 -0.000567779 10.5771 8.86786e-07ZM10.5 1.92188C5.88452 1.92205 2.11412 5.52844 1.85449 10.0762C1.85375 10.1412 1.86639 10.2062 1.89063 10.2666C1.91485 10.3268 1.95073 10.3814 1.99609 10.4277C2.04155 10.4741 2.09553 10.5116 2.15527 10.5371C2.21507 10.5625 2.27976 10.5756 2.34473 10.5762H6.25977C6.50928 10.5762 6.70065 10.7686 6.72949 11.0195C6.84068 11.9386 7.28476 12.7854 7.97754 13.3994C8.67037 14.0135 9.56444 14.3525 10.4902 14.3525C11.416 14.3525 12.3101 14.0135 13.0029 13.3994C13.6957 12.7854 14.1398 11.9386 14.251 11.0195C14.2798 10.7686 14.4717 10.5762 14.7227 10.5762H18.6543C18.934 10.5761 19.1646 10.3458 19.1445 10.0762C19.0151 7.87119 18.0481 5.79885 16.4414 4.2832C14.8346 2.76754 12.7089 1.92249 10.5 1.92188ZM9.9043 4.64356C10.0013 3.90271 11.1452 3.91278 11.2422 4.64356L12.3857 10.6338C12.7031 13.4508 8.43332 13.4508 8.76074 10.6338L9.9043 4.64356ZM4.52442 5.46484C4.83848 5.19852 5.30928 5.23713 5.57617 5.55078L6.62891 6.78809C6.89571 7.10216 6.85681 7.57379 6.54297 7.84082C6.2288 8.10769 5.75722 8.069 5.49024 7.75488L4.43848 6.51758C4.17185 6.2034 4.21039 5.73175 4.52442 5.46484ZM15.4219 5.55078C15.6888 5.23712 16.1596 5.19853 16.4736 5.46484C16.7877 5.73176 16.8262 6.2034 16.5596 6.51758L15.5078 7.75488C15.2408 8.069 14.7693 8.10769 14.4551 7.84082C14.1413 7.57378 14.1023 7.10215 14.3691 6.78809L15.4219 5.55078Z" fill="url(#paint0_linear_6172_14323)"/>
</g>
<defs>
<linearGradient id="paint0_linear_6172_14323" x1="10.5771" y1="0" x2="10.5771" y2="21.1533" gradientUnits="userSpaceOnUse">
<stop stop-color="#27E6FF"/>
<stop offset="1" stop-color="white"/>
</linearGradient>
<clipPath id="clip0_6172_14323">
<rect width="22" height="22" fill="white"/>
</clipPath>
</defs>
</svg>
