<svg width="22" height="22" viewBox="0 0 22 22" fill="none" xmlns="http://www.w3.org/2000/svg">
<path d="M1.86323 6.38432C-0.449854 9.48479 1.3625 14.7496 5.91108 18.1431C10.4596 21.5365 16.0218 21.7737 18.3349 18.6734C18.4182 18.5705 18.4933 18.4804 18.5615 18.397C15.4986 19.0541 11.5458 18.0746 8.10737 15.5093C4.4656 12.7922 2.36649 9.01573 2.33979 5.76127C2.18461 5.9548 2.04105 6.14596 1.86323 6.38432ZM17.0146 3.54057C12.5994 0.246582 7.26486 -0.0712213 5.09955 2.83061C2.93439 5.73275 4.75845 10.7562 9.17377 14.0503C13.589 17.3442 18.9237 17.6614 21.0888 14.7593C23.2534 11.8572 21.4295 6.8345 17.0146 3.54057ZM10.997 4.5767C11.6742 4.55316 12.4906 5.19384 12.8193 6.00736C12.9158 6.23612 12.9248 6.42592 13.0292 6.6724C13.4037 7.59919 14.332 8.32891 15.1035 8.30229C15.8652 8.27558 16.1894 7.52124 15.8369 6.6099C15.6187 6.01432 15.8353 5.52585 16.3359 5.50834C16.8506 5.49047 17.4708 5.97781 17.7206 6.59623C17.9645 7.2001 17.7691 7.71096 17.2763 7.74662C16.598 7.7704 15.5706 8.53857 16.2861 10.3628C16.366 10.5665 16.4339 10.6738 16.5185 10.8697C16.8117 11.5954 16.5518 12.2164 15.956 12.2222C15.0492 12.2069 14.4921 11.287 14.4277 11.1529C13.9139 10.2589 12.9793 9.60496 12.1865 9.63236C11.3277 9.66235 10.944 10.4816 11.2841 11.4947C11.4969 12.1412 11.2502 12.6629 10.7011 12.6822C10.1202 12.7023 9.42065 12.1525 9.13862 11.4546C8.85668 10.7567 9.09889 10.1744 9.67963 10.1538C11.0042 10.1826 11.6536 8.9201 10.9941 7.28764C10.8817 7.00945 10.7389 6.74201 10.5732 6.49076C10.5718 6.48869 10.4476 6.30142 10.3662 6.0933C10.0375 5.27991 10.3202 4.60065 10.997 4.5767Z" fill="white"/>
<path d="M1.86323 6.38432C-0.449854 9.48479 1.3625 14.7496 5.91108 18.1431C10.4596 21.5365 16.0218 21.7737 18.3349 18.6734C18.4182 18.5705 18.4933 18.4804 18.5615 18.397C15.4986 19.0541 11.5458 18.0746 8.10737 15.5093C4.4656 12.7922 2.36649 9.01573 2.33979 5.76127C2.18461 5.9548 2.04105 6.14596 1.86323 6.38432ZM17.0146 3.54057C12.5994 0.246582 7.26486 -0.0712213 5.09955 2.83061C2.93439 5.73275 4.75845 10.7562 9.17377 14.0503C13.589 17.3442 18.9237 17.6614 21.0888 14.7593C23.2534 11.8572 21.4295 6.8345 17.0146 3.54057ZM10.997 4.5767C11.6742 4.55316 12.4906 5.19384 12.8193 6.00736C12.9158 6.23612 12.9248 6.42592 13.0292 6.6724C13.4037 7.59919 14.332 8.32891 15.1035 8.30229C15.8652 8.27558 16.1894 7.52124 15.8369 6.6099C15.6187 6.01432 15.8353 5.52585 16.3359 5.50834C16.8506 5.49047 17.4708 5.97781 17.7206 6.59623C17.9645 7.2001 17.7691 7.71096 17.2763 7.74662C16.598 7.7704 15.5706 8.53857 16.2861 10.3628C16.366 10.5665 16.4339 10.6738 16.5185 10.8697C16.8117 11.5954 16.5518 12.2164 15.956 12.2222C15.0492 12.2069 14.4921 11.287 14.4277 11.1529C13.9139 10.2589 12.9793 9.60496 12.1865 9.63236C11.3277 9.66235 10.944 10.4816 11.2841 11.4947C11.4969 12.1412 11.2502 12.6629 10.7011 12.6822C10.1202 12.7023 9.42065 12.1525 9.13862 11.4546C8.85668 10.7567 9.09889 10.1744 9.67963 10.1538C11.0042 10.1826 11.6536 8.9201 10.9941 7.28764C10.8817 7.00945 10.7389 6.74201 10.5732 6.49076C10.5718 6.48869 10.4476 6.30142 10.3662 6.0933C10.0375 5.27991 10.3202 4.60065 10.997 4.5767Z" fill="url(#paint0_linear_6172_14389)"/>
<defs>
<linearGradient id="paint0_linear_6172_14389" x1="11.4288" y1="0.846191" x2="11.4288" y2="20.8519" gradientUnits="userSpaceOnUse">
<stop stop-color="#27E6FF"/>
<stop offset="1" stop-color="white"/>
</linearGradient>
</defs>
</svg>
