<svg width="22" height="22" viewBox="0 0 22 22" fill="none" xmlns="http://www.w3.org/2000/svg">
<path d="M19.4619 12.6924C20.3963 12.6927 21.1543 13.4503 21.1543 14.3848V17.9473C21.1541 18.8815 20.3962 19.6393 19.4619 19.6396H1.69238C0.757861 19.6396 0.000185227 18.8817 0 17.9473V14.3848C0 13.4501 0.757747 12.6924 1.69238 12.6924H19.4619ZM3.8457 14.5391C3.37874 14.5393 3.00024 14.9178 3 15.3848V16.6934C3.00024 17.1603 3.37874 17.5388 3.8457 17.5391H4.1543C4.62126 17.5388 4.99976 17.1603 5 16.6934V15.3848C4.99976 14.9178 4.62126 14.5393 4.1543 14.5391H3.8457ZM6.5 14.5391C6.22386 14.5391 6 14.7629 6 15.0391V17.0391C6 17.3152 6.22386 17.5391 6.5 17.5391C6.77614 17.5391 7 17.3152 7 17.0391V15.0391C7 14.7629 6.77614 14.5391 6.5 14.5391ZM9.8457 14.5391C9.37874 14.5393 9.00024 14.9178 9 15.3848V16.6934C9.00024 17.1603 9.37874 17.5388 9.8457 17.5391H17.1543C17.6213 17.5388 17.9998 17.1603 18 16.6934V15.3848C17.9998 14.9178 17.6213 14.5393 17.1543 14.5391H9.8457ZM19.4619 2.53906C20.3963 2.5394 21.1543 3.29702 21.1543 4.23145V7.79395C21.1542 8.72825 20.3962 9.48599 19.4619 9.48633H1.69238C0.757836 9.48633 0.000144519 8.72846 0 7.79395V4.23145C0 3.29681 0.757747 2.53906 1.69238 2.53906H19.4619ZM3.8457 4.53906C3.37874 4.53931 3.00024 4.91781 3 5.38477V6.69336C3.00024 7.16032 3.37874 7.53882 3.8457 7.53906H4.1543C4.62126 7.53882 4.99976 7.16032 5 6.69336V5.38477C4.99976 4.91781 4.62126 4.53931 4.1543 4.53906H3.8457ZM6.5 4.53906C6.22386 4.53906 6 4.76292 6 5.03906V7.03906C6 7.3152 6.22386 7.53906 6.5 7.53906C6.77614 7.53906 7 7.3152 7 7.03906V5.03906C7 4.76292 6.77614 4.53906 6.5 4.53906ZM9.8457 4.53906C9.37874 4.53931 9.00024 4.91781 9 5.38477V6.69336C9.00024 7.16032 9.37874 7.53882 9.8457 7.53906H17.1543C17.6213 7.53882 17.9998 7.16032 18 6.69336V5.38477C17.9998 4.91781 17.6213 4.53931 17.1543 4.53906H9.8457Z" fill="white"/>
</svg>
