<svg width="22" height="22" viewBox="0 0 22 22" fill="none" xmlns="http://www.w3.org/2000/svg">
<g clip-path="url(#clip0_8314_7382)">
<path d="M10.5771 0C11.9661 -0.000552567 13.3416 0.272489 14.625 0.803711C15.9085 1.33505 17.0753 2.1144 18.0576 3.09668C19.0397 4.07881 19.8183 5.24505 20.3496 6.52832C20.881 7.81184 21.1549 9.18799 21.1543 10.5771C21.1549 11.9661 20.8818 13.3417 20.3506 14.625C19.8193 15.9084 19.0397 17.0744 18.0576 18.0566C17.0755 19.0389 15.9093 19.8182 14.626 20.3496C13.3427 20.881 11.9671 21.1547 10.5781 21.1543C9.18897 21.155 7.81288 20.8818 6.5293 20.3506C5.24578 19.8193 4.07999 19.0398 3.09766 18.0576C2.11525 17.0753 1.33514 15.9095 0.803711 14.626C0.272292 13.3424 -0.000552762 11.9664 0 10.5771C-0.000568665 9.18799 0.272367 7.81184 0.803711 6.52832C1.33505 5.24489 2.11446 4.0789 3.09668 3.09668C4.0789 2.11446 5.24489 1.33505 6.52832 0.803711C7.81184 0.272367 9.18799 -0.000568665 10.5771 0ZM10.501 1.92285C5.88545 1.92285 2.11428 5.52848 1.85449 10.0762C1.85373 10.1413 1.86637 10.2062 1.89062 10.2666C1.91488 10.327 1.95054 10.3822 1.99609 10.4287C2.04165 10.4752 2.09635 10.5116 2.15625 10.5371C2.21614 10.5626 2.28063 10.5766 2.3457 10.5771H6.25977C6.50921 10.5771 6.70151 10.7687 6.73047 11.0195C6.84164 11.9386 7.28569 12.7853 7.97852 13.3994C8.67126 14.0134 9.56459 14.3525 10.4902 14.3525C11.416 14.3525 12.3101 14.0135 13.0029 13.3994C13.6957 12.7853 14.1398 11.9386 14.251 11.0195C14.28 10.7687 14.4718 10.5771 14.7227 10.5771H18.6543C18.9341 10.5771 19.1647 10.3459 19.1445 10.0762C19.015 7.87123 18.0481 5.79878 16.4414 4.2832C14.8347 2.76773 12.7096 1.92357 10.501 1.92285ZM9.90527 4.64453C10.0019 3.90315 11.1455 3.91324 11.2422 4.64453L12.3857 10.6348C12.703 13.4517 8.43341 13.4517 8.76074 10.6348L9.90527 4.64453ZM4.52441 5.46484C4.83854 5.19818 5.30922 5.23685 5.57617 5.55078L6.62891 6.78809C6.8958 7.10226 6.85709 7.57383 6.54297 7.84082C6.22879 8.10769 5.75722 8.069 5.49023 7.75488L4.43848 6.51758C4.17168 6.2034 4.21032 5.7318 4.52441 5.46484ZM15.4219 5.55078C15.6888 5.23685 16.1595 5.19818 16.4736 5.46484C16.7877 5.7318 16.8264 6.2034 16.5596 6.51758L15.5078 7.75488C15.2408 8.069 14.7693 8.10769 14.4551 7.84082C14.141 7.57383 14.1022 7.10226 14.3691 6.78809L15.4219 5.55078Z" fill="white"/>
</g>
<defs>
<clipPath id="clip0_8314_7382">
<rect width="22" height="22" fill="white"/>
</clipPath>
</defs>
</svg>
