<svg width="22" height="22" viewBox="0 0 22 22" fill="none" xmlns="http://www.w3.org/2000/svg">
<path d="M2.33984 5.76074C2.18471 5.95423 2.04108 6.14547 1.86328 6.38379C-0.449631 9.48422 1.36278 14.7481 5.91113 18.1416C10.4596 21.535 16.0217 21.773 18.335 18.6729C18.418 18.5702 18.4925 18.4797 18.5605 18.3965C15.4978 19.0532 11.5456 18.0748 8.10742 15.5098C4.4653 12.7925 2.36634 9.0154 2.33984 5.76074Z" fill="white"/>
<path d="M17.0142 3.53906C12.5989 0.245159 7.26432 -0.0728562 5.09912 2.8291C2.93398 5.73121 4.75812 10.7547 9.17334 14.0488C13.5885 17.3428 18.923 17.6605 21.0884 14.7588C23.2535 11.8567 21.4295 6.83316 17.0142 3.53906ZM10.9976 4.57617C11.6748 4.55252 12.4901 5.19322 12.8188 6.00684C12.9154 6.23565 12.9244 6.42541 13.0288 6.67188C13.4033 7.59881 14.3325 8.32862 15.104 8.30176C15.8658 8.27515 16.189 7.52078 15.8364 6.60938C15.6184 6.01386 15.8359 5.52529 16.3364 5.50781C16.8512 5.49005 17.4713 5.97732 17.7212 6.5957C17.965 7.19953 17.7696 7.7104 17.2769 7.74609C16.5986 7.76978 15.571 8.53785 16.2866 10.3623C16.3665 10.566 16.4344 10.6732 16.519 10.8691C16.8122 11.5948 16.5522 12.2157 15.9565 12.2217C15.0497 12.2064 14.4927 11.2864 14.4282 11.1523C13.9144 10.2582 12.979 9.60415 12.186 9.63184C11.3274 9.662 10.9446 10.4812 11.2847 11.4941C11.4974 12.1406 11.2507 12.6624 10.7017 12.6816C10.1207 12.7019 9.42124 12.1521 9.13916 11.4541C8.85713 10.756 9.09917 10.1736 9.68018 10.1533C11.0047 10.1821 11.6531 8.92049 10.9937 7.28809C10.8812 7.00964 10.7386 6.74168 10.5728 6.49023C10.5728 6.49023 10.4486 6.30204 10.3667 6.09277C10.038 5.27921 10.3204 4.59989 10.9976 4.57617Z" fill="white"/>
</svg>
