<svg width="25" height="25" viewBox="0 0 25 25" fill="none" xmlns="http://www.w3.org/2000/svg">
<g clip-path="url(#clip0_8213_12375)">
<path d="M11.1592 19.7039C11.5486 19.3146 12.1848 19.3137 12.5742 19.7029C12.9637 20.0923 12.9635 20.7294 12.5742 21.1189L10.5449 23.1482C10.1554 23.5377 9.51811 23.5374 9.12891 23.1482C8.7397 22.7587 8.74054 22.1226 9.12988 21.7332L11.1592 19.7039ZM4.44434 18.6306C4.83385 18.2413 5.47092 18.2412 5.86035 18.6306C6.24957 19.0201 6.24861 19.6562 5.85938 20.0457L3.83008 22.075C3.44065 22.4643 2.80453 22.4652 2.41504 22.0759C2.02562 21.6865 2.02577 21.0504 2.41504 20.6609L4.44434 18.6306ZM12.624 20.1023C12.6378 20.1363 12.6472 20.1716 12.6562 20.2068C12.6538 20.1972 12.6532 20.187 12.6504 20.1775C12.6429 20.1521 12.6342 20.1269 12.624 20.1023ZM15.4414 1.32983C19.0486 -0.810257 22.9438 0.643082 23.2861 0.77124C23.3666 0.801834 23.4379 0.935029 23.4678 1.01733C23.729 1.73906 24.8758 5.37597 22.8701 8.75757C20.8403 12.1789 18.4848 13.8666 18.0605 14.1531C18.041 14.1663 18.0259 14.185 18.0166 14.2068C18.0073 14.2286 18.0047 14.2528 18.0088 14.2761C18.0798 14.6798 18.345 16.5576 17.4941 18.155C17.064 18.9626 16.6876 19.4964 16.4033 19.8396C16.1321 20.167 15.6367 20.1885 15.3359 19.8884L12.5273 17.0798C12.5025 17.0551 12.4678 17.0415 12.4326 17.0437C12.4031 17.0453 12.3755 17.0584 12.3545 17.0789C10.9092 18.4897 8.5936 18.4789 7.16113 17.0466C5.73031 15.6158 5.71815 13.303 7.125 11.8572C7.14781 11.8337 7.16074 11.8018 7.16016 11.7693V11.7605C7.15944 11.7289 7.14612 11.6988 7.12402 11.6765L4.32812 8.88062C4.01655 8.56904 4.04225 8.05705 4.38281 7.77808C4.72678 7.49618 5.25504 7.12668 6.04492 6.70581C7.64206 5.85488 9.51873 6.12018 9.92285 6.19116C9.97034 6.19936 10.0189 6.17908 10.0459 6.1394C10.3322 5.71536 12.0201 3.35953 15.4414 1.32983ZM12.4443 19.8328C12.4506 19.839 12.4559 19.8459 12.4619 19.8523C12.4561 19.8461 12.4514 19.8388 12.4453 19.8328C12.4254 19.8129 12.4044 19.7945 12.3828 19.7771C12.4041 19.7944 12.4246 19.813 12.4443 19.8328ZM5.53906 18.6179C5.53714 18.6169 5.53514 18.616 5.5332 18.615C5.50306 18.5992 5.47198 18.5857 5.44043 18.574C5.47403 18.5865 5.50707 18.6008 5.53906 18.6179ZM5.40625 18.5623C5.39939 18.56 5.39265 18.5575 5.38574 18.5554C5.36523 18.5494 5.34408 18.5462 5.32324 18.5417C5.35113 18.5477 5.37899 18.5534 5.40625 18.5623ZM5.28027 18.532C5.2379 18.5252 5.19517 18.5212 5.15234 18.5212C5.19515 18.5213 5.23786 18.5253 5.28027 18.532ZM3.45703 11.9617C3.84646 11.5724 4.48259 11.5724 4.87207 11.9617C5.26124 12.3512 5.26135 12.9873 4.87207 13.3767L2.84277 15.405C2.45337 15.7944 1.81726 15.7952 1.42773 15.406C1.0386 15.0166 1.0387 14.3804 1.42773 13.991L3.45703 11.9617ZM4.68066 12.0349C4.70209 12.0523 4.72323 12.0706 4.74316 12.0906C4.70339 12.0508 4.66055 12.0159 4.61523 11.9861L4.68066 12.0349ZM17.5742 2.62183C15.4838 2.62183 13.7893 4.31662 13.7891 6.40698C13.7891 8.49748 15.4837 10.1931 17.5742 10.1931C19.6645 10.1928 21.3593 8.49729 21.3594 6.40698C21.3591 4.31681 19.6644 2.62214 17.5742 2.62183ZM17.5742 4.37769C18.6953 4.37769 19.6044 5.28597 19.6045 6.40698C19.6045 7.52808 18.6953 8.43726 17.5742 8.43726C16.4532 8.4372 15.5439 7.52804 15.5439 6.40698C15.5441 5.28601 16.4532 4.37774 17.5742 4.37769Z" fill="white"/>
</g>
<defs>
<clipPath id="clip0_8213_12375">
<rect width="24.2" height="24.2" fill="white" transform="translate(0.205109 0.169434)"/>
</clipPath>
</defs>
</svg>
