<svg width="22" height="22" viewBox="0 0 22 22" fill="none" xmlns="http://www.w3.org/2000/svg">
<g clip-path="url(#clip0_8314_7345)">
<path d="M6.24707 18.3418C7.57277 19.3318 9.21813 19.9179 11 19.918C12.7806 19.9179 14.4239 19.3316 15.749 18.3428C16.0039 18.8554 16.3611 19.3078 16.7949 19.6729C15.1816 20.8883 13.1755 21.6103 11 21.6104C8.82276 21.6103 6.81425 20.888 5.2002 19.6709C5.63427 19.3061 5.99201 18.8543 6.24707 18.3418ZM6.91406 3.23242C7.01108 3.80734 7.22631 4.34198 7.53418 4.81055C4.87961 6.0982 3.04987 8.81927 3.0498 11.9678C3.0498 12.1099 3.05318 12.2513 3.06055 12.3916C2.88946 12.3701 2.71501 12.3584 2.53809 12.3584C2.13349 12.3584 1.74268 12.4172 1.37305 12.5254C1.36253 12.3409 1.35742 12.1549 1.35742 11.9678C1.35748 8.10299 3.63132 4.77041 6.91406 3.23242ZM15.084 3.23242C18.3672 4.77021 20.6425 8.10262 20.6426 11.9678C20.6426 12.154 20.6354 12.3389 20.625 12.5225C20.2556 12.4146 19.8651 12.3555 19.4609 12.3555C19.2839 12.3555 19.1096 12.3671 18.9385 12.3887C18.9457 12.2493 18.9502 12.1089 18.9502 11.9678C18.9501 8.8189 17.1189 6.09802 14.4639 4.81055C14.7719 4.34187 14.9869 3.80754 15.084 3.23242Z" fill="white"/>
<path d="M11 0C12.4018 1.2884e-07 13.5379 1.13631 13.5381 2.53809C13.5381 3.6221 12.8576 4.54426 11.9014 4.9082V6.86621C13.8048 7.27926 15.2303 8.97289 15.2305 11C15.2305 11.4986 15.1428 11.9767 14.9844 12.4209L18.1191 14.3477C18.5088 14.1042 18.9686 13.9619 19.4619 13.9619C20.8636 13.9621 21.9998 15.0984 22 16.5C22 17.9018 20.8637 19.0389 19.4619 19.0391C18.06 19.0391 16.9229 17.902 16.9229 16.5C16.9229 16.2138 16.9722 15.9393 17.0596 15.6826L14.1074 13.8691C13.3345 14.7059 12.229 15.2314 11 15.2314C9.82269 15.2314 8.75817 14.7497 7.99121 13.9736L5.00098 15.8955C5.04846 16.0895 5.07712 16.2914 5.07715 16.5C5.07715 17.902 3.94004 19.0391 2.53809 19.0391C1.1363 19.0389 0 17.9018 0 16.5C0.000222995 15.0984 1.13644 13.9621 2.53809 13.9619C3.11522 13.9619 3.64587 14.157 4.07227 14.4814L7.06543 12.5566C6.8747 12.0749 6.76953 11.5496 6.76953 11C6.76967 8.93393 8.25061 7.2142 10.209 6.84375V4.94922C9.19467 4.61661 8.46191 3.66362 8.46191 2.53809C8.46212 1.1363 9.59817 0 11 0Z" fill="white"/>
</g>
<defs>
<clipPath id="clip0_8314_7345">
<rect width="22" height="22" fill="white"/>
</clipPath>
</defs>
</svg>
