<svg width="22" height="22" viewBox="0 0 22 22" fill="none" xmlns="http://www.w3.org/2000/svg">
<g clip-path="url(#clip0_8314_7379)">
<path d="M5.03468 17.5972H17.5977V5.0342H5.03468V17.5972ZM13.4092 19.6902H9.22072V21.7833H7.1277V19.6902H3.98695C3.70907 19.6902 3.44257 19.5799 3.24609 19.3834C3.0496 19.1869 2.93921 18.9204 2.93921 18.6425V15.5017H0.846191V13.4087H2.93921V9.22023H0.846191V7.12722H2.93921V3.98646C2.93921 3.70858 3.0496 3.44209 3.24609 3.2456C3.44257 3.04911 3.70907 2.93872 3.98695 2.93872H7.1277V0.845703H9.22072V2.93872H13.4092V0.845703H15.5022V2.93872H18.643C18.9209 2.93872 19.1874 3.04911 19.3839 3.2456C19.5803 3.44209 19.6907 3.70858 19.6907 3.98646V7.12722H21.7837V9.22023H19.6907V13.4087H21.7837V15.5017H19.6907V18.6425C19.6907 18.9204 19.5803 19.1869 19.3839 19.3834C19.1874 19.5799 18.9209 19.6902 18.643 19.6902H15.5022V21.7833H13.4092V19.6902ZM7.1277 7.12722H15.5022V15.5017H7.1277V7.12722Z" fill="white"/>
</g>
<defs>
<clipPath id="clip0_8314_7379">
<rect width="22" height="22" fill="white"/>
</clipPath>
</defs>
</svg>
