<svg width="22" height="22" viewBox="0 0 22 22" fill="none" xmlns="http://www.w3.org/2000/svg">
<g clip-path="url(#clip0_6172_14304)">
<path d="M9.95726 17.7581C10.3112 17.4043 10.8893 17.4044 11.2434 17.7581C11.5973 18.112 11.5979 18.6901 11.2444 19.0442L9.39866 20.8899C9.04451 21.2437 8.46626 21.2427 8.11253 20.8889C7.75886 20.5348 7.75863 19.9568 8.11253 19.6028L9.95726 17.7581ZM3.85374 16.7835C4.20783 16.4294 4.78678 16.4294 5.14085 16.7835C5.49429 17.1376 5.4937 17.7157 5.13987 18.0696L3.29515 19.9143C2.94112 20.268 2.36302 20.268 2.00901 19.9143C1.65518 19.5603 1.65437 18.9823 2.00804 18.6282L3.85374 16.7835ZM4.02659 16.8499C4.00733 16.8656 3.98886 16.8827 3.97093 16.9007L2.12522 18.7454H2.1262L3.97093 16.9007C3.99339 16.8782 4.01676 16.8572 4.04124 16.8382C4.03631 16.842 4.03145 16.8459 4.02659 16.8499ZM13.8508 1.05495C17.1292 -0.890172 20.6696 0.429953 20.9826 0.547134C21.0557 0.574973 21.1205 0.695952 21.1477 0.770767C21.3852 1.42687 22.4283 4.73361 20.6047 7.80788C18.7598 10.9176 16.6189 12.4513 16.2326 12.7122C16.2149 12.7241 16.2011 12.7413 16.1926 12.761C16.1842 12.7808 16.181 12.8032 16.1848 12.8245C16.2493 13.1915 16.4912 14.8978 15.718 16.3499C15.3268 17.0842 14.9843 17.57 14.7258 17.8821C14.4793 18.1797 14.0295 18.1987 13.7561 17.926L11.2024 15.3733C11.1798 15.3508 11.1484 15.3391 11.1164 15.3411C11.0896 15.3425 11.0643 15.3537 11.0451 15.3723C9.73127 16.6549 7.62571 16.645 6.32347 15.343C5.02289 14.0422 5.01235 11.9396 6.29124 10.6253C6.31192 10.6039 6.32308 10.5748 6.32249 10.5452V10.5374C6.32183 10.5087 6.31023 10.4815 6.29026 10.4612L3.74827 7.9192C3.46502 7.63595 3.48847 7.16989 3.79808 6.91628C4.11078 6.66005 4.59105 6.32411 5.30882 5.94167C6.76124 5.16787 8.46859 5.41044 8.83518 5.47487C8.8783 5.48213 8.92213 5.46311 8.94651 5.42702C9.20698 5.04129 10.7409 2.89997 13.8508 1.05495ZM11.1262 17.8762C11.1442 17.8942 11.1613 17.9126 11.177 17.9319L11.1262 17.8753C11.1147 17.8638 11.1021 17.8536 11.0901 17.843C11.1023 17.8537 11.1146 17.8646 11.1262 17.8762ZM5.0803 16.9661C5.07787 16.963 5.07595 16.9594 5.07347 16.9563L5.02268 16.9007C5.04349 16.9215 5.06249 16.9435 5.0803 16.9661ZM4.80784 16.7532C4.79751 16.7484 4.78807 16.7418 4.77757 16.7376C4.77031 16.7346 4.76243 16.7334 4.75511 16.7307C4.77302 16.7373 4.79038 16.7452 4.80784 16.7532ZM4.6389 16.6975C4.64347 16.6984 4.64801 16.6995 4.65257 16.7005C4.60137 16.6898 4.54938 16.6839 4.49729 16.6839C4.54476 16.6839 4.59214 16.6885 4.6389 16.6975ZM2.95628 10.72C3.31029 10.3663 3.8884 10.3663 4.24241 10.72C4.59602 11.074 4.59606 11.6521 4.24241 12.0061L2.39768 13.8508C2.0436 14.2049 1.46466 14.2049 1.11058 13.8508C0.756899 13.4967 0.757601 12.9187 1.11155 12.5647L2.95628 10.72ZM15.7903 2.22878C13.8898 2.22878 12.349 3.76976 12.3489 5.67018C12.3489 7.57065 13.8898 9.11159 15.7903 9.11159C17.6904 9.1112 19.2307 7.57041 19.2307 5.67018C19.2306 3.77 17.6904 2.22917 15.7903 2.22878ZM15.7893 3.82448C16.8085 3.82448 17.635 4.65101 17.635 5.67018C17.635 6.68936 16.8085 7.51588 15.7893 7.51588C14.7703 7.51565 13.9446 6.68922 13.9446 5.67018C13.9446 4.65116 14.7703 3.82471 15.7893 3.82448Z" fill="white"/>
<path d="M9.95726 17.7581C10.3112 17.4043 10.8893 17.4044 11.2434 17.7581C11.5973 18.112 11.5979 18.6901 11.2444 19.0442L9.39866 20.8899C9.04451 21.2437 8.46626 21.2427 8.11253 20.8889C7.75886 20.5348 7.75863 19.9568 8.11253 19.6028L9.95726 17.7581ZM3.85374 16.7835C4.20783 16.4294 4.78678 16.4294 5.14085 16.7835C5.49429 17.1376 5.4937 17.7157 5.13987 18.0696L3.29515 19.9143C2.94112 20.268 2.36302 20.268 2.00901 19.9143C1.65518 19.5603 1.65437 18.9823 2.00804 18.6282L3.85374 16.7835ZM4.02659 16.8499C4.00733 16.8656 3.98886 16.8827 3.97093 16.9007L2.12522 18.7454H2.1262L3.97093 16.9007C3.99339 16.8782 4.01676 16.8572 4.04124 16.8382C4.03631 16.842 4.03145 16.8459 4.02659 16.8499ZM13.8508 1.05495C17.1292 -0.890172 20.6696 0.429953 20.9826 0.547134C21.0557 0.574973 21.1205 0.695952 21.1477 0.770767C21.3852 1.42687 22.4283 4.73361 20.6047 7.80788C18.7598 10.9176 16.6189 12.4513 16.2326 12.7122C16.2149 12.7241 16.2011 12.7413 16.1926 12.761C16.1842 12.7808 16.181 12.8032 16.1848 12.8245C16.2493 13.1915 16.4912 14.8978 15.718 16.3499C15.3268 17.0842 14.9843 17.57 14.7258 17.8821C14.4793 18.1797 14.0295 18.1987 13.7561 17.926L11.2024 15.3733C11.1798 15.3508 11.1484 15.3391 11.1164 15.3411C11.0896 15.3425 11.0643 15.3537 11.0451 15.3723C9.73127 16.6549 7.62571 16.645 6.32347 15.343C5.02289 14.0422 5.01235 11.9396 6.29124 10.6253C6.31192 10.6039 6.32308 10.5748 6.32249 10.5452V10.5374C6.32183 10.5087 6.31023 10.4815 6.29026 10.4612L3.74827 7.9192C3.46502 7.63595 3.48847 7.16989 3.79808 6.91628C4.11078 6.66005 4.59105 6.32411 5.30882 5.94167C6.76124 5.16787 8.46859 5.41044 8.83518 5.47487C8.8783 5.48213 8.92213 5.46311 8.94651 5.42702C9.20698 5.04129 10.7409 2.89997 13.8508 1.05495ZM11.1262 17.8762C11.1442 17.8942 11.1613 17.9126 11.177 17.9319L11.1262 17.8753C11.1147 17.8638 11.1021 17.8536 11.0901 17.843C11.1023 17.8537 11.1146 17.8646 11.1262 17.8762ZM5.0803 16.9661C5.07787 16.963 5.07595 16.9594 5.07347 16.9563L5.02268 16.9007C5.04349 16.9215 5.06249 16.9435 5.0803 16.9661ZM4.80784 16.7532C4.79751 16.7484 4.78807 16.7418 4.77757 16.7376C4.77031 16.7346 4.76243 16.7334 4.75511 16.7307C4.77302 16.7373 4.79038 16.7452 4.80784 16.7532ZM4.6389 16.6975C4.64347 16.6984 4.64801 16.6995 4.65257 16.7005C4.60137 16.6898 4.54938 16.6839 4.49729 16.6839C4.54476 16.6839 4.59214 16.6885 4.6389 16.6975ZM2.95628 10.72C3.31029 10.3663 3.8884 10.3663 4.24241 10.72C4.59602 11.074 4.59606 11.6521 4.24241 12.0061L2.39768 13.8508C2.0436 14.2049 1.46466 14.2049 1.11058 13.8508C0.756899 13.4967 0.757601 12.9187 1.11155 12.5647L2.95628 10.72ZM15.7903 2.22878C13.8898 2.22878 12.349 3.76976 12.3489 5.67018C12.3489 7.57065 13.8898 9.11159 15.7903 9.11159C17.6904 9.1112 19.2307 7.57041 19.2307 5.67018C19.2306 3.77 17.6904 2.22917 15.7903 2.22878ZM15.7893 3.82448C16.8085 3.82448 17.635 4.65101 17.635 5.67018C17.635 6.68936 16.8085 7.51588 15.7893 7.51588C14.7703 7.51565 13.9446 6.68922 13.9446 5.67018C13.9446 4.65116 14.7703 3.82471 15.7893 3.82448Z" fill="url(#paint0_linear_6172_14304)"/>
</g>
<defs>
<linearGradient id="paint0_linear_6172_14304" x1="11.2527" y1="0.000976562" x2="11.2527" y2="21.1547" gradientUnits="userSpaceOnUse">
<stop stop-color="#27E6FF"/>
<stop offset="1" stop-color="white"/>
</linearGradient>
<clipPath id="clip0_6172_14304">
<rect width="22" height="22" fill="white"/>
</clipPath>
</defs>
</svg>
