<svg width="22" height="22" viewBox="0 0 22 22" fill="none" xmlns="http://www.w3.org/2000/svg">
<g clip-path="url(#clip0_6186_36124)">
<path d="M18.7566 14.7051C19.4395 13.0749 19.5969 11.2698 19.2066 9.54468C18.8163 7.81953 17.898 6.26138 16.5813 5.09014C15.2638 3.91617 13.6144 3.18718 11.8646 3.00548C10.1149 2.82377 8.35253 3.19847 6.82495 4.07699L5.78201 2.2397C7.37862 1.32221 9.1859 0.841788 11.0241 0.846222C12.8622 0.850656 14.6672 1.33979 16.2594 2.26498C18.5166 3.57318 20.21 5.68022 21.0103 8.1763C21.8106 10.6724 21.6606 13.3791 20.5894 15.7699L22 16.5886L17.6199 18.9291L17.4464 13.9447L18.7566 14.7051ZM3.24338 8.14166C2.56063 9.77199 2.40342 11.5771 2.79392 13.3023C3.18443 15.0274 4.10294 16.5855 5.41982 17.7566C6.73731 18.9306 8.38668 19.6596 10.1365 19.8413C11.8862 20.023 13.6486 19.6483 15.1761 18.7698L16.2191 20.6071C14.6224 21.5244 12.815 22.0046 10.9769 22C9.13871 21.9954 7.33378 21.5061 5.74164 20.5807C3.48477 19.2725 1.79156 17.1657 0.991283 14.6698C0.191003 12.174 0.340849 9.46759 1.41168 7.07687L0 6.25932L4.38015 3.91876L4.55361 8.90316L3.24338 8.14276V8.14166ZM7.31915 13.5381H13.1044C13.2077 13.5371 13.3084 13.5054 13.394 13.4472C13.4796 13.3889 13.5463 13.3066 13.5858 13.2105C13.6253 13.1144 13.6359 13.0087 13.6163 12.9065C13.5967 12.8044 13.5476 12.7103 13.4754 12.636C13.3769 12.537 13.2435 12.4813 13.1044 12.481H8.89666C8.20029 12.4805 7.53254 12.2019 7.03972 11.7063C6.54691 11.2107 6.26921 10.5386 6.26748 9.83719C6.26719 9.48954 6.33503 9.14526 6.46711 8.82408C6.59919 8.50289 6.79291 8.21113 7.03717 7.96551C7.28143 7.71989 7.57141 7.52525 7.8905 7.39274C8.20959 7.26024 8.55151 7.19248 8.89666 7.19335H9.94833V6.13625H12.0517V7.19335H14.6809V9.30864H8.89775C8.79423 9.30921 8.69319 9.34054 8.60727 9.39871C8.52136 9.45688 8.45441 9.5393 8.4148 9.63563C8.37519 9.73196 8.36469 9.83793 8.38462 9.94025C8.40455 10.0426 8.45402 10.1367 8.52683 10.2108C8.62501 10.3097 8.7592 10.3657 8.89775 10.3657H13.1055C13.8019 10.3663 14.4696 10.6449 14.9625 11.1405C15.4553 11.636 15.733 12.3082 15.7347 13.0096C15.735 13.3572 15.6671 13.7015 15.5351 14.0227C15.403 14.3439 15.2093 14.6357 14.965 14.8813C14.7208 15.1269 14.4308 15.3215 14.1117 15.454C13.7926 15.5865 13.4507 15.6543 13.1055 15.6534H12.0528V16.7105H9.94942V15.6534H7.32024V13.5381H7.31915Z" fill="white"/>
<path d="M18.7566 14.7051C19.4395 13.0749 19.5969 11.2698 19.2066 9.54468C18.8163 7.81953 17.898 6.26138 16.5813 5.09014C15.2638 3.91617 13.6144 3.18718 11.8646 3.00548C10.1149 2.82377 8.35253 3.19847 6.82495 4.07699L5.78201 2.2397C7.37862 1.32221 9.1859 0.841788 11.0241 0.846222C12.8622 0.850656 14.6672 1.33979 16.2594 2.26498C18.5166 3.57318 20.21 5.68022 21.0103 8.1763C21.8106 10.6724 21.6606 13.3791 20.5894 15.7699L22 16.5886L17.6199 18.9291L17.4464 13.9447L18.7566 14.7051ZM3.24338 8.14166C2.56063 9.77199 2.40342 11.5771 2.79392 13.3023C3.18443 15.0274 4.10294 16.5855 5.41982 17.7566C6.73731 18.9306 8.38668 19.6596 10.1365 19.8413C11.8862 20.023 13.6486 19.6483 15.1761 18.7698L16.2191 20.6071C14.6224 21.5244 12.815 22.0046 10.9769 22C9.13871 21.9954 7.33378 21.5061 5.74164 20.5807C3.48477 19.2725 1.79156 17.1657 0.991283 14.6698C0.191003 12.174 0.340849 9.46759 1.41168 7.07687L0 6.25932L4.38015 3.91876L4.55361 8.90316L3.24338 8.14276V8.14166ZM7.31915 13.5381H13.1044C13.2077 13.5371 13.3084 13.5054 13.394 13.4472C13.4796 13.3889 13.5463 13.3066 13.5858 13.2105C13.6253 13.1144 13.6359 13.0087 13.6163 12.9065C13.5967 12.8044 13.5476 12.7103 13.4754 12.636C13.3769 12.537 13.2435 12.4813 13.1044 12.481H8.89666C8.20029 12.4805 7.53254 12.2019 7.03972 11.7063C6.54691 11.2107 6.26921 10.5386 6.26748 9.83719C6.26719 9.48954 6.33503 9.14526 6.46711 8.82408C6.59919 8.50289 6.79291 8.21113 7.03717 7.96551C7.28143 7.71989 7.57141 7.52525 7.8905 7.39274C8.20959 7.26024 8.55151 7.19248 8.89666 7.19335H9.94833V6.13625H12.0517V7.19335H14.6809V9.30864H8.89775C8.79423 9.30921 8.69319 9.34054 8.60727 9.39871C8.52136 9.45688 8.45441 9.5393 8.4148 9.63563C8.37519 9.73196 8.36469 9.83793 8.38462 9.94025C8.40455 10.0426 8.45402 10.1367 8.52683 10.2108C8.62501 10.3097 8.7592 10.3657 8.89775 10.3657H13.1055C13.8019 10.3663 14.4696 10.6449 14.9625 11.1405C15.4553 11.636 15.733 12.3082 15.7347 13.0096C15.735 13.3572 15.6671 13.7015 15.5351 14.0227C15.403 14.3439 15.2093 14.6357 14.965 14.8813C14.7208 15.1269 14.4308 15.3215 14.1117 15.454C13.7926 15.5865 13.4507 15.6543 13.1055 15.6534H12.0528V16.7105H9.94942V15.6534H7.32024V13.5381H7.31915Z" fill="url(#paint0_linear_6186_36124)"/>
</g>
<defs>
<linearGradient id="paint0_linear_6186_36124" x1="11" y1="0.846191" x2="11" y2="22" gradientUnits="userSpaceOnUse">
<stop stop-color="#27E6FF"/>
<stop offset="1" stop-color="white"/>
</linearGradient>
<clipPath id="clip0_6186_36124">
<rect width="22" height="22" fill="white"/>
</clipPath>
</defs>
</svg>
