<svg width="22" height="22" viewBox="0 0 22 22" fill="none" xmlns="http://www.w3.org/2000/svg">
<g clip-path="url(#clip0_6186_34767)">
<path d="M5.03468 17.5977H17.5977V5.03468H5.03468V17.5977ZM13.4092 19.6907H9.22072V21.7837H7.1277V19.6907H3.98695C3.70907 19.6907 3.44257 19.5803 3.24609 19.3839C3.0496 19.1874 2.93921 18.9209 2.93921 18.643V15.5022H0.846191V13.4092H2.93921V9.22072H0.846191V7.1277H2.93921V3.98695C2.93921 3.70907 3.0496 3.44257 3.24609 3.24609C3.44257 3.0496 3.70907 2.93921 3.98695 2.93921H7.1277V0.846191H9.22072V2.93921H13.4092V0.846191H15.5022V2.93921H18.643C18.9209 2.93921 19.1874 3.0496 19.3839 3.24609C19.5803 3.44257 19.6907 3.70907 19.6907 3.98695V7.1277H21.7837V9.22072H19.6907V13.4092H21.7837V15.5022H19.6907V18.643C19.6907 18.9209 19.5803 19.1874 19.3839 19.3839C19.1874 19.5803 18.9209 19.6907 18.643 19.6907H15.5022V21.7837H13.4092V19.6907ZM7.1277 7.1277H15.5022V15.5022H7.1277V7.1277Z" fill="white"/>
<path d="M5.03468 17.5977H17.5977V5.03468H5.03468V17.5977ZM13.4092 19.6907H9.22072V21.7837H7.1277V19.6907H3.98695C3.70907 19.6907 3.44257 19.5803 3.24609 19.3839C3.0496 19.1874 2.93921 18.9209 2.93921 18.643V15.5022H0.846191V13.4092H2.93921V9.22072H0.846191V7.1277H2.93921V3.98695C2.93921 3.70907 3.0496 3.44257 3.24609 3.24609C3.44257 3.0496 3.70907 2.93921 3.98695 2.93921H7.1277V0.846191H9.22072V2.93921H13.4092V0.846191H15.5022V2.93921H18.643C18.9209 2.93921 19.1874 3.0496 19.3839 3.24609C19.5803 3.44257 19.6907 3.70907 19.6907 3.98695V7.1277H21.7837V9.22072H19.6907V13.4092H21.7837V15.5022H19.6907V18.643C19.6907 18.9209 19.5803 19.1874 19.3839 19.3839C19.1874 19.5803 18.9209 19.6907 18.643 19.6907H15.5022V21.7837H13.4092V19.6907ZM7.1277 7.1277H15.5022V15.5022H7.1277V7.1277Z" fill="url(#paint0_linear_6186_34767)"/>
</g>
<defs>
<linearGradient id="paint0_linear_6186_34767" x1="11.315" y1="0.846191" x2="11.315" y2="21.7837" gradientUnits="userSpaceOnUse">
<stop stop-color="#27E6FF"/>
<stop offset="1" stop-color="white"/>
</linearGradient>
<clipPath id="clip0_6186_34767">
<rect width="22" height="22" fill="white"/>
</clipPath>
</defs>
</svg>
